<svg width="17" height="18" viewBox="0 0 17 18" fill="none" xmlns="http://www.w3.org/2000/svg">
<path d="M15.1867 1.76465H0.566667C0.253705 1.76465 0 2.01914 0 2.33307V12.4415C0 12.7555 0.253705 13.0099 0.566667 13.0099H15.1867C15.4997 13.0099 15.7533 12.7555 15.7533 12.4415V2.33307C15.7533 2.01914 15.4997 1.76465 15.1867 1.76465Z" fill="#0078D4"/>
<path opacity="0.9" d="M14.554 2.55103H1.19959C1.04311 2.55103 0.91626 2.67828 0.91626 2.83524V11.8353C0.91626 11.9922 1.04311 12.1195 1.19959 12.1195H14.554C14.7105 12.1195 14.8374 11.9922 14.8374 11.8353V2.83524C14.8374 2.67828 14.7105 2.55103 14.554 2.55103Z" fill="url(#paint0_linear_607_5083)"/>
<path d="M16.7164 4.69238H10.0109C9.85438 4.69238 9.72754 4.81963 9.72754 4.9766V16.5818C9.72754 16.7388 9.85438 16.866 10.0109 16.866H16.7164C16.8729 16.866 16.9998 16.7388 16.9998 16.5818V4.9766C16.9998 4.81963 16.8729 4.69238 16.7164 4.69238Z" fill="url(#paint1_linear_607_5083)"/>
<path d="M14.1005 5.09961H12.6366C12.5793 5.09961 12.5327 5.14627 12.5327 5.20382V5.22277C12.5327 5.28032 12.5793 5.32698 12.6366 5.32698H14.1005C14.1579 5.32698 14.2044 5.28032 14.2044 5.22277V5.20382C14.2044 5.14627 14.1579 5.09961 14.1005 5.09961Z" fill="#F2F2F2"/>
<path opacity="0.9" d="M16.1875 5.71558H10.5492C10.4762 5.71558 10.417 5.77496 10.417 5.84821V15.3693C10.417 15.4425 10.4762 15.5019 10.5492 15.5019H16.1875C16.2606 15.5019 16.3198 15.4425 16.3198 15.3693V5.84821C16.3198 5.77496 16.2606 5.71558 16.1875 5.71558Z" fill="url(#paint2_linear_607_5083)"/>
<path d="M8.63223 2.11548H7.16834C7.11097 2.11548 7.06445 2.16214 7.06445 2.21969V2.23864C7.06445 2.29619 7.11097 2.34285 7.16834 2.34285H8.63223C8.68961 2.34285 8.73612 2.29619 8.73612 2.23864V2.21969C8.73612 2.16214 8.68961 2.11548 8.63223 2.11548Z" fill="#F2F2F2"/>
<path d="M13.5813 15.9092H13.1469C13.0426 15.9092 12.958 15.994 12.958 16.0987V16.4113C12.958 16.5159 13.0426 16.6008 13.1469 16.6008H13.5813C13.6857 16.6008 13.7702 16.5159 13.7702 16.4113V16.0987C13.7702 15.994 13.6857 15.9092 13.5813 15.9092Z" fill="#F2F2F2"/>
<defs>
<linearGradient id="paint0_linear_607_5083" x1="7.87681" y1="12.1195" x2="7.87681" y2="2.55103" gradientUnits="userSpaceOnUse">
<stop stop-color="#D2EBFF"/>
<stop offset="1" stop-color="#F0FFFD"/>
</linearGradient>
<linearGradient id="paint1_linear_607_5083" x1="13.3637" y1="20.125" x2="13.3637" y2="3.00608" gradientUnits="userSpaceOnUse">
<stop stop-color="#0078D4"/>
<stop offset="0.17" stop-color="#1C84DC"/>
<stop offset="0.38" stop-color="#3990E4"/>
<stop offset="0.59" stop-color="#4D99EA"/>
<stop offset="0.8" stop-color="#5A9EEE"/>
<stop offset="1" stop-color="#5EA0EF"/>
</linearGradient>
<linearGradient id="paint2_linear_607_5083" x1="93.9413" y1="157.697" x2="93.9413" y2="56.6044" gradientUnits="userSpaceOnUse">
<stop stop-color="#D2EBFF"/>
<stop offset="1" stop-color="#F0FFFD"/>
</linearGradient>
</defs>
</svg>
