<svg width="18" height="18" viewBox="0 0 18 18" fill="none" xmlns="http://www.w3.org/2000/svg">
<path d="M13.4996 18H3.375C3.07663 18 2.79048 17.8815 2.5795 17.6705C2.36853 17.4595 2.25 17.1734 2.25 16.875V1.125C2.25 0.826631 2.36853 0.540483 2.5795 0.329505C2.79048 0.118526 3.07663 0 3.375 0L13.4996 0C13.798 0 14.0842 0.118526 14.2951 0.329505C14.5061 0.540483 14.6246 0.826631 14.6246 1.125V16.875C14.6246 17.1734 14.5061 17.4595 14.2951 17.6705C14.0842 17.8815 13.798 18 13.4996 18Z" fill="#1D1D1D"/>
<path d="M3.375 1.125H13.4996V15.75H3.375V1.125Z" fill="#5AB3D9"/>
<path d="M13.4996 15.7501H3.375V13.4997L13.4996 5.11353V15.7501Z" fill="#3898C6"/>
<path opacity="0.4" d="M12.3746 2.25V14.625H4.5V2.25H12.3746ZM13.4996 1.125H3.375V15.75H13.4996V1.125Z" fill="white"/>
<path d="M6.74951 15.75H10.1245V16.875H6.74951V15.75Z" fill="#E4E4E4"/>
</svg>
