<svg width="18" height="18" viewBox="0 0 18 18" fill="none" xmlns="http://www.w3.org/2000/svg">
<rect x="0.818359" y="3.69995" width="16.3636" height="12.75" fill="black"/>
<path d="M3.76074 7.60034C3.64746 7.64591 3.53743 7.67977 3.43066 7.7019C3.3252 7.72404 3.21517 7.73511 3.10059 7.73511C2.91699 7.73511 2.75423 7.70841 2.6123 7.65503C2.47168 7.60034 2.35254 7.51961 2.25488 7.41284C2.15853 7.30607 2.08496 7.17391 2.03418 7.01636C1.9847 6.8575 1.95996 6.67326 1.95996 6.46362C1.95996 6.24878 1.9873 6.05802 2.04199 5.89136C2.09668 5.72339 2.1748 5.58211 2.27637 5.46753C2.37793 5.35164 2.50098 5.26375 2.64551 5.20386C2.79134 5.14266 2.95475 5.11206 3.13574 5.11206C3.19434 5.11206 3.24902 5.11336 3.2998 5.11597C3.35189 5.11857 3.40267 5.12378 3.45215 5.13159C3.50163 5.1381 3.55176 5.14722 3.60254 5.15894C3.65332 5.17065 3.70605 5.18563 3.76074 5.20386V5.68042C3.65007 5.62834 3.5446 5.59123 3.44434 5.56909C3.34408 5.54696 3.25293 5.53589 3.1709 5.53589C3.0498 5.53589 2.94629 5.55802 2.86035 5.60229C2.77441 5.64526 2.70345 5.70646 2.64746 5.78589C2.59277 5.86401 2.55241 5.95776 2.52637 6.06714C2.50033 6.17521 2.4873 6.29435 2.4873 6.42456C2.4873 6.56258 2.50033 6.68628 2.52637 6.79565C2.55371 6.90373 2.59538 6.99552 2.65137 7.07104C2.70736 7.14657 2.77897 7.20451 2.86621 7.24487C2.95345 7.28394 3.05697 7.30347 3.17676 7.30347C3.21973 7.30347 3.26595 7.29956 3.31543 7.29175C3.36621 7.28263 3.41699 7.27157 3.46777 7.25854C3.51986 7.24422 3.57064 7.22795 3.62012 7.20972C3.6709 7.19019 3.71777 7.17065 3.76074 7.15112V7.60034ZM5.09863 5.69604C5.14811 5.69604 5.19434 5.70516 5.2373 5.72339C5.28027 5.74162 5.31738 5.76701 5.34863 5.79956C5.37988 5.83081 5.40462 5.86792 5.42285 5.91089C5.44108 5.95386 5.4502 5.99943 5.4502 6.04761C5.4502 6.09709 5.44108 6.14331 5.42285 6.18628C5.40462 6.22925 5.37988 6.26636 5.34863 6.29761C5.31738 6.32886 5.28027 6.3536 5.2373 6.37183C5.19434 6.39006 5.14811 6.39917 5.09863 6.39917C5.04915 6.39917 5.00293 6.39006 4.95996 6.37183C4.91829 6.3536 4.88118 6.32886 4.84863 6.29761C4.81738 6.26636 4.79264 6.22925 4.77441 6.18628C4.75618 6.14331 4.74707 6.09709 4.74707 6.04761C4.74707 5.99943 4.75618 5.95386 4.77441 5.91089C4.79264 5.86792 4.81738 5.83081 4.84863 5.79956C4.88118 5.76701 4.91829 5.74162 4.95996 5.72339C5.00293 5.70516 5.04915 5.69604 5.09863 5.69604ZM5.09863 7.04175C5.14811 7.04175 5.19434 7.05086 5.2373 7.06909C5.28027 7.08732 5.31738 7.11206 5.34863 7.14331C5.37988 7.17456 5.40462 7.21167 5.42285 7.25464C5.44108 7.29761 5.4502 7.34318 5.4502 7.39136C5.4502 7.44084 5.44108 7.48706 5.42285 7.53003C5.40462 7.573 5.37988 7.61076 5.34863 7.64331C5.31738 7.67456 5.28027 7.6993 5.2373 7.71753C5.19434 7.73576 5.14811 7.74487 5.09863 7.74487C5.04915 7.74487 5.00293 7.73576 4.95996 7.71753C4.91829 7.6993 4.88118 7.67456 4.84863 7.64331C4.81738 7.61076 4.79264 7.573 4.77441 7.53003C4.75618 7.48706 4.74707 7.44084 4.74707 7.39136C4.74707 7.34318 4.75618 7.29761 4.77441 7.25464C4.79264 7.21167 4.81738 7.17456 4.84863 7.14331C4.88118 7.11206 4.91829 7.08732 4.95996 7.06909C5.00293 7.05086 5.04915 7.04175 5.09863 7.04175ZM6.89355 4.94019L8.25879 8.11987H7.79395L6.43066 4.94019H6.89355ZM8.39746 8.50073V8.12378H10.5967V8.50073H8.39746ZM10.5967 8.50073V8.12378H12.7959V8.50073H10.5967Z" fill="white"/>
<rect x="0.818359" y="2.84998" width="16.3636" height="1.7" fill="#D9D9D9"/>
<rect x="15.5454" y="2.84998" width="0.818182" height="0.85" fill="#605E5C"/>
<rect x="13.9092" y="2.84998" width="0.818182" height="0.85" fill="#605E5C"/>
<rect x="12.2729" y="2.84998" width="0.818182" height="0.85" fill="#605E5C"/>
<rect x="0.5" y="2.5" width="17" height="14.3" stroke="#CDCDCD"/>
</svg>
