<svg xmlns="http://www.w3.org/2000/svg" width="18" height="18" viewBox="0 0 18 18">
  <defs>
    <linearGradient id="ad6842b8-f9f0-49e0-932c-a15455c37abd" x1="4.827" y1="777.689" x2="4.827" y2="787.343" gradientTransform="matrix(1, 0, 0, -1, 0, 791.516)" gradientUnits="userSpaceOnUse">
      <stop offset="0" stop-color="#0078d4" />
      <stop offset="1" stop-color="#83b9f9" />
    </linearGradient>
  </defs>
  <path d="M9.654,9.521v-1.1L9.5,8.364,8.321,7.978l-.309-.754.6-1.275-.775-.772-.154.077-1.1.56-.752-.309L5.348,4.173h-1.1l-.057.155L3.805,5.505l-.754.309L1.8,5.216l-.774.774.077.155.56,1.1L1.352,8,0,8.479v1.1l.154.057,1.178.386.309.753-.6,1.276.772.772.154-.077,1.1-.56.753.309.483,1.332h1.1l.057-.155L5.849,12.5l.753-.309,1.274.6.772-.772-.077-.155-.56-1.1L8.32,10ZM4.827,10.65A1.647,1.647,0,1,1,6.474,9h0A1.648,1.648,0,0,1,4.827,10.65Z" fill="url(#ad6842b8-f9f0-49e0-932c-a15455c37abd)" />
  <path d="M17.25,6.092H11.386a.751.751,0,0,1,0-1.5H17.25a.751.751,0,0,1,0,1.5Z" fill="#b3b3b3" />
  <path d="M17.25,9.842H11.386a.75.75,0,0,1,0-1.5H17.25a.75.75,0,0,1,0,1.5Z" fill="#a3a3a3" />
  <path d="M17.25,13.592H11.386a.75.75,0,0,1,0-1.5H17.25a.75.75,0,0,1,0,1.5Z" fill="#999" />
</svg>