<svg xmlns="http://www.w3.org/2000/svg" viewBox="0 0 2048 2048">
  <path d="M1536 1536v128h-128v256h128v128H448q-26 0-45-19t-19-45q0-26 19-45t45-19h192v-256H251q-50 0-95-20t-80-55-55-80-21-96V251q0-50 20-95t55-80 80-55 96-21h1063q-34 58-34 128H256q-27 0-50 10t-40 27-28 41-10 50v1152q0 27 10 50t27 41 40 27 51 10h1280zM1856 0q39 0 74 15t61 41 42 62 15 74v512q0 39-15 74t-41 61-62 42-74 15h-64v1088q0 26-19 45t-45 19q-26 0-45-19t-19-45V896h-64q-39 0-74-15t-61-41-42-62-15-74V192q0-39 15-74t41-61 62-42 74-15h256zm-256 128q-26 0-45 19t-19 45v64h384v-64q0-26-19-45t-45-19h-256zm256 640q26 0 45-19t19-45V384h-384v320q0 26 19 45t45 19h256zM768 1920h512v-256H768v256z" />
</svg>