<svg width="18" height="18" viewBox="0 0 18 18" fill="none" xmlns="http://www.w3.org/2000/svg">
  <g clip-path="url(#clip0_402_72835)">
    <path opacity="0.1" d="M7.99997 7.5C7.16182 7.49894 6.34012 7.73254 5.62788 8.17438C4.91565 8.61621 4.34134 9.24862 3.96997 10H4.36997C4.47634 9.90156 4.59 9.8113 4.70997 9.73C5.23767 9.35735 5.84806 9.11859 6.48855 9.03427C7.12904 8.94995 7.78042 9.02261 8.38659 9.24599C8.99275 9.46936 9.53553 9.83676 9.96815 10.3165C10.4008 10.7963 10.7103 11.374 10.87 12H12.5C12.5008 11.4088 12.3849 10.8233 12.159 10.277C11.9332 9.73067 11.6017 9.23428 11.1837 8.81626C10.7657 8.39824 10.2693 8.0668 9.72298 7.84093C9.17666 7.61507 8.59114 7.49921 7.99997 7.5ZM7.99997 1.5C7.40663 1.5 6.82661 1.67595 6.33326 2.00559C5.83991 2.33524 5.4554 2.80377 5.22833 3.35195C5.00127 3.90013 4.94186 4.50333 5.05762 5.08527C5.17337 5.66721 5.45909 6.20176 5.87865 6.62132C6.29821 7.04088 6.83276 7.3266 7.4147 7.44236C7.99664 7.55811 8.59984 7.4987 9.14802 7.27164C9.6962 7.04458 10.1647 6.66006 10.4944 6.16671C10.824 5.67336 11 5.09334 11 4.5C11 3.70435 10.6839 2.94129 10.1213 2.37868C9.55868 1.81607 8.79562 1.5 7.99997 1.5Z" fill="#202020" />
    <path d="M9.95992 7.39972C10.5807 6.98013 11.0504 6.3724 11.3 5.66591C11.5496 4.95943 11.5659 4.1915 11.3465 3.47507C11.1271 2.75864 10.6835 2.13153 10.0811 1.68599C9.4787 1.24045 8.7492 1 7.99992 1C7.25065 1 6.52115 1.24045 5.91873 1.68599C5.31631 2.13153 4.87277 2.75864 4.65335 3.47507C4.43394 4.1915 4.45023 4.95943 4.69982 5.66591C4.94942 6.3724 5.41915 6.98013 6.03992 7.39972C4.86723 7.90094 3.93011 8.83091 3.41992 9.99972H4.36992C4.47629 9.90129 4.58995 9.81103 4.70992 9.72972C5.19465 9.02874 5.8906 8.50091 6.69633 8.22316C7.50205 7.94541 8.37543 7.93227 9.18915 8.18565C10.0029 8.43903 10.7144 8.94569 11.22 9.63176C11.7256 10.3178 11.9988 11.1475 11.9999 11.9997H12.9999C12.998 11.0198 12.7091 10.062 12.1688 9.24445C11.6286 8.42694 10.8606 7.78562 9.95992 7.39972ZM7.99992 1.99972C8.49438 1.99972 8.97772 2.14635 9.38885 2.42105C9.79997 2.69575 10.1204 3.0862 10.3096 3.54302C10.4988 3.99983 10.5483 4.5025 10.4519 4.98745C10.3554 5.4724 10.1173 5.91786 9.76769 6.26749C9.41806 6.61712 8.9726 6.85522 8.48765 6.95169C8.0027 7.04815 7.50003 6.99864 7.04321 6.80942C6.5864 6.6202 6.19595 6.29977 5.92125 5.88865C5.64654 5.47753 5.49992 4.99418 5.49992 4.49972C5.49992 3.83668 5.76331 3.2008 6.23215 2.73196C6.701 2.26312 7.33688 1.99972 7.99992 1.99972Z" fill="#0883D9" />
    <path opacity="0.1" d="M6.99985 15.5C6.45774 15.4988 5.9308 15.3208 5.49896 14.9931C5.06711 14.6654 4.75391 14.2058 4.60685 13.684L3.47485 14L2.97485 13.5L1.97485 14L0.474854 12.5L1.47485 11.5H5.01085C5.26682 11.1587 5.60586 10.8886 5.99572 10.7154C6.38557 10.5421 6.81327 10.4716 7.23811 10.5104C7.66295 10.5491 8.07079 10.696 8.42284 10.9369C8.77489 11.1779 9.05942 11.5049 9.24936 11.8869C9.4393 12.2689 9.52834 12.6931 9.50799 13.1192C9.48764 13.5454 9.35859 13.9592 9.13312 14.3213C8.90764 14.6835 8.59324 14.9819 8.21984 15.1882C7.84644 15.3945 7.42646 15.5019 6.99985 15.5Z" fill="#0883D9" />
    <path d="M7.9999 13C7.9999 13.0989 7.97057 13.1956 7.91563 13.2778C7.86069 13.36 7.7826 13.4241 7.69124 13.4619C7.59988 13.4998 7.49934 13.5097 7.40235 13.4904C7.30536 13.4711 7.21627 13.4235 7.14634 13.3536C7.07642 13.2836 7.0288 13.1945 7.0095 13.0975C6.99021 13.0006 7.00011 12.9 7.03796 12.8087C7.0758 12.7173 7.13989 12.6392 7.22211 12.5843C7.30434 12.5293 7.40101 12.5 7.4999 12.5C7.6325 12.5 7.75968 12.5527 7.85345 12.6465C7.94722 12.7402 7.9999 12.8674 7.9999 13ZM9.9999 13C10.0035 13.6816 9.77423 14.344 9.35007 14.8776C8.92591 15.4112 8.33227 15.784 7.6674 15.9342C7.00253 16.0844 6.30629 16.0031 5.69392 15.7038C5.08154 15.4044 4.58973 14.9049 4.2999 14.288L3.6069 14.481L3.1189 14.354L2.8739 14.108L2.1959 14.447L1.6189 14.354L0.118896 12.854V12.146L1.1189 11.146L1.4759 11H4.7759C5.05439 10.685 5.39676 10.4329 5.78022 10.2605C6.16368 10.0881 6.57945 9.9993 6.9999 10C7.79555 10 8.55861 10.3161 9.12122 10.8787C9.68383 11.4413 9.9999 12.2044 9.9999 13ZM1.1829 12.5L2.0739 13.392L2.7519 13.053L3.3289 13.146L3.6219 13.44L4.4719 13.203L5.0869 13.546C5.1886 13.9044 5.38836 14.2272 5.66367 14.4781C5.93898 14.7291 6.27891 14.8981 6.64513 14.9662C7.01136 15.0344 7.38933 14.9989 7.73647 14.8637C8.0836 14.7286 8.38609 14.4992 8.60986 14.2014C8.83363 13.9036 8.96978 13.5492 9.00296 13.1782C9.03615 12.8071 8.96506 12.4342 8.79769 12.1014C8.63033 11.7686 8.37335 11.4892 8.05571 11.2946C7.73807 11.1 7.3724 10.998 6.9999 11C6.69097 11.0001 6.38636 11.0725 6.11044 11.2114C5.83451 11.3503 5.59494 11.5519 5.4109 11.8L5.0109 12H1.6829L1.1829 12.5Z" fill="#0883D9" />
  </g>
  <defs>
    <clipPath id="clip0_402_72835">
      <rect width="18" height="18" fill="white" />
    </clipPath>
  </defs>
</svg>