<svg width="18" height="18" viewBox="0 0 18 18" xmlns="http://www.w3.org/2000/svg">
  <path fill-rule="evenodd" clip-rule="evenodd" d="M8.625 11.25C11.5245 11.25 13.875 8.8995 13.875 6C13.875 3.10051 11.5245 0.75 8.625 0.75C5.72551 0.75 3.375 3.10051 3.375 6C3.375 8.8995 5.72551 11.25 8.625 11.25ZM8.625 7.31252C9.34987 7.31252 9.9375 6.72489 9.9375 6.00002C9.9375 5.27514 9.34987 4.68752 8.625 4.68752C7.90013 4.68752 7.3125 5.27514 7.3125 6.00002C7.3125 6.72489 7.90013 7.31252 8.625 7.31252Z" fill="#40CFF3" />
  <path fill-rule="evenodd" clip-rule="evenodd" d="M8.625 11.25C11.5245 11.25 13.875 8.8995 13.875 6C13.875 3.10051 11.5245 0.75 8.625 0.75C5.72551 0.75 3.375 3.10051 3.375 6C3.375 8.8995 5.72551 11.25 8.625 11.25ZM8.625 7.31252C9.34987 7.31252 9.9375 6.72489 9.9375 6.00002C9.9375 5.27514 9.34987 4.68752 8.625 4.68752C7.90013 4.68752 7.3125 5.27514 7.3125 6.00002C7.3125 6.72489 7.90013 7.31252 8.625 7.31252Z" fill="url(#ddd71d60-5319-4317-879c-2eb423b24f71)" />
  <path fill-rule="evenodd" clip-rule="evenodd" d="M8.625 13C11.5245 13 13.875 10.6495 13.875 7.75C13.875 4.85051 11.5245 2.5 8.625 2.5C5.72551 2.5 3.375 4.85051 3.375 7.75C3.375 10.6495 5.72551 13 8.625 13ZM8.625 9.06248C9.34987 9.06248 9.9375 8.47486 9.9375 7.74998C9.9375 7.02511 9.34987 6.43748 8.625 6.43748C7.90013 6.43748 7.3125 7.02511 7.3125 7.74998C7.3125 8.47486 7.90013 9.06248 8.625 9.06248Z" fill="#40CFF3" />
  <path fill-rule="evenodd" clip-rule="evenodd" d="M8.625 13C11.5245 13 13.875 10.6495 13.875 7.75C13.875 4.85051 11.5245 2.5 8.625 2.5C5.72551 2.5 3.375 4.85051 3.375 7.75C3.375 10.6495 5.72551 13 8.625 13ZM8.625 9.06248C9.34987 9.06248 9.9375 8.47486 9.9375 7.74998C9.9375 7.02511 9.34987 6.43748 8.625 6.43748C7.90013 6.43748 7.3125 7.02511 7.3125 7.74998C7.3125 8.47486 7.90013 9.06248 8.625 9.06248Z" fill="url(#a965796d-accc-4097-8a36-ad3d3ee74d54)" />
  <path fill-rule="evenodd" clip-rule="evenodd" d="M8.625 14.75C11.5245 14.75 13.875 12.3995 13.875 9.5C13.875 6.60051 11.5245 4.25 8.625 4.25C5.72551 4.25 3.375 6.60051 3.375 9.5C3.375 12.3995 5.72551 14.75 8.625 14.75ZM8.625 10.8125C9.34987 10.8125 9.9375 10.2249 9.9375 9.5C9.9375 8.77513 9.34987 8.1875 8.625 8.1875C7.90013 8.1875 7.3125 8.77513 7.3125 9.5C7.3125 10.2249 7.90013 10.8125 8.625 10.8125Z" fill="#40CFF3" />
  <path fill-rule="evenodd" clip-rule="evenodd" d="M8.625 14.75C11.5245 14.75 13.875 12.3995 13.875 9.5C13.875 6.60051 11.5245 4.25 8.625 4.25C5.72551 4.25 3.375 6.60051 3.375 9.5C3.375 12.3995 5.72551 14.75 8.625 14.75ZM8.625 10.8125C9.34987 10.8125 9.9375 10.2249 9.9375 9.5C9.9375 8.77513 9.34987 8.1875 8.625 8.1875C7.90013 8.1875 7.3125 8.77513 7.3125 9.5C7.3125 10.2249 7.90013 10.8125 8.625 10.8125Z" fill="url(#50209ed7-215e-451a-98f2-a3e6be66e435)" />
  <path d="M14.4825 12.75H2.67C2.43804 12.75 2.25 12.938 2.25 13.17V16.8225C2.25 17.0545 2.43804 17.2425 2.67 17.2425H14.4825C14.7145 17.2425 14.9025 17.0545 14.9025 16.8225V13.17C14.9025 12.938 14.7145 12.75 14.4825 12.75Z" fill="url(#00ccf511-1fc5-48b1-be8a-83705d3b79ac)" />
  <path d="M10.065 13.86H7.10253C6.92442 13.86 6.78003 14.0044 6.78003 14.1825V14.19C6.78003 14.3681 6.92442 14.5125 7.10253 14.5125H10.065C10.2431 14.5125 10.3875 14.3681 10.3875 14.19V14.1825C10.3875 14.0044 10.2431 13.86 10.065 13.86Z" fill="#F2F2F2" />
  <defs>
    <linearGradient id="ddd71d60-5319-4317-879c-2eb423b24f71" x1="8.625" y1="0.75" x2="8.625" y2="11.25" gradientUnits="userSpaceOnUse">
      <stop stop-color="#0078D4" />
      <stop offset="1" stop-color="#005BA1" />
    </linearGradient>
    <linearGradient id="a965796d-accc-4097-8a36-ad3d3ee74d54" x1="8.625" y1="2.5" x2="8.625" y2="13" gradientUnits="userSpaceOnUse">
      <stop stop-color="#32BEDD" />
      <stop offset="1" stop-color="#0078D4" />
    </linearGradient>
    <linearGradient id="50209ed7-215e-451a-98f2-a3e6be66e435" x1="8.625" y1="4.25" x2="8.625" y2="14.75" gradientUnits="userSpaceOnUse">
      <stop stop-color="#9CEBFF" />
      <stop offset="1" stop-color="#32BEDD" />
    </linearGradient>
    <linearGradient id="00ccf511-1fc5-48b1-be8a-83705d3b79ac" x1="8.58" y1="17.25" x2="8.58" y2="12.75" gradientUnits="userSpaceOnUse">
      <stop stop-color="#0078D4" />
      <stop offset="0.82" stop-color="#5EA0EF" />
    </linearGradient>
  </defs>
</svg>