<svg width="18" height="18" xmlns="http://www.w3.org/2000/svg" viewBox="0 0 2048 2048">
  <path d="M1600 0q39 0 74 15t61 41 42 62 15 74v512q0 39-15 74t-41 61-62 42-74 15h-64v1088q0 26-19 45t-45 19q-26 0-45-19t-19-45V896h-64q-39 0-74-15t-61-41-42-62-15-74V192q0-39 15-74t41-61 62-42 74-15h256zm-256 128q-26 0-45 19t-19 45v64h384v-64q0-26-19-45t-45-19h-256zm-320 256h-7q-108 0-213 22t-204 64-188 102-165 138q-24 24-46 49t-43 54q-11 14-20 27t-19 28q-10 13-23 20t-30 8q-26 0-45-19T2 832q0-19 11-36 80-124 191-224t243-170 277-108 292-38h8v128zm576 384q26 0 45-19t19-45V384h-384v320q0 26 19 45t45 19h256zm-576 0q-75 0-148 16t-141 46-128 75-110 100q-25 28-43 57t-40 58q-11 15-23 23t-32 9q-26 0-45-19t-19-45q0-16 8-32 52-95 130-172t172-131 200-83 214-30h5v128zm0 256q68 0 132 17t124 51v158q-53-48-119-73t-137-25q-56 0-108 15t-99 45q-50 32-81 70t-59 89q-10 17-24 27t-34 10q-26 0-45-19t-19-45q0-15 6-27 30-66 79-120t110-93 132-59 142-21zm160 512q0 33-13 62t-34 50-51 35-62 13q-33 0-62-13t-50-34-35-51-13-62q0-33 13-62t34-50 51-35 62-13q33 0 62 13t50 34 35 51 13 62z" fill="#0883D9"/>
</svg>