<svg width="48" height="48" viewBox="0 0 48 48" fill="none" xmlns="http://www.w3.org/2000/svg">
<rect width="48" height="48" rx="16" fill="url(#paint0_linear_859_4780)"/>
<path d="M23.9999 16V20.5C23.9999 21.3284 24.6715 22 25.4999 22H29.9999V30.5C29.9999 31.3284 29.3283 32 28.4999 32H22.663C24.0765 31.0046 24.9999 29.3602 24.9999 27.5C24.9999 24.4624 22.5375 22 19.4999 22C18.9799 22 18.4768 22.0722 17.9999 22.207V17.5C17.9999 16.6716 18.6715 16 19.4999 16H23.9999ZM24.9999 16.25V20.5C24.9999 20.7761 25.2238 21 25.4999 21H29.7499L24.9999 16.25ZM17.0647 24.442C17.368 25.5231 16.722 26.642 15.634 26.9199L15.173 27.0377C15.158 27.1896 15.1503 27.3438 15.1503 27.4999C15.1503 27.6875 15.1614 27.8725 15.183 28.0541L15.5325 28.1368C16.652 28.4014 17.318 29.5536 16.9886 30.6557L16.8623 31.0785C17.1195 31.2817 17.3992 31.4559 17.6969 31.5964L18.0219 31.2523C18.8117 30.416 20.1425 30.4167 20.9314 31.2538L21.2688 31.6118C21.5612 31.4769 21.8366 31.3095 22.0907 31.1142L21.9345 30.5575C21.6312 29.4764 22.2772 28.3575 23.3652 28.0795L23.8257 27.9619C23.8407 27.81 23.8484 27.6559 23.8484 27.4999C23.8484 27.3121 23.8372 27.127 23.8157 26.9452L23.4667 26.8627C22.3472 26.598 21.6812 25.4459 22.0106 24.3438L22.1368 23.9215C21.8795 23.7182 21.5997 23.5439 21.3019 23.4034L20.9773 23.7472C20.1874 24.5835 18.8567 24.5828 18.0677 23.7457L17.7304 23.3877C17.438 23.5226 17.1626 23.6899 16.9085 23.8852L17.0647 24.442ZM19.4993 28.4999C18.9471 28.4999 18.4993 28.0521 18.4993 27.4999C18.4993 26.9476 18.9471 26.4999 19.4993 26.4999C20.0516 26.4999 20.4993 26.9476 20.4993 27.4999C20.4993 28.0521 20.0516 28.4999 19.4993 28.4999Z" fill="white"/>
<defs>
<linearGradient id="paint0_linear_859_4780" x1="24" y1="0" x2="24" y2="48" gradientUnits="userSpaceOnUse">
<stop stop-color="#4DA9FF"/>
<stop offset="1" stop-color="#0052B3"/>
</linearGradient>
</defs>
</svg>
