<svg width="48" height="48" viewBox="0 0 48 48" fill="none" xmlns="http://www.w3.org/2000/svg">
<rect width="48" height="48" rx="16" fill="url(#paint0_linear_859_4762)"/>
<path d="M28.0929 13.6884C25.0554 13.6884 22.5929 16.1508 22.5929 19.1884C22.5929 19.6316 22.6455 20.0634 22.745 20.4774L14.4337 28.7887C13.3124 29.91 13.3124 31.728 14.4337 32.8493C15.5551 33.9707 17.3731 33.9707 18.4944 32.8493L22.6082 28.7355C22.8408 25.3569 25.6551 22.6884 29.0927 22.6884C30.0515 22.6884 30.9617 22.896 31.781 23.2686C32.8938 22.2622 33.5929 20.807 33.5929 19.1884C33.5929 18.5798 33.4938 17.9928 33.3102 17.4436C33.2278 17.1972 33.0238 17.0109 32.7709 16.9513C32.518 16.8918 32.2522 16.9673 32.0685 17.1511L29.6244 19.5954C29.3316 19.8883 28.8567 19.8883 28.5638 19.5954L27.6861 18.7177C27.3932 18.4248 27.3932 17.95 27.686 17.6571L30.1302 15.2127C30.3139 15.029 30.3894 14.7633 30.3298 14.5104C30.2702 14.2575 30.084 14.0535 29.8376 13.9711C29.2884 13.7875 28.7015 13.6884 28.0929 13.6884ZM25.8699 25.664C26.1847 26.7543 25.5303 27.8877 24.4287 28.1602L23.8445 28.3048C23.7996 28.5925 23.7763 28.8876 23.7763 29.1885C23.7763 29.5031 23.8018 29.8116 23.8509 30.1119L24.3903 30.2418C25.5029 30.5097 26.1642 31.6547 25.8403 32.7523L25.654 33.3835C26.0932 33.7692 26.5936 34.0823 27.1382 34.3051L27.6315 33.7864C28.42 32.9571 29.7423 32.9573 30.5306 33.7869L31.0293 34.3116C31.5728 34.0914 32.0728 33.7812 32.5121 33.3987L32.3141 32.7128C31.9993 31.6226 32.6537 30.4891 33.7553 30.2166L34.339 30.0722C34.3839 29.7845 34.4072 29.4893 34.4072 29.1885C34.4072 28.8737 34.3817 28.5651 34.3326 28.2648L33.7936 28.135C32.6811 27.8671 32.0198 26.7221 32.3437 25.6246L32.5298 24.9937C32.0907 24.608 31.5902 24.2948 31.0456 24.0719L30.5525 24.5905C29.764 25.4197 28.4417 25.4195 27.6534 24.59L27.1546 24.0651C26.6111 24.2853 26.1111 24.5955 25.6718 24.9778L25.8699 25.664ZM29.0918 30.6885C28.2911 30.6885 27.6421 30.0169 27.6421 29.1885C27.6421 28.36 28.2911 27.6885 29.0918 27.6885C29.8924 27.6885 30.5414 28.36 30.5414 29.1885C30.5414 30.0169 29.8924 30.6885 29.0918 30.6885Z" fill="white"/>
<defs>
<linearGradient id="paint0_linear_859_4762" x1="24" y1="0" x2="24" y2="48" gradientUnits="userSpaceOnUse">
<stop stop-color="#4DA9FF"/>
<stop offset="1" stop-color="#0052B3"/>
</linearGradient>
</defs>
</svg>
