<svg width="48" height="48" viewBox="0 0 48 48" fill="none" xmlns="http://www.w3.org/2000/svg">
<rect width="48" height="48" rx="16" fill="url(#paint0_linear_856_8748)"/>
<g clip-path="url(#clip0_856_8748)">
<path d="M35.4961 24C35.4961 24.4922 35.2969 24.8906 34.8984 25.1953L24.9023 32.6953C24.6367 32.8984 24.3359 33 24 33C23.7891 33 23.5938 32.9609 23.4141 32.8828C23.2344 32.8047 23.0781 32.6992 22.9453 32.5664C22.8125 32.4336 22.7031 32.2734 22.6172 32.0859C22.5312 31.8984 22.4922 31.7031 22.5 31.5V26.625L14.4023 32.6953C14.1367 32.8984 13.8359 33 13.5 33C13.2891 33 13.0938 32.9609 12.9141 32.8828C12.7344 32.8047 12.5781 32.6992 12.4453 32.5664C12.3125 32.4336 12.2031 32.2734 12.1172 32.0859C12.0312 31.8984 11.9922 31.7031 12 31.5V16.5C12 16.2891 12.0391 16.0938 12.1172 15.9141C12.1953 15.7344 12.3008 15.5781 12.4336 15.4453C12.5664 15.3125 12.7266 15.2031 12.9141 15.1172C13.1016 15.0312 13.3008 14.9922 13.5117 15C13.6758 15 13.832 15.0273 13.9805 15.082C14.1289 15.1367 14.2695 15.2109 14.4023 15.3047L22.5 21.375V16.5C22.5 16.2891 22.5391 16.0938 22.6172 15.9141C22.6953 15.7344 22.8008 15.5781 22.9336 15.4453C23.0664 15.3125 23.2266 15.2031 23.4141 15.1172C23.6016 15.0312 23.8008 14.9922 24.0117 15C24.1758 15 24.332 15.0273 24.4805 15.082C24.6289 15.1367 24.7695 15.2109 24.9023 15.3047L34.8984 22.8047C35.2969 23.1094 35.4961 23.5078 35.4961 24Z" fill="white"/>
</g>
<defs>
<linearGradient id="paint0_linear_856_8748" x1="24" y1="0" x2="24" y2="48" gradientUnits="userSpaceOnUse">
<stop stop-color="#4DA9FF"/>
<stop offset="1" stop-color="#0052B3"/>
</linearGradient>
<clipPath id="clip0_856_8748">
<rect width="24" height="24" fill="white" transform="translate(12 12)"/>
</clipPath>
</defs>
</svg>
