<svg width="48" height="48" viewBox="0 0 48 48" fill="none" xmlns="http://www.w3.org/2000/svg">
<rect width="48" height="48" rx="16" fill="url(#paint0_linear_859_4774)"/>
<path d="M20.6651 27.736C20.9094 27.909 21.2017 28.0014 21.501 28.0004V27.9964C21.7833 27.997 22.0596 27.9147 22.2955 27.7597C22.5314 27.6046 22.7166 27.3837 22.8281 27.1244L23.4411 25.2604C23.5827 24.8381 23.8205 24.4546 24.1359 24.1401C24.4512 23.8256 24.8354 23.5888 25.2581 23.4484L27.0361 22.8704C27.3225 22.7698 27.5699 22.5814 27.743 22.332C27.9162 22.0827 28.0063 21.7851 28.0005 21.4816C27.9947 21.1781 27.8934 20.8841 27.7109 20.6416C27.5284 20.399 27.2741 20.2201 26.9841 20.1304L25.2291 19.5604C24.8046 19.4192 24.4188 19.1808 24.1025 18.8644C23.7862 18.5479 23.5481 18.162 23.4071 17.7374L22.8291 15.9604C22.7283 15.6774 22.5418 15.4328 22.2956 15.2606C22.0494 15.0884 21.7557 14.9972 21.4552 14.9996C21.1548 15.002 20.8626 15.098 20.6192 15.2741C20.3758 15.4502 20.1933 15.6978 20.097 15.9824L19.514 17.7744C19.3735 18.1867 19.1411 18.5616 18.8345 18.871C18.5279 19.1804 18.155 19.4161 17.744 19.5604L15.967 20.1314C15.7557 20.2054 15.5644 20.3274 15.4083 20.488C15.2522 20.6486 15.1356 20.8432 15.0677 21.0566C14.9998 21.27 14.9825 21.4963 15.0171 21.7175C15.0517 21.9388 15.1373 22.1489 15.267 22.3314C15.4439 22.5804 15.6948 22.7672 15.984 22.8654L17.738 23.4344C18.1637 23.5768 18.5502 23.8165 18.867 24.1344C18.9521 24.2188 19.0316 24.3087 19.105 24.4034C19.3042 24.6612 19.4581 24.951 19.56 25.2604L20.138 27.0354C20.2365 27.3181 20.4208 27.563 20.6651 27.736ZM28.3318 32.7834C28.1413 32.6476 27.9979 32.4556 27.9218 32.2344L27.5938 31.2274C27.53 31.0359 27.4229 30.8617 27.2808 30.7184C27.1383 30.5755 26.9643 30.4679 26.7728 30.4044L25.7818 30.0814C25.5514 30.0041 25.3514 29.8556 25.2108 29.6574C25.0735 29.4651 25 29.2346 25.0008 28.9984C25.0011 28.7606 25.0755 28.5289 25.2138 28.3354C25.351 28.1409 25.5464 27.9949 25.7718 27.9184L26.7778 27.5924C26.9648 27.526 27.1341 27.4177 27.2728 27.2757C27.4115 27.1337 27.5158 26.9619 27.5778 26.7734L27.9018 25.7814C27.978 25.5572 28.122 25.3621 28.3139 25.2233C28.5057 25.0844 28.736 25.0086 28.9728 25.0063C29.2097 25.004 29.4414 25.0753 29.6359 25.2104C29.8304 25.3455 29.9782 25.5377 30.0588 25.7604L30.3878 26.7744C30.4522 26.9645 30.5597 27.1371 30.702 27.2786C30.8443 27.4202 31.0174 27.5269 31.2078 27.5904L32.1998 27.9134C32.4285 27.9849 32.6288 28.1266 32.7725 28.3184C32.9161 28.5101 32.9957 28.7423 33 28.9818C33.0043 29.2214 32.9331 29.4562 32.7965 29.6531C32.6599 29.8499 32.4647 29.9987 32.2388 30.0784L31.2248 30.4074C31.0347 30.4722 30.862 30.5796 30.7198 30.7214C30.5775 30.8642 30.4703 31.0381 30.4068 31.2294L30.0848 32.2184C30.0073 32.4487 29.8584 32.6484 29.6598 32.7884C29.4678 32.9264 29.2373 33.0006 29.0008 33.0004C28.7605 33.0004 28.5263 32.9244 28.3318 32.7834Z" fill="white"/>
<defs>
<linearGradient id="paint0_linear_859_4774" x1="24" y1="0" x2="24" y2="48" gradientUnits="userSpaceOnUse">
<stop stop-color="#4DA9FF"/>
<stop offset="1" stop-color="#0052B3"/>
</linearGradient>
</defs>
</svg>
