<svg width="48" height="48" viewBox="0 0 48 48" fill="none" xmlns="http://www.w3.org/2000/svg">
<rect width="48" height="48" rx="16" fill="url(#paint0_linear_859_4774)"/>
<path d="M26.9999 17.5V18.5H27.7499C29.5448 18.5 30.9999 19.9551 30.9999 21.75V24.0191C30.4373 23.683 29.9808 23.2779 29.6899 22.9872C29.0399 22.3376 27.9499 22.3376 27.2999 22.9872C26.7699 23.5169 25.6899 24.4264 24.4199 24.6063C24.3576 24.6153 24.2949 24.6283 24.2325 24.645C23.9616 24.2552 23.5106 24 22.9999 24C22.1715 24 21.4999 24.6716 21.4999 25.5C21.4999 26.3284 22.1715 27 22.9999 27V29.0237C22.9999 30.3017 23.3524 31.479 24.0325 32.5H18.2499C16.455 32.5 14.9999 31.0449 14.9999 29.25V21.75C14.9999 19.9551 16.455 18.5 18.2499 18.5H18.9999V17.5C18.9999 15.2908 20.7908 13.5 22.9999 13.5C25.209 13.5 26.9999 15.2908 26.9999 17.5ZM20.4999 17.5V18.5H25.4999V17.5C25.4999 16.1193 24.3806 15 22.9999 15C21.6192 15 20.4999 16.1193 20.4999 17.5ZM28.9895 23.6945C29.6422 24.3454 30.8964 25.3805 32.4389 25.5928C32.7465 25.6352 32.9999 25.8779 32.9999 26.1817V29.0203C32.9999 32.8363 29.4205 34.2212 28.6466 34.4761C28.5497 34.508 28.4508 34.508 28.3539 34.4761C27.58 34.2213 24.0002 32.8363 24.0002 29.0203L23.9999 26.1818C23.9999 25.878 24.2533 25.6352 24.5609 25.5928C26.1031 25.3804 27.3574 24.3454 28.0102 23.6945C28.2703 23.4351 28.7294 23.4352 28.9895 23.6945Z" fill="white"/>
<defs>
<linearGradient id="paint0_linear_859_4774" x1="24" y1="0" x2="24" y2="48" gradientUnits="userSpaceOnUse">
<stop stop-color="#4DA9FF"/>
<stop offset="1" stop-color="#0052B3"/>
</linearGradient>
</defs>
</svg>
