<svg width="48" height="48" viewBox="0 0 48 48" fill="none" xmlns="http://www.w3.org/2000/svg">
<rect width="48" height="48" rx="16" fill="url(#paint0_linear_856_8905)"/>
<path d="M14 17.25C14 16.8358 14.3358 16.5 14.75 16.5C17.4134 16.5 20.008 15.5565 22.55 13.65C22.8167 13.45 23.1833 13.45 23.45 13.65C25.992 15.5565 28.5866 16.5 31.25 16.5C31.6642 16.5 32 16.8358 32 17.25V22.5C32 22.8381 31.9865 23.1701 31.9595 23.4961C30.9577 22.8651 29.7715 22.5 28.5 22.5C24.9101 22.5 22 25.4101 22 29C22 30.651 22.6156 32.1583 23.6297 33.3048C23.5126 33.3531 23.3944 33.4007 23.2749 33.4478C23.0982 33.5174 22.9018 33.5174 22.7251 33.4478C16.9576 31.1757 14 27.5012 14 22.5V17.25ZM34 29C34 25.9624 31.5376 23.5 28.5 23.5C25.4624 23.5 23 25.9624 23 29C23 32.0376 25.4624 34.5 28.5 34.5C31.5376 34.5 34 32.0376 34 29ZM31.8536 26.6464C32.0488 26.8417 32.0488 27.1583 31.8536 27.3536L27.8536 31.3536C27.6583 31.5488 27.3417 31.5488 27.1464 31.3536L25.1464 29.3536C24.9512 29.1583 24.9512 28.8417 25.1464 28.6464C25.3417 28.4512 25.6583 28.4512 25.8536 28.6464L27.5 30.2929L31.1464 26.6464C31.3417 26.4512 31.6583 26.4512 31.8536 26.6464Z" fill="white"/>
<defs>
<linearGradient id="paint0_linear_856_8905" x1="24" y1="0" x2="24" y2="48" gradientUnits="userSpaceOnUse">
<stop stop-color="#4DA9FF"/>
<stop offset="1" stop-color="#0052B3"/>
</linearGradient>
</defs>
</svg>
