<svg width="48" height="48" viewBox="0 0 48 48" fill="none" xmlns="http://www.w3.org/2000/svg">
<rect width="48" height="48" rx="16" fill="url(#paint0_linear_859_4768)"/>
<path d="M24 14C29.5228 14 34 18.4771 34 24C34 29.5228 29.5228 34 24 34C18.4771 34 14 29.5228 14 24C14 18.4771 18.4771 14 24 14ZM27.2197 20.9697L22.75 25.4393L20.7803 23.4697C20.4874 23.1768 20.0126 23.1768 19.7197 23.4697C19.4268 23.7626 19.4268 24.2374 19.7197 24.5303L22.2197 27.0303C22.5126 27.3232 22.9874 27.3232 23.2803 27.0303L28.2803 22.0303C28.5732 21.7374 28.5732 21.2626 28.2803 20.9697C27.9874 20.6768 27.5126 20.6768 27.2197 20.9697Z" fill="white"/>
<defs>
<linearGradient id="paint0_linear_859_4768" x1="24" y1="0" x2="24" y2="48" gradientUnits="userSpaceOnUse">
<stop stop-color="#4DA9FF"/>
<stop offset="1" stop-color="#0052B3"/>
</linearGradient>
</defs>
</svg>
