<svg width="48" height="48" viewBox="0 0 48 48" fill="none" xmlns="http://www.w3.org/2000/svg">
<rect width="48" height="48" rx="16" fill="url(#paint0_linear_856_8910)"/>
<path d="M24.3755 13.5C24.6333 13.5 24.8755 13.5469 25.1021 13.6406C25.3286 13.7344 25.5278 13.8711 25.6997 14.0508C25.8716 14.2305 26.0044 14.4297 26.0981 14.6484C26.1919 14.8672 26.2427 15.1094 26.2505 15.375C26.2505 15.6328 26.2036 15.875 26.1099 16.1016C26.0161 16.3281 25.8794 16.5273 25.6997 16.6992C25.52 16.8711 25.3208 17.0039 25.1021 17.0977C24.8833 17.1914 24.6411 17.2422 24.3755 17.25C24.1177 17.25 23.8755 17.2031 23.6489 17.1094C23.4224 17.0156 23.2231 16.8789 23.0513 16.6992C22.8794 16.5195 22.7466 16.3203 22.6528 16.1016C22.5591 15.8828 22.5083 15.6406 22.5005 15.375C22.5005 15.1172 22.5474 14.875 22.6411 14.6484C22.7349 14.4219 22.8716 14.2227 23.0513 14.0508C23.231 13.8789 23.4302 13.7461 23.6489 13.6523C23.8677 13.5586 24.1099 13.5078 24.3755 13.5ZM30.7388 15.9492C31.02 15.9492 31.2856 16.0039 31.5356 16.1133C31.7856 16.2227 32.0044 16.3711 32.1919 16.5586C32.3794 16.7461 32.5278 16.9648 32.6372 17.2148C32.7466 17.4648 32.8013 17.7305 32.8013 18.0117C32.8013 18.293 32.7466 18.5586 32.6372 18.8086C32.5278 19.0586 32.3794 19.2773 32.1919 19.4648C32.0044 19.6523 31.7856 19.8008 31.5356 19.9102C31.2856 20.0195 31.02 20.0742 30.7388 20.0742C30.4575 20.0742 30.1919 20.0195 29.9419 19.9102C29.6919 19.8008 29.4731 19.6523 29.2856 19.4648C29.0981 19.2773 28.9497 19.0586 28.8403 18.8086C28.731 18.5586 28.6763 18.293 28.6763 18.0117C28.6763 17.7305 28.731 17.4648 28.8403 17.2148C28.9497 16.9648 29.0981 16.7461 29.2856 16.5586C29.4731 16.3711 29.6919 16.2227 29.9419 16.1133C30.1919 16.0039 30.4575 15.9492 30.7388 15.9492ZM16.3247 18.0117C16.3247 17.7773 16.3677 17.5586 16.4536 17.3555C16.5396 17.1523 16.6567 16.9766 16.8052 16.8281C16.9536 16.6797 17.1333 16.5586 17.3442 16.4648C17.5552 16.3711 17.7778 16.3242 18.0122 16.3242C18.2466 16.3242 18.4653 16.3672 18.6685 16.4531C18.8716 16.5391 19.0474 16.6602 19.1958 16.8164C19.3442 16.9727 19.4653 17.1523 19.5591 17.3555C19.6528 17.5586 19.6997 17.7773 19.6997 18.0117C19.6997 18.2461 19.6567 18.4648 19.5708 18.668C19.4849 18.8711 19.3638 19.0508 19.2075 19.207C19.0513 19.3633 18.8716 19.4844 18.6685 19.5703C18.4653 19.6562 18.2466 19.6992 18.0122 19.6992C17.7778 19.6992 17.5591 19.6562 17.356 19.5703C17.1528 19.4844 16.9731 19.3672 16.8169 19.2188C16.6606 19.0703 16.5396 18.8906 16.4536 18.6797C16.3677 18.4688 16.3247 18.2461 16.3247 18.0117ZM15.3755 22.875C15.5864 22.875 15.7817 22.9141 15.9614 22.9922C16.1411 23.0703 16.2974 23.1758 16.4302 23.3086C16.563 23.4414 16.6724 23.6016 16.7583 23.7891C16.8442 23.9766 16.8833 24.1719 16.8755 24.375C16.8755 24.5859 16.8364 24.7812 16.7583 24.9609C16.6802 25.1406 16.5747 25.2969 16.4419 25.4297C16.3091 25.5625 16.1489 25.6719 15.9614 25.7578C15.7739 25.8438 15.5786 25.8828 15.3755 25.875C15.1646 25.875 14.9692 25.8359 14.7896 25.7578C14.6099 25.6797 14.4536 25.5742 14.3208 25.4414C14.188 25.3086 14.0786 25.1484 13.9927 24.9609C13.9067 24.7734 13.8677 24.5781 13.8755 24.375C13.8755 24.1641 13.9146 23.9688 13.9927 23.7891C14.0708 23.6094 14.1763 23.4531 14.3091 23.3203C14.4419 23.1875 14.6021 23.0781 14.7896 22.9922C14.9771 22.9062 15.1724 22.8672 15.3755 22.875ZM33.3755 23.625C33.5786 23.625 33.7544 23.6992 33.9028 23.8477C34.0513 23.9961 34.1255 24.1719 34.1255 24.375C34.1255 24.5781 34.0513 24.7539 33.9028 24.9023C33.7544 25.0508 33.5786 25.125 33.3755 25.125C33.1724 25.125 32.9966 25.0508 32.8481 24.9023C32.6997 24.7539 32.6255 24.5781 32.6255 24.375C32.6255 24.1719 32.6997 23.9961 32.8481 23.8477C32.9966 23.6992 33.1724 23.625 33.3755 23.625ZM16.6997 30.7383C16.6997 30.5586 16.7349 30.3906 16.8052 30.2344C16.8755 30.0781 16.9692 29.9375 17.0864 29.8125C17.2036 29.6875 17.3403 29.5938 17.4966 29.5312C17.6528 29.4688 17.8247 29.4336 18.0122 29.4258C18.1919 29.4258 18.3599 29.4609 18.5161 29.5312C18.6724 29.6016 18.813 29.6953 18.938 29.8125C19.063 29.9297 19.1567 30.0664 19.2192 30.2227C19.2817 30.3789 19.3169 30.5508 19.3247 30.7383C19.3247 30.918 19.2896 31.0859 19.2192 31.2422C19.1489 31.3984 19.0552 31.5391 18.938 31.6641C18.8208 31.7891 18.6841 31.8828 18.5278 31.9453C18.3716 32.0078 18.1997 32.043 18.0122 32.0508C17.8325 32.0508 17.6646 32.0156 17.5083 31.9453C17.3521 31.875 17.2114 31.7812 17.0864 31.6641C16.9614 31.5469 16.8677 31.4102 16.8052 31.2539C16.7427 31.0977 16.7075 30.9258 16.6997 30.7383ZM29.8013 30.7383C29.8013 30.4727 29.8911 30.25 30.0708 30.0703C30.2505 29.8906 30.4731 29.8008 30.7388 29.8008C31.0044 29.8008 31.2271 29.8906 31.4067 30.0703C31.5864 30.25 31.6763 30.4727 31.6763 30.7383C31.6763 31.0039 31.5864 31.2266 31.4067 31.4062C31.2271 31.5859 31.0044 31.6758 30.7388 31.6758C30.4731 31.6758 30.2505 31.5859 30.0708 31.4062C29.8911 31.2266 29.8013 31.0039 29.8013 30.7383ZM24.3755 32.25C24.688 32.25 24.9536 32.3594 25.1724 32.5781C25.3911 32.7969 25.5005 33.0625 25.5005 33.375C25.5005 33.6875 25.3911 33.9531 25.1724 34.1719C24.9536 34.3906 24.688 34.5 24.3755 34.5C24.063 34.5 23.7974 34.3906 23.5786 34.1719C23.3599 33.9531 23.2505 33.6875 23.2505 33.375C23.2505 33.0625 23.3599 32.7969 23.5786 32.5781C23.7974 32.3594 24.063 32.25 24.3755 32.25Z" fill="white"/>
<defs>
<linearGradient id="paint0_linear_856_8910" x1="24" y1="0" x2="24" y2="48" gradientUnits="userSpaceOnUse">
<stop stop-color="#4DA9FF"/>
<stop offset="1" stop-color="#0052B3"/>
</linearGradient>
</defs>
</svg>
