<svg width="18" height="18" viewBox="0 0 18 18" fill="none" xmlns="http://www.w3.org/2000/svg">
<path d="M16.9935 9.15472V3.43921C9.53077 6.35613 6.42342 8.63787 6.60198 14.928C6.64377 16.4001 7.52402 17.9999 8.99669 17.9999C11.2815 17.9999 16.9935 13.7322 16.9935 9.15472Z" fill="url(#paint0_linear_737_8602)"/>
<path d="M16.9935 9.15472V3.43921C9.53077 6.35613 6.42342 8.63787 6.60198 14.928C6.64377 16.4001 7.52402 17.9999 8.99669 17.9999C11.2815 17.9999 16.9935 13.7322 16.9935 9.15472Z" fill="url(#paint1_radial_737_8602)" fill-opacity="0.6"/>
<path d="M8.99729 0C10.535 0 13.625 0.777497 15.4814 1.28596C15.6549 1.33348 15.8176 1.37953 15.9673 1.42293C16.5845 1.6019 16.9941 2.17274 16.9941 2.81543V3.7607C16.8106 7.9718 15.4612 9.19674 11.6947 12.2295C11.2 12.6672 10.6916 13.0836 10.1755 13.5064C9.43594 14.1121 8.68045 14.7309 7.92675 15.4441C7.63893 15.7164 7.45938 16.102 7.45938 16.5295C7.45938 17.1719 7.86483 17.7197 8.4338 17.9308C8.29506 17.8998 8.14929 17.8586 7.99769 17.8078C6.62023 17.3461 4.76068 16.0883 3.30481 14.4181C2.15698 7.26603 4.40675 3.7607 8.99729 0Z" fill="url(#paint2_radial_737_8602)"/>
<path d="M8.99729 0C10.535 0 13.625 0.777497 15.4814 1.28596C15.6549 1.33348 15.8176 1.37953 15.9673 1.42293C16.5845 1.6019 16.9941 2.17274 16.9941 2.81543V3.7607C16.8106 7.9718 15.4612 9.19674 11.6947 12.2295C11.2 12.6672 10.6916 13.0836 10.1755 13.5064C9.43594 14.1121 8.68045 14.7309 7.92675 15.4441C7.63893 15.7164 7.45938 16.102 7.45938 16.5295C7.45938 17.1719 7.86483 17.7197 8.4338 17.9308C8.29506 17.8998 8.14929 17.8586 7.99769 17.8078C6.62023 17.3461 4.76068 16.0883 3.30481 14.4181C2.15698 7.26603 4.40675 3.7607 8.99729 0Z" fill="url(#paint3_radial_737_8602)" fill-opacity="0.7"/>
<path d="M8.99729 0C10.535 0 13.625 0.777497 15.4814 1.28596C15.6549 1.33348 15.8176 1.37953 15.9673 1.42293C16.5845 1.6019 16.9941 2.17274 16.9941 2.81543V3.7607C16.8106 7.9718 15.4612 9.19674 11.6947 12.2295C11.2 12.6672 10.6916 13.0836 10.1755 13.5064C9.43594 14.1121 8.68045 14.7309 7.92675 15.4441C7.63893 15.7164 7.45938 16.102 7.45938 16.5295C7.45938 17.1719 7.86483 17.7197 8.4338 17.9308C8.29506 17.8998 8.14929 17.8586 7.99769 17.8078C6.62023 17.3461 4.76068 16.0883 3.30481 14.4181C2.15698 7.26603 4.40675 3.7607 8.99729 0Z" fill="url(#paint4_radial_737_8602)"/>
<path d="M2.07003 1.40851C3.83556 0.914501 7.32909 0 8.99677 0C9.11687 0 9.24644 0.00485661 9.38415 0.0140593C10.9086 0.161245 12.1004 1.44593 12.1004 3.00898C12.1004 3.57651 11.9433 4.10734 11.6701 4.56035C11.0863 5.72377 10.1307 6.63812 8.67656 7.83534C8.25885 8.17923 7.77989 8.55883 7.3024 8.93727C6.85116 9.2949 6.40117 9.65154 6.00547 9.97599C5.0442 10.7642 4.45667 11.2459 4.13354 11.8504C3.82589 12.3224 3.64711 12.886 3.64711 13.4914C3.64711 14.3777 4.03031 15.1745 4.64006 15.7252C4.65943 15.7469 4.67903 15.7681 4.69884 15.7887C4.70418 15.7966 4.70944 15.8045 4.71459 15.8124C4.52116 15.6469 4.32965 15.4739 4.14159 15.294C2.42799 13.6549 1 11.4436 1 9.1549V2.83129L1 2.83096C1.00014 2.16879 1.43233 1.58695 2.07003 1.40851Z" fill="url(#paint5_radial_737_8602)"/>
<path d="M2.07003 1.40851C3.83556 0.914501 7.32909 0 8.99677 0C9.11687 0 9.24644 0.00485661 9.38415 0.0140593C10.9086 0.161245 12.1004 1.44593 12.1004 3.00898C12.1004 3.57651 11.9433 4.10734 11.6701 4.56035C11.0863 5.72377 10.1307 6.63812 8.67656 7.83534C8.25885 8.17923 7.77989 8.55883 7.3024 8.93727C6.85116 9.2949 6.40117 9.65154 6.00547 9.97599C5.0442 10.7642 4.45667 11.2459 4.13354 11.8504C3.82589 12.3224 3.64711 12.886 3.64711 13.4914C3.64711 14.3777 4.03031 15.1745 4.64006 15.7252C4.65943 15.7469 4.67903 15.7681 4.69884 15.7887C4.70418 15.7966 4.70944 15.8045 4.71459 15.8124C4.52116 15.6469 4.32965 15.4739 4.14159 15.294C2.42799 13.6549 1 11.4436 1 9.1549V2.83129L1 2.83096C1.00014 2.16879 1.43233 1.58695 2.07003 1.40851Z" fill="url(#paint6_radial_737_8602)"/>
<defs>
<linearGradient id="paint0_linear_737_8602" x1="16.1719" y1="8.67203" x2="5.54959" y2="17.1855" gradientUnits="userSpaceOnUse">
<stop offset="0.716383" stop-color="#143DE0"/>
<stop offset="0.97828" stop-color="#003375"/>
</linearGradient>
<radialGradient id="paint1_radial_737_8602" cx="0" cy="0" r="1" gradientUnits="userSpaceOnUse" gradientTransform="translate(10.2188 10.7196) rotate(50.2877) scale(9.46408 28.2935)">
<stop offset="0.227837" stop-color="#003375"/>
<stop offset="0.434167" stop-color="#003375" stop-opacity="0.1"/>
</radialGradient>
<radialGradient id="paint2_radial_737_8602" cx="0" cy="0" r="1" gradientTransform="matrix(-14.931 26.3002 -13.1596 -16.1953 17.5166 -4.89134)" gradientUnits="userSpaceOnUse">
<stop offset="0.165327" stop-color="#29C3FF"/>
<stop offset="0.534" stop-color="#1C91FF"/>
</radialGradient>
<radialGradient id="paint3_radial_737_8602" cx="0" cy="0" r="1" gradientUnits="userSpaceOnUse" gradientTransform="translate(7.23778 5.94715) rotate(46.7724) scale(5.10458 11.7972)">
<stop offset="0.331015" stop-color="#1B44B1"/>
<stop offset="1" stop-color="#1F9EFF" stop-opacity="0"/>
</radialGradient>
<radialGradient id="paint4_radial_737_8602" cx="0" cy="0" r="1" gradientUnits="userSpaceOnUse" gradientTransform="translate(10.6871 5.00871) rotate(-111.097) scale(18.3853 14.0534)">
<stop offset="0.612778" stop-color="#1C91FF" stop-opacity="0"/>
<stop offset="0.788043" stop-color="#66C0FF"/>
</radialGradient>
<radialGradient id="paint5_radial_737_8602" cx="0" cy="0" r="1" gradientTransform="matrix(-13.163 17.7147 -13.9336 -22.5692 12.1004 -0.853694)" gradientUnits="userSpaceOnUse">
<stop stop-color="#9DEAFF"/>
<stop offset="0.521141" stop-color="#29C3FF"/>
</radialGradient>
<radialGradient id="paint6_radial_737_8602" cx="0" cy="0" r="1" gradientTransform="matrix(0.688239 -17.3119 9.21392 -0.314308 7.77486 2.5734)" gradientUnits="userSpaceOnUse">
<stop offset="0.516387" stop-color="#2BC3FF" stop-opacity="0"/>
<stop offset="0.80216" stop-color="#9DEAFF"/>
</radialGradient>
</defs>
</svg>
