<svg width="18" height="18" viewBox="0 0 18 18" fill="none" xmlns="http://www.w3.org/2000/svg">
<g clip-path="url(#clip0_816_8707)">
<rect width="18" height="18" fill="white"/>
<path d="M11.6995 17.6758C10.8518 18.5641 9.47998 18.0863 9.11994 17.0492C8.82293 16.1937 8.43699 15.1691 8.06103 14.4148C6.93654 12.1588 6.28012 10.8753 4.46972 9.26929C4.22958 9.0562 3.91994 8.88447 3.57762 8.74917C2.37948 8.27556 1.25277 7.03428 1.54745 5.56077L1.92203 3.68768C2.11919 2.70237 2.85594 1.91296 3.82539 1.64857L9.76745 0.0280021C12.4687 -0.708679 15.2212 1.026 15.722 3.78067L16.4477 7.77235C16.803 9.72646 15.3018 11.5252 13.3157 11.5252H12.3782L12.3891 11.5806C12.4741 12.0138 12.5764 12.6102 12.6448 13.2604C12.713 13.9079 12.7491 14.6232 12.6958 15.2898C12.6435 15.9439 12.5006 16.6153 12.1607 17.1253C12.0445 17.2995 11.872 17.4949 11.6995 17.6758Z" fill="#0078D4"/>
</g>
<defs>
<clipPath id="clip0_816_8707">
<rect width="18" height="18" fill="white"/>
</clipPath>
</defs>
</svg>
