<svg width="18" height="18" viewBox="0 0 18 18" fill="none" xmlns="http://www.w3.org/2000/svg">
<path d="M3.74561 14.0419C4.13783 14.2844 4.78986 14.554 5.47928 14.554C6.10705 14.554 6.69034 14.3736 7.17354 14.0661C7.17354 14.0661 7.17456 14.0661 7.17557 14.065L9.00019 12.9348V17.0157C8.71111 17.0157 8.42001 16.9375 8.16731 16.7812L3.74561 14.0419Z" fill="#225086"/>
<path d="M7.85202 1.50644L0.352951 9.95706C-0.225975 10.6103 -0.0749943 11.5972 0.675916 12.0657C0.675916 12.0657 3.45159 13.7988 3.80155 14.0176C4.18951 14.2593 4.83443 14.528 5.51635 14.528C6.13727 14.528 6.7142 14.3482 7.19215 14.0415C7.19215 14.0415 7.19315 14.0415 7.19415 14.0406L8.99894 12.9138L4.63545 10.1888L8.99989 5.27026V1C8.57603 1 8.15204 1.16881 7.85202 1.50644Z" fill="#66DDFF"/>
<path d="M4.61182 10.2047L4.66409 10.2368L8.99899 12.9351H8.99994V5.27761L8.99899 5.27661L4.61182 10.2047Z" fill="#CBF8FF"/>
<path d="M17.3239 12.0903C18.075 11.6208 18.226 10.632 17.647 9.97742L12.7254 4.42163C12.3284 4.23647 11.8833 4.13037 11.4123 4.13037C10.4872 4.13037 9.66005 4.52972 9.11007 5.15726L9.00107 5.28037L13.3655 10.2086L9 12.939V17.0155C9.28706 17.0155 9.57304 16.9375 9.82313 16.7813L17.3239 12.0892V12.0903Z" fill="#074793"/>
<path d="M9.00107 1V5.27641L9.11149 5.15337C9.66861 4.52617 10.5064 4.12703 11.4432 4.12703C11.9214 4.12703 12.3712 4.23407 12.7733 4.41813L10.1609 1.50817C9.85796 1.17006 9.4285 1.001 9 1.001L9.00107 1Z" fill="#0294E4"/>
<path d="M13.3882 10.205L9 5.27661V12.9351L13.3882 10.205Z" fill="#96BCC2"/>
</svg>
