<svg width="18" height="18" viewBox="0 0 18 18" fill="none" xmlns="http://www.w3.org/2000/svg">
<g clip-path="url(#clip0_738_8622)">
<path d="M0 2.71595C0 0.420691 3.00602 -0.835841 4.99188 0.629317L9.30896 3.81225L12.9523 1.75093C14.8779 0.702596 17.9635 1.45448 18 4.32019L18 14.8811C18 17.1764 15.0822 18.373 13.0963 16.9078L8.70056 13.6554L5.05297 15.7171C3.10919 16.7753 0.00303566 15.9635 0.00303566 13.1745C0.00303698 9.82677 0 11.1122 0 2.71595Z" fill="url(#paint0_linear_738_8622)"/>
<path d="M0 2.71595C0 0.420691 3.00602 -0.835841 4.99188 0.629317L9.30896 3.81225L12.9523 1.75093C14.8779 0.702596 17.9635 1.45448 18 4.32019L18 14.8811C18 17.1764 15.0822 18.373 13.0963 16.9078L8.70056 13.6554L5.05297 15.7171C3.10919 16.7753 0.00303566 15.9635 0.00303566 13.1745C0.00303698 9.82677 0 11.1122 0 2.71595Z" fill="url(#paint1_radial_738_8622)"/>
<path d="M0 2.71595C0 0.420691 3.00602 -0.835841 4.99188 0.629317L9.30896 3.81225L12.9523 1.75093C14.8779 0.702596 17.9635 1.45448 18 4.32019L18 14.8811C18 17.1764 15.0822 18.373 13.0963 16.9078L8.70056 13.6554L5.05297 15.7171C3.10919 16.7753 0.00303566 15.9635 0.00303566 13.1745C0.00303698 9.82677 0 11.1122 0 2.71595Z" fill="url(#paint2_radial_738_8622)"/>
<path d="M4.99188 0.629317C3.00602 -0.835841 0 0.420691 0 2.71595V13.0444C0 12.7933 0.128139 12.2934 0.128139 12.2934C0.720462 10.3604 3.23836 9.63563 4.98035 10.9095L13.0963 16.9078C15.0822 18.373 18 17.1764 18 14.8811V4.32019C18 6.28095 15.4331 8.24922 13.0081 6.54378L4.99188 0.629317Z" fill="url(#paint3_radial_738_8622)"/>
<path d="M4.99188 0.629317C3.00602 -0.835841 0 0.420691 0 2.71595V13.0444C0 12.7933 0.128139 12.2934 0.128139 12.2934C0.720462 10.3604 3.23836 9.63563 4.98035 10.9095L13.0963 16.9078C15.0822 18.373 18 17.1764 18 14.8811V4.32019C18 6.28095 15.4331 8.24922 13.0081 6.54378L4.99188 0.629317Z" fill="url(#paint4_radial_738_8622)" fill-opacity="0.25"/>
<path d="M4.99188 0.629317C3.00602 -0.835841 0 0.420691 0 2.71595V13.0444C0 12.7933 0.128139 12.2934 0.128139 12.2934C0.720462 10.3604 3.23836 9.63563 4.98035 10.9095L13.0963 16.9078C15.0822 18.373 18 17.1764 18 14.8811V4.32019C18 6.28095 15.4331 8.24922 13.0081 6.54378L4.99188 0.629317Z" fill="url(#paint5_radial_738_8622)" fill-opacity="0.55"/>
<path d="M4.99188 6.48268C3.00601 5.01752 0 6.27405 0 8.56931L5.98188e-07 2.71595C8.04959e-07 0.420691 3.00602 -0.835841 4.99188 0.629317C7.66399 2.60078 10.336 4.57231 13.0081 6.54378C15.4331 8.24922 18 6.28095 18 4.3202V10.3105C18 12.6058 14.994 13.8623 13.0081 12.3971C10.336 10.4257 7.66399 8.45414 4.99188 6.48268Z" fill="url(#paint6_linear_738_8622)"/>
<path d="M4.99188 6.48268C3.00601 5.01752 0 6.27405 0 8.56931L5.98188e-07 2.71595C8.04959e-07 0.420691 3.00602 -0.835841 4.99188 0.629317C7.66399 2.60078 10.336 4.57231 13.0081 6.54378C15.4331 8.24922 18 6.28095 18 4.3202V10.3105C18 12.6058 14.994 13.8623 13.0081 12.3971C10.336 10.4257 7.66399 8.45414 4.99188 6.48268Z" fill="url(#paint7_radial_738_8622)" fill-opacity="0.35"/>
</g>
<defs>
<linearGradient id="paint0_linear_738_8622" x1="7.68673" y1="17.55" x2="14.0938" y2="3.81835" gradientUnits="userSpaceOnUse">
<stop offset="0.02" stop-color="#1169DA"/>
<stop offset="0.434784" stop-color="#0151BD"/>
<stop offset="0.614436" stop-color="#014DB7"/>
<stop offset="1" stop-color="#126AD9"/>
</linearGradient>
<radialGradient id="paint1_radial_738_8622" cx="0" cy="0" r="1" gradientTransform="matrix(-4.54621 12.3206 -8.16618 -6.32076 16.1087 -2.43083)" gradientUnits="userSpaceOnUse">
<stop offset="0.422966" stop-color="#004AFF" stop-opacity="0.1"/>
<stop offset="0.728672" stop-color="#014DB9"/>
<stop offset="0.836135" stop-color="#014DB9" stop-opacity="0.9"/>
<stop offset="0.955" stop-color="#014DB9" stop-opacity="0"/>
</radialGradient>
<radialGradient id="paint2_radial_738_8622" cx="0" cy="0" r="1" gradientTransform="matrix(2.94857 -10.0302 12.2602 3.50922 2.40286 17.0136)" gradientUnits="userSpaceOnUse">
<stop offset="0.0908532" stop-color="#004AFF" stop-opacity="0.1"/>
<stop offset="0.56036" stop-color="#014DB9"/>
<stop offset="0.749466" stop-color="#014DB9" stop-opacity="0.99"/>
<stop offset="1" stop-color="#014DB9" stop-opacity="0"/>
</radialGradient>
<radialGradient id="paint3_radial_738_8622" cx="0" cy="0" r="1" gradientTransform="matrix(-17.6508 18.2053 -10.7308 -16.9912 19.7441 -3.73276e-06)" gradientUnits="userSpaceOnUse">
<stop offset="0.249322" stop-color="#23C0FE"/>
<stop offset="0.717207" stop-color="#23C0FE"/>
<stop offset="0.995168" stop-color="#1C91FF"/>
</radialGradient>
<radialGradient id="paint4_radial_738_8622" cx="0" cy="0" r="1" gradientTransform="matrix(12.6326 13.0192 -3.13736 2.96405 5.36739 1.42463)" gradientUnits="userSpaceOnUse">
<stop offset="0.165" stop-color="#096DD6" stop-opacity="0"/>
<stop offset="0.484233" stop-color="#096DD6"/>
<stop offset="0.900505" stop-color="#0876DE" stop-opacity="0.813868"/>
<stop offset="1" stop-color="#029AFF" stop-opacity="0"/>
</radialGradient>
<radialGradient id="paint5_radial_738_8622" cx="0" cy="0" r="1" gradientTransform="matrix(-0.0819237 2.91014 -2.6222 -0.17176 17.3291 10.7657)" gradientUnits="userSpaceOnUse">
<stop stop-color="#0068B3"/>
<stop offset="0.93" stop-color="#006CB8" stop-opacity="0"/>
</radialGradient>
<linearGradient id="paint6_linear_738_8622" x1="5.13156" y1="4.13884" x2="8.15298" y2="16.9983" gradientUnits="userSpaceOnUse">
<stop stop-color="#92EEFE"/>
<stop offset="0.564559" stop-color="#35DDFF"/>
<stop offset="1" stop-color="#08B1F9"/>
</linearGradient>
<radialGradient id="paint7_radial_738_8622" cx="0" cy="0" r="1" gradientTransform="matrix(1.57349 4.19306 -3.40572 1.23281 3.0193 4.08784e-07)" gradientUnits="userSpaceOnUse">
<stop stop-color="#CCF9FF" stop-opacity="0.93"/>
<stop offset="1" stop-color="#35DDFF"/>
</radialGradient>
<clipPath id="clip0_738_8622">
<rect width="18" height="18" fill="white"/>
</clipPath>
</defs>
</svg>
