<svg width="18" height="18" viewBox="0 0 18 18" fill="none" xmlns="http://www.w3.org/2000/svg">
<path d="M7.43368 0.610352L7.3438 0.664715C7.20084 0.751195 7.06616 0.847888 6.94048 0.95354L7.19972 0.771191H9.4L9.8 3.8L7.8 5.8L5.8 7.19016V8.79316C5.8 9.91276 6.38516 10.951 7.34296 11.5307L9.44844 12.8052L5 15.4001H4.14204L2.54295 14.4322C1.58514 13.8524 1 12.8142 1 11.6946V6.30424C1 5.18428 1.58552 4.1458 2.54381 3.56616L7.3438 0.662747C7.37356 0.644755 7.40352 0.627292 7.43368 0.610352Z" fill="url(#paint0_radial_717_7126)"/>
<path d="M7.43368 0.610352L7.3438 0.664715C7.20084 0.751195 7.06616 0.847888 6.94048 0.95354L7.19972 0.771191H9.4L9.8 3.8L7.8 5.8L5.8 7.19016V8.79316C5.8 9.91276 6.38516 10.951 7.34296 11.5307L9.44844 12.8052L5 15.4001H4.14204L2.54295 14.4322C1.58514 13.8524 1 12.8142 1 11.6946V6.30424C1 5.18428 1.58552 4.1458 2.54381 3.56616L7.3438 0.662747C7.37356 0.644755 7.40352 0.627292 7.43368 0.610352Z" fill="url(#paint1_linear_717_7126)"/>
<path d="M12.2001 7V8.79212C12.2001 9.91172 11.6149 10.9499 10.6571 11.5297L5.85714 14.4351C4.87522 15.0295 3.6535 15.0509 2.6543 14.4995L7.34302 17.3376C8.36166 17.9542 9.63846 17.9542 10.6571 17.3376L15.4571 14.4321C16.4149 13.8524 17.0001 12.8142 17.0001 11.6946V10.4L16.6001 9.8L12.2001 7Z" fill="url(#paint2_radial_717_7126)"/>
<path d="M12.2001 7V8.79212C12.2001 9.91172 11.6149 10.9499 10.6571 11.5297L5.85714 14.4351C4.87522 15.0295 3.6535 15.0509 2.6543 14.4995L7.34302 17.3376C8.36166 17.9542 9.63846 17.9542 10.6571 17.3376L15.4571 14.4321C16.4149 13.8524 17.0001 12.8142 17.0001 11.6946V10.4L16.6001 9.8L12.2001 7Z" fill="url(#paint3_linear_717_7126)"/>
<path d="M15.456 3.56627L10.656 0.662859C9.66932 0.0660305 8.44064 0.0475425 7.43896 0.607391L7.3436 0.665071C6.38532 1.24472 5.7998 2.28317 5.7998 3.40315V7.19671L7.3436 6.26287C8.36184 5.64699 9.63776 5.64699 10.656 6.26287L15.456 9.16627C16.3843 9.72783 16.9628 10.7199 16.9981 11.7995C16.9992 11.7647 16.9998 11.7297 16.9998 11.6947V6.30435C16.9998 5.18439 16.4143 4.14591 15.456 3.56627Z" fill="url(#paint4_radial_717_7126)"/>
<path d="M15.456 3.56627L10.656 0.662859C9.66932 0.0660305 8.44064 0.0475425 7.43896 0.607391L7.3436 0.665071C6.38532 1.24472 5.7998 2.28317 5.7998 3.40315V7.19671L7.3436 6.26287C8.36184 5.64699 9.63776 5.64699 10.656 6.26287L15.456 9.16627C16.3843 9.72783 16.9628 10.7199 16.9981 11.7995C16.9992 11.7647 16.9998 11.7297 16.9998 11.6947V6.30435C16.9998 5.18439 16.4143 4.14591 15.456 3.56627Z" fill="url(#paint5_linear_717_7126)"/>
<defs>
<radialGradient id="paint0_radial_717_7126" cx="0" cy="0" r="1" gradientUnits="userSpaceOnUse" gradientTransform="translate(6.36744 3.65532) rotate(110.528) scale(13.3463 23.2786)">
<stop offset="0.06441" stop-color="#AE7FE2"/>
<stop offset="1" stop-color="#0078D4"/>
</radialGradient>
<linearGradient id="paint1_linear_717_7126" x1="6.40476" y1="14.5474" x2="4.50052" y2="11.2539" gradientUnits="userSpaceOnUse">
<stop stop-color="#114A8B"/>
<stop offset="1" stop-color="#0078D4" stop-opacity="0"/>
</linearGradient>
<radialGradient id="paint2_radial_717_7126" cx="0" cy="0" r="1" gradientUnits="userSpaceOnUse" gradientTransform="translate(3.57206 13.9404) rotate(-8.36717) scale(12.4201 8.20432)">
<stop offset="0.133928" stop-color="#D59DFF"/>
<stop offset="1" stop-color="#5E438F"/>
</radialGradient>
<linearGradient id="paint3_linear_717_7126" x1="15.5427" y1="9.55072" x2="13.5022" y2="12.4766" gradientUnits="userSpaceOnUse">
<stop stop-color="#493474"/>
<stop offset="1" stop-color="#8C66BA" stop-opacity="0"/>
</linearGradient>
<radialGradient id="paint4_radial_717_7126" cx="0" cy="0" r="1" gradientUnits="userSpaceOnUse" gradientTransform="translate(15.8219 10.0017) rotate(-165.772) scale(9.96912 16.7821)">
<stop offset="0.0584996" stop-color="#50E6FF"/>
<stop offset="1" stop-color="#436DCD"/>
</radialGradient>
<linearGradient id="paint5_linear_717_7126" x1="6.19012" y1="0.622767" x2="9.19452" y2="0.622767" gradientUnits="userSpaceOnUse">
<stop stop-color="#2D3F80"/>
<stop offset="1" stop-color="#436DCD" stop-opacity="0"/>
</linearGradient>
</defs>
</svg>
