<svg width="18" height="18" viewBox="0 0 18 18" fill="none" xmlns="http://www.w3.org/2000/svg">
<g clip-path="url(#clip0_816_8705)">
<path d="M11.6995 0.324088C10.8518 -0.564219 9.47999 -0.0864173 9.11995 0.950629C8.82293 1.80618 8.437 2.83072 8.06104 3.58508C6.93655 5.84097 6.28012 7.12452 4.46971 8.73056C4.22958 8.94366 3.91994 9.11537 3.57762 9.25068C2.37948 9.72429 1.25275 10.9655 1.54745 12.439L1.92202 14.3121C2.11918 15.2974 2.85593 16.0869 3.82539 16.3512L9.76745 17.9718C12.4687 18.7085 15.2212 16.9738 15.722 14.2192L16.4477 10.2275C16.803 8.27339 15.3018 6.47461 13.3157 6.47461H12.3782L12.3891 6.41919C12.4741 5.98605 12.5764 5.38956 12.6448 4.73948C12.713 4.09191 12.7491 3.37656 12.6958 2.71003C12.6434 2.05598 12.5006 1.3845 12.1607 0.874608C12.0446 0.700348 11.872 0.504932 11.6995 0.324088Z" fill="#0078D4"/>
</g>
<defs>
<clipPath id="clip0_816_8705">
<rect width="18" height="18" fill="white"/>
</clipPath>
</defs>
</svg>
