<?xml version="1.0" encoding="UTF-8" standalone="no"?>
<!DOCTYPE svg PUBLIC "-//W3C//DTD SVG 1.1//EN" "http://www.w3.org/Graphics/SVG/1.1/DTD/svg11.dtd">
<!-- Generated by Microsoft Visio, SVG Export global-data-reinit.svg Page-1 -->
<svg xmlns="http://www.w3.org/2000/svg" xmlns:xlink="http://www.w3.org/1999/xlink" xmlns:ev="http://www.w3.org/2001/xml-events"
		width="10.2604in" height="13.5574in" viewBox="0 0 738.75 976.134" xml:space="preserve" color-interpolation-filters="sRGB"
		class="st19">
	<style type="text/css">
	<![CDATA[
		.st1 {fill:#ffffff;stroke:#c3c3c3;stroke-linecap:round;stroke-linejoin:round;stroke-width:1}
		.st2 {fill:#ffc000;stroke:#000000;stroke-linecap:round;stroke-linejoin:round;stroke-width:1.5}
		.st3 {fill:#000000;font-family:Segoe UI;font-size:0.666664em;font-weight:bold}
		.st4 {fill:#a3d9f4;stroke:#000000;stroke-linecap:round;stroke-linejoin:round;stroke-width:1.5}
		.st5 {fill:none;stroke:none;stroke-linecap:round;stroke-linejoin:round;stroke-width:0.5}
		.st6 {font-size:1em}
		.st7 {marker-end:url(#mrkr4-22);stroke:#000000;stroke-linecap:round;stroke-linejoin:round;stroke-width:1.5}
		.st8 {fill:#000000;fill-opacity:1;stroke:#000000;stroke-opacity:1;stroke-width:0.37313432835821}
		.st9 {fill:#00aba9;stroke:#000000;stroke-linecap:round;stroke-linejoin:round;stroke-width:1.5}
		.st10 {fill:#000000;font-family:Segoe UI;font-size:1.16666em}
		.st11 {fill:#ffffff;stroke:none;stroke-linecap:round;stroke-linejoin:round;stroke-width:1.5}
		.st12 {fill:#ffffff;stroke:none;stroke-linecap:round;stroke-linejoin:round;stroke-width:0.5}
		.st13 {fill:#ffffff;stroke:none;stroke-linecap:butt;stroke-width:7.2}
		.st14 {stroke:#7f7f7f;stroke-linecap:round;stroke-linejoin:round;stroke-width:1.5}
		.st15 {fill:#000000;font-family:Segoe UI;font-size:0.499992em}
		.st16 {fill:#000000;font-family:Segoe UI;font-size:0.499992em;font-weight:bold}
		.st17 {font-size:1em;font-weight:normal}
		.st18 {font-size:1em;font-style:italic;font-weight:normal}
		.st19 {fill:none;fill-rule:evenodd;font-size:12px;overflow:visible;stroke-linecap:square;stroke-miterlimit:3}
	]]>
	</style>

	<defs id="Markers">
		<g id="lend4">
			<path d="M 2 1 L 0 0 L 2 -1 L 2 1 " style="stroke:none"/>
		</g>
		<marker id="mrkr4-22" class="st8" refX="-5.36" orient="auto" markerUnits="strokeWidth" overflow="visible">
			<use xlink:href="#lend4" transform="scale(-2.68,-2.68) "/>
		</marker>
	</defs>
	<g>
		<title>Page-1</title>
		<g id="shape362-1" transform="translate(0.5,-0.5)">
			<title>Sheet.362</title>
			<rect x="0" y="1.00001" width="697.5" height="975.134" class="st1"/>
		</g>
		<g id="shape279-3" transform="translate(290.3,-919.609)">
			<title>Start/End.10</title>
			<desc>Start</desc>
			<path d="M10.35 976.13 L31.05 976.13 A10.35 11.025 -180 0 0 31.05 954.08 L10.35 954.08 A10.35 11.025 -180 1 0 10.35 976.13
						 Z" class="st2"/>
			<text x="11.6" y="967.51" class="st3">Start</text>		</g>
		<g id="shape280-6" transform="translate(138.724,-831.634)">
			<title>Process.13</title>
			<desc>CAS</desc>
			<rect x="0" y="938.038" width="41.4" height="38.0962" class="st4"/>
			<text x="13.15" y="959.49" class="st3">CAS</text>		</g>
		<g id="shape281-9" transform="translate(343.062,-919.609)">
			<title>Sheet.281</title>
			<desc>Troubleshoot SQL replication reinit for global data</desc>
			<rect x="0" y="956.109" width="130.5" height="20.025" class="st5"/>
			<text x="2" y="963.72" class="st3">Troubleshoot SQL replication <tspan x="2" dy="1.2em" class="st6">reinit for global data</tspan></text>		</g>
		<g id="shape282-13" transform="translate(188.898,-831.634)">
			<title>Sheet.282</title>
			<desc>Check if site replication hasn't finished reinit</desc>
			<rect x="0" y="938.038" width="113.664" height="38.0962" class="st5"/>
			<text x="2" y="954.69" class="st3">Check if site replication <tspan x="2" dy="1.2em" class="st6">hasn</tspan>'t finished reinit</text>		</g>
		<g id="shape283-17" transform="translate(311,-919.609)">
			<title>Dynamic connector.1114</title>
			<path d="M0 976.13 L0 1008.01 L-151.58 1008.01 L-151.58 1017.97" class="st7"/>
		</g>
		<g id="shape284-23" transform="translate(486.312,-746.584)">
			<title>Start/End.1184</title>
			<desc>End</desc>
			<path d="M10.35 976.13 L31.05 976.13 A10.35 11.025 -180 0 0 31.05 954.08 L10.35 954.08 A10.35 11.025 -180 1 0 10.35 976.13
						 Z" class="st9"/>
			<text x="13.67" y="967.51" class="st3">End</text>		</g>
		<g id="shape285-26" transform="translate(0.5,-944.65)">
			<title>Sheet.285</title>
			<desc>Troubleshoot global data reinit</desc>
			<rect x="0" y="947.634" width="738" height="28.5" class="st5"/>
			<text x="273.38" y="966.08" class="st10">Troubleshoot global data reinit</text>		</g>
		<g id="shape286-29" transform="translate(159.424,-831.634)">
			<title>Dynamic connector.1067</title>
			<path d="M0 976.13 L0 1023.84 L152.14 1023.84 L152.14 1033.8" class="st7"/>
		</g>
		<g id="shape287-34" transform="translate(453.724,-669.859)">
			<title>Process.1109</title>
			<rect x="0" y="958.584" width="23.4" height="17.55" class="st4"/>
		</g>
		<g id="shape288-36" transform="translate(486.312,-669.859)">
			<title>Sheet.288</title>
			<desc>Get the TrackingGuid &#38; Status from the primary site</desc>
			<rect x="0" y="958.584" width="113.664" height="17.55" class="st5"/>
			<text x="2" y="964.96" class="st3">Get the TrackingGuid &#38; <tspan x="2" dy="1.2em" class="st6">Status from the primary site</tspan></text>		</g>
		<g id="shape290-40" transform="translate(311.562,-748.375)">
			<title>Dynamic connector.1029</title>
			<path d="M0 976.13 L0 1000.88 L153.86 1000.88 L153.86 1029.06" class="st7"/>
		</g>
		<g id="shape291-45" transform="translate(291.594,-728.134)">
			<title>Sheet.291</title>
			<desc>Has Result</desc>
			<rect x="0" y="958.584" width="38.8125" height="17.55" class="st11"/>
			<text x="12.43" y="964.96" class="st3">Has <tspan x="7.76" dy="1.2em" class="st6">Result</tspan></text>		</g>
		<g id="shape292-49" transform="translate(323.262,-748.38)">
			<title>Dynamic connector.1094</title>
			<path d="M0 967.36 L155.01 966.93" class="st7"/>
		</g>
		<g id="shape293-54" transform="translate(299.862,-748.375)">
			<title>Decision.1066</title>
			<path d="M0 967.36 L11.7 958.58 L23.4 967.36 L11.7 976.13 L0 967.36 Z" class="st2"/>
		</g>
		<g id="shape294-56" transform="translate(329.017,-748.375)">
			<title>Sheet.294</title>
			<desc>No Result</desc>
			<rect x="0" y="958.584" width="38.8125" height="17.55" class="st12"/>
			<text x="13.8" y="964.96" class="st3">No <tspan x="7.76" dy="1.2em" class="st6">Result</tspan></text>		</g>
		<g id="shape295-60" transform="translate(453.724,-534.634)">
			<title>Decision.222</title>
			<path d="M0 967.36 L11.7 958.58 L23.4 967.36 L11.7 976.13 L0 967.36 Z" class="st2"/>
		</g>
		<g id="shape298-62" transform="translate(575.037,-532.384)">
			<title>Start/End.238</title>
			<desc>Continue to Reinit missing message</desc>
			<path d="M11.03 976.13 L102.94 976.13 A11.025 11.025 -180 0 0 102.94 954.08 L11.03 954.08 A11.025 11.025 -180 1 0 11.03
						 976.13 Z" class="st2"/>
			<text x="34.82" y="962.71" class="st3">Continue to  <tspan x="13.26" dy="1.2em" class="st6">Reinit missing message</tspan></text>		</g>
		<g id="shape299-66" transform="translate(477.124,-552.409)">
			<title>Dynamic connector.239</title>
			<desc>No Result</desc>
			<path d="M0 985.13 L89.87 985.13" class="st7"/>
			<rect x="13.1182" y="975.535" width="23.2965" height="19.1997" class="st13"/>
			<text x="19.16" y="982.73" class="st3">No <tspan x="13.12" dy="1.2em" class="st6">Result</tspan></text>		</g>
		<g id="shape302-74" transform="translate(444.724,-829.15)">
			<title>Process.67</title>
			<desc>Primary</desc>
			<rect x="0" y="938.038" width="41.4" height="38.0962" class="st4"/>
			<text x="5.95" y="959.49" class="st3">Primary</text>		</g>
		<g id="shape303-77" transform="translate(465.424,-829.15)">
			<title>Dynamic connector.71</title>
			<path d="M0 976.13 L0 1021.36 L-153.86 1021.36 L-153.86 1031.32" class="st7"/>
		</g>
		<g id="shape304-82" transform="translate(453.763,-595.6)">
			<title>Process.72</title>
			<rect x="0" y="958.584" width="23.4" height="17.55" class="st4"/>
		</g>
		<g id="shape305-84" transform="translate(486.312,-594.95)">
			<title>Sheet.305</title>
			<desc>Get the TrackingGuid &#38; Status from the CAS</desc>
			<rect x="0" y="958.584" width="112.688" height="17.55" class="st5"/>
			<text x="2" y="964.96" class="st3">Get the TrackingGuid &#38; <tspan x="2" dy="1.2em" class="st6">Status from the CAS</tspan></text>		</g>
		<g id="shape306-88" transform="translate(456.443,-669.859)">
			<title>Dynamic connector.72</title>
			<path d="M8.98 976.13 L9.01 1024.8" class="st7"/>
		</g>
		<g id="shape307-93" transform="translate(453.724,-458.134)">
			<title>Process.76</title>
			<rect x="0" y="958.584" width="23.4" height="17.55" class="st4"/>
		</g>
		<g id="shape308-95" transform="translate(456.424,-534.634)">
			<title>Dynamic connector.78</title>
			<desc>Has Result</desc>
			<path d="M9 976.13 L9 1027.04" class="st7"/>
			<rect x="-2.64819" y="996.01" width="23.2965" height="19.1997" class="st13"/>
			<text x="2.02" y="1003.21" class="st3">Has <tspan x="-2.65" dy="1.2em" class="st6">Result</tspan></text>		</g>
		<g id="shape309-103" transform="translate(453.724,-390.634)">
			<title>Decision.79</title>
			<path d="M0 967.36 L11.7 958.58 L23.4 967.36 L11.7 976.13 L0 967.36 Z" class="st2"/>
		</g>
		<g id="shape310-105" transform="translate(486.312,-458.134)">
			<title>Sheet.310</title>
			<desc>Check InitializationStatus</desc>
			<rect x="0" y="958.584" width="103.461" height="17.55" class="st5"/>
			<text x="2" y="969.76" class="st3">Check InitializationStatus</text>		</g>
		<g id="shape311-108" transform="translate(474.443,-595.6)">
			<title>Dynamic connector.81</title>
			<path d="M-8.98 976.13 L-9.01 1011.51" class="st7"/>
		</g>
		<g id="shape312-113" transform="translate(456.424,-458.134)">
			<title>Dynamic connector.82</title>
			<path d="M9 976.13 L9 1018.04" class="st7"/>
		</g>
		<g id="shape313-118" transform="translate(477.124,-390.409)">
			<title>Dynamic connector.83</title>
			<path d="M0 967.13 L91.34 967.13" class="st7"/>
		</g>
		<g id="shape314-123" transform="translate(576.5,-388.384)">
			<title>Start/End.84</title>
			<desc>Continue to Reinit failed</desc>
			<path d="M11.03 976.13 L102.94 976.13 A11.025 11.025 -180 0 0 102.94 954.08 L11.03 954.08 A11.025 11.025 -180 1 0 11.03
						 976.13 Z" class="st2"/>
			<text x="34.82" y="962.71" class="st3">Continue to  <tspan x="34.25" dy="1.2em" class="st6">Reinit failed</tspan></text>		</g>
		<g id="shape315-127" transform="translate(501.688,-390.634)">
			<title>Sheet.315</title>
			<desc>== 99</desc>
			<rect x="0" y="958.584" width="38.8125" height="17.55" class="st12"/>
			<text x="8.04" y="969.76" class="st3">== 99</text>		</g>
		<g id="shape325-130" transform="translate(384.424,-244.609)">
			<title>Start/End.97</title>
			<desc>RCM is preparing the data, check rcmctrl.log on CAS for BCP p...</desc>
			<path d="M11.03 976.13 L150.97 976.13 A11.025 11.025 -180 0 0 150.97 954.08 L11.03 954.08 A11.025 11.025 -180 1 0 11.03
						 976.13 Z" class="st9"/>
			<text x="18.96" y="962.71" class="st3">RCM is preparing the data, check <tspan x="13.19" dy="1.2em" class="st6">rcmctrl.log on CAS for BCP progress</tspan></text>		</g>
		<g id="shape326-134" transform="translate(149,-342.95)">
			<title>Process.99</title>
			<rect x="0" y="958.584" width="23.4" height="17.55" class="st4"/>
		</g>
		<g id="shape327-136" transform="translate(185.039,-342.95)">
			<title>Sheet.327</title>
			<desc>Check request status for the tracking ID</desc>
			<rect x="0" y="958.584" width="103.461" height="17.55" class="st5"/>
			<text x="2" y="964.96" class="st3">Check request status for <tspan x="2" dy="1.2em" class="st6">the tracking ID</tspan></text>		</g>
		<g id="shape328-140" transform="translate(148.1,-283.084)">
			<title>Decision.102</title>
			<path d="M0 967.36 L11.7 958.58 L23.4 967.36 L11.7 976.13 L0 967.36 Z" class="st2"/>
		</g>
		<g id="shape329-142" transform="translate(159.8,-283.084)">
			<title>Dynamic connector.103</title>
			<desc>== 1</desc>
			<path d="M0 976.13 L0 1003.58 L216.58 1003.58" class="st7"/>
			<rect x="152.089" y="998.785" width="18.1214" height="9.59985" class="st13"/>
			<text x="152.09" y="1005.98" class="st3">== 1</text>		</g>
		<g id="shape330-149" transform="translate(169.173,-342.95)">
			<title>Dynamic connector.104</title>
			<path d="M-8.63 976.13 L-9.23 1010.41" class="st7"/>
		</g>
		<g id="shape331-154" transform="translate(384.424,-172.609)">
			<title>Start/End.105</title>
			<desc>RCM has finished BCP the data, create/compress the package</desc>
			<path d="M11.03 976.13 L150.97 976.13 A11.025 11.025 -180 0 0 150.97 954.08 L11.03 954.08 A11.025 11.025 -180 1 0 11.03
						 976.13 Z" class="st9"/>
			<text x="22.12" y="962.71" class="st3">RCM has finished BCP the data,  <tspan x="25.97" dy="1.2em" class="st6">create/compress the package</tspan></text>		</g>
		<g id="shape332-158" transform="translate(159.8,-283.084)">
			<title>Dynamic connector.106</title>
			<desc>== 2</desc>
			<path d="M0 976.13 L0 1077.61 L216.77 1077.61" class="st7"/>
			<rect x="150.09" y="1070.78" width="18.1214" height="9.59985" class="st13"/>
			<text x="150.09" y="1077.98" class="st3">== 2</text>		</g>
		<g id="shape334-165" transform="translate(384.424,-100.609)">
			<title>Start/End.108</title>
			<desc>File replication Job created. Check sender.log on primary for...</desc>
			<path d="M11.03 976.13 L150.97 976.13 A11.025 11.025 -180 0 0 150.97 954.08 L11.03 954.08 A11.025 11.025 -180 1 0 11.03
						 976.13 Z" class="st9"/>
			<text x="16.89" y="962.71" class="st3">File replication Job created. Check <tspan x="15.39" dy="1.2em" class="st6">sender.log on primary for progress</tspan></text>		</g>
		<g id="shape335-169" transform="translate(456.424,-390.634)">
			<title>Dynamic connector.109</title>
			<path d="M9 976.13 L9 1022.09" class="st7"/>
		</g>
		<g id="shape336-174" transform="translate(453.724,-399.409)">
			<title>Dynamic connector.110</title>
			<path d="M0 976.13 L-293.02 976.13 L-293.02 1007" class="st7"/>
		</g>
		<g id="shape341-179" transform="translate(384.424,-37.6094)">
			<title>Start/End.115</title>
			<desc>File replication Job done. Check despoolr.log on Primary for ...</desc>
			<path d="M11.03 976.13 L150.97 976.13 A11.025 11.025 -180 0 0 150.97 954.08 L11.03 954.08 A11.025 11.025 -180 1 0 11.03
						 976.13 Z" class="st9"/>
			<text x="21.41" y="962.71" class="st3">File replication Job done. Check <tspan x="11.49" dy="1.2em" class="st6">despoolr.log on Primary for progress</tspan></text>		</g>
		<g id="shape342-183" transform="translate(456.424,-100.609)">
			<title>Dynamic connector.116</title>
			<path d="M9 976.13 L9 1009.04" class="st7"/>
		</g>
		<g id="shape355-188" transform="translate(447.499,-360.5)">
			<title>Sheet.355</title>
			<desc>== 5</desc>
			<rect x="0" y="958.584" width="38.8125" height="17.55" class="st12"/>
			<text x="10.35" y="969.76" class="st3">== 5</text>		</g>
		<g id="shape356-191" transform="translate(159.8,-283.084)">
			<title>Dynamic connector.356</title>
			<desc>== 3</desc>
			<path d="M0 976.13 L0 1147.58 L216.58 1147.58" class="st7"/>
			<rect x="147.066" y="1141.68" width="18.1214" height="9.59985" class="st13"/>
			<text x="147.07" y="1148.88" class="st3">== 3</text>		</g>
		<g id="shape357-198" transform="translate(384.424,-314.584)">
			<title>Start/End.357</title>
			<desc>RCM on primary site is BCP in the data</desc>
			<path d="M11.03 976.13 L150.97 976.13 A11.025 11.025 -180 0 0 150.97 954.08 L11.03 954.08 A11.025 11.025 -180 1 0 11.03
						 976.13 Z" class="st9"/>
			<text x="8.55" y="967.51" class="st3">RCM on primary site is BCP in the data</text>		</g>
		<g id="shape317-201" transform="translate(390.347,-390.634)">
			<title>Sheet.317</title>
			<desc>== 3 or == 4</desc>
			<rect x="0" y="958.584" width="38.8125" height="17.55" class="st12"/>
			<text x="5.2" y="964.96" class="st3">== 3 or <tspan x="10.35" dy="1.2em" class="st6">== 4</tspan></text>		</g>
		<g id="shape344-205" transform="translate(9.5,-812.433)">
			<title>Orthogonal.1107</title>
			<desc>SELECT * FROM RCM_DrsInitializationTracking dt INNER JOIN Rep...</desc>
			<path d="M105.45 937.88 L129.22 937.88" class="st14"/>
			<path d="M4.5 899.63 L0 899.63 L0 976.13 L4.5 976.13" class="st14"/>
			<path d="M100.95 899.63 L105.45 899.63 L105.45 976.13 L100.95 976.13" class="st14"/>
			<text x="4" y="909.69" class="st15">SELECT * FROM <tspan x="4" dy="1.2em" class="st6">RCM_DrsInitializationTracking dt </tspan><tspan
						x="4" dy="1.2em" class="st6">INNER JOIN ReplicationData rg  </tspan><tspan x="4" dy="1.2em" class="st6">ON dt.ReplicationGroup = </tspan><tspan
						x="4" dy="1.2em" class="st6">rg.ReplicationGroup </tspan><tspan x="4" dy="1.2em" class="st6">WHERE dt.InitializationStatus NOT </tspan><tspan
						x="4" dy="1.2em" class="st6">IN (6,7)  </tspan><tspan x="4" dy="1.2em" class="st6">AND </tspan><tspan x="4"
						dy="1.5em" class="st6">rg.ReplicationPattern=N</tspan>'Global&#39;</text>		</g>
		<g id="shape345-219" transform="translate(322.25,-582.119)">
			<title>Orthogonal.1110</title>
			<desc>SELECT RequestTrackingGUID, InitializationStatus FROM RCM_Drs...</desc>
			<path d="M113.96 953.8 L131.51 953.85" class="st14"/>
			<path d="M4.5 931.13 L0 931.13 L0 976.13 L4.5 976.13" class="st14"/>
			<path d="M109.46 931.13 L113.96 931.13 L113.96 976.13 L109.46 976.13" class="st14"/>
			<text x="4" y="941.03" class="st15">SELECT RequestTrackingGUID, <tspan x="4" dy="1.2em" class="st6">InitializationStatus  </tspan><tspan
						x="4" dy="1.2em" class="st6">FROM RCM_DrsInitializationTracking dt </tspan><tspan x="4" dy="1.2em"
						class="st6">WHERE </tspan><tspan x="4" dy="1.2em" class="st6">RequestTrackingGUID=@trackingGuid</tspan></text>		</g>
		<g id="shape346-229" transform="translate(316.776,-809.948)">
			<title>Orthogonal.68</title>
			<desc>SELECT * FROM RCM_DrsInitializationTracking dt INNER JOIN Rep...</desc>
			<path d="M105.45 937.88 L127.95 937.88" class="st14"/>
			<path d="M4.5 899.63 L0 899.63 L0 976.13 L4.5 976.13" class="st14"/>
			<path d="M100.95 899.63 L105.45 899.63 L105.45 976.13 L100.95 976.13" class="st14"/>
			<text x="4" y="909.69" class="st15">SELECT * FROM <tspan x="4" dy="1.2em" class="st6">RCM_DrsInitializationTracking dt </tspan><tspan
						x="4" dy="1.2em" class="st6">INNER JOIN ReplicationData rg  </tspan><tspan x="4" dy="1.2em" class="st6">ON dt.ReplicationGroup = </tspan><tspan
						x="4" dy="1.2em" class="st6">rg.ReplicationGroup </tspan><tspan x="4" dy="1.2em" class="st6">WHERE dt.InitializationStatus NOT </tspan><tspan
						x="4" dy="1.2em" class="st6">IN (6,7)  </tspan><tspan x="4" dy="1.2em" class="st6">AND </tspan><tspan x="4"
						dy="1.5em" class="st6">rg.ReplicationPattern=N&#39;Global&#39;</tspan></text>		</g>
		<g id="shape347-243" transform="translate(322.25,-640.384)">
			<title>Orthogonal.70</title>
			<desc>SELECT RequestTrackingGUID, InitializationStatus FROM RCM_Drs...</desc>
			<path d="M113.96 937.88 L131.47 937.88" class="st14"/>
			<path d="M4.5 899.63 L0 899.63 L0 976.13 L4.5 976.13" class="st14"/>
			<path d="M109.46 899.63 L113.96 899.63 L113.96 976.13 L109.46 976.13" class="st14"/>
			<text x="4" y="910.89" class="st15">SELECT RequestTrackingGUID, <tspan x="4" dy="1.2em" class="st6">InitializationStatus  </tspan><tspan
						x="4" dy="1.2em" class="st6">FROM RCM_DrsInitializationTracking dt </tspan><tspan x="4" dy="1.2em"
						class="st6">INNER JOIN ReplicationData rg  </tspan><tspan x="4" dy="1.2em" class="st6">ON dt.ReplicationGroup = </tspan><tspan
						x="4" dy="1.2em" class="st6">rg.ReplicationGroup </tspan><tspan x="4" dy="1.2em" class="st6">WHERE dt.InitializationStatus NOT IN </tspan><tspan
						x="4" dy="1.2em" class="st6">(6,7)  </tspan><tspan x="4" dy="1.2em" class="st6">AND rg.ReplicationPattern=N</tspan>'Global&#39;</text>		</g>
		<g id="shape349-257" transform="translate(17.4866,-336.219)">
			<title>Orthogonal.100</title>
			<desc>SELECT Status FROM RCM_InitPackageRequest WHERE RequestTracki...</desc>
			<path d="M113.96 960.55 L131.51 960.6" class="st14"/>
			<path d="M4.5 944.63 L0 944.63 L0 976.13 L4.5 976.13" class="st14"/>
			<path d="M109.46 944.63 L113.96 944.63 L113.96 976.13 L109.46 976.13" class="st14"/>
			<text x="4" y="954.98" class="st15">SELECT Status FROM <tspan x="4" dy="1.2em" class="st6">RCM_InitPackageRequest WHERE </tspan><tspan
						x="4" dy="1.2em" class="st6">RequestTrackingGUID=@trackGuid</tspan></text>		</g>
		<g id="shape351-265" transform="translate(576.5,-156.634)">
			<title>Orthogonal.119</title>
			<desc>Rcmctrl.log (CAS) Created minijob to send compressed copy of ...</desc>
			<path d="M0 949.13 L-30.08 949.13" class="st14"/>
			<path d="M4.5 922.13 L0 922.13 L0 976.13 L4.5 976.13" class="st14"/>
			<path d="M109.46 922.13 L113.96 922.13 L113.96 976.13 L109.46 976.13" class="st14"/>
			<text x="4" y="932.94" class="st16">Rcmctrl.log <tspan class="st17">(CAS)  </tspan><tspan x="4" dy="2.4em" class="st18">Created minijob to send compressed </tspan><tspan
						x="4" dy="1.2em" class="st18">copy of DRS INIT BCP Package to site </tspan><tspan x="4" dy="1.2em"
						class="st18">&#60;CAS&#62;. Transfer root = &#60;CAB file to </tspan><tspan x="4" dy="1.2em" class="st18">transfer&#62;</tspan></text>		</g>
		<g id="shape352-276" transform="translate(576.5,-233.134)">
			<title>Orthogonal.120</title>
			<desc>Rcmctrl.log (CAS) Creating init package for replication group...</desc>
			<path d="M0 953.63 L-30.08 953.63" class="st14"/>
			<path d="M4.5 931.13 L0 931.13 L0 976.13 L4.5 976.13" class="st14"/>
			<path d="M109.46 931.13 L113.96 931.13 L113.96 976.13 L109.46 976.13" class="st14"/>
			<text x="4" y="941.03" class="st16">Rcmctrl.log <tspan class="st17">(CAS)  </tspan><tspan x="4" dy="2.4em" class="st18">Creating init package for replication </tspan><tspan
						x="4" dy="1.2em" class="st18">group &#60;replication group&#62; for site </tspan><tspan x="4" dy="1.2em"
						class="st18">&#60;CAS&#62;</tspan></text>		</g>
		<g id="shape353-286" transform="translate(576.5,-95.8844)">
			<title>Orthogonal.121</title>
			<desc>Sender.log (CAS) Sending completed [CAB file to transfer]</desc>
			<path d="M0 960.38 L-30.08 960.38" class="st14"/>
			<path d="M4.5 944.63 L0 944.63 L0 976.13 L4.5 976.13" class="st14"/>
			<path d="M109.46 944.63 L113.96 944.63 L113.96 976.13 L109.46 976.13" class="st14"/>
			<text x="4" y="954.98" class="st16">Sender.log <tspan class="st17">(CAS)  </tspan><tspan x="4" dy="2.4em" class="st18">Sending completed [CAB file to transfer]</tspan></text>		</g>
		<g id="shape354-294" transform="translate(576.5,-8.13438)">
			<title>Orthogonal.125</title>
			<desc>Despoolr.log (primary site) Verified Package signature … Exec...</desc>
			<path d="M0 935.63 L-30.08 935.63" class="st14"/>
			<path d="M4.5 895.13 L0 895.13 L0 976.13 L4.5 976.13" class="st14"/>
			<path d="M109.46 895.13 L113.96 895.13 L113.96 976.13 L109.46 976.13" class="st14"/>
			<text x="4" y="905.04" class="st16">Despoolr.log <tspan class="st17">(primary site)  </tspan><tspan x="4" dy="2.4em"
						class="st18">Verified Package signature </tspan><tspan x="4" dy="1.2em" class="st18">… </tspan><tspan x="4"
						dy="1.2em" class="st18">Executing instruction of type </tspan><tspan x="4" dy="1.2em" class="st18">MICROSOFT|SMS|MINIJOBINSTRUCTION</tspan><tspan
						x="4" dy="1.2em" class="st18">|DRSINIT </tspan><tspan x="4" dy="1.2em" class="st18">... </tspan><tspan
						x="4" dy="1.2em" class="st18">Decompressing snapshot package </tspan><tspan x="4" dy="1.2em" class="st18">&#60;compressed file&#62; to [rcm inbox]</tspan></text>		</g>
		<g id="shape358-309" transform="translate(576.5,-303.109)">
			<title>Orthogonal.358</title>
			<desc>Rcmctrl.log (primary site) BcpIn for group &#60;group name&#62; … Fai...</desc>
			<path d="M0 953.63 L-30.08 953.63" class="st14"/>
			<path d="M4.5 931.13 L0 931.13 L0 976.13 L4.5 976.13" class="st14"/>
			<path d="M109.46 931.13 L113.96 931.13 L113.96 976.13 L109.46 976.13" class="st14"/>
			<text x="4" y="941.03" class="st16">Rcmctrl.log <tspan class="st17">(primary site)  </tspan><tspan x="4" dy="2.4em"
						class="st18">BcpIn for group &#60;group name&#62; </tspan><tspan x="4" dy="1.2em" class="st18">… </tspan><tspan
						x="4" dy="1.2em" class="st18">Failed to BCP in for table &#60;table name&#62;</tspan></text>		</g>
	</g>
</svg>
