<?xml version="1.0" encoding="UTF-8" standalone="no"?>
<!DOCTYPE svg PUBLIC "-//W3C//DTD SVG 1.1//EN" "http://www.w3.org/Graphics/SVG/1.1/DTD/svg11.dtd">
<!-- Generated by Microsoft Visio, SVG Export site-data-reinit.svg Page-1 -->
<svg xmlns="http://www.w3.org/2000/svg" xmlns:xlink="http://www.w3.org/1999/xlink" xmlns:ev="http://www.w3.org/2001/xml-events"
		width="7.76389in" height="17.5139in" viewBox="0 0 559 1261" xml:space="preserve" color-interpolation-filters="sRGB"
		class="st19">
	<style type="text/css">
	<![CDATA[
		.st1 {fill:#ffffff;stroke:#c3c3c3;stroke-linecap:round;stroke-linejoin:round;stroke-width:1}
		.st2 {fill:#ffc000;stroke:#000000;stroke-linecap:round;stroke-linejoin:round;stroke-width:1.5}
		.st3 {fill:#000000;font-family:Segoe UI;font-size:0.666664em;font-weight:bold}
		.st4 {fill:#a3d9f4;stroke:#000000;stroke-linecap:round;stroke-linejoin:round;stroke-width:1.5}
		.st5 {fill:none;stroke:none;stroke-linecap:round;stroke-linejoin:round;stroke-width:0.5}
		.st6 {font-size:1em}
		.st7 {marker-end:url(#mrkr4-18);stroke:#000000;stroke-linecap:round;stroke-linejoin:round;stroke-width:1.5}
		.st8 {fill:#000000;fill-opacity:1;stroke:#000000;stroke-opacity:1;stroke-width:0.37313432835821}
		.st9 {fill:#00aba9;stroke:#000000;stroke-linecap:round;stroke-linejoin:round;stroke-width:1.5}
		.st10 {fill:#000000;font-family:Segoe UI;font-size:1.16666em}
		.st11 {fill:#ffffff;stroke:none;stroke-linecap:round;stroke-linejoin:round;stroke-width:0.5}
		.st12 {fill:#ffffff;stroke:none;stroke-linecap:butt;stroke-width:7.2}
		.st13 {fill:#ffffff;stroke:none;stroke-linecap:round;stroke-linejoin:round;stroke-width:1.5}
		.st14 {stroke:#7f7f7f;stroke-linecap:round;stroke-linejoin:round;stroke-width:1.5}
		.st15 {fill:#000000;font-family:Segoe UI;font-size:0.499992em}
		.st16 {fill:#000000;font-family:Segoe UI;font-size:0.499992em;font-weight:bold}
		.st17 {font-size:1em;font-weight:normal}
		.st18 {font-size:1em;font-style:italic;font-weight:normal}
		.st19 {fill:none;fill-rule:evenodd;font-size:12px;overflow:visible;stroke-linecap:square;stroke-miterlimit:3}
	]]>
	</style>

	<defs id="Markers">
		<g id="lend4">
			<path d="M 2 1 L 0 0 L 2 -1 L 2 1 " style="stroke:none"/>
		</g>
		<marker id="mrkr4-18" class="st8" refX="-5.36" orient="auto" markerUnits="strokeWidth" overflow="visible">
			<use xlink:href="#lend4" transform="scale(-2.68,-2.68) "/>
		</marker>
	</defs>
	<g>
		<title>Page-1</title>
		<g id="shape133-1" transform="translate(0.5,-0.5)">
			<title>Sheet.133</title>
			<rect x="0" y="1.00004" width="558" height="1260" class="st1"/>
		</g>
		<g id="shape18-3" transform="translate(284.938,-1206.48)">
			<title>Start/End.10</title>
			<desc>Start</desc>
			<path d="M10.35 1261 L31.05 1261 A10.35 11.025 -180 0 0 31.05 1238.95 L10.35 1238.95 A10.35 11.025 -180 1 0 10.35 1261
						 Z" class="st2"/>
			<text x="11.6" y="1252.38" class="st3">Start</text>		</g>
		<g id="shape19-6" transform="translate(132.8,-1120.53)">
			<title>Process.13</title>
			<desc>CAS</desc>
			<rect x="0" y="1222.9" width="41.4" height="38.0962" class="st4"/>
			<text x="13.15" y="1244.35" class="st3">CAS</text>		</g>
		<g id="shape21-9" transform="translate(182.974,-1120.53)">
			<title>Sheet.21</title>
			<desc>Check if site replication hasn't finished reinit</desc>
			<rect x="0" y="1222.9" width="113.664" height="38.0962" class="st5"/>
			<text x="2" y="1239.55" class="st3">Check if site replication <tspan x="2" dy="1.2em" class="st6">hasn</tspan>'t finished reinit</text>		</g>
		<g id="shape22-13" transform="translate(305.638,-1206.48)">
			<title>Dynamic connector.1114</title>
			<path d="M0 1261 L0 1282.13 L-152.14 1282.13 L-152.14 1300.81" class="st7"/>
		</g>
		<g id="shape23-19" transform="translate(483.8,-1037.51)">
			<title>Start/End.1184</title>
			<desc>End</desc>
			<path d="M10.35 1261 L31.05 1261 A10.35 11.025 -180 0 0 31.05 1238.95 L10.35 1238.95 A10.35 11.025 -180 1 0 10.35 1261
						 Z" class="st9"/>
			<text x="13.67" y="1252.38" class="st3">End</text>		</g>
		<g id="shape24-22" transform="translate(0.5,-1236.03)">
			<title>Sheet.24</title>
			<desc>Troubleshoot site data reinit</desc>
			<rect x="0" y="1243.92" width="558" height="17.0812" class="st5"/>
			<text x="191.97" y="1256.66" class="st10">Troubleshoot site data reinit</text>		</g>
		<g id="shape25-25" transform="translate(153.5,-1120.53)">
			<title>Dynamic connector.1067</title>
			<path d="M0 1261 L0 1306.22 L152.14 1306.22 L152.14 1316.18" class="st7"/>
		</g>
		<g id="shape26-30" transform="translate(294.013,-938.975)">
			<title>Process.1109</title>
			<rect x="0" y="1243.45" width="23.4" height="17.55" class="st4"/>
		</g>
		<g id="shape27-32" transform="translate(330.013,-938.975)">
			<title>Sheet.27</title>
			<desc>Get the TrackingGuid &#38; Status from CAS</desc>
			<rect x="0" y="1243.45" width="103.461" height="17.55" class="st5"/>
			<text x="2" y="1249.83" class="st3">Get the TrackingGuid &#38; <tspan x="2" dy="1.2em" class="st6">Status from CAS</tspan></text>		</g>
		<g id="shape30-36" transform="translate(296.676,-1039.76)">
			<title>Dynamic connector.1029</title>
			<path d="M8.96 1261 L9.03 1336.19" class="st7"/>
		</g>
		<g id="shape32-41" transform="translate(317.338,-1057.53)">
			<title>Dynamic connector.1094</title>
			<path d="M0 1270 L158.42 1270" class="st7"/>
		</g>
		<g id="shape33-46" transform="translate(293.938,-1039.76)">
			<title>Decision.1066</title>
			<path d="M0 1252.22 L11.7 1243.45 L23.4 1252.22 L11.7 1261 L0 1252.22 Z" class="st2"/>
		</g>
		<g id="shape34-48" transform="translate(323.094,-1039.76)">
			<title>Sheet.34</title>
			<desc>No Result</desc>
			<rect x="0" y="1243.45" width="38.8125" height="17.55" class="st11"/>
			<text x="13.8" y="1249.83" class="st3">No <tspan x="7.76" dy="1.2em" class="st6">Result</tspan></text>		</g>
		<g id="shape42-52" transform="translate(294.013,-823.756)">
			<title>Decision.222</title>
			<path d="M0 1252.22 L11.7 1243.45 L23.4 1252.22 L11.7 1261 L0 1252.22 Z" class="st2"/>
		</g>
		<g id="shape53-54" transform="translate(435.537,-821.506)">
			<title>Start/End.238</title>
			<desc>Continue to Reinit missing message</desc>
			<path d="M11.03 1261 L102.94 1261 A11.025 11.025 -180 0 0 102.94 1238.95 L11.03 1238.95 A11.025 11.025 -180 1 0 11.03
						 1261 Z" class="st2"/>
			<text x="34.82" y="1247.58" class="st3">Continue to  <tspan x="13.26" dy="1.2em" class="st6">Reinit missing message</tspan></text>		</g>
		<g id="shape54-58" transform="translate(317.413,-841.531)">
			<title>Dynamic connector.239</title>
			<desc>No Result</desc>
			<path d="M0 1270 L110.08 1270" class="st7"/>
			<rect x="8.93836" y="1260.4" width="23.2965" height="19.1997" class="st12"/>
			<text x="14.98" y="1267.6" class="st3">No <tspan x="8.94" dy="1.2em" class="st6">Result</tspan></text>		</g>
		<g id="shape59-66" transform="translate(438.8,-1120.53)">
			<title>Process.67</title>
			<desc>Primary</desc>
			<rect x="0" y="1222.9" width="41.4" height="38.0962" class="st4"/>
			<text x="5.95" y="1244.35" class="st3">Primary</text>		</g>
		<g id="shape60-69" transform="translate(459.5,-1120.53)">
			<title>Dynamic connector.71</title>
			<path d="M0 1261 L0 1306.22 L-153.86 1306.22 L-153.86 1316.18" class="st7"/>
		</g>
		<g id="shape61-74" transform="translate(294.013,-871.025)">
			<title>Process.72</title>
			<rect x="0" y="1243.45" width="23.4" height="17.55" class="st4"/>
		</g>
		<g id="shape62-76" transform="translate(325.983,-871.025)">
			<title>Sheet.62</title>
			<desc>Get the TrackingGuid &#38; Status from the primary site</desc>
			<rect x="0" y="1243.92" width="113.963" height="17.0812" class="st5"/>
			<text x="2" y="1250.06" class="st3">Get the TrackingGuid &#38; <tspan x="2" dy="1.2em" class="st6">Status from the primary site</tspan></text>		</g>
		<g id="shape72-80" transform="translate(296.713,-938.975)">
			<title>Dynamic connector.72</title>
			<path d="M9 1261 L9 1303.36" class="st7"/>
		</g>
		<g id="shape76-85" transform="translate(294.013,-758.525)">
			<title>Process.76</title>
			<rect x="0" y="1243.45" width="23.4" height="17.55" class="st4"/>
		</g>
		<g id="shape78-87" transform="translate(296.713,-823.756)">
			<title>Dynamic connector.78</title>
			<desc>Has Result</desc>
			<path d="M9 1261 L9 1300.64" class="st7"/>
			<rect x="-2.64819" y="1270.13" width="23.2965" height="19.1997" class="st12"/>
			<text x="2.02" y="1277.33" class="st3">Has <tspan x="-2.65" dy="1.2em" class="st6">Result</tspan></text>		</g>
		<g id="shape79-95" transform="translate(293.938,-679.756)">
			<title>Decision.79</title>
			<path d="M0 1252.22 L11.7 1243.45 L23.4 1252.22 L11.7 1261 L0 1252.22 Z" class="st2"/>
		</g>
		<g id="shape80-97" transform="translate(328.253,-758.056)">
			<title>Sheet.80</title>
			<desc>Check InitializationStatus</desc>
			<rect x="0" y="1242.98" width="103.461" height="18.0187" class="st5"/>
			<text x="2" y="1254.39" class="st3">Check InitializationStatus</text>		</g>
		<g id="shape81-100" transform="translate(314.713,-871.025)">
			<title>Dynamic connector.81</title>
			<path d="M-9 1261 L-9 1282.68" class="st7"/>
		</g>
		<g id="shape82-105" transform="translate(314.676,-758.525)">
			<title>Dynamic connector.82</title>
			<path d="M-8.96 1261 L-9.03 1314.18" class="st7"/>
		</g>
		<g id="shape83-110" transform="translate(317.338,-697.531)">
			<title>Dynamic connector.83</title>
			<path d="M0 1270 L110.16 1270" class="st7"/>
		</g>
		<g id="shape84-115" transform="translate(435.537,-677.506)">
			<title>Start/End.84</title>
			<desc>Continue to Reinit failed</desc>
			<path d="M11.03 1261 L102.94 1261 A11.025 11.025 -180 0 0 102.94 1238.95 L11.03 1238.95 A11.025 11.025 -180 1 0 11.03
						 1261 Z" class="st2"/>
			<text x="34.82" y="1247.58" class="st3">Continue to  <tspan x="34.25" dy="1.2em" class="st6">Reinit failed</tspan></text>		</g>
		<g id="shape85-119" transform="translate(331.307,-680)">
			<title>Sheet.85</title>
			<desc>== 99</desc>
			<rect x="0" y="1243.45" width="38.8125" height="17.55" class="st11"/>
			<text x="8.04" y="1254.63" class="st3">== 99</text>		</g>
		<g id="shape86-122" transform="translate(296.676,-679.756)">
			<title>Dynamic connector.86</title>
			<path d="M8.96 1261 L9.03 1309.88" class="st7"/>
		</g>
		<g id="shape87-127" transform="translate(286.307,-650.975)">
			<title>Sheet.87</title>
			<desc>== 3</desc>
			<rect x="0" y="1243.45" width="38.8125" height="17.55" class="st11"/>
			<text x="10.35" y="1254.63" class="st3">== 3</text>		</g>
		<g id="shape88-130" transform="translate(294.013,-605.281)">
			<title>Process.88</title>
			<rect x="0" y="1243.45" width="23.4" height="17.55" class="st4"/>
		</g>
		<g id="shape90-132" transform="translate(328.253,-605.281)">
			<title>Sheet.90</title>
			<desc>Check primary site isn't in maintenance mode</desc>
			<rect x="0" y="1243.45" width="98.9606" height="17.55" class="st5"/>
			<text x="2" y="1249.83" class="st3">Check primary site isn't <tspan x="2" dy="1.2em" class="st6">in maintenance mode</tspan></text>		</g>
		<g id="shape91-136" transform="translate(294.013,-538.025)">
			<title>Decision.91</title>
			<path d="M0 1252.22 L11.7 1243.45 L23.4 1252.22 L11.7 1261 L0 1252.22 Z" class="st2"/>
		</g>
		<g id="shape92-138" transform="translate(296.713,-605.281)">
			<title>Dynamic connector.92</title>
			<path d="M9 1261 L9 1302.67" class="st7"/>
		</g>
		<g id="shape93-143" transform="translate(435.537,-535.775)">
			<title>Start/End.240</title>
			<desc>Continue to Global data reinit</desc>
			<path d="M11.03 1261 L102.94 1261 A11.025 11.025 -180 0 0 102.94 1238.95 L11.03 1238.95 A11.025 11.025 -180 1 0 11.03
						 1261 Z" class="st2"/>
			<text x="34.82" y="1247.58" class="st3">Continue to  <tspan x="24.24" dy="1.2em" class="st6">Global data reinit</tspan></text>		</g>
		<g id="shape94-147" transform="translate(317.413,-555.8)">
			<title>Dynamic connector.94</title>
			<desc>No Result</desc>
			<path d="M0 1270 L110.08 1270" class="st7"/>
			<rect x="18.2302" y="1260.4" width="23.2965" height="19.1997" class="st12"/>
			<text x="24.27" y="1267.6" class="st3">No <tspan x="18.23" dy="1.2em" class="st6">Result</tspan></text>		</g>
		<g id="shape96-155" transform="translate(314.713,-538.025)">
			<title>Dynamic connector.96</title>
			<desc>Has Result</desc>
			<path d="M-9 1261 L-9 1334.41" class="st7"/>
			<rect x="-20.7232" y="1273.68" width="23.2965" height="19.1997" class="st12"/>
			<text x="-16.05" y="1280.88" class="st3">Has <tspan x="-20.72" dy="1.2em" class="st6">Result</tspan></text>		</g>
		<g id="shape97-163" transform="translate(224.713,-313.025)">
			<title>Start/End.97</title>
			<desc>RCM is preparing the data, check rcmctrl.log on primary for B...</desc>
			<path d="M11.03 1261 L150.97 1261 A11.025 11.025 -180 0 0 150.97 1238.95 L11.03 1238.95 A11.025 11.025 -180 1 0 11.03
						 1261 Z" class="st9"/>
			<text x="18.96" y="1247.58" class="st3">RCM is preparing the data, check <tspan x="5.97" dy="1.2em" class="st6">rcmctrl.log on primary for BCP progress</tspan></text>		</g>
		<g id="shape99-167" transform="translate(294.013,-439.025)">
			<title>Process.99</title>
			<rect x="0" y="1243.45" width="23.4" height="17.55" class="st4"/>
		</g>
		<g id="shape101-169" transform="translate(323.713,-439.475)">
			<title>Sheet.101</title>
			<desc>Check request status for the tracking ID</desc>
			<rect x="0" y="1243.45" width="94.5" height="17.55" class="st5"/>
			<text x="2" y="1249.83" class="st3">Check request status <tspan x="2" dy="1.2em" class="st6">for the tracking ID</tspan></text>		</g>
		<g id="shape102-173" transform="translate(294.013,-367.025)">
			<title>Decision.102</title>
			<path d="M0 1252.22 L11.7 1243.45 L23.4 1252.22 L11.7 1261 L0 1252.22 Z" class="st2"/>
		</g>
		<g id="shape103-175" transform="translate(296.713,-367.025)">
			<title>Dynamic connector.103</title>
			<desc>== 1</desc>
			<path d="M9 1261 L9 1284.91" class="st7"/>
			<rect x="-0.0606384" y="1270" width="18.1214" height="9.59985" class="st12"/>
			<text x="-0.06" y="1277.2" class="st3">== 1</text>		</g>
		<g id="shape104-182" transform="translate(296.713,-439.025)">
			<title>Dynamic connector.104</title>
			<path d="M9 1261 L9 1307.41" class="st7"/>
		</g>
		<g id="shape105-187" transform="translate(224.713,-245.975)">
			<title>Start/End.105</title>
			<desc>RCM has finished BCP the data, create/compress the package</desc>
			<path d="M11.03 1261 L150.97 1261 A11.025 11.025 -180 0 0 150.97 1238.95 L11.03 1238.95 A11.025 11.025 -180 1 0 11.03
						 1261 Z" class="st9"/>
			<text x="22.12" y="1247.58" class="st3">RCM has finished BCP the data,  <tspan x="25.97" dy="1.2em" class="st6">create/compress the package</tspan></text>		</g>
		<g id="shape106-191" transform="translate(305.713,-367.025)">
			<title>Dynamic connector.106</title>
			<desc>== 2</desc>
			<path d="M0 1261 L-117 1261 L-117 1373.05 L-88.85 1373.05" class="st7"/>
			<rect x="-42.732" y="1255.98" width="18.1214" height="9.59985" class="st12"/>
			<text x="-42.73" y="1263.18" class="st3">== 2</text>		</g>
		<g id="shape108-198" transform="translate(224.713,-182.975)">
			<title>Start/End.108</title>
			<desc>File replication job created, check sender.log on primary for...</desc>
			<path d="M11.03 1261 L150.97 1261 A11.025 11.025 -180 0 0 150.97 1238.95 L11.03 1238.95 A11.025 11.025 -180 1 0 11.03
						 1261 Z" class="st9"/>
			<text x="18.11" y="1247.58" class="st3">File replication job created, check <tspan x="15.39" dy="1.2em" class="st6">sender.log on primary for progress</tspan></text>		</g>
		<g id="shape109-202" transform="translate(294.013,-375.8)">
			<title>Dynamic connector.109</title>
			<desc>== 3</desc>
			<path d="M0 1261 L-114.3 1261 L-114.3 1442.8 L-77.34 1442.8" class="st7"/>
			<rect x="-33.2777" y="1255.98" width="18.1214" height="9.59985" class="st12"/>
			<text x="-33.28" y="1263.18" class="st3">== 3</text>		</g>
		<g id="shape110-209" transform="translate(310.738,-679.756)">
			<title>Dynamic connector.110</title>
			<path d="M-5.1 1261 L-157.24 1261 L-157.24 1445.26 L-12.9 1445.26 L-12.9 1476.14" class="st7"/>
		</g>
		<g id="shape111-214" transform="translate(241.307,-675.481)">
			<title>Sheet.111</title>
			<desc>== 4</desc>
			<rect x="0" y="1251.98" width="38.8125" height="9.01873" class="st11"/>
			<text x="10.35" y="1258.89" class="st3">== 4</text>		</g>
		<g id="shape112-217" transform="translate(293.938,-688.531)">
			<title>Dynamic connector.112</title>
			<path d="M0 1261 L-151.09 1261 L-151.09 1917.08 L-77.15 1917.08" class="st7"/>
		</g>
		<g id="shape114-222" transform="translate(220.213,-684.144)">
			<title>Sheet.114</title>
			<desc>== 5</desc>
			<rect x="0" y="1252.22" width="38.8125" height="8.775" class="st11"/>
			<text x="10.35" y="1259.01" class="st3">== 5</text>		</g>
		<g id="shape115-225" transform="translate(224.713,-119.975)">
			<title>Start/End.115</title>
			<desc>File replication job done, check despoolr.log on CAS for prog...</desc>
			<path d="M11.03 1261 L150.97 1261 A11.025 11.025 -180 0 0 150.97 1238.95 L11.03 1238.95 A11.025 11.025 -180 1 0 11.03
						 1261 Z" class="st9"/>
			<text x="22.63" y="1247.58" class="st3">File replication job done, check <tspan x="18.69" dy="1.2em" class="st6">despoolr.log on CAS for progress</tspan></text>		</g>
		<g id="shape116-229" transform="translate(296.713,-182.975)">
			<title>Dynamic connector.116</title>
			<path d="M9 1261 L9 1293.91" class="st7"/>
		</g>
		<g id="shape126-234" transform="translate(224.638,-23.45)">
			<title>Start/End.357</title>
			<desc>RCM on CAS is BCP in the data</desc>
			<path d="M11.03 1261 L150.97 1261 A11.025 11.025 -180 0 0 150.97 1238.95 L11.03 1238.95 A11.025 11.025 -180 1 0 11.03
						 1261 Z" class="st9"/>
			<text x="23.49" y="1252.38" class="st3">RCM on CAS is BCP in the data</text>		</g>
		<g id="shape31-237" transform="translate(286.232,-1008.95)">
			<title>Sheet.31</title>
			<desc>Has Result</desc>
			<rect x="0" y="1238.95" width="38.8125" height="22.05" class="st13"/>
			<text x="12.43" y="1247.58" class="st3">Has <tspan x="7.76" dy="1.2em" class="st6">Result</tspan></text>		</g>
		<g id="shape64-241" transform="translate(10.7764,-1103)">
			<title>Orthogonal.1107</title>
			<desc>SELECT * FROM RCM_DrsInitializationTracking dt INNER JOIN Rep...</desc>
			<path d="M105.45 1224.66 L122.02 1224.55" class="st14"/>
			<path d="M4.5 1189 L0 1189 L0 1261 L4.5 1261" class="st14"/>
			<path d="M100.95 1189 L105.45 1189 L105.45 1261 L100.95 1261" class="st14"/>
			<text x="4" y="1200.4" class="st15">SELECT * FROM <tspan x="4" dy="1.2em" class="st6">RCM_DrsInitializationTracking dt </tspan><tspan
						x="4" dy="1.2em" class="st6">INNER JOIN ReplicationData rg  </tspan><tspan x="4" dy="1.2em" class="st6">ON dt.ReplicationGroup = </tspan><tspan
						x="4" dy="1.2em" class="st6">rg.ReplicationGroup </tspan><tspan x="4" dy="1.2em" class="st6">WHERE dt.InitializationStatus NOT </tspan><tspan
						x="4" dy="1.2em" class="st6">IN (6,7)  </tspan><tspan x="4" dy="1.5em" class="st6">AND rg.ReplicationPattern=N&#39;Site&#39;</tspan></text>		</g>
		<g id="shape65-254" transform="translate(162.5,-857.544)">
			<title>Orthogonal.1110</title>
			<desc>SELECT RequestTrackingGUID, InitializationStatus FROM RCM_Drs...</desc>
			<path d="M113.96 1238.66 L131.51 1238.71" class="st14"/>
			<path d="M4.5 1216 L0 1216 L0 1261 L4.5 1261" class="st14"/>
			<path d="M109.46 1216 L113.96 1216 L113.96 1261 L109.46 1261" class="st14"/>
			<text x="4" y="1225.9" class="st15">SELECT RequestTrackingGUID, <tspan x="4" dy="1.2em" class="st6">InitializationStatus  </tspan><tspan
						x="4" dy="1.2em" class="st6">FROM RCM_DrsInitializationTracking dt </tspan><tspan x="4" dy="1.2em"
						class="st6">WHERE </tspan><tspan x="4" dy="1.2em" class="st6">RequestTrackingGUID=@trackingGuid</tspan></text>		</g>
		<g id="shape68-264" transform="translate(316.776,-1103)">
			<title>Orthogonal.68</title>
			<desc>SELECT * FROM RCM_DrsInitializationTracking dt INNER JOIN Rep...</desc>
			<path d="M105.45 1224.66 L122.02 1224.55" class="st14"/>
			<path d="M4.5 1189 L0 1189 L0 1261 L4.5 1261" class="st14"/>
			<path d="M100.95 1189 L105.45 1189 L105.45 1261 L100.95 1261" class="st14"/>
			<text x="4" y="1200.4" class="st15">SELECT * FROM <tspan x="4" dy="1.2em" class="st6">RCM_DrsInitializationTracking dt </tspan><tspan
						x="4" dy="1.2em" class="st6">INNER JOIN ReplicationData rg  </tspan><tspan x="4" dy="1.2em" class="st6">ON dt.ReplicationGroup = </tspan><tspan
						x="4" dy="1.2em" class="st6">rg.ReplicationGroup </tspan><tspan x="4" dy="1.2em" class="st6">WHERE dt.InitializationStatus NOT </tspan><tspan
						x="4" dy="1.2em" class="st6">IN (6,7)  </tspan><tspan x="4" dy="1.5em" class="st6">AND rg.ReplicationPattern=N&#39;Site&#39;</tspan></text>		</g>
		<g id="shape70-277" transform="translate(163.458,-909.744)">
			<title>Orthogonal.70</title>
			<desc>SELECT RequestTrackingGUID, InitializationStatus FROM RCM_Drs...</desc>
			<path d="M113.96 1222.91 L130.56 1222.96" class="st14"/>
			<path d="M4.5 1184.5 L0 1184.5 L0 1261 L4.5 1261" class="st14"/>
			<path d="M109.46 1184.5 L113.96 1184.5 L113.96 1261 L109.46 1261" class="st14"/>
			<text x="4" y="1195.75" class="st15">SELECT RequestTrackingGUID, <tspan x="4" dy="1.2em" class="st6">InitializationStatus  </tspan><tspan
						x="4" dy="1.2em" class="st6">FROM RCM_DrsInitializationTracking dt </tspan><tspan x="4" dy="1.2em"
						class="st6">INNER JOIN ReplicationData rg  </tspan><tspan x="4" dy="1.2em" class="st6">ON dt.ReplicationGroup = </tspan><tspan
						x="4" dy="1.2em" class="st6">rg.ReplicationGroup </tspan><tspan x="4" dy="1.2em" class="st6">WHERE dt.InitializationStatus NOT IN </tspan><tspan
						x="4" dy="1.2em" class="st6">(6,7)  </tspan><tspan x="4" dy="1.2em" class="st6">AND rg.ReplicationPattern=N&#39;Site&#39;</tspan></text>		</g>
		<g id="shape89-291" transform="translate(162.5,-594.05)">
			<title>Orthogonal.89</title>
			<desc>SELECT * FROM ServerData WHERE SiteStatus = 125 AND SiteCode=...</desc>
			<path d="M113.96 1240.91 L131.51 1240.96" class="st14"/>
			<path d="M4.5 1220.5 L0 1220.5 L0 1261 L4.5 1261" class="st14"/>
			<path d="M109.46 1220.5 L113.96 1220.5 L113.96 1261 L109.46 1261" class="st14"/>
			<text x="4" y="1231.75" class="st15">SELECT * FROM ServerData  <tspan x="4" dy="1.2em" class="st6">WHERE SiteStatus = 125  </tspan><tspan
						x="4" dy="1.2em" class="st6">AND SiteCode=dbo.fnGetSiteCode()  </tspan><tspan x="4" dy="1.2em" class="st6">AND ServerRole=N&#39;Peer&#39;</tspan></text>		</g>
		<g id="shape100-300" transform="translate(162.5,-432.294)">
			<title>Orthogonal.100</title>
			<desc>SELECT Status FROM RCM_InitPackageRequest WHERE RequestTracki...</desc>
			<path d="M113.96 1245.41 L131.51 1245.46" class="st14"/>
			<path d="M4.5 1229.5 L0 1229.5 L0 1261 L4.5 1261" class="st14"/>
			<path d="M109.46 1229.5 L113.96 1229.5 L113.96 1261 L109.46 1261" class="st14"/>
			<text x="4" y="1239.85" class="st15">SELECT Status FROM <tspan x="4" dy="1.2em" class="st6">RCM_InitPackageRequest WHERE </tspan><tspan
						x="4" dy="1.2em" class="st6">RequestTrackingGUID=@trackGuid</tspan></text>		</g>
		<g id="shape119-308" transform="translate(431.713,-234.5)">
			<title>Orthogonal.119</title>
			<desc>Rcmctrl.log (primary site) Created minijob to send compressed...</desc>
			<path d="M0 1238.5 L-45 1238.5" class="st14"/>
			<path d="M4.5 1216 L0 1216 L0 1261 L4.5 1261" class="st14"/>
			<path d="M112.5 1216 L117 1216 L117 1261 L112.5 1261" class="st14"/>
			<text x="4" y="1225.9" class="st16">Rcmctrl.log <tspan class="st17">(primary site)  </tspan><tspan x="4" dy="2.4em"
						class="st18">Created minijob to send compressed copy </tspan><tspan x="4" dy="1.2em" class="st18">of DRS INIT BCP Package to site &#60;CAS&#62;. </tspan><tspan
						x="4" dy="1.2em" class="st18">Tranfer root = &#60;CAB file to transfer&#62;</tspan></text>		</g>
		<g id="shape120-318" transform="translate(431.713,-302.475)">
			<title>Orthogonal.120</title>
			<desc>Rcmctrl.log (primary site) Creating init package for replicat...</desc>
			<path d="M0 1240.33 L-45.02 1240.01" class="st14"/>
			<path d="M4.5 1220.5 L0 1220.5 L0 1261 L4.5 1261" class="st14"/>
			<path d="M112.5 1220.5 L117 1220.5 L117 1261 L112.5 1261" class="st14"/>
			<text x="4" y="1231.75" class="st16">Rcmctrl.log <tspan class="st17">(primary site)  </tspan><tspan x="4" dy="2.4em"
						class="st18">Creating init package for replication </tspan><tspan x="4" dy="1.2em" class="st18">group &#60;replication group&#62; for site &#60;CAS&#62;</tspan></text>		</g>
		<g id="shape121-327" transform="translate(431.713,-178.25)">
			<title>Orthogonal.121</title>
			<desc>Sender.log (primary site) Sending completed [CAB file to tran...</desc>
			<path d="M0 1245.25 L-45 1245.25" class="st14"/>
			<path d="M4.5 1229.5 L0 1229.5 L0 1261 L4.5 1261" class="st14"/>
			<path d="M112.5 1229.5 L117 1229.5 L117 1261 L112.5 1261" class="st14"/>
			<text x="4" y="1239.85" class="st16">Sender.log <tspan class="st17">(primary site)  </tspan><tspan x="4" dy="2.4em"
						class="st18">Sending completed [CAB file to transfer]</tspan></text>		</g>
		<g id="shape125-335" transform="translate(431.713,-90.5)">
			<title>Orthogonal.125</title>
			<desc>Despoolr.log (CAS) Verified Package signature … Executing ins...</desc>
			<path d="M0 1220.5 L-45 1220.5" class="st14"/>
			<path d="M4.5 1180 L0 1180 L0 1261 L4.5 1261" class="st14"/>
			<path d="M112.5 1180 L117 1180 L117 1261 L112.5 1261" class="st14"/>
			<text x="4" y="1189.9" class="st16">Despoolr.log <tspan class="st17">(CAS)  </tspan><tspan x="4" dy="2.4em"
						class="st18">Verified Package signature </tspan><tspan x="4" dy="1.2em" class="st18">… </tspan><tspan x="4"
						dy="1.2em" class="st18">Executing instruction of type </tspan><tspan x="4" dy="1.2em" class="st18">MICROSOFT|SMS|MINIJOBINSTRUCTION|</tspan><tspan
						x="4" dy="1.2em" class="st18">DRSINIT </tspan><tspan x="4" dy="1.2em" class="st18">... </tspan><tspan x="4"
						dy="1.2em" class="st18">Decompressing snapshot package </tspan><tspan x="4" dy="1.2em" class="st18">&#60;compressed file&#62; to [rcm inbox]</tspan></text>		</g>
		<g id="shape127-350" transform="translate(431.638,-11.975)">
			<title>Orthogonal.358</title>
			<desc>Rcmctrl.log (CAS) BcpIn for group &#60;group name&#62; … Failed to BC...</desc>
			<path d="M0 1238.5 L-45 1238.5" class="st14"/>
			<path d="M4.5 1216 L0 1216 L0 1261 L4.5 1261" class="st14"/>
			<path d="M112.5 1216 L117 1216 L117 1261 L112.5 1261" class="st14"/>
			<text x="4" y="1225.9" class="st16">Rcmctrl.log <tspan class="st17">(CAS)  </tspan><tspan x="4" dy="2.4em" class="st18">BcpIn for group &#60;group name&#62; </tspan><tspan
						x="4" dy="1.2em" class="st18">… </tspan><tspan x="4" dy="1.2em" class="st18">Failed to BCP in for table &#60;table name&#62;</tspan></text>		</g>
	</g>
</svg>
