<?xml version="1.0" encoding="UTF-8" standalone="no"?>
<!DOCTYPE svg PUBLIC "-//W3C//DTD SVG 1.1//EN" "http://www.w3.org/Graphics/SVG/1.1/DTD/svg11.dtd">
<!-- Generated by Microsoft Visio, SVG Export sql-replication-reinit.svg Page-1 -->
<svg xmlns="http://www.w3.org/2000/svg" xmlns:xlink="http://www.w3.org/1999/xlink" xmlns:ev="http://www.w3.org/2001/xml-events"
		width="6.95139in" height="8.88889in" viewBox="0 0 500.5 640" xml:space="preserve" color-interpolation-filters="sRGB"
		class="st16">
	<style type="text/css">
	<![CDATA[
		.st1 {fill:#ffffff;stroke:#c3c3c3;stroke-linecap:round;stroke-linejoin:round;stroke-width:1}
		.st2 {fill:#ffc000;stroke:#000000;stroke-linecap:round;stroke-linejoin:round;stroke-width:1.5}
		.st3 {fill:#000000;font-family:Segoe UI;font-size:0.666664em;font-weight:bold}
		.st4 {fill:#a3d9f4;stroke:#000000;stroke-linecap:round;stroke-linejoin:round;stroke-width:1.5}
		.st5 {font-size:1em}
		.st6 {fill:none;stroke:none;stroke-linecap:round;stroke-linejoin:round;stroke-width:0.5}
		.st7 {marker-end:url(#mrkr4-21);stroke:#000000;stroke-linecap:round;stroke-linejoin:round;stroke-width:1.5}
		.st8 {fill:#000000;fill-opacity:1;stroke:#000000;stroke-opacity:1;stroke-width:0.37313432835821}
		.st9 {fill:#000000;font-family:Segoe UI;font-size:1.16666em}
		.st10 {fill:#ffffff;stroke:none;stroke-linecap:round;stroke-linejoin:round;stroke-width:1.5}
		.st11 {fill:#ffffff;stroke:none;stroke-linecap:round;stroke-linejoin:round;stroke-width:0.5}
		.st12 {fill:#ffffff;stroke:none;stroke-linecap:butt;stroke-width:7.2}
		.st13 {stroke:#7f7f7f;stroke-linecap:round;stroke-linejoin:round;stroke-width:1.5}
		.st14 {fill:#000000;font-family:Segoe UI;font-size:0.666664em}
		.st15 {fill:#000000;font-family:Segoe UI;font-size:0.499992em}
		.st16 {fill:none;fill-rule:evenodd;font-size:12px;overflow:visible;stroke-linecap:square;stroke-miterlimit:3}
	]]>
	</style>

	<defs id="Markers">
		<g id="lend4">
			<path d="M 2 1 L 0 0 L 2 -1 L 2 1 " style="stroke:none"/>
		</g>
		<marker id="mrkr4-21" class="st8" refX="-5.36" orient="auto" markerUnits="strokeWidth" overflow="visible">
			<use xlink:href="#lend4" transform="scale(-2.68,-2.68) "/>
		</marker>
	</defs>
	<g>
		<title>Page-1</title>
		<g id="shape244-1" transform="translate(0.5,-0.5)">
			<title>Sheet.244</title>
			<rect x="0" y="1.00002" width="499.5" height="639" class="st1"/>
		</g>
		<g id="shape161-3" transform="translate(190.438,-585.481)">
			<title>Start/End.10</title>
			<desc>Start</desc>
			<path d="M10.35 640 L31.05 640 A10.35 11.025 -180 0 0 31.05 617.95 L10.35 617.95 A10.35 11.025 -180 1 0 10.35 640 Z"
					class="st2"/>
			<text x="11.6" y="631.38" class="st3">Start</text>		</g>
		<g id="shape162-6" transform="translate(190.438,-498.483)">
			<title>Process.13</title>
			<desc>CAS /Primary</desc>
			<rect x="0" y="601.904" width="41.4" height="38.0962" class="st4"/>
			<text x="10.27" y="618.55" class="st3">CAS /<tspan x="5.95" dy="1.2em" class="st5">Primary</tspan></text>		</g>
		<g id="shape163-10" transform="translate(242.638,-585.481)">
			<title>Sheet.163</title>
			<desc>SQL replication reinitialization (reinit)</desc>
			<rect x="0" y="617.95" width="149.362" height="22.05" class="st6"/>
			<text x="2" y="631.38" class="st3">SQL replication reinitialization (reinit)</text>		</g>
		<g id="shape164-13" transform="translate(241.474,-499.531)">
			<title>Sheet.164</title>
			<desc>Check if site is in maintenance mode</desc>
			<rect x="0" y="602.952" width="143.776" height="37.0481" class="st6"/>
			<text x="2" y="623.88" class="st3">Check if site is in maintenance mode</text>		</g>
		<g id="shape165-16" transform="translate(202.138,-585.481)">
			<title>Dynamic connector.1114</title>
			<path d="M9 640 L9 680.86" class="st7"/>
		</g>
		<g id="shape166-22" transform="translate(373.138,-416.506)">
			<title>Start/End.1184</title>
			<desc>End</desc>
			<path d="M10.35 640 L31.05 640 A10.35 11.025 -180 0 0 31.05 617.95 L10.35 617.95 A10.35 11.025 -180 1 0 10.35 640 Z"
					class="st2"/>
			<text x="13.67" y="631.38" class="st3">End</text>		</g>
		<g id="shape167-25" transform="translate(0.5,-615.031)">
			<title>Sheet.167</title>
			<desc>Troubleshoot SQL replication reinit</desc>
			<rect x="0" y="622.45" width="499.5" height="17.55" class="st6"/>
			<text x="142.22" y="635.43" class="st9">Troubleshoot SQL replication reinit</text>		</g>
		<g id="shape168-28" transform="translate(202.138,-498.483)">
			<title>Dynamic connector.1067</title>
			<path d="M9 640 L9 693.89" class="st7"/>
		</g>
		<g id="shape169-33" transform="translate(199.438,-211.531)">
			<title>Process.1109</title>
			<rect x="0" y="622.45" width="23.4" height="17.55" class="st4"/>
		</g>
		<g id="shape170-35" transform="translate(238.138,-211.531)">
			<title>Sheet.170</title>
			<desc>Check global data</desc>
			<rect x="0" y="622.45" width="135" height="17.55" class="st6"/>
			<text x="2" y="633.63" class="st3">Check global data</text>		</g>
		<g id="shape171-38" transform="translate(290.3,-72.95)">
			<title>Process.1113</title>
			<rect x="0" y="622.45" width="23.4" height="17.55" class="st4"/>
		</g>
		<g id="shape173-40" transform="translate(202.138,-211.531)">
			<title>Dynamic connector.1116</title>
			<path d="M9 640 L9 671.99" class="st7"/>
		</g>
		<g id="shape181-45" transform="translate(202.138,-419)">
			<title>Dynamic connector.1029</title>
			<path d="M9 640 L9 677.88" class="st7"/>
		</g>
		<g id="shape182-50" transform="translate(191.732,-392.45)">
			<title>Sheet.182</title>
			<desc>Has Result</desc>
			<rect x="0" y="617.95" width="38.8125" height="22.05" class="st10"/>
			<text x="12.43" y="626.58" class="st3">Has <tspan x="7.76" dy="1.2em" class="st5">Result</tspan></text>		</g>
		<g id="shape183-54" transform="translate(222.838,-436.653)">
			<title>Dynamic connector.1094</title>
			<path d="M0 648.88 L142.26 649.11" class="st7"/>
		</g>
		<g id="shape184-59" transform="translate(199.438,-419)">
			<title>Decision.1066</title>
			<path d="M0 631.22 L11.7 622.45 L23.4 631.22 L11.7 640 L0 631.22 Z" class="st2"/>
		</g>
		<g id="shape185-61" transform="translate(228.594,-418.756)">
			<title>Sheet.185</title>
			<desc>No Result</desc>
			<rect x="0" y="622.45" width="38.8125" height="17.55" class="st11"/>
			<text x="13.8" y="628.83" class="st3">No <tspan x="7.76" dy="1.2em" class="st5">Result</tspan></text>		</g>
		<g id="shape188-65" transform="translate(199.438,-355.531)">
			<title>Process.1136</title>
			<rect x="0" y="622.45" width="23.4" height="17.55" class="st4"/>
		</g>
		<g id="shape189-67" transform="translate(238.138,-355.531)">
			<title>Sheet.189</title>
			<desc>Check which replication group hasn't completed reinit</desc>
			<rect x="0" y="622.45" width="135" height="17.55" class="st6"/>
			<text x="2" y="628.83" class="st3">Check which replication group <tspan x="2" dy="1.2em" class="st5">hasn</tspan>'t completed reinit</text>		</g>
		<g id="shape190-71" transform="translate(202.138,-355.531)">
			<title>Dynamic connector.1138</title>
			<path d="M9 640 L9 671.99" class="st7"/>
		</g>
		<g id="shape199-76" transform="translate(199.438,-297.95)">
			<title>Decision.73</title>
			<path d="M0 631.22 L11.7 622.45 L23.4 631.22 L11.7 640 L0 631.22 Z" class="st2"/>
		</g>
		<g id="shape200-78" transform="translate(202.138,-297.95)">
			<title>Dynamic connector.75</title>
			<desc>Has Result</desc>
			<path d="M9 640 L9 700.83" class="st7"/>
			<rect x="-2.64819" y="653.35" width="23.2965" height="19.1997" class="st12"/>
			<text x="2.02" y="660.55" class="st3">Has <tspan x="-2.65" dy="1.2em" class="st5">Result</tspan></text>		</g>
		<g id="shape201-86" transform="translate(222.838,-306.725)">
			<title>Dynamic connector.76</title>
			<path d="M0 640 L219.09 640 L219.09 906.91" class="st7"/>
		</g>
		<g id="shape202-91" transform="translate(236.188,-297.95)">
			<title>Sheet.202</title>
			<desc>No Result</desc>
			<rect x="0" y="622.45" width="38.8125" height="17.55" class="st11"/>
			<text x="13.8" y="628.83" class="st3">No <tspan x="7.76" dy="1.2em" class="st5">Result</tspan></text>		</g>
		<g id="shape222-95" transform="translate(199.438,-153.95)">
			<title>Decision.222</title>
			<path d="M0 631.22 L11.7 622.45 L23.4 631.22 L11.7 640 L0 631.22 Z" class="st2"/>
		</g>
		<g id="shape223-97" transform="translate(222.838,-162.725)">
			<title>Dynamic connector.223</title>
			<path d="M0 640 L79.16 640 L79.16 704.18" class="st7"/>
		</g>
		<g id="shape224-102" transform="translate(245.188,-153.5)">
			<title>Sheet.224</title>
			<desc>No Result</desc>
			<rect x="0" y="622.45" width="38.8125" height="17.55" class="st11"/>
			<text x="13.8" y="628.83" class="st3">No <tspan x="7.76" dy="1.2em" class="st5">Result</tspan></text>		</g>
		<g id="shape228-106" transform="translate(290.3,-11.75)">
			<title>Decision.228</title>
			<path d="M0 631.22 L11.7 622.45 L23.4 631.22 L11.7 640 L0 631.22 Z" class="st2"/>
		</g>
		<g id="shape229-108" transform="translate(313.7,-11.6375)">
			<title>Dynamic connector.229</title>
			<path d="M0 631.11 L71.12 630.91" class="st7"/>
		</g>
		<g id="shape230-113" transform="translate(293,-72.95)">
			<title>Dynamic connector.230</title>
			<path d="M9 640 L9 675.61" class="st7"/>
		</g>
		<g id="shape231-118" transform="translate(319.438,-9.49998)">
			<title>Sheet.231</title>
			<desc>No Result</desc>
			<rect x="0" y="622.45" width="38.8125" height="17.55" class="st11"/>
			<text x="13.8" y="628.83" class="st3">No <tspan x="7.76" dy="1.2em" class="st5">Result</tspan></text>		</g>
		<g id="shape236-122" transform="translate(199.438,-162.725)">
			<title>Dynamic connector.236</title>
			<path d="M0 640 L-140.44 640 L-140.44 763.14" class="st7"/>
		</g>
		<g id="shape237-127" transform="translate(146.75,-153.95)">
			<title>Sheet.237</title>
			<desc>Has Result</desc>
			<rect x="0" y="622.45" width="38.8125" height="17.55" class="st11"/>
			<text x="12.43" y="628.83" class="st3">Has <tspan x="7.76" dy="1.2em" class="st5">Result</tspan></text>		</g>
		<g id="shape238-131" transform="translate(140.862,-9.49998)">
			<title>Start/End.238</title>
			<desc>Continue to Site data reinit</desc>
			<path d="M11.03 640 L87.11 640 A11.025 11.025 -180 0 0 87.11 617.95 L11.03 617.95 A11.025 11.025 -180 1 0 11.03 640 Z"
					class="st2"/>
			<text x="26.91" y="626.58" class="st3">Continue to  <tspan x="21.42" dy="1.2em" class="st5">Site data reinit</tspan></text>		</g>
		<g id="shape239-135" transform="translate(290.3,-11.525)">
			<title>Dynamic connector.239</title>
			<desc>Has Result</desc>
			<path d="M0 631 L-43.26 631" class="st7"/>
			<rect x="-37.2982" y="621.4" width="23.2965" height="19.1997" class="st12"/>
			<text x="-32.63" y="628.6" class="st3">Has <tspan x="-37.3" dy="1.2em" class="st5">Result</tspan></text>		</g>
		<g id="shape240-143" transform="translate(9.93079,-9.49997)">
			<title>Start/End.240</title>
			<desc>Continue to Global data reinit</desc>
			<path d="M11.03 640 L87.11 640 A11.025 11.025 -180 0 0 87.11 617.95 L11.03 617.95 A11.025 11.025 -180 1 0 11.03 640 Z"
					class="st2"/>
			<text x="26.91" y="626.58" class="st3">Continue to  <tspan x="16.32" dy="1.2em" class="st5">Global data reinit</tspan></text>		</g>
		<g id="shape241-147" transform="translate(392.862,-9.72498)">
			<title>Start/End.241</title>
			<desc>Continue to SQL configuration</desc>
			<path d="M11.03 640 L87.11 640 A11.025 11.025 -180 0 0 87.11 617.95 L11.03 617.95 A11.025 11.025 -180 1 0 11.03 640 Z"
					class="st2"/>
			<text x="26.91" y="626.58" class="st3">Continue to  <tspan x="14.99" dy="1.2em" class="st5">SQL configuration</tspan></text>		</g>
		<g id="shape243-151" transform="translate(326.001,-72.95)">
			<title>Sheet.243</title>
			<desc>Check site data</desc>
			<rect x="0" y="622.45" width="135" height="17.55" class="st6"/>
			<text x="2" y="633.63" class="st3">Check site data</text>		</g>
		<g id="shape203-154" transform="translate(70.4741,-501.781)">
			<title>Orthogonal.1107</title>
			<desc>SELECT * FROM ServerData WHERE SiteStatus = 120</desc>
			<path d="M105.45 624.25 L119.96 624.25" class="st13"/>
			<path d="M4.5 608.5 L0 608.5 L0 640 L4.5 640" class="st13"/>
			<path d="M100.95 608.5 L105.45 608.5 L105.45 640 L100.95 640" class="st13"/>
			<text x="4" y="621.85" class="st14">SELECT * FROM ServerData <tspan x="4" dy="1.2em" class="st5">WHERE SiteStatus = 120</tspan></text>		</g>
		<g id="shape204-161" transform="translate(70.4741,-186.781)">
			<title>Orthogonal.1110</title>
			<desc>SELECT * FROM RCM_DrsInitializationTracking dt INNER JOIN Rep...</desc>
			<path d="M113.96 606.4 L128.96 606.44" class="st13"/>
			<path d="M4.5 572.5 L0 572.5 L0 640 L4.5 640" class="st13"/>
			<path d="M109.46 572.5 L113.96 572.5 L113.96 640 L109.46 640" class="st13"/>
			<text x="4" y="582.85" class="st15">SELECT * FROM <tspan x="4" dy="1.2em" class="st5">RCM_DrsInitializationTracking dt </tspan><tspan
						x="4" dy="1.2em" class="st5">INNER JOIN ReplicationData rg  </tspan><tspan x="4" dy="1.2em" class="st5">ON dt.ReplicationGroup = </tspan><tspan
						x="4" dy="1.2em" class="st5">rg.ReplicationGroup </tspan><tspan x="4" dy="1.2em" class="st5">WHERE dt.InitializationStatus NOT IN </tspan><tspan
						x="4" dy="1.2em" class="st5">(6,7)  </tspan><tspan x="4" dy="1.2em" class="st5">AND rg.ReplicationPattern=N&#39;GLOBAL&#39;</tspan></text>		</g>
		<g id="shape205-174" transform="translate(163.157,-47.75)">
			<title>Orthogonal.1114</title>
			<desc>SELECT * FROM RCM_DrsInitializationTracking dt INNER JOIN Rep...</desc>
			<path d="M113.96 606.09 L127.14 606.06" class="st13"/>
			<path d="M4.5 572.5 L0 572.5 L0 640 L4.5 640" class="st13"/>
			<path d="M109.46 572.5 L113.96 572.5 L113.96 640 L109.46 640" class="st13"/>
			<text x="4" y="582.85" class="st15">SELECT * FROM <tspan x="4" dy="1.2em" class="st5">RCM_DrsInitializationTracking dt </tspan><tspan
						x="4" dy="1.2em" class="st5">INNER JOIN ReplicationData rg  </tspan><tspan x="4" dy="1.2em" class="st5">ON dt.ReplicationGroup = </tspan><tspan
						x="4" dy="1.2em" class="st5">rg.ReplicationGroup </tspan><tspan x="4" dy="1.2em" class="st5">WHERE dt.InitializationStatus NOT IN </tspan><tspan
						x="4" dy="1.2em" class="st5">(6,7)  </tspan><tspan x="4" dy="1.2em" class="st5">AND rg.ReplicationPattern=N&#39;Site&#39;</tspan></text>		</g>
		<g id="shape210-187" transform="translate(73.1741,-344.75)">
			<title>Orthogonal.72</title>
			<desc>SELECT * FROM RCM_DrsInitializationTracking WHERE Initializat...</desc>
			<path d="M103.46 620.17 L126.26 620.35" class="st13"/>
			<path d="M4.5 599.5 L0 599.5 L0 640 L4.5 640" class="st13"/>
			<path d="M98.96 599.5 L103.46 599.5 L103.46 640 L98.96 640" class="st13"/>
			<text x="4" y="610.75" class="st15">SELECT * FROM <tspan x="4" dy="1.2em" class="st5">RCM_DrsInitializationTracking  </tspan><tspan
						x="4" dy="1.2em" class="st5">WHERE InitializationStatus NOT IN </tspan><tspan x="4" dy="1.2em" class="st5">(6,7)</tspan></text>		</g>
	</g>
</svg>
