<?xml version="1.0" encoding="UTF-8" standalone="no"?>
<!DOCTYPE svg PUBLIC "-//W3C//DTD SVG 1.1//EN" "http://www.w3.org/Graphics/SVG/1.1/DTD/svg11.dtd">
<!-- Generated by Microsoft Visio, SVG Export sql-replication.svg Page-1 -->
<svg xmlns="http://www.w3.org/2000/svg" xmlns:xlink="http://www.w3.org/1999/xlink" xmlns:ev="http://www.w3.org/2001/xml-events"
		width="8.25315in" height="7.42669in" viewBox="0 0 594.227 534.722" xml:space="preserve" color-interpolation-filters="sRGB"
		class="st16">
	<style type="text/css">
	<![CDATA[
		.st1 {fill:#ffffff;stroke:#c3c3c3;stroke-linecap:round;stroke-linejoin:round;stroke-width:1}
		.st2 {fill:#ffc000;stroke:#000000;stroke-linecap:round;stroke-linejoin:round;stroke-width:1.5}
		.st3 {fill:#000000;font-family:Segoe UI;font-size:0.666664em;font-weight:bold}
		.st4 {fill:#a3d9f4;stroke:#000000;stroke-linecap:round;stroke-linejoin:round;stroke-width:1.5}
		.st5 {font-size:1em}
		.st6 {fill:none;stroke:none;stroke-linecap:round;stroke-linejoin:round;stroke-width:0.5}
		.st7 {marker-end:url(#mrkr4-22);stroke:#000000;stroke-linecap:round;stroke-linejoin:round;stroke-width:1.5}
		.st8 {fill:#000000;fill-opacity:1;stroke:#000000;stroke-opacity:1;stroke-width:0.37313432835821}
		.st9 {fill:#00b050;stroke:#000000;stroke-linecap:round;stroke-linejoin:round;stroke-width:1.5}
		.st10 {fill:#000000;font-family:Segoe UI;font-size:1.16666em}
		.st11 {fill:#ffffff;stroke:none;stroke-linecap:round;stroke-linejoin:round;stroke-width:1.5}
		.st12 {fill:#ffffff;stroke:none;stroke-linecap:round;stroke-linejoin:round;stroke-width:0.5}
		.st13 {stroke:#7f7f7f;stroke-linecap:round;stroke-linejoin:round;stroke-width:1.5}
		.st14 {fill:#000000;font-family:Segoe UI;font-size:0.666664em}
		.st15 {fill:#000000;font-family:Segoe UI;font-size:0.499992em}
		.st16 {fill:none;fill-rule:evenodd;font-size:12px;overflow:visible;stroke-linecap:square;stroke-miterlimit:3}
	]]>
	</style>

	<defs id="Markers">
		<g id="lend4">
			<path d="M 2 1 L 0 0 L 2 -1 L 2 1 " style="stroke:none"/>
		</g>
		<marker id="mrkr4-22" class="st8" refX="-5.36" orient="auto" markerUnits="strokeWidth" overflow="visible">
			<use xlink:href="#lend4" transform="scale(-2.68,-2.68) "/>
		</marker>
	</defs>
	<g>
		<title>Page-1</title>
		<g id="shape96-1" transform="translate(0.5,-0.5)">
			<title>Sheet.96</title>
			<rect x="0" y="3.72167" width="585" height="531" class="st1"/>
		</g>
		<g id="shape22-3" transform="translate(123.8,-476.422)">
			<title>Start/End.10</title>
			<desc>Start</desc>
			<path d="M10.35 534.72 L31.05 534.72 A10.35 11.025 -180 0 0 31.05 512.67 L10.35 512.67 A10.35 11.025 -180 1 0 10.35 534.72
						 Z" class="st2"/>
			<text x="11.6" y="526.1" class="st3">Start</text>		</g>
		<g id="shape23-6" transform="translate(123.912,-381.325)">
			<title>Process.13</title>
			<desc>CAS /Primary</desc>
			<rect x="0" y="496.625" width="41.4" height="38.0962" class="st4"/>
			<text x="10.27" y="513.27" class="st3">CAS /<tspan x="5.95" dy="1.2em" class="st5">Primary</tspan></text>		</g>
		<g id="shape24-10" transform="translate(168.727,-439.972)">
			<title>Sheet.24</title>
			<desc>Replication link failure</desc>
			<rect x="0" y="476.222" width="130.5" height="58.5" class="st6"/>
			<text x="2" y="485.42" class="st3">Replication link failure</text>		</g>
		<g id="shape25-13" transform="translate(174.312,-356.575)">
			<title>Sheet.25</title>
			<desc>Check if the replication group link is in degraded or failed ...</desc>
			<rect x="0" y="482.409" width="131.664" height="52.3125" class="st6"/>
			<text x="2" y="491.61" class="st3">Check if the replication group <tspan x="2" dy="1.2em" class="st5">link is in degraded or failed state</tspan></text>		</g>
		<g id="shape26-17" transform="translate(135.556,-476.422)">
			<title>Dynamic connector.1114</title>
			<path d="M8.94 534.72 L9.04 583.68" class="st7"/>
		</g>
		<g id="shape27-23" transform="translate(436.1,-8.42169)">
			<title>Start/End.1184</title>
			<desc>End</desc>
			<path d="M10.35 534.72 L31.05 534.72 A10.35 11.025 -180 0 0 31.05 512.67 L10.35 512.67 A10.35 11.025 -180 1 0 10.35 534.72
						 Z" class="st9"/>
			<text x="13.67" y="526.1" class="st3">End</text>		</g>
		<g id="shape28-26" transform="translate(17.9769,-505.972)">
			<title>Sheet.28</title>
			<desc>Troubleshoot SQL replication</desc>
			<rect x="0" y="506.222" width="576" height="28.5" class="st6"/>
			<text x="198.21" y="524.67" class="st10">Troubleshoot SQL replication</text>		</g>
		<g id="shape29-29" transform="translate(153.556,-381.325)">
			<title>Dynamic connector.1067</title>
			<path d="M-8.94 534.72 L-9.04 580.99" class="st7"/>
		</g>
		<g id="shape45-34" transform="translate(135.5,-309.472)">
			<title>Dynamic connector.1029</title>
			<path d="M9 534.72 L9 651.03" class="st7"/>
		</g>
		<g id="shape46-39" transform="translate(125.094,-277.375)">
			<title>Sheet.46</title>
			<desc>Has Result</desc>
			<rect x="0" y="512.075" width="38.8125" height="22.6463" class="st11"/>
			<text x="12.43" y="521" class="st3">Has <tspan x="7.76" dy="1.2em" class="st5">Result</tspan></text>		</g>
		<g id="shape48-43" transform="translate(156.2,-318.247)">
			<title>Dynamic connector.1094</title>
			<path d="M0 534.72 L300.08 534.72 L300.08 589.68" class="st7"/>
		</g>
		<g id="shape49-48" transform="translate(132.8,-309.472)">
			<title>Decision.1066</title>
			<path d="M0 525.95 L11.7 517.17 L23.4 525.95 L11.7 534.72 L0 525.95 Z" class="st2"/>
		</g>
		<g id="shape50-50" transform="translate(165.312,-309.697)">
			<title>Sheet.50</title>
			<desc>No Result</desc>
			<rect x="0" y="517.172" width="38.8125" height="17.55" class="st12"/>
			<text x="13.8" y="523.55" class="st3">No <tspan x="7.76" dy="1.2em" class="st5">Result</tspan></text>		</g>
		<g id="shape53-54" transform="translate(132.8,-167.575)">
			<title>Process.1136</title>
			<rect x="0" y="517.172" width="23.4" height="17.55" class="st4"/>
		</g>
		<g id="shape54-56" transform="translate(161.977,-165.179)">
			<title>Sheet.54</title>
			<desc>Check SQL maintenance mode</desc>
			<rect x="0" y="517.172" width="135" height="17.55" class="st6"/>
			<text x="2" y="526.37" class="st3">Check SQL maintenance mode</text>		</g>
		<g id="shape55-59" transform="translate(135.5,-167.575)">
			<title>Dynamic connector.1138</title>
			<path d="M9 534.72 L9 583.01" class="st7"/>
		</g>
		<g id="shape73-64" transform="translate(132.8,-93.6967)">
			<title>Decision.73</title>
			<path d="M0 525.95 L11.7 517.17 L23.4 525.95 L11.7 534.72 L0 525.95 Z" class="st2"/>
		</g>
		<g id="shape76-66" transform="translate(156.2,-102.472)">
			<title>Dynamic connector.76</title>
			<path d="M0 534.72 L69.3 534.72 L69.3 598.68" class="st7"/>
		</g>
		<g id="shape77-71" transform="translate(165.594,-93.6967)">
			<title>Sheet.77</title>
			<desc>No Result</desc>
			<rect x="0" y="517.172" width="38.8125" height="17.55" class="st12"/>
			<text x="13.8" y="523.55" class="st3">No <tspan x="7.76" dy="1.2em" class="st5">Result</tspan></text>		</g>
		<g id="shape78-75" transform="translate(9.5,-8.42169)">
			<title>Start/End.78</title>
			<desc>Continue to SQL replication reinit</desc>
			<path d="M11.03 534.72 L114.61 534.72 A11.025 11.025 -180 1 0 114.61 512.67 L11.03 512.67 A11.025 11.025 -180 1 0 11.03
						 534.72 Z" class="st2"/>
			<text x="40.66" y="521.3" class="st3">Continue to  <tspan x="23.15" dy="1.2em" class="st5">SQL replication reinit</tspan></text>		</g>
		<g id="shape79-79" transform="translate(279.5,-8.42169)">
			<title>Start/End.241</title>
			<desc>Continue to SQL configuration</desc>
			<path d="M11.03 534.72 L87.11 534.72 A11.025 11.025 -180 0 0 87.11 512.67 L11.03 512.67 A11.025 11.025 -180 1 0 11.03
						 534.72 Z" class="st2"/>
			<text x="26.91" y="521.3" class="st3">Continue to  <tspan x="14.99" dy="1.2em" class="st5">SQL configuration</tspan></text>		</g>
		<g id="shape80-83" transform="translate(132.8,-102.472)">
			<title>Dynamic connector.80</title>
			<path d="M0 534.72 L-60.48 534.72 L-60.48 598.68" class="st7"/>
		</g>
		<g id="shape81-88" transform="translate(83.75,-93.6967)">
			<title>Sheet.81</title>
			<desc>Has Result</desc>
			<rect x="0" y="517.172" width="38.8125" height="17.55" class="st12"/>
			<text x="12.43" y="523.55" class="st3">Has <tspan x="7.76" dy="1.2em" class="st5">Result</tspan></text>		</g>
		<g id="shape82-92" transform="translate(444.577,-237.697)">
			<title>Process.82</title>
			<rect x="0" y="517.172" width="23.4" height="17.55" class="st4"/>
		</g>
		<g id="shape85-94" transform="translate(475.25,-234.5)">
			<title>Sheet.85</title>
			<desc>Check if replication group link is recently calculated</desc>
			<rect x="0" y="512.075" width="103.5" height="22.6463" class="st6"/>
			<text x="2" y="521.28" class="st3">Check if replication group <tspan x="2" dy="1.2em" class="st5">link is </tspan>recently calculated</text>		</g>
		<g id="shape87-98" transform="translate(444.577,-165.697)">
			<title>Decision.87</title>
			<path d="M0 525.95 L11.7 517.17 L23.4 525.95 L11.7 534.72 L0 525.95 Z" class="st2"/>
		</g>
		<g id="shape88-100" transform="translate(447.277,-237.697)">
			<title>Dynamic connector.88</title>
			<path d="M9 534.72 L9 581.13" class="st7"/>
		</g>
		<g id="shape90-105" transform="translate(447.519,-165.697)">
			<title>Dynamic connector.90</title>
			<path d="M8.76 534.72 L9.21 661.91" class="st7"/>
		</g>
		<g id="shape91-110" transform="translate(444.577,-174.472)">
			<title>Dynamic connector.91</title>
			<path d="M0 534.72 L-116.01 534.72 L-116.01 670.68" class="st7"/>
		</g>
		<g id="shape92-115" transform="translate(396.5,-165.697)">
			<title>Sheet.92</title>
			<desc>No Result</desc>
			<rect x="0" y="517.172" width="38.8125" height="17.55" class="st12"/>
			<text x="13.8" y="523.55" class="st3">No <tspan x="7.76" dy="1.2em" class="st5">Result</tspan></text>		</g>
		<g id="shape93-119" transform="translate(158.431,-8.42169)">
			<title>Start/End.93</title>
			<desc>Continue to SQL performance</desc>
			<path d="M11.03 534.72 L87.11 534.72 A11.025 11.025 -180 0 0 87.11 512.67 L11.03 512.67 A11.025 11.025 -180 1 0 11.03
						 534.72 Z" class="st2"/>
			<text x="26.91" y="521.3" class="st3">Continue to  <tspan x="16.52" dy="1.2em" class="st5">SQL performance</tspan></text>		</g>
		<g id="shape89-123" transform="translate(436.437,-127.075)">
			<title>Sheet.89</title>
			<desc>Has Result</desc>
			<rect x="0" y="512.672" width="38.8125" height="22.05" class="st11"/>
			<text x="12.43" y="521.3" class="st3">Has <tspan x="7.76" dy="1.2em" class="st5">Result</tspan></text>		</g>
		<g id="shape64-127" transform="translate(9.5,-379.447)">
			<title>Orthogonal.1107</title>
			<desc>SELECT * FROM RCM_ReplicationLinkStatus WHERE Status IN (8, 9)</desc>
			<path d="M107.92 514.02 L114.41 513.97" class="st13"/>
			<path d="M4.5 494.22 L0 494.22 L0 534.72 L4.5 534.72" class="st13"/>
			<path d="M103.42 494.22 L107.92 494.22 L107.92 534.72 L103.42 534.72" class="st13"/>
			<text x="4" y="507.27" class="st14">SELECT * FROM <tspan x="4" dy="1.2em" class="st5">RCM_ReplicationLinkStatus </tspan><tspan
						x="4" dy="1.2em" class="st5">WHERE Status IN (8, 9)</tspan></text>		</g>
		<g id="shape72-135" transform="translate(9.5,-160.25)">
			<title>Orthogonal.72</title>
			<desc>SELECT * FROM ServerData WHERE Status = 120</desc>
			<path d="M107.92 518.74 L123.3 518.67" class="st13"/>
			<path d="M4.5 503.22 L0 503.22 L0 534.72 L4.5 534.72" class="st13"/>
			<path d="M103.42 503.22 L107.92 503.22 L107.92 534.72 L103.42 534.72" class="st13"/>
			<text x="4" y="516.57" class="st14">SELECT * FROM ServerData <tspan x="4" dy="1.2em" class="st5">WHERE Status = 120</tspan></text>		</g>
		<g id="shape83-142" transform="translate(314.977,-217.222)">
			<title>Orthogonal.83</title>
			<desc>DECLARE @cutoffTime DATETIME SELECT @cutoffTime = DATEADD(min...</desc>
			<path d="M107.92 505.47 L129.6 505.47" class="st13"/>
			<path d="M4.5 476.22 L0 476.22 L0 534.72 L4.5 534.72" class="st13"/>
			<path d="M103.42 476.22 L107.92 476.22 L107.92 534.72 L103.42 534.72" class="st13"/>
			<text x="4" y="485.67" class="st15">DECLARE @cutoffTime DATETIME <tspan x="4" dy="1.2em" class="st5">SELECT @cutoffTime = </tspan><tspan
						x="4" dy="1.2em" class="st5">DATEADD(minute, </tspan>-30, <tspan x="4" dy="1.2em" class="st5">GETUTCDATE()) </tspan><tspan
						x="4" dy="1.2em" class="st5">SELECT * FROM </tspan><tspan x="4" dy="1.2em" class="st5">RCM_ReplicationLinkStatus </tspan><tspan
						x="4" dy="1.2em" class="st5">WHERE UpdateTime &#62;@cutoffTime</tspan></text>		</g>
	</g>
</svg>
