<svg width="18" height="18" viewBox="0 0 18 18" fill="none" xmlns="http://www.w3.org/2000/svg">
<path d="M15.75 3.2625H14.625V16.2C14.6414 16.4307 14.6029 16.6621 14.5125 16.875L14.175 17.4375L13.6125 17.775H3.2625L2.7 17.4375L2.3625 16.875C2.27215 16.6621 2.23359 16.4307 2.25 16.2V3.2625H1.125V2.1375H5.625V1.0125C5.60817 0.85392 5.64802 0.694501 5.7375 0.5625L5.9625 0.225L6.3 0H10.575L10.9125 0.225L11.1375 0.5625C11.227 0.694501 11.2668 0.85392 11.25 1.0125V2.1375H15.75V3.2625ZM13.5 3.2625H3.375V16.2C3.35817 16.3586 3.39802 16.518 3.4875 16.65H13.3875C13.477 16.518 13.5168 16.3586 13.5 16.2V3.2625ZM6.75 14.5125H5.625V5.5125H6.75V14.5125ZM6.75 2.1375H10.125V1.0125H6.75V2.1375ZM9 14.5125H7.875V5.5125H9V14.5125ZM11.25 14.5125H10.125V5.5125H11.25V14.5125Z" fill="#0078D4"/>
</svg>
