<svg width="18" height="18" viewBox="0 0 18 18" fill="none" xmlns="http://www.w3.org/2000/svg">
<g clip-path="url(#clip0_569_2449)">
<path d="M9.0001 17.9999C8.86227 18.0006 8.72681 17.964 8.60802 17.8941C8.48922 17.8242 8.39148 17.7236 8.3251 17.6028L4.02197 8.05381C3.37959 6.77215 3.2567 5.292 3.67889 3.92195C4.10109 2.55189 5.03581 1.39767 6.28817 0.699894C7.54054 0.00212114 9.0139 -0.185344 10.4011 0.176579C11.7883 0.538503 12.9823 1.42188 13.7341 2.64256C14.2361 3.44763 14.5222 4.36842 14.565 5.3162C14.6077 6.26399 14.4057 7.20681 13.9782 8.05381L13.9602 8.08643L9.69197 17.5578C9.62847 17.688 9.53028 17.7982 9.40821 17.8762C9.28615 17.9542 9.14493 17.997 9.0001 17.9999ZM9.0001 1.12493C8.24291 1.12407 7.49809 1.317 6.83654 1.68536C6.17499 2.05372 5.61872 2.58525 5.22066 3.22936C4.8226 3.87348 4.596 4.60874 4.56242 5.36519C4.52885 6.12163 4.68942 6.87408 5.02885 7.55093L9.0001 16.3563L12.9713 7.55093C13.3104 6.87405 13.4708 6.12167 13.437 5.36535C13.4033 4.60903 13.1767 3.87391 12.7787 3.2299C12.3807 2.58588 11.8245 2.05438 11.1632 1.68595C10.5018 1.31751 9.75717 1.12438 9.0001 1.12493Z" fill="#0078D4"/>
<path d="M9 7.875C8.55499 7.875 8.11998 7.74304 7.74997 7.49581C7.37996 7.24857 7.09157 6.89717 6.92127 6.48604C6.75097 6.07491 6.70642 5.6225 6.79323 5.18605C6.88005 4.74959 7.09434 4.34868 7.40901 4.03401C7.72368 3.71934 8.12459 3.50505 8.56105 3.41823C8.99751 3.33142 9.4499 3.37597 9.86104 3.54627C10.2722 3.71657 10.6236 4.00496 10.8708 4.37497C11.118 4.74498 11.25 5.17999 11.25 5.625C11.25 6.22174 11.0129 6.79403 10.591 7.21599C10.169 7.63795 9.59674 7.875 9 7.875ZM9 4.5C8.7775 4.5 8.55999 4.56598 8.37498 4.6896C8.18998 4.81321 8.04579 4.98892 7.96064 5.19448C7.87549 5.40005 7.85321 5.62625 7.89662 5.84448C7.94003 6.06271 8.04717 6.26316 8.20451 6.4205C8.36184 6.57783 8.5623 6.68498 8.78052 6.72838C8.99875 6.77179 9.22495 6.74951 9.43052 6.66437C9.63609 6.57922 9.81179 6.43502 9.9354 6.25002C10.059 6.06501 10.125 5.84751 10.125 5.625C10.125 5.32663 10.0065 5.04048 9.7955 4.82951C9.58452 4.61853 9.29837 4.5 9 4.5Z" fill="#0078D4"/>
</g>
<defs>
<clipPath id="clip0_569_2449">
<rect width="18" height="18" fill="white"/>
</clipPath>
</defs>
</svg>
