<svg width="18" height="18" viewBox="0 0 18 18" fill="none" xmlns="http://www.w3.org/2000/svg">
<g clip-path="url(#clip0_596_2540)">
<path d="M9 0C9.79941 0.00150244 10.5947 0.115109 11.3625 0.3375C12.119 0.52002 12.8408 0.823963 13.5 1.2375C14.181 1.62243 14.8217 2.07469 15.4125 2.5875C15.9253 3.17826 16.3776 3.81897 16.7625 4.5C17.176 5.15918 17.48 5.88105 17.6625 6.6375C18.1125 8.18036 18.1125 9.81964 17.6625 11.3625C17.48 12.119 17.176 12.8408 16.7625 13.5C16.3776 14.181 15.9253 14.8217 15.4125 15.4125C14.8217 15.9253 14.181 16.3776 13.5 16.7625C12.8408 17.176 12.119 17.48 11.3625 17.6625C9.81964 18.1125 8.18036 18.1125 6.6375 17.6625C5.88105 17.48 5.15918 17.176 4.5 16.7625C3.81897 16.3776 3.17826 15.9253 2.5875 15.4125C2.07469 14.8217 1.62243 14.181 1.2375 13.5C0.823963 12.8408 0.52002 12.119 0.3375 11.3625C-0.1125 9.81964 -0.1125 8.18036 0.3375 6.6375C0.52002 5.88105 0.823963 5.15918 1.2375 4.5C1.62243 3.81897 2.07469 3.17826 2.5875 2.5875C3.17826 2.07469 3.81897 1.62243 4.5 1.2375C5.15918 0.823963 5.88105 0.52002 6.6375 0.3375C7.40535 0.115109 8.20059 0.00150244 9 0ZM1.125 9C1.11754 9.76315 1.23146 10.5226 1.4625 11.25H4.6125C4.63094 10.8715 4.59302 10.4924 4.5 10.125V7.875C4.59302 7.50764 4.63094 7.1285 4.6125 6.75H1.4625C1.23146 7.47737 1.11754 8.23685 1.125 9ZM6.4125 1.575C5.92213 1.7081 5.4632 1.93757 5.0625 2.25L3.7125 3.15L2.7 4.275C2.3963 4.69967 2.13267 5.15161 1.9125 5.625H4.8375C4.85803 5.27766 4.93399 4.93584 5.0625 4.6125L5.4 3.4875L5.85 2.475C6.01185 2.15971 6.20002 1.85864 6.4125 1.575ZM1.9125 12.375C2.13267 12.8484 2.3963 13.3003 2.7 13.725L3.7125 14.85L5.0625 15.75C5.4632 16.0624 5.92213 16.2919 6.4125 16.425C6.20002 16.1414 6.01185 15.8403 5.85 15.525L5.4 14.5125L5.0625 13.3875C4.93399 13.0642 4.85803 12.7223 4.8375 12.375H1.9125ZM12.2625 11.25C12.2441 10.8715 12.282 10.4924 12.375 10.125V7.875C12.282 7.50764 12.2441 7.1285 12.2625 6.75H5.7375C5.75594 7.1285 5.71802 7.50764 5.625 7.875V10.125C5.71802 10.4924 5.75594 10.8715 5.7375 11.25H12.2625ZM9 1.125L8.2125 1.35L7.5375 2.025L6.975 2.8125C6.77932 3.12779 6.62791 3.46848 6.525 3.825L6.1875 4.8375C6.07448 5.08762 5.99867 5.35293 5.9625 5.625H12.0375C12.0013 5.35293 11.9255 5.08762 11.8125 4.8375L11.475 3.825C11.3721 3.46848 11.2207 3.12779 11.025 2.8125L10.4625 2.025L9.7875 1.35L9 1.125ZM9 16.875L9.7875 16.65L10.4625 15.975L11.025 15.1875C11.2207 14.8722 11.3721 14.5315 11.475 14.175L11.8125 13.1625C11.9255 12.9124 12.0013 12.6471 12.0375 12.375H5.9625C5.99867 12.6471 6.07448 12.9124 6.1875 13.1625L6.525 14.175C6.62791 14.5315 6.77932 14.8722 6.975 15.1875L7.5375 15.975L8.2125 16.65L9 16.875ZM16.0875 5.625C15.8673 5.15161 15.6037 4.69967 15.3 4.275L14.2875 3.15L12.9375 2.25L11.5875 1.575C11.8 1.85864 11.9881 2.15971 12.15 2.475L12.6 3.4875L12.9375 4.6125C13.066 4.93584 13.142 5.27766 13.1625 5.625H16.0875ZM11.5875 16.425C12.0779 16.2919 12.5368 16.0624 12.9375 15.75L14.2875 14.85L15.3 13.725C15.6037 13.3003 15.8673 12.8484 16.0875 12.375H13.1625C13.142 12.7223 13.066 13.0642 12.9375 13.3875L12.6 14.5125L12.15 15.525C11.9881 15.8403 11.8 16.1414 11.5875 16.425ZM16.875 9C16.8825 8.23685 16.7685 7.47737 16.5375 6.75H13.3875C13.3691 7.1285 13.407 7.50764 13.5 7.875V10.125C13.407 10.4924 13.3691 10.8715 13.3875 11.25H16.5375C16.7685 10.5226 16.8825 9.76315 16.875 9Z" fill="#0078D4"/>
</g>
<defs>
<clipPath id="clip0_596_2540">
<rect width="18" height="18" fill="white"/>
</clipPath>
</defs>
</svg>
