<svg width="18" height="18" viewBox="0 0 18 18" fill="none" xmlns="http://www.w3.org/2000/svg">
<path d="M7.87421 10.8742V9.74932H9.11158L10.2365 9.18688C10.553 8.98467 10.8217 8.71597 11.0239 8.39946C11.1734 7.92643 11.2493 7.43321 11.2489 6.9371C11.2276 6.55336 11.1519 6.1746 11.0239 5.81222C10.8779 5.48824 10.6887 5.18552 10.4614 4.91231L9.56154 4.34986L8.43665 4.12489H3.9371L2.81222 4.34986L1.91231 4.91231C1.68507 5.18552 1.49587 5.48824 1.34986 5.81222C1.22187 6.1746 1.14612 6.55336 1.12489 6.9371C1.13553 7.39545 1.21128 7.84995 1.34986 8.28697L2.13728 9.07439L3.26217 9.63683H4.49955V10.8742H3.9371C3.39451 10.8714 2.85835 10.7565 2.36226 10.5367C1.91044 10.3419 1.4927 10.0761 1.12489 9.74932C0.798091 9.3815 0.532256 8.96376 0.337466 8.51194C0.117659 8.01586 0.00276686 7.4797 0 6.9371C0.00276686 6.39451 0.117659 5.85835 0.337466 5.36226C0.532256 4.91044 0.798091 4.4927 1.12489 4.12489C1.4927 3.79809 1.91044 3.53226 2.36226 3.33747C2.85835 3.11766 3.39451 3.00277 3.9371 3L8.43665 3C8.97924 3.00277 9.51541 3.11766 10.0115 3.33747C10.4633 3.53226 10.881 3.79809 11.2489 4.12489C11.5757 4.4927 11.8415 4.91044 12.0363 5.36226C12.2561 5.85835 12.371 6.39451 12.3738 6.9371C12.371 7.4797 12.2561 8.01586 12.0363 8.51194C11.8415 8.96376 11.5757 9.3815 11.2489 9.74932C10.881 10.0761 10.4633 10.3419 10.0115 10.5367C9.51541 10.7565 8.97924 10.8714 8.43665 10.8742H7.87421ZM13.4986 6.37466V7.49955H14.736L15.8609 8.06199C16.1774 8.2642 16.4461 8.53289 16.6483 8.84941C16.7979 9.32244 16.8737 9.81566 16.8733 10.3118C16.8521 10.6955 16.7763 11.0743 16.6483 11.4366C16.5023 11.7606 16.3131 12.0633 16.0859 12.3366L15.186 12.899L14.0611 13.124H9.56154L8.43665 12.899L7.53674 12.3366C7.3095 12.0633 7.12031 11.7606 6.9743 11.4366C6.84631 11.0743 6.77055 10.6955 6.74932 10.3118C6.75996 9.85342 6.83571 9.39892 6.9743 8.9619C7.1765 8.64538 7.4452 8.37668 7.76172 8.17448L8.8866 7.61203H10.124V6.37466H9.56154C9.01894 6.37743 8.48278 6.49232 7.98669 6.71213C7.53487 6.90692 7.11714 7.17275 6.74932 7.49955C6.42252 7.86736 6.15669 8.2851 5.9619 8.73692C5.73828 9.23183 5.62262 9.76868 5.62262 10.3118C5.62262 10.8548 5.73828 11.3917 5.9619 11.8866C6.15669 12.3384 6.42252 12.7562 6.74932 13.124C7.11714 13.4508 7.53487 13.7166 7.98669 13.9114C8.48278 14.1312 9.01894 14.2461 9.56154 14.2489H14.0611C14.6037 14.2461 15.1398 14.1312 15.6359 13.9114C16.0877 13.7166 16.5055 13.4508 16.8733 13.124C17.2001 12.7562 17.4659 12.3384 17.6607 11.8866C17.8843 11.3917 18 10.8548 18 10.3118C18 9.76868 17.8843 9.23183 17.6607 8.73692C17.4659 8.2851 17.2001 7.86736 16.8733 7.49955C16.5055 7.17275 16.0877 6.90692 15.6359 6.71213C15.1398 6.49232 14.6037 6.37743 14.0611 6.37466H13.4986Z" fill="#0078D4"/>
</svg>
