<svg width="18" height="18" viewBox="0 0 18 18" fill="none" xmlns="http://www.w3.org/2000/svg">
<g clip-path="url(#clip0_576_2059)">
<path d="M15.127 2.25C14.9943 2.25 14.8649 2.27925 14.7378 2.322C15.5332 3.71362 16.5378 6.17963 16.5378 9C16.5378 11.8204 15.5332 14.2864 14.7378 15.678C14.8649 15.7207 14.9943 15.75 15.127 15.75C16.6807 15.75 18.0003 12.7282 18.0003 9C18.0003 5.27175 16.6807 2.25 15.127 2.25Z" fill="#0078D4"/>
<path d="M2.25 13.5H1.125C0.504 13.5 0 12.924 0 12.2141V5.78588C0 5.07488 0.504 4.5 1.125 4.5H2.25C2.871 4.5 3.375 5.076 3.375 5.78588V12.2141C3.375 12.924 2.871 13.5 2.25 13.5Z" fill="#0078D4"/>
<path d="M10.575 0.112549L4.5 5.06255V12.9375L10.575 17.8875C11.7866 17.8875 12.375 17.3959 12.375 16.3125C12.375 15.2292 12.375 2.25005 12.375 1.68755C12.375 0.617674 11.7866 0.112549 10.575 0.112549Z" fill="#0078D4"/>
</g>
<defs>
<clipPath id="clip0_576_2059">
<rect width="18" height="18" fill="white"/>
</clipPath>
</defs>
</svg>
