<svg width="18" height="18" viewBox="0 0 18 18" fill="none" xmlns="http://www.w3.org/2000/svg">
<g clip-path="url(#clip0_569_2368)">
<path d="M17.3162 0.14055C17.3888 0.139902 17.4608 0.154141 17.5278 0.182389C17.5947 0.210638 17.6552 0.252297 17.7054 0.304801C17.7579 0.35503 17.7996 0.415481 17.8278 0.482426C17.8561 0.549371 17.8703 0.621392 17.8697 0.69405C17.8703 0.766709 17.8561 0.83873 17.8278 0.905675C17.7996 0.97262 17.7579 1.03307 17.7054 1.0833L9.39954 9.38917C9.34948 9.44481 9.28862 9.48967 9.22067 9.52103C9.15271 9.55238 9.07908 9.56957 9.00427 9.57154C8.92946 9.57352 8.85502 9.56024 8.78551 9.53251C8.71599 9.50479 8.65285 9.4632 8.59993 9.41028C8.54701 9.35736 8.50542 9.29422 8.4777 9.2247C8.44997 9.15519 8.43669 9.08076 8.43867 9.00594C8.44064 8.93113 8.45783 8.8575 8.48918 8.78955C8.52054 8.72159 8.5654 8.66073 8.62104 8.61068L16.9269 0.303676C16.9771 0.251172 17.0376 0.209513 17.1045 0.181264C17.1715 0.153016 17.2435 0.138777 17.3162 0.139425V0.14055Z" fill="#0078D4"/>
<path d="M9.13761 6.60818C9.06332 6.68479 8.96382 6.73194 8.85749 6.74093C8.61515 6.75555 8.37722 6.81227 8.15436 6.90855C7.89109 7.02267 7.65089 7.18394 7.44561 7.38443C7.23996 7.58264 7.07755 7.82127 6.96861 8.0853C6.85699 8.36022 6.79822 8.65373 6.79536 8.95043C6.79314 9.24473 6.85214 9.53627 6.96861 9.80655C7.08272 10.0698 7.244 10.31 7.44448 10.5153C7.64268 10.721 7.88131 10.8834 8.14536 10.9923C8.42028 11.1039 8.71378 11.1627 9.01048 11.1656C9.30083 11.1662 9.58853 11.1104 9.85761 11.0013C10.0072 10.9408 10.1491 10.8631 10.2806 10.7696C10.3691 10.7053 10.4774 10.6746 10.5864 10.6828C10.6954 10.6911 10.798 10.7378 10.8757 10.8146L10.9905 10.9304C11.0411 10.9761 11.081 11.0324 11.1074 11.0953C11.1337 11.1582 11.1459 11.2261 11.143 11.2942C11.1401 11.3623 11.1222 11.429 11.0906 11.4894C11.059 11.5498 11.0144 11.6025 10.9601 11.6437C10.7494 11.7956 10.5218 11.9224 10.2817 12.0217C9.87881 12.1888 9.44668 12.274 9.01048 12.2726C8.56737 12.2762 8.12834 12.1877 7.72123 12.0127C7.32883 11.8435 6.97107 11.6032 6.66599 11.3039C6.19756 10.837 5.87905 10.241 5.75119 9.59209C5.62333 8.94318 5.69194 8.27088 5.94824 7.66118C6.11461 7.26722 6.35523 6.90896 6.65698 6.60593C6.96138 6.30275 7.31963 6.05896 7.71336 5.88705C8.12182 5.70765 8.56445 5.61936 9.01048 5.6283H9.02061C9.11027 5.62891 9.19777 5.65596 9.27213 5.70607C9.34649 5.75617 9.40441 5.8271 9.43864 5.90998C9.47287 5.99285 9.48189 6.08399 9.46456 6.17196C9.44724 6.25994 9.40434 6.34085 9.34124 6.40455L9.13761 6.60818Z" fill="#0078D4"/>
<path d="M9.01142 16.751C9.52235 16.752 10.0321 16.703 10.5335 16.6048C11.0287 16.507 11.5127 16.3593 11.978 16.1638C12.4429 15.969 12.8888 15.7318 13.31 15.455C13.5932 15.2684 13.8631 15.0624 14.1178 14.8385C14.2218 14.7456 14.3573 14.6958 14.4968 14.6994C14.6362 14.703 14.769 14.7596 14.8682 14.8577L14.8783 14.8667C14.9306 14.9186 14.9718 14.9807 14.9993 15.0491C15.0268 15.1175 15.04 15.1908 15.0382 15.2645C15.0364 15.3382 15.0196 15.4108 14.9889 15.4778C14.9581 15.5448 14.9139 15.6048 14.8592 15.6542C13.25 17.0884 11.1658 17.8741 9.01029 17.8592C8.21535 17.8616 7.42371 17.7568 6.6568 17.5475C5.9141 17.3453 5.20143 17.0457 4.5373 16.6565C3.88384 16.2734 3.28197 15.8084 2.7463 15.2728C2.2092 14.7351 1.74407 14.1301 1.36255 13.4728C0.568756 12.1158 0.150559 10.5719 0.15092 8.99978C0.148491 8.20483 0.253312 7.4132 0.462545 6.64628C0.664781 5.90358 0.96438 5.1909 1.35355 4.52678C1.73667 3.8733 2.20168 3.27143 2.7373 2.73578C3.27497 2.19868 3.88002 1.73355 4.5373 1.35203C5.89467 0.558147 7.43893 0.13995 9.01142 0.140403C9.90887 0.138414 10.8014 0.272694 11.6585 0.538653C12.2961 0.736653 12.9079 1.00969 13.481 1.35203C13.5526 1.3944 13.6135 1.45257 13.6591 1.52208C13.7047 1.59159 13.7339 1.67061 13.7443 1.7531C13.7547 1.83559 13.7461 1.91937 13.7192 1.99804C13.6923 2.07671 13.6478 2.14819 13.589 2.20703L13.5744 2.22165C13.4889 2.30687 13.3775 2.36119 13.2577 2.37606C13.138 2.39093 13.0166 2.3655 12.9129 2.30378C12.3887 1.99306 11.8279 1.74857 11.2434 1.5759C10.5185 1.36239 9.76711 1.25218 9.01142 1.24853C8.31871 1.24629 7.62899 1.33942 6.96167 1.52528C6.31405 1.70563 5.69186 1.9672 5.10992 2.30378C4.53288 2.63866 4.00319 3.04917 3.53492 3.5244C3.0683 3.9947 2.66137 4.52065 2.3233 5.0904C1.98215 5.67077 1.71746 6.2928 1.5358 6.94103C1.34509 7.61044 1.25151 8.30376 1.25792 8.99978C1.25564 9.69286 1.34876 10.383 1.53467 11.0507C1.71542 11.698 1.97738 12.3198 2.3143 12.9013C2.64876 13.4783 3.0589 14.008 3.5338 14.4763C4.00415 14.9428 4.5301 15.3498 5.0998 15.6879C5.68056 16.029 6.30296 16.2937 6.95155 16.4754C7.62101 16.6657 8.31434 16.7589 9.01029 16.7522L9.01142 16.751Z" fill="#0078D4"/>
<path d="M11.52 4.27487C11.4425 4.35177 11.3439 4.40394 11.2368 4.42477C11.1296 4.4456 11.0187 4.43415 10.9181 4.39187C10.3133 4.14144 9.66469 4.01371 9.01008 4.01612C8.34413 4.01188 7.68439 4.14436 7.0717 4.40537C6.47907 4.65634 5.94132 5.02095 5.48883 5.47862C5.03829 5.93511 4.67731 6.47201 4.42458 7.0615C4.16266 7.67417 4.02756 8.33356 4.02745 8.99987C4.02325 9.66582 4.15573 10.3255 4.4167 10.9382C4.6677 11.5309 5.03231 12.0686 5.48995 12.5211C5.94678 12.9718 6.48406 13.3328 7.07395 13.5854C7.68063 13.8435 8.33247 13.9786 8.99174 13.9831C9.65101 13.9875 10.3046 13.8611 10.9147 13.6112C11.3683 13.4258 11.7906 13.1715 12.1668 12.8575C12.2725 12.7704 12.4068 12.7259 12.5436 12.7328C12.6803 12.7397 12.8096 12.7974 12.906 12.8946L12.9082 12.8969C12.9628 12.9514 13.0055 13.0168 13.0333 13.0889C13.0612 13.1609 13.0736 13.238 13.0699 13.3151C13.0662 13.3922 13.0464 13.4677 13.0118 13.5368C12.9772 13.6058 12.9285 13.6668 12.8688 13.7159C12.4095 14.0944 11.897 14.4033 11.3478 14.6327C10.4789 14.9926 9.53855 15.1463 8.60032 15.0819C7.66208 15.0175 6.75151 14.7367 5.93995 14.2615C5.4899 13.9959 5.07427 13.6758 4.70245 13.3086C4.33108 12.9441 4.01091 12.5308 3.7507 12.0801C3.48673 11.6197 3.28043 11.1285 3.13645 10.6176C2.98609 10.0917 2.91295 9.54679 2.91933 8.99987C2.91626 7.92027 3.20298 6.85963 3.74958 5.92862C4.01485 5.47863 4.3345 5.06301 4.70133 4.69112C5.06587 4.31974 5.47915 3.99957 5.92983 3.73937C6.39029 3.47542 6.88148 3.26912 7.39233 3.12512C7.91827 2.97514 8.46321 2.90238 9.01008 2.90912C9.81128 2.90685 10.6049 3.06443 11.3445 3.37262C11.428 3.40786 11.5017 3.46309 11.5589 3.53346C11.6161 3.60383 11.6551 3.68718 11.6726 3.77618C11.69 3.86518 11.6853 3.9571 11.6589 4.04387C11.6325 4.13063 11.5852 4.20957 11.5211 4.27375L11.52 4.27487Z" fill="#0078D4"/>
</g>
<defs>
<clipPath id="clip0_569_2368">
<rect width="18" height="18" fill="white"/>
</clipPath>
</defs>
</svg>
