<svg width="18" height="18" viewBox="0 0 18 18" fill="none" xmlns="http://www.w3.org/2000/svg">
<path d="M15.4996 7.87527V18H2V7.87527H4.24994V4.61286C4.241 3.99635 4.35576 3.3843 4.58743 2.81291C4.8205 2.28728 5.1232 1.79538 5.48741 1.35045C5.89851 0.91415 6.39678 0.569193 6.94987 0.337976C7.52126 0.106302 8.13331 -0.00845619 8.74982 0.000485035C9.36633 -0.00845619 9.97837 0.106302 10.5498 0.337976C11.1029 0.569193 11.6011 0.91415 12.0122 1.35045C12.3764 1.79538 12.6791 2.28728 12.9122 2.81291C13.1439 3.3843 13.2586 3.99635 13.2497 4.61286V7.87527H15.4996ZM14.3747 9.00024H3.12497V16.875H14.3747V9.00024ZM5.37491 7.87527H12.1247V4.61286C12.105 4.15539 12.0294 3.70205 11.8997 3.2629C11.7032 2.84581 11.4369 2.46536 11.1123 2.13793C10.8498 1.79102 10.5006 1.51941 10.0998 1.35045L8.74982 1.12545L7.39985 1.35045C6.99903 1.51941 6.64981 1.79102 6.38738 2.13793C6.06277 2.46536 5.79644 2.84581 5.5999 3.2629C5.47024 3.70205 5.39468 4.15539 5.37491 4.61286V7.87527Z" fill="#0078D4"/>
</svg>
