<svg width="18" height="18" viewBox="0 0 18 18" fill="none" xmlns="http://www.w3.org/2000/svg">
<g clip-path="url(#clip0_620_2564)">
<path d="M12.5774 4.08234C12.4777 3.96414 12.4251 3.8133 12.4298 3.65875C12.4344 3.50419 12.4959 3.35678 12.6025 3.24478C12.7092 3.13278 12.8534 3.06406 13.0075 3.05181C13.1616 3.03955 13.3149 3.08461 13.4378 3.17835C14.616 4.07578 15.4944 5.3093 15.9572 6.71618C16.4199 8.12305 16.4453 9.63717 16.0299 11.0588C15.6145 12.4803 14.7779 13.7426 13.6304 14.679C12.483 15.6153 11.0786 16.1818 9.60258 16.3037L10.2303 16.9306L10.2906 17.0009C10.3841 17.1283 10.426 17.2863 10.4082 17.4433C10.3903 17.6003 10.3139 17.7447 10.1941 17.8479C10.0744 17.951 9.92024 18.0052 9.76234 17.9996C9.60443 17.994 9.45443 17.9291 9.34227 17.8179L7.66822 16.1438L7.60712 16.0735C7.5178 15.9526 7.47484 15.8036 7.48605 15.6537C7.49727 15.5038 7.56191 15.3629 7.66822 15.2566L7.93021 14.9946C9.28583 15.2367 10.6835 15.0119 11.8948 14.3569C13.1062 13.7019 14.0595 12.6553 14.599 11.3884C15.1385 10.1214 15.2323 8.70885 14.8651 7.38163C14.4979 6.05442 13.6914 4.89183 12.5774 4.08234ZM10.0705 3.0143C8.73513 2.77588 7.35841 2.99046 6.15897 3.62397C4.95953 4.25747 4.00614 5.27358 3.45024 6.5109C2.89434 7.74822 2.76779 9.13581 3.09069 10.4533C3.4136 11.7707 4.16744 12.9425 5.23249 13.7826C5.32813 13.9044 5.37535 14.0573 5.36508 14.2118C5.35482 14.3664 5.28778 14.5116 5.17688 14.6198C5.06597 14.7279 4.91901 14.7911 4.76426 14.7975C4.60951 14.8038 4.45789 14.7526 4.33855 14.6539C3.21505 13.7268 2.39355 12.4856 1.97904 11.0892C1.56454 9.69273 1.57587 8.20439 2.01158 6.81441C2.44729 5.42444 3.28759 4.19596 4.42507 3.286C5.56256 2.37605 6.94555 1.82595 8.39727 1.70603L7.7695 1.0791C7.70957 1.02116 7.66178 0.951872 7.62892 0.875266C7.59605 0.798661 7.57878 0.716278 7.57809 0.632923C7.57741 0.549569 7.59333 0.466913 7.62493 0.389778C7.65653 0.312643 7.70318 0.242574 7.76215 0.183659C7.82112 0.124745 7.89123 0.0781642 7.9684 0.0466359C8.04556 0.0151077 8.12823 -0.000737031 8.21159 2.63258e-05C8.29494 0.000789683 8.37731 0.0181458 8.45388 0.051082C8.53045 0.0840183 8.5997 0.131875 8.65758 0.19186L10.3316 1.8659C10.4492 1.98361 10.5152 2.14317 10.5152 2.30952C10.5152 2.47588 10.4492 2.63544 10.3316 2.75315L10.0705 3.0143ZM6.88142 6.8872C6.93972 6.82886 7.00895 6.78258 7.08514 6.75101C7.16133 6.71944 7.24299 6.70318 7.32546 6.70318C7.40794 6.70318 7.4896 6.71944 7.56579 6.75101C7.64198 6.78258 7.71121 6.82886 7.7695 6.8872L8.99993 8.11762L10.2303 6.8872C10.2878 6.82552 10.3571 6.77605 10.4341 6.74174C10.5111 6.70743 10.5943 6.68898 10.6785 6.68749C10.7628 6.686 10.8466 6.70151 10.9247 6.73308C11.0029 6.76465 11.0739 6.81165 11.1335 6.87126C11.1931 6.93087 11.2401 7.00188 11.2717 7.08005C11.3033 7.15822 11.3188 7.24194 11.3173 7.32623C11.3158 7.41052 11.2974 7.49365 11.263 7.57066C11.2287 7.64766 11.1793 7.71697 11.1176 7.77444L9.88717 9.00486L11.1176 10.2353C11.1793 10.2928 11.2287 10.3621 11.263 10.4391C11.2974 10.5161 11.3158 10.5992 11.3173 10.6835C11.3188 10.7678 11.3033 10.8515 11.2717 10.9297C11.2401 11.0078 11.1931 11.0788 11.1335 11.1385C11.0739 11.1981 11.0029 11.2451 10.9247 11.2766C10.8466 11.3082 10.7628 11.3237 10.6785 11.3222C10.5943 11.3207 10.5111 11.3023 10.4341 11.268C10.3571 11.2337 10.2878 11.1842 10.2303 11.1225L8.99993 9.8921L7.7695 11.1225C7.71203 11.1842 7.64273 11.2337 7.56572 11.268C7.48872 11.3023 7.40559 11.3207 7.3213 11.3222C7.23701 11.3237 7.15328 11.3082 7.07511 11.2766C6.99695 11.2451 6.92594 11.1981 6.86633 11.1385C6.80671 11.0788 6.75972 11.0078 6.72815 10.9297C6.69657 10.8515 6.68107 10.7678 6.68255 10.6835C6.68404 10.5992 6.70249 10.5161 6.7368 10.4391C6.77111 10.3621 6.82058 10.2928 6.88226 10.2353L8.11268 9.00486L6.88226 7.77444C6.7647 7.65673 6.69867 7.49718 6.69867 7.33082C6.69867 7.16446 6.76386 7.0049 6.88142 6.8872ZM8.99993 14.027C10.3319 14.027 11.6093 13.4979 12.5511 12.556C13.493 11.6142 14.0221 10.3368 14.0221 9.00486C14.0221 7.67291 13.493 6.39551 12.5511 5.45368C11.6093 4.51185 10.3319 3.98273 8.99993 3.98273C7.66797 3.98273 6.39058 4.51185 5.44874 5.45368C4.50691 6.39551 3.9778 7.67291 3.9778 9.00486C3.9778 10.3368 4.50691 11.6142 5.44874 12.556C6.39058 13.4979 7.66797 14.027 8.99993 14.027ZM8.99993 12.7715C8.00096 12.7715 7.04291 12.3746 6.33654 11.6682C5.63017 10.9619 5.23333 10.0038 5.23333 9.00486C5.23333 8.0059 5.63017 7.04785 6.33654 6.34147C7.04291 5.6351 8.00096 5.23826 8.99993 5.23826C9.99889 5.23826 10.9569 5.6351 11.6633 6.34147C12.3697 7.04785 12.7666 8.0059 12.7666 9.00486C12.7666 10.0038 12.3697 10.9619 11.6633 11.6682C10.9569 12.3746 9.99889 12.7715 8.99993 12.7715Z" fill="#0078D4"/>
</g>
<defs>
<clipPath id="clip0_620_2564">
<rect width="16" height="18" fill="white" transform="translate(1)"/>
</clipPath>
</defs>
</svg>
