<svg width="18" height="18" viewBox="0 0 18 18" fill="none" xmlns="http://www.w3.org/2000/svg">
<g clip-path="url(#clip0_568_2298)">
<path d="M5.85 7.9875C5.85 7.65 5.7375 7.3125 5.7375 7.0875C5.64488 6.79699 5.60674 6.49187 5.625 6.1875C5.64441 5.61898 5.71977 5.05375 5.85 4.5C5.9803 3.97413 6.20936 3.47782 6.525 3.0375C6.75904 2.58084 7.06267 2.16336 7.425 1.8L8.6625 0.7875L10.125 0.225L11.8125 0L13.5 0.225C14.0259 0.355296 14.5222 0.584362 14.9625 0.9L16.2 1.8L17.2125 3.0375C17.4489 3.50478 17.6373 3.99478 17.775 4.5C17.9052 5.05375 17.9806 5.61898 18 6.1875C17.9806 6.75602 17.9052 7.32125 17.775 7.875C17.6373 8.38023 17.4489 8.87022 17.2125 9.3375L16.2 10.575L14.9625 11.5875L13.5 12.15L11.8125 12.375L10.35 12.15L9 11.7V13.5H6.75V15.75H4.5V18H0V13.8375L5.85 7.9875ZM1.125 16.875H3.375V14.625H5.625V12.375H7.875V10.125H8.6625C9.08427 10.4946 9.58428 10.7638 10.125 10.9125C10.6606 11.1325 11.2335 11.2471 11.8125 11.25C12.5138 11.264 13.2082 11.1097 13.8375 10.8C14.4248 10.5709 14.9603 10.2267 15.4125 9.7875C15.8517 9.3353 16.1959 8.79978 16.425 8.2125C16.7347 7.58317 16.889 6.88877 16.875 6.1875C16.8995 5.52116 16.744 4.86052 16.425 4.275C16.2233 3.64141 15.8766 3.06361 15.4125 2.5875C14.9603 2.14832 14.4248 1.80406 13.8375 1.575C13.2082 1.26529 12.5138 1.11098 11.8125 1.125C11.1462 1.10053 10.4855 1.25597 9.9 1.575C9.26642 1.77668 8.68861 2.12336 8.2125 2.5875C7.77332 3.0397 7.42906 3.57522 7.2 4.1625C6.89029 4.79183 6.73598 5.48623 6.75 6.1875C6.73232 6.52887 6.77031 6.87084 6.8625 7.2L7.2 8.2125L1.125 14.2875V16.875ZM13.95 3.4875L14.2875 3.7125C14.4 3.825 14.5125 3.9375 14.5125 4.05C14.602 4.182 14.6418 4.34142 14.625 4.5C14.6418 4.65858 14.602 4.818 14.5125 4.95L14.2875 5.2875L13.95 5.5125H13.05L12.7125 5.2875L12.4875 4.95C12.398 4.818 12.3582 4.65858 12.375 4.5C12.3582 4.34142 12.398 4.182 12.4875 4.05C12.4875 3.9375 12.6 3.825 12.7125 3.7125L13.05 3.4875H13.95Z" fill="#0078D4"/>
</g>
<defs>
<clipPath id="clip0_568_2298">
<rect width="18" height="18" fill="white"/>
</clipPath>
</defs>
</svg>
