<svg width="18" height="18" viewBox="0 0 18 18" fill="none" xmlns="http://www.w3.org/2000/svg">
<path d="M2.6 0C1.71634 0 1 0.711077 1 1.58824V15.3529C1 16.2301 1.71634 16.9412 2.6 16.9412H7.6743C7.40377 16.616 7.16812 16.2612 6.97302 15.8824H2.6C2.30545 15.8824 2.06667 15.6453 2.06667 15.3529V1.58824C2.06667 1.29585 2.30545 1.05882 2.6 1.05882H10.0667C10.3612 1.05882 10.6 1.29585 10.6 1.58824V7.63097C10.9438 7.53446 11.3004 7.46827 11.6667 7.4355V1.58824C11.6667 0.711077 10.9503 0 10.0667 0H2.6ZM6.33333 13.2353C6.33333 13.4137 6.34142 13.5903 6.35725 13.7647H4.73333C4.43878 13.7647 4.2 13.5276 4.2 13.2353C4.2 12.943 4.43878 12.7059 4.73333 12.7059H6.35725C6.34142 12.8803 6.33333 13.0569 6.33333 13.2353ZM17 13.2353C17 15.8668 14.851 18 12.2 18C9.54904 18 7.4 15.8668 7.4 13.2353C7.4 10.6038 9.54904 8.47059 12.2 8.47059C14.851 8.47059 17 10.6038 17 13.2353ZM12.2 10.5882C11.9055 10.5882 11.6667 10.8253 11.6667 11.1176V13.2353C11.6667 13.5276 11.9055 13.7647 12.2 13.7647H13.8C14.0945 13.7647 14.3333 13.5276 14.3333 13.2353C14.3333 12.943 14.0945 12.7059 13.8 12.7059H12.7333V11.1176C12.7333 10.8253 12.4945 10.5882 12.2 10.5882Z" fill="#0078D4"/>
</svg>
