<svg width="18" height="18" viewBox="0 0 18 18" fill="none" xmlns="http://www.w3.org/2000/svg">
<g clip-path="url(#clip0_592_1519)">
<path d="M5.62503 4.50011V1.91261C4.94381 2.19234 4.33014 2.61424 3.82503 3.15011C3.22295 3.60208 2.72433 4.17741 2.36253 4.83761C1.95102 5.41643 1.64624 6.0641 1.46253 6.75011C1.24013 7.47947 1.12641 8.23761 1.12503 9.00011C1.12745 9.72569 1.24128 10.4466 1.46253 11.1376C1.60768 11.7824 1.87499 12.3934 2.25003 12.9376C2.56288 13.5338 2.98231 14.0676 3.48753 14.5126C3.93255 15.0178 4.46636 15.4373 5.06253 15.7501L6.86253 16.6501L9.00003 16.8751V18.0001C7.8045 18.0061 6.61949 17.7767 5.51253 17.3251C4.43405 16.862 3.44431 16.2148 2.58753 15.4126C1.78531 14.5558 1.13817 13.5661 0.675027 12.4876C0.22343 11.3806 -0.00592692 10.1956 2.74567e-05 9.00011C-0.0149311 8.04356 0.137359 7.09175 0.450027 6.18761C0.725403 5.30089 1.14338 4.46495 1.68753 3.71261C2.23764 2.99334 2.88075 2.35023 3.60003 1.80011L4.16253 1.46261L4.61253 1.12511H2.25003V0.00011303H6.75003V4.50011H5.62503ZM12.375 13.5001V16.0876C13.0562 15.8079 13.6699 15.386 14.175 14.8501C14.7771 14.3981 15.2757 13.8228 15.6375 13.1626C16.049 12.5838 16.3538 11.9361 16.5375 11.2501C16.7599 10.5208 16.8736 9.76262 16.875 9.00011C16.8726 8.27454 16.7588 7.55364 16.5375 6.86261C16.3924 6.21783 16.1251 5.60682 15.75 5.06261C15.4372 4.46645 15.0177 3.93264 14.5125 3.48761C14.0675 2.98239 13.5337 2.56297 12.9375 2.25011C12.3731 1.88376 11.7693 1.58188 11.1375 1.35011L9.00003 1.12511V0.00011303C10.1956 -0.00584135 11.3806 0.223516 12.4875 0.675113C13.566 1.13826 14.5557 1.78539 15.4125 2.58761C16.2147 3.44439 16.8619 4.43413 17.325 5.51261C17.7766 6.61958 18.006 7.80459 18 9.00011C18.015 9.95667 17.8627 10.9085 17.55 11.8126C17.2747 12.6993 16.8567 13.5353 16.3125 14.2876C15.7624 15.0069 15.1193 15.65 14.4 16.2001L13.8375 16.5376L13.3875 16.8751H15.75V18.0001H11.25V13.5001H12.375Z" fill="#0078D4"/>
</g>
<defs>
<clipPath id="clip0_592_1519">
<rect width="18" height="18" fill="white"/>
</clipPath>
</defs>
</svg>
