<svg width="16" height="18" viewBox="0 0 16 18" fill="none" xmlns="http://www.w3.org/2000/svg">
<g clip-path="url(#clip0_882_8965)">
<path d="M1.6 0C0.716345 0 0 0.711077 0 1.58824V15.3529C0 16.2301 0.716345 16.9412 1.6 16.9412H6.6743C6.40377 16.616 6.16812 16.2612 5.97302 15.8824H1.6C1.30545 15.8824 1.06667 15.6453 1.06667 15.3529V1.58824C1.06667 1.29585 1.30545 1.05882 1.6 1.05882H9.06667C9.36122 1.05882 9.6 1.29585 9.6 1.58824V7.63097C9.94377 7.53446 10.3004 7.46827 10.6667 7.4355V1.58824C10.6667 0.711077 9.95033 0 9.06667 0H1.6ZM5.33333 13.2353C5.33333 13.0569 5.34142 12.8803 5.35725 12.7059H3.73333C3.43878 12.7059 3.2 12.943 3.2 13.2353C3.2 13.5276 3.43878 13.7647 3.73333 13.7647H5.35725C5.34142 13.5903 5.33333 13.4137 5.33333 13.2353ZM16 13.2353C16 15.8668 13.851 18 11.2 18C8.54904 18 6.4 15.8668 6.4 13.2353C6.4 10.6038 8.54904 8.47059 11.2 8.47059C13.851 8.47059 16 10.6038 16 13.2353ZM13.1772 12.0215C13.3854 11.8147 13.3854 11.4794 13.1772 11.2727C12.9689 11.066 12.6311 11.066 12.4228 11.2727L11.2 12.4866L9.97712 11.2727C9.76884 11.066 9.43116 11.066 9.22288 11.2727C9.01459 11.4794 9.01459 11.8147 9.22288 12.0215L10.4457 13.2353L9.22288 14.4491C9.01459 14.6559 9.01459 14.9911 9.22288 15.1979C9.43116 15.4046 9.76884 15.4046 9.97712 15.1979L11.2 13.984L12.4228 15.1979C12.6311 15.4046 12.9689 15.4046 13.1772 15.1979C13.3854 14.9911 13.3854 14.6559 13.1772 14.4491L11.9542 13.2353L13.1772 12.0215Z" fill="#0078D4"/>
</g>
<defs>
<clipPath id="clip0_882_8965">
<rect width="16" height="18" fill="white"/>
</clipPath>
</defs>
</svg>
