<svg width="18" height="18" viewBox="0 0 18 18" fill="none" xmlns="http://www.w3.org/2000/svg">
<path d="M7.83333 5.66038H2V0H3.16667V3.73585L4.1 2.71698L5.03333 1.92453L5.96667 1.13208L7.01667 0.566038C7.35922 0.33689 7.76736 0.218077 8.18333 0.226415L9.58333 0L11.2167 0.226415L12.85 0.90566L14.1333 1.81132C14.5105 2.218 14.8248 2.67559 15.0667 3.16981C15.3688 3.62671 15.6044 4.12197 15.7667 4.64151C15.9096 5.15882 15.988 5.69095 16 6.22642C15.9576 7.0359 15.8006 7.83586 15.5333 8.60377C15.1745 9.31308 14.7019 9.96266 14.1333 10.5283L6.55 18L5.61667 17.0943L13.3167 9.73585C13.7721 9.2808 14.1291 8.74192 14.3667 8.15094C14.6873 7.558 14.8479 6.89588 14.8333 6.22642C14.8587 5.55588 14.6975 4.89109 14.3667 4.30189C14.1588 3.66787 13.7507 3.11338 13.2 2.71698C12.7915 2.18264 12.2201 1.78658 11.5667 1.58491C10.9595 1.26387 10.2744 1.10745 9.58333 1.13208C8.98064 1.11072 8.3812 1.22705 7.83333 1.4717L6.43333 2.26415L5.26667 3.28302L3.98333 4.5283H7.83333V5.66038Z" fill="#0078D4"/>
</svg>
