<svg width="18" height="18" viewBox="0 0 18 18" fill="none" xmlns="http://www.w3.org/2000/svg">
<path d="M15.75 15.75H2.25C1.65326 15.75 1.08097 15.5129 0.65901 15.091C0.237053 14.669 0 14.0967 0 13.5L0 4.5C0 3.90326 0.237053 3.33097 0.65901 2.90901C1.08097 2.48705 1.65326 2.25 2.25 2.25H15.75C16.3467 2.25 16.919 2.48705 17.341 2.90901C17.7629 3.33097 18 3.90326 18 4.5V13.5C18 14.0967 17.7629 14.669 17.341 15.091C16.919 15.5129 16.3467 15.75 15.75 15.75Z" fill="#1D1D1D"/>
<path d="M2.25 4.5H15.75V13.5H2.25V4.5Z" fill="#B7D333"/>
<path d="M15.75 13.5H2.25V11.25L15.75 6.75V13.5Z" fill="#7FBA42"/>
<path opacity="0.4" d="M14.625 5.625V12.375H3.375V5.625H14.625ZM15.75 4.5H2.25V13.5H15.75V4.5Z" fill="white"/>
<path d="M6.75 13.5H11.25V14.625H6.75V13.5Z" fill="#9E9FA0"/>
</svg>
