<svg width="18" height="18" viewBox="0 0 18 18" fill="none" xmlns="http://www.w3.org/2000/svg">
<g clip-path="url(#clip0_568_2126)">
<mask id="mask0_568_2126" style="mask-type:luminance" maskUnits="userSpaceOnUse" x="0" y="0" width="18" height="18">
<path d="M0 0H18V18H0V0Z" fill="white"/>
</mask>
<g mask="url(#mask0_568_2126)">
<mask id="mask1_568_2126" style="mask-type:luminance" maskUnits="userSpaceOnUse" x="0" y="0" width="18" height="18">
<path d="M0 0H18V18H0V0Z" fill="white"/>
</mask>
<g mask="url(#mask1_568_2126)">
<path d="M17.3576 15.1076H0.64125L0 14.4641V2.89238L0.642375 2.25H17.3587L18.0011 2.89238V14.4641L17.3587 15.1076H17.3576ZM1.28587 13.8218H16.7141V3.53587H1.28587V13.8218Z" fill="#212121"/>
<path d="M16.7163 3.53589H1.28809V13.8218H16.7163V3.53589Z" fill="#FEF7B2"/>
<path d="M16.7163 13.8218H1.28809V11.25L16.7163 6.10767V13.8218Z" fill="#FDE300"/>
<path opacity="0.4" d="M15.4305 4.82176V12.5359H2.57284V4.82176H15.4305ZM16.7163 3.53589H1.28809V13.8218H16.7163V3.53589Z" fill="white"/>
<path d="M11.5716 13.8218H6.4292V15.1077H11.5716V13.8218Z" fill="#9E9FA0"/>
</g>
</g>
</g>
<defs>
<clipPath id="clip0_568_2126">
<rect width="18" height="18" fill="white"/>
</clipPath>
</defs>
</svg>
