<svg width="18" height="18" viewBox="0 0 18 18" fill="none" xmlns="http://www.w3.org/2000/svg">
<g clip-path="url(#clip0_568_2112)">
<path opacity="0.9" d="M17.399 0.681885H0.601C0.269077 0.681885 0 0.950962 0 1.28288V12.0809C0 12.4128 0.269077 12.6819 0.601 12.6819H17.399C17.7309 12.6819 18 12.4128 18 12.0809V1.28288C18 0.950962 17.7309 0.681885 17.399 0.681885Z" fill="url(#paint0_linear_568_2112)"/>
<path d="M17.194 1.48888V11.8759H0.806V1.48888H17.194ZM17.4 0.681885H0.6C0.44087 0.681885 0.288258 0.745099 0.175736 0.857621C0.0632141 0.970143 0 1.12275 0 1.28188L0 12.0819C0 12.241 0.0632141 12.3936 0.175736 12.5061C0.288258 12.6187 0.44087 12.6819 0.6 12.6819H17.4C17.4788 12.6819 17.5568 12.6664 17.6296 12.6362C17.7024 12.6061 17.7685 12.5619 17.8243 12.5061C17.88 12.4504 17.9242 12.3843 17.9543 12.3115C17.9845 12.2387 18 12.1607 18 12.0819V1.28288C18 1.20409 17.9845 1.12607 17.9543 1.05327C17.9242 0.980479 17.88 0.914336 17.8243 0.858621C17.7685 0.802906 17.7024 0.75871 17.6296 0.728557C17.5568 0.698404 17.4788 0.682885 17.4 0.682885V0.681885Z" fill="#0078D4"/>
<path d="M12.607 16.3119C10.827 16.0339 10.757 14.7499 10.763 12.6819H7.232C7.232 14.7499 7.167 16.0339 5.388 16.3119C5.14569 16.3492 4.92413 16.4703 4.76188 16.6541C4.59964 16.8379 4.50697 17.0728 4.5 17.3179H13.5C13.4919 17.0724 13.3982 16.8374 13.2351 16.6537C13.072 16.47 12.8498 16.3491 12.607 16.3119Z" fill="url(#paint1_linear_568_2112)"/>
<path d="M0 9.87988H18V12.3259C18 12.4203 17.9625 12.5108 17.8957 12.5776C17.829 12.6444 17.7384 12.6819 17.644 12.6819H0.607C0.446014 12.6819 0.291621 12.6179 0.177786 12.5041C0.0639516 12.3903 0 12.2359 0 12.0749L0 9.87988Z" fill="url(#paint2_linear_568_2112)"/>
<path d="M8.99993 12.0279C9.41249 12.0279 9.74693 11.6935 9.74693 11.2809C9.74693 10.8684 9.41249 10.5339 8.99993 10.5339C8.58737 10.5339 8.25293 10.8684 8.25293 11.2809C8.25293 11.6935 8.58737 12.0279 8.99993 12.0279Z" fill="#C3F1FF"/>
</g>
<defs>
<linearGradient id="paint0_linear_568_2112" x1="9" y1="12.6819" x2="9" y2="0.681885" gradientUnits="userSpaceOnUse">
<stop offset="0.145" stop-color="#D2EBFF"/>
<stop offset="0.503" stop-color="#DBF1FE"/>
<stop offset="0.997" stop-color="#F0FFFD"/>
</linearGradient>
<linearGradient id="paint1_linear_568_2112" x1="9" y1="17.3179" x2="9" y2="12.6819" gradientUnits="userSpaceOnUse">
<stop offset="0.157" stop-color="#0078D4"/>
<stop offset="0.356" stop-color="#0072CA"/>
<stop offset="0.689" stop-color="#0064B0"/>
<stop offset="0.851" stop-color="#005BA1"/>
</linearGradient>
<linearGradient id="paint2_linear_568_2112" x1="9" y1="12.6819" x2="9" y2="9.87988" gradientUnits="userSpaceOnUse">
<stop stop-color="#0078D4"/>
<stop offset="0.127" stop-color="#107FD8"/>
<stop offset="0.516" stop-color="#3A91E5"/>
<stop offset="0.82" stop-color="#549CEC"/>
<stop offset="1" stop-color="#5EA0EF"/>
</linearGradient>
<clipPath id="clip0_568_2112">
<rect width="18" height="18" fill="white"/>
</clipPath>
</defs>
</svg>
