<svg width="18" height="18" viewBox="0 0 18 18" fill="none" xmlns="http://www.w3.org/2000/svg">
<path d="M17.28 15.375H0.72C0.322875 15.375 0 15.0521 0 14.655V3.72C0 3.32288 0.322875 3 0.72 3H17.28C17.6771 3 18 3.32288 18 3.72V14.655C18 15.0521 17.6771 15.375 17.28 15.375Z" fill="#3E3E3E"/>
<path d="M15.75 4.125H2.25V14.25H15.75V4.125Z" fill="#2072B8"/>
<path opacity="0.4" d="M14.625 5.25V13.125H3.375V5.25H14.625ZM15.75 4.125H2.25V14.25H15.75V4.125Z" fill="white"/>
<path opacity="0.2" d="M5.25037 15.375H0.72C0.322875 15.375 0 15.0521 0 14.655V3.72C0 3.32288 0.322875 3 0.72 3H12.7496L5.25037 15.375Z" fill="white"/>
</svg>
