<svg xmlns="http://www.w3.org/2000/svg" viewBox="0 0 507.37 379.62">
  <title>prepae-win32-app</title>
  <g id="Shapes">
    <rect width="507.37" height="379.62" fill="#fff"/>
    <rect x="64.06" y="196.95" width="20" height="20" transform="translate(168.03 8.25) rotate(45)" fill="#0072c6"/>
    <g>
      <path d="M89.06,27c0,3.85-3.6,7-8,7h-14c-4.4,0-8-3.15-8-7s3.6-7,8-7h14C85.46,20,89.06,23.15,89.06,27Z" fill="#fff"/>
      <path d="M81.06,35h-14c-5,0-9-3.59-9-8s4-8,9-8h14c5,0,9,3.59,9,8S86,35,81.06,35Zm-14-14c-3.86,0-7,2.69-7,6s3.14,6,7,6h14c3.86,0,7-2.69,7-6s-3.14-6-7-6Z" fill="#0072c6"/>
    </g>
    <g>
      <line x1="74.06" y1="221.77" x2="74.06" y2="239.62" fill="none" stroke="#000" stroke-miterlimit="10"/>
      <polygon points="70.32 238.52 74.06 245 77.8 238.52 70.32 238.52"/>
    </g>
    <rect x="6.56" y="55" width="135.31" height="20" fill="#50e6ff" opacity="0.5"/>
    <g>
      <line x1="74.06" y1="170" x2="74.06" y2="187.42" fill="none" stroke="#000" stroke-miterlimit="10"/>
      <polygon points="70.32 186.33 74.06 192.81 77.8 186.33 70.32 186.33"/>
    </g>
    <g>
      <line x1="74.06" y1="130" x2="74.06" y2="144.62" fill="none" stroke="#000" stroke-miterlimit="10"/>
      <polygon points="70.32 143.52 74.06 150 77.8 143.52 70.32 143.52"/>
    </g>
    <g>
      <line x1="74.06" y1="75" x2="74.06" y2="89.62" fill="none" stroke="#000" stroke-miterlimit="10"/>
      <polygon points="70.32 88.52 74.06 95 77.8 88.52 70.32 88.52"/>
    </g>
    <g>
      <line x1="74.06" y1="35" x2="74.06" y2="49.62" fill="none" stroke="#000" stroke-miterlimit="10"/>
      <polygon points="70.32 48.52 74.06 55 77.8 48.52 70.32 48.52"/>
    </g>
    <g>
      <line x1="74.06" y1="320" x2="74.06" y2="336.31" fill="none" stroke="#000" stroke-miterlimit="10"/>
      <polygon points="70.32 335.22 74.06 341.69 77.8 335.22 70.32 335.22"/>
    </g>
    <rect x="6.56" y="150" width="135.31" height="20" fill="#50e6ff" opacity="0.5"/>
    <rect x="6.56" y="95" width="135.31" height="35" fill="#50e6ff" opacity="0.5"/>
    <rect x="136.87" y="190" width="135" height="35" fill="#50e6ff" opacity="0.5"/>
    <g opacity="0.5">
      <rect x="371.87" y="189.76" width="135.5" height="35" rx="10" fill="#75757a"/>
    </g>
    <rect x="6.56" y="245" width="135.31" height="75" fill="#50e6ff" opacity="0.5"/>
    <g>
      <line x1="89.29" y1="207.32" x2="131.49" y2="207.32" fill="none" stroke="#000" stroke-miterlimit="10"/>
      <polygon points="130.4 211.06 136.87 207.32 130.4 203.59 130.4 211.06"/>
    </g>
    <g>
      <line x1="271.87" y1="207.32" x2="287.49" y2="207.32" fill="none" stroke="#000" stroke-miterlimit="10"/>
      <polygon points="286.39 211.06 292.87 207.32 286.39 203.59 286.39 211.06"/>
    </g>
    <rect x="99.65" y="205.73" width="20.57" height="3.49" fill="#fff"/>
    <g>
      <line x1="322.62" y1="207.32" x2="366.49" y2="207.32" fill="none" stroke="#000" stroke-miterlimit="10"/>
      <polygon points="365.39 211.06 371.87 207.32 365.39 203.59 365.39 211.06"/>
    </g>
    <rect x="334.17" y="205.73" width="20.57" height="3.49" fill="#fff"/>
    <rect x="297.86" y="197.26" width="20" height="20" transform="translate(236.73 -156.99) rotate(45)" fill="#0072c6"/>
    <g>
      <g>
        <path d="M89.06,351c0,3.85-3.6,7-8,7h-14c-4.4,0-8-3.15-8-7s3.6-7,8-7h14C85.46,344,89.06,347.15,89.06,351Z" fill="#fff"/>
        <path d="M81.06,359h-14c-5,0-9-3.59-9-8s4-8,9-8h14c5,0,9,3.59,9,8S86,359,81.06,359Zm-14-14c-3.86,0-7,2.69-7,6s3.14,6,7,6h14c3.86,0,7-2.69,7-6s-3.14-6-7-6Z" fill="#0072c6"/>
      </g>
      <rect x="58.48" y="343.5" width="30.58" height="15" rx="7.5" fill="#0072c6"/>
    </g>
    <g>
      <path d="M307.86,191.69V165a5,5,0,0,0-5-5H147.44" fill="none" stroke="#000" stroke-miterlimit="10"/>
      <polygon points="148.54 156.26 142.06 160 148.54 163.74 148.54 156.26"/>
    </g>
    <rect x="304.74" y="166.72" width="6.41" height="14.12" fill="#fff"/>
  </g>
  <g id="Text">
    <g>
      <path d="M26.06,203.78h-1v-8.4h1Z" fill="#1e1e1e"/>
      <path d="M27.78,203.57v-1a2.82,2.82,0,0,0,1.73.58q1.26,0,1.26-.84a.68.68,0,0,0-.11-.41,1,1,0,0,0-.29-.29,1.76,1.76,0,0,0-.43-.23l-.54-.22a5.79,5.79,0,0,1-.7-.32,2,2,0,0,1-.5-.36,1.38,1.38,0,0,1-.31-.46,1.57,1.57,0,0,1-.1-.6,1.42,1.42,0,0,1,.19-.75,1.7,1.7,0,0,1,.52-.55,2.71,2.71,0,0,1,.73-.33,3.49,3.49,0,0,1,.86-.11,3.41,3.41,0,0,1,1.39.27v1a2.7,2.7,0,0,0-1.52-.43,1.88,1.88,0,0,0-.49.06,1.26,1.26,0,0,0-.37.17,1,1,0,0,0-.24.27.67.67,0,0,0-.09.34.82.82,0,0,0,.09.4.94.94,0,0,0,.25.28,2.11,2.11,0,0,0,.4.22l.53.22a7.07,7.07,0,0,1,.72.31,2.45,2.45,0,0,1,.53.36,1.45,1.45,0,0,1,.35.47,1.64,1.64,0,0,1-.08,1.4,1.7,1.7,0,0,1-.52.55,2.49,2.49,0,0,1-.76.32,3.71,3.71,0,0,1-.9.1A3.49,3.49,0,0,1,27.78,203.57Z" fill="#1e1e1e"/>
      <path d="M37.48,203.78h-1V194.9h1Z" fill="#1e1e1e"/>
      <path d="M44.25,201H40a2.28,2.28,0,0,0,.54,1.55,1.88,1.88,0,0,0,1.42.54,2.94,2.94,0,0,0,1.86-.66v.9a3.47,3.47,0,0,1-2.09.57,2.56,2.56,0,0,1-2-.81,3.39,3.39,0,0,1-.72-2.3,3.29,3.29,0,0,1,.79-2.29,2.58,2.58,0,0,1,2-.88,2.25,2.25,0,0,1,1.82.76,3.2,3.2,0,0,1,.65,2.12Zm-1-.81a1.91,1.91,0,0,0-.4-1.3,1.36,1.36,0,0,0-1.1-.46,1.54,1.54,0,0,0-1.15.49,2.19,2.19,0,0,0-.59,1.27Z" fill="#1e1e1e"/>
      <path d="M45.34,203.57v-1a2.82,2.82,0,0,0,1.73.58q1.26,0,1.26-.84a.68.68,0,0,0-.11-.41.89.89,0,0,0-.29-.29,1.76,1.76,0,0,0-.43-.23l-.54-.22a5.79,5.79,0,0,1-.7-.32,2,2,0,0,1-.5-.36,1.38,1.38,0,0,1-.31-.46,1.79,1.79,0,0,1-.1-.6,1.52,1.52,0,0,1,.19-.75,1.82,1.82,0,0,1,.52-.55,2.64,2.64,0,0,1,.74-.33,3.35,3.35,0,0,1,.85-.11,3.41,3.41,0,0,1,1.39.27v1a2.7,2.7,0,0,0-1.52-.43,1.88,1.88,0,0,0-.49.06,1.26,1.26,0,0,0-.37.17,1,1,0,0,0-.24.27.66.66,0,0,0-.08.34.82.82,0,0,0,.08.4.94.94,0,0,0,.25.28,2.11,2.11,0,0,0,.4.22l.53.22a7.07,7.07,0,0,1,.72.31,2.45,2.45,0,0,1,.53.36,1.45,1.45,0,0,1,.35.47,1.64,1.64,0,0,1-.08,1.4,1.7,1.7,0,0,1-.52.55,2.49,2.49,0,0,1-.76.32,3.71,3.71,0,0,1-.9.1A3.49,3.49,0,0,1,45.34,203.57Z" fill="#1e1e1e"/>
      <path d="M50.43,203.57v-1a2.82,2.82,0,0,0,1.73.58c.84,0,1.27-.28,1.27-.84a.76.76,0,0,0-.11-.41,1,1,0,0,0-.3-.29,1.59,1.59,0,0,0-.43-.23l-.54-.22a6.6,6.6,0,0,1-.7-.32,2,2,0,0,1-.5-.36,1.35,1.35,0,0,1-.3-.46,1.57,1.57,0,0,1-.11-.6,1.42,1.42,0,0,1,.2-.75,1.67,1.67,0,0,1,.51-.55,2.77,2.77,0,0,1,.74-.33,3.56,3.56,0,0,1,2.24.16v1a2.7,2.7,0,0,0-1.52-.43,1.88,1.88,0,0,0-.49.06,1.4,1.4,0,0,0-.37.17,1,1,0,0,0-.24.27.77.77,0,0,0-.08.34,1,1,0,0,0,.08.4.94.94,0,0,0,.25.28,2.11,2.11,0,0,0,.4.22l.53.22a6.21,6.21,0,0,1,.72.31,2.82,2.82,0,0,1,.54.36,1.41,1.41,0,0,1,.34.47,1.64,1.64,0,0,1-.08,1.4,1.7,1.7,0,0,1-.52.55,2.49,2.49,0,0,1-.76.32,3.68,3.68,0,0,1-.89.1A3.51,3.51,0,0,1,50.43,203.57Z" fill="#1e1e1e"/>
      <path d="M9.7,216.92a1.76,1.76,0,0,1-.89.19c-1.05,0-1.58-.58-1.58-1.76V211.8h-1V211h1v-1.46l1-.31V211H9.7v.82H8.19v3.38a1.35,1.35,0,0,0,.21.86.78.78,0,0,0,.68.26.94.94,0,0,0,.62-.2Z" fill="#1e1e1e"/>
      <path d="M16,217H15v-3.45c0-1.25-.47-1.88-1.4-1.88a1.51,1.51,0,0,0-1.18.54,2,2,0,0,0-.48,1.39V217H11V208.1h1V212h0a2.18,2.18,0,0,1,2-1.14c1.35,0,2,.82,2,2.45Z" fill="#1e1e1e"/>
      <path d="M22.6,214.22H18.36a2.28,2.28,0,0,0,.54,1.55,1.88,1.88,0,0,0,1.42.54,2.94,2.94,0,0,0,1.86-.66v.9a3.47,3.47,0,0,1-2.09.57,2.56,2.56,0,0,1-2-.81,3.39,3.39,0,0,1-.72-2.3,3.29,3.29,0,0,1,.79-2.29,2.58,2.58,0,0,1,2-.88,2.27,2.27,0,0,1,1.82.76,3.2,3.2,0,0,1,.65,2.12Zm-1-.81a1.91,1.91,0,0,0-.4-1.3,1.36,1.36,0,0,0-1.1-.46,1.54,1.54,0,0,0-1.15.49,2.19,2.19,0,0,0-.59,1.27Z" fill="#1e1e1e"/>
      <path d="M29,217h-1v-3.42c0-1.27-.46-1.91-1.39-1.91a1.54,1.54,0,0,0-1.2.54,2,2,0,0,0-.47,1.37V217h-1v-6h1v1h0a2.16,2.16,0,0,1,2-1.14,1.82,1.82,0,0,1,1.5.64,2.79,2.79,0,0,1,.52,1.83Z" fill="#1e1e1e"/>
      <path d="M33.68,214.64a2.24,2.24,0,0,1,.11-.67,2.29,2.29,0,0,1,.3-.63,2.5,2.5,0,0,1,.49-.54,2.37,2.37,0,0,1,.66-.38,2.44,2.44,0,0,1-.87-.78,1.89,1.89,0,0,1-.32-1.06,2,2,0,0,1,.18-.85,2.08,2.08,0,0,1,.49-.68,2.34,2.34,0,0,1,.75-.45,2.84,2.84,0,0,1,1.88,0,2.34,2.34,0,0,1,.75.45,2,2,0,0,1,.67,1.53,1.89,1.89,0,0,1-.32,1.06,2.49,2.49,0,0,1-.86.78,2.32,2.32,0,0,1,.65.38,2.5,2.5,0,0,1,.49.54,2.29,2.29,0,0,1,.3.63,2.22,2.22,0,0,1,.1.67,2.4,2.4,0,0,1-.2,1,2.26,2.26,0,0,1-.55.78,2.67,2.67,0,0,1-.87.51,3.21,3.21,0,0,1-1.1.18,3.25,3.25,0,0,1-1.1-.18,2.72,2.72,0,0,1-.86-.51,2.29,2.29,0,0,1-.56-.78A2.4,2.4,0,0,1,33.68,214.64Zm1-.08a2,2,0,0,0,.12.71,1.38,1.38,0,0,0,.34.53,1.4,1.4,0,0,0,.53.35,1.94,1.94,0,0,0,.7.12,1.72,1.72,0,0,0,.68-.13,1.55,1.55,0,0,0,.53-.34,1.53,1.53,0,0,0,.35-.54,1.78,1.78,0,0,0,.13-.7,1.76,1.76,0,0,0-.12-.66,1.66,1.66,0,0,0-.34-.54,1.58,1.58,0,0,0-.54-.37,1.7,1.7,0,0,0-.69-.14,1.68,1.68,0,0,0-.68.13,1.58,1.58,0,0,0-.53.35,1.53,1.53,0,0,0-.35.54A1.73,1.73,0,0,0,34.73,214.56Zm.3-3.9a1.26,1.26,0,0,0,.11.55,1.51,1.51,0,0,0,.29.45,1.37,1.37,0,0,0,.45.3,1.33,1.33,0,0,0,.54.11A1.41,1.41,0,0,0,37,212a1.52,1.52,0,0,0,.44-.31,1.55,1.55,0,0,0,.3-.44,1.42,1.42,0,0,0,.11-.55,1.47,1.47,0,0,0-.11-.56,1.27,1.27,0,0,0-.74-.74,1.24,1.24,0,0,0-.54-.11,1.48,1.48,0,0,0-.57.11,1.23,1.23,0,0,0-.44.3,1.31,1.31,0,0,0-.28.45A1.42,1.42,0,0,0,35,210.66Z" fill="#1e1e1e"/>
      <path d="M47,216.41a5.67,5.67,0,0,1-2.81.71A3.82,3.82,0,0,1,41.29,216a4.24,4.24,0,0,1-1.11-3.07,4.37,4.37,0,0,1,1.23-3.2,4.21,4.21,0,0,1,3.13-1.25,5.42,5.42,0,0,1,2.3.44V210a4.43,4.43,0,0,0-2.41-.64,3,3,0,0,0-2.32,1,4.07,4.07,0,0,0-.06,5,2.94,2.94,0,0,0,2.27.91,3.5,3.5,0,0,0,1.7-.39v-2.36H44.18v-.89H47Z" fill="#1e1e1e"/>
      <path d="M49.82,216.12h0V217h-1V208.1h1V212h0a2.26,2.26,0,0,1,2.07-1.2,2.2,2.2,0,0,1,1.81.81,3.33,3.33,0,0,1,.65,2.16,3.72,3.72,0,0,1-.73,2.41,2.46,2.46,0,0,1-2,.9A2,2,0,0,1,49.82,216.12Zm0-2.42v.83a1.77,1.77,0,0,0,.49,1.27,1.73,1.73,0,0,0,2.59-.15,3.09,3.09,0,0,0,.5-1.86,2.41,2.41,0,0,0-.47-1.57,1.51,1.51,0,0,0-1.25-.57,1.7,1.7,0,0,0-1.35.58A2.16,2.16,0,0,0,49.79,213.7Z" fill="#1e1e1e"/>
    </g>
    <g>
      <path d="M290,234.85H285.6v-8.4h1V234H290Z" fill="#1e1e1e"/>
      <path d="M296,232.09h-4.24a2.28,2.28,0,0,0,.54,1.55,1.87,1.87,0,0,0,1.42.55,3,3,0,0,0,1.86-.67v.9a3.5,3.5,0,0,1-2.09.57,2.56,2.56,0,0,1-2-.81,3.39,3.39,0,0,1-.73-2.3,3.29,3.29,0,0,1,.8-2.29,2.56,2.56,0,0,1,2-.88,2.28,2.28,0,0,1,1.82.76,3.2,3.2,0,0,1,.65,2.12Zm-1-.81a2,2,0,0,0-.4-1.3,1.39,1.39,0,0,0-1.1-.46,1.52,1.52,0,0,0-1.15.49,2.22,2.22,0,0,0-.59,1.27Z" fill="#1e1e1e"/>
      <path d="M297,234.64v-1a2.82,2.82,0,0,0,1.72.59c.85,0,1.27-.29,1.27-.85a.78.78,0,0,0-.11-.41,1,1,0,0,0-.29-.29,2.18,2.18,0,0,0-.43-.23l-.54-.22a5.16,5.16,0,0,1-.7-.32,1.74,1.74,0,0,1-.5-.36,1.29,1.29,0,0,1-.31-.46,1.57,1.57,0,0,1-.1-.6,1.44,1.44,0,0,1,.19-.75,1.7,1.7,0,0,1,.52-.55,2.71,2.71,0,0,1,.73-.33,3.49,3.49,0,0,1,.86-.11,3.45,3.45,0,0,1,1.39.27v1a2.78,2.78,0,0,0-1.52-.43,1.83,1.83,0,0,0-.49.06,1.06,1.06,0,0,0-.37.18.66.66,0,0,0-.24.26.69.69,0,0,0-.09.34.78.78,0,0,0,.34.68,2.36,2.36,0,0,0,.39.22l.54.22a6.85,6.85,0,0,1,.71.31,2.82,2.82,0,0,1,.54.36,1.41,1.41,0,0,1,.34.47,1.54,1.54,0,0,1,.12.63,1.49,1.49,0,0,1-.19.77,1.74,1.74,0,0,1-.53.55,2.43,2.43,0,0,1-.75.32,3.82,3.82,0,0,1-.9.1A3.47,3.47,0,0,1,297,234.64Z" fill="#1e1e1e"/>
      <path d="M302.13,234.64v-1a2.83,2.83,0,0,0,1.73.59c.84,0,1.26-.29,1.26-.85a.7.7,0,0,0-.11-.41,1,1,0,0,0-.29-.29,2.18,2.18,0,0,0-.43-.23l-.54-.22a5.79,5.79,0,0,1-.7-.32,1.74,1.74,0,0,1-.5-.36,1.29,1.29,0,0,1-.31-.46,1.57,1.57,0,0,1-.1-.6,1.44,1.44,0,0,1,.19-.75,1.7,1.7,0,0,1,.52-.55,2.71,2.71,0,0,1,.73-.33,3.49,3.49,0,0,1,.86-.11,3.41,3.41,0,0,1,1.39.27v1a2.78,2.78,0,0,0-1.52-.43,1.88,1.88,0,0,0-.49.06,1.06,1.06,0,0,0-.37.18.85.85,0,0,0-.24.26.69.69,0,0,0-.09.34.82.82,0,0,0,.09.4.94.94,0,0,0,.25.28,2.11,2.11,0,0,0,.4.22l.53.22a6,6,0,0,1,.71.31,2.3,2.3,0,0,1,.54.36,1.45,1.45,0,0,1,.35.47,1.54,1.54,0,0,1,.12.63,1.5,1.5,0,0,1-.2.77,1.82,1.82,0,0,1-.52.55,2.49,2.49,0,0,1-.76.32,3.71,3.71,0,0,1-.9.1A3.49,3.49,0,0,1,302.13,234.64Z" fill="#1e1e1e"/>
      <path d="M313.65,234.79a1.76,1.76,0,0,1-.89.19c-1.05,0-1.58-.58-1.58-1.76v-3.55h-1v-.82h1v-1.46l1-.31v1.77h1.51v.82h-1.51v3.38a1.41,1.41,0,0,0,.21.87.81.81,0,0,0,.68.25.94.94,0,0,0,.62-.2Z" fill="#1e1e1e"/>
      <path d="M319.92,234.85h-1V231.4c0-1.25-.47-1.88-1.4-1.88a1.51,1.51,0,0,0-1.18.54,2,2,0,0,0-.48,1.39v3.4h-1V226h1v3.88h0a2.18,2.18,0,0,1,2-1.14c1.35,0,2,.82,2,2.45Z" fill="#1e1e1e"/>
      <path d="M326.55,232.09h-4.24a2.28,2.28,0,0,0,.54,1.55,1.89,1.89,0,0,0,1.42.55,3,3,0,0,0,1.86-.67v.9A3.47,3.47,0,0,1,324,235a2.56,2.56,0,0,1-2-.81,3.39,3.39,0,0,1-.72-2.3,3.29,3.29,0,0,1,.79-2.29,2.58,2.58,0,0,1,2-.88,2.29,2.29,0,0,1,1.83.76,3.19,3.19,0,0,1,.64,2.12Zm-1-.81a2,2,0,0,0-.41-1.3,1.38,1.38,0,0,0-1.09-.46,1.54,1.54,0,0,0-1.16.49,2.21,2.21,0,0,0-.58,1.27Z" fill="#1e1e1e"/>
      <path d="M333,234.85h-1v-3.42c0-1.27-.46-1.91-1.39-1.91a1.5,1.5,0,0,0-1.19.54,2,2,0,0,0-.48,1.37v3.42h-1v-6h1v1h0a2.16,2.16,0,0,1,2-1.14,1.82,1.82,0,0,1,1.5.64,2.8,2.8,0,0,1,.52,1.84Z" fill="#1e1e1e"/>
      <path d="M298.81,245.71a2.24,2.24,0,0,1,.11-.67,2.29,2.29,0,0,1,.3-.63,2.22,2.22,0,0,1,.49-.53,2.5,2.5,0,0,1,.65-.39,2.4,2.4,0,0,1-.86-.78,1.81,1.81,0,0,1-.32-1.06,2,2,0,0,1,.17-.85,2.1,2.1,0,0,1,.5-.68,2.34,2.34,0,0,1,.75-.45,2.84,2.84,0,0,1,1.88,0,2.2,2.2,0,0,1,.75.46,2.07,2.07,0,0,1,.67,1.52,1.89,1.89,0,0,1-.32,1.06,2.49,2.49,0,0,1-.86.78,2.5,2.5,0,0,1,.65.39,2.4,2.4,0,0,1,.48.53,2.31,2.31,0,0,1,.31.63,2.22,2.22,0,0,1,.1.67,2.56,2.56,0,0,1-.2,1,2.29,2.29,0,0,1-.56.78,2.55,2.55,0,0,1-.86.51,3.45,3.45,0,0,1-2.2,0,2.55,2.55,0,0,1-.86-.51,2.46,2.46,0,0,1-.57-.78A2.56,2.56,0,0,1,298.81,245.71Zm1-.08a2,2,0,0,0,.12.71,1.84,1.84,0,0,0,.34.54,1.66,1.66,0,0,0,.54.34,1.92,1.92,0,0,0,.69.12,1.87,1.87,0,0,0,.68-.12,1.68,1.68,0,0,0,.54-.35,1.53,1.53,0,0,0,.35-.54,1.94,1.94,0,0,0,.13-.7,1.76,1.76,0,0,0-.12-.66,1.68,1.68,0,0,0-.88-.91,1.75,1.75,0,0,0-.7-.14,1.67,1.67,0,0,0-.67.13,1.58,1.58,0,0,0-.53.35,1.7,1.7,0,0,0-.36.54A1.93,1.93,0,0,0,299.85,245.63Zm.3-3.9a1.42,1.42,0,0,0,.11.55,1.37,1.37,0,0,0,.3.45,1.43,1.43,0,0,0,.44.3,1.38,1.38,0,0,0,1.08,0,1.57,1.57,0,0,0,.45-.31,1.55,1.55,0,0,0,.3-.44,1.42,1.42,0,0,0,.11-.55,1.47,1.47,0,0,0-.11-.56,1.37,1.37,0,0,0-.3-.45,1.35,1.35,0,0,0-.44-.29,1.26,1.26,0,0,0-.55-.11,1.47,1.47,0,0,0-.56.11,1.23,1.23,0,0,0-.44.3,1.34,1.34,0,0,0-.29.45A1.68,1.68,0,0,0,300.15,241.73Z" fill="#1e1e1e"/>
      <path d="M312.14,247.48a5.63,5.63,0,0,1-2.82.71,3.82,3.82,0,0,1-2.91-1.16A4.24,4.24,0,0,1,305.3,244a4.39,4.39,0,0,1,1.24-3.2,4.2,4.2,0,0,1,3.12-1.25A5.28,5.28,0,0,1,312,240v1.09a4.44,4.44,0,0,0-2.42-.65,3,3,0,0,0-2.31,1,4.09,4.09,0,0,0-.07,5,2.94,2.94,0,0,0,2.28.91,3.53,3.53,0,0,0,1.7-.39v-2.36h-1.84v-.89h2.83Z" fill="#1e1e1e"/>
      <path d="M314.94,247.19h0v.86h-1v-8.88h1v3.94h0a2.29,2.29,0,0,1,2.08-1.2,2.17,2.17,0,0,1,1.8.81,3.32,3.32,0,0,1,.66,2.16,3.76,3.76,0,0,1-.73,2.41,2.46,2.46,0,0,1-2,.9A2,2,0,0,1,314.94,247.19Zm0-2.42v.83a1.81,1.81,0,0,0,.48,1.27,1.73,1.73,0,0,0,2.6-.15,3.09,3.09,0,0,0,.49-1.86,2.41,2.41,0,0,0-.46-1.57,1.53,1.53,0,0,0-1.25-.57,1.73,1.73,0,0,0-1.35.58A2.16,2.16,0,0,0,314.92,244.77Z" fill="#1e1e1e"/>
    </g>
    <g>
      <path d="M62.57,14.66V13.5a2.23,2.23,0,0,0,.48.32,3.69,3.69,0,0,0,.58.23,3.5,3.5,0,0,0,.62.15,3.09,3.09,0,0,0,.58.06,2.27,2.27,0,0,0,1.35-.34,1.15,1.15,0,0,0,.45-1,1.13,1.13,0,0,0-.15-.59,1.76,1.76,0,0,0-.41-.46,4.57,4.57,0,0,0-.63-.4l-.77-.4c-.3-.15-.57-.3-.82-.45a3.57,3.57,0,0,1-.67-.51,2.26,2.26,0,0,1-.44-.62,2.07,2.07,0,0,1-.16-.82,2,2,0,0,1,.25-1A2.24,2.24,0,0,1,63.5,7a3,3,0,0,1,.93-.41,4.29,4.29,0,0,1,1.07-.13,4.08,4.08,0,0,1,1.81.3v1.1a3.31,3.31,0,0,0-1.91-.51,2.73,2.73,0,0,0-.64.07,1.74,1.74,0,0,0-.58.21,1.42,1.42,0,0,0-.41.4,1.07,1.07,0,0,0-.16.58,1.22,1.22,0,0,0,.12.56,1.31,1.31,0,0,0,.36.43,3,3,0,0,0,.57.37c.22.12.48.26.77.4s.59.31.86.47a4,4,0,0,1,.71.54,2.42,2.42,0,0,1,.48.67,1.84,1.84,0,0,1,.18.83,2.14,2.14,0,0,1-.24,1,1.93,1.93,0,0,1-.66.7,2.8,2.8,0,0,1-1,.39,5.24,5.24,0,0,1-1.14.12l-.49,0a4.69,4.69,0,0,1-.6-.1,4.74,4.74,0,0,1-.57-.15A1.83,1.83,0,0,1,62.57,14.66Z" fill="#1e1e1e"/>
      <path d="M71.6,14.94a1.76,1.76,0,0,1-.89.19c-1,0-1.58-.59-1.58-1.76V9.82h-1V9h1V7.54l1-.32V9H71.6v.82H70.09V13.2a1.37,1.37,0,0,0,.21.86.81.81,0,0,0,.68.26,1,1,0,0,0,.62-.2Z" fill="#1e1e1e"/>
      <path d="M77.18,15h-1v-.94h0a2.2,2.2,0,0,1-3.25.61,1.65,1.65,0,0,1-.51-1.26c0-1.12.66-1.78,2-2l1.8-.25q0-1.53-1.23-1.53a2.91,2.91,0,0,0-2,.74v-1a3.76,3.76,0,0,1,2-.56c1.41,0,2.11.75,2.11,2.24Zm-1-3-1.45.2a2.37,2.37,0,0,0-1,.34.93.93,0,0,0-.34.84.89.89,0,0,0,.31.71,1.2,1.2,0,0,0,.84.28,1.53,1.53,0,0,0,1.18-.5,1.79,1.79,0,0,0,.46-1.27Z" fill="#1e1e1e"/>
      <path d="M82.12,10a1.16,1.16,0,0,0-.72-.19,1.21,1.21,0,0,0-1,.58A2.64,2.64,0,0,0,80,11.94V15H79V9h1v1.24h0a2,2,0,0,1,.62-1,1.45,1.45,0,0,1,1-.36,1.41,1.41,0,0,1,.57.09Z" fill="#1e1e1e"/>
      <path d="M86,14.94a1.82,1.82,0,0,1-.9.19c-1,0-1.57-.59-1.57-1.76V9.82h-1V9h1V7.54l1-.32V9H86v.82H84.44V13.2a1.45,1.45,0,0,0,.2.86.84.84,0,0,0,.68.26,1.05,1.05,0,0,0,.63-.2Z" fill="#1e1e1e"/>
    </g>
    <g>
      <path d="M64.25,366.51H61v2.91h3v.88H61V374H60v-8.4h4.26Z" fill="#1e1e1e"/>
      <path d="M66.21,366.5a.6.6,0,0,1-.44-.18.57.57,0,0,1-.18-.44.61.61,0,0,1,.18-.45.6.6,0,0,1,.44-.18.62.62,0,0,1,.63.63.6.6,0,0,1-.18.44A.61.61,0,0,1,66.21,366.5Zm.47,7.52h-1v-6h1Z" fill="#1e1e1e"/>
      <path d="M73.61,374h-1V370.6c0-1.27-.46-1.91-1.39-1.91a1.5,1.5,0,0,0-1.19.54,2,2,0,0,0-.47,1.37V374h-1v-6h1v1h0a2.16,2.16,0,0,1,2-1.14,1.81,1.81,0,0,1,1.5.64,2.8,2.8,0,0,1,.53,1.84Z" fill="#1e1e1e"/>
      <path d="M75.91,366.5a.6.6,0,0,1-.44-.18.57.57,0,0,1-.18-.44.61.61,0,0,1,.18-.45.6.6,0,0,1,.44-.18.64.64,0,0,1,.45.18.61.61,0,0,1,.18.45.6.6,0,0,1-.18.44A.64.64,0,0,1,75.91,366.5Zm.47,7.52h-1v-6h1Z" fill="#1e1e1e"/>
      <path d="M78,373.81v-1a2.88,2.88,0,0,0,1.73.58c.84,0,1.26-.29,1.26-.85a.78.78,0,0,0-.1-.41,1,1,0,0,0-.3-.29,1.93,1.93,0,0,0-.43-.23l-.54-.22a5.79,5.79,0,0,1-.7-.32,1.74,1.74,0,0,1-.5-.36,1.29,1.29,0,0,1-.31-.46,1.79,1.79,0,0,1-.1-.6,1.55,1.55,0,0,1,.19-.75,1.68,1.68,0,0,1,.52-.54,2.4,2.4,0,0,1,.74-.34,3.35,3.35,0,0,1,.85-.11,3.41,3.41,0,0,1,1.39.27v1a2.71,2.71,0,0,0-1.52-.44,1.88,1.88,0,0,0-.49.06,1.16,1.16,0,0,0-.37.18.85.85,0,0,0-.24.26.69.69,0,0,0-.08.35.8.8,0,0,0,.08.39.94.94,0,0,0,.25.28,1.67,1.67,0,0,0,.4.22l.53.22a7.07,7.07,0,0,1,.72.31,2.16,2.16,0,0,1,.53.37,1.41,1.41,0,0,1,.35.46,1.54,1.54,0,0,1,.12.63,1.5,1.5,0,0,1-.2.77,1.7,1.7,0,0,1-.52.55,2.49,2.49,0,0,1-.76.32,3.71,3.71,0,0,1-.9.1A3.49,3.49,0,0,1,78,373.81Z" fill="#1e1e1e"/>
      <path d="M88.39,374h-1v-3.45c0-1.25-.46-1.88-1.39-1.88a1.51,1.51,0,0,0-1.18.54,2,2,0,0,0-.48,1.4V374h-1v-8.88h1V369h0a2.18,2.18,0,0,1,2-1.14c1.35,0,2,.82,2,2.45Z" fill="#1e1e1e"/>
    </g>
    <g>
      <path d="M110.34,211h-1.21l-4.33-6.7a2.57,2.57,0,0,1-.27-.52h0a8.6,8.6,0,0,1,0,1.15V211h-1v-8.4h1.28l4.21,6.59c.17.27.29.46.34.56h0a8.58,8.58,0,0,1-.06-1.23v-5.92h1Z" fill="#1e1e1e"/>
      <path d="M114.92,211.17a2.79,2.79,0,0,1-2.13-.84,3.1,3.1,0,0,1-.79-2.23,3.21,3.21,0,0,1,.83-2.36,3,3,0,0,1,2.23-.85,2.69,2.69,0,0,1,2.09.83,3.28,3.28,0,0,1,.76,2.29,3.21,3.21,0,0,1-.82,2.3A2.85,2.85,0,0,1,114.92,211.17Zm.07-5.47a1.84,1.84,0,0,0-1.47.63,2.59,2.59,0,0,0-.54,1.74,2.46,2.46,0,0,0,.55,1.68,1.85,1.85,0,0,0,1.46.61,1.75,1.75,0,0,0,1.43-.6,2.63,2.63,0,0,0,.5-1.72,2.66,2.66,0,0,0-.5-1.73A1.73,1.73,0,0,0,115,205.7Z" fill="#1e1e1e"/>
    </g>
    <g>
      <path d="M344.85,211h-1.21l-4.32-6.7a2.57,2.57,0,0,1-.27-.52h0a8.6,8.6,0,0,1,.05,1.15V211h-1v-8.4h1.27l4.21,6.59a5.88,5.88,0,0,1,.34.56h0a8.58,8.58,0,0,1-.06-1.23v-5.92h1Z" fill="#1e1e1e"/>
      <path d="M349.43,211.17a2.77,2.77,0,0,1-2.12-.84,3.11,3.11,0,0,1-.8-2.23,3.25,3.25,0,0,1,.83-2.36,3,3,0,0,1,2.23-.85,2.71,2.71,0,0,1,2.1.83,3.77,3.77,0,0,1-.06,4.59A2.87,2.87,0,0,1,349.43,211.17Zm.07-5.47a1.81,1.81,0,0,0-1.46.63,2.59,2.59,0,0,0-.54,1.74,2.46,2.46,0,0,0,.54,1.68,1.86,1.86,0,0,0,1.46.61,1.75,1.75,0,0,0,1.43-.6,2.58,2.58,0,0,0,.5-1.72,2.61,2.61,0,0,0-.5-1.73A1.73,1.73,0,0,0,349.5,205.7Z" fill="#1e1e1e"/>
    </g>
    <g>
      <path d="M304.8,169.79l-2.77,5.3v3.11h-1v-3.09l-2.7-5.32h1.12l1.88,3.8s.09.22.21.52h0a3,3,0,0,1,.23-.52l2-3.8Z" fill="#1e1e1e"/>
      <path d="M309.61,175.44h-4.24a2.27,2.27,0,0,0,.54,1.54,1.85,1.85,0,0,0,1.42.55,2.89,2.89,0,0,0,1.86-.67v.9a3.41,3.41,0,0,1-2.09.58,2.56,2.56,0,0,1-2-.82,3.37,3.37,0,0,1-.72-2.3,3.26,3.26,0,0,1,.79-2.28,2.54,2.54,0,0,1,2-.88,2.26,2.26,0,0,1,1.83.76,3.2,3.2,0,0,1,.64,2.11Zm-1-.82a2,2,0,0,0-.41-1.29,1.36,1.36,0,0,0-1.09-.47,1.58,1.58,0,0,0-1.16.49,2.15,2.15,0,0,0-.58,1.27Z" fill="#1e1e1e"/>
      <path d="M310.7,178v-1a2.88,2.88,0,0,0,1.73.58c.84,0,1.26-.28,1.26-.85a.72.72,0,0,0-.1-.4,1.22,1.22,0,0,0-.3-.3,2.86,2.86,0,0,0-.43-.23l-.54-.21-.7-.32a2,2,0,0,1-.5-.37,1.29,1.29,0,0,1-.31-.46,1.79,1.79,0,0,1-.1-.6,1.55,1.55,0,0,1,.19-.75,1.78,1.78,0,0,1,.52-.54,2.26,2.26,0,0,1,.74-.33,3,3,0,0,1,.85-.11,3.59,3.59,0,0,1,1.39.26v1a2.71,2.71,0,0,0-1.52-.44,1.53,1.53,0,0,0-.49.07,1.05,1.05,0,0,0-.37.17.85.85,0,0,0-.24.26.69.69,0,0,0-.08.35.8.8,0,0,0,.08.39.83.83,0,0,0,.25.28,1.67,1.67,0,0,0,.4.22l.53.22c.27.1.51.21.72.31a2.44,2.44,0,0,1,.54.37,1.36,1.36,0,0,1,.46,1.09,1.45,1.45,0,0,1-.2.77,1.7,1.7,0,0,1-.52.55,2.49,2.49,0,0,1-.76.32,3.68,3.68,0,0,1-.89.11A3.39,3.39,0,0,1,310.7,178Z" fill="#1e1e1e"/>
    </g>
    <g>
      <path d="M45.32,68.45a5.67,5.67,0,0,1-2.81.71A3.86,3.86,0,0,1,39.6,68a4.26,4.26,0,0,1-1.11-3.07,4.37,4.37,0,0,1,1.23-3.2,4.19,4.19,0,0,1,3.13-1.25,5.42,5.42,0,0,1,2.3.44V62a4.4,4.4,0,0,0-2.41-.64,3,3,0,0,0-2.32,1,4.07,4.07,0,0,0-.06,5,3,3,0,0,0,2.27.91,3.46,3.46,0,0,0,1.71-.4V65.53H42.5v-.89h2.82Z" fill="#1e1e1e"/>
      <path d="M51.44,69h-1v-.94h0a2.2,2.2,0,0,1-3.25.61,1.68,1.68,0,0,1-.5-1.26c0-1.12.66-1.78,2-2l1.8-.25c0-1-.42-1.53-1.24-1.53a2.92,2.92,0,0,0-2,.74v-1a3.76,3.76,0,0,1,2-.56c1.41,0,2.12.75,2.12,2.24Zm-1-3L49,66.18a2.43,2.43,0,0,0-1,.34,1.08,1.08,0,0,0,0,1.55,1.2,1.2,0,0,0,.84.28,1.51,1.51,0,0,0,1.18-.5,1.8,1.8,0,0,0,.47-1.27Z" fill="#1e1e1e"/>
      <path d="M56,69a1.8,1.8,0,0,1-.9.19c-1.05,0-1.57-.59-1.57-1.76V63.84h-1V63h1V61.56l1-.31V63H56v.82H54.52v3.38a1.45,1.45,0,0,0,.2.86.84.84,0,0,0,.68.26,1,1,0,0,0,.63-.2Z" fill="#1e1e1e"/>
      <path d="M62.29,69h-1V65.56c0-1.25-.46-1.87-1.39-1.87a1.51,1.51,0,0,0-1.18.54,2,2,0,0,0-.49,1.39V69h-1V60.14h1V64h0a2.18,2.18,0,0,1,2-1.14c1.35,0,2,.81,2,2.44Z" fill="#1e1e1e"/>
      <path d="M68.93,66.26H64.69a2.3,2.3,0,0,0,.54,1.55,1.87,1.87,0,0,0,1.42.54,2.93,2.93,0,0,0,1.86-.67v.91a3.5,3.5,0,0,1-2.09.57,2.53,2.53,0,0,1-2-.82,3.36,3.36,0,0,1-.73-2.3,3.29,3.29,0,0,1,.8-2.28,2.54,2.54,0,0,1,2-.88,2.24,2.24,0,0,1,1.82.76,3.18,3.18,0,0,1,.65,2.12Zm-1-.81a1.91,1.91,0,0,0-.4-1.3,1.36,1.36,0,0,0-1.1-.46,1.55,1.55,0,0,0-1.15.48,2.25,2.25,0,0,0-.59,1.28Z" fill="#1e1e1e"/>
      <path d="M73.51,64a1.18,1.18,0,0,0-.73-.19,1.23,1.23,0,0,0-1,.58A2.72,2.72,0,0,0,71.34,66V69h-1V63h1v1.24h0a2.12,2.12,0,0,1,.63-1,1.41,1.41,0,0,1,.94-.35,1.49,1.49,0,0,1,.58.08Z" fill="#1e1e1e"/>
      <path d="M86.53,69h-1V63.38c0-.44,0-1,.08-1.63h0a4.19,4.19,0,0,1-.25.81L82.49,69H82l-2.86-6.41a4.54,4.54,0,0,1-.26-.86h0c0,.33,0,.88,0,1.65V69H78v-8.4h1.3l2.58,5.86a6,6,0,0,1,.38,1h0c.17-.47.3-.81.4-1l2.63-5.83h1.23Z" fill="#1e1e1e"/>
      <path d="M93.44,66.26H89.2a2.3,2.3,0,0,0,.54,1.55,1.87,1.87,0,0,0,1.42.54A2.93,2.93,0,0,0,93,67.68v.91a3.5,3.5,0,0,1-2.09.57,2.53,2.53,0,0,1-2-.82A3.36,3.36,0,0,1,88.2,66a3.29,3.29,0,0,1,.8-2.28,2.53,2.53,0,0,1,2-.88,2.24,2.24,0,0,1,1.82.76,3.18,3.18,0,0,1,.65,2.12Zm-1-.81a2,2,0,0,0-.4-1.3,1.36,1.36,0,0,0-1.1-.46,1.55,1.55,0,0,0-1.15.48,2.25,2.25,0,0,0-.59,1.28Z" fill="#1e1e1e"/>
      <path d="M100,69h-1V68h0a2.43,2.43,0,0,1-3.87.36,3.33,3.33,0,0,1-.68-2.2,3.57,3.57,0,0,1,.75-2.38,2.48,2.48,0,0,1,2-.9,1.93,1.93,0,0,1,1.8,1h0V60.14h1Zm-1-2.71v-.89a1.73,1.73,0,0,0-.48-1.23,1.78,1.78,0,0,0-2.6.14,2.81,2.81,0,0,0-.51,1.78A2.54,2.54,0,0,0,96,67.75a1.57,1.57,0,0,0,1.3.6,1.63,1.63,0,0,0,1.3-.58A2.16,2.16,0,0,0,99.05,66.31Z" fill="#1e1e1e"/>
      <path d="M102.45,61.5a.6.6,0,0,1-.44-.18.59.59,0,0,1-.18-.44.61.61,0,0,1,.18-.45.6.6,0,0,1,.44-.18.64.64,0,0,1,.45.18.61.61,0,0,1,.18.45.62.62,0,0,1-.18.44A.64.64,0,0,1,102.45,61.5Zm.47,7.52h-1V63h1Z" fill="#1e1e1e"/>
      <path d="M109.16,69h-1v-.94h0a2.2,2.2,0,0,1-3.25.61,1.68,1.68,0,0,1-.5-1.26c0-1.12.66-1.78,2-2l1.8-.25c0-1-.42-1.53-1.24-1.53a2.94,2.94,0,0,0-2,.74v-1a3.76,3.76,0,0,1,2-.56c1.41,0,2.12.75,2.12,2.24Zm-1-3-1.45.19a2.43,2.43,0,0,0-1,.34.93.93,0,0,0-.34.84.9.9,0,0,0,.32.71,1.16,1.16,0,0,0,.83.28,1.51,1.51,0,0,0,1.18-.5,1.8,1.8,0,0,0,.47-1.27Z" fill="#1e1e1e"/>
    </g>
    <g>
      <path d="M25.1,162.53a4.89,4.89,0,0,1-2.32.49,3.74,3.74,0,0,1-2.87-1.15,4.26,4.26,0,0,1-1.08-3,4.48,4.48,0,0,1,1.22-3.26,4.08,4.08,0,0,1,3.07-1.24,4.91,4.91,0,0,1,2,.35v1a4.05,4.05,0,0,0-2-.5,3.06,3.06,0,0,0-2.35,1,3.62,3.62,0,0,0-.9,2.58,3.45,3.45,0,0,0,.85,2.45,2.87,2.87,0,0,0,2.2.91,4.15,4.15,0,0,0,2.19-.56Z" fill="#1e1e1e"/>
      <path d="M29.81,157.86a1.14,1.14,0,0,0-.72-.2,1.24,1.24,0,0,0-1,.58,2.67,2.67,0,0,0-.41,1.58v3.06h-1v-6h1v1.24h0a2.09,2.09,0,0,1,.63-1,1.61,1.61,0,0,1,1.51-.27Z" fill="#1e1e1e"/>
      <path d="M35.68,160.12H31.44a2.28,2.28,0,0,0,.54,1.55,1.88,1.88,0,0,0,1.42.54,2.94,2.94,0,0,0,1.86-.66v.9a3.47,3.47,0,0,1-2.09.57,2.56,2.56,0,0,1-2-.81,3.39,3.39,0,0,1-.72-2.3,3.29,3.29,0,0,1,.79-2.29,2.58,2.58,0,0,1,2-.88,2.27,2.27,0,0,1,1.82.76,3.2,3.2,0,0,1,.65,2.12Zm-1-.81a1.91,1.91,0,0,0-.4-1.3,1.39,1.39,0,0,0-1.1-.46A1.54,1.54,0,0,0,32,158a2.22,2.22,0,0,0-.59,1.27Z" fill="#1e1e1e"/>
      <path d="M41.43,162.88h-1V162h0A2,2,0,0,1,38.6,163a2,2,0,0,1-1.41-.47,1.68,1.68,0,0,1-.5-1.26c0-1.12.66-1.77,2-2l1.8-.25c0-1-.42-1.53-1.24-1.53a3,3,0,0,0-2,.74v-1a3.76,3.76,0,0,1,2-.56c1.41,0,2.12.75,2.12,2.24Zm-1-3-1.45.2a2.3,2.3,0,0,0-1,.33,1,1,0,0,0-.34.84,1,1,0,0,0,.31.72,1.25,1.25,0,0,0,.84.27,1.51,1.51,0,0,0,1.18-.5,1.77,1.77,0,0,0,.47-1.26Z" fill="#1e1e1e"/>
      <path d="M46,162.82a1.8,1.8,0,0,1-.9.19c-1,0-1.57-.58-1.57-1.76V157.7h-1v-.82h1v-1.46l1-.31v1.77H46v.82H44.51v3.38a1.49,1.49,0,0,0,.2.87.83.83,0,0,0,.68.25A1,1,0,0,0,46,162Z" fill="#1e1e1e"/>
      <path d="M52.13,160.12H47.89a2.28,2.28,0,0,0,.54,1.55,1.87,1.87,0,0,0,1.42.54,3,3,0,0,0,1.86-.66v.9a3.5,3.5,0,0,1-2.09.57,2.54,2.54,0,0,1-2-.81,3.39,3.39,0,0,1-.73-2.3,3.29,3.29,0,0,1,.8-2.29,2.56,2.56,0,0,1,2-.88,2.28,2.28,0,0,1,1.82.76,3.2,3.2,0,0,1,.65,2.12Zm-1-.81a2,2,0,0,0-.4-1.3,1.39,1.39,0,0,0-1.1-.46,1.52,1.52,0,0,0-1.15.49,2.22,2.22,0,0,0-.59,1.27Z" fill="#1e1e1e"/>
      <path d="M58,162.88H57v-8.4h1Z" fill="#1e1e1e"/>
      <path d="M65,162.88h-1v-3.42c0-1.27-.47-1.91-1.4-1.91a1.52,1.52,0,0,0-1.19.54,2,2,0,0,0-.47,1.37v3.42h-1v-6h1v1h0a2.17,2.17,0,0,1,2-1.14,1.83,1.83,0,0,1,1.51.64,2.79,2.79,0,0,1,.52,1.83Z" fill="#1e1e1e"/>
      <path d="M69.63,162.82a1.76,1.76,0,0,1-.89.19c-1,0-1.58-.58-1.58-1.76V157.7h-1v-.82h1v-1.46l1-.31v1.77h1.51v.82H68.12v3.38a1.41,1.41,0,0,0,.21.87.81.81,0,0,0,.68.25.94.94,0,0,0,.62-.2Z" fill="#1e1e1e"/>
      <path d="M75.77,162.88h-1v-.95h0A2,2,0,0,1,72.93,163c-1.43,0-2.14-.85-2.14-2.55v-3.59h.95v3.44c0,1.26.49,1.89,1.46,1.89a1.46,1.46,0,0,0,1.15-.51,2,2,0,0,0,.46-1.36v-3.46h1Z" fill="#1e1e1e"/>
      <path d="M82.69,162.88h-1v-3.42c0-1.27-.47-1.91-1.4-1.91a1.52,1.52,0,0,0-1.19.54,2,2,0,0,0-.47,1.37v3.42h-1v-6h1v1h0a2.17,2.17,0,0,1,2-1.14,1.83,1.83,0,0,1,1.51.64,2.85,2.85,0,0,1,.52,1.83Z" fill="#1e1e1e"/>
      <path d="M89.32,160.12H85.09a2.23,2.23,0,0,0,.53,1.55,1.88,1.88,0,0,0,1.42.54,3,3,0,0,0,1.87-.66v.9a3.53,3.53,0,0,1-2.1.57,2.53,2.53,0,0,1-2-.81,3.34,3.34,0,0,1-.73-2.3,3.29,3.29,0,0,1,.79-2.29,2.58,2.58,0,0,1,2-.88,2.29,2.29,0,0,1,1.83.76,3.19,3.19,0,0,1,.64,2.12Zm-1-.81a2,2,0,0,0-.4-1.3,1.4,1.4,0,0,0-1.1-.46,1.54,1.54,0,0,0-1.16.49,2.21,2.21,0,0,0-.58,1.27Z" fill="#1e1e1e"/>
      <path d="M100.86,154.48l-2.37,8.4H97.34l-1.73-6.14a3.68,3.68,0,0,1-.14-.85h0a3.89,3.89,0,0,1-.15.84l-1.74,6.15H92.42L90,154.48H91l1.79,6.45a4.6,4.6,0,0,1,.14.84h0a4.13,4.13,0,0,1,.18-.84L95,154.48h1L97.76,161a5.13,5.13,0,0,1,.14.79h0a5.15,5.15,0,0,1,.16-.81l1.72-6.47Z" fill="#1e1e1e"/>
      <path d="M102.48,155.36a.59.59,0,0,1-.44-.18.58.58,0,0,1-.19-.44.62.62,0,0,1,.19-.45.59.59,0,0,1,.44-.18.6.6,0,0,1,.44.18.58.58,0,0,1,.19.45.58.58,0,0,1-.19.44A.6.6,0,0,1,102.48,155.36Zm.46,7.52h-1v-6h1Z" fill="#1e1e1e"/>
      <path d="M109.87,162.88h-1v-3.42c0-1.27-.47-1.91-1.4-1.91a1.52,1.52,0,0,0-1.19.54,2,2,0,0,0-.47,1.37v3.42h-1v-6h1v1h0a2.17,2.17,0,0,1,2-1.14,1.83,1.83,0,0,1,1.51.64,2.79,2.79,0,0,1,.52,1.83Z" fill="#1e1e1e"/>
      <path d="M117.93,154.84a1.32,1.32,0,0,0-.64-.15c-.67,0-1,.42-1,1.27v.92h1.4v.82h-1.4v5.18h-1V157.7h-1v-.82h1v-1a2,2,0,0,1,.55-1.49,1.81,1.81,0,0,1,1.36-.55,1.84,1.84,0,0,1,.69.11Z" fill="#1e1e1e"/>
      <path d="M119.22,155.36a.59.59,0,0,1-.44-.18.57.57,0,0,1-.18-.44.61.61,0,0,1,.18-.45.59.59,0,0,1,.44-.18.6.6,0,0,1,.44.18.58.58,0,0,1,.19.45.58.58,0,0,1-.19.44A.6.6,0,0,1,119.22,155.36Zm.46,7.52h-1v-6h1Z" fill="#1e1e1e"/>
      <path d="M122.59,162.88h-1V154h1Z" fill="#1e1e1e"/>
      <path d="M129.36,160.12h-4.24a2.28,2.28,0,0,0,.54,1.55,1.88,1.88,0,0,0,1.42.54,2.94,2.94,0,0,0,1.86-.66v.9a3.47,3.47,0,0,1-2.09.57,2.56,2.56,0,0,1-2-.81,3.39,3.39,0,0,1-.72-2.3,3.29,3.29,0,0,1,.79-2.29,2.58,2.58,0,0,1,2-.88,2.27,2.27,0,0,1,1.82.76,3.2,3.2,0,0,1,.65,2.12Zm-1-.81a1.91,1.91,0,0,0-.4-1.3,1.39,1.39,0,0,0-1.1-.46,1.54,1.54,0,0,0-1.15.49,2.22,2.22,0,0,0-.59,1.27Z" fill="#1e1e1e"/>
    </g>
    <g>
      <path d="M21.61,100.62,18.5,109H17.41l-3-8.4h1.09l2.33,6.66A4.5,4.5,0,0,1,18,108h0a3.5,3.5,0,0,1,.2-.75l2.37-6.65Z" fill="#1e1e1e"/>
      <path d="M26.1,109h-1v-.94h0a2.2,2.2,0,0,1-3.25.61,1.65,1.65,0,0,1-.51-1.26c0-1.12.66-1.78,2-2l1.8-.25q0-1.53-1.23-1.53a2.91,2.91,0,0,0-2,.74v-1a3.76,3.76,0,0,1,2-.56c1.41,0,2.11.75,2.11,2.24Zm-1-3-1.45.19a2.37,2.37,0,0,0-1,.34.93.93,0,0,0-.34.84.89.89,0,0,0,.31.71,1.2,1.2,0,0,0,.84.28,1.53,1.53,0,0,0,1.18-.5,1.79,1.79,0,0,0,.46-1.27Z" fill="#1e1e1e"/>
      <path d="M28.87,109h-1v-8.88h1Z" fill="#1e1e1e"/>
      <path d="M31.31,101.5a.6.6,0,0,1-.44-.18.59.59,0,0,1-.18-.44.61.61,0,0,1,.18-.45.6.6,0,0,1,.44-.18.62.62,0,0,1,.63.63.62.62,0,0,1-.18.44A.61.61,0,0,1,31.31,101.5Zm.47,7.52h-1v-6h1Z" fill="#1e1e1e"/>
      <path d="M38.85,109h-1v-1h0a2.21,2.21,0,0,1-2.06,1.16,2.27,2.27,0,0,1-1.81-.8,3.32,3.32,0,0,1-.67-2.2,3.57,3.57,0,0,1,.75-2.38,2.46,2.46,0,0,1,2-.9,1.91,1.91,0,0,1,1.8,1h0v-3.71h1Zm-1-2.71v-.89a1.73,1.73,0,0,0-.48-1.23,1.64,1.64,0,0,0-1.22-.5,1.67,1.67,0,0,0-1.39.64,2.87,2.87,0,0,0-.5,1.78,2.54,2.54,0,0,0,.48,1.64,1.6,1.6,0,0,0,1.3.6,1.65,1.65,0,0,0,1.31-.58A2.16,2.16,0,0,0,37.89,106.31Z" fill="#1e1e1e"/>
      <path d="M45.09,109h-1v-.94h0a2.2,2.2,0,0,1-3.25.61,1.68,1.68,0,0,1-.5-1.26c0-1.12.66-1.78,2-2l1.8-.25c0-1-.42-1.53-1.24-1.53a2.92,2.92,0,0,0-2,.74v-1a3.76,3.76,0,0,1,2-.56c1.41,0,2.12.75,2.12,2.24Zm-1-3-1.45.19a2.43,2.43,0,0,0-1,.34,1.08,1.08,0,0,0,0,1.55,1.2,1.2,0,0,0,.84.28,1.51,1.51,0,0,0,1.18-.5,1.8,1.8,0,0,0,.47-1.27Z" fill="#1e1e1e"/>
      <path d="M49.68,109a1.8,1.8,0,0,1-.9.19c-1.05,0-1.57-.59-1.57-1.76v-3.55h-1V103h1v-1.46l1-.31V103h1.51v.82H48.17v3.38a1.45,1.45,0,0,0,.2.86.84.84,0,0,0,.68.26,1,1,0,0,0,.63-.2Z" fill="#1e1e1e"/>
      <path d="M55.79,106.26H51.55a2.3,2.3,0,0,0,.54,1.55,1.87,1.87,0,0,0,1.42.54,2.93,2.93,0,0,0,1.86-.67v.91a3.5,3.5,0,0,1-2.09.57,2.52,2.52,0,0,1-2-.82,3.36,3.36,0,0,1-.73-2.3,3.29,3.29,0,0,1,.8-2.28,2.53,2.53,0,0,1,2-.88,2.25,2.25,0,0,1,1.82.76,3.18,3.18,0,0,1,.65,2.12Zm-1-.81a2,2,0,0,0-.4-1.3,1.36,1.36,0,0,0-1.1-.46,1.55,1.55,0,0,0-1.15.48,2.25,2.25,0,0,0-.59,1.28Z" fill="#1e1e1e"/>
      <path d="M64.62,108.75a3.19,3.19,0,0,1-1.64.41,2.76,2.76,0,0,1-2.08-.83,3.06,3.06,0,0,1-.78-2.17,3.3,3.3,0,0,1,.85-2.38,3,3,0,0,1,2.26-.9,3.24,3.24,0,0,1,1.4.29v1a2.4,2.4,0,0,0-1.43-.47,1.93,1.93,0,0,0-1.51.66,2.5,2.5,0,0,0-.59,1.73,2.41,2.41,0,0,0,.55,1.66,1.91,1.91,0,0,0,1.49.61,2.41,2.41,0,0,0,1.48-.52Z" fill="#1e1e1e"/>
      <path d="M68.58,109.16a2.79,2.79,0,0,1-2.13-.84,3.1,3.1,0,0,1-.79-2.23,3.21,3.21,0,0,1,.83-2.36,3,3,0,0,1,2.23-.85,2.69,2.69,0,0,1,2.09.83,3.28,3.28,0,0,1,.76,2.29,3.21,3.21,0,0,1-.82,2.3A2.85,2.85,0,0,1,68.58,109.16Zm.07-5.47a1.84,1.84,0,0,0-1.47.63,2.59,2.59,0,0,0-.54,1.74,2.46,2.46,0,0,0,.55,1.68,1.85,1.85,0,0,0,1.46.61,1.75,1.75,0,0,0,1.43-.6,3.23,3.23,0,0,0,0-3.45A1.73,1.73,0,0,0,68.65,103.69Z" fill="#1e1e1e"/>
      <path d="M81.62,109h-1v-3.44a2.58,2.58,0,0,0-.31-1.45,1.17,1.17,0,0,0-1-.44,1.3,1.3,0,0,0-1,.56,2.16,2.16,0,0,0-.43,1.35V109h-1v-3.56c0-1.18-.45-1.77-1.37-1.77a1.28,1.28,0,0,0-1,.53,2.2,2.2,0,0,0-.41,1.38V109h-1v-6h1v1h0A2,2,0,0,1,76,102.88a1.71,1.71,0,0,1,1.07.34,1.75,1.75,0,0,1,.63.9,2.13,2.13,0,0,1,2-1.24c1.32,0,2,.81,2,2.44Z" fill="#1e1e1e"/>
      <path d="M92,109H91v-3.44a2.67,2.67,0,0,0-.31-1.45,1.19,1.19,0,0,0-1-.44,1.27,1.27,0,0,0-1,.56,2.16,2.16,0,0,0-.43,1.35V109h-1v-3.56c0-1.18-.46-1.77-1.37-1.77a1.27,1.27,0,0,0-1,.53,2.14,2.14,0,0,0-.41,1.38V109h-1v-6h1v1h0a2,2,0,0,1,1.86-1.09,1.76,1.76,0,0,1,1.08.34,1.73,1.73,0,0,1,.62.9,2.14,2.14,0,0,1,2-1.24c1.32,0,2,.81,2,2.44Z" fill="#1e1e1e"/>
      <path d="M98.07,109h-1v-.94h0a2.2,2.2,0,0,1-3.25.61,1.68,1.68,0,0,1-.5-1.26c0-1.12.66-1.78,2-2l1.8-.25c0-1-.42-1.53-1.24-1.53a2.94,2.94,0,0,0-2,.74v-1a3.76,3.76,0,0,1,2-.56c1.41,0,2.12.75,2.12,2.24Zm-1-3-1.45.19a2.43,2.43,0,0,0-1,.34,1,1,0,0,0-.34.84.9.9,0,0,0,.32.71,1.16,1.16,0,0,0,.83.28,1.51,1.51,0,0,0,1.18-.5,1.8,1.8,0,0,0,.47-1.27Z" fill="#1e1e1e"/>
      <path d="M104.86,109h-1V105.6c0-1.27-.47-1.91-1.4-1.91a1.52,1.52,0,0,0-1.19.54,2,2,0,0,0-.47,1.37V109h-1v-6h1v1h0a2.17,2.17,0,0,1,2-1.14,1.83,1.83,0,0,1,1.51.64,2.85,2.85,0,0,1,.52,1.83Z" fill="#1e1e1e"/>
      <path d="M111.79,109h-1v-1h0a2.43,2.43,0,0,1-3.87.36,3.27,3.27,0,0,1-.68-2.2,3.57,3.57,0,0,1,.75-2.38,2.48,2.48,0,0,1,2-.9,1.93,1.93,0,0,1,1.8,1h0v-3.71h1Zm-1-2.71v-.89a1.73,1.73,0,0,0-.48-1.23,1.78,1.78,0,0,0-2.6.14,2.81,2.81,0,0,0-.51,1.78,2.49,2.49,0,0,0,.49,1.64,1.57,1.57,0,0,0,1.29.6,1.65,1.65,0,0,0,1.31-.58A2.16,2.16,0,0,0,110.83,106.31Z" fill="#1e1e1e"/>
      <path d="M120,101a1.35,1.35,0,0,0-.64-.16c-.67,0-1,.43-1,1.27V103h1.41v.82h-1.41V109h-1v-5.18h-1V103h1v-1a2,2,0,0,1,.54-1.49,1.82,1.82,0,0,1,1.36-.55,1.92,1.92,0,0,1,.7.1Z" fill="#1e1e1e"/>
      <path d="M123.29,109.16a2.79,2.79,0,0,1-2.13-.84,3.1,3.1,0,0,1-.79-2.23,3.24,3.24,0,0,1,.82-2.36,3,3,0,0,1,2.24-.85,2.69,2.69,0,0,1,2.09.83,3.77,3.77,0,0,1-.06,4.59A2.85,2.85,0,0,1,123.29,109.16Zm.07-5.47a1.84,1.84,0,0,0-1.47.63,2.59,2.59,0,0,0-.54,1.74,2.41,2.41,0,0,0,.55,1.68,1.85,1.85,0,0,0,1.46.61,1.75,1.75,0,0,0,1.43-.6,3.23,3.23,0,0,0,0-3.45A1.73,1.73,0,0,0,123.36,103.69Z" fill="#1e1e1e"/>
      <path d="M130.94,104a1.18,1.18,0,0,0-.73-.19,1.23,1.23,0,0,0-1,.58,2.72,2.72,0,0,0-.41,1.58V109h-1v-6h1v1.24h0a2.12,2.12,0,0,1,.63-1,1.41,1.41,0,0,1,.94-.35,1.49,1.49,0,0,1,.58.08Z" fill="#1e1e1e"/>
      <path d="M23,122.22H22v-8.4h1Z" fill="#1e1e1e"/>
      <path d="M30.08,122.22h-1V118.8c0-1.27-.47-1.91-1.4-1.91a1.52,1.52,0,0,0-1.19.54,2,2,0,0,0-.47,1.37v3.42h-1v-6h1v1h0a2.17,2.17,0,0,1,2-1.14,1.83,1.83,0,0,1,1.51.64,2.85,2.85,0,0,1,.52,1.83Z" fill="#1e1e1e"/>
      <path d="M31.53,122v-1a2.81,2.81,0,0,0,1.72.58c.85,0,1.27-.28,1.27-.84a.76.76,0,0,0-.11-.41,1,1,0,0,0-.29-.29,2,2,0,0,0-.44-.24l-.53-.21a5.16,5.16,0,0,1-.7-.32,2.55,2.55,0,0,1-.51-.36,1.52,1.52,0,0,1-.3-.46,1.63,1.63,0,0,1-.1-.61,1.38,1.38,0,0,1,.19-.74,1.7,1.7,0,0,1,.52-.55,2.71,2.71,0,0,1,.73-.33,3.59,3.59,0,0,1,2.25.16v1a2.7,2.7,0,0,0-1.52-.43,1.83,1.83,0,0,0-.49.06,1.15,1.15,0,0,0-.37.17.76.76,0,0,0-.24.27.67.67,0,0,0-.09.34.82.82,0,0,0,.09.4.92.92,0,0,0,.25.28,2.36,2.36,0,0,0,.39.22l.54.22a6.85,6.85,0,0,1,.71.31,2.82,2.82,0,0,1,.54.36,1.41,1.41,0,0,1,.34.47,1.48,1.48,0,0,1,.12.63,1.49,1.49,0,0,1-.19.77,1.61,1.61,0,0,1-.53.54,2.32,2.32,0,0,1-.75.33,3.82,3.82,0,0,1-.9.1A3.34,3.34,0,0,1,31.53,122Z" fill="#1e1e1e"/>
      <path d="M39.76,122.16a1.76,1.76,0,0,1-.89.19c-1,0-1.58-.59-1.58-1.76V117h-1v-.82h1v-1.46l1-.31v1.77h1.51V117H38.25v3.38a1.37,1.37,0,0,0,.21.86.78.78,0,0,0,.68.26,1,1,0,0,0,.62-.2Z" fill="#1e1e1e"/>
      <path d="M45.34,122.22h-1v-.94h0a2,2,0,0,1-1.85,1.08,2,2,0,0,1-1.4-.47,1.65,1.65,0,0,1-.51-1.26c0-1.12.66-1.78,2-2l1.8-.25c0-1-.41-1.53-1.24-1.53a2.9,2.9,0,0,0-2,.74v-1a3.76,3.76,0,0,1,2-.56c1.41,0,2.11.75,2.11,2.24Zm-1-3-1.45.19a2.37,2.37,0,0,0-1,.34.93.93,0,0,0-.34.84.89.89,0,0,0,.31.71,1.19,1.19,0,0,0,.83.28,1.55,1.55,0,0,0,1.19-.5,1.79,1.79,0,0,0,.46-1.27Z" fill="#1e1e1e"/>
      <path d="M48.11,122.22h-1v-8.88h1Z" fill="#1e1e1e"/>
      <path d="M51,122.22h-1v-8.88h1Z" fill="#1e1e1e"/>
      <path d="M60.55,122.22h-1v-.94h0a2.2,2.2,0,0,1-3.25.61,1.68,1.68,0,0,1-.5-1.26c0-1.12.66-1.78,2-2l1.8-.25c0-1-.42-1.53-1.24-1.53a2.92,2.92,0,0,0-2,.74v-1a3.76,3.76,0,0,1,2-.56c1.41,0,2.12.75,2.12,2.24Zm-1-3-1.45.19a2.43,2.43,0,0,0-1,.34,1.08,1.08,0,0,0,0,1.55,1.2,1.2,0,0,0,.84.28,1.51,1.51,0,0,0,1.18-.5,1.8,1.8,0,0,0,.47-1.27Z" fill="#1e1e1e"/>
      <path d="M67.34,122.22h-1V118.8c0-1.27-.47-1.91-1.4-1.91a1.5,1.5,0,0,0-1.19.54,2,2,0,0,0-.47,1.37v3.42h-1v-6h1v1h0a2.17,2.17,0,0,1,2-1.14,1.83,1.83,0,0,1,1.51.64,2.85,2.85,0,0,1,.52,1.83Z" fill="#1e1e1e"/>
      <path d="M74.27,122.22h-1v-1h0a2.43,2.43,0,0,1-3.87.36,3.27,3.27,0,0,1-.68-2.2,3.57,3.57,0,0,1,.75-2.38,2.46,2.46,0,0,1,2-.9,1.93,1.93,0,0,1,1.8,1h0v-3.71h1Zm-1-2.71v-.89a1.73,1.73,0,0,0-.48-1.23,1.78,1.78,0,0,0-2.6.14,2.81,2.81,0,0,0-.51,1.78,2.49,2.49,0,0,0,.49,1.64,1.57,1.57,0,0,0,1.29.6,1.65,1.65,0,0,0,1.31-.58A2.16,2.16,0,0,0,73.31,119.51Z" fill="#1e1e1e"/>
      <path d="M85.78,118.82q0,3.54-3.2,3.54-3,0-3-3.4v-5.14h1v5.07c0,1.73.73,2.59,2.18,2.59s2.1-.84,2.1-2.5v-5.16h1Z" fill="#1e1e1e"/>
      <path d="M92.73,122.22h-1V118.8c0-1.27-.47-1.91-1.4-1.91a1.5,1.5,0,0,0-1.19.54,2,2,0,0,0-.47,1.37v3.42h-1v-6h1v1h0a2.16,2.16,0,0,1,2-1.14,1.83,1.83,0,0,1,1.51.64,2.85,2.85,0,0,1,.52,1.83Z" fill="#1e1e1e"/>
      <path d="M95,114.7a.6.6,0,0,1-.44-.18.59.59,0,0,1-.18-.44.61.61,0,0,1,.18-.45.6.6,0,0,1,.44-.18.63.63,0,0,1,.45.18.61.61,0,0,1,.18.45.62.62,0,0,1-.18.44A.63.63,0,0,1,95,114.7Zm.47,7.52h-1v-6h1Z" fill="#1e1e1e"/>
      <path d="M102.42,122.22h-1V118.8c0-1.27-.46-1.91-1.39-1.91a1.5,1.5,0,0,0-1.19.54,2,2,0,0,0-.48,1.37v3.42h-1v-6h1v1h0a2.16,2.16,0,0,1,2-1.14,1.81,1.81,0,0,1,1.5.64,2.79,2.79,0,0,1,.52,1.83Z" fill="#1e1e1e"/>
      <path d="M103.87,122v-1a2.82,2.82,0,0,0,1.73.58c.84,0,1.27-.28,1.27-.84a.76.76,0,0,0-.11-.41,1,1,0,0,0-.3-.29,1.94,1.94,0,0,0-.43-.24l-.54-.21a6.6,6.6,0,0,1-.7-.32,2.47,2.47,0,0,1-.5-.36,1.35,1.35,0,0,1-.3-.46,1.62,1.62,0,0,1-.11-.61,1.39,1.39,0,0,1,.2-.74,1.78,1.78,0,0,1,.51-.55,2.77,2.77,0,0,1,.74-.33,3.56,3.56,0,0,1,2.24.16v1a2.68,2.68,0,0,0-1.52-.43,1.88,1.88,0,0,0-.49.06,1.4,1.4,0,0,0-.37.17,1,1,0,0,0-.24.27.77.77,0,0,0-.08.34,1,1,0,0,0,.08.4,1.07,1.07,0,0,0,.25.28,2.11,2.11,0,0,0,.4.22l.53.22a6.21,6.21,0,0,1,.72.31,2.82,2.82,0,0,1,.54.36,1.41,1.41,0,0,1,.34.47,1.48,1.48,0,0,1,.12.63,1.5,1.5,0,0,1-.2.77,1.58,1.58,0,0,1-.52.54,2.28,2.28,0,0,1-.76.33,3.68,3.68,0,0,1-.89.1A3.39,3.39,0,0,1,103.87,122Z" fill="#1e1e1e"/>
      <path d="M112.11,122.16a1.82,1.82,0,0,1-.9.19c-1,0-1.57-.59-1.57-1.76V117h-1v-.82h1v-1.46l1-.31v1.77h1.51V117H110.6v3.38a1.45,1.45,0,0,0,.2.86.81.81,0,0,0,.68.26,1.05,1.05,0,0,0,.63-.2Z" fill="#1e1e1e"/>
      <path d="M117.69,122.22h-1v-.94h0a2.2,2.2,0,0,1-3.25.61,1.68,1.68,0,0,1-.5-1.26c0-1.12.66-1.78,2-2l1.8-.25c0-1-.42-1.53-1.24-1.53a2.94,2.94,0,0,0-2,.74v-1a3.76,3.76,0,0,1,2-.56c1.41,0,2.12.75,2.12,2.24Zm-1-3-1.45.19a2.43,2.43,0,0,0-1,.34,1,1,0,0,0-.34.84.9.9,0,0,0,.32.71,1.16,1.16,0,0,0,.83.28,1.51,1.51,0,0,0,1.18-.5,1.8,1.8,0,0,0,.47-1.27Z" fill="#1e1e1e"/>
      <path d="M120.46,122.22h-1v-8.88h1Z" fill="#1e1e1e"/>
      <path d="M123.37,122.22h-1v-8.88h1Z" fill="#1e1e1e"/>
    </g>
    <g>
      <path d="M157.68,203.43a4.89,4.89,0,0,1-2.32.49,3.74,3.74,0,0,1-2.87-1.15,4.26,4.26,0,0,1-1.08-3,4.51,4.51,0,0,1,1.21-3.26,4.12,4.12,0,0,1,3.08-1.24,4.92,4.92,0,0,1,2,.34v1a4.05,4.05,0,0,0-2-.5,3,3,0,0,0-2.35,1,3.62,3.62,0,0,0-.9,2.58,3.49,3.49,0,0,0,.84,2.45,2.89,2.89,0,0,0,2.21.91,4.2,4.2,0,0,0,2.19-.56Z" fill="#1e1e1e"/>
      <path d="M160.22,203.78h-1V194.9h1Z" fill="#1e1e1e"/>
      <path d="M167,201h-4.23a2.23,2.23,0,0,0,.53,1.55,1.88,1.88,0,0,0,1.42.54,3,3,0,0,0,1.87-.66v.9a3.53,3.53,0,0,1-2.1.57,2.53,2.53,0,0,1-2-.81,3.34,3.34,0,0,1-.73-2.3,3.29,3.29,0,0,1,.79-2.29,2.58,2.58,0,0,1,2-.88,2.29,2.29,0,0,1,1.83.76,3.19,3.19,0,0,1,.64,2.12Zm-1-.81a2,2,0,0,0-.4-1.3,1.37,1.37,0,0,0-1.1-.46,1.54,1.54,0,0,0-1.16.49,2.18,2.18,0,0,0-.58,1.27Z" fill="#1e1e1e"/>
      <path d="M172.74,203.78h-1v-.94h0a2,2,0,0,1-1.85,1.08,2,2,0,0,1-1.4-.47,1.65,1.65,0,0,1-.51-1.26c0-1.12.66-1.77,2-2l1.8-.25c0-1-.41-1.53-1.24-1.53a3,3,0,0,0-1.95.74v-1a3.73,3.73,0,0,1,2-.56c1.41,0,2.12.75,2.12,2.24Zm-1-3-1.45.2a2.35,2.35,0,0,0-1,.33,1,1,0,0,0-.34.84.93.93,0,0,0,.32.72,1.22,1.22,0,0,0,.83.27,1.51,1.51,0,0,0,1.18-.5,1.78,1.78,0,0,0,.47-1.27Z" fill="#1e1e1e"/>
      <path d="M179.53,203.78h-1v-3.42c0-1.27-.47-1.91-1.39-1.91a1.52,1.52,0,0,0-1.2.54,2,2,0,0,0-.47,1.37v3.42h-1v-6h1v1h0a2.17,2.17,0,0,1,2-1.14,1.83,1.83,0,0,1,1.51.64,2.79,2.79,0,0,1,.52,1.83Z" fill="#1e1e1e"/>
      <path d="M189.48,203.78h-1v-.95h0a2,2,0,0,1-1.86,1.09c-1.43,0-2.14-.85-2.14-2.55v-3.59h.95v3.44c0,1.26.49,1.89,1.46,1.89a1.46,1.46,0,0,0,1.15-.51,2,2,0,0,0,.46-1.36v-3.46h1Z" fill="#1e1e1e"/>
      <path d="M192.4,202.92h0v3.62h-1v-8.76h1v1.06h0a2.29,2.29,0,0,1,2.08-1.2,2.2,2.2,0,0,1,1.81.81,3.33,3.33,0,0,1,.65,2.16,3.78,3.78,0,0,1-.73,2.41,2.46,2.46,0,0,1-2,.9A2,2,0,0,1,192.4,202.92Zm0-2.42v.83a1.81,1.81,0,0,0,.48,1.27,1.64,1.64,0,0,0,1.23.51,1.62,1.62,0,0,0,1.37-.66,3.09,3.09,0,0,0,.49-1.86,2.41,2.41,0,0,0-.46-1.57,1.53,1.53,0,0,0-1.25-.57,1.7,1.7,0,0,0-1.35.58A2.16,2.16,0,0,0,192.38,200.5Z" fill="#1e1e1e"/>
      <path d="M210.28,203.78h-1v-3.44a2.52,2.52,0,0,0-.31-1.44,1.15,1.15,0,0,0-1-.45,1.3,1.3,0,0,0-1,.56,2.16,2.16,0,0,0-.43,1.35v3.42h-1v-3.56c0-1.18-.45-1.77-1.36-1.77a1.28,1.28,0,0,0-1.05.53,2.2,2.2,0,0,0-.41,1.38v3.42h-1v-6h1v.95h0a2,2,0,0,1,1.86-1.09,1.77,1.77,0,0,1,1.07.34,1.75,1.75,0,0,1,.63.9,2.15,2.15,0,0,1,2-1.24c1.32,0,2,.82,2,2.44Z" fill="#1e1e1e"/>
      <path d="M216.92,201h-4.24a2.28,2.28,0,0,0,.54,1.55,1.88,1.88,0,0,0,1.42.54,2.94,2.94,0,0,0,1.86-.66v.9a3.47,3.47,0,0,1-2.09.57,2.56,2.56,0,0,1-2-.81,3.39,3.39,0,0,1-.72-2.3,3.29,3.29,0,0,1,.79-2.29,2.58,2.58,0,0,1,2-.88,2.25,2.25,0,0,1,1.82.76,3.2,3.2,0,0,1,.65,2.12Zm-1-.81a1.91,1.91,0,0,0-.4-1.3,1.36,1.36,0,0,0-1.1-.46,1.54,1.54,0,0,0-1.15.49,2.19,2.19,0,0,0-.59,1.27Z" fill="#1e1e1e"/>
      <path d="M223.49,203.78h-1v-1h0a2.21,2.21,0,0,1-2.06,1.16,2.25,2.25,0,0,1-1.81-.8,3.33,3.33,0,0,1-.68-2.2,3.59,3.59,0,0,1,.75-2.38,2.48,2.48,0,0,1,2-.9,2,2,0,0,1,1.8,1h0V194.9h1Zm-1-2.71v-.89a1.73,1.73,0,0,0-.48-1.23,1.62,1.62,0,0,0-1.22-.5,1.69,1.69,0,0,0-1.38.64,2.82,2.82,0,0,0-.5,1.79,2.53,2.53,0,0,0,.48,1.63,1.57,1.57,0,0,0,1.3.6,1.63,1.63,0,0,0,1.3-.58A2.11,2.11,0,0,0,222.53,201.07Z" fill="#1e1e1e"/>
      <path d="M225.93,196.26a.6.6,0,0,1-.44-.18.57.57,0,0,1-.18-.44.61.61,0,0,1,.18-.45.6.6,0,0,1,.44-.18.62.62,0,0,1,.63.63.6.6,0,0,1-.18.44A.61.61,0,0,1,225.93,196.26Zm.47,7.52h-1v-6h1Z" fill="#1e1e1e"/>
      <path d="M232.64,203.78h-1v-.94h0a2,2,0,0,1-1.85,1.08,2,2,0,0,1-1.4-.47,1.65,1.65,0,0,1-.51-1.26c0-1.12.66-1.77,2-2l1.8-.25c0-1-.41-1.53-1.24-1.53a3,3,0,0,0-1.95.74v-1a3.75,3.75,0,0,1,2-.56c1.41,0,2.12.75,2.12,2.24Zm-1-3-1.45.2a2.35,2.35,0,0,0-1,.33,1,1,0,0,0-.34.84.93.93,0,0,0,.32.72,1.22,1.22,0,0,0,.83.27,1.51,1.51,0,0,0,1.18-.5,1.78,1.78,0,0,0,.47-1.27Z" fill="#1e1e1e"/>
      <path d="M242,203.78h-1v-.94h0a2,2,0,0,1-1.85,1.08,2,2,0,0,1-1.4-.47,1.65,1.65,0,0,1-.51-1.26c0-1.12.66-1.77,2-2l1.8-.25q0-1.53-1.23-1.53a3,3,0,0,0-2,.74v-1a3.76,3.76,0,0,1,2-.56c1.41,0,2.11.75,2.11,2.24Zm-1-3-1.45.2a2.25,2.25,0,0,0-1,.33,1,1,0,0,0-.34.84.92.92,0,0,0,.31.72,1.25,1.25,0,0,0,.84.27,1.53,1.53,0,0,0,1.18-.5,1.77,1.77,0,0,0,.46-1.27Z" fill="#1e1e1e"/>
      <path d="M248.82,203.78h-1v-3.42c0-1.27-.46-1.91-1.39-1.91a1.5,1.5,0,0,0-1.19.54,2,2,0,0,0-.48,1.37v3.42h-1v-6h1v1h0a2.16,2.16,0,0,1,2-1.14,1.82,1.82,0,0,1,1.5.64,2.79,2.79,0,0,1,.52,1.83Z" fill="#1e1e1e"/>
      <path d="M255.76,203.78h-1v-1h0a2.2,2.2,0,0,1-2.06,1.16,2.25,2.25,0,0,1-1.81-.8,3.33,3.33,0,0,1-.68-2.2,3.59,3.59,0,0,1,.75-2.38,2.48,2.48,0,0,1,2-.9,1.93,1.93,0,0,1,1.8,1h0V194.9h1Zm-1-2.71v-.89a1.73,1.73,0,0,0-.48-1.23,1.61,1.61,0,0,0-1.21-.5,1.7,1.7,0,0,0-1.39.64,2.88,2.88,0,0,0-.5,1.79,2.53,2.53,0,0,0,.48,1.63,1.59,1.59,0,0,0,1.3.6,1.63,1.63,0,0,0,1.3-.58A2.11,2.11,0,0,0,254.79,201.07Z" fill="#1e1e1e"/>
      <path d="M168.78,212a1.18,1.18,0,0,0-.73-.2,1.25,1.25,0,0,0-1,.58,2.74,2.74,0,0,0-.41,1.58V217h-1v-6h1v1.24h0a2.17,2.17,0,0,1,.63-1,1.44,1.44,0,0,1,.94-.35,1.52,1.52,0,0,1,.58.08Z" fill="#1e1e1e"/>
      <path d="M174.64,214.22H170.4a2.28,2.28,0,0,0,.54,1.55,1.88,1.88,0,0,0,1.42.54,2.94,2.94,0,0,0,1.86-.66v.9a3.47,3.47,0,0,1-2.09.57,2.53,2.53,0,0,1-2-.81,3.34,3.34,0,0,1-.73-2.3,3.29,3.29,0,0,1,.79-2.29,2.58,2.58,0,0,1,2-.88,2.29,2.29,0,0,1,1.83.76,3.19,3.19,0,0,1,.64,2.12Zm-1-.81a2,2,0,0,0-.4-1.3,1.37,1.37,0,0,0-1.1-.46,1.54,1.54,0,0,0-1.16.49,2.18,2.18,0,0,0-.58,1.27Z" fill="#1e1e1e"/>
      <path d="M181.22,217h-1v-1h0a2.2,2.2,0,0,1-2.06,1.16,2.25,2.25,0,0,1-1.81-.8,3.33,3.33,0,0,1-.68-2.2,3.59,3.59,0,0,1,.75-2.38,2.48,2.48,0,0,1,2-.9,1.93,1.93,0,0,1,1.8,1h0V208.1h1Zm-1-2.71v-.89a1.73,1.73,0,0,0-.48-1.23,1.61,1.61,0,0,0-1.21-.5,1.7,1.7,0,0,0-1.39.64,2.88,2.88,0,0,0-.5,1.79,2.53,2.53,0,0,0,.48,1.63,1.59,1.59,0,0,0,1.3.6,1.63,1.63,0,0,0,1.3-.58A2.11,2.11,0,0,0,180.25,214.27Z" fill="#1e1e1e"/>
      <path d="M188,217h-1V216h0a2,2,0,0,1-1.85,1.09c-1.43,0-2.15-.85-2.15-2.55V211h1v3.44c0,1.26.48,1.89,1.45,1.89a1.5,1.5,0,0,0,1.16-.51,2,2,0,0,0,.45-1.36V211h1Z" fill="#1e1e1e"/>
      <path d="M194,216.71a3.19,3.19,0,0,1-1.64.41,2.73,2.73,0,0,1-2.07-.83,3,3,0,0,1-.79-2.17,3.3,3.3,0,0,1,.85-2.38,3,3,0,0,1,2.27-.9,3.2,3.2,0,0,1,1.39.29v1a2.45,2.45,0,0,0-1.43-.47,2,2,0,0,0-1.51.66,2.51,2.51,0,0,0-.58,1.73,2.4,2.4,0,0,0,.55,1.67,1.91,1.91,0,0,0,1.48.6,2.39,2.39,0,0,0,1.48-.52Z" fill="#1e1e1e"/>
      <path d="M200.32,214.22h-4.24a2.28,2.28,0,0,0,.54,1.55,1.87,1.87,0,0,0,1.42.54,3,3,0,0,0,1.86-.66v.9a3.5,3.5,0,0,1-2.09.57,2.56,2.56,0,0,1-2-.81,3.39,3.39,0,0,1-.73-2.3,3.29,3.29,0,0,1,.8-2.29,2.56,2.56,0,0,1,2-.88,2.27,2.27,0,0,1,1.82.76,3.2,3.2,0,0,1,.65,2.12Zm-1-.81a2,2,0,0,0-.4-1.3,1.36,1.36,0,0,0-1.1-.46,1.52,1.52,0,0,0-1.15.49,2.19,2.19,0,0,0-.59,1.27Z" fill="#1e1e1e"/>
      <path d="M208,208.94a1.34,1.34,0,0,0-.64-.15c-.67,0-1,.42-1,1.27V211h1.4v.82h-1.4V217h-1V211.8h-1V211h1v-1a2,2,0,0,1,.55-1.49,1.8,1.8,0,0,1,1.35-.55,1.86,1.86,0,0,1,.7.11Z" fill="#1e1e1e"/>
      <path d="M209.31,209.46a.59.59,0,0,1-.44-.18.55.55,0,0,1-.19-.44.63.63,0,0,1,.63-.63.6.6,0,0,1,.44.18.58.58,0,0,1,.19.45.58.58,0,0,1-.19.44A.6.6,0,0,1,209.31,209.46Zm.46,7.52h-1v-6h1Z" fill="#1e1e1e"/>
      <path d="M212.68,217h-1V208.1h1Z" fill="#1e1e1e"/>
      <path d="M219.45,214.22h-4.24a2.28,2.28,0,0,0,.54,1.55,1.87,1.87,0,0,0,1.42.54,3,3,0,0,0,1.86-.66v.9a3.5,3.5,0,0,1-2.09.57,2.56,2.56,0,0,1-2-.81,3.39,3.39,0,0,1-.72-2.3,3.29,3.29,0,0,1,.79-2.29,2.58,2.58,0,0,1,2-.88,2.27,2.27,0,0,1,1.82.76,3.2,3.2,0,0,1,.65,2.12Zm-1-.81a1.91,1.91,0,0,0-.4-1.3,1.36,1.36,0,0,0-1.1-.46,1.54,1.54,0,0,0-1.15.49,2.19,2.19,0,0,0-.59,1.27Z" fill="#1e1e1e"/>
      <path d="M223.82,216.77v-1a2.84,2.84,0,0,0,1.73.58c.85,0,1.27-.28,1.27-.84a.76.76,0,0,0-.11-.41,1,1,0,0,0-.29-.29,1.83,1.83,0,0,0-.44-.23l-.53-.22a5.16,5.16,0,0,1-.7-.32,2.21,2.21,0,0,1-.51-.36,1.52,1.52,0,0,1-.3-.46,1.57,1.57,0,0,1-.1-.6,1.42,1.42,0,0,1,.19-.75,1.7,1.7,0,0,1,.52-.55,2.71,2.71,0,0,1,.73-.33,3.59,3.59,0,0,1,2.25.16v1a2.71,2.71,0,0,0-1.53-.43,1.75,1.75,0,0,0-.48.06,1.15,1.15,0,0,0-.37.17.76.76,0,0,0-.24.27.67.67,0,0,0-.09.34.82.82,0,0,0,.09.4.9.9,0,0,0,.24.28,2.48,2.48,0,0,0,.4.22l.54.22a6.85,6.85,0,0,1,.71.31,2.82,2.82,0,0,1,.54.36,1.41,1.41,0,0,1,.34.47,1.51,1.51,0,0,1,.12.63,1.49,1.49,0,0,1-.19.77,1.74,1.74,0,0,1-.53.55,2.54,2.54,0,0,1-.75.32,3.82,3.82,0,0,1-.9.1A3.54,3.54,0,0,1,223.82,216.77Z" fill="#1e1e1e"/>
      <path d="M229.77,209.46a.6.6,0,0,1-.44-.18.57.57,0,0,1-.18-.44.61.61,0,0,1,.18-.45.6.6,0,0,1,.44-.18.62.62,0,0,1,.63.63.6.6,0,0,1-.18.44A.61.61,0,0,1,229.77,209.46Zm.47,7.52h-1v-6h1Z" fill="#1e1e1e"/>
      <path d="M236.37,211.26l-3.55,4.9h3.51V217h-4.92v-.3L235,211.8h-3.22V211h4.63Z" fill="#1e1e1e"/>
      <path d="M242.43,214.22H238.2a2.19,2.19,0,0,0,.54,1.55,1.85,1.85,0,0,0,1.41.54,3,3,0,0,0,1.87-.66v.9a3.52,3.52,0,0,1-2.09.57,2.54,2.54,0,0,1-2-.81,3.34,3.34,0,0,1-.73-2.3,3.29,3.29,0,0,1,.8-2.29,2.55,2.55,0,0,1,2-.88,2.28,2.28,0,0,1,1.82.76,3.19,3.19,0,0,1,.64,2.12Zm-1-.81a2,2,0,0,0-.4-1.3,1.37,1.37,0,0,0-1.1-.46,1.52,1.52,0,0,0-1.15.49,2.13,2.13,0,0,0-.59,1.27Z" fill="#1e1e1e"/>
    </g>
    <g>
      <path d="M396.28,203.44v-1.16a2.5,2.5,0,0,0,.48.32,5.19,5.19,0,0,0,.59.24c.2.06.41.11.61.15a4.13,4.13,0,0,0,.58,0,2.18,2.18,0,0,0,1.35-.34,1.26,1.26,0,0,0,.3-1.56,1.6,1.6,0,0,0-.41-.46,4.43,4.43,0,0,0-.62-.4l-.78-.4c-.29-.15-.57-.3-.82-.45a3.4,3.4,0,0,1-.66-.51,1.9,1.9,0,0,1-.44-.62,1.87,1.87,0,0,1-.17-.82,1.93,1.93,0,0,1,.26-1,2.1,2.1,0,0,1,.66-.7,3,3,0,0,1,.93-.41,4.29,4.29,0,0,1,1.07-.13,4.08,4.08,0,0,1,1.81.3v1.11a3.22,3.22,0,0,0-1.91-.52,2.79,2.79,0,0,0-.64.07,1.75,1.75,0,0,0-.58.22,1.38,1.38,0,0,0-.41.39,1.1,1.1,0,0,0-.15.59,1.18,1.18,0,0,0,.12.55,1.28,1.28,0,0,0,.35.43,3.75,3.75,0,0,0,.57.37c.23.13.48.26.78.4s.58.31.85.47a4,4,0,0,1,.71.55,2.36,2.36,0,0,1,.49.66,2,2,0,0,1,.17.83,2.09,2.09,0,0,1-.24,1.05,1.93,1.93,0,0,1-.66.7,2.8,2.8,0,0,1-1,.39,5.22,5.22,0,0,1-1.13.12l-.5,0-.59-.09a3.28,3.28,0,0,1-.58-.16A1.65,1.65,0,0,1,396.28,203.44Z" fill="#1e1e1e"/>
      <path d="M405.43,203.92a2.76,2.76,0,0,1-2.12-.84,3.11,3.11,0,0,1-.8-2.23,3.25,3.25,0,0,1,.83-2.36,3,3,0,0,1,2.23-.85,2.69,2.69,0,0,1,2.09.83,3.75,3.75,0,0,1-.05,4.59A2.88,2.88,0,0,1,405.43,203.92Zm.07-5.47a1.84,1.84,0,0,0-1.47.63,2.64,2.64,0,0,0-.53,1.74,2.46,2.46,0,0,0,.54,1.68,1.85,1.85,0,0,0,1.46.61,1.75,1.75,0,0,0,1.43-.6,2.58,2.58,0,0,0,.5-1.72,2.62,2.62,0,0,0-.5-1.73A1.73,1.73,0,0,0,405.5,198.45Z" fill="#1e1e1e"/>
      <path d="M410.91,203.78h-1V194.9h1Z" fill="#1e1e1e"/>
      <path d="M417.71,203.78h-1v-.95h0a2,2,0,0,1-1.86,1.09c-1.43,0-2.14-.85-2.14-2.55v-3.59h.95v3.44c0,1.26.49,1.89,1.46,1.89a1.5,1.5,0,0,0,1.16-.51,2,2,0,0,0,.45-1.36v-3.46h1Z" fill="#1e1e1e"/>
      <path d="M422.43,203.72a1.76,1.76,0,0,1-.89.19c-1.05,0-1.58-.58-1.58-1.76V198.6h-1v-.82h1v-1.46l1-.31v1.77h1.51v.82h-1.51V202a1.35,1.35,0,0,0,.21.86.78.78,0,0,0,.68.26.94.94,0,0,0,.62-.2Z" fill="#1e1e1e"/>
      <path d="M424.21,196.26a.6.6,0,0,1-.44-.18.57.57,0,0,1-.18-.44.61.61,0,0,1,.18-.45.6.6,0,0,1,.44-.18.64.64,0,0,1,.45.18.61.61,0,0,1,.18.45.6.6,0,0,1-.18.44A.64.64,0,0,1,424.21,196.26Zm.47,7.52h-1v-6h1Z" fill="#1e1e1e"/>
      <path d="M429.13,203.92a2.77,2.77,0,0,1-2.12-.84,3.11,3.11,0,0,1-.8-2.23,3.25,3.25,0,0,1,.83-2.36,3,3,0,0,1,2.23-.85,2.71,2.71,0,0,1,2.1.83,3.27,3.27,0,0,1,.75,2.29,3.23,3.23,0,0,1-.81,2.3A2.87,2.87,0,0,1,429.13,203.92Zm.07-5.47a1.81,1.81,0,0,0-1.46.63,2.59,2.59,0,0,0-.54,1.74,2.46,2.46,0,0,0,.54,1.68,1.85,1.85,0,0,0,1.46.61,1.75,1.75,0,0,0,1.43-.6,2.58,2.58,0,0,0,.5-1.72,2.62,2.62,0,0,0-.5-1.73A1.73,1.73,0,0,0,429.2,198.45Z" fill="#1e1e1e"/>
      <path d="M438.63,203.78h-1v-3.42c0-1.27-.46-1.91-1.39-1.91a1.5,1.5,0,0,0-1.19.54,2,2,0,0,0-.48,1.37v3.42h-1v-6h1v1h0a2.16,2.16,0,0,1,2-1.14,1.82,1.82,0,0,1,1.5.64,2.79,2.79,0,0,1,.52,1.83Z" fill="#1e1e1e"/>
      <path d="M451.29,197.78l-1.8,6h-1l-1.24-4.29a2.34,2.34,0,0,1-.09-.56h0a2.64,2.64,0,0,1-.12.55l-1.34,4.3h-1l-1.82-6h1l1.24,4.51a2.38,2.38,0,0,1,.08.54h0a3.06,3.06,0,0,1,.1-.55l1.39-4.5h.88l1.24,4.53a3,3,0,0,1,.09.53h0a2.42,2.42,0,0,1,.1-.53l1.22-4.53Z" fill="#1e1e1e"/>
      <path d="M452.9,196.26a.59.59,0,0,1-.44-.18.58.58,0,0,1-.19-.44.62.62,0,0,1,.19-.45.59.59,0,0,1,.44-.18.6.6,0,0,1,.44.18.58.58,0,0,1,.19.45.58.58,0,0,1-.19.44A.6.6,0,0,1,452.9,196.26Zm.46,7.52h-1v-6h1Z" fill="#1e1e1e"/>
      <path d="M456.27,203.78h-1V194.9h1Z" fill="#1e1e1e"/>
      <path d="M459.18,203.78h-1V194.9h1Z" fill="#1e1e1e"/>
      <path d="M469.39,203.78h-1v-3.42c0-1.27-.47-1.91-1.4-1.91a1.52,1.52,0,0,0-1.19.54,2,2,0,0,0-.47,1.37v3.42h-1v-6h1v1h0a2.17,2.17,0,0,1,2-1.14,1.83,1.83,0,0,1,1.51.64,2.79,2.79,0,0,1,.52,1.83Z" fill="#1e1e1e"/>
      <path d="M473.71,203.92a2.79,2.79,0,0,1-2.13-.84,3.15,3.15,0,0,1-.79-2.23,3.25,3.25,0,0,1,.83-2.36,3,3,0,0,1,2.23-.85,2.69,2.69,0,0,1,2.09.83,3.75,3.75,0,0,1-.05,4.59A2.88,2.88,0,0,1,473.71,203.92Zm.07-5.47a1.84,1.84,0,0,0-1.47.63,2.59,2.59,0,0,0-.54,1.74,2.46,2.46,0,0,0,.55,1.68,1.85,1.85,0,0,0,1.46.61,1.75,1.75,0,0,0,1.43-.6,2.58,2.58,0,0,0,.5-1.72,2.62,2.62,0,0,0-.5-1.73A1.73,1.73,0,0,0,473.78,198.45Z" fill="#1e1e1e"/>
      <path d="M481,203.72a1.76,1.76,0,0,1-.89.19c-1.05,0-1.58-.58-1.58-1.76V198.6h-1v-.82h1v-1.46l1-.31v1.77H481v.82H479.5V202a1.35,1.35,0,0,0,.21.86.8.8,0,0,0,.68.26.94.94,0,0,0,.62-.2Z" fill="#1e1e1e"/>
      <path d="M397.71,217h-1v-3.44a2.52,2.52,0,0,0-.31-1.44,1.15,1.15,0,0,0-1-.45,1.3,1.3,0,0,0-1.05.56,2.22,2.22,0,0,0-.43,1.35V217h-1v-3.56c0-1.18-.45-1.77-1.36-1.77a1.28,1.28,0,0,0-1.05.53,2.2,2.2,0,0,0-.41,1.38V217h-1v-6h1v1h0a2,2,0,0,1,1.86-1.09,1.77,1.77,0,0,1,1.07.34,1.69,1.69,0,0,1,.63.9,2.15,2.15,0,0,1,2-1.24c1.32,0,2,.82,2,2.45Z" fill="#1e1e1e"/>
      <path d="M404.35,214.22h-4.24a2.28,2.28,0,0,0,.54,1.55,1.88,1.88,0,0,0,1.42.54,2.94,2.94,0,0,0,1.86-.66v.9a3.47,3.47,0,0,1-2.09.57,2.53,2.53,0,0,1-2-.81,3.34,3.34,0,0,1-.73-2.3,3.29,3.29,0,0,1,.79-2.29,2.58,2.58,0,0,1,2-.88,2.29,2.29,0,0,1,1.83.76,3.19,3.19,0,0,1,.64,2.12Zm-1-.81a2,2,0,0,0-.4-1.3,1.37,1.37,0,0,0-1.1-.46,1.54,1.54,0,0,0-1.16.49,2.18,2.18,0,0,0-.58,1.27Z" fill="#1e1e1e"/>
      <path d="M410.63,214.22h-4.24a2.28,2.28,0,0,0,.54,1.55,1.87,1.87,0,0,0,1.42.54,3,3,0,0,0,1.86-.66v.9a3.5,3.5,0,0,1-2.09.57,2.54,2.54,0,0,1-2-.81,3.39,3.39,0,0,1-.73-2.3,3.29,3.29,0,0,1,.8-2.29,2.56,2.56,0,0,1,2-.88,2.28,2.28,0,0,1,1.82.76,3.2,3.2,0,0,1,.65,2.12Zm-1-.81a2,2,0,0,0-.4-1.3,1.36,1.36,0,0,0-1.1-.46,1.52,1.52,0,0,0-1.15.49,2.19,2.19,0,0,0-.59,1.27Z" fill="#1e1e1e"/>
      <path d="M414.86,216.92a1.76,1.76,0,0,1-.89.19c-1.05,0-1.58-.58-1.58-1.76V211.8h-1V211h1v-1.46l1-.31V211h1.51v.82h-1.51v3.38a1.35,1.35,0,0,0,.21.86.78.78,0,0,0,.68.26.94.94,0,0,0,.62-.2Z" fill="#1e1e1e"/>
      <path d="M422.56,212a1.16,1.16,0,0,0-.72-.2,1.24,1.24,0,0,0-1,.58,2.67,2.67,0,0,0-.42,1.58V217h-1v-6h1v1.24h0a2.08,2.08,0,0,1,.62-1,1.49,1.49,0,0,1,.95-.35,1.44,1.44,0,0,1,.57.08Z" fill="#1e1e1e"/>
      <path d="M428.43,214.22h-4.24a2.28,2.28,0,0,0,.54,1.55,1.87,1.87,0,0,0,1.42.54,3,3,0,0,0,1.86-.66v.9a3.5,3.5,0,0,1-2.09.57,2.56,2.56,0,0,1-2-.81,3.39,3.39,0,0,1-.73-2.3,3.29,3.29,0,0,1,.8-2.29,2.58,2.58,0,0,1,2-.88,2.27,2.27,0,0,1,1.82.76,3.2,3.2,0,0,1,.65,2.12Zm-1-.81a1.91,1.91,0,0,0-.4-1.3,1.36,1.36,0,0,0-1.1-.46,1.52,1.52,0,0,0-1.15.49,2.19,2.19,0,0,0-.59,1.27Z" fill="#1e1e1e"/>
      <path d="M435,219.74h-1V216h0a2.15,2.15,0,0,1-2,1.17,2.29,2.29,0,0,1-1.82-.8,3.33,3.33,0,0,1-.68-2.2,3.57,3.57,0,0,1,.75-2.38,2.49,2.49,0,0,1,2-.9,1.91,1.91,0,0,1,1.78,1h0V211h1Zm-1-5.46v-.87a1.76,1.76,0,0,0-.48-1.25,1.76,1.76,0,0,0-2.6.13,2.85,2.85,0,0,0-.51,1.81,2.53,2.53,0,0,0,.49,1.63,1.54,1.54,0,0,0,1.25.58,1.7,1.7,0,0,0,1.35-.57A2.17,2.17,0,0,0,434,214.28Z" fill="#1e1e1e"/>
      <path d="M441.8,217h-1V216h0a2,2,0,0,1-1.85,1.09c-1.43,0-2.14-.85-2.14-2.55V211h.95v3.44c0,1.26.49,1.89,1.46,1.89a1.47,1.47,0,0,0,1.15-.51,2,2,0,0,0,.46-1.36V211h1Z" fill="#1e1e1e"/>
      <path d="M444.23,209.46a.6.6,0,0,1-.44-.18.57.57,0,0,1-.18-.44.61.61,0,0,1,.18-.45.6.6,0,0,1,.44-.18.62.62,0,0,1,.63.63.6.6,0,0,1-.18.44A.61.61,0,0,1,444.23,209.46Zm.47,7.52h-1v-6h1Z" fill="#1e1e1e"/>
      <path d="M449.77,212a1.16,1.16,0,0,0-.72-.2,1.24,1.24,0,0,0-1,.58,2.67,2.67,0,0,0-.42,1.58V217h-1v-6h1v1.24h0a2,2,0,0,1,.63-1,1.61,1.61,0,0,1,1.51-.27Z" fill="#1e1e1e"/>
      <path d="M455.64,214.22H451.4a2.28,2.28,0,0,0,.54,1.55,1.87,1.87,0,0,0,1.42.54,3,3,0,0,0,1.86-.66v.9a3.5,3.5,0,0,1-2.09.57,2.56,2.56,0,0,1-2-.81,3.39,3.39,0,0,1-.72-2.3,3.29,3.29,0,0,1,.79-2.29,2.58,2.58,0,0,1,2-.88,2.27,2.27,0,0,1,1.82.76,3.2,3.2,0,0,1,.65,2.12Zm-1-.81a1.91,1.91,0,0,0-.4-1.3,1.36,1.36,0,0,0-1.1-.46,1.54,1.54,0,0,0-1.15.49,2.19,2.19,0,0,0-.59,1.27Z" fill="#1e1e1e"/>
      <path d="M465.61,217h-1v-3.44a2.52,2.52,0,0,0-.31-1.44,1.15,1.15,0,0,0-1-.45,1.3,1.3,0,0,0-1.05.56,2.16,2.16,0,0,0-.43,1.35V217h-1v-3.56c0-1.18-.45-1.77-1.36-1.77a1.28,1.28,0,0,0-1.05.53,2.2,2.2,0,0,0-.41,1.38V217h-1v-6h1v1h0a2,2,0,0,1,1.86-1.09,1.77,1.77,0,0,1,1.07.34,1.75,1.75,0,0,1,.63.9,2.15,2.15,0,0,1,2-1.24c1.32,0,2,.82,2,2.45Z" fill="#1e1e1e"/>
      <path d="M472.25,214.22H468a2.28,2.28,0,0,0,.54,1.55,1.88,1.88,0,0,0,1.42.54,2.94,2.94,0,0,0,1.86-.66v.9a3.47,3.47,0,0,1-2.09.57,2.56,2.56,0,0,1-2-.81A3.39,3.39,0,0,1,467,214a3.29,3.29,0,0,1,.79-2.29,2.58,2.58,0,0,1,2-.88,2.25,2.25,0,0,1,1.82.76,3.2,3.2,0,0,1,.65,2.12Zm-1-.81a1.91,1.91,0,0,0-.4-1.3,1.36,1.36,0,0,0-1.1-.46,1.54,1.54,0,0,0-1.15.49,2.19,2.19,0,0,0-.59,1.27Z" fill="#1e1e1e"/>
      <path d="M478.68,217h-1v-3.42c0-1.27-.46-1.91-1.39-1.91a1.5,1.5,0,0,0-1.19.54,2,2,0,0,0-.48,1.37V217h-1v-6h1v1h0a2.16,2.16,0,0,1,2-1.14,1.82,1.82,0,0,1,1.5.64,2.79,2.79,0,0,1,.52,1.83Z" fill="#1e1e1e"/>
      <path d="M483.28,216.92a1.82,1.82,0,0,1-.9.19c-1.05,0-1.58-.58-1.58-1.76V211.8h-1V211h1v-1.46l1-.31V211h1.52v.82h-1.52v3.38a1.35,1.35,0,0,0,.21.86.8.8,0,0,0,.68.26,1,1,0,0,0,.63-.2Z" fill="#1e1e1e"/>
      <path d="M484.2,216.77v-1a2.82,2.82,0,0,0,1.73.58q1.26,0,1.26-.84a.76.76,0,0,0-.11-.41,1,1,0,0,0-.29-.29,1.76,1.76,0,0,0-.43-.23l-.54-.22a5.16,5.16,0,0,1-.7-.32,2,2,0,0,1-.5-.36,1.38,1.38,0,0,1-.31-.46,1.57,1.57,0,0,1-.1-.6,1.42,1.42,0,0,1,.19-.75,1.7,1.7,0,0,1,.52-.55,2.71,2.71,0,0,1,.73-.33,3.49,3.49,0,0,1,.86-.11,3.45,3.45,0,0,1,1.39.27v1a2.7,2.7,0,0,0-1.52-.43,1.83,1.83,0,0,0-.49.06,1.26,1.26,0,0,0-.37.17.76.76,0,0,0-.24.27.67.67,0,0,0-.09.34.78.78,0,0,0,.34.68,2.11,2.11,0,0,0,.4.22l.53.22a6.85,6.85,0,0,1,.71.31,2.82,2.82,0,0,1,.54.36,1.6,1.6,0,0,1,.35.47,1.64,1.64,0,0,1-.08,1.4,1.74,1.74,0,0,1-.53.55,2.43,2.43,0,0,1-.75.32,3.82,3.82,0,0,1-.9.1A3.47,3.47,0,0,1,484.2,216.77Z" fill="#1e1e1e"/>
    </g>
    <g>
      <path d="M26.6,259.48v-1.16a2.36,2.36,0,0,0,.48.32,5.19,5.19,0,0,0,.59.24,6.23,6.23,0,0,0,.62.15,3.88,3.88,0,0,0,.57.05,2.22,2.22,0,0,0,1.36-.34,1.12,1.12,0,0,0,.45-1,1.15,1.15,0,0,0-.15-.59,1.64,1.64,0,0,0-.42-.46,3.91,3.91,0,0,0-.62-.4l-.78-.4-.82-.45a3.81,3.81,0,0,1-.66-.5,2.11,2.11,0,0,1-.44-.63,1.86,1.86,0,0,1-.16-.81,1.88,1.88,0,0,1,.25-1,2.11,2.11,0,0,1,.66-.7,2.86,2.86,0,0,1,.94-.41,5,5,0,0,1,2.88.16v1.11a3.27,3.27,0,0,0-1.92-.52,2.85,2.85,0,0,0-.64.07,1.69,1.69,0,0,0-.57.22,1.18,1.18,0,0,0-.41.39,1,1,0,0,0-.16.59,1.18,1.18,0,0,0,.12.55,1.41,1.41,0,0,0,.35.43,3.76,3.76,0,0,0,.57.38l.78.4c.3.14.59.3.86.46a4,4,0,0,1,.7.55,2.36,2.36,0,0,1,.49.66,1.84,1.84,0,0,1,.18.83,2,2,0,0,1-.25,1.05,2,2,0,0,1-.65.71,3.2,3.2,0,0,1-.95.38,5.24,5.24,0,0,1-1.14.12l-.49,0q-.3,0-.6-.09a4.91,4.91,0,0,1-.58-.15A1.64,1.64,0,0,1,26.6,259.48Z" fill="#1e1e1e"/>
      <path d="M34.23,259h0v3.62h-1v-8.76h1v1.06h0a2.26,2.26,0,0,1,2.07-1.2,2.18,2.18,0,0,1,1.81.81,3.31,3.31,0,0,1,.65,2.16,3.71,3.71,0,0,1-.73,2.41,2.45,2.45,0,0,1-2,.9A2,2,0,0,1,34.23,259Zm0-2.42v.84a1.81,1.81,0,0,0,.49,1.26,1.72,1.72,0,0,0,2.59-.15,3.09,3.09,0,0,0,.5-1.86,2.47,2.47,0,0,0-.46-1.57,1.54,1.54,0,0,0-1.26-.57,1.71,1.71,0,0,0-1.35.59A2.11,2.11,0,0,0,34.2,256.54Z" fill="#1e1e1e"/>
      <path d="M45.12,257.06H40.88a2.28,2.28,0,0,0,.54,1.55,1.89,1.89,0,0,0,1.42.55,3,3,0,0,0,1.86-.67v.9a3.47,3.47,0,0,1-2.09.57,2.56,2.56,0,0,1-2-.81,3.37,3.37,0,0,1-.72-2.3,3.25,3.25,0,0,1,.79-2.28,2.55,2.55,0,0,1,2-.89,2.26,2.26,0,0,1,1.83.77,3.15,3.15,0,0,1,.64,2.11Zm-1-.81a1.93,1.93,0,0,0-.41-1.29,1.36,1.36,0,0,0-1.09-.47,1.54,1.54,0,0,0-1.16.49,2.21,2.21,0,0,0-.58,1.27Z" fill="#1e1e1e"/>
      <path d="M50.66,259.55A3.07,3.07,0,0,1,49,260a2.71,2.71,0,0,1-2.07-.83,3.06,3.06,0,0,1-.79-2.17,3.36,3.36,0,0,1,.85-2.38,3,3,0,0,1,2.27-.9,3.13,3.13,0,0,1,1.4.3v1a2.49,2.49,0,0,0-1.43-.47,1.92,1.92,0,0,0-1.51.66,2.47,2.47,0,0,0-.59,1.73,2.39,2.39,0,0,0,.55,1.67,1.94,1.94,0,0,0,1.49.61,2.39,2.39,0,0,0,1.47-.53Z" fill="#1e1e1e"/>
      <path d="M52.61,252.3a.64.64,0,0,1-.44-.17.65.65,0,0,1,0-.9.6.6,0,0,1,.44-.18.64.64,0,0,1,.45.18.61.61,0,0,1,.18.45.6.6,0,0,1-.18.44A.64.64,0,0,1,52.61,252.3Zm.47,7.52h-1v-6h1Z" fill="#1e1e1e"/>
      <path d="M58,251.79a1.24,1.24,0,0,0-.64-.16c-.67,0-1,.42-1,1.27v.92h1.41v.82H56.34v5.18h-1v-5.18h-1v-.82h1v-1a2,2,0,0,1,.54-1.49,1.86,1.86,0,0,1,1.36-.55,1.9,1.9,0,0,1,.7.11Z" fill="#1e1e1e"/>
      <path d="M63.55,253.82l-2.76,7q-.74,1.86-2.07,1.86a2.25,2.25,0,0,1-.63-.08v-.86a1.84,1.84,0,0,0,.57.11,1.17,1.17,0,0,0,1.09-.87l.48-1.14-2.34-6H59l1.63,4.62c0,.06.06.21.12.46h0c0-.1,0-.24.11-.45l1.71-4.63Z" fill="#1e1e1e"/>
      <path d="M70.66,259.77a2,2,0,0,1-.9.18c-1.05,0-1.58-.58-1.58-1.75v-3.56h-1v-.82h1v-1.46l1-.31v1.77h1.52v.82H69.14V258a1.39,1.39,0,0,0,.21.86.82.82,0,0,0,.68.25,1,1,0,0,0,.63-.19Z" fill="#1e1e1e"/>
      <path d="M76.92,259.82H76v-3.45c0-1.25-.47-1.88-1.4-1.88a1.53,1.53,0,0,0-1.18.54,2.05,2.05,0,0,0-.48,1.4v3.39h-1v-8.88h1v3.88h0a2.18,2.18,0,0,1,2-1.14c1.35,0,2,.82,2,2.45Z" fill="#1e1e1e"/>
      <path d="M83.55,257.06H79.32a2.23,2.23,0,0,0,.53,1.55,1.89,1.89,0,0,0,1.42.55,3,3,0,0,0,1.87-.67v.9A3.53,3.53,0,0,1,81,260a2.53,2.53,0,0,1-2-.81,3.33,3.33,0,0,1-.73-2.3,3.25,3.25,0,0,1,.79-2.28,2.56,2.56,0,0,1,2-.89,2.26,2.26,0,0,1,1.82.77,3.15,3.15,0,0,1,.64,2.11Zm-1-.81a2,2,0,0,0-.4-1.29,1.38,1.38,0,0,0-1.1-.47,1.54,1.54,0,0,0-1.16.49,2.21,2.21,0,0,0-.58,1.27Z" fill="#1e1e1e"/>
      <path d="M87.93,259.61v-1a2.88,2.88,0,0,0,1.73.58c.84,0,1.26-.28,1.26-.85a.65.65,0,0,0-.11-.4,1,1,0,0,0-.29-.3,2.18,2.18,0,0,0-.43-.23l-.54-.22a5.79,5.79,0,0,1-.7-.32,1.74,1.74,0,0,1-.5-.36A1.29,1.29,0,0,1,88,256a1.57,1.57,0,0,1-.1-.6,1.55,1.55,0,0,1,.19-.75,1.58,1.58,0,0,1,.52-.54,2.4,2.4,0,0,1,.74-.34,3.35,3.35,0,0,1,.85-.11,3.41,3.41,0,0,1,1.39.27v1a2.71,2.71,0,0,0-1.52-.44,1.88,1.88,0,0,0-.49.06,1.06,1.06,0,0,0-.37.18A.85.85,0,0,0,89,255a.69.69,0,0,0-.08.35.8.8,0,0,0,.08.39.94.94,0,0,0,.25.28,1.67,1.67,0,0,0,.4.22l.53.22c.27.1.5.21.72.31a2.16,2.16,0,0,1,.53.37,1.41,1.41,0,0,1,.35.46,1.54,1.54,0,0,1,.12.63,1.47,1.47,0,0,1-.2.77,1.7,1.7,0,0,1-.52.55,2.49,2.49,0,0,1-.76.32,3.71,3.71,0,0,1-.9.1A3.37,3.37,0,0,1,87.93,259.61Z" fill="#1e1e1e"/>
      <path d="M95.89,260a2.79,2.79,0,0,1-2.12-.84,3.11,3.11,0,0,1-.8-2.23,3.26,3.26,0,0,1,.83-2.36,3,3,0,0,1,2.23-.85,2.7,2.7,0,0,1,2.1.83,3.27,3.27,0,0,1,.75,2.29,3.23,3.23,0,0,1-.81,2.3A2.83,2.83,0,0,1,95.89,260Zm.07-5.47a1.83,1.83,0,0,0-1.46.63,2.59,2.59,0,0,0-.54,1.74,2.46,2.46,0,0,0,.54,1.68,1.87,1.87,0,0,0,1.46.62,1.73,1.73,0,0,0,1.43-.61,2.57,2.57,0,0,0,.51-1.71,2.65,2.65,0,0,0-.51-1.74A1.76,1.76,0,0,0,96,254.49Z" fill="#1e1e1e"/>
      <path d="M105.27,259.82h-1v-.94h0a2,2,0,0,1-1.85,1.08c-1.43,0-2.14-.85-2.14-2.55v-3.59h.95v3.44c0,1.26.49,1.9,1.45,1.9a1.49,1.49,0,0,0,1.16-.52,2,2,0,0,0,.46-1.36v-3.46h1Z" fill="#1e1e1e"/>
      <path d="M110.34,254.8a1.18,1.18,0,0,0-.73-.2,1.25,1.25,0,0,0-1,.58,2.75,2.75,0,0,0-.41,1.59v3.05h-1v-6h1v1.24h0a2.17,2.17,0,0,1,.63-1,1.44,1.44,0,0,1,.94-.35,1.75,1.75,0,0,1,.58.08Z" fill="#1e1e1e"/>
      <path d="M115.47,259.55a3.1,3.1,0,0,1-1.64.41,2.68,2.68,0,0,1-2.07-.83A3,3,0,0,1,111,257a3.32,3.32,0,0,1,.85-2.38,3,3,0,0,1,2.27-.9,3.09,3.09,0,0,1,1.39.3v1a2.47,2.47,0,0,0-1.43-.47,1.93,1.93,0,0,0-1.51.66,2.52,2.52,0,0,0-.59,1.73,2.39,2.39,0,0,0,.56,1.67,1.92,1.92,0,0,0,1.48.61,2.42,2.42,0,0,0,1.48-.53Z" fill="#1e1e1e"/>
      <path d="M121.74,257.06h-4.23a2.19,2.19,0,0,0,.54,1.55,1.85,1.85,0,0,0,1.41.55,3,3,0,0,0,1.87-.67v.9a3.52,3.52,0,0,1-2.09.57,2.54,2.54,0,0,1-2-.81,3.33,3.33,0,0,1-.73-2.3,3.25,3.25,0,0,1,.8-2.28,2.52,2.52,0,0,1,2-.89,2.26,2.26,0,0,1,1.82.77,3.15,3.15,0,0,1,.64,2.11Zm-1-.81a1.93,1.93,0,0,0-.4-1.29,1.38,1.38,0,0,0-1.1-.47,1.56,1.56,0,0,0-1.16.49,2.21,2.21,0,0,0-.58,1.27Z" fill="#1e1e1e"/>
      <path d="M26.16,265.5a.62.62,0,0,1-.44-.17.65.65,0,0,1,0-.9.59.59,0,0,1,.44-.18.6.6,0,0,1,.44.18.58.58,0,0,1,.19.45.58.58,0,0,1-.19.44A.6.6,0,0,1,26.16,265.5Zm.47,7.52h-1v-6h1Z" fill="#1e1e1e"/>
      <path d="M33.55,273h-1V269.6c0-1.27-.46-1.91-1.39-1.91a1.54,1.54,0,0,0-1.2.54,2.05,2.05,0,0,0-.47,1.37V273h-1v-6h1v1h0a2.15,2.15,0,0,1,2-1.14,1.86,1.86,0,0,1,1.51.64,2.82,2.82,0,0,1,.52,1.84Z" fill="#1e1e1e"/>
      <path d="M35,272.81v-1a2.88,2.88,0,0,0,1.73.58c.84,0,1.26-.28,1.26-.85a.65.65,0,0,0-.11-.4,1,1,0,0,0-.29-.3,2.18,2.18,0,0,0-.43-.23l-.54-.22a5.79,5.79,0,0,1-.7-.32,1.74,1.74,0,0,1-.5-.36,1.29,1.29,0,0,1-.31-.46,1.57,1.57,0,0,1-.1-.6,1.44,1.44,0,0,1,.19-.75,1.58,1.58,0,0,1,.52-.54,2.21,2.21,0,0,1,.73-.33,3.08,3.08,0,0,1,.86-.12,3.41,3.41,0,0,1,1.39.27v1a2.71,2.71,0,0,0-1.52-.44,1.88,1.88,0,0,0-.49.06,1.06,1.06,0,0,0-.37.18.85.85,0,0,0-.24.26.7.7,0,0,0-.09.35.8.8,0,0,0,.09.39.94.94,0,0,0,.25.28,1.67,1.67,0,0,0,.4.22l.53.22c.27.1.5.21.71.31a2,2,0,0,1,.54.37,1.41,1.41,0,0,1,.35.46,1.54,1.54,0,0,1,.12.63,1.47,1.47,0,0,1-.2.77,1.82,1.82,0,0,1-.52.55,2.49,2.49,0,0,1-.76.32,3.7,3.7,0,0,1-.9.11A3.37,3.37,0,0,1,35,272.81Z" fill="#1e1e1e"/>
      <path d="M43.24,273a2,2,0,0,1-.9.18c-1.05,0-1.58-.58-1.58-1.75v-3.56h-1V267h1v-1.46l1-.31V267h1.52v.82H41.72v3.39a1.37,1.37,0,0,0,.21.86.82.82,0,0,0,.68.25,1,1,0,0,0,.63-.19Z" fill="#1e1e1e"/>
      <path d="M48.81,273h-1v-.93h0A2,2,0,0,1,46,273.17a2,2,0,0,1-1.4-.48,1.65,1.65,0,0,1-.51-1.26c0-1.12.66-1.77,2-2l1.79-.25q0-1.53-1.23-1.53a3,3,0,0,0-2,.74v-1a3.68,3.68,0,0,1,2-.57c1.41,0,2.11.75,2.11,2.24Zm-1-3-1.44.2a2.3,2.3,0,0,0-1,.33,1,1,0,0,0-.34.84.92.92,0,0,0,.31.72,1.25,1.25,0,0,0,.84.28,1.56,1.56,0,0,0,1.18-.5,1.8,1.8,0,0,0,.46-1.27Z" fill="#1e1e1e"/>
      <path d="M51.59,273h-1v-8.88h1Z" fill="#1e1e1e"/>
      <path d="M54.49,273h-1v-8.88h1Z" fill="#1e1e1e"/>
      <path d="M61.26,270.26H57a2.28,2.28,0,0,0,.54,1.55,1.89,1.89,0,0,0,1.42.55,3,3,0,0,0,1.86-.67v.9a3.48,3.48,0,0,1-2.09.58,2.56,2.56,0,0,1-2-.82,3.37,3.37,0,0,1-.72-2.3,3.25,3.25,0,0,1,.79-2.28,2.55,2.55,0,0,1,2-.89,2.26,2.26,0,0,1,1.83.77,3.15,3.15,0,0,1,.64,2.11Zm-1-.81a1.93,1.93,0,0,0-.41-1.29,1.36,1.36,0,0,0-1.09-.47,1.54,1.54,0,0,0-1.16.49,2.21,2.21,0,0,0-.58,1.27Z" fill="#1e1e1e"/>
      <path d="M65.84,268a1.16,1.16,0,0,0-.72-.2,1.24,1.24,0,0,0-1,.58,2.68,2.68,0,0,0-.42,1.59v3h-1v-6h1v1.24h0a2.08,2.08,0,0,1,.62-1,1.49,1.49,0,0,1,1-.35,1.65,1.65,0,0,1,.57.08Z" fill="#1e1e1e"/>
      <path d="M73.14,265a1.24,1.24,0,0,0-.64-.16c-.67,0-1,.42-1,1.27V267H72.9v.82H71.49V273h-.95v-5.18h-1V267h1v-1a2,2,0,0,1,.54-1.49,1.86,1.86,0,0,1,1.36-.55,1.9,1.9,0,0,1,.7.11Z" fill="#1e1e1e"/>
      <path d="M76.44,273.17a2.8,2.8,0,0,1-2.13-.85,3.1,3.1,0,0,1-.79-2.23,3.26,3.26,0,0,1,.82-2.36,3,3,0,0,1,2.24-.85,2.69,2.69,0,0,1,2.09.83,3.27,3.27,0,0,1,.75,2.29,3.23,3.23,0,0,1-.81,2.3A2.82,2.82,0,0,1,76.44,273.17Zm.07-5.48a1.84,1.84,0,0,0-1.47.63,2.59,2.59,0,0,0-.54,1.74,2.41,2.41,0,0,0,.55,1.68,1.85,1.85,0,0,0,1.46.62,1.74,1.74,0,0,0,1.43-.61,2.62,2.62,0,0,0,.5-1.71,2.71,2.71,0,0,0-.5-1.74A1.77,1.77,0,0,0,76.51,267.69Z" fill="#1e1e1e"/>
      <path d="M81.92,273H81v-8.88h1Z" fill="#1e1e1e"/>
      <path d="M89,273H88v-1h0a2.21,2.21,0,0,1-2.06,1.17,2.24,2.24,0,0,1-1.81-.81,3.31,3.31,0,0,1-.67-2.19,3.6,3.6,0,0,1,.75-2.39,2.46,2.46,0,0,1,2-.9,1.92,1.92,0,0,1,1.8,1h0v-3.72h1Zm-1-2.71v-.88a1.7,1.7,0,0,0-.48-1.23,1.62,1.62,0,0,0-1.22-.51,1.68,1.68,0,0,0-1.39.65,2.85,2.85,0,0,0-.5,1.78,2.56,2.56,0,0,0,.48,1.64,1.6,1.6,0,0,0,1.3.6,1.64,1.64,0,0,0,1.3-.58A2.16,2.16,0,0,0,88,270.31Z" fill="#1e1e1e"/>
      <path d="M95.75,270.26H91.52a2.19,2.19,0,0,0,.54,1.55,1.85,1.85,0,0,0,1.41.55,3,3,0,0,0,1.87-.67v.9a3.52,3.52,0,0,1-2.09.58,2.55,2.55,0,0,1-2-.82,3.33,3.33,0,0,1-.73-2.3,3.25,3.25,0,0,1,.8-2.28,2.54,2.54,0,0,1,2-.89,2.26,2.26,0,0,1,1.82.77,3.15,3.15,0,0,1,.64,2.11Zm-1-.81a1.93,1.93,0,0,0-.4-1.29,1.38,1.38,0,0,0-1.1-.47,1.52,1.52,0,0,0-1.15.49,2.16,2.16,0,0,0-.59,1.27Z" fill="#1e1e1e"/>
      <path d="M100.34,268a1.18,1.18,0,0,0-.73-.2,1.25,1.25,0,0,0-1,.58,2.75,2.75,0,0,0-.41,1.59v3h-1v-6h1v1.24h0a2.17,2.17,0,0,1,.63-1,1.44,1.44,0,0,1,.94-.35,1.75,1.75,0,0,1,.58.08Z" fill="#1e1e1e"/>
      <path d="M102.26,271.69l-.94,2.88h-.68l.68-2.88Z" fill="#1e1e1e"/>
      <path d="M110.05,273a1.92,1.92,0,0,1-.9.18c-1.05,0-1.57-.58-1.57-1.75v-3.56h-1V267h1v-1.46l1-.31V267h1.51v.82h-1.51v3.39a1.45,1.45,0,0,0,.2.86.83.83,0,0,0,.68.25,1,1,0,0,0,.63-.19Z" fill="#1e1e1e"/>
      <path d="M116.31,273h-1v-3.45c0-1.25-.46-1.88-1.39-1.88a1.51,1.51,0,0,0-1.18.54,2.05,2.05,0,0,0-.48,1.4V273h-1v-8.88h1V268h0a2.18,2.18,0,0,1,2-1.14c1.35,0,2,.82,2,2.45Z" fill="#1e1e1e"/>
      <path d="M123,270.26h-4.24a2.28,2.28,0,0,0,.54,1.55,1.87,1.87,0,0,0,1.42.55,3,3,0,0,0,1.86-.67v.9a3.5,3.5,0,0,1-2.09.58,2.56,2.56,0,0,1-2-.82,3.37,3.37,0,0,1-.72-2.3,3.25,3.25,0,0,1,.79-2.28,2.55,2.55,0,0,1,2-.89,2.24,2.24,0,0,1,1.82.77,3.15,3.15,0,0,1,.65,2.11Zm-1-.81a1.88,1.88,0,0,0-.4-1.29,1.36,1.36,0,0,0-1.1-.47,1.54,1.54,0,0,0-1.15.49,2.22,2.22,0,0,0-.59,1.27Z" fill="#1e1e1e"/>
      <path d="M19.83,286v-1a2.87,2.87,0,0,0,1.72.58c.85,0,1.27-.28,1.27-.85a.72.72,0,0,0-.11-.4,1,1,0,0,0-.29-.3,2,2,0,0,0-.44-.23l-.53-.22a6.87,6.87,0,0,1-.7-.31,2.23,2.23,0,0,1-.51-.37,1.41,1.41,0,0,1-.3-.46,1.57,1.57,0,0,1-.1-.6,1.44,1.44,0,0,1,.19-.75,1.58,1.58,0,0,1,.52-.54,2.21,2.21,0,0,1,.73-.33,3.06,3.06,0,0,1,.85-.12,3.46,3.46,0,0,1,1.4.27v1a2.71,2.71,0,0,0-1.52-.44,1.83,1.83,0,0,0-.49.06,1.16,1.16,0,0,0-.37.18.66.66,0,0,0-.24.26.7.7,0,0,0-.09.35.8.8,0,0,0,.09.39.82.82,0,0,0,.25.28,1.59,1.59,0,0,0,.39.22l.54.22c.26.1.5.21.71.31a2.44,2.44,0,0,1,.54.37,1.38,1.38,0,0,1,.34.46,1.54,1.54,0,0,1,.12.63,1.47,1.47,0,0,1-.19.77,1.74,1.74,0,0,1-.53.55,2.54,2.54,0,0,1-.75.32,3.82,3.82,0,0,1-.9.11A3.34,3.34,0,0,1,19.83,286Z" fill="#1e1e1e"/>
      <path d="M30.1,283.46H25.87a2.19,2.19,0,0,0,.54,1.55,1.82,1.82,0,0,0,1.41.55,3,3,0,0,0,1.87-.67v.9a3.52,3.52,0,0,1-2.09.58,2.55,2.55,0,0,1-2-.82,3.33,3.33,0,0,1-.73-2.3,3.29,3.29,0,0,1,.79-2.28,2.56,2.56,0,0,1,2-.89,2.26,2.26,0,0,1,1.82.77A3.15,3.15,0,0,1,30.1,283Zm-1-.81a2,2,0,0,0-.4-1.29,1.38,1.38,0,0,0-1.1-.47,1.56,1.56,0,0,0-1.16.49,2.21,2.21,0,0,0-.58,1.27Z" fill="#1e1e1e"/>
      <path d="M34.34,286.17a2,2,0,0,1-.9.18c-1,0-1.57-.58-1.57-1.75V281h-1v-.82h1v-1.46l1-.31v1.77h1.51V281H32.83v3.39a1.45,1.45,0,0,0,.2.86.83.83,0,0,0,.68.25,1,1,0,0,0,.63-.19Z" fill="#1e1e1e"/>
      <path d="M40.47,286.22h-1v-.94h0a2,2,0,0,1-1.85,1.09c-1.43,0-2.15-.86-2.15-2.56v-3.59h1v3.44c0,1.26.48,1.9,1.45,1.9a1.49,1.49,0,0,0,1.16-.52,2,2,0,0,0,.45-1.36v-3.46h1Z" fill="#1e1e1e"/>
      <path d="M43.4,285.36h0V289h-1v-8.76h1v1.06h0a2.26,2.26,0,0,1,2.07-1.2,2.18,2.18,0,0,1,1.81.81,3.31,3.31,0,0,1,.65,2.16,3.71,3.71,0,0,1-.73,2.41,2.46,2.46,0,0,1-2,.91A2,2,0,0,1,43.4,285.36Zm0-2.42v.84a1.81,1.81,0,0,0,.49,1.26,1.72,1.72,0,0,0,2.59-.15A3.09,3.09,0,0,0,47,283a2.47,2.47,0,0,0-.46-1.57,1.54,1.54,0,0,0-1.26-.57,1.71,1.71,0,0,0-1.35.59A2.11,2.11,0,0,0,43.37,282.94Z" fill="#1e1e1e"/>
      <path d="M55.72,278.19a1.24,1.24,0,0,0-.64-.16c-.67,0-1,.42-1,1.27v.92h1.41V281H54.07v5.18h-1V281h-1v-.82h1v-1a2,2,0,0,1,.54-1.49,2,2,0,0,1,2.06-.44Z" fill="#1e1e1e"/>
      <path d="M57,278.7a.64.64,0,0,1-.44-.17.65.65,0,0,1,0-.9.6.6,0,0,1,.44-.18.61.61,0,0,1,.45.18.62.62,0,0,1,0,.89A.61.61,0,0,1,57,278.7Zm.47,7.52h-1v-6h1Z" fill="#1e1e1e"/>
      <path d="M60.38,286.22h-1v-8.88h1Z" fill="#1e1e1e"/>
      <path d="M67.15,283.46H62.91a2.23,2.23,0,0,0,.54,1.55,1.82,1.82,0,0,0,1.42.55,3,3,0,0,0,1.86-.67v.9a3.5,3.5,0,0,1-2.09.58,2.55,2.55,0,0,1-2-.82,3.37,3.37,0,0,1-.73-2.3,3.25,3.25,0,0,1,.8-2.28,2.54,2.54,0,0,1,2-.89,2.26,2.26,0,0,1,1.82.77,3.15,3.15,0,0,1,.65,2.11Zm-1-.81a1.93,1.93,0,0,0-.4-1.29,1.36,1.36,0,0,0-1.1-.47,1.52,1.52,0,0,0-1.15.49,2.22,2.22,0,0,0-.59,1.27Z" fill="#1e1e1e"/>
      <path d="M74.67,286.17a2,2,0,0,1-.9.18c-1,0-1.57-.58-1.57-1.75V281h-1v-.82h1v-1.46l1-.31v1.77h1.51V281H73.16v3.39a1.45,1.45,0,0,0,.2.86.83.83,0,0,0,.68.25,1,1,0,0,0,.63-.19Z" fill="#1e1e1e"/>
      <path d="M78.46,286.37a2.78,2.78,0,0,1-2.12-.85,3.11,3.11,0,0,1-.8-2.23,3.26,3.26,0,0,1,.83-2.36,3,3,0,0,1,2.23-.85,2.71,2.71,0,0,1,2.1.83,3.27,3.27,0,0,1,.75,2.29,3.23,3.23,0,0,1-.81,2.3A2.84,2.84,0,0,1,78.46,286.37Zm.07-5.48a1.81,1.81,0,0,0-1.46.63,2.59,2.59,0,0,0-.54,1.74,2.46,2.46,0,0,0,.54,1.68,1.85,1.85,0,0,0,1.46.62A1.73,1.73,0,0,0,80,285a2.57,2.57,0,0,0,.5-1.71,2.65,2.65,0,0,0-.5-1.74A1.76,1.76,0,0,0,78.53,280.89Z" fill="#1e1e1e"/>
      <path d="M89.4,281.2a1.18,1.18,0,0,0-.73-.2,1.25,1.25,0,0,0-1,.58,2.75,2.75,0,0,0-.41,1.59v3.05h-1v-6h1v1.24h0a2.08,2.08,0,0,1,.62-1,1.47,1.47,0,0,1,1-.35,1.65,1.65,0,0,1,.57.08Z" fill="#1e1e1e"/>
      <path d="M95.29,286.22h-1v-.94h0a2,2,0,0,1-1.85,1.09c-1.43,0-2.15-.86-2.15-2.56v-3.59h1v3.44c0,1.26.48,1.9,1.45,1.9a1.49,1.49,0,0,0,1.16-.52,2,2,0,0,0,.45-1.36v-3.46h1Z" fill="#1e1e1e"/>
      <path d="M102.21,286.22h-1V282.8c0-1.27-.46-1.91-1.39-1.91a1.5,1.5,0,0,0-1.19.54,2,2,0,0,0-.48,1.37v3.42h-1v-6h1v1h0a2.16,2.16,0,0,1,2-1.14,1.84,1.84,0,0,1,1.5.64,2.82,2.82,0,0,1,.52,1.84Z" fill="#1e1e1e"/>
      <path d="M104.9,284.89l-.93,2.88h-.69l.69-2.88Z" fill="#1e1e1e"/>
      <path d="M114.21,286.22h-1v-.93h0a2,2,0,0,1-1.84,1.08,2,2,0,0,1-1.41-.48,1.68,1.68,0,0,1-.5-1.26c0-1.12.66-1.77,2-2l1.8-.25c0-1-.41-1.53-1.24-1.53a3,3,0,0,0-2,.74v-1a3.68,3.68,0,0,1,2-.57c1.41,0,2.12.75,2.12,2.24Zm-1-3-1.45.2a2.3,2.3,0,0,0-1,.33,1,1,0,0,0-.34.84.93.93,0,0,0,.32.72,1.21,1.21,0,0,0,.83.28,1.55,1.55,0,0,0,1.18-.5,1.81,1.81,0,0,0,.47-1.27Z" fill="#1e1e1e"/>
      <path d="M121,286.22h-1V282.8c0-1.27-.47-1.91-1.4-1.91a1.52,1.52,0,0,0-1.19.54,2.05,2.05,0,0,0-.47,1.37v3.42h-1v-6h1v1h0a2.17,2.17,0,0,1,2-1.14,1.86,1.86,0,0,1,1.51.64,2.82,2.82,0,0,1,.52,1.84Z" fill="#1e1e1e"/>
      <path d="M127.93,286.22h-1v-1h0a2.42,2.42,0,0,1-3.87.35,3.32,3.32,0,0,1-.68-2.19,3.6,3.6,0,0,1,.75-2.39,2.48,2.48,0,0,1,2-.9,1.94,1.94,0,0,1,1.8,1h0v-3.72h1Zm-1-2.71v-.88a1.7,1.7,0,0,0-.48-1.23,1.61,1.61,0,0,0-1.22-.51,1.64,1.64,0,0,0-1.38.65,2.79,2.79,0,0,0-.51,1.78,2.56,2.56,0,0,0,.49,1.64,1.57,1.57,0,0,0,1.3.6,1.66,1.66,0,0,0,1.3-.58A2.2,2.2,0,0,0,127,283.51Z" fill="#1e1e1e"/>
      <path d="M23.34,299.37a2,2,0,0,1-.9.18c-1.05,0-1.58-.58-1.58-1.76v-3.55h-1v-.82h1V292l1-.31v1.77h1.52v.82H21.82v3.39a1.39,1.39,0,0,0,.21.86.82.82,0,0,0,.68.25,1,1,0,0,0,.63-.2Z" fill="#1e1e1e"/>
      <path d="M29.6,299.42h-1V296c0-1.25-.47-1.88-1.4-1.88a1.51,1.51,0,0,0-1.18.54,2.05,2.05,0,0,0-.48,1.4v3.39h-1v-8.88h1v3.88h0a2.18,2.18,0,0,1,2-1.14c1.35,0,2,.82,2,2.45Z" fill="#1e1e1e"/>
      <path d="M36.23,296.66H32a2.23,2.23,0,0,0,.53,1.55,1.89,1.89,0,0,0,1.42.55,3,3,0,0,0,1.87-.67v.9a3.53,3.53,0,0,1-2.1.57,2.53,2.53,0,0,1-2-.81,3.33,3.33,0,0,1-.73-2.3,3.25,3.25,0,0,1,.79-2.28,2.55,2.55,0,0,1,2-.89,2.29,2.29,0,0,1,1.83.76,3.19,3.19,0,0,1,.64,2.12Zm-1-.81a2,2,0,0,0-.4-1.3,1.4,1.4,0,0,0-1.1-.46,1.54,1.54,0,0,0-1.16.49,2.21,2.21,0,0,0-.58,1.27Z" fill="#1e1e1e"/>
      <path d="M43.48,299.56a2.77,2.77,0,0,1-2.12-.84,3.11,3.11,0,0,1-.8-2.23,3.26,3.26,0,0,1,.83-2.36,3,3,0,0,1,2.23-.85,2.73,2.73,0,0,1,2.1.83,3.27,3.27,0,0,1,.75,2.29,3.23,3.23,0,0,1-.81,2.3A2.83,2.83,0,0,1,43.48,299.56Zm.07-5.47a1.8,1.8,0,0,0-1.46.63,2.59,2.59,0,0,0-.54,1.74,2.46,2.46,0,0,0,.54,1.68,1.85,1.85,0,0,0,1.46.62,1.76,1.76,0,0,0,1.43-.61,2.57,2.57,0,0,0,.5-1.71,2.65,2.65,0,0,0-.5-1.74A1.73,1.73,0,0,0,43.55,294.09Z" fill="#1e1e1e"/>
      <path d="M52.85,299.42h-1v-.95h0A2,2,0,0,1,50,299.56c-1.43,0-2.15-.85-2.15-2.55v-3.59h1v3.44c0,1.26.48,1.9,1.45,1.9a1.49,1.49,0,0,0,1.16-.52,2,2,0,0,0,.45-1.36v-3.46h1Z" fill="#1e1e1e"/>
      <path d="M57.58,299.37a2,2,0,0,1-.9.18c-1,0-1.58-.58-1.58-1.76v-3.55h-1v-.82h1V292l1-.31v1.77h1.51v.82H56.07v3.39a1.4,1.4,0,0,0,.2.86.82.82,0,0,0,.68.25,1,1,0,0,0,.63-.2Z" fill="#1e1e1e"/>
      <path d="M59.85,298.56h0v3.62h-1v-8.76h1v1.06h0a2.26,2.26,0,0,1,2.07-1.2,2.19,2.19,0,0,1,1.81.81,3.37,3.37,0,0,1,.65,2.16,3.71,3.71,0,0,1-.73,2.41,2.46,2.46,0,0,1-2,.9A2,2,0,0,1,59.85,298.56Zm0-2.42V297a1.77,1.77,0,0,0,.49,1.27,1.71,1.71,0,0,0,2.59-.15,3.09,3.09,0,0,0,.5-1.86,2.41,2.41,0,0,0-.47-1.57,1.52,1.52,0,0,0-1.25-.57,1.73,1.73,0,0,0-1.35.58A2.16,2.16,0,0,0,59.82,296.14Z" fill="#1e1e1e"/>
      <path d="M70.77,299.42h-1v-.95h0a2,2,0,0,1-1.85,1.09c-1.43,0-2.14-.85-2.14-2.55v-3.59h.95v3.44c0,1.26.49,1.9,1.45,1.9a1.49,1.49,0,0,0,1.16-.52,2,2,0,0,0,.46-1.36v-3.46h1Z" fill="#1e1e1e"/>
      <path d="M75.49,299.37a2,2,0,0,1-.9.18c-1,0-1.57-.58-1.57-1.76v-3.55H72v-.82h1V292l1-.31v1.77h1.51v.82H74v3.39a1.47,1.47,0,0,0,.2.86.83.83,0,0,0,.68.25,1,1,0,0,0,.63-.2Z" fill="#1e1e1e"/>
      <path d="M83,291.38a1.3,1.3,0,0,0-.63-.15c-.68,0-1,.42-1,1.27v.92h1.4v.82h-1.4v5.18h-1v-5.18h-1v-.82h1v-1A2,2,0,0,1,81,291a1.81,1.81,0,0,1,1.36-.55,1.84,1.84,0,0,1,.69.11Z" fill="#1e1e1e"/>
      <path d="M86.32,299.56a2.79,2.79,0,0,1-2.12-.84,3.1,3.1,0,0,1-.79-2.23,3.26,3.26,0,0,1,.82-2.36,3,3,0,0,1,2.23-.85,2.7,2.7,0,0,1,2.1.83,3.27,3.27,0,0,1,.75,2.29,3.23,3.23,0,0,1-.81,2.3A2.83,2.83,0,0,1,86.32,299.56Zm.07-5.47a1.83,1.83,0,0,0-1.46.63,2.59,2.59,0,0,0-.54,1.74,2.46,2.46,0,0,0,.54,1.68,1.87,1.87,0,0,0,1.46.62,1.79,1.79,0,0,0,1.44-.61,2.62,2.62,0,0,0,.5-1.71,2.71,2.71,0,0,0-.5-1.74A1.76,1.76,0,0,0,86.39,294.09Z" fill="#1e1e1e"/>
      <path d="M91.81,299.42h-1v-8.88h1Z" fill="#1e1e1e"/>
      <path d="M98.87,299.42h-1v-1h0a2.43,2.43,0,0,1-3.87.36,3.33,3.33,0,0,1-.68-2.2,3.59,3.59,0,0,1,.75-2.38,2.48,2.48,0,0,1,2-.9,1.93,1.93,0,0,1,1.8,1h0v-3.72h1Zm-1-2.71v-.88a1.7,1.7,0,0,0-.48-1.23,1.59,1.59,0,0,0-1.22-.51,1.67,1.67,0,0,0-1.38.65,2.85,2.85,0,0,0-.5,1.78,2.58,2.58,0,0,0,.48,1.64,1.59,1.59,0,0,0,1.3.6,1.66,1.66,0,0,0,1.3-.58A2.15,2.15,0,0,0,97.91,296.71Z" fill="#1e1e1e"/>
      <path d="M105.64,296.66h-4.23a2.23,2.23,0,0,0,.53,1.55,1.89,1.89,0,0,0,1.42.55,3,3,0,0,0,1.87-.67v.9a3.53,3.53,0,0,1-2.1.57,2.53,2.53,0,0,1-2-.81,3.33,3.33,0,0,1-.73-2.3,3.25,3.25,0,0,1,.79-2.28,2.56,2.56,0,0,1,2-.89A2.28,2.28,0,0,1,105,294a3.19,3.19,0,0,1,.64,2.12Zm-1-.81a2,2,0,0,0-.4-1.3,1.4,1.4,0,0,0-1.1-.46,1.54,1.54,0,0,0-1.16.49,2.21,2.21,0,0,0-.58,1.27Z" fill="#1e1e1e"/>
      <path d="M110.22,294.4a1.14,1.14,0,0,0-.72-.2,1.24,1.24,0,0,0-1,.58,2.68,2.68,0,0,0-.41,1.59v3.05h-1v-6h1v1.24h0a2.17,2.17,0,0,1,.63-1,1.44,1.44,0,0,1,.94-.35,1.65,1.65,0,0,1,.57.08Z" fill="#1e1e1e"/>
      <path d="M117.52,291.38a1.34,1.34,0,0,0-.64-.15c-.67,0-1,.42-1,1.27v.92h1.41v.82h-1.41v5.18h-1v-5.18h-1v-.82h1v-1a2,2,0,0,1,.54-1.49,1.84,1.84,0,0,1,1.36-.55,1.9,1.9,0,0,1,.7.11Z" fill="#1e1e1e"/>
      <path d="M120.82,299.56a2.79,2.79,0,0,1-2.13-.84,3.1,3.1,0,0,1-.79-2.23,3.26,3.26,0,0,1,.83-2.36,3,3,0,0,1,2.23-.85,2.69,2.69,0,0,1,2.09.83,3.23,3.23,0,0,1,.76,2.29,3.19,3.19,0,0,1-.82,2.3A2.81,2.81,0,0,1,120.82,299.56Zm.07-5.47a1.84,1.84,0,0,0-1.47.63,2.59,2.59,0,0,0-.54,1.74,2.46,2.46,0,0,0,.55,1.68,1.85,1.85,0,0,0,1.46.62,1.76,1.76,0,0,0,1.43-.61,2.62,2.62,0,0,0,.5-1.71,2.71,2.71,0,0,0-.5-1.74A1.73,1.73,0,0,0,120.89,294.09Z" fill="#1e1e1e"/>
      <path d="M128.47,294.4a1.18,1.18,0,0,0-.73-.2,1.22,1.22,0,0,0-1,.58,2.68,2.68,0,0,0-.42,1.59v3.05h-1v-6h1v1.24h0a2.08,2.08,0,0,1,.62-1,1.47,1.47,0,0,1,1-.35,1.65,1.65,0,0,1,.57.08Z" fill="#1e1e1e"/>
      <path d="M29.44,312.57a1.87,1.87,0,0,1-.89.18c-1.05,0-1.58-.58-1.58-1.75v-3.56h-1v-.82h1v-1.46l1-.31v1.77h1.51v.82H27.93v3.39a1.39,1.39,0,0,0,.21.86.81.81,0,0,0,.68.25,1,1,0,0,0,.62-.19Z" fill="#1e1e1e"/>
      <path d="M35.71,312.62h-1v-3.45c0-1.25-.47-1.88-1.4-1.88a1.51,1.51,0,0,0-1.18.54,2.05,2.05,0,0,0-.48,1.4v3.39h-1v-8.88h1v3.88h0a2.18,2.18,0,0,1,2-1.14c1.35,0,2,.82,2,2.45Z" fill="#1e1e1e"/>
      <path d="M42.34,309.86H38.1a2.28,2.28,0,0,0,.54,1.55,1.89,1.89,0,0,0,1.42.55,3,3,0,0,0,1.86-.67v.9a3.47,3.47,0,0,1-2.09.57,2.56,2.56,0,0,1-2-.81,3.37,3.37,0,0,1-.72-2.3,3.25,3.25,0,0,1,.79-2.28,2.55,2.55,0,0,1,2-.89,2.26,2.26,0,0,1,1.83.77,3.15,3.15,0,0,1,.64,2.11Zm-1-.81a2,2,0,0,0-.41-1.3,1.38,1.38,0,0,0-1.09-.46,1.54,1.54,0,0,0-1.16.49,2.21,2.21,0,0,0-.58,1.27Z" fill="#1e1e1e"/>
      <path d="M47.41,312.75a.62.62,0,0,1-.46-.19.66.66,0,0,1-.19-.46.68.68,0,0,1,.19-.47.64.64,0,0,1,.93,0,.65.65,0,0,1,.2.47.67.67,0,0,1-.67.65Z" fill="#1e1e1e"/>
      <path d="M50.17,305.1a.62.62,0,0,1-.44-.18.57.57,0,0,1-.18-.44.61.61,0,0,1,.18-.45.62.62,0,0,1,.44-.18.61.61,0,0,1,.45.18.58.58,0,0,1,.19.45.58.58,0,0,1-.19.44A.61.61,0,0,1,50.17,305.1Zm.47,7.52h-1v-6h1Z" fill="#1e1e1e"/>
      <path d="M57.57,312.62h-1V309.2c0-1.27-.47-1.91-1.4-1.91a1.52,1.52,0,0,0-1.19.54,2.05,2.05,0,0,0-.47,1.37v3.42h-1v-6h1v1h0a2.17,2.17,0,0,1,2-1.14,1.86,1.86,0,0,1,1.51.64,2.88,2.88,0,0,1,.52,1.84Z" fill="#1e1e1e"/>
      <path d="M62.16,312.57a1.87,1.87,0,0,1-.89.18c-1.05,0-1.58-.58-1.58-1.75v-3.56h-1v-.82h1v-1.46l1-.31v1.77h1.51v.82H60.65v3.39a1.39,1.39,0,0,0,.21.86.81.81,0,0,0,.68.25,1,1,0,0,0,.62-.19Z" fill="#1e1e1e"/>
      <path d="M68.3,312.62h-1v-.95h0a2,2,0,0,1-1.85,1.09c-1.43,0-2.14-.85-2.14-2.55v-3.59h.95v3.44c0,1.26.49,1.9,1.45,1.9a1.49,1.49,0,0,0,1.16-.52,2,2,0,0,0,.46-1.36v-3.46h1Z" fill="#1e1e1e"/>
      <path d="M75.22,312.62h-1V309.2c0-1.27-.47-1.91-1.4-1.91a1.5,1.5,0,0,0-1.19.54,2,2,0,0,0-.47,1.37v3.42h-1v-6h1v1h0a2.16,2.16,0,0,1,2-1.14,1.86,1.86,0,0,1,1.51.64,2.88,2.88,0,0,1,.52,1.84Z" fill="#1e1e1e"/>
      <path d="M81.85,309.86H77.61a2.28,2.28,0,0,0,.54,1.55,1.89,1.89,0,0,0,1.42.55,3,3,0,0,0,1.86-.67v.9a3.47,3.47,0,0,1-2.09.57,2.56,2.56,0,0,1-2-.81,3.37,3.37,0,0,1-.72-2.3,3.25,3.25,0,0,1,.79-2.28,2.55,2.55,0,0,1,2-.89,2.26,2.26,0,0,1,1.83.77,3.15,3.15,0,0,1,.64,2.11Zm-1-.81a2,2,0,0,0-.41-1.3,1.38,1.38,0,0,0-1.09-.46,1.54,1.54,0,0,0-1.16.49,2.15,2.15,0,0,0-.58,1.27Z" fill="#1e1e1e"/>
      <path d="M90.86,306.62l-1.8,6h-1l-1.24-4.29a2.26,2.26,0,0,1-.09-.56h0a2.64,2.64,0,0,1-.12.55l-1.34,4.3h-1l-1.82-6h1l1.24,4.52a2.2,2.2,0,0,1,.08.53h0a2.43,2.43,0,0,1,.11-.55l1.38-4.5h.88l1.24,4.53a3,3,0,0,1,.09.54h0a3.13,3.13,0,0,1,.1-.54l1.22-4.53Z" fill="#1e1e1e"/>
      <path d="M92.47,305.1a.6.6,0,0,1-.44-.18.57.57,0,0,1-.18-.44A.61.61,0,0,1,92,304a.6.6,0,0,1,.44-.18.64.64,0,0,1,.45.18.61.61,0,0,1,.18.45.6.6,0,0,1-.18.44A.64.64,0,0,1,92.47,305.1Zm.47,7.52H92v-6h1Z" fill="#1e1e1e"/>
      <path d="M99.86,312.62h-1V309.2c0-1.27-.46-1.91-1.39-1.91a1.54,1.54,0,0,0-1.2.54,2.05,2.05,0,0,0-.47,1.37v3.42h-1v-6h1v1h0a2.15,2.15,0,0,1,2-1.14,1.86,1.86,0,0,1,1.51.64,2.82,2.82,0,0,1,.52,1.84Z" fill="#1e1e1e"/>
      <path d="M107.92,304.58a1.3,1.3,0,0,0-.63-.15c-.68,0-1,.42-1,1.27v.92h1.4v.82h-1.4v5.18h-1v-5.18h-1v-.82h1v-1a2,2,0,0,1,.55-1.49,1.81,1.81,0,0,1,1.36-.55,1.84,1.84,0,0,1,.69.11Z" fill="#1e1e1e"/>
      <path d="M109.21,305.1a.6.6,0,0,1-.44-.18.57.57,0,0,1-.18-.44.61.61,0,0,1,.18-.45.6.6,0,0,1,.44-.18.64.64,0,0,1,.45.18.61.61,0,0,1,.18.45.6.6,0,0,1-.18.44A.64.64,0,0,1,109.21,305.1Zm.47,7.52h-1v-6h1Z" fill="#1e1e1e"/>
      <path d="M112.58,312.62h-1v-8.88h1Z" fill="#1e1e1e"/>
      <path d="M119.35,309.86h-4.24a2.28,2.28,0,0,0,.54,1.55,1.89,1.89,0,0,0,1.42.55,3,3,0,0,0,1.86-.67v.9a3.47,3.47,0,0,1-2.09.57,2.56,2.56,0,0,1-2-.81,3.37,3.37,0,0,1-.72-2.3,3.25,3.25,0,0,1,.79-2.28,2.55,2.55,0,0,1,2-.89,2.26,2.26,0,0,1,1.83.77,3.15,3.15,0,0,1,.64,2.11Zm-1-.81a2,2,0,0,0-.41-1.3,1.38,1.38,0,0,0-1.09-.46,1.54,1.54,0,0,0-1.16.49,2.15,2.15,0,0,0-.58,1.27Z" fill="#1e1e1e"/>
      <path d="M121.14,312.75a.6.6,0,0,1-.46-.19.62.62,0,0,1-.19-.46.64.64,0,0,1,.19-.47.61.61,0,0,1,.46-.2.65.65,0,0,1,.47.2.68.68,0,0,1,.19.47.66.66,0,0,1-.19.46A.64.64,0,0,1,121.14,312.75Z" fill="#1e1e1e"/>
    </g>
  </g>
</svg>
