<svg width="32" height="32" viewBox="0 0 32 32" fill="none" xmlns="http://www.w3.org/2000/svg">
<path d="M28.5867 1.83105H1.06667C0.477563 1.83105 0 2.30862 0 2.89772V21.8666C0 22.4557 0.477563 22.9333 1.06667 22.9333H28.5867C29.1758 22.9333 29.6533 22.4557 29.6533 21.8666V2.89772C29.6533 2.30862 29.1758 1.83105 28.5867 1.83105Z" fill="#0078D4"/>
<path opacity="0.9" d="M27.3957 3.30664H2.25794C1.96339 3.30664 1.72461 3.54542 1.72461 3.83997V20.7289C1.72461 21.0234 1.96339 21.2622 2.25794 21.2622H27.3957C27.6903 21.2622 27.9291 21.0234 27.9291 20.7289V3.83997C27.9291 3.54542 27.6903 3.30664 27.3957 3.30664Z" fill="url(#paint0_linear_608_5128)"/>
<path d="M31.4666 7.32446H18.8444C18.5498 7.32446 18.311 7.56324 18.311 7.8578V29.6356C18.311 29.9301 18.5498 30.1689 18.8444 30.1689H31.4666C31.7611 30.1689 31.9999 29.9301 31.9999 29.6356V7.8578C31.9999 7.56324 31.7611 7.32446 31.4666 7.32446Z" fill="url(#paint1_linear_608_5128)"/>
<path d="M26.5424 8.08887H23.7869C23.6789 8.08887 23.5913 8.17642 23.5913 8.28442V8.31998C23.5913 8.42798 23.6789 8.51553 23.7869 8.51553H26.5424C26.6504 8.51553 26.738 8.42798 26.738 8.31998V8.28442C26.738 8.17642 26.6504 8.08887 26.5424 8.08887Z" fill="#F2F2F2"/>
<path d="M16.249 2.48877H13.4934C13.3854 2.48877 13.2979 2.57632 13.2979 2.68433V2.71988C13.2979 2.82788 13.3854 2.91544 13.4934 2.91544H16.249C16.357 2.91544 16.4445 2.82788 16.4445 2.71988V2.68433C16.4445 2.57632 16.357 2.48877 16.249 2.48877Z" fill="#F2F2F2"/>
<path d="M25.5644 28.3733H24.7467C24.5503 28.3733 24.3911 28.5325 24.3911 28.7288V29.3155C24.3911 29.5119 24.5503 29.6711 24.7467 29.6711H25.5644C25.7608 29.6711 25.92 29.5119 25.92 29.3155V28.7288C25.92 28.5325 25.7608 28.3733 25.5644 28.3733Z" fill="#F2F2F2"/>
<defs>
<linearGradient id="paint0_linear_608_5128" x1="14.8268" y1="21.2622" x2="14.8268" y2="3.30664" gradientUnits="userSpaceOnUse">
<stop stop-color="#D2EBFF"/>
<stop offset="1" stop-color="#F0FFFD"/>
</linearGradient>
<linearGradient id="paint1_linear_608_5128" x1="25.1555" y1="36.2845" x2="25.1555" y2="4.16002" gradientUnits="userSpaceOnUse">
<stop stop-color="#0078D4"/>
<stop offset="0.17" stop-color="#1C84DC"/>
<stop offset="0.38" stop-color="#3990E4"/>
<stop offset="0.59" stop-color="#4D99EA"/>
<stop offset="0.8" stop-color="#5A9EEE"/>
<stop offset="1" stop-color="#5EA0EF"/>
</linearGradient>
</defs>
</svg>
