<svg width="32" height="32" viewBox="0 0 32 32" fill="none" xmlns="http://www.w3.org/2000/svg">
<path d="M20.7771 16.75C20.5943 16.75 20.4038 16.72 20.221 16.66C19.5048 16.4275 19.0476 15.7975 19.0476 15.0625V12.955C17.3257 12.685 16 11.2075 16 9.4375V4.5625C16 2.5975 17.6229 1 19.619 1H28.381C30.3771 1 32 2.5975 32 4.5625V9.4375C32 11.4025 30.3771 13 28.381 13H24.48L22.1333 16.075C21.7981 16.51 21.3029 16.75 20.7771 16.75ZM9.90476 18.625C6.75048 18.625 4.19048 16.105 4.19048 13C4.19048 9.895 6.75048 7.375 9.90476 7.375C13.059 7.375 15.619 9.895 15.619 13C15.619 16.105 13.059 18.625 9.90476 18.625ZM0 24.0925C0 24.16 0.114285 31 9.90476 31C19.6952 31 19.8095 24.16 19.8095 24.0925V23.3125C19.8095 21.76 18.5295 20.5 16.9524 20.5H2.85714C1.28 20.5 0 21.76 0 23.3125V24.0925Z" fill="url(#paint0_linear_818_8718)"/>
<defs>
<linearGradient id="paint0_linear_818_8718" x1="16" y1="1" x2="16.1861" y2="30.9988" gradientUnits="userSpaceOnUse">
<stop stop-color="#4DA9FF"/>
<stop offset="1" stop-color="#0052B3"/>
</linearGradient>
</defs>
</svg>
