<svg width="34" height="32" viewBox="0 0 34 32" fill="none" xmlns="http://www.w3.org/2000/svg">
<path d="M22.0757 16.8C21.8814 16.8 21.679 16.768 21.4848 16.704C20.7238 16.456 20.2381 15.784 20.2381 15V12.752C18.4086 12.464 17 10.888 17 9V3.8C17 1.704 18.7243 0 20.8452 0H30.1548C32.2757 0 34 1.704 34 3.8V9C34 11.096 32.2757 12.8 30.1548 12.8H26.01L23.5167 16.08C23.1605 16.544 22.6343 16.8 22.0757 16.8ZM10.5238 18.8C7.17238 18.8 4.45238 16.112 4.45238 12.8C4.45238 9.488 7.17238 6.8 10.5238 6.8C13.8752 6.8 16.5952 9.488 16.5952 12.8C16.5952 16.112 13.8752 18.8 10.5238 18.8ZM0 24.632C0 24.704 0.121428 32 10.5238 32C20.9262 32 21.0476 24.704 21.0476 24.632V23.8C21.0476 22.144 19.6876 20.8 18.0119 20.8H3.03571C1.36 20.8 0 22.144 0 23.8V24.632Z" fill="url(#paint0_linear_809_25166)"/>
<defs>
<linearGradient id="paint0_linear_809_25166" x1="17" y1="2.75671e-07" x2="17.1993" y2="31.9988" gradientUnits="userSpaceOnUse">
<stop stop-color="#4DA9FF"/>
<stop offset="1" stop-color="#0052B3"/>
</linearGradient>
</defs>
</svg>
