<svg width="32" height="32" viewBox="0 0 32 32" fill="none" xmlns="http://www.w3.org/2000/svg">
<path d="M11.5471 17.8368L1.37612 27.7784C0.616109 28.5213 0.616108 29.7257 1.37612 30.4686L1.56679 30.655C2.3268 31.3979 3.55902 31.3979 4.31902 30.655L14.49 20.7134C15.25 19.9705 15.25 18.7661 14.49 18.0232L14.2993 17.8368C13.5393 17.094 12.3071 17.094 11.5471 17.8368Z" fill="#198AB3"/>
<path d="M19.4629 24.5089C26.387 24.5089 32.0001 19.0224 32.0001 12.2544C32.0001 5.4865 26.387 0 19.4629 0C12.5389 0 6.92578 5.4865 6.92578 12.2544C6.92578 19.0224 12.5389 24.5089 19.4629 24.5089Z" fill="url(#paint0_radial_835_25190)"/>
<path d="M19.4366 21.6614C24.8753 21.6614 29.2843 17.3519 29.2843 12.0358C29.2843 6.7197 24.8753 2.41016 19.4366 2.41016C13.9978 2.41016 9.58887 6.7197 9.58887 12.0358C9.58887 17.3519 13.9978 21.6614 19.4366 21.6614Z" fill="white"/>
<path d="M9.89413 14.417C9.89413 14.417 12.5907 1.23134 25.1864 4.22255C23.5029 3.00173 21.4585 2.34987 19.3624 2.36551C17.2663 2.38115 15.2324 3.06345 13.5682 4.30925C11.9744 5.42681 10.7684 6.99407 10.112 8.80077C9.4556 10.6075 9.37842 12.5672 9.89413 14.417Z" fill="#C3F1FF"/>
<path d="M19.4718 15.0116C23.0666 15.0116 25.9808 14.3408 25.9808 13.5133C25.9808 12.6859 23.0666 12.0151 19.4718 12.0151C15.877 12.0151 12.9629 12.6859 12.9629 13.5133C12.9629 14.3408 15.877 15.0116 19.4718 15.0116Z" fill="#32BEDD"/>
<path d="M25.9826 16.461V13.5132C25.9826 14.3403 23.0678 15.0114 19.4736 15.0114C15.8794 15.0114 12.9629 14.3403 12.9629 13.5132V16.5304C12.9629 17.3575 15.8776 18.0286 19.4718 18.0286C22.9915 18.0286 25.8566 17.3853 25.9773 16.5824V16.4628H25.9826V16.461Z" fill="#0078D4"/>
<path d="M19.4523 9.683C15.8971 9.683 13.009 9.0258 12.9487 8.21253H12.9434V11.202C12.9434 12.0309 15.8581 12.7002 19.4523 12.7002C22.972 12.7002 25.8371 12.0569 25.956 11.254V8.18652C25.9613 9.01366 23.0465 9.683 19.4523 9.683Z" fill="#5EA0EF"/>
<path d="M19.4523 9.68294C23.0471 9.68294 25.9613 9.01217 25.9613 8.18473C25.9613 7.35729 23.0471 6.68652 19.4523 6.68652C15.8575 6.68652 12.9434 7.35729 12.9434 8.18473C12.9434 9.01217 15.8575 9.68294 19.4523 9.68294Z" fill="#9CEBFF"/>
<defs>
<radialGradient id="paint0_radial_835_25190" cx="0" cy="0" r="1" gradientUnits="userSpaceOnUse" gradientTransform="translate(19.4629 12.2544) scale(12.5371 12.2544)">
<stop offset="0.225" stop-color="#32D4F5"/>
<stop offset="0.59" stop-color="#32D2F2"/>
<stop offset="0.825" stop-color="#32CAEA"/>
<stop offset="1" stop-color="#32BEDD"/>
</radialGradient>
</defs>
</svg>
