<svg width="24" height="24" viewBox="0 0 24 24" fill="none" xmlns="http://www.w3.org/2000/svg">
<path d="M21.44 1.37329H0.8C0.358172 1.37329 0 1.73146 0 2.17329V16.4C0 16.8418 0.358172 17.2 0.8 17.2H21.44C21.8818 17.2 22.24 16.8418 22.24 16.4V2.17329C22.24 1.73146 21.8818 1.37329 21.44 1.37329Z" fill="#0078D4"/>
<path opacity="0.9" d="M20.5468 2.47998H1.69346C1.47254 2.47998 1.29346 2.65907 1.29346 2.87998V15.5466C1.29346 15.7676 1.47254 15.9466 1.69346 15.9466H20.5468C20.7677 15.9466 20.9468 15.7676 20.9468 15.5466V2.87998C20.9468 2.65907 20.7677 2.47998 20.5468 2.47998Z" fill="url(#paint0_linear_836_25200)"/>
<path d="M23.6001 5.49341H14.1334C13.9125 5.49341 13.7334 5.67249 13.7334 5.89341V22.2267C13.7334 22.4477 13.9125 22.6267 14.1334 22.6267H23.6001C23.821 22.6267 24.0001 22.4477 24.0001 22.2267V5.89341C24.0001 5.67249 23.821 5.49341 23.6001 5.49341Z" fill="url(#paint1_linear_836_25200)"/>
<path d="M19.9067 6.06665H17.84C17.759 6.06665 17.6934 6.13231 17.6934 6.21332V6.23998C17.6934 6.32099 17.759 6.38665 17.84 6.38665H19.9067C19.9877 6.38665 20.0534 6.32099 20.0534 6.23998V6.21332C20.0534 6.13231 19.9877 6.06665 19.9067 6.06665Z" fill="#F2F2F2"/>
<path d="M12.1865 1.8667H10.1198C10.0388 1.8667 9.97314 1.93236 9.97314 2.01337V2.04003C9.97314 2.12103 10.0388 2.1867 10.1198 2.1867H12.1865C12.2675 2.1867 12.3331 2.12103 12.3331 2.04003V2.01337C12.3331 1.93236 12.2675 1.8667 12.1865 1.8667Z" fill="#F2F2F2"/>
<path d="M19.1735 21.28H18.5601C18.4128 21.28 18.2935 21.3994 18.2935 21.5467V21.9867C18.2935 22.134 18.4128 22.2534 18.5601 22.2534H19.1735C19.3207 22.2534 19.4401 22.134 19.4401 21.9867V21.5467C19.4401 21.3994 19.3207 21.28 19.1735 21.28Z" fill="#F2F2F2"/>
<defs>
<linearGradient id="paint0_linear_836_25200" x1="11.1201" y1="15.9466" x2="11.1201" y2="2.47998" gradientUnits="userSpaceOnUse">
<stop stop-color="#D2EBFF"/>
<stop offset="1" stop-color="#F0FFFD"/>
</linearGradient>
<linearGradient id="paint1_linear_836_25200" x1="18.8667" y1="27.2134" x2="18.8667" y2="3.12008" gradientUnits="userSpaceOnUse">
<stop stop-color="#0078D4"/>
<stop offset="0.17" stop-color="#1C84DC"/>
<stop offset="0.38" stop-color="#3990E4"/>
<stop offset="0.59" stop-color="#4D99EA"/>
<stop offset="0.8" stop-color="#5A9EEE"/>
<stop offset="1" stop-color="#5EA0EF"/>
</linearGradient>
</defs>
</svg>
