<svg width="24" height="24" viewBox="0 0 24 24" fill="none" xmlns="http://www.w3.org/2000/svg">
<rect width="24" height="24" fill="white"/>
<path d="M15.5993 23.3884C14.4691 24.5544 12.64 23.9272 12.1599 22.5659C11.7639 21.443 11.2493 20.098 10.748 19.1079C9.24873 16.1466 8.3735 14.4617 5.95962 12.3536C5.63944 12.0739 5.22659 11.8484 4.77015 11.6708C3.17265 11.0492 1.67036 9.41979 2.06326 7.48556L2.5627 5.02684C2.82558 3.73347 3.80792 2.69725 5.10052 2.3502L13.0233 0.222952C16.6249 -0.744057 20.2949 1.53298 20.9627 5.1489L21.9303 10.3886C22.404 12.9537 20.4024 15.3149 17.7542 15.3149H16.5042L16.5188 15.3876C16.6321 15.9561 16.7685 16.7391 16.8598 17.5925C16.9506 18.4425 16.9989 19.3814 16.9277 20.2565C16.8579 21.1151 16.6675 21.9964 16.2143 22.6658C16.0594 22.8945 15.8293 23.1509 15.5993 23.3884Z" fill="#0078D4"/>
</svg>
