<svg width="24" height="24" viewBox="0 0 24 24" fill="none" xmlns="http://www.w3.org/2000/svg">
<path d="M4.99365 18.7225C5.51662 19.0458 6.38599 19.4052 7.30522 19.4052C8.14225 19.4052 8.91996 19.1647 9.56424 18.7547C9.56424 18.7547 9.56559 18.7547 9.56693 18.7532L11.9998 17.2463V22.6875C11.6143 22.6875 11.2262 22.5832 10.8893 22.3748L4.99365 18.7225Z" fill="#225086"/>
<path d="M10.4694 2.0085L0.470601 13.276C-0.301301 14.147 -0.0999924 15.4629 0.901222 16.0875C0.901222 16.0875 4.60212 18.3983 5.06873 18.6901C5.58601 19.0123 6.4459 19.3706 7.35513 19.3706C8.18303 19.3706 8.95227 19.1308 9.58954 18.7219C9.58954 18.7219 9.59087 18.7219 9.5922 18.7207L11.9986 17.2184L6.1806 13.585L11.9999 7.02693V1.33325C11.4347 1.33325 10.8694 1.55834 10.4694 2.0085Z" fill="#66DDFF"/>
<path d="M6.14893 13.6062L6.21863 13.6489L11.9985 17.2467H11.9998V7.03673L11.9985 7.0354L6.14893 13.6062Z" fill="#CBF8FF"/>
<path d="M23.0986 16.1205C24.1 15.4946 24.3013 14.1761 23.5293 13.3034L16.9672 5.89566C16.4379 5.64879 15.8444 5.50732 15.2165 5.50732C13.983 5.50732 12.8801 6.03979 12.1468 6.87651L12.0014 7.04065L17.8207 13.6117L12 17.2521V22.6874C12.3827 22.6874 12.7641 22.5835 13.0975 22.3752L23.0986 16.1192V16.1205Z" fill="#074793"/>
<path d="M12.0014 1.33325V7.03513L12.1487 6.87108C12.8915 6.03481 14.0085 5.50262 15.2577 5.50262C15.8952 5.50262 16.495 5.64534 17.0311 5.89076L13.5479 2.01081C13.1439 1.55999 12.5713 1.33459 12 1.33459L12.0014 1.33325Z" fill="#0294E4"/>
<path d="M17.851 13.6066L12 7.0354V17.2467L17.851 13.6066Z" fill="#96BCC2"/>
</svg>
