<svg width="24" height="24" viewBox="0 0 24 24" fill="none" xmlns="http://www.w3.org/2000/svg">
<path d="M15.5829 12.075C15.4457 12.075 15.3029 12.052 15.1657 12.006C14.6286 11.8277 14.2857 11.3447 14.2857 10.7812V9.1655C12.9943 8.9585 12 7.82575 12 6.46875V2.73125C12 1.22475 13.2171 0 14.7143 0H21.2857C22.7829 0 24 1.22475 24 2.73125V6.46875C24 7.97525 22.7829 9.2 21.2857 9.2H18.36L16.6 11.5575C16.3486 11.891 15.9771 12.075 15.5829 12.075ZM7.42857 13.5125C5.06286 13.5125 3.14286 11.5805 3.14286 9.2C3.14286 6.8195 5.06286 4.8875 7.42857 4.8875C9.79429 4.8875 11.7143 6.8195 11.7143 9.2C11.7143 11.5805 9.79429 13.5125 7.42857 13.5125ZM0 17.7043C0 17.756 0.0857139 23 7.42857 23C14.7714 23 14.8571 17.756 14.8571 17.7043V17.1063C14.8571 15.916 13.8971 14.95 12.7143 14.95H2.14286C0.96 14.95 0 15.916 0 17.1063V17.7043Z" fill="url(#paint0_linear_818_8714)"/>
<defs>
<linearGradient id="paint0_linear_818_8714" x1="12" y1="1.87429e-07" x2="12.1458" y2="22.9991" gradientUnits="userSpaceOnUse">
<stop stop-color="#4DA9FF"/>
<stop offset="1" stop-color="#0052B3"/>
</linearGradient>
</defs>
</svg>
