<svg width="24" height="24" viewBox="0 0 24 24" fill="none" xmlns="http://www.w3.org/2000/svg">
<g clip-path="url(#clip0_738_8622)">
<path d="M0 3.62127C0 0.560921 4.00802 -1.11446 6.65584 0.839089L12.412 5.083L17.2697 2.33457C19.8372 0.936795 23.9513 1.93931 24 5.76026L24 19.8415C24 22.9018 20.1096 24.4973 17.4618 22.5437L11.6007 18.2072L6.73729 20.9562C4.14559 22.3671 0.00404755 21.2847 0.00404755 17.566C0.0040493 13.1024 0 14.8162 0 3.62127Z" fill="url(#paint0_linear_738_8622)"/>
<path d="M0 3.62127C0 0.560921 4.00802 -1.11446 6.65584 0.839089L12.412 5.083L17.2697 2.33457C19.8372 0.936795 23.9513 1.93931 24 5.76026L24 19.8415C24 22.9018 20.1096 24.4973 17.4618 22.5437L11.6007 18.2072L6.73729 20.9562C4.14559 22.3671 0.00404755 21.2847 0.00404755 17.566C0.0040493 13.1024 0 14.8162 0 3.62127Z" fill="url(#paint1_radial_738_8622)"/>
<path d="M0 3.62127C0 0.560921 4.00802 -1.11446 6.65584 0.839089L12.412 5.083L17.2697 2.33457C19.8372 0.936795 23.9513 1.93931 24 5.76026L24 19.8415C24 22.9018 20.1096 24.4973 17.4618 22.5437L11.6007 18.2072L6.73729 20.9562C4.14559 22.3671 0.00404755 21.2847 0.00404755 17.566C0.0040493 13.1024 0 14.8162 0 3.62127Z" fill="url(#paint2_radial_738_8622)"/>
<path d="M6.65584 0.839089C4.00802 -1.11446 0 0.560921 0 3.62127V17.3926C0 17.0578 0.170852 16.3912 0.170852 16.3912C0.960616 13.8139 4.31781 12.8475 6.64046 14.546L17.4618 22.5437C20.1096 24.4973 24 22.9018 24 19.8415V5.76026C24 8.3746 20.5774 10.999 17.3442 8.72503L6.65584 0.839089Z" fill="url(#paint3_radial_738_8622)"/>
<path d="M6.65584 0.839089C4.00802 -1.11446 0 0.560921 0 3.62127V17.3926C0 17.0578 0.170852 16.3912 0.170852 16.3912C0.960616 13.8139 4.31781 12.8475 6.64046 14.546L17.4618 22.5437C20.1096 24.4973 24 22.9018 24 19.8415V5.76026C24 8.3746 20.5774 10.999 17.3442 8.72503L6.65584 0.839089Z" fill="url(#paint4_radial_738_8622)" fill-opacity="0.25"/>
<path d="M6.65584 0.839089C4.00802 -1.11446 0 0.560921 0 3.62127V17.3926C0 17.0578 0.170852 16.3912 0.170852 16.3912C0.960616 13.8139 4.31781 12.8475 6.64046 14.546L17.4618 22.5437C20.1096 24.4973 24 22.9018 24 19.8415V5.76026C24 8.3746 20.5774 10.999 17.3442 8.72503L6.65584 0.839089Z" fill="url(#paint5_radial_738_8622)" fill-opacity="0.55"/>
<path d="M6.65584 8.64357C4.00802 6.69002 0 8.3654 0 11.4258L7.97584e-07 3.62127C1.07328e-06 0.560921 4.00802 -1.11446 6.65584 0.839089C10.2186 3.4677 13.7814 6.09642 17.3442 8.72503C20.5774 10.999 24 8.3746 24 5.76026V13.7473C24 16.8077 19.992 18.4831 17.3442 16.5295C13.7813 13.9009 10.2187 11.2722 6.65584 8.64357Z" fill="url(#paint6_linear_738_8622)"/>
<path d="M6.65584 8.64357C4.00802 6.69002 0 8.3654 0 11.4258L7.97584e-07 3.62127C1.07328e-06 0.560921 4.00802 -1.11446 6.65584 0.839089C10.2186 3.4677 13.7814 6.09642 17.3442 8.72503C20.5774 10.999 24 8.3746 24 5.76026V13.7473C24 16.8077 19.992 18.4831 17.3442 16.5295C13.7813 13.9009 10.2187 11.2722 6.65584 8.64357Z" fill="url(#paint7_radial_738_8622)" fill-opacity="0.35"/>
</g>
<defs>
<linearGradient id="paint0_linear_738_8622" x1="10.249" y1="23.4" x2="18.7918" y2="5.09114" gradientUnits="userSpaceOnUse">
<stop offset="0.02" stop-color="#1169DA"/>
<stop offset="0.434784" stop-color="#0151BD"/>
<stop offset="0.614436" stop-color="#014DB7"/>
<stop offset="1" stop-color="#126AD9"/>
</linearGradient>
<radialGradient id="paint1_radial_738_8622" cx="0" cy="0" r="1" gradientTransform="matrix(-6.06162 16.4275 -10.8882 -8.42769 21.4782 -3.24111)" gradientUnits="userSpaceOnUse">
<stop offset="0.422966" stop-color="#004AFF" stop-opacity="0.1"/>
<stop offset="0.728672" stop-color="#014DB9"/>
<stop offset="0.836135" stop-color="#014DB9" stop-opacity="0.9"/>
<stop offset="0.955" stop-color="#014DB9" stop-opacity="0"/>
</radialGradient>
<radialGradient id="paint2_radial_738_8622" cx="0" cy="0" r="1" gradientTransform="matrix(3.93142 -13.3736 16.3469 4.67896 3.20381 22.6848)" gradientUnits="userSpaceOnUse">
<stop offset="0.0908532" stop-color="#004AFF" stop-opacity="0.1"/>
<stop offset="0.56036" stop-color="#014DB9"/>
<stop offset="0.749466" stop-color="#014DB9" stop-opacity="0.99"/>
<stop offset="1" stop-color="#014DB9" stop-opacity="0"/>
</radialGradient>
<radialGradient id="paint3_radial_738_8622" cx="0" cy="0" r="1" gradientTransform="matrix(-23.5344 24.2737 -14.3078 -22.655 26.3255 -4.97701e-06)" gradientUnits="userSpaceOnUse">
<stop offset="0.249322" stop-color="#23C0FE"/>
<stop offset="0.717207" stop-color="#23C0FE"/>
<stop offset="0.995168" stop-color="#1C91FF"/>
</radialGradient>
<radialGradient id="paint4_radial_738_8622" cx="0" cy="0" r="1" gradientTransform="matrix(16.8435 17.3589 -4.18314 3.95207 7.15653 1.89951)" gradientUnits="userSpaceOnUse">
<stop offset="0.165" stop-color="#096DD6" stop-opacity="0"/>
<stop offset="0.484233" stop-color="#096DD6"/>
<stop offset="0.900505" stop-color="#0876DE" stop-opacity="0.813868"/>
<stop offset="1" stop-color="#029AFF" stop-opacity="0"/>
</radialGradient>
<radialGradient id="paint5_radial_738_8622" cx="0" cy="0" r="1" gradientTransform="matrix(-0.109232 3.88019 -3.49627 -0.229013 23.1054 14.3543)" gradientUnits="userSpaceOnUse">
<stop stop-color="#0068B3"/>
<stop offset="0.93" stop-color="#006CB8" stop-opacity="0"/>
</radialGradient>
<linearGradient id="paint6_linear_738_8622" x1="6.84208" y1="5.51845" x2="10.8706" y2="22.6644" gradientUnits="userSpaceOnUse">
<stop stop-color="#92EEFE"/>
<stop offset="0.564559" stop-color="#35DDFF"/>
<stop offset="1" stop-color="#08B1F9"/>
</linearGradient>
<radialGradient id="paint7_radial_738_8622" cx="0" cy="0" r="1" gradientTransform="matrix(2.09799 5.59075 -4.54096 1.64375 4.02573 5.45046e-07)" gradientUnits="userSpaceOnUse">
<stop stop-color="#CCF9FF" stop-opacity="0.93"/>
<stop offset="1" stop-color="#35DDFF"/>
</radialGradient>
<clipPath id="clip0_738_8622">
<rect width="24" height="24" fill="white"/>
</clipPath>
</defs>
</svg>
