<svg width="24" height="24" viewBox="0 0 24 24" fill="none" xmlns="http://www.w3.org/2000/svg">
<path d="M9.91125 0.813965L9.79141 0.88645C9.6008 1.00176 9.42122 1.13068 9.25365 1.27155L9.5993 1.02842H12.533L13.0663 5.06683L10.3997 7.7335L7.73301 9.58704V11.7244C7.73301 13.2172 8.51322 14.6014 9.79029 15.3745L12.5976 17.0737L6.66634 20.5336H5.52239L3.39027 19.243C2.1132 18.47 1.33301 17.0858 1.33301 15.593V8.40581C1.33301 6.91253 2.1137 5.5279 3.39142 4.75504L9.79141 0.883826C9.83109 0.859837 9.87103 0.836552 9.91125 0.813965Z" fill="url(#paint0_radial_717_7126)"/>
<path d="M9.91125 0.813965L9.79141 0.88645C9.6008 1.00176 9.42122 1.13068 9.25365 1.27155L9.5993 1.02842H12.533L13.0663 5.06683L10.3997 7.7335L7.73301 9.58704V11.7244C7.73301 13.2172 8.51322 14.6014 9.79029 15.3745L12.5976 17.0737L6.66634 20.5336H5.52239L3.39027 19.243C2.1132 18.47 1.33301 17.0858 1.33301 15.593V8.40581C1.33301 6.91253 2.1137 5.5279 3.39142 4.75504L9.79141 0.883826C9.83109 0.859837 9.87103 0.836552 9.91125 0.813965Z" fill="url(#paint1_linear_717_7126)"/>
<path d="M16.2668 9.3335V11.723C16.2668 13.2158 15.4866 14.6001 14.2095 15.3731L7.80952 19.247C6.50029 20.0395 4.87133 20.0681 3.53906 19.3328L9.79069 23.117C11.1489 23.9391 12.8513 23.9391 14.2095 23.117L20.6095 19.243C21.8866 18.47 22.6667 17.0857 22.6667 15.5929V13.8668L22.1334 13.0668L16.2668 9.3335Z" fill="url(#paint2_radial_717_7126)"/>
<path d="M16.2668 9.3335V11.723C16.2668 13.2158 15.4866 14.6001 14.2095 15.3731L7.80952 19.247C6.50029 20.0395 4.87133 20.0681 3.53906 19.3328L9.79069 23.117C11.1489 23.9391 12.8513 23.9391 14.2095 23.117L20.6095 19.243C21.8866 18.47 22.6667 17.0857 22.6667 15.5929V13.8668L22.1334 13.0668L16.2668 9.3335Z" fill="url(#paint3_linear_717_7126)"/>
<path d="M20.6083 4.75494L14.2083 0.88373C12.8928 0.0879593 11.2545 0.0633086 9.91894 0.809773L9.7918 0.886679C8.51409 1.65954 7.7334 3.04415 7.7334 4.53745V9.59553L9.7918 8.35041C11.1495 7.52923 12.8507 7.52923 14.2083 8.35041L20.6083 12.2216C21.8461 12.9704 22.6174 14.2931 22.6644 15.7326C22.666 15.6861 22.6667 15.6396 22.6667 15.5929V8.40571C22.6667 6.91243 21.886 5.52779 20.6083 4.75494Z" fill="url(#paint4_radial_717_7126)"/>
<path d="M20.6083 4.75494L14.2083 0.88373C12.8928 0.0879593 11.2545 0.0633086 9.91894 0.809773L9.7918 0.886679C8.51409 1.65954 7.7334 3.04415 7.7334 4.53745V9.59553L9.7918 8.35041C11.1495 7.52923 12.8507 7.52923 14.2083 8.35041L20.6083 12.2216C21.8461 12.9704 22.6174 14.2931 22.6644 15.7326C22.666 15.6861 22.6667 15.6396 22.6667 15.5929V8.40571C22.6667 6.91243 21.886 5.52779 20.6083 4.75494Z" fill="url(#paint5_linear_717_7126)"/>
<defs>
<radialGradient id="paint0_radial_717_7126" cx="0" cy="0" r="1" gradientUnits="userSpaceOnUse" gradientTransform="translate(8.4896 4.87392) rotate(110.528) scale(17.795 31.0382)">
<stop offset="0.06441" stop-color="#AE7FE2"/>
<stop offset="1" stop-color="#0078D4"/>
</radialGradient>
<linearGradient id="paint1_linear_717_7126" x1="8.53936" y1="19.3967" x2="6.00037" y2="15.0053" gradientUnits="userSpaceOnUse">
<stop stop-color="#114A8B"/>
<stop offset="1" stop-color="#0078D4" stop-opacity="0"/>
</linearGradient>
<radialGradient id="paint2_radial_717_7126" cx="0" cy="0" r="1" gradientUnits="userSpaceOnUse" gradientTransform="translate(4.76274 18.5874) rotate(-8.36717) scale(16.5602 10.9391)">
<stop offset="0.133928" stop-color="#D59DFF"/>
<stop offset="1" stop-color="#5E438F"/>
</radialGradient>
<linearGradient id="paint3_linear_717_7126" x1="20.7236" y1="12.7345" x2="18.0029" y2="16.6357" gradientUnits="userSpaceOnUse">
<stop stop-color="#493474"/>
<stop offset="1" stop-color="#8C66BA" stop-opacity="0"/>
</linearGradient>
<radialGradient id="paint4_radial_717_7126" cx="0" cy="0" r="1" gradientUnits="userSpaceOnUse" gradientTransform="translate(21.0962 13.3356) rotate(-165.772) scale(13.2922 22.3761)">
<stop offset="0.0584996" stop-color="#50E6FF"/>
<stop offset="1" stop-color="#436DCD"/>
</radialGradient>
<linearGradient id="paint5_linear_717_7126" x1="8.25383" y1="0.830274" x2="12.2597" y2="0.830274" gradientUnits="userSpaceOnUse">
<stop stop-color="#2D3F80"/>
<stop offset="1" stop-color="#436DCD" stop-opacity="0"/>
</linearGradient>
</defs>
</svg>
