<svg width="24" height="24" viewBox="0 0 24 24" fill="none" xmlns="http://www.w3.org/2000/svg">
<rect width="24" height="24" fill="white"/>
<path d="M15.5993 0.611612C14.4691 -0.554432 12.64 0.0727585 12.1599 1.43405C11.7639 2.5571 11.2493 3.90197 10.748 4.89217C9.24873 7.8534 8.3735 9.53825 5.95962 11.6464C5.63944 11.9262 5.22658 12.1516 4.77015 12.3292C3.17264 12.9509 1.67034 14.5802 2.06327 16.5144L2.5627 18.9731C2.82558 20.2665 3.80791 21.3028 5.10052 21.6498L13.0233 23.777C16.6249 24.7441 20.2949 22.467 20.9627 18.8511L21.9303 13.6114C22.404 11.0463 20.4024 8.68515 17.7542 8.68515H16.5042L16.5188 8.61239C16.6321 8.04383 16.7685 7.26084 16.8598 6.40751C16.9506 5.55747 16.9989 4.61847 16.9277 3.74354C16.8579 2.88499 16.6675 2.00357 16.2143 1.33426C16.0594 1.10551 15.8293 0.848997 15.5993 0.611612Z" fill="#0078D4"/>
</svg>
