<svg width="24" height="24" viewBox="0 0 24 24" fill="none" xmlns="http://www.w3.org/2000/svg">
<path d="M18.8486 1.52097L22.4814 5.15386C23.4856 6.15807 23.4856 7.7862 22.4814 8.79041L19.5278 11.7435C20.7655 11.9291 21.7145 12.9969 21.7145 14.2864V20.2864C21.7145 21.7065 20.5632 22.8578 19.1431 22.8578H3.71449C2.29433 22.8578 1.14307 21.7065 1.14307 20.2864V4.85773C1.14307 3.43757 2.29433 2.28631 3.71449 2.28631H9.71449C11.0047 2.28631 12.073 3.23655 12.2577 4.47535L15.212 1.52097C16.2162 0.516774 17.8443 0.516774 18.8486 1.52097ZM2.85735 20.2864C2.85735 20.7597 3.24111 21.1435 3.71449 21.1435L10.5705 21.1427L10.5716 13.4292L2.85735 13.4284V20.2864ZM12.2848 21.1427L19.1431 21.1435C19.6164 21.1435 20.0002 20.7597 20.0002 20.2864V14.2864C20.0002 13.8129 19.6164 13.4292 19.1431 13.4292L12.2848 13.4284V21.1427ZM9.71449 4.00059H3.71449C3.24111 4.00059 2.85735 4.38435 2.85735 4.85773V11.7141H10.5716V4.85773C10.5716 4.38435 10.1879 4.00059 9.71449 4.00059ZM12.2859 9.49697V11.7149L14.5031 11.7141L12.2859 9.49697ZM16.4241 2.73315L12.7913 6.36604C12.4566 6.70077 12.4566 7.24348 12.7913 7.57823L16.4241 11.211C16.7588 11.5458 17.3016 11.5458 17.6363 11.211L21.2692 7.57823C21.604 7.24348 21.604 6.70077 21.2692 6.36604L17.6363 2.73315C17.3016 2.39842 16.7588 2.39842 16.4241 2.73315Z" fill="#0078D4"/>
</svg>
