<svg width="24" height="24" viewBox="0 0 24 24" fill="none" xmlns="http://www.w3.org/2000/svg">
<path d="M8.66032 13.3777L1.03209 20.834C0.462081 21.3911 0.462081 22.2944 1.03209 22.8516L1.17509 22.9914C1.7451 23.5485 2.66926 23.5485 3.23927 22.9914L10.8675 15.5352C11.4375 14.978 11.4375 14.0747 10.8675 13.5175L10.7245 13.3777C10.1545 12.8206 9.23032 12.8206 8.66032 13.3777Z" fill="#198AB3"/>
<path d="M14.5972 18.3817C19.7903 18.3817 24.0001 14.2668 24.0001 9.19083C24.0001 4.11488 19.7903 0 14.5972 0C9.40414 0 5.19434 4.11488 5.19434 9.19083C5.19434 14.2668 9.40414 18.3817 14.5972 18.3817Z" fill="url(#paint0_radial_836_25209)"/>
<path d="M14.5772 16.2461C18.6562 16.2461 21.963 13.0139 21.963 9.02685C21.963 5.03978 18.6562 1.80762 14.5772 1.80762C10.4981 1.80762 7.19141 5.03978 7.19141 9.02685C7.19141 13.0139 10.4981 16.2461 14.5772 16.2461Z" fill="white"/>
<path d="M7.42035 10.8127C7.42035 10.8127 9.44276 0.923502 18.8895 3.16691C17.6269 2.2513 16.0937 1.7624 14.5216 1.77413C12.9495 1.78586 11.424 2.29759 10.1759 3.23194C8.98055 4.07011 8.07605 5.24556 7.58376 6.60058C7.09146 7.9556 7.03357 9.42538 7.42035 10.8127Z" fill="#C3F1FF"/>
<path d="M14.6039 11.2585C17.3 11.2585 19.4856 10.7555 19.4856 10.1349C19.4856 9.51431 17.3 9.01123 14.6039 9.01123C11.9078 9.01123 9.72217 9.51431 9.72217 10.1349C9.72217 10.7555 11.9078 11.2585 14.6039 11.2585Z" fill="#32BEDD"/>
<path d="M19.4869 12.3457V10.1348C19.4869 10.7551 17.3009 11.2584 14.6052 11.2584C11.9096 11.2584 9.72217 10.7551 9.72217 10.1348V12.3977C9.72217 13.018 11.9082 13.5213 14.6039 13.5213C17.2437 13.5213 19.3925 13.0388 19.4829 12.4367V12.347H19.4869V12.3457Z" fill="#0078D4"/>
<path d="M14.5892 7.26225C11.9229 7.26225 9.75675 6.76935 9.71151 6.1594H9.70752V8.40151C9.70752 9.02316 11.8936 9.52517 14.5892 9.52517C17.229 9.52517 19.3778 9.04267 19.467 8.44053V6.13989C19.471 6.76024 17.2849 7.26225 14.5892 7.26225Z" fill="#5EA0EF"/>
<path d="M14.5892 7.26221C17.2853 7.26221 19.471 6.75913 19.471 6.13855C19.471 5.51797 17.2853 5.01489 14.5892 5.01489C11.8931 5.01489 9.70752 5.51797 9.70752 6.13855C9.70752 6.75913 11.8931 7.26221 14.5892 7.26221Z" fill="#9CEBFF"/>
<defs>
<radialGradient id="paint0_radial_836_25209" cx="0" cy="0" r="1" gradientUnits="userSpaceOnUse" gradientTransform="translate(14.5972 9.19083) scale(9.40286 9.19083)">
<stop offset="0.225" stop-color="#32D4F5"/>
<stop offset="0.59" stop-color="#32D2F2"/>
<stop offset="0.825" stop-color="#32CAEA"/>
<stop offset="1" stop-color="#32BEDD"/>
</radialGradient>
</defs>
</svg>
