<?xml version="1.0" encoding="UTF-8" standalone="no"?>
<!DOCTYPE svg PUBLIC "-//W3C//DTD SVG 1.1//EN" "http://www.w3.org/Graphics/SVG/1.1/DTD/svg11.dtd">
<!-- Generated by Microsoft Visio, SVG Export analytics.svg Page-1 -->
<svg xmlns="http://www.w3.org/2000/svg" xmlns:xlink="http://www.w3.org/1999/xlink" xmlns:ev="http://www.w3.org/2001/xml-events"
		xmlns:v="http://schemas.microsoft.com/visio/2003/SVGExtensions/" width="0.484351in" height="0.484332in"
		viewBox="0 0 34.8733 34.8719" xml:space="preserve" color-interpolation-filters="sRGB" class="st4">
	<v:documentProperties v:langID="1033" v:viewMarkup="false"/>

	<style type="text/css">
	<![CDATA[
		.st1 {fill:url(#grad0-5);stroke:none;stroke-linecap:butt;stroke-width:0.75}
		.st2 {fill:url(#grad0-9);stroke:none;stroke-linecap:butt;stroke-width:0.75}
		.st3 {fill:#ffffff;stroke:none;stroke-linecap:butt;stroke-width:0.75}
		.st4 {fill:none;fill-rule:evenodd;font-size:12px;overflow:visible;stroke-linecap:square;stroke-miterlimit:3}
	]]>
	</style>

	<defs id="Patterns_And_Gradients">
		<linearGradient id="grad0-5" x1="0" y1="0" x2="1" y2="0" gradientTransform="rotate(-90 0.5 0.5)">
			<stop offset="0" stop-color="#1988d9" stop-opacity="1"/>
			<stop offset="0.9" stop-color="#54aef0" stop-opacity="1"/>
		</linearGradient>
		<linearGradient id="grad0-9" x1="0" y1="0" x2="1" y2="0" gradientTransform="rotate(-90 0.5 0.5)">
			<stop offset="0" stop-color="#198ab3" stop-opacity="1"/>
			<stop offset="0.01" stop-color="#198bb4" stop-opacity="1"/>
			<stop offset="0.44" stop-color="#27b2d7" stop-opacity="1"/>
			<stop offset="0.79" stop-color="#2fcbed" stop-opacity="1"/>
			<stop offset="1" stop-color="#32d4f5" stop-opacity="1"/>
		</linearGradient>
	</defs>
	<g v:mID="0" v:index="1" v:groupContext="foregroundPage">
		<title>Page-1</title>
		<v:pageProperties v:drawingScale="1" v:pageScale="1" v:drawingUnits="19" v:shadowOffsetX="9" v:shadowOffsetY="-9"/>
		<g id="group43-1" transform="translate(0.75,-0.75)" v:mID="43" v:groupContext="group">
			<title>Icon-manage-307</title>
			<g id="shape44-2" v:mID="44" v:groupContext="shape">
				<title>Sheet.44</title>
				<path d="M9.95 26.34 L18.48 26.34 L18.48 34.87 L9.95 34.87 L9.95 26.34 ZM1.18 34.87 L8.53 34.87 L8.53 26.34 L0 26.34
							 L0 33.69 A1.18478 1.18478 -180 0 0 1.18 34.87 ZM0 25 L8.53 25 L8.53 16.39 L0 16.39 L0 25 Z"
						class="st1"/>
			</g>
			<g id="shape45-6" v:mID="45" v:groupContext="shape" transform="translate(9.87315,-9.77442)">
				<title>Sheet.45</title>
				<path d="M11.75 11.28 A11.6306 11.6306 0 0 1 23.5 23.12 A11.6306 11.6306 0 0 1 11.75 34.87 L0 34.87 L0 23.02 A11.6306
							 11.6306 0 0 1 11.75 11.28 Z" class="st2"/>
			</g>
			<g id="shape46-10" v:mID="46" v:groupContext="shape" transform="translate(13.9014,-15.2441)">
				<title>Sheet.46</title>
				<rect x="0" y="26.8154" width="2.6855" height="8.05649" class="st3"/>
			</g>
			<g id="shape47-12" v:mID="47" v:groupContext="shape" transform="translate(19.2724,-15.2441)">
				<title>Sheet.47</title>
				<rect x="0" y="29.5009" width="2.6855" height="5.37099" class="st3"/>
			</g>
			<g id="shape48-14" v:mID="48" v:groupContext="shape" transform="translate(24.6434,-15.2441)">
				<title>Sheet.48</title>
				<rect x="0" y="24.1299" width="2.6855" height="10.742" class="st3"/>
			</g>
		</g>
	</g>
</svg>
