<?xml version="1.0" encoding="UTF-8" standalone="no"?>
<!DOCTYPE svg PUBLIC "-//W3C//DTD SVG 1.1//EN" "http://www.w3.org/Graphics/SVG/1.1/DTD/svg11.dtd">
<!-- Generated by Microsoft Visio, SVG Export configmgr.svg Page-1 -->
<svg xmlns="http://www.w3.org/2000/svg" xmlns:xlink="http://www.w3.org/1999/xlink" xmlns:ev="http://www.w3.org/2001/xml-events"
		xmlns:v="http://schemas.microsoft.com/visio/2003/SVGExtensions/" width="0.489724in" height="0.628366in"
		viewBox="0 0 35.2601 45.2424" xml:space="preserve" color-interpolation-filters="sRGB" class="st4">
	<v:documentProperties v:langID="1033" v:viewMarkup="false"/>

	<style type="text/css">
	<![CDATA[
		.st1 {fill:#ffffff;stroke:none;stroke-linecap:butt;stroke-width:0.944444}
		.st2 {fill:#515150;stroke:none;stroke-linecap:butt;stroke-width:0.944444}
		.st3 {fill:#0078d7;stroke:none;stroke-linecap:butt;stroke-width:0.944444}
		.st4 {fill:none;fill-rule:evenodd;font-size:12px;overflow:visible;stroke-linecap:square;stroke-miterlimit:3}
	]]>
	</style>

	<g v:mID="0" v:index="1" v:groupContext="foregroundPage">
		<title>Page-1</title>
		<v:pageProperties v:drawingScale="1" v:pageScale="1" v:drawingUnits="19" v:shadowOffsetX="9" v:shadowOffsetY="-9"/>
		<g id="group17-1" transform="translate(0.944444,-0.944444)" v:mID="17" v:groupContext="group">
			<title>Sheet.17</title>
			<g id="group18-2" v:mID="18" v:groupContext="group">
				<title>Completed_Icons</title>
				<g id="shape19-3" v:mID="19" v:groupContext="shape">
					<title>Sheet.19</title>
					<path d="M33.37 26.44 C33.37 23.97 28.85 22.8 24.34 22.8 C23.53 22.8 22.66 22.87 21.86 22.95 L21.86 5.17 C21.86
								 3.35 20.4 1.89 18.58 1.89 L3.28 1.89 C1.46 1.89 0 3.35 0 5.17 L0 42.33 L15.59 42.33 C16.83 44.88
								 21.42 45.24 24.26 45.24 C27.47 45.24 32.93 44.73 33.23 41.23 L33.23 27.03 C33.37 26.88 33.37 26.66
								 33.37 26.44 Z" class="st1"/>
				</g>
				<g id="group20-5" transform="translate(1.16581,-1.09294)" v:mID="20" v:groupContext="group">
					<title>Sheet.20</title>
					<g id="shape21-6" v:mID="21" v:groupContext="shape" transform="translate(-1.57874E-13,-2.91452)">
						<title>Sheet.21</title>
						<path d="M13.63 40.87 L3.79 40.87 L3.79 39.19 L13.63 39.19 L13.63 35.92 L3.79 35.92 L3.79 34.24 L13.63 34.24
									 L13.63 30.89 L13.63 30.38 C13.63 28.05 16.39 26.88 19.67 26.44 L19.67 9.18 C19.67 8.01 18.65
									 6.99 17.49 6.99 L2.19 6.99 C1.02 6.99 0 8.01 0 9.18 L0 45.24 L13.7 45.24 L13.7 44.59 L13.7 40.87
									 L13.63 40.87 ZM3.79 11.87 L15.81 11.87 L15.81 13.55 L3.79 13.55 L3.79 11.87 Z" class="st2"/>
					</g>
					<g id="shape22-8" v:mID="22" v:groupContext="shape" transform="translate(15.3012,0)">
						<title>Sheet.22</title>
						<path d="M0 29.43 L0 41.6 L0 42.25 C0.29 45.02 5.9 45.24 7.87 45.24 C9.84 45.24 15.52 45.02 15.74 42.25 L15.74
									 41.6 L15.74 29.43 C14.21 30.6 11 31.18 7.94 31.18 C4.88 31.18 1.6 30.6 0 29.43 Z" class="st3"/>
					</g>
					<g id="shape23-10" v:mID="23" v:groupContext="shape" transform="translate(15.3012,-15.2284)">
						<title>Sheet.23</title>
						<ellipse cx="7.94207" cy="42.765" rx="7.94207" ry="2.47734" class="st3"/>
					</g>
				</g>
			</g>
		</g>
	</g>
</svg>
