<?xml version="1.0" encoding="UTF-8" standalone="no"?>
<!DOCTYPE svg PUBLIC "-//W3C//DTD SVG 1.1//EN" "http://www.w3.org/Graphics/SVG/1.1/DTD/svg11.dtd">
<!-- Generated by Microsoft Visio, SVG Export devices.svg Page-1 -->
<svg xmlns="http://www.w3.org/2000/svg" xmlns:xlink="http://www.w3.org/1999/xlink" xmlns:ev="http://www.w3.org/2001/xml-events"
		xmlns:v="http://schemas.microsoft.com/visio/2003/SVGExtensions/" width="0.497705in" height="0.44313in"
		viewBox="0 0 35.8348 31.9054" xml:space="preserve" color-interpolation-filters="sRGB" class="st6">
	<v:documentProperties v:langID="1033" v:viewMarkup="false"/>

	<style type="text/css">
	<![CDATA[
		.st1 {fill:#0078d4;stroke:none;stroke-linecap:butt;stroke-width:0.75}
		.st2 {fill:url(#grad0-7);stroke:none;stroke-linecap:butt;stroke-width:0.75}
		.st3 {fill:url(#grad0-11);stroke:none;stroke-linecap:butt;stroke-width:0.75}
		.st4 {fill:#f2f2f2;stroke:none;stroke-linecap:butt;stroke-width:0.75}
		.st5 {fill:none;stroke:none;stroke-linecap:butt;stroke-width:0.75}
		.st6 {fill:none;fill-rule:evenodd;font-size:12px;overflow:visible;stroke-linecap:square;stroke-miterlimit:3}
	]]>
	</style>

	<defs id="Patterns_And_Gradients">
		<linearGradient id="grad0-7" x1="0" y1="0" x2="1" y2="0" gradientTransform="rotate(-90 0.5 0.5)">
			<stop offset="0" stop-color="#d2ebff" stop-opacity="1"/>
			<stop offset="1" stop-color="#f0fffd" stop-opacity="1"/>
		</linearGradient>
		<linearGradient id="grad0-11" x1="0" y1="0" x2="1" y2="0" gradientTransform="rotate(-90 0.5 0.5)">
			<stop offset="0" stop-color="#0078d4" stop-opacity="1"/>
			<stop offset="0.17" stop-color="#1c84dc" stop-opacity="1"/>
			<stop offset="0.38" stop-color="#3990e4" stop-opacity="1"/>
			<stop offset="0.59" stop-color="#4d99ea" stop-opacity="1"/>
			<stop offset="0.8" stop-color="#5a9eee" stop-opacity="1"/>
			<stop offset="1" stop-color="#5ea0ef" stop-opacity="1"/>
		</linearGradient>
	</defs>
	<g v:mID="0" v:index="1" v:groupContext="foregroundPage">
		<title>Page-1</title>
		<v:pageProperties v:drawingScale="1" v:pageScale="1" v:drawingUnits="19" v:shadowOffsetX="9" v:shadowOffsetY="-9"/>
		<g id="group9-1" transform="translate(0.75,-0.75)" v:mID="9" v:groupContext="group">
			<title>Icon-intune-332</title>
			<g id="shape10-2" v:mID="10" v:groupContext="shape" transform="translate(-1.63869E-13,-7.76347)">
				<title>Sheet.10</title>
				<path d="M0 30.76 A1.14452 1.14452 -180 0 0 1.14 31.91 L30.67 31.91 A1.14452 1.14452 -180 0 0 31.82 30.76 L31.82
							 10.41 A1.14452 1.14452 -180 0 0 30.67 9.26 L1.14 9.26 A1.14452 1.14452 -180 0 0 -0 10.41 L0 30.76 Z"
						class="st1"/>
			</g>
			<g id="shape11-4" v:mID="11" v:groupContext="shape" transform="translate(1.85026,-9.55651)">
				<title>Sheet.11</title>
				<path d="M-0 31.33 a0.57226 0.57226 -180 0 0 0.572246 0.572246 L27.54 31.91 a0.57226 0.57226 -180 0 0 0.572246 -0.572246
							 L28.12 13.21 a0.57226 0.57226 -180 0 0 -0.572246 -0.572246 L0.57 12.64 a0.57226 0.57226 -180 0 0 -0.572246
							 0.572246 L0 31.33 Z" class="st2"/>
			</g>
			<g id="shape12-8" v:mID="12" v:groupContext="shape" transform="translate(19.6471,1.52767E-13)">
				<title>Sheet.12</title>
				<path d="M-0 31.33 a0.57226 0.57226 -180 0 0 0.572246 0.572246 L14.12 31.91 a0.57226 0.57226 -180 0 0 0.572246 -0.572246
							 L14.69 7.97 a0.57226 0.57226 -180 0 0 -0.572246 -0.572246 L0.57 7.39 a0.57226 0.57226 -180 0 0 -0.572246
							 0.572246 L0 31.33 Z" class="st3"/>
			</g>
			<g id="shape13-12" v:mID="13" v:groupContext="shape" transform="translate(25.3124,-23.2332)">
				<title>Sheet.13</title>
				<path d="M0 31.7 a0.209829 0.209829 -180 0 0 0.209824 0.209824 L3.17 31.91 a0.209829 0.209829 -180 0 0 0.209824 -0.209824
							 L3.38 31.66 a0.209829 0.209829 -180 0 0 -0.209824 -0.209824 L0.21 31.45 a0.209829 0.209829 -180 0 0
							 -0.209824 0.209824 L0 31.7 Z" class="st4"/>
			</g>
			<g id="shape14-14" v:mID="14" v:groupContext="shape" transform="translate(21.0396,-2.74678)">
				<title>Sheet.14</title>
				<path d="M0 31.64 a0.267054 0.267054 -180 0 0 0.267048 0.267048 L11.65 31.91 a0.267054 0.267054 -180 0 0 0.267048
							 -0.267048 L11.92 12.47 a0.267054 0.267054 -180 0 0 -0.267048 -0.267048 L0.27 12.2 a0.267054 0.267054
							 -180 0 0 -0.267048 0.267048 L0 31.64 Z" class="st5"/>
			</g>
			<g id="shape15-16" v:mID="15" v:groupContext="shape" transform="translate(14.268,-29.2418)">
				<title>Sheet.15</title>
				<path d="M0 31.7 a0.209829 0.209829 -180 0 0 0.209824 0.209824 L3.17 31.91 a0.209829 0.209829 -180 0 0 0.209824 -0.209824
							 L3.38 31.66 a0.209829 0.209829 -180 0 0 -0.209824 -0.209824 L0.21 31.45 a0.209829 0.209829 -180 0 0
							 -0.209824 0.209824 L0 31.7 Z" class="st4"/>
			</g>
			<g id="shape16-18" v:mID="16" v:groupContext="shape" transform="translate(26.1707,-0.534097)">
				<title>Sheet.16</title>
				<path d="M-0 31.52 a0.381506 0.381506 -180 0 0 0.381498 0.381498 L1.26 31.91 a0.381506 0.381506 -180 0 0 0.381498
							 -0.381498 L1.64 30.89 a0.381506 0.381506 -180 0 0 -0.381498 -0.381498 L0.38 30.51 a0.381506 0.381506
							 -180 0 0 -0.381498 0.381498 L0 31.52 Z" class="st4"/>
			</g>
		</g>
	</g>
</svg>
