<svg id="Titles" xmlns="http://www.w3.org/2000/svg" viewBox="0 0 64 64"><defs><style>.cls-4{stroke:#556a8a;stroke-miterlimit:10;stroke-width:2px;fill:#e5e5e5}</style></defs><g fill-rule="evenodd"><path d="M55.35 6.82a.92.92 0 00-.86-.82h-1.3a16.22 16.22 0 01-9.08 3c-4.76 0-7.79-2.59-10-4.31-.43-.43-.87-1.24-1.3-1.67h-1.68c-.43.43-.86 1.24-1.3 1.67C27.67 6.39 24.64 9 20.32 9a17.49 17.49 0 01-9.52-3H9.51c-.44 0-.44.43-.87.86C.86 27.52 10.8 51.65 31.56 62h1.3C53.19 51.65 63.14 27.52 55.35 6.82z" fill="#55d2f6"/><path d="M32.86 62H32V3h.86c.43.43.87 1.24 1.3 1.67C36.32 6.39 39.35 9 44.11 9a16.22 16.22 0 009.08-3h1.3a.92.92 0 01.86.86C63.14 27.52 53.19 51.65 32.86 62z" fill="#ace8f9"/><path d="M32 62h-.43C10.8 51.65.86 27.52 8.64 6.82c.43-.43.43-.86.87-.86h1.3a17.52 17.52 0 009.52 3c4.33 0 7.35-2.59 9.52-4.31.43-.43.87-1.24 1.3-1.67h1.73c.43.43.87 1.24 1.3 1.67C36.32 6.39 39.35 9 44.11 9a16.24 16.24 0 009.08-3h1.3a.93.93 0 01.87.86c7.78 20.66-2.17 44.79-22.5 55.14z" stroke="#556a8a" stroke-miterlimit="10" stroke-width="2" fill="none"/></g><circle class="cls-4" cx="32" cy="23.64" r="8.64"/><path class="cls-4" d="M18.5 45.24a13.24 13.24 0 0113.5-13 13.24 13.24 0 0113.5 13"/></svg>