<?xml version="1.0" encoding="UTF-8" standalone="no"?>
<!DOCTYPE svg PUBLIC "-//W3C//DTD SVG 1.1//EN" "http://www.w3.org/Graphics/SVG/1.1/DTD/svg11.dtd">
<!-- Generated by Microsoft Visio, SVG Export microsoft-intune.svg Page-1 -->
<svg xmlns="http://www.w3.org/2000/svg" xmlns:xlink="http://www.w3.org/1999/xlink" xmlns:ev="http://www.w3.org/2001/xml-events"
		xmlns:v="http://schemas.microsoft.com/visio/2003/SVGExtensions/" width="0.484323in" height="0.44313in"
		viewBox="0 0 34.8713 31.9054" xml:space="preserve" color-interpolation-filters="sRGB" class="st7">
	<v:documentProperties v:langID="1033" v:viewMarkup="false"/>

	<style type="text/css">
	<![CDATA[
		.st1 {fill:url(#grad0-5);stroke:none;stroke-linecap:butt;stroke-width:0.75}
		.st2 {fill:#ffffff;stroke:none;stroke-linecap:butt;stroke-width:0.75}
		.st3 {fill:url(#grad0-11);stroke:none;stroke-linecap:butt;stroke-width:0.75}
		.st4 {fill:#32bedd;stroke:none;stroke-linecap:butt;stroke-width:0.75}
		.st5 {fill:url(#grad0-19);stroke:none;stroke-linecap:butt;stroke-width:0.75}
		.st6 {fill:#0078d4;stroke:none;stroke-linecap:butt;stroke-width:0.75}
		.st7 {fill:none;fill-rule:evenodd;font-size:12px;overflow:visible;stroke-linecap:square;stroke-miterlimit:3}
	]]>
	</style>

	<defs id="Patterns_And_Gradients">
		<linearGradient id="grad0-5" x1="0" y1="0" x2="1" y2="0" gradientTransform="rotate(-90 0.5 0.5)">
			<stop offset="0" stop-color="#0078d4" stop-opacity="1"/>
			<stop offset="0.82" stop-color="#5ea0ef" stop-opacity="1"/>
		</linearGradient>
		<linearGradient id="grad0-11" x1="0" y1="0" x2="1" y2="0" gradientTransform="rotate(-90 0.5 0.5)">
			<stop offset="0" stop-color="#1490df" stop-opacity="1"/>
			<stop offset="0.98" stop-color="#1f56a3" stop-opacity="1"/>
		</linearGradient>
		<linearGradient id="grad0-19" x1="0" y1="0" x2="1" y2="0" gradientTransform="rotate(-90 0.5 0.5)">
			<stop offset="0" stop-color="#d2ebff" stop-opacity="1"/>
			<stop offset="1" stop-color="#f0fffd" stop-opacity="1"/>
		</linearGradient>
	</defs>
	<g v:mID="0" v:index="1" v:groupContext="foregroundPage">
		<title>Page-1</title>
		<v:pageProperties v:drawingScale="1" v:pageScale="1" v:drawingUnits="19" v:shadowOffsetX="9" v:shadowOffsetY="-9"/>
		<g id="group1-1" transform="translate(0.75,-0.75)" v:mID="1" v:groupContext="group">
			<title>Icon-intune-329</title>
			<g id="shape2-2" v:mID="2" v:groupContext="shape" transform="translate(0,-10.6458)">
				<title>Sheet.2</title>
				<path d="M0 30.92 a0.982108 0.982108 -180 0 0 0.982085 0.982085 L28.68 31.91 a0.982108 0.982108 -180 0 0 0.982085
							 -0.982085 L29.66 13.13 a0.982108 0.982108 -180 0 0 -0.982085 -0.982085 L0.98 12.15 a0.982108 0.982108
							 -180 0 0 -0.982085 0.982085 L0 30.92 Z" class="st1"/>
			</g>
			<g id="shape3-6" v:mID="3" v:groupContext="shape" transform="translate(1.6499,-12.2761)">
				<title>Sheet.3</title>
				<path d="M0 31.36 a0.54998 0.54998 -180 0 0 0.549968 0.549968 L25.81 31.91 a0.54998 0.54998 -180 0 0 0.549968 -0.549968
							 L26.36 15.98 a0.54998 0.54998 -180 0 0 -0.549968 -0.549968 L0.55 15.43 a0.54998 0.54998 -180 0 0 -0.549968
							 0.549968 L0 31.36 Z" class="st2"/>
			</g>
			<g id="shape4-8" v:mID="4" v:groupContext="shape" transform="translate(7.346,-3.00518)">
				<title>Sheet.4</title>
				<path d="M13.43 30.26 C10.49 29.8 10.37 27.68 10.39 24.36 L4.5 24.36 C4.5 27.78 4.38 29.9 1.45 30.26 A1.70883 1.70883
							 -180 0 0 0 31.91 L14.81 31.91 A1.72847 1.72847 -180 0 0 13.43 30.26 Z" class="st3"/>
			</g>
			<g id="shape5-12" v:mID="5" v:groupContext="shape" transform="translate(10.2456,0)">
				<title>Sheet.5</title>
				<path d="M22.5 10.63 L8.98 10.63 A4.53723 4.53723 -180 1 0 8.98 12.44 L10.38 12.44 L10.38 31.26 a0.648176 0.648176
							 -180 0 0 0.648176 0.648176 L22.48 31.91 a0.648176 0.648176 -180 0 0 0.648176 -0.648176 L23.13 11.28
							 a0.648176 0.648176 -180 0 0 -0.628534 -0.648176 Z" class="st4"/>
			</g>
			<g id="shape6-14" v:mID="6" v:groupContext="shape" transform="translate(21.8416,-2.39629)">
				<title>Sheet.6</title>
				<path d="M0 31.67 a0.235706 0.235706 -180 0 0 0.2357 0.2357 L10.12 31.91 a0.235706 0.235706 -180 0 0 0.2357 -0.2357
							 L10.35 15.05 a0.235706 0.235706 -180 0 0 -0.2357 -0.2357 L0.24 14.82 a0.235706 0.235706 -180 0 0 -0.2357
							 0.2357 L0 31.67 Z" class="st2"/>
			</g>
			<g id="shape7-16" v:mID="7" v:groupContext="shape" transform="translate(11.9618,-17.4222)">
				<title>Sheet.7</title>
				<ellipse cx="2.86769" cy="29.0377" rx="2.86769" ry="2.86769" class="st5"/>
			</g>
			<g id="shape8-20" v:mID="8" v:groupContext="shape" transform="translate(20.6238,-9.11997)">
				<title>Sheet.8</title>
				<path d="M7.62 29.4 L5.42 27.2 a0.11785 0.11785 -180 0 0 -0.196417 0.0982085 L5.22 28.63 a0.11785 0.11785 0 0 1 -0.11785
							 0.11785 L0 28.75 L0 30.38 L5.11 30.38 a0.11785 0.11785 0 0 1 0.11785 0.11785 L5.22 31.85 a0.11785 0.11785
							 -180 0 0 0.196417 0 L7.62 29.75 a0.2357 0.2357 -180 0 0 -5.32907E-15 -0.353551 Z" class="st6"/>
			</g>
		</g>
	</g>
</svg>
