<svg width="16" height="16" viewBox="0 0 16 16" fill="none" xmlns="http://www.w3.org/2000/svg">
<path d="M15.792 13.92L9.26297 0.771C8.73097 -0.257 7.26797 -0.257 6.73897 0.771L0.20897 13.716C-0.32303 14.744 0.20897 15.978 1.27197 15.978H14.729C15.792 16.182 16.323 14.95 15.792 13.92Z" fill="#DB7500"/>
<path d="M8.00003 14.449C8.80029 14.449 9.44903 13.8003 9.44903 13C9.44903 12.1997 8.80029 11.551 8.00003 11.551C7.19976 11.551 6.55103 12.1997 6.55103 13C6.55103 13.8003 7.19976 14.449 8.00003 14.449Z" fill="white"/>
<path d="M6.6001 4L7.1001 10H8.9001L9.4001 4H6.6001Z" fill="white"/>
</svg>
