<svg width="16" height="16" viewBox="0 0 16 16" fill="none" xmlns="http://www.w3.org/2000/svg">
<path d="M8 16C12.4183 16 16 12.4183 16 8C16 3.58172 12.4183 0 8 0C3.58172 0 0 3.58172 0 8C0 12.4183 3.58172 16 8 16Z" fill="#57A300"/>
<path d="M3.55311 8.291C3.47911 8.212 3.44111 8.108 3.44511 8C3.44911 7.891 3.49511 7.791 3.57511 7.716L4.41011 6.944C4.48611 6.875 4.58311 6.837 4.68411 6.837C4.79611 6.837 4.90411 6.884 4.98011 6.966L7.11611 9.258L10.9231 4.383C11.0001 4.284 11.1161 4.226 11.2421 4.226C11.3321 4.226 11.4171 4.255 11.4891 4.31L12.3951 5.009C12.5681 5.137 12.6051 5.386 12.4751 5.563L7.60711 11.796C7.41811 12.038 7.05711 12.054 6.84711 11.829L3.55311 8.291Z" fill="white"/>
</svg>
