<svg width="18" height="17" viewBox="0 0 18 17" fill="none" xmlns="http://www.w3.org/2000/svg">
<g clip-path="url(#clip0_707_20830)">
<path d="M3.67183 4.49101C4.09327 1.94326 6.3182 0 9 0C11.6818 0 13.9067 1.94327 14.3282 4.49101C16.3876 4.68059 18 6.40309 18 8.5C18 8.64888 17.9919 8.79589 17.9761 8.94066C16.9357 7.33013 15.1182 6.26316 13.05 6.26316C9.81909 6.26316 7.2 8.86693 7.2 12.0789C7.2 12.2294 7.20576 12.3787 7.21701 12.5263H4.05C1.81325 12.5263 0 10.7237 0 8.5C0 6.40309 1.6124 4.68059 3.67183 4.49101ZM18 12.0789C18 14.7968 15.7838 17 13.05 17C10.3162 17 8.1 14.7968 8.1 12.0789C8.1 9.36109 10.3162 7.15789 13.05 7.15789C15.7838 7.15789 18 9.36109 18 12.0789ZM16.0682 9.97309C15.8925 9.79844 15.6075 9.79844 15.4318 9.97309L12.15 13.2358L10.6682 11.7626C10.4925 11.5879 10.2075 11.5879 10.0318 11.7626C9.85608 11.9373 9.85608 12.2206 10.0318 12.3953L11.8318 14.1848C12.0075 14.3595 12.2925 14.3595 12.4682 14.1848L16.0682 10.6059C16.2439 10.4311 16.2439 10.1478 16.0682 9.97309Z" fill="url(#paint0_linear_707_20830)"/>
</g>
<defs>
<linearGradient id="paint0_linear_707_20830" x1="11.988" y1="0.0385166" x2="9.30216" y2="17.1325" gradientUnits="userSpaceOnUse">
<stop stop-color="#4DA9FF"/>
<stop offset="1" stop-color="#0052B3"/>
</linearGradient>
<clipPath id="clip0_707_20830">
<rect width="18" height="17" fill="white"/>
</clipPath>
</defs>
</svg>
