<svg width="18" height="16" viewBox="0 0 18 16" fill="none" xmlns="http://www.w3.org/2000/svg">
<path d="M0 15.3007C0 15.6869 0.32328 15.9999 0.722519 15.9999H17.2775C17.6767 15.9999 18 15.6865 18 15.3007V3.00903H0V15.3007Z" fill="#3898C6"/>
<path d="M17.2775 0H0.722528C0.627223 0.000335312 0.532919 0.0197555 0.445008 0.0571495C0.357098 0.0945435 0.277308 0.149178 0.210202 0.217927C0.143095 0.286676 0.0899896 0.368191 0.0539227 0.457808C0.0178557 0.547426 -0.000464827 0.643389 8.95986e-06 0.740206V3.42857H18V0.740206C18.0004 0.643402 17.9821 0.547461 17.946 0.457865C17.9099 0.368269 17.8568 0.286773 17.7897 0.218034C17.7226 0.149294 17.6428 0.0946582 17.5549 0.0572472C17.467 0.0198362 17.3728 0.000383368 17.2775 0V0Z" fill="#7B7B7B"/>
<path d="M1.125 3.42847H16.875V14.857H1.125V3.42847Z" fill="white"/>
<path d="M8.99999 5.71436H14.625V6.85721H8.99999V5.71436ZM8.99999 8.00007H13.5V9.14293H8.99999V8.00007ZM8.99999 10.2858H14.625V11.4286H8.99999V10.2858ZM3.375 5.71436V12.5715H7.875V5.71436H3.375ZM6.75 11.4286H4.5V6.85721H6.75V11.4286Z" fill="#3898C6"/>
<path d="M15.75 1.14282H16.875V2.28568H15.75V1.14282ZM13.5 1.14282H14.625V2.28568H13.5V1.14282ZM11.25 1.14282H12.375V2.28568H11.25V1.14282Z" fill="white"/>
</svg>
