<svg width="16" height="18" viewBox="0 0 16 18" fill="none" xmlns="http://www.w3.org/2000/svg">
<path d="M15.9935 9.15472V3.43921C8.53077 6.35613 5.42342 8.63787 5.60198 14.928C5.64377 16.4001 6.52402 17.9999 7.99669 17.9999C10.2815 17.9999 15.9935 13.7322 15.9935 9.15472Z" fill="url(#paint0_linear_737_8603)"/>
<path d="M15.9935 9.15472V3.43921C8.53077 6.35613 5.42342 8.63787 5.60198 14.928C5.64377 16.4001 6.52402 17.9999 7.99669 17.9999C10.2815 17.9999 15.9935 13.7322 15.9935 9.15472Z" fill="url(#paint1_radial_737_8603)" fill-opacity="0.6"/>
<path d="M7.99729 0C9.53498 0 12.625 0.777497 14.4814 1.28596C14.6549 1.33348 14.8176 1.37953 14.9673 1.42293C15.5845 1.6019 15.9941 2.17274 15.9941 2.81543V3.7607C15.8106 7.9718 14.4612 9.19674 10.6947 12.2295C10.2 12.6672 9.69164 13.0836 9.17551 13.5064C8.43594 14.1121 7.68045 14.7309 6.92675 15.4441C6.63893 15.7164 6.45938 16.102 6.45938 16.5295C6.45938 17.1719 6.86483 17.7197 7.4338 17.9308C7.29506 17.8998 7.14929 17.8586 6.99769 17.8078C5.62023 17.3461 3.76068 16.0883 2.30481 14.4181C1.15698 7.26603 3.40675 3.7607 7.99729 0Z" fill="url(#paint2_radial_737_8603)"/>
<path d="M7.99729 0C9.53498 0 12.625 0.777497 14.4814 1.28596C14.6549 1.33348 14.8176 1.37953 14.9673 1.42293C15.5845 1.6019 15.9941 2.17274 15.9941 2.81543V3.7607C15.8106 7.9718 14.4612 9.19674 10.6947 12.2295C10.2 12.6672 9.69164 13.0836 9.17551 13.5064C8.43594 14.1121 7.68045 14.7309 6.92675 15.4441C6.63893 15.7164 6.45938 16.102 6.45938 16.5295C6.45938 17.1719 6.86483 17.7197 7.4338 17.9308C7.29506 17.8998 7.14929 17.8586 6.99769 17.8078C5.62023 17.3461 3.76068 16.0883 2.30481 14.4181C1.15698 7.26603 3.40675 3.7607 7.99729 0Z" fill="url(#paint3_radial_737_8603)" fill-opacity="0.7"/>
<path d="M7.99729 0C9.53498 0 12.625 0.777497 14.4814 1.28596C14.6549 1.33348 14.8176 1.37953 14.9673 1.42293C15.5845 1.6019 15.9941 2.17274 15.9941 2.81543V3.7607C15.8106 7.9718 14.4612 9.19674 10.6947 12.2295C10.2 12.6672 9.69164 13.0836 9.17551 13.5064C8.43594 14.1121 7.68045 14.7309 6.92675 15.4441C6.63893 15.7164 6.45938 16.102 6.45938 16.5295C6.45938 17.1719 6.86483 17.7197 7.4338 17.9308C7.29506 17.8998 7.14929 17.8586 6.99769 17.8078C5.62023 17.3461 3.76068 16.0883 2.30481 14.4181C1.15698 7.26603 3.40675 3.7607 7.99729 0Z" fill="url(#paint4_radial_737_8603)"/>
<path d="M1.07003 1.40851C2.83556 0.914501 6.32909 0 7.99677 0C8.11687 0 8.24644 0.00485661 8.38415 0.0140593C9.90859 0.161245 11.1004 1.44593 11.1004 3.00898C11.1004 3.57651 10.9433 4.10734 10.6701 4.56035C10.0863 5.72377 9.13074 6.63812 7.67656 7.83534C7.25885 8.17923 6.77989 8.55883 6.30241 8.93727C5.85116 9.2949 5.40117 9.65154 5.00547 9.97599C4.0442 10.7642 3.45667 11.2459 3.13354 11.8504C2.82589 12.3224 2.64711 12.886 2.64711 13.4914C2.64711 14.3777 3.03031 15.1745 3.64006 15.7252C3.65943 15.7469 3.67903 15.7681 3.69884 15.7887C3.70418 15.7966 3.70944 15.8045 3.71459 15.8124C3.52116 15.6469 3.32965 15.4739 3.14159 15.294C1.42799 13.6549 0 11.4436 0 9.1549V2.83129L3.41958e-08 2.83096C0.000140389 2.16879 0.432325 1.58695 1.07003 1.40851Z" fill="url(#paint5_radial_737_8603)"/>
<path d="M1.07003 1.40851C2.83556 0.914501 6.32909 0 7.99677 0C8.11687 0 8.24644 0.00485661 8.38415 0.0140593C9.90859 0.161245 11.1004 1.44593 11.1004 3.00898C11.1004 3.57651 10.9433 4.10734 10.6701 4.56035C10.0863 5.72377 9.13074 6.63812 7.67656 7.83534C7.25885 8.17923 6.77989 8.55883 6.30241 8.93727C5.85116 9.2949 5.40117 9.65154 5.00547 9.97599C4.0442 10.7642 3.45667 11.2459 3.13354 11.8504C2.82589 12.3224 2.64711 12.886 2.64711 13.4914C2.64711 14.3777 3.03031 15.1745 3.64006 15.7252C3.65943 15.7469 3.67903 15.7681 3.69884 15.7887C3.70418 15.7966 3.70944 15.8045 3.71459 15.8124C3.52116 15.6469 3.32965 15.4739 3.14159 15.294C1.42799 13.6549 0 11.4436 0 9.1549V2.83129L3.41958e-08 2.83096C0.000140389 2.16879 0.432325 1.58695 1.07003 1.40851Z" fill="url(#paint6_radial_737_8603)"/>
<defs>
<linearGradient id="paint0_linear_737_8603" x1="15.1719" y1="8.67203" x2="4.54959" y2="17.1855" gradientUnits="userSpaceOnUse">
<stop offset="0.716383" stop-color="#143DE0"/>
<stop offset="0.97828" stop-color="#003375"/>
</linearGradient>
<radialGradient id="paint1_radial_737_8603" cx="0" cy="0" r="1" gradientUnits="userSpaceOnUse" gradientTransform="translate(9.21877 10.7196) rotate(50.2877) scale(9.46408 28.2935)">
<stop offset="0.227837" stop-color="#003375"/>
<stop offset="0.434167" stop-color="#003375" stop-opacity="0.1"/>
</radialGradient>
<radialGradient id="paint2_radial_737_8603" cx="0" cy="0" r="1" gradientTransform="matrix(-14.931 26.3002 -13.1596 -16.1953 16.5166 -4.89134)" gradientUnits="userSpaceOnUse">
<stop offset="0.165327" stop-color="#29C3FF"/>
<stop offset="0.534" stop-color="#1C91FF"/>
</radialGradient>
<radialGradient id="paint3_radial_737_8603" cx="0" cy="0" r="1" gradientUnits="userSpaceOnUse" gradientTransform="translate(6.23778 5.94715) rotate(46.7724) scale(5.10458 11.7972)">
<stop offset="0.331015" stop-color="#1B44B1"/>
<stop offset="1" stop-color="#1F9EFF" stop-opacity="0"/>
</radialGradient>
<radialGradient id="paint4_radial_737_8603" cx="0" cy="0" r="1" gradientUnits="userSpaceOnUse" gradientTransform="translate(9.68712 5.00871) rotate(-111.097) scale(18.3853 14.0534)">
<stop offset="0.612778" stop-color="#1C91FF" stop-opacity="0"/>
<stop offset="0.788043" stop-color="#66C0FF"/>
</radialGradient>
<radialGradient id="paint5_radial_737_8603" cx="0" cy="0" r="1" gradientTransform="matrix(-13.163 17.7147 -13.9336 -22.5692 11.1004 -0.853694)" gradientUnits="userSpaceOnUse">
<stop stop-color="#9DEAFF"/>
<stop offset="0.521141" stop-color="#29C3FF"/>
</radialGradient>
<radialGradient id="paint6_radial_737_8603" cx="0" cy="0" r="1" gradientTransform="matrix(0.688239 -17.3119 9.21392 -0.314308 6.77486 2.5734)" gradientUnits="userSpaceOnUse">
<stop offset="0.516387" stop-color="#2BC3FF" stop-opacity="0"/>
<stop offset="0.80216" stop-color="#9DEAFF"/>
</radialGradient>
</defs>
</svg>
