<svg width="21" height="18" viewBox="0 0 21 18" fill="none" xmlns="http://www.w3.org/2000/svg">
<path d="M4.20947 14.6577C4.6503 14.9303 5.38312 15.2333 6.15798 15.2333C6.86353 15.2333 7.5191 15.0305 8.06218 14.6849C8.06218 14.6849 8.06331 14.6849 8.06445 14.6837L10.1152 13.4135V18C9.79027 18 9.4631 17.9121 9.17908 17.7364L4.20947 14.6577Z" fill="#225086"/>
<path d="M8.82499 0.569188L0.396686 10.0669C-0.253977 10.8011 -0.0842871 11.9103 0.759671 12.4368C0.759671 12.4368 3.87929 14.3846 4.27261 14.6305C4.70864 14.9021 5.43348 15.2042 6.1999 15.2042C6.89776 15.2042 7.54618 15.0021 8.08335 14.6574C8.08335 14.6574 8.08447 14.6574 8.0856 14.6563L10.114 13.39L5.20984 10.3273L10.1151 4.79936V0C9.6387 0 9.16218 0.18973 8.82499 0.569188Z" fill="#66DDFF"/>
<path d="M5.18311 10.345L5.24186 10.381L10.1139 13.4136H10.115V4.8074L10.1139 4.80627L5.18311 10.345Z" fill="#CBF8FF"/>
<path d="M19.4706 12.4643C20.3148 11.9368 20.4844 10.8254 19.8337 10.0897L14.3023 3.84553C13.8561 3.63743 13.3558 3.51819 12.8265 3.51819C11.7867 3.51819 10.8571 3.96702 10.2389 4.67231L10.1164 4.81067L15.0217 10.3496L10.1152 13.4182V17.9998C10.4379 17.9998 10.7593 17.9122 11.0404 17.7366L19.4706 12.4632V12.4643Z" fill="#074793"/>
<path d="M10.1164 0V4.80627L10.2405 4.66798C10.8667 3.96307 11.8083 3.51448 12.8612 3.51448C13.3987 3.51448 13.9042 3.63478 14.3561 3.84165L11.42 0.571132C11.0795 0.191127 10.5968 0.00112433 10.1152 0.00112433L10.1164 0Z" fill="#0294E4"/>
<path d="M15.0472 10.3453L10.1152 4.80627V13.4136L15.0472 10.3453Z" fill="#96BCC2"/>
</svg>
