<svg width="18" height="18" viewBox="0 0 18 18" fill="none" xmlns="http://www.w3.org/2000/svg">
<path d="M15.8891 2.87664L14.9536 1.94011L16.8197 0.0720586C16.8424 0.0492178 16.8695 0.0310954 16.8993 0.0187302C16.9291 0.006365 16.961 0 16.9933 0C17.0255 0 17.0575 0.006365 17.0872 0.0187302C17.117 0.0310954 17.1441 0.0492178 17.1669 0.0720586L17.7572 0.662391C17.78 0.685164 17.7982 0.71222 17.8105 0.742009C17.8229 0.771798 17.8292 0.803735 17.8292 0.835989C17.8292 0.868242 17.8229 0.900179 17.8105 0.929968C17.7982 0.959758 17.78 0.986814 17.7572 1.00959L15.8911 2.87864L15.8891 2.87664Z" fill="#32BEDD"/>
<path d="M1.91545 15.1455L2.85498 16.086L1.01094 17.9291C0.965375 17.9745 0.903672 18 0.839348 18C0.775024 18 0.713322 17.9745 0.667752 17.9291L0.0744174 17.3367C0.0511376 17.3143 0.0325661 17.2875 0.0197897 17.2578C0.00701329 17.2281 0.000288597 17.1961 9.08692e-06 17.1638C-0.000270423 17.1314 0.00590087 17.0994 0.0181619 17.0695C0.0304228 17.0396 0.0485272 17.0124 0.0714157 16.9895L1.91545 15.1455Z" fill="#0078D4"/>
<path d="M2.20345 11.2663C1.61235 11.8574 1.28027 12.6592 1.28027 13.4951C1.28027 14.331 1.61235 15.1328 2.20345 15.7239C2.79456 16.315 3.59626 16.647 4.43221 16.647C5.26815 16.647 6.06986 16.315 6.66096 15.7239L8.10578 14.278L3.64927 9.82153L2.20345 11.2663Z" fill="url(#paint0_linear_678_7137)"/>
<path d="M7.75476 8.1727L7.84181 8.26075C7.93065 8.34968 7.98055 8.47024 7.98055 8.59594C7.98055 8.72164 7.93065 8.8422 7.84181 8.93113L6.03379 10.7391L5.27637 9.98172L7.08439 8.1717C7.17331 8.08286 7.29387 8.03296 7.41957 8.03296C7.54527 8.03296 7.66583 8.08386 7.75476 8.1727ZM9.62782 10.0468L9.71587 10.1348C9.80471 10.2237 9.85461 10.3443 9.85461 10.47C9.85461 10.5957 9.80471 10.7163 9.71587 10.8052L7.90585 12.6152L7.14842 11.8568L8.95944 10.0468C9.04837 9.95792 9.16893 9.90802 9.29463 9.90802C9.42033 9.90802 9.54089 9.95792 9.62982 10.0468H9.62782Z" fill="#C3F1FF"/>
<path d="M9.33672 13.5328L4.35518 8.55122C4.26257 8.45862 4.11243 8.45862 4.01982 8.55122L3.36609 9.20496C3.27348 9.29756 3.27348 9.44771 3.36609 9.54032L8.34763 14.5219C8.44024 14.6145 8.59038 14.6145 8.68299 14.5219L9.33672 13.8681C9.42933 13.7755 9.42933 13.6254 9.33672 13.5328Z" fill="#5EA0EF"/>
<path d="M15.6269 6.73787C16.218 6.14677 16.5501 5.34506 16.5501 4.50911C16.5501 3.67317 16.218 2.87146 15.6269 2.28036C15.0358 1.68926 14.2341 1.35718 13.3982 1.35718C12.5622 1.35718 11.7605 1.68926 11.1694 2.28036L9.72461 3.72617L14.1811 8.18268L15.6269 6.73787Z" fill="url(#paint1_linear_678_7137)"/>
<path d="M10.0779 9.82964L9.99087 9.74159C9.90203 9.65266 9.85213 9.5321 9.85213 9.4064C9.85213 9.2807 9.90203 9.16014 9.99087 9.07121L11.7999 7.26119L12.5583 8.01962L10.7473 9.83164C10.6581 9.91991 10.5377 9.96925 10.4122 9.96888C10.2867 9.9685 10.1665 9.91844 10.0779 9.82964ZM8.20286 7.95758L8.11481 7.86953C8.02598 7.7806 7.97607 7.66004 7.97607 7.53434C7.97607 7.40864 8.02598 7.28808 8.11481 7.19916L9.92383 5.39014L10.6823 6.14856L8.87524 7.95658C8.78631 8.04542 8.66576 8.09532 8.54005 8.09532C8.41435 8.09532 8.29379 8.04542 8.20487 7.95658L8.20286 7.95758Z" fill="#C3F1FF"/>
<path d="M8.49482 4.47114L13.4764 9.45268C13.569 9.54529 13.7191 9.54529 13.8117 9.45268L14.4655 8.79895C14.5581 8.70634 14.5581 8.5562 14.4655 8.46359L9.48391 3.48205C9.39131 3.38944 9.24116 3.38944 9.14856 3.48205L8.49482 4.13578C8.40221 4.22839 8.40221 4.37853 8.49482 4.47114Z" fill="#50E6FF"/>
<defs>
<linearGradient id="paint0_linear_678_7137" x1="4.69273" y1="9.82032" x2="4.69273" y2="16.6463" gradientUnits="userSpaceOnUse">
<stop stop-color="#5EA0EF"/>
<stop offset="0.997" stop-color="#0078D4"/>
</linearGradient>
<linearGradient id="paint1_linear_678_7137" x1="13.1378" y1="1.35723" x2="13.1378" y2="8.18182" gradientUnits="userSpaceOnUse">
<stop stop-color="#50E6FF"/>
<stop offset="0.997" stop-color="#32BEDD"/>
</linearGradient>
</defs>
</svg>
