<svg width="18" height="16" viewBox="0 0 18 16" fill="none" xmlns="http://www.w3.org/2000/svg">
<path d="M8.0761 16C8.3868 15.6543 8.62044 15.2336 8.74627 14.7616L12.1459 2.00817C12.1469 2.00442 12.1498 2.00156 12.1533 2.00047L12.1546 1.99583L12.148 2C12.2144 1.79688 12.1396 1.47054 11.8356 1.39844C11.4788 1.31381 11.2811 1.49023 11.2006 1.68279C11.193 1.70498 11.1861 1.72756 11.18 1.75051L7.78037 14.504C7.54521 15.3862 6.74654 16 5.83385 16C5.14217 16 4.49885 15.645 4.12988 15.0597L0.26773 8.93352C-0.0918476 8.36315 -0.0918472 7.63685 0.26773 7.06648L4.20791 0.816479C4.52831 0.308254 5.08694 0 5.68757 0H9.91623C9.60661 0.344922 9.37377 0.764484 9.2483 1.23518L5.84865 13.9886C5.84781 13.9918 5.84606 13.9944 5.84371 13.9964L5.84215 14.0022L5.84568 14C5.7793 14.2031 5.85406 14.5295 6.15806 14.6016C6.51283 14.6857 6.71035 14.5118 6.79166 14.3205C6.80016 14.2963 6.80779 14.2715 6.8145 14.2463L10.2142 1.49284C10.4488 0.61252 11.2458 0 12.1565 0C12.8473 0 13.4895 0.354812 13.8574 0.939122L13.8604 0.943932L13.863 0.94804L17.7822 7.24456C18.07 7.70702 18.07 8.29298 17.7822 8.75544L13.7864 15.175C13.467 15.6881 12.9056 16 12.3014 16H8.0761Z" fill="url(#paint0_linear_709_20857)"/>
<defs>
<linearGradient id="paint0_linear_709_20857" x1="8.99805" y1="0" x2="8.99805" y2="16" gradientUnits="userSpaceOnUse">
<stop stop-color="#4DA9FF"/>
<stop offset="1" stop-color="#0052B3"/>
</linearGradient>
</defs>
</svg>
