<svg width="18" height="18" viewBox="0 0 18 18" fill="none" xmlns="http://www.w3.org/2000/svg">
<g clip-path="url(#clip0_729_8592)">
<path d="M14.136 1.14079L16.8606 3.86546C17.6138 4.61861 17.6138 5.83971 16.8606 6.59287L14.6454 8.80769C15.5737 8.94689 16.2855 9.74772 16.2855 10.7148V15.2148C16.2855 16.2799 15.422 17.1434 14.3569 17.1434H2.7855C1.72038 17.1434 0.856934 16.2799 0.856934 15.2148V3.64336C0.856934 2.57824 1.72038 1.71479 2.7855 1.71479H7.2855C8.25313 1.71479 9.05439 2.42747 9.1929 3.35657L11.4086 1.14079C12.1618 0.387641 13.3829 0.387641 14.136 1.14079ZM2.14265 15.2148C2.14265 15.5699 2.43047 15.8577 2.7855 15.8577L7.9275 15.8571L7.92836 10.072L2.14265 10.0714V15.2148ZM9.21322 15.8571L14.3569 15.8577C14.712 15.8577 14.9998 15.5699 14.9998 15.2148V10.7148C14.9998 10.3597 14.712 10.072 14.3569 10.072L9.21322 10.0714V15.8571ZM7.2855 3.0005H2.7855C2.43047 3.0005 2.14265 3.28832 2.14265 3.64336V8.78566H7.92836V3.64336C7.92836 3.28832 7.64053 3.0005 7.2855 3.0005ZM9.21408 7.12279V8.78626L10.8769 8.78566L9.21408 7.12279ZM12.3177 2.04992L9.5931 4.77459C9.34205 5.02564 9.34205 5.43267 9.5931 5.68373L12.3177 8.40835C12.5688 8.6594 12.9758 8.6594 13.2269 8.40835L15.9516 5.68373C16.2026 5.43267 16.2026 5.02564 15.9516 4.77459L13.2269 2.04992C12.9758 1.79888 12.5688 1.79888 12.3177 2.04992Z" fill="#0078D4"/>
</g>
<defs>
<clipPath id="clip0_729_8592">
<rect width="18" height="18" fill="white"/>
</clipPath>
</defs>
</svg>
