<?xml version="1.0" encoding="UTF-8" standalone="no"?>
<!DOCTYPE svg PUBLIC "-//W3C//DTD SVG 1.1//EN" "http://www.w3.org/Graphics/SVG/1.1/DTD/svg11.dtd">
<!-- Generated by Microsoft Visio, SVG Export App-CA-flows.svg Page-1 -->
<svg xmlns="http://www.w3.org/2000/svg" xmlns:xlink="http://www.w3.org/1999/xlink" xmlns:ev="http://www.w3.org/2001/xml-events"
		width="8.5in" height="11in" viewBox="0 0 612 792" xml:space="preserve" color-interpolation-filters="sRGB" class="st9">
	<style type="text/css">
	<![CDATA[
		.st1 {fill:#ffffff;stroke:#000000;stroke-linecap:round;stroke-linejoin:round;stroke-width:0.24}
		.st2 {fill:#000000;fill-opacity:1;stroke:#000000;stroke-opacity:1;stroke-width:0.08695652173913}
		.st3 {fill:#000000;font-family:Calibri;font-size:0.666664em}
		.st4 {font-size:1em}
		.st5 {fill:#ffffff;marker-end:url(#mrkr1-4);stroke:#000000;stroke-linecap:round;stroke-linejoin:round;stroke-width:0.24}
		.st6 {marker-end:url(#mrkr1-106);stroke:#000000;stroke-linecap:round;stroke-linejoin:round;stroke-width:0.75}
		.st7 {fill:#000000;fill-opacity:1;stroke:#000000;stroke-opacity:1;stroke-width:0.22935779816514}
		.st8 {fill:#ffffff;stroke:none;stroke-linecap:butt;stroke-width:7.2}
		.st9 {fill:none;fill-rule:evenodd;font-size:12px;overflow:visible;stroke-linecap:square;stroke-miterlimit:3}
	]]>
	</style>

	<defs id="Markers">
		<g id="lend1">
			<path d="M 1 -1 L 0 0 L 1 1 " style="stroke-linecap:round;stroke-linejoin:round;fill:none"/>
		</g>
		<marker id="mrkr1-4" class="st2" orient="auto" markerUnits="strokeWidth" overflow="visible">
			<use xlink:href="#lend1" transform="scale(-11.5,-11.5) "/>
		</marker>
		<marker id="mrkr1-106" class="st7" orient="auto" markerUnits="strokeWidth" overflow="visible">
			<use xlink:href="#lend1" transform="scale(-4.36,-4.36) "/>
		</marker>
	</defs>
	<g>
		<title>Page-1</title>
		<g id="shape1-1" transform="translate(23.6842,-677.25)">
			<title>Start/End</title>
			<desc>App makes acquire token call</desc>
			<path d="M18 792 L54 792 A18 21.375 -180 0 0 54 749.25 L18 749.25 A18 21.375 -180 1 0 18 792 Z" class="st1"/>
			<text x="5.08" y="768.23" class="st3">App makes acquire <tspan x="20.29" dy="1.2em" class="st4">token call</tspan></text>		</g>
		<g id="shape2-7" transform="translate(18,-418.5)">
			<title>Decision</title>
			<desc>Was the call made silently?</desc>
			<path d="M0 765 L36 738 L72 765 L36 792 L0 765 Z" class="st1"/>
			<text x="16.28" y="762.6" class="st3">Was the call <tspan x="12.48" dy="1.2em" class="st4">made silently?</tspan></text>		</g>
		<g id="shape4-12" transform="translate(207.296,-671.625)">
			<title>Decision.4</title>
			<desc>Device is AAD registered</desc>
			<path d="M0 765 L36 738 L72 765 L36 792 L0 765 Z" class="st1"/>
			<text x="13.76" y="762.6" class="st3">Device is AAD <tspan x="19.43" dy="1.2em" class="st4">registered</tspan></text>		</g>
		<g id="shape5-17" transform="translate(305.171,-677.25)">
			<title>Process.5</title>
			<desc>MSAL returns “non-compliant” error</desc>
			<rect x="0" y="749.25" width="72" height="42.75" class="st5"/>
			<text x="3.84" y="768.23" class="st3">MSAL returns “non-<tspan x="8.85" dy="1.2em" class="st4">compliant</tspan>” error</text>		</g>
		<g id="shape6-22" transform="translate(393.75,-681.187)">
			<title>Start/End.6</title>
			<desc>App calls Intune remediate compliance API</desc>
			<path d="M17.44 792 L54.56 792 A17.4375 17.4375 -180 0 0 54.56 757.13 L17.44 757.13 A17.4375 17.4375 -180 1 0 17.44 792
						 Z" class="st1"/>
			<text x="10.02" y="767.36" class="st3">App calls Intune <tspan x="19.16" dy="1.2em" class="st4">remediate </tspan><tspan
						x="11.07" dy="1.2em" class="st4">compliance API</tspan></text>		</g>
		<g id="shape7-28" transform="translate(207.296,-623.25)">
			<title>Process.7</title>
			<desc>MSAL triggers Authenticator install</desc>
			<rect x="0" y="765" width="72" height="27" class="st5"/>
			<text x="13.47" y="776.1" class="st3">MSAL triggers <tspan x="2.76" dy="1.2em" class="st4">Authenticator install</tspan></text>		</g>
		<g id="shape8-33" transform="translate(393.75,-603)">
			<title>Decision.8</title>
			<desc>User already enrolled?</desc>
			<path d="M0 765 L36 738 L72 765 L36 792 L0 765 Z" class="st1"/>
			<text x="15.53" y="762.6" class="st3">User already <tspan x="20.62" dy="1.2em" class="st4">enrolled?</tspan></text>		</g>
		<g id="shape9-38" transform="translate(348.75,-546.75)">
			<title>Process.9</title>
			<desc>Intune executes policy check-in for user</desc>
			<rect x="0" y="757.125" width="72" height="34.875" class="st5"/>
			<text x="10.05" y="767.36" class="st3">Intune executes <tspan x="6.38" dy="1.2em" class="st4">policy check</tspan>-in for <tspan
						x="28.95" dy="1.2em" class="st4">user</tspan></text>		</g>
		<g id="shape10-44" transform="translate(438.75,-546.75)">
			<title>Process.10</title>
			<desc>Intune enrolls (may trigger restart)</desc>
			<rect x="0" y="757.125" width="72" height="34.875" class="st5"/>
			<text x="4.42" y="772.16" class="st3">Intune enrolls (may <tspan x="12.14" dy="1.2em" class="st4">trigger restart)</tspan></text>		</g>
		<g id="shape11-49" transform="translate(393.75,-418.5)">
			<title>Decision.11</title>
			<desc>Is user compliant?</desc>
			<path d="M0 765 L36 738 L72 765 L36 792 L0 765 Z" class="st1"/>
			<text x="25.47" y="762.6" class="st3">Is user <tspan x="17.86" dy="1.2em" class="st4">compliant?</tspan></text>		</g>
		<g id="shape14-54" transform="translate(18,-496.125)">
			<title>Start/End.14</title>
			<desc>Delegate called with “interaction required”</desc>
			<path d="M18 792 L54 792 A18 19.125 -180 0 0 54 753.75 L18 753.75 A18 19.125 -180 1 0 18 792 Z" class="st1"/>
			<text x="2.95" y="765.68" class="st3">Delegate called with <tspan x="16.51" dy="1.2em" class="st4">“</tspan>interaction <tspan
						x="20.33" dy="1.2em" class="st4">required</tspan>”</text>		</g>
		<g id="shape15-60" transform="translate(18,-363.937)">
			<title>Start/End.15</title>
			<desc>Delegate called with “not compliant”</desc>
			<path d="M16.03 792 L55.97 792 A16.0312 16.0312 -180 0 0 55.97 759.94 L16.03 759.94 A16.0312 16.0312 -180 1 0 16.03 792
						 Z" class="st1"/>
			<text x="2.95" y="773.57" class="st3">Delegate called with <tspan x="9.91" dy="1.2em" class="st4">“</tspan>not compliant”</text>		</g>
		<g id="shape16-65" transform="translate(112.263,-671.625)">
			<title>Decision.16</title>
			<desc>CA Enabled</desc>
			<path d="M0 765 L36 738 L72 765 L36 792 L0 765 Z" class="st1"/>
			<text x="17.57" y="767.4" class="st3">CA Enabled</text>		</g>
		<g id="shape17-69" transform="translate(252,-418.5)">
			<title>Decision.17</title>
			<desc>Can SDK connect to MAM service</desc>
			<path d="M0 765 L36 738 L72 765 L36 792 L0 765 Z" class="st1"/>
			<text x="8.64" y="762.6" class="st3">Can SDK connect <tspan x="10.23" dy="1.2em" class="st4">to MAM service</tspan></text>		</g>
		<g id="shape18-74" transform="translate(252,-496.125)">
			<title>Start/End.18</title>
			<desc>Delegate called with “Network Unavailable”</desc>
			<path d="M18 792 L54 792 A18 19.125 -180 0 0 54 753.75 L18 753.75 A18 19.125 -180 1 0 18 792 Z" class="st1"/>
			<text x="2.95" y="765.68" class="st3">Delegate called with <tspan x="20.23" dy="1.2em" class="st4">“</tspan>Network <tspan
						x="15.26" dy="1.2em" class="st4">Unavailable</tspan>”</text>		</g>
		<g id="shape19-80" transform="translate(252,-363.937)">
			<title>Start/End.19</title>
			<desc>Delegate called with “Service Failure”</desc>
			<path d="M16.03 792 L55.97 792 A16.0312 16.0312 -180 0 0 55.97 759.94 L16.03 759.94 A16.0312 16.0312 -180 1 0 16.03 792
						 Z" class="st1"/>
			<text x="2.95" y="773.57" class="st3">Delegate called with <tspan x="9.04" dy="1.2em" class="st4">“</tspan>Service Failure”</text>		</g>
		<g id="shape20-85" transform="translate(135,-418.5)">
			<title>Decision.20</title>
			<desc>Did the user cancel an operation</desc>
			<path d="M0 765 L36 738 L72 765 L36 792 L0 765 Z" class="st1"/>
			<text x="16.23" y="757.8" class="st3">Did the user <tspan x="20.77" dy="1.2em" class="st4">cancel an </tspan><tspan
						x="20.02" dy="1.2em" class="st4">operation</tspan></text>		</g>
		<g id="shape21-91" transform="translate(135,-363.937)">
			<title>Start/End.21</title>
			<desc>Delegate called with “User Cancelled”</desc>
			<path d="M16.03 792 L55.97 792 A16.0312 16.0312 -180 0 0 55.97 759.94 L16.03 759.94 A16.0312 16.0312 -180 1 0 16.03 792
						 Z" class="st1"/>
			<text x="2.95" y="773.57" class="st3">Delegate called with <tspan x="8.47" dy="1.2em" class="st4">“</tspan>User Cancelled”</text>		</g>
		<g id="shape22-96" transform="translate(504,-424.125)">
			<title>Start/End.22</title>
			<desc>Delegate called with “Compliant”</desc>
			<path d="M18 792 L54 792 A18 21.375 -180 0 0 54 749.25 L18 749.25 A18 21.375 -180 1 0 18 792 Z" class="st1"/>
			<text x="2.95" y="768.23" class="st3">Delegate called with <tspan x="15.92" dy="1.2em" class="st4">“</tspan>Compliant”</text>		</g>
		<g id="shape23-101" transform="translate(94.9737,-689.625)">
			<title>Dynamic connector</title>
			<path d="M0.71 783 L17.29 783" class="st6"/>
		</g>
		<g id="shape24-107" transform="translate(139.263,-671.625)">
			<title>Dynamic connector.24</title>
			<desc>No</desc>
			<path d="M9 792 L9 813.37" class="st6"/>
			<rect x="4.30862" y="797.888" width="9.38287" height="9.59985" class="st8"/>
			<text x="4.31" y="805.09" class="st3">No</text>		</g>
		<g id="shape25-114" transform="translate(184.263,-689.625)">
			<title>Dynamic connector.25</title>
			<desc>Yes</desc>
			<path d="M0 783 L23.03 783" class="st6"/>
			<rect x="6.01263" y="778.2" width="11.0078" height="9.59985" class="st8"/>
			<text x="6.01" y="785.4" class="st3">Yes</text>		</g>
		<g id="shape26-121" transform="translate(234.296,-671.625)">
			<title>Dynamic connector.26</title>
			<desc>No</desc>
			<path d="M9 792 L9 813.37" class="st6"/>
			<rect x="4.30862" y="797.888" width="9.38287" height="9.59985" class="st8"/>
			<text x="4.31" y="805.09" class="st3">No</text>		</g>
		<g id="shape27-128" transform="translate(279.296,-689.625)">
			<title>Dynamic connector.27</title>
			<desc>Yes</desc>
			<path d="M0 783 L25.87 783" class="st6"/>
			<rect x="7.43369" y="778.2" width="11.0078" height="9.59985" class="st8"/>
			<text x="7.43" y="785.4" class="st3">Yes</text>		</g>
		<g id="shape28-135" transform="translate(279.296,-636.75)">
			<title>Dynamic connector.28</title>
			<path d="M0 792 L61.87 792 L61.87 751.5" class="st6"/>
		</g>
		<g id="shape29-140" transform="translate(376.461,-689.625)">
			<title>Dynamic connector.29</title>
			<path d="M0.71 783 L17.29 783" class="st6"/>
		</g>
		<g id="shape30-145" transform="translate(420.75,-681.187)">
			<title>Dynamic connector.30</title>
			<path d="M9 792 L9 816.19" class="st6"/>
		</g>
		<g id="shape31-150" transform="translate(461.25,-630)">
			<title>Dynamic connector.31</title>
			<desc>No</desc>
			<path d="M4.5 792 L13.5 792 L13.5 840.37" class="st6"/>
			<rect x="8.80862" y="806.888" width="9.38287" height="9.59985" class="st8"/>
			<text x="8.81" y="814.09" class="st3">No</text>		</g>
		<g id="shape32-157" transform="translate(398.25,-630)">
			<title>Dynamic connector.32</title>
			<desc>Yes</desc>
			<path d="M-4.5 792 L-13.5 792 L-13.5 840.37" class="st6"/>
			<rect x="-19.0038" y="806.888" width="11.0078" height="9.59985" class="st8"/>
			<text x="-19" y="814.09" class="st3">Yes</text>		</g>
		<g id="shape33-164" transform="translate(384.75,-546.75)">
			<title>Dynamic connector.33</title>
			<path d="M0 792 L0 805.5 L45 805.5 L45 866.25" class="st6"/>
		</g>
		<g id="shape34-169" transform="translate(474.75,-546.75)">
			<title>Dynamic connector.34</title>
			<path d="M0 792 L0 805.5 L-45 805.5 L-45 866.25" class="st6"/>
		</g>
		<g id="shape35-174" transform="translate(465.75,-436.5)">
			<title>Dynamic connector.35</title>
			<desc>Yes</desc>
			<path d="M0 783 L38.25 783" class="st6"/>
			<rect x="13.6212" y="778.2" width="11.0078" height="9.59985" class="st8"/>
			<text x="13.62" y="785.4" class="st3">Yes</text>		</g>
		<g id="shape36-181" transform="translate(393.75,-436.5)">
			<title>Dynamic connector.36</title>
			<desc>No</desc>
			<path d="M0 783 L-69.75 783" class="st6"/>
			<rect x="-39.5664" y="778.2" width="9.38287" height="9.59985" class="st8"/>
			<text x="-39.57" y="785.4" class="st3">No</text>		</g>
		<g id="shape37-188" transform="translate(252,-436.5)">
			<title>Dynamic connector.37</title>
			<desc>Yes</desc>
			<path d="M0 783 L-45 783" class="st6"/>
			<rect x="-28.0038" y="778.2" width="11.0078" height="9.59985" class="st8"/>
			<text x="-28" y="785.4" class="st3">Yes</text>		</g>
		<g id="shape38-195" transform="translate(135,-436.5)">
			<title>Dynamic connector.38</title>
			<desc>No</desc>
			<path d="M0 783 L-45 783" class="st6"/>
			<rect x="-27.1914" y="778.2" width="9.38287" height="9.59985" class="st8"/>
			<text x="-27.19" y="785.4" class="st3">No</text>		</g>
		<g id="shape39-202" transform="translate(162,-418.5)">
			<title>Dynamic connector.39</title>
			<desc>Yes</desc>
			<path d="M9 792 L9 814.5" class="st6"/>
			<rect x="3.49619" y="798.45" width="11.0078" height="9.59985" class="st8"/>
			<text x="3.5" y="805.65" class="st3">Yes</text>		</g>
		<g id="shape40-209" transform="translate(279,-418.5)">
			<title>Dynamic connector.40</title>
			<desc>No</desc>
			<path d="M9 792 L9 814.5" class="st6"/>
			<rect x="4.30862" y="798.45" width="9.38287" height="9.59985" class="st8"/>
			<text x="4.31" y="805.65" class="st3">No</text>		</g>
		<g id="shape41-216" transform="translate(45,-418.5)">
			<title>Dynamic connector.41</title>
			<desc>No</desc>
			<path d="M9 792 L9 814.5" class="st6"/>
			<rect x="4.30862" y="798.45" width="9.38287" height="9.59985" class="st8"/>
			<text x="4.31" y="805.65" class="st3">No</text>		</g>
		<g id="shape42-223" transform="translate(45,-472.5)">
			<title>Dynamic connector.42</title>
			<desc>Yes</desc>
			<path d="M9 792 L9 768.37" class="st6"/>
			<rect x="3.49619" y="775.388" width="11.0078" height="9.59985" class="st8"/>
			<text x="3.5" y="782.59" class="st3">Yes</text>		</g>
		<g id="shape43-230" transform="translate(279,-472.5)">
			<title>Dynamic connector.43</title>
			<desc>No</desc>
			<path d="M9 792 L9 768.37" class="st6"/>
			<rect x="4.30862" y="775.388" width="9.38287" height="9.59985" class="st8"/>
			<text x="4.31" y="782.59" class="st3">No</text>		</g>
		<g id="shape44-237" transform="translate(112.263,-623.25)">
			<title>Start/End.44</title>
			<desc>Token granted</desc>
			<path d="M13.5 792 L58.5 792 A13.5 13.5 -180 0 0 58.5 765 L13.5 765 A13.5 13.5 -180 1 0 13.5 792 Z" class="st1"/>
			<text x="12.4" y="780.9" class="st3">Token granted</text>		</g>
	</g>
</svg>
