<svg width="24" height="24" viewBox="0 0 24 24" fill="none" xmlns="http://www.w3.org/2000/svg">
<path d="M17.4001 0C13.755 0 10.8001 2.95463 10.8001 6.59936C10.8001 7.13117 10.8632 7.64921 10.9826 8.146L1.00918 18.1186C-0.336393 19.464 -0.336392 21.6455 1.00918 22.9909C2.35475 24.3364 4.53634 24.3364 5.88191 22.9909L15.8566 13.0171C16.3524 13.1359 16.8694 13.1987 17.4001 13.1987C21.0451 13.1987 24 10.2441 24 6.59936C24 5.86907 23.881 5.16474 23.6607 4.50576C23.5619 4.21009 23.317 3.98664 23.0135 3.91515C22.71 3.84367 22.3912 3.93433 22.1707 4.15479L19.2379 7.08768C18.8864 7.43915 18.3166 7.43917 17.9651 7.08772L16.9118 6.03457C16.5604 5.68315 16.5604 5.11338 16.9118 4.76194L19.8447 1.82898C20.0652 1.60853 20.1558 1.2897 20.0843 0.986263C20.0128 0.682827 19.7893 0.438013 19.4936 0.339182C18.8346 0.118932 18.1303 0 17.4001 0Z" fill="#4A90D9"/>
</svg>
