<svg width="21" height="24" viewBox="0 0 21 24" fill="none" xmlns="http://www.w3.org/2000/svg">
<path d="M6.68099 1.84615V9.63519C6.68099 10.3862 6.4441 11.1194 6.00194 11.7369L4.49156 13.8462H16.5084L14.9981 11.7369C14.5559 11.1194 14.319 10.3862 14.319 9.63519V1.84615H15.2742C15.8015 1.84615 16.2289 1.43288 16.2289 0.923077C16.2289 0.413276 15.8015 0 15.2742 0H5.72665C5.19936 0 4.7719 0.413276 4.7719 0.923077C4.7719 1.43288 5.19936 1.84615 5.72665 1.84615H6.68099ZM17.8304 15.6923H3.1696L0.550231 19.3503C-0.856985 21.3155 0.597832 24 3.07005 24H17.93C20.4022 24 21.857 21.3155 20.4498 19.3503L17.8304 15.6923Z" fill="#4A90D9"/>
</svg>
