<svg width="24" height="24" viewBox="0 0 24 24" fill="none" xmlns="http://www.w3.org/2000/svg">
<path d="M0 12C0 5.37258 5.37258 0 12 0C18.6274 0 24 5.37258 24 12C24 18.6274 18.6274 24 12 24C5.37258 24 0 18.6274 0 12ZM18.6 7.35C18.6 6.93579 18.2642 6.6 17.85 6.6C17.4358 6.6 17.1 6.93579 17.1 7.35V8.83774C16.0415 7.1342 14.1532 6 12 6C10.0368 6 8.29379 6.94367 7.20038 8.39898C6.95157 8.73014 7.01833 9.2003 7.3495 9.44911C7.68066 9.69792 8.15081 9.63116 8.39962 9.29999C9.2219 8.20555 10.5284 7.5 12 7.5C13.9593 7.5 15.6262 8.75221 16.2439 10.5H13.95C13.5358 10.5 13.2 10.8358 13.2 11.25C13.2 11.6642 13.5358 12 13.95 12H17.85C18.2642 12 18.6 11.6642 18.6 11.25V7.35ZM6.15 17.4C6.56421 17.4 6.9 17.0642 6.9 16.65V15.1623C7.95853 16.8658 9.84681 18 12 18C13.9632 18 15.7062 17.0563 16.7996 15.601C17.0484 15.2699 16.9817 14.7997 16.6505 14.5509C16.3193 14.3021 15.8492 14.3688 15.6004 14.7C14.7781 15.7944 13.4716 16.5 12 16.5C10.0407 16.5 8.37381 15.2478 7.75606 13.5H10.05C10.4642 13.5 10.8 13.1642 10.8 12.75C10.8 12.3358 10.4642 12 10.05 12H6.15C5.73579 12 5.4 12.3358 5.4 12.75V16.65C5.4 17.0642 5.73579 17.4 6.15 17.4Z" fill="#4A90D9"/>
</svg>
