<?xml version="1.0" encoding="UTF-8" standalone="no"?>
<!DOCTYPE svg PUBLIC "-//W3C//DTD SVG 1.1//EN" "http://www.w3.org/Graphics/SVG/1.1/DTD/svg11.dtd">
<!-- Generated by Microsoft Visio, SVG Export app-manage.svg Page-1 -->
<svg xmlns="http://www.w3.org/2000/svg" xmlns:xlink="http://www.w3.org/1999/xlink" xmlns:ev="http://www.w3.org/2001/xml-events"
		xmlns:v="http://schemas.microsoft.com/visio/2003/SVGExtensions/" width="2.19337in" height="2.18219in"
		viewBox="0 0 157.923 157.118" xml:space="preserve" color-interpolation-filters="sRGB" class="st4">
	<v:documentProperties v:langID="1033" v:viewMarkup="false"/>

	<style type="text/css">
	<![CDATA[
		.st1 {fill:url(#grad0-5);stroke:none;stroke-linecap:butt;stroke-width:0.75}
		.st2 {fill:url(#grad0-10);stroke:none;stroke-linecap:butt;stroke-width:0.75}
		.st3 {fill:url(#grad0-14);stroke:#0066cc;stroke-linecap:butt;stroke-width:3}
		.st4 {fill:none;fill-rule:evenodd;font-size:12px;overflow:visible;stroke-linecap:square;stroke-miterlimit:3}
	]]>
	</style>

	<defs id="Patterns_And_Gradients">
		<linearGradient id="grad0-5" x1="0" y1="0" x2="1" y2="0" gradientTransform="rotate(-90 0.5 0.5)">
			<stop offset="0" stop-color="#0078d4" stop-opacity="1"/>
			<stop offset="0.16" stop-color="#1380da" stop-opacity="1"/>
			<stop offset="0.53" stop-color="#3c91e5" stop-opacity="1"/>
			<stop offset="0.82" stop-color="#559cec" stop-opacity="1"/>
			<stop offset="1" stop-color="#5ea0ef" stop-opacity="1"/>
		</linearGradient>
		<linearGradient id="grad0-10" x1="0" y1="0" x2="1" y2="0" gradientTransform="rotate(-90 0.5 0.5)">
			<stop offset="0" stop-color="#d2ebff" stop-opacity="1"/>
			<stop offset="1" stop-color="#f0fffd" stop-opacity="1"/>
		</linearGradient>
		<linearGradient id="grad0-14" x1="0" y1="0" x2="1" y2="0" gradientTransform="rotate(90 0.5 0.5)">
			<stop offset="0" stop-color="#5ea0ef" stop-opacity="1"/>
			<stop offset="1" stop-color="#0078d4" stop-opacity="1"/>
		</linearGradient>
	</defs>
	<g v:mID="0" v:index="1" v:groupContext="foregroundPage">
		<title>Page-1</title>
		<v:pageProperties v:drawingScale="1" v:pageScale="1" v:drawingUnits="19" v:shadowOffsetX="9" v:shadowOffsetY="-9"/>
		<g id="group40-1" transform="translate(0.75,-21.4523)" v:mID="40" v:groupContext="group">
			<title>Icon-intune-331.40</title>
			<g id="shape41-2" v:mID="41" v:groupContext="shape">
				<title>Sheet.41</title>
				<path d="M47.22 116.64 L87.69 116.64 L87.69 157.12 L47.22 157.12 L47.22 116.64 ZM0 62.68 L40.47 62.68 L40.47 22.2
							 L5.65 22.2 A5.64957 5.64957 -180 0 0 0 27.85 L0 62.68 ZM5.65 157.12 L40.47 157.12 L40.47 116.64 L0 116.64
							 L0 151.47 A5.64957 5.64957 -180 0 0 5.65 157.12 ZM0 109.9 L40.47 109.9 L40.47 69.42 L0 69.42 L0 109.9
							 ZM94.44 157.12 L129.27 157.12 A5.64957 5.64957 -180 0 0 134.92 151.47 L134.92 116.64 L94.44 116.64 L94.44
							 157.12 ZM47.22 109.9 L87.69 109.9 L87.69 69.42 L47.22 69.42 L47.22 109.9 ZM94.44 109.9 L134.92 109.9
							 L134.92 69.42 L94.44 69.42 L94.44 109.9 ZM94.44 22.2 L94.44 62.68 L134.92 62.68 L134.92 27.85 A5.64957
							 5.64957 -180 0 0 129.27 22.2 L94.44 22.2 ZM47.22 62.68 L87.69 62.68 L87.69 22.2 L47.22 22.2 L47.22 62.68
							 Z" class="st1"/>
			</g>
		</g>
		<g id="group78-6" transform="translate(76.1923,-3)" v:mID="78" v:groupContext="group">
			<title>Sheet.78</title>
			<g id="shape76-7" v:mID="76" v:groupContext="shape" transform="translate(17.4796,-18.0047)">
				<title>Sheet.76</title>
				<ellipse cx="21.8857" cy="135.232" rx="21.8857" ry="21.8857" class="st2"/>
			</g>
			<g id="shape75-11" v:mID="75" v:groupContext="shape">
				<title>Sheet.75</title>
				<path d="M78.73 121.56 L78.73 112.63 L77.55 112.63 L67.84 109.62 L65.61 102.93 L70.47 92.43 L64.17 86.13 L62.99 86.13
							 L53.94 90.73 L47.9 88.23 L43.96 77.34 L34.65 77.34 L34.65 78.65 L31.5 88.23 L25.33 90.73 L15.12 85.87
							 L8.82 92.17 L9.47 93.35 L13.12 103.06 L11.02 109.62 L0 113.16 L0 122.74 L1.31 122.74 L10.89 125.89 L13.12
							 131.79 L8.26 142.29 L14.83 148.98 L16.14 148.32 L25.06 143.74 L31.23 146.23 L35.17 157.12 L44.09 157.12
							 L44.09 155.8 L47.24 146.23 L53.41 143.74 L63.77 148.59 L70.07 142.29 L69.42 141.11 L65.61 131.63 L68.11
							 125.47 L78.73 121.56 ZM39.64 134.69 L39.37 134.69 A17.1886 17.1886 0 1 1 39.64 134.69 Z" class="st3"/>
			</g>
		</g>
	</g>
</svg>
