<?xml version="1.0" encoding="UTF-8" standalone="no"?>
<!DOCTYPE svg PUBLIC "-//W3C//DTD SVG 1.1//EN" "http://www.w3.org/Graphics/SVG/1.1/DTD/svg11.dtd">
<!-- Generated by Microsoft Visio, SVG Export macos-manage.svg Page-1 -->
<svg xmlns="http://www.w3.org/2000/svg" xmlns:xlink="http://www.w3.org/1999/xlink" xmlns:ev="http://www.w3.org/2001/xml-events"
		xmlns:v="http://schemas.microsoft.com/visio/2003/SVGExtensions/" width="2.02056in" height="1.78405in"
		viewBox="0 0 145.481 128.452" xml:space="preserve" color-interpolation-filters="sRGB" class="st8">
	<v:documentProperties v:langID="1033" v:viewMarkup="false"/>

	<style type="text/css">
	<![CDATA[
		.st1 {fill:url(#grad0-6);stroke:none;stroke-linecap:butt;stroke-width:0.75}
		.st2 {fill:#0078d4;stroke:none;stroke-linecap:butt;stroke-width:0.75}
		.st3 {fill:url(#grad0-12);stroke:none;stroke-linecap:butt;stroke-width:0.75}
		.st4 {fill:url(#grad0-16);stroke:none;stroke-linecap:butt;stroke-width:0.75}
		.st5 {fill:#c3f1ff;stroke:none;stroke-linecap:butt;stroke-width:0.75}
		.st6 {fill:url(#grad0-23);stroke:none;stroke-linecap:butt;stroke-width:0.75}
		.st7 {fill:url(#grad0-27);stroke:#0066cc;stroke-linecap:butt;stroke-width:3}
		.st8 {fill:none;fill-rule:evenodd;font-size:12px;overflow:visible;stroke-linecap:square;stroke-miterlimit:3}
	]]>
	</style>

	<defs id="Patterns_And_Gradients">
		<linearGradient id="grad0-6" x1="0" y1="0" x2="1" y2="0" gradientTransform="rotate(-90 0.5 0.5)">
			<stop offset="0.145" stop-color="#d2ebff" stop-opacity="1"/>
			<stop offset="0.505" stop-color="#dbf1fe" stop-opacity="1"/>
			<stop offset="0.995" stop-color="#f0fffd" stop-opacity="1"/>
		</linearGradient>
		<linearGradient id="grad0-12" x1="0" y1="0" x2="1" y2="0" gradientTransform="rotate(-90 0.5 0.5)">
			<stop offset="0.155" stop-color="#0078d4" stop-opacity="1"/>
			<stop offset="0.355" stop-color="#0072ca" stop-opacity="1"/>
			<stop offset="0.69" stop-color="#0064b0" stop-opacity="1"/>
			<stop offset="0.85" stop-color="#005ba1" stop-opacity="1"/>
		</linearGradient>
		<linearGradient id="grad0-16" x1="0" y1="0" x2="1" y2="0" gradientTransform="rotate(-90 0.5 0.5)">
			<stop offset="0" stop-color="#0078d4" stop-opacity="1"/>
			<stop offset="0.125" stop-color="#107fd8" stop-opacity="1"/>
			<stop offset="0.515" stop-color="#3a91e5" stop-opacity="1"/>
			<stop offset="0.82" stop-color="#549cec" stop-opacity="1"/>
			<stop offset="1" stop-color="#5ea0ef" stop-opacity="1"/>
		</linearGradient>
		<linearGradient id="grad0-23" x1="0" y1="0" x2="1" y2="0" gradientTransform="rotate(-90 0.5 0.5)">
			<stop offset="0" stop-color="#d2ebff" stop-opacity="1"/>
			<stop offset="1" stop-color="#f0fffd" stop-opacity="1"/>
		</linearGradient>
		<linearGradient id="grad0-27" x1="0" y1="0" x2="1" y2="0" gradientTransform="rotate(90 0.5 0.5)">
			<stop offset="0" stop-color="#5ea0ef" stop-opacity="1"/>
			<stop offset="1" stop-color="#0078d4" stop-opacity="1"/>
		</linearGradient>
	</defs>
	<g v:mID="0" v:index="1" v:groupContext="foregroundPage">
		<title>Page-1</title>
		<v:pageProperties v:drawingScale="1" v:pageScale="1" v:drawingUnits="19" v:shadowOffsetX="9" v:shadowOffsetY="-9"/>
		<g id="group90-1" transform="translate(0.75,-0.75)" v:mID="90" v:groupContext="group">
			<title>Icon593_macOS</title>
			<g id="group91-2" v:mID="91" v:groupContext="group">
				<title>Sheet.91</title>
				<g id="shape92-3" v:mID="92" v:groupContext="shape" transform="translate(0,-34.1855)">
					<title>Sheet.92</title>
					<path d="M0 124.02 A4.43183 4.43183 -180 0 0 4.43 128.45 L128.3 128.45 A4.43183 4.43183 -180 0 0 132.73 124.02
								 L132.73 44.4 A4.43183 4.43183 -180 0 0 128.3 39.96 L4.43 39.96 A4.43183 4.43183 -180 0 0 0 44.4
								 L0 124.02 Z" class="st1"/>
				</g>
				<g id="shape93-7" v:mID="93" v:groupContext="shape" transform="translate(0,-34.1855)">
					<title>Sheet.93</title>
					<path d="M126.79 45.92 L126.79 122.51 L5.94 122.51 L5.94 45.92 L126.79 45.92 ZM128.31 39.96 L4.42 39.96 A4.42435
								 4.42435 -180 0 0 -0 44.39 L0 124.03 A4.42435 4.42435 -180 0 0 4.42 128.45 L128.31 128.45 A4.42435
								 4.42435 -180 0 0 132.73 124.03 L132.73 44.4 A4.42435 4.42435 -180 0 0 128.31 39.97 L128.31 39.96
								 Z" class="st2"/>
				</g>
				<g id="shape94-9" v:mID="94" v:groupContext="shape" transform="translate(33.1827,-6.25278E-13)">
					<title>Sheet.94</title>
					<path d="M59.78 121.03 C46.65 118.98 46.14 109.52 46.18 94.27 L20.15 94.27 C20.15 109.52 19.67 118.98 6.55 121.03
								 A7.72787 7.72787 -180 0 0 0 128.45 L66.37 128.45 A7.76474 7.76474 -180 0 0 59.78 121.03 Z"
							class="st3"/>
				</g>
				<g id="shape95-13" v:mID="95" v:groupContext="shape" transform="translate(0,-34.1855)">
					<title>Sheet.95</title>
					<path d="M0 107.79 L132.73 107.79 L132.73 125.83 A2.62512 2.62512 0 0 1 130.11 128.45 L4.48 128.45 A4.47597 4.47597
								 0 0 1 0 123.98 L0 107.79 Z" class="st4"/>
				</g>
				<g id="shape96-17" v:mID="96" v:groupContext="shape" transform="translate(60.857,-39.0081)">
					<title>Sheet.96</title>
					<ellipse cx="5.50832" cy="122.943" rx="5.50832" ry="5.50832" class="st5"/>
				</g>
			</g>
		</g>
		<g id="group100-19" transform="translate(97.4806,-19.8514)" v:mID="100" v:groupContext="group">
			<title>Sheet.100</title>
			<g id="shape101-20" v:mID="101" v:groupContext="shape" transform="translate(9.9908,-10.2909)">
				<title>Sheet.101</title>
				<ellipse cx="12.5092" cy="115.942" rx="12.5092" ry="12.5092" class="st6"/>
			</g>
			<g id="shape102-24" v:mID="102" v:groupContext="shape">
				<title>Sheet.102</title>
				<path d="M45 108.13 L45 103.03 L44.32 103.03 L38.78 101.3 L37.5 97.48 L40.28 91.48 L36.68 87.88 L36 87.88 L30.83
							 90.5 L27.38 89.08 L25.13 82.85 L19.8 82.85 L19.8 83.6 L18 89.08 L14.48 90.5 L8.64 87.73 L5.04 91.33
							 L5.41 92 L7.5 97.55 L6.3 101.3 L0 103.33 L0 108.8 L0.75 108.8 L6.22 110.6 L7.5 113.98 L4.72 119.98 L8.47
							 123.8 L9.22 123.42 L14.32 120.8 L17.85 122.23 L20.1 128.45 L25.2 128.45 L25.2 127.7 L27 122.23 L30.53
							 120.8 L36.45 123.57 L40.05 119.98 L39.68 119.3 L37.5 113.88 L38.93 110.36 L45 108.13 ZM22.65 115.63
							 L22.5 115.63 A9.82447 9.82447 0 1 1 22.65 115.63 Z" class="st7"/>
			</g>
		</g>
	</g>
</svg>
