<svg width="96" height="96" viewBox="0 0 96 96" fill="none" xmlns="http://www.w3.org/2000/svg">
<g filter="url(#filter0_d_1342_41)">
<circle cx="48" cy="44" r="40" fill="url(#paint0_linear_1342_41)" shape-rendering="crispEdges"/>
</g>
<path d="M61.1791 35.0937C62.3642 35.7223 63.2973 36.5764 63.9784 37.6559C64.6595 38.7355 65 39.9585 65 41.325C65 43.6618 64.7344 45.9097 64.2031 48.0688C63.6719 50.2279 62.8818 52.264 61.8329 54.1772C60.7841 56.0903 59.49 57.8463 57.9507 59.4451C56.4115 61.0439 54.627 62.4514 52.5974 63.6676C51.8754 64.1049 51.133 64.4329 50.3702 64.6515C49.6074 64.8702 48.8037 64.9863 47.9591 65C47.1282 65 46.3381 64.8907 45.5889 64.672C44.8397 64.4534 44.0974 64.1186 43.3618 63.6676C41.373 62.4651 39.609 61.0576 38.0697 59.4451C36.5304 57.8326 35.2364 56.0698 34.1875 54.1567C33.1386 52.2435 32.3486 50.2074 31.8173 48.0483C31.2861 45.8892 31.0136 43.6481 31 41.325C31 39.9312 31.3542 38.6877 32.0625 37.5944C32.7708 36.5012 33.7448 35.6403 34.9844 35.0117C35.0797 33.8775 35.3113 32.798 35.6791 31.7731C36.0469 30.7482 36.5236 29.7848 37.1094 28.8829C37.6951 27.981 38.3898 27.1747 39.1935 26.4641C39.9972 25.7535 40.8622 25.1386 41.7885 24.6193C42.7147 24.1 43.7159 23.7038 44.7921 23.4305C45.8682 23.1571 46.9647 23.0137 48.0817 23C49.7845 23 51.3986 23.3075 52.9243 23.9224C54.4499 24.5373 55.8053 25.3846 56.9904 26.4641C58.1755 27.5437 59.1358 28.8214 59.8714 30.2972C60.607 31.7731 61.0429 33.3719 61.1791 35.0937ZM37.7428 34.1918C38.2059 34.1098 38.6691 34.0415 39.1322 33.9868C39.5954 33.9322 40.0653 33.8775 40.5421 33.8228C40.7873 32.9893 41.155 32.2308 41.6454 31.5476C42.1358 30.8643 42.7147 30.2767 43.3822 29.7848C44.0497 29.2928 44.7853 28.917 45.5889 28.6574C46.3926 28.3978 47.2236 28.2611 48.0817 28.2474C48.9535 28.2474 49.7913 28.3841 50.595 28.6574C51.3986 28.9307 52.1274 29.3133 52.7812 29.8053C53.4351 30.2972 54.014 30.8848 54.518 31.5681C55.022 32.2513 55.3966 33.0166 55.6418 33.8638L57.0312 34.0278C57.4944 34.0825 57.9575 34.1508 58.4207 34.2328C58.1891 32.9893 57.76 31.8414 57.1334 30.7892C56.5068 29.7369 55.7372 28.8282 54.8245 28.063C53.9119 27.2977 52.8766 26.7033 51.7187 26.2796C50.5609 25.856 49.3486 25.6374 48.0817 25.6237C46.8149 25.6237 45.6094 25.8355 44.4651 26.2592C43.3209 26.6828 42.2925 27.2704 41.3798 28.022C40.4671 28.7735 39.6907 29.6823 39.0505 30.7482C38.4103 31.8141 37.9744 32.9619 37.7428 34.1918ZM52.72 33.6384C52.2432 32.7775 51.5962 32.101 50.7788 31.6091C49.9615 31.1171 49.0625 30.8712 48.0817 30.8712C47.1146 30.8712 46.2224 31.1171 45.405 31.6091C44.5877 32.101 43.9407 32.7706 43.4639 33.6179C44.9079 33.5359 46.3586 33.4949 47.8161 33.4949C48.6334 33.4949 49.4507 33.5085 50.268 33.5359C51.0853 33.5632 51.9026 33.5974 52.72 33.6384ZM62.3642 41.325C62.3642 40.7238 62.262 40.1772 62.0577 39.6852C61.8534 39.1933 61.5741 38.756 61.22 38.3734C60.8658 37.9907 60.4503 37.6764 59.9736 37.4305C59.4968 37.1845 58.9655 37.0068 58.3798 36.8975C57.5897 36.7609 56.7588 36.6447 55.887 36.549C55.0152 36.4534 54.123 36.3714 53.2103 36.3031C52.2977 36.2347 51.4054 36.1869 50.5337 36.1596C49.6619 36.1323 48.8173 36.1186 48 36.1186C47.1963 36.1186 46.3518 36.1323 45.4663 36.1596C44.5809 36.1869 43.6887 36.2279 42.7897 36.2826C41.8906 36.3372 41.0052 36.4192 40.1334 36.5286C39.2616 36.6379 38.4239 36.7609 37.6202 36.8975C37.0481 37.0068 36.5236 37.1776 36.0469 37.41C35.5701 37.6423 35.1478 37.9497 34.78 38.3324C34.4123 38.715 34.133 39.1523 33.9423 39.6442C33.7516 40.1362 33.6494 40.6896 33.6358 41.3045C33.6358 44.0922 34.0717 46.7843 34.9435 49.3807C35.8153 51.9771 37.1502 54.348 38.9483 56.4934C39.4796 55.7555 40.0857 55.1064 40.7668 54.5461C41.4479 53.9858 42.1835 53.5076 42.9736 53.1113C43.7636 52.715 44.5877 52.4212 45.4459 52.2299C46.3041 52.0386 47.1895 51.9361 48.1022 51.9224C48.9876 51.9224 49.8526 52.0249 50.6971 52.2299C51.5417 52.4348 52.359 52.7286 53.149 53.1113C53.9391 53.4939 54.6679 53.9585 55.3353 54.5051C56.0028 55.0517 56.6158 55.6803 57.1743 56.3909C58.9724 54.2455 60.2869 51.8951 61.1178 49.3397C61.9487 46.7843 62.3642 44.1127 62.3642 41.325ZM48.0817 38.7423C48.8037 38.7423 49.478 38.879 50.1046 39.1523C50.7312 39.4256 51.2897 39.8014 51.78 40.2796C52.2704 40.7579 52.645 41.3114 52.9038 41.94C53.1627 42.5686 53.3057 43.2518 53.3329 43.9898C53.3329 44.714 53.1967 45.3973 52.9243 46.0395C52.6518 46.6818 52.2772 47.2352 51.8005 47.6999C51.3237 48.1645 50.7652 48.5403 50.125 48.8272C49.4848 49.1142 48.8037 49.2509 48.0817 49.2372C47.3598 49.2372 46.6787 49.1005 46.0385 48.8272C45.3982 48.5539 44.8397 48.185 44.363 47.7204C43.8862 47.2557 43.5116 46.6955 43.2392 46.0395C42.9667 45.3836 42.8305 44.7003 42.8305 43.9898C42.8305 43.2655 42.9667 42.5891 43.2392 41.9605C43.5116 41.3319 43.893 40.7716 44.3834 40.2796C44.8738 39.7877 45.4255 39.4119 46.0385 39.1523C46.6514 38.8926 47.3325 38.756 48.0817 38.7423ZM45.4459 43.9898C45.4459 44.3587 45.514 44.7003 45.6502 45.0146C45.7865 45.3289 45.9704 45.6022 46.2019 45.8346C46.4335 46.0669 46.7127 46.2582 47.0397 46.4085C47.3666 46.5588 47.7139 46.6271 48.0817 46.6135C48.4495 46.6135 48.7901 46.5451 49.1034 46.4085C49.4167 46.2718 49.6959 46.0874 49.9411 45.8551C50.1863 45.6227 50.377 45.3426 50.5132 45.0146C50.6494 44.6867 50.7175 44.345 50.7175 43.9898C50.7175 43.6208 50.6494 43.2792 50.5132 42.9649C50.377 42.6506 50.1863 42.3773 49.9411 42.1449C49.6959 41.9126 49.4167 41.7213 49.1034 41.571C48.7901 41.4207 48.4495 41.3524 48.0817 41.366C47.7276 41.366 47.3938 41.4344 47.0805 41.571C46.7672 41.7077 46.488 41.8921 46.2428 42.1245C45.9976 42.3568 45.8069 42.6369 45.6707 42.9649C45.5345 43.2928 45.4595 43.6345 45.4459 43.9898ZM48.1022 54.5461C46.6174 54.5461 45.2348 54.8809 43.9543 55.5505C42.6739 56.2201 41.625 57.1835 40.8077 58.4407C42.0064 59.5613 43.3209 60.5588 44.7512 61.4334C45.2552 61.734 45.766 61.9595 46.2837 62.1098C46.8013 62.2601 47.3598 62.3421 47.9591 62.3558C48.6402 62.3558 49.3145 62.2328 49.982 61.9868C50.6494 61.7409 51.3033 61.4129 51.9435 61.0029C52.5837 60.593 53.1899 60.1625 53.762 59.7116C54.3341 59.2606 54.8586 58.796 55.3353 58.3177C54.9267 57.7301 54.4567 57.204 53.9255 56.7394C53.3942 56.2748 52.8153 55.8785 52.1887 55.5505C51.5621 55.2225 50.9083 54.9766 50.2272 54.8126C49.5461 54.6486 48.8377 54.5598 48.1022 54.5461Z" fill="#0078D4"/>
<defs>
<filter id="filter0_d_1342_41" x="0" y="0" width="96" height="96" filterUnits="userSpaceOnUse" color-interpolation-filters="sRGB">
<feFlood flood-opacity="0" result="BackgroundImageFix"/>
<feColorMatrix in="SourceAlpha" type="matrix" values="0 0 0 0 0 0 0 0 0 0 0 0 0 0 0 0 0 0 127 0" result="hardAlpha"/>
<feOffset dy="4"/>
<feGaussianBlur stdDeviation="4"/>
<feComposite in2="hardAlpha" operator="out"/>
<feColorMatrix type="matrix" values="0 0 0 0 0 0 0 0 0 0 0 0 0 0 0 0 0 0 0.12 0"/>
<feBlend mode="normal" in2="BackgroundImageFix" result="effect1_dropShadow_1342_41"/>
<feBlend mode="normal" in="SourceGraphic" in2="effect1_dropShadow_1342_41" result="shape"/>
</filter>
<linearGradient id="paint0_linear_1342_41" x1="48" y1="4" x2="48" y2="84" gradientUnits="userSpaceOnUse">
<stop stop-color="#0078D4" stop-opacity="0.02"/>
<stop offset="1" stop-color="#0078D4" stop-opacity="0.1"/>
</linearGradient>
</defs>
</svg>
