<svg width="96" height="96" viewBox="0 0 96 96" fill="none" xmlns="http://www.w3.org/2000/svg">
<g filter="url(#filter0_d_1311_158)">
<circle cx="48" cy="44" r="40" fill="url(#paint0_linear_1311_158)" shape-rendering="crispEdges"/>
</g>
<path d="M40.3213 31.334C42.4048 30.1312 45.3469 29.5209 48.4255 29.6442C51.4972 29.7672 54.5514 30.6149 56.8569 32.1579C57.4752 32.5717 58.3116 32.4056 58.7251 31.7869C59.1386 31.1683 58.9726 30.3313 58.3543 29.9175C55.5473 28.039 51.9822 27.0892 48.5332 26.9511C45.091 26.8132 41.6106 27.4781 38.9753 28.9994C38.331 29.3713 38.1101 30.1954 38.4817 30.8401C38.8534 31.4848 39.677 31.7059 40.3213 31.334ZM49.7126 32.136C48.9761 32.0325 48.2951 32.5461 48.1917 33.2831C48.0883 34.0201 48.6015 34.7015 49.3381 34.805C54.4471 35.5228 57.4814 38.4253 59.308 41.4042C61.1563 44.4185 61.7332 47.4697 61.8558 48.2534C61.9709 48.9887 62.6599 49.4914 63.3947 49.3763C64.1296 49.2612 64.632 48.5718 64.5169 47.8364C64.3689 46.8905 63.7174 43.4416 61.6039 39.9946C59.4686 36.5123 55.8077 32.9923 49.7126 32.136ZM43.5371 41.5723C40.2515 44.2199 38.3108 49.949 41.8758 57.34C42.1991 58.0103 41.9182 58.8159 41.2484 59.1394C40.5785 59.4629 39.7734 59.1818 39.4501 58.5116C35.4575 50.2341 37.3912 43.0642 41.8478 39.4731C44.0526 37.6964 46.8417 36.845 49.6678 37.2504C52.5055 37.6575 55.2538 39.3122 57.4171 42.3118C57.8523 42.9153 57.7162 43.7577 57.1131 44.1932C56.5099 44.6287 55.6681 44.4925 55.2329 43.889C53.4396 41.4024 51.3072 40.2085 49.2855 39.9184C47.2522 39.6267 45.2034 40.2296 43.5371 41.5723ZM47.7103 59.1293C45.4901 54.5621 44.8465 50.7452 45.2664 48.2548C45.4741 47.0229 45.9226 46.2124 46.4583 45.7374C46.9697 45.284 47.6909 45.0187 48.7257 45.1169C50.1188 45.2491 50.7361 45.6966 51.1114 46.196C51.5618 46.7954 51.8148 47.6559 52.1042 48.9555C52.1396 49.1143 52.1749 49.2774 52.2113 49.4447C52.7393 51.8788 53.4518 55.1626 56.7883 57.704C57.3801 58.1549 58.2251 58.0402 58.6756 57.448C59.1261 56.8558 59.0116 56.0103 58.4197 55.5595C55.8919 53.6339 55.3673 51.2498 54.8247 48.7835L54.8243 48.7815C54.7942 48.6446 54.7638 48.5069 54.7333 48.3694C54.4569 47.1285 54.1126 45.7054 53.2642 44.5763C52.3407 43.3471 50.9579 42.6213 48.9799 42.4337C47.3155 42.2758 45.8218 42.7007 44.672 43.7201C43.5466 44.718 42.8874 46.1632 42.6104 47.8064C42.0608 51.0662 42.9396 55.4771 45.2881 60.3082C45.6135 60.9775 46.4195 61.2562 47.0884 60.9306C47.7572 60.6051 48.0357 59.7986 47.7103 59.1293ZM37.0534 32.2838C37.5558 32.8326 37.5184 33.6851 36.9699 34.1878C35.3249 35.6955 34.302 37.3683 33.9853 37.9273C33.6185 38.5748 32.7966 38.8022 32.1495 38.4351C31.5025 38.0681 31.2753 37.2456 31.6421 36.5981C32.0287 35.9157 33.2147 33.9746 35.1506 32.2003C35.6991 31.6976 36.551 31.735 37.0534 32.2838ZM59.3793 48.0179C59.2416 47.2865 58.5374 46.8052 57.8065 46.9431C57.0755 47.0809 56.5947 47.7855 56.7324 48.5169C57.2348 51.1853 58.4676 53.4153 60.715 54.8044C61.3477 55.1955 62.1776 54.9993 62.5685 54.3661C62.9594 53.7328 62.7633 52.9025 62.1304 52.5113C60.6898 51.6208 59.7813 50.1526 59.3793 48.0179ZM48.3079 48.0437C49.0492 47.9815 49.7004 48.5323 49.7626 49.274C50.1687 54.1176 52.5842 57.1775 53.2455 57.9305C53.7366 58.4896 53.6817 59.3411 53.123 59.8324C52.5643 60.3237 51.7133 60.2688 51.2223 59.7098C50.3563 58.7238 47.5512 55.1374 47.0785 49.4993C47.0163 48.7576 47.5668 48.106 48.3079 48.0437ZM44.6726 35.2259C45.355 34.9297 45.6683 34.1361 45.3723 33.4533C45.0764 32.7705 44.2833 32.457 43.6009 32.7532C37.4372 35.4281 34.614 39.984 33.3942 44.0861C32.189 48.1393 32.543 51.7468 32.6709 52.7154C32.7683 53.4532 33.4451 53.9724 34.1825 53.8749C34.9199 53.7774 35.4386 53.1002 35.3412 52.3623C35.2368 51.5719 34.9239 48.3924 35.9759 44.8547C37.0134 41.3657 39.3717 37.5265 44.6726 35.2259Z" fill="#0078D4"/>
<defs>
<filter id="filter0_d_1311_158" x="0" y="0" width="96" height="96" filterUnits="userSpaceOnUse" color-interpolation-filters="sRGB">
<feFlood flood-opacity="0" result="BackgroundImageFix"/>
<feColorMatrix in="SourceAlpha" type="matrix" values="0 0 0 0 0 0 0 0 0 0 0 0 0 0 0 0 0 0 127 0" result="hardAlpha"/>
<feOffset dy="4"/>
<feGaussianBlur stdDeviation="4"/>
<feComposite in2="hardAlpha" operator="out"/>
<feColorMatrix type="matrix" values="0 0 0 0 0 0 0 0 0 0 0 0 0 0 0 0 0 0 0.12 0"/>
<feBlend mode="normal" in2="BackgroundImageFix" result="effect1_dropShadow_1311_158"/>
<feBlend mode="normal" in="SourceGraphic" in2="effect1_dropShadow_1311_158" result="shape"/>
</filter>
<linearGradient id="paint0_linear_1311_158" x1="48" y1="4" x2="48" y2="84" gradientUnits="userSpaceOnUse">
<stop stop-color="#0078D4" stop-opacity="0.02"/>
<stop offset="1" stop-color="#0078D4" stop-opacity="0.1"/>
</linearGradient>
</defs>
</svg>
