<svg width="96" height="96" viewBox="0 0 96 96" fill="none" xmlns="http://www.w3.org/2000/svg">
<g filter="url(#filter0_d_1313_193)">
<circle cx="48" cy="44" r="40" fill="url(#paint0_linear_1313_193)" shape-rendering="crispEdges"/>
</g>
<g clip-path="url(#clip0_1313_193)">
<path d="M35.5704 28C33.0103 28 30.935 30.0601 30.935 32.6013V41.3848C32.4727 39.3532 34.9204 38.0392 37.6774 38.0392C42.3321 38.0392 46.1054 41.7848 46.1054 46.4052C46.1054 48.2889 45.4781 50.0272 44.4197 51.4257V53.098H60.0115C62.5716 53.098 64.6469 51.038 64.6469 48.4968V32.6013C64.6469 30.0601 62.5716 28 60.0115 28H35.5704ZM38.9416 34.6928H56.6404C57.3385 34.6928 57.9046 35.2547 57.9046 35.9477C57.9046 36.6408 57.3385 37.2026 56.6404 37.2026H38.9416C38.2434 37.2026 37.6774 36.6408 37.6774 35.9477C37.6774 35.2547 38.2434 34.6928 38.9416 34.6928ZM47.791 44.3137C47.791 43.6207 48.357 43.0588 49.0552 43.0588H56.6404C57.3385 43.0588 57.9046 43.6207 57.9046 44.3137C57.9046 45.0067 57.3385 45.5686 56.6404 45.5686H49.0552C48.357 45.5686 47.791 45.0067 47.791 44.3137ZM37.6768 39.7124C33.9525 39.7124 30.9333 42.7093 30.9333 46.4062C30.9333 50.1032 33.9525 53.1002 37.6768 53.1002C41.4012 53.1002 44.4203 50.1032 44.4203 46.4062C44.4203 42.7093 41.4012 39.7124 37.6768 39.7124ZM42.7355 53.0997C41.3265 54.1506 39.5749 54.7734 37.6768 54.7734C35.7803 54.7734 34.03 54.1517 32.6216 53.1022L32.6208 58.5338C32.6208 59.4888 33.6397 60.0721 34.4582 59.653L34.609 59.5625L37.6774 57.4337L40.7446 59.5625C41.5333 60.1094 42.5987 59.6145 42.7212 58.7083L42.7329 58.5338L42.7355 53.0997Z" fill="#0078D4"/>
</g>
<defs>
<filter id="filter0_d_1313_193" x="0" y="0" width="96" height="96" filterUnits="userSpaceOnUse" color-interpolation-filters="sRGB">
<feFlood flood-opacity="0" result="BackgroundImageFix"/>
<feColorMatrix in="SourceAlpha" type="matrix" values="0 0 0 0 0 0 0 0 0 0 0 0 0 0 0 0 0 0 127 0" result="hardAlpha"/>
<feOffset dy="4"/>
<feGaussianBlur stdDeviation="4"/>
<feComposite in2="hardAlpha" operator="out"/>
<feColorMatrix type="matrix" values="0 0 0 0 0 0 0 0 0 0 0 0 0 0 0 0 0 0 0.12 0"/>
<feBlend mode="normal" in2="BackgroundImageFix" result="effect1_dropShadow_1313_193"/>
<feBlend mode="normal" in="SourceGraphic" in2="effect1_dropShadow_1313_193" result="shape"/>
</filter>
<linearGradient id="paint0_linear_1313_193" x1="48" y1="4" x2="48" y2="84" gradientUnits="userSpaceOnUse">
<stop stop-color="#0078D4" stop-opacity="0.02"/>
<stop offset="1" stop-color="#0078D4" stop-opacity="0.1"/>
</linearGradient>
<clipPath id="clip0_1313_193">
<rect width="34.1333" height="32" fill="white" transform="translate(30.9333 28)"/>
</clipPath>
</defs>
</svg>
