<svg width="56" height="56" viewBox="0 0 56 56" fill="none" xmlns="http://www.w3.org/2000/svg">
<rect width="56" height="56" rx="18" fill="url(#paint0_linear_1352_480)"/>
<g clip-path="url(#clip0_1352_480)">
<path d="M16.3472 13C13.9472 13 12.0015 14.9313 12.0015 17.3137V25.5482C13.4431 23.6436 15.7379 22.4118 18.3225 22.4118C22.6863 22.4118 26.2238 25.9233 26.2238 30.2549C26.2238 32.0209 25.6357 33.6505 24.6435 34.9616V36.5294H39.2608C41.6609 36.5294 43.6065 34.5981 43.6065 32.2157V17.3137C43.6065 14.9313 41.6609 13 39.2608 13H16.3472ZM19.5077 19.2745H36.1003C36.7548 19.2745 37.2855 19.8012 37.2855 20.451C37.2855 21.1007 36.7548 21.6275 36.1003 21.6275H19.5077C18.8532 21.6275 18.3225 21.1007 18.3225 20.451C18.3225 19.8012 18.8532 19.2745 19.5077 19.2745ZM27.804 28.2941C27.804 27.6444 28.3346 27.1176 28.9892 27.1176H36.1003C36.7548 27.1176 37.2855 27.6444 37.2855 28.2941C37.2855 28.9438 36.7548 29.4706 36.1003 29.4706H28.9892C28.3346 29.4706 27.804 28.9438 27.804 28.2941ZM18.322 23.9804C14.8305 23.9804 12 26.7899 12 30.2558C12 33.7217 14.8305 36.5315 18.322 36.5315C21.8136 36.5315 24.644 33.7217 24.644 30.2558C24.644 26.7899 21.8136 23.9804 18.322 23.9804ZM23.0645 36.531C21.7436 37.5162 20.1015 38.1001 18.322 38.1001C16.544 38.1001 14.9031 37.5172 13.5827 36.5334L13.582 41.6254C13.582 42.5208 14.5372 43.0676 15.3046 42.6746L15.4459 42.5898L18.3225 40.5941L21.198 42.5898C21.9375 43.1026 22.9362 42.6386 23.0511 41.789L23.062 41.6254L23.0645 36.531Z" fill="url(#paint1_linear_1352_480)"/>
</g>
<defs>
<linearGradient id="paint0_linear_1352_480" x1="49" y1="7" x2="10" y2="51" gradientUnits="userSpaceOnUse">
<stop stop-color="#A0E4FC" stop-opacity="0.2"/>
<stop offset="1" stop-color="#DBA9F6" stop-opacity="0.2"/>
</linearGradient>
<linearGradient id="paint1_linear_1352_480" x1="27.8032" y1="13" x2="27.8032" y2="42.8039" gradientUnits="userSpaceOnUse">
<stop stop-color="#118EFA"/>
<stop offset="0.33" stop-color="#1081E3"/>
<stop offset="1.0001" stop-color="#0F6CBD"/>
</linearGradient>
<clipPath id="clip0_1352_480">
<rect width="32" height="30" fill="white" transform="translate(12 13)"/>
</clipPath>
</defs>
</svg>
