<svg width="150" height="150" viewBox="0 0 150 150" fill="none" xmlns="http://www.w3.org/2000/svg">
<circle cx="75" cy="75" r="75" fill="url(#paint0_linear_1311_166)"/>
<path d="M63.0167 59.1743C66.1088 59.175 68.6168 61.6555 68.6169 64.715V94.7927C68.6169 97.8524 66.1089 100.333 63.0167 100.333H48.6003C45.5073 100.333 43 97.8527 43 94.7927V64.715C43.0001 61.655 45.5074 59.1743 48.6003 59.1743H63.0167ZM55.0068 89.2366C53.682 89.2371 52.6072 90.3003 52.6067 91.6111C52.6067 92.9224 53.6817 93.9854 55.0068 93.9856H56.6069C57.9325 93.9856 59.0071 92.9228 59.0071 91.6111C59.0065 90.3003 57.9323 89.2366 56.6069 89.2366H55.0068ZM104.6 86.0768C105.925 86.0768 107 87.1399 107 88.4514C107 89.6528 106.099 90.6464 104.928 90.8044L104.6 90.8259L71.8015 90.8227V86.0736L104.6 86.0768ZM95.0025 49.6667C98.0952 49.6667 100.602 52.1478 100.603 55.2074V78.9562C100.602 82.0156 98.0952 84.4968 95.0025 84.4968L71.8015 84.4938V62.3311C71.8015 58.9931 69.1907 56.2594 65.8792 56.0174L65.4011 55.9989L49.4003 55.9958V55.2074C49.4009 52.1478 51.908 49.6667 55.0006 49.6667H95.0025Z" fill="#0078D4"/>
<defs>
<linearGradient id="paint0_linear_1311_166" x1="75" y1="0" x2="75" y2="150" gradientUnits="userSpaceOnUse">
<stop stop-color="#0078D4" stop-opacity="0.02"/>
<stop offset="1" stop-color="#0078D4" stop-opacity="0.1"/>
</linearGradient>
</defs>
</svg>
