<svg width="48" height="48" viewBox="0 0 48 48" fill="none" xmlns="http://www.w3.org/2000/svg">
<path d="M9.98779 37.4452C11.0337 38.0918 12.7725 38.8107 14.6109 38.8107C16.285 38.8107 17.8404 38.3296 19.129 37.5096C19.129 37.5096 19.1317 37.5096 19.1344 37.5067L24 34.4929V45.3752C23.2291 45.3752 22.4529 45.1667 21.779 44.7499L9.98779 37.4452Z" fill="#225086"/>
<path d="M20.9387 4.01725L0.941203 26.5522C-0.602601 28.2943 -0.199985 30.9261 1.80244 32.1753C1.80244 32.1753 9.20424 36.7968 10.1375 37.3804C11.172 38.0248 12.8918 38.7415 14.7103 38.7415C16.3661 38.7415 17.9045 38.2619 19.1791 37.4441C19.1791 37.4441 19.1817 37.4441 19.1844 37.4416L23.9972 34.437L12.3612 27.1702L23.9997 14.0541V2.66675C22.8694 2.66675 21.7388 3.11692 20.9387 4.01725Z" fill="#66DDFF"/>
<path d="M12.2979 27.2124L12.4373 27.2978L23.997 34.4934H23.9995V14.0735L23.997 14.0708L12.2979 27.2124Z" fill="#CBF8FF"/>
<path d="M46.1971 32.2408C48.2 30.989 48.6026 28.352 47.0586 26.6065L33.9345 11.7911C32.8758 11.2973 31.6887 11.0144 30.4329 11.0144C27.9659 11.0144 25.7601 12.0793 24.2935 13.7528L24.0029 14.0811L35.6414 27.2231L24 34.5041V45.3747C24.7655 45.3747 25.5281 45.1667 26.195 44.7502L46.1971 32.2381V32.2408Z" fill="#074793"/>
<path d="M24.0029 2.66675V14.0705L24.2973 13.7424C25.783 12.0699 28.017 11.0055 30.5153 11.0055C31.7905 11.0055 32.9899 11.2909 34.0622 11.7818L27.0958 4.02186C26.2879 3.12023 25.1427 2.66942 24 2.66942L24.0029 2.66675Z" fill="#0294E4"/>
<path d="M35.7019 27.2132L24 14.0708V34.4934L35.7019 27.2132Z" fill="#96BCC2"/>
</svg>
