<svg width="150" height="150" viewBox="0 0 150 150" fill="none" xmlns="http://www.w3.org/2000/svg">
<g filter="url(#filter0_i_1311_127)">
<circle cx="75" cy="75" r="75" fill="#0078D4"/>
</g>
<g filter="url(#filter1_d_1311_127)">
<path d="M70.9634 48.7864C73.2745 46.2454 77.0895 46.6164 78.9561 48.6359V48.6429C79.0059 48.6919 88.2822 58.9748 88.2751 58.9713C86.0493 57.9318 80.0299 56.5878 75.4291 61.5438C75.4078 61.5718 59.5467 79.2081 59.5467 79.2081L72.1189 86.9535L67.927 89.5365C61.232 93.4985 54.5655 91.3985 52.0909 89.8725C51.6856 89.6205 45.4599 85.781 45.4599 85.781C42.772 84.1501 42.1853 80.7306 44.2048 78.4976C44.9195 77.7031 70.2914 49.5249 70.9634 48.7864ZM94.0029 65.2258C93.9922 65.1838 105.811 78.4941 105.857 78.5466C107.567 80.4856 107.524 84.0206 104.588 85.7741C104.054 86.0926 77.9606 102.178 77.9606 102.178C76.1864 103.274 73.886 103.274 72.1118 102.178L59.7601 94.587C64.4782 95.6895 68.631 92.6935 68.631 92.6935L90.5292 79.2011L77.3704 64.5643C79.2619 62.5763 81.74 61.0328 84.7835 60.9558C84.8214 60.9544 84.8593 60.952 84.8975 60.9495C84.9559 60.9457 85.0148 60.9418 85.0751 60.9418C88.7266 60.9418 92.0829 62.5973 94.0029 65.2258Z" fill="white"/>
</g>
<defs>
<filter id="filter0_i_1311_127" x="0" y="0" width="150" height="150" filterUnits="userSpaceOnUse" color-interpolation-filters="sRGB">
<feFlood flood-opacity="0" result="BackgroundImageFix"/>
<feBlend mode="normal" in="SourceGraphic" in2="BackgroundImageFix" result="shape"/>
<feColorMatrix in="SourceAlpha" type="matrix" values="0 0 0 0 0 0 0 0 0 0 0 0 0 0 0 0 0 0 127 0" result="hardAlpha"/>
<feOffset/>
<feGaussianBlur stdDeviation="26"/>
<feComposite in2="hardAlpha" operator="arithmetic" k2="-1" k3="1"/>
<feColorMatrix type="matrix" values="0 0 0 0 0 0 0 0 0 0 0 0 0 0 0 0 0 0 0.65 0"/>
<feBlend mode="normal" in2="shape" result="effect1_innerShadow_1311_127"/>
</filter>
<filter id="filter1_d_1311_127" x="43" y="47" width="64" height="60" filterUnits="userSpaceOnUse" color-interpolation-filters="sRGB">
<feFlood flood-opacity="0" result="BackgroundImageFix"/>
<feColorMatrix in="SourceAlpha" type="matrix" values="0 0 0 0 0 0 0 0 0 0 0 0 0 0 0 0 0 0 127 0" result="hardAlpha"/>
<feOffset dy="4"/>
<feComposite in2="hardAlpha" operator="out"/>
<feColorMatrix type="matrix" values="0 0 0 0 0 0 0 0 0 0 0 0 0 0 0 0 0 0 0.25 0"/>
<feBlend mode="normal" in2="BackgroundImageFix" result="effect1_dropShadow_1311_127"/>
<feBlend mode="normal" in="SourceGraphic" in2="effect1_dropShadow_1311_127" result="shape"/>
</filter>
</defs>
</svg>
