<svg width="266" height="93" viewBox="0 0 266 93" fill="none" xmlns="http://www.w3.org/2000/svg">
<g filter="url(#filter0_dd_1304_264)">
<g clip-path="url(#clip0_1304_264)">
<path d="M4 14C4 7.37258 9.37258 2 16 2H249.844C256.471 2 261.844 7.37258 261.844 14V75C261.844 81.6274 256.471 87 249.844 87H16C9.37258 87 4 81.6274 4 75V14Z" fill="#F5F5F5"/>
<path d="M128.885 18.2864C131.196 15.7454 135.011 16.1164 136.878 18.1359V18.1429C136.928 18.1919 146.204 28.4748 146.197 28.4713C143.971 27.4318 137.952 26.0878 133.351 31.0438C133.33 31.0718 117.469 48.7081 117.469 48.7081L130.041 56.4535L125.849 59.0365C119.154 62.9985 112.487 60.8985 110.013 59.3725C109.608 59.1205 103.382 55.281 103.382 55.281C100.694 53.6501 100.107 50.2306 102.127 47.9976C102.841 47.2031 128.213 19.0249 128.885 18.2864ZM151.925 34.7258C151.914 34.6838 163.733 47.9941 163.779 48.0466C165.489 49.9856 165.446 53.5206 162.51 55.2741C161.976 55.5926 135.883 71.6784 135.883 71.6784C134.108 72.7739 131.808 72.7739 130.034 71.6784L117.682 64.087C122.4 65.1895 126.553 62.1935 126.553 62.1935L148.451 48.7011L135.292 34.0643C137.184 32.0763 139.662 30.5328 142.705 30.4558C142.743 30.4544 142.781 30.452 142.819 30.4495C142.878 30.4457 142.937 30.4418 142.997 30.4418C146.649 30.4418 150.005 32.0973 151.925 34.7258Z" fill="#0078D4"/>
</g>
</g>
<defs>
<filter id="filter0_dd_1304_264" x="0" y="0" width="265.844" height="93" filterUnits="userSpaceOnUse" color-interpolation-filters="sRGB">
<feFlood flood-opacity="0" result="BackgroundImageFix"/>
<feColorMatrix in="SourceAlpha" type="matrix" values="0 0 0 0 0 0 0 0 0 0 0 0 0 0 0 0 0 0 127 0" result="hardAlpha"/>
<feOffset/>
<feGaussianBlur stdDeviation="1"/>
<feComposite in2="hardAlpha" operator="out"/>
<feColorMatrix type="matrix" values="0 0 0 0 0 0 0 0 0 0 0 0 0 0 0 0 0 0 0.12 0"/>
<feBlend mode="normal" in2="BackgroundImageFix" result="effect1_dropShadow_1304_264"/>
<feColorMatrix in="SourceAlpha" type="matrix" values="0 0 0 0 0 0 0 0 0 0 0 0 0 0 0 0 0 0 127 0" result="hardAlpha"/>
<feOffset dy="2"/>
<feGaussianBlur stdDeviation="2"/>
<feComposite in2="hardAlpha" operator="out"/>
<feColorMatrix type="matrix" values="0 0 0 0 0 0 0 0 0 0 0 0 0 0 0 0 0 0 0.14 0"/>
<feBlend mode="normal" in2="effect1_dropShadow_1304_264" result="effect2_dropShadow_1304_264"/>
<feBlend mode="normal" in="SourceGraphic" in2="effect2_dropShadow_1304_264" result="shape"/>
</filter>
<clipPath id="clip0_1304_264">
<path d="M4 14C4 7.37258 9.37258 2 16 2H249.844C256.471 2 261.844 7.37258 261.844 14V75C261.844 81.6274 256.471 87 249.844 87H16C9.37258 87 4 81.6274 4 75V14Z" fill="white"/>
</clipPath>
</defs>
</svg>
