<svg width="14" height="14" viewBox="0 0 14 14" fill="none" xmlns="http://www.w3.org/2000/svg">
<g clip-path="url(#clip0_789_95)">
<rect x="0.875" y="0.875" width="12.25" height="12.25" rx="4" fill="#00A6ED"/>
<path d="M6.99996 4.36241C7.47793 4.36241 7.8654 3.97494 7.8654 3.49697C7.8654 3.019 7.47793 2.63153 6.99996 2.63153C6.52199 2.63153 6.13452 3.019 6.13452 3.49697C6.13452 3.97494 6.52199 4.36241 6.99996 4.36241Z" fill="white"/>
<path d="M7.70444 6.00159C7.70444 5.57875 7.36166 5.23597 6.93881 5.23597C6.51597 5.23597 6.17319 5.57875 6.17319 6.00159L6.17319 10.635C6.17319 11.0578 6.51597 11.4006 6.93881 11.4006C7.36166 11.4006 7.70444 11.0578 7.70444 10.635L7.70444 6.00159Z" fill="white"/>
</g>
<defs>
<clipPath id="clip0_789_95">
<rect width="14" height="14" fill="white"/>
</clipPath>
</defs>
</svg>
