<svg width="266" height="93" viewBox="0 0 266 93" fill="none" xmlns="http://www.w3.org/2000/svg">
<g filter="url(#filter0_dd_1304_270)">
<g clip-path="url(#clip0_1304_270)">
<path d="M4 14C4 7.37258 9.37258 2 16 2H249.844C256.471 2 261.844 7.37258 261.844 14V75C261.844 81.6274 256.471 87 249.844 87H16C9.37258 87 4 81.6274 4 75V14Z" fill="#F5F5F5"/>
<path d="M155.207 55.4175C157.828 54.3199 159.584 52.1041 159.589 49.3976V38.3693C155.345 42.144 149.167 42.2299 144.548 38.9751L144.53 38.9625L119.048 20.1272C116.5 18.2439 113.263 18.0868 110.637 19.1866C108.013 20.2856 106.255 22.5058 106.255 25.2173V25.2324C106.255 29.56 106.256 33.0789 106.256 35.9829C107.134 35.2737 108.116 34.6944 109.154 34.2599C112.879 32.6999 117.571 32.8751 121.331 35.6545L146.796 54.4772C149.344 56.3605 152.581 56.5173 155.207 55.4175Z" fill="#0078D4"/>
<path d="M106.262 50.0567C106.26 47.926 106.259 45.7952 106.258 43.6645C106.334 41.0353 108.071 38.8893 110.637 37.8149C113.263 36.7151 116.5 36.8717 119.048 38.7551L144.513 57.5777C148.932 60.8443 155.327 60.6927 159.589 57.2489V63.9325C159.589 66.6655 157.879 68.8225 155.356 69.8641C152.823 70.9099 149.647 70.7324 147.076 68.8323L132.111 57.7392L132.102 57.7447L121.296 49.7437C116.624 46.3211 110.281 46.6973 106.262 50.0567Z" fill="#0078D4"/>
<path d="M159.588 30.1724C159.333 35.0953 152.976 39.8526 146.965 35.5681L137.597 28.5636L146.816 23.2776C151.734 20.564 159.643 22.653 159.588 30.1724Z" fill="#0078D4"/>
<path d="M118.971 65.3888C114.077 68.0892 106.255 66.0175 106.255 58.9004C106.255 52.3247 113.824 49.4032 118.825 53.1421L128.161 60.1243L118.971 65.3888Z" fill="#0078D4"/>
</g>
</g>
<defs>
<filter id="filter0_dd_1304_270" x="0" y="0" width="265.844" height="93" filterUnits="userSpaceOnUse" color-interpolation-filters="sRGB">
<feFlood flood-opacity="0" result="BackgroundImageFix"/>
<feColorMatrix in="SourceAlpha" type="matrix" values="0 0 0 0 0 0 0 0 0 0 0 0 0 0 0 0 0 0 127 0" result="hardAlpha"/>
<feOffset/>
<feGaussianBlur stdDeviation="1"/>
<feComposite in2="hardAlpha" operator="out"/>
<feColorMatrix type="matrix" values="0 0 0 0 0 0 0 0 0 0 0 0 0 0 0 0 0 0 0.12 0"/>
<feBlend mode="normal" in2="BackgroundImageFix" result="effect1_dropShadow_1304_270"/>
<feColorMatrix in="SourceAlpha" type="matrix" values="0 0 0 0 0 0 0 0 0 0 0 0 0 0 0 0 0 0 127 0" result="hardAlpha"/>
<feOffset dy="2"/>
<feGaussianBlur stdDeviation="2"/>
<feComposite in2="hardAlpha" operator="out"/>
<feColorMatrix type="matrix" values="0 0 0 0 0 0 0 0 0 0 0 0 0 0 0 0 0 0 0.14 0"/>
<feBlend mode="normal" in2="effect1_dropShadow_1304_270" result="effect2_dropShadow_1304_270"/>
<feBlend mode="normal" in="SourceGraphic" in2="effect2_dropShadow_1304_270" result="shape"/>
</filter>
<clipPath id="clip0_1304_270">
<path d="M4 14C4 7.37258 9.37258 2 16 2H249.844C256.471 2 261.844 7.37258 261.844 14V75C261.844 81.6274 256.471 87 249.844 87H16C9.37258 87 4 81.6274 4 75V14Z" fill="white"/>
</clipPath>
</defs>
</svg>
