<svg width="96" height="96" viewBox="0 0 96 96" fill="none" xmlns="http://www.w3.org/2000/svg">
<g filter="url(#filter0_d_1310_11)">
<circle cx="48" cy="44" r="40" fill="url(#paint0_linear_1310_11)" shape-rendering="crispEdges"/>
</g>
<path d="M48 29.7778C44.0726 29.7778 40.8889 32.9616 40.8889 36.8889C40.8889 40.8163 44.0726 44.0001 48 44.0001C51.9273 44.0001 55.1111 40.8163 55.1111 36.8889C55.1111 32.9616 51.9273 29.7778 48 29.7778ZM39.6443 46.8445C37.9756 46.8445 36.6222 48.1965 36.6222 49.8659L36.6222 50.4C36.6222 53.0707 38.0029 55.0699 40.121 56.3593C42.2038 57.6273 45.0034 58.2223 48 58.2223C50.6423 58.2223 53.1315 57.7596 55.1111 56.7809V51.4554C53.5832 50.4326 52.5183 48.7677 52.3057 46.8445H39.6443ZM53.7393 46.8445C53.706 46.6122 53.6889 46.3748 53.6889 46.1334C53.6889 43.3842 55.9175 41.1556 58.6666 41.1556C61.4158 41.1556 63.6444 43.3842 63.6444 46.1334C63.6444 48.3883 62.145 50.2931 60.0889 50.905V51.1112L61.7194 52.7417C61.9971 53.0194 61.9971 53.4696 61.7194 53.7473L60.0889 55.3778L61.7402 57.0292C62.0096 57.2986 62.0188 57.7325 61.7611 58.0131L59.1685 60.8351C58.8949 61.133 58.4281 61.1429 58.142 60.8568L56.7416 59.4564C56.6082 59.323 56.5333 59.1421 56.5333 58.9535V50.6321C55.056 49.9304 53.9793 48.5224 53.7393 46.8445ZM60.0889 45.4223C60.0889 44.6368 59.4521 44.0001 58.6666 44.0001C57.8812 44.0001 57.2444 44.6368 57.2444 45.4223C57.2444 46.2077 57.8812 46.8445 58.6666 46.8445C59.4521 46.8445 60.0889 46.2077 60.0889 45.4223Z" fill="url(#paint1_linear_1310_11)"/>
<defs>
<filter id="filter0_d_1310_11" x="0" y="0" width="96" height="96" filterUnits="userSpaceOnUse" color-interpolation-filters="sRGB">
<feFlood flood-opacity="0" result="BackgroundImageFix"/>
<feColorMatrix in="SourceAlpha" type="matrix" values="0 0 0 0 0 0 0 0 0 0 0 0 0 0 0 0 0 0 127 0" result="hardAlpha"/>
<feOffset dy="4"/>
<feGaussianBlur stdDeviation="4"/>
<feComposite in2="hardAlpha" operator="out"/>
<feColorMatrix type="matrix" values="0 0 0 0 0 0 0 0 0 0 0 0 0 0 0 0 0 0 0.12 0"/>
<feBlend mode="normal" in2="BackgroundImageFix" result="effect1_dropShadow_1310_11"/>
<feBlend mode="normal" in="SourceGraphic" in2="effect1_dropShadow_1310_11" result="shape"/>
</filter>
<linearGradient id="paint0_linear_1310_11" x1="48" y1="4" x2="48" y2="84" gradientUnits="userSpaceOnUse">
<stop stop-color="#0078D4" stop-opacity="0.02"/>
<stop offset="1" stop-color="#0078D4" stop-opacity="0.1"/>
</linearGradient>
<linearGradient id="paint1_linear_1310_11" x1="50.1333" y1="29.7778" x2="50.1333" y2="61.0651" gradientUnits="userSpaceOnUse">
<stop stop-color="#118EFA"/>
<stop offset="0.33" stop-color="#1081E3"/>
<stop offset="1.0001" stop-color="#0F6CBD"/>
</linearGradient>
</defs>
</svg>
