<svg width="56" height="56" viewBox="0 0 56 56" fill="none" xmlns="http://www.w3.org/2000/svg">
<rect width="56" height="56" rx="18" fill="url(#paint0_linear_1352_332)"/>
<path d="M38 1C47.3888 1 55 8.61116 55 18V38C55 47.3888 47.3888 55 38 55H18C8.61116 55 1 47.3888 1 38V18C1 8.61116 8.61116 1 18 1H38Z" stroke="url(#paint1_linear_1352_332)" stroke-width="2"/>
<path d="M28 14.6666C24.3181 14.6666 21.3334 17.6514 21.3334 21.3333C21.3334 25.0152 24.3181 28 28 28C31.6819 28 34.6667 25.0152 34.6667 21.3333C34.6667 17.6514 31.6819 14.6666 28 14.6666ZM20.1666 30.6666C18.6022 30.6666 17.3334 31.9341 17.3334 33.4992L17.3334 34C17.3334 36.5037 18.6278 38.3779 20.6135 39.5868C22.5661 40.7755 25.1908 41.3333 28 41.3333C30.4772 41.3333 32.8108 40.8996 34.6667 39.982V34.9893C33.2343 34.0305 32.236 32.4697 32.0367 30.6666H20.1666ZM33.3806 30.6666C33.3495 30.4489 33.3334 30.2263 33.3334 30C33.3334 27.4226 35.4227 25.3333 38 25.3333C40.5774 25.3333 42.6667 27.4226 42.6667 30C42.6667 32.114 41.261 33.8997 39.3334 34.4734V34.6666L40.862 36.1952C41.1223 36.4556 41.1223 36.8777 40.862 37.138L39.3334 38.6666L40.8815 40.2148C41.1341 40.4674 41.1427 40.8741 40.9011 41.1372L38.4706 43.7828C38.214 44.0621 37.7764 44.0714 37.5082 43.8032L36.1953 42.4902C36.0703 42.3652 36 42.1956 36 42.0188V34.2175C34.6151 33.5596 33.6056 32.2396 33.3806 30.6666ZM39.3334 29.3333C39.3334 28.5969 38.7364 28 38 28C37.2637 28 36.6667 28.5969 36.6667 29.3333C36.6667 30.0697 37.2637 30.6666 38 30.6666C38.7364 30.6666 39.3334 30.0697 39.3334 29.3333Z" fill="url(#paint2_linear_1352_332)"/>
<defs>
<linearGradient id="paint0_linear_1352_332" x1="49" y1="7" x2="10" y2="51" gradientUnits="userSpaceOnUse">
<stop stop-color="#A0E4FC" stop-opacity="0.2"/>
<stop offset="1" stop-color="#DBA9F6" stop-opacity="0.2"/>
</linearGradient>
<linearGradient id="paint1_linear_1352_332" x1="47.5" y1="8.5" x2="11.2857" y2="49.3571" gradientUnits="userSpaceOnUse">
<stop stop-color="#A0E4FC"/>
<stop offset="1" stop-color="#DBA9F6"/>
</linearGradient>
<linearGradient id="paint2_linear_1352_332" x1="30" y1="14.6666" x2="30" y2="43.9984" gradientUnits="userSpaceOnUse">
<stop stop-color="#118EFA"/>
<stop offset="0.33" stop-color="#1081E3"/>
<stop offset="1.0001" stop-color="#0F6CBD"/>
</linearGradient>
</defs>
</svg>
