<svg width="48" height="48" viewBox="0 0 48 48" fill="none" xmlns="http://www.w3.org/2000/svg">
<g clip-path="url(#clip0_750_9958)">
<path d="M6.11546 23.1873H26.9508C27.3512 25.7466 28.5969 28.0257 30.3891 29.729V41.2301C27.4209 43.3069 23.4486 44.6387 18.6348 44.6387C7.40139 44.6387 0.75 37.3861 0.75 30.3377V28.5501C0.75 25.5883 3.15219 23.1873 6.11546 23.1873ZM18.6348 -0.0517578C24.0675 -0.0517578 28.4716 4.35014 28.4716 9.78014C28.4716 15.2102 24.0675 19.612 18.6348 19.612C13.2022 19.612 8.79819 15.2102 8.79819 9.78014C8.79819 4.35014 13.2022 -0.0517578 18.6348 -0.0517578ZM40.9598 29.9376C44.6036 28.8082 47.25 25.4126 47.25 21.3994C47.25 16.4631 43.2465 12.4616 38.3079 12.4616C33.3693 12.4616 29.3657 16.4631 29.3657 21.3994C29.3657 24.3235 30.7706 26.9196 32.9426 28.5503V42.3448C32.9426 42.6701 33.0667 42.983 33.2898 43.2199L37.4612 47.65C37.9499 48.1689 38.769 48.1876 39.2808 47.6914L43.4517 43.6485C43.9196 43.1948 43.9707 42.4617 43.5702 41.9474L40.0965 37.4883L43.3167 34.7324C43.8475 34.2782 43.9147 33.4818 43.4672 32.9452L40.9598 29.9376ZM40.9909 18.7183C40.9909 20.1991 39.7899 21.3997 38.3082 21.3997C36.8265 21.3997 35.6255 20.1991 35.6255 18.7183C35.6255 17.2373 36.8265 16.0368 38.3082 16.0368C39.7899 16.0368 40.9909 17.2373 40.9909 18.7183Z" fill="url(#paint0_linear_750_9958)"/>
</g>
<defs>
<linearGradient id="paint0_linear_750_9958" x1="24" y1="60.9292" x2="24" y2="-6.71511" gradientUnits="userSpaceOnUse">
<stop stop-color="#0078D4"/>
<stop offset="0.17" stop-color="#1C84DC"/>
<stop offset="0.38" stop-color="#3990E4"/>
<stop offset="0.59" stop-color="#4D99EA"/>
<stop offset="0.8" stop-color="#5A9EEE"/>
<stop offset="1" stop-color="#5EA0EF"/>
</linearGradient>
<clipPath id="clip0_750_9958">
<rect width="48" height="48" fill="white"/>
</clipPath>
</defs>
</svg>
