<svg width="266" height="93" viewBox="0 0 266 93" fill="none" xmlns="http://www.w3.org/2000/svg">
<g filter="url(#filter0_dd_1304_297)">
<rect x="4" y="2" width="257.844" height="85" rx="12" fill="#F5F5F5" shape-rendering="crispEdges"/>
<g clip-path="url(#clip0_1304_297)">
<mask id="mask0_1304_297" style="mask-type:luminance" maskUnits="userSpaceOnUse" x="100" y="12" width="65" height="65">
<path d="M164.922 12.5H100.922V76.5H164.922V12.5Z" fill="white"/>
</mask>
<g mask="url(#mask0_1304_297)">
<path d="M109.076 43.4164H136.856C137.39 46.8288 139.051 49.8677 141.441 52.1387V67.4735C137.483 70.2427 132.187 72.0183 125.768 72.0183C110.79 72.0183 101.922 62.3481 101.922 52.9503V50.5669C101.922 46.6179 105.125 43.4164 109.076 43.4164ZM125.768 12.431C133.012 12.431 138.884 18.3002 138.884 25.5402C138.884 32.7803 133.012 38.6493 125.768 38.6493C118.525 38.6493 112.653 32.7803 112.653 25.5402C112.653 18.3002 118.525 12.431 125.768 12.431ZM155.535 52.4169C160.393 50.9111 163.922 46.3836 163.922 41.0327C163.922 34.4509 158.584 29.1155 151.999 29.1155C145.414 29.1155 140.076 34.4509 140.076 41.0327C140.076 44.9313 141.949 48.3928 144.845 50.5671V68.9597C144.845 69.3935 145.011 69.8107 145.308 70.1265L150.87 76.0333C151.522 76.7252 152.614 76.7501 153.296 76.0885L158.858 70.6981C159.481 70.0931 159.55 69.1157 159.016 68.43L154.384 62.4844L158.678 58.8099C159.385 58.2043 159.475 57.1424 158.878 56.4269L155.535 52.4169ZM155.576 37.4577C155.576 39.4321 153.975 41.0329 152 41.0329C150.024 41.0329 148.423 39.4321 148.423 37.4577C148.423 35.4831 150.024 33.8825 152 33.8825C153.975 33.8825 155.576 35.4831 155.576 37.4577Z" fill="#0078D4"/>
</g>
</g>
</g>
<defs>
<filter id="filter0_dd_1304_297" x="0" y="0" width="265.844" height="93" filterUnits="userSpaceOnUse" color-interpolation-filters="sRGB">
<feFlood flood-opacity="0" result="BackgroundImageFix"/>
<feColorMatrix in="SourceAlpha" type="matrix" values="0 0 0 0 0 0 0 0 0 0 0 0 0 0 0 0 0 0 127 0" result="hardAlpha"/>
<feOffset/>
<feGaussianBlur stdDeviation="1"/>
<feComposite in2="hardAlpha" operator="out"/>
<feColorMatrix type="matrix" values="0 0 0 0 0 0 0 0 0 0 0 0 0 0 0 0 0 0 0.12 0"/>
<feBlend mode="normal" in2="BackgroundImageFix" result="effect1_dropShadow_1304_297"/>
<feColorMatrix in="SourceAlpha" type="matrix" values="0 0 0 0 0 0 0 0 0 0 0 0 0 0 0 0 0 0 127 0" result="hardAlpha"/>
<feOffset dy="2"/>
<feGaussianBlur stdDeviation="2"/>
<feComposite in2="hardAlpha" operator="out"/>
<feColorMatrix type="matrix" values="0 0 0 0 0 0 0 0 0 0 0 0 0 0 0 0 0 0 0.14 0"/>
<feBlend mode="normal" in2="effect1_dropShadow_1304_297" result="effect2_dropShadow_1304_297"/>
<feBlend mode="normal" in="SourceGraphic" in2="effect2_dropShadow_1304_297" result="shape"/>
</filter>
<clipPath id="clip0_1304_297">
<rect width="64" height="64" fill="white" transform="translate(100.922 12.5)"/>
</clipPath>
</defs>
</svg>
