<svg width="166" height="166" viewBox="0 0 166 166" fill="none" xmlns="http://www.w3.org/2000/svg">
<g filter="url(#filter0_d_1310_11)">
<circle cx="83" cy="79" r="75" fill="url(#paint0_linear_1310_11)" shape-rendering="crispEdges"/>
</g>
<path d="M83 52.3333C75.6362 52.3333 69.6666 58.3029 69.6666 65.6666C69.6666 73.0304 75.6362 79 83 79C90.3638 79 96.3333 73.0304 96.3333 65.6666C96.3333 58.3029 90.3638 52.3333 83 52.3333ZM67.3331 84.3333C64.2043 84.3333 61.6667 86.8683 61.6666 89.9985L61.6666 91C61.6666 96.0074 64.2555 99.7559 68.2268 102.174C72.1321 104.551 77.3814 105.667 83 105.667C87.9543 105.667 92.6215 104.799 96.3333 102.964V92.9787C93.4685 91.061 91.4719 87.9394 91.0732 84.3333H67.3331ZM93.7611 84.3333C93.6989 83.8978 93.6666 83.4527 93.6666 83C93.6666 77.8453 97.8453 73.6666 103 73.6666C108.155 73.6666 112.333 77.8453 112.333 83C112.333 87.228 109.522 90.7994 105.667 91.9468V92.3333L108.724 95.3905C109.245 95.9112 109.245 96.7554 108.724 97.2761L105.667 100.333L108.763 103.43C109.268 103.935 109.285 104.748 108.802 105.274L103.941 110.566C103.428 111.124 102.553 111.143 102.016 110.606L99.3905 107.981C99.1404 107.73 99 107.391 99 107.038V91.4351C96.2301 90.1193 94.2111 87.4794 93.7611 84.3333ZM105.667 81.6666C105.667 80.1939 104.473 79 103 79C101.527 79 100.333 80.1939 100.333 81.6666C100.333 83.1394 101.527 84.3333 103 84.3333C104.473 84.3333 105.667 83.1394 105.667 81.6666Z" fill="url(#paint1_linear_1310_11)"/>
<defs>
<filter id="filter0_d_1310_11" x="0" y="0" width="166" height="166" filterUnits="userSpaceOnUse" color-interpolation-filters="sRGB">
<feFlood flood-opacity="0" result="BackgroundImageFix"/>
<feColorMatrix in="SourceAlpha" type="matrix" values="0 0 0 0 0 0 0 0 0 0 0 0 0 0 0 0 0 0 127 0" result="hardAlpha"/>
<feOffset dy="4"/>
<feGaussianBlur stdDeviation="4"/>
<feComposite in2="hardAlpha" operator="out"/>
<feColorMatrix type="matrix" values="0 0 0 0 0 0 0 0 0 0 0 0 0 0 0 0 0 0 0.12 0"/>
<feBlend mode="normal" in2="BackgroundImageFix" result="effect1_dropShadow_1310_11"/>
<feBlend mode="normal" in="SourceGraphic" in2="effect1_dropShadow_1310_11" result="shape"/>
</filter>
<linearGradient id="paint0_linear_1310_11" x1="83" y1="4" x2="83" y2="154" gradientUnits="userSpaceOnUse">
<stop stop-color="#0078D4" stop-opacity="0.02"/>
<stop offset="1" stop-color="#0078D4" stop-opacity="0.1"/>
</linearGradient>
<linearGradient id="paint1_linear_1310_11" x1="87" y1="52.3333" x2="87" y2="110.997" gradientUnits="userSpaceOnUse">
<stop stop-color="#118EFA"/>
<stop offset="0.33" stop-color="#1081E3"/>
<stop offset="1.0001" stop-color="#0F6CBD"/>
</linearGradient>
</defs>
</svg>
