<svg width="166" height="166" viewBox="0 0 166 166" fill="none" xmlns="http://www.w3.org/2000/svg">
<g filter="url(#filter0_d_1331_264)">
<circle cx="83" cy="79" r="75" fill="url(#paint0_linear_1331_264)" shape-rendering="crispEdges"/>
</g>
<path d="M105 88.9992C105 91.02 104.74 92.9679 104.219 94.8429C103.698 96.7178 102.958 98.4678 102 100.093C101.042 101.718 99.896 103.207 98.5627 104.561C97.2294 105.916 95.7502 107.061 94.1253 107.999C92.5003 108.936 90.74 109.676 88.8442 110.218C86.9484 110.759 85.0005 111.02 83.0006 110.999C80.9798 110.999 79.0319 110.738 77.157 110.218C75.282 109.697 73.5321 108.957 71.9071 107.999C70.2822 107.041 68.7926 105.895 67.4385 104.561C66.0844 103.228 64.9386 101.749 64.0011 100.124C63.0636 98.4991 62.324 96.7387 61.7824 94.8429C61.2407 92.9471 60.9803 90.9992 61.0012 88.9992V74.9995L73.0008 86.9993H65.0011V88.9992C65.0011 91.4784 65.4698 93.8117 66.4073 95.9991C67.3447 98.1866 68.6364 100.093 70.2822 101.718C71.928 103.343 73.8342 104.624 76.0008 105.561C78.1674 106.499 80.5006 106.978 83.0006 106.999C85.4797 106.999 87.813 106.53 90.0004 105.593C92.1878 104.655 94.094 103.364 95.719 101.718C97.344 100.072 98.6252 98.1657 99.5626 95.9991C100.5 93.8325 100.979 91.4992 101 88.9992C101 86.3951 100.469 83.916 99.4064 81.5619C98.3439 79.2077 96.8231 77.1661 94.844 75.437L90.3441 71.4996C88.8442 70.1871 87.3338 68.8746 85.813 67.5621C84.5005 66.4371 83.4485 65.1038 82.6568 63.5622C81.8652 62.0206 81.3444 60.3956 81.0944 58.6873C79.8652 58.2706 78.8757 57.5415 78.1257 56.4998C77.3757 55.4582 77.0007 54.2915 77.0007 52.9999C77.0007 52.1666 77.157 51.3853 77.4695 50.6562C77.782 49.927 78.209 49.2916 78.7507 48.75C79.2923 48.2083 79.9277 47.7812 80.6569 47.4687C81.386 47.1562 82.1673 47 83.0006 47C83.8339 47 84.6151 47.1562 85.3443 47.4687C86.0734 47.7812 86.7088 48.2083 87.2505 48.75C87.7921 49.2916 88.2192 49.927 88.5317 50.6562C88.8442 51.3853 89.0004 52.1666 89.0004 52.9999C89.0004 54.2499 88.6463 55.3853 87.9379 56.4061C87.2296 57.4269 86.2922 58.1665 85.1255 58.6248C85.313 59.7914 85.688 60.8747 86.2505 61.8747C86.813 62.8747 87.5421 63.7601 88.4379 64.5309L97.4689 72.4058C98.6564 73.4474 99.7189 74.5933 100.656 75.8432C101.594 77.0932 102.385 78.4369 103.031 79.8744C103.677 81.3119 104.167 82.791 104.5 84.3118C104.833 85.8326 105 87.3951 105 88.9992ZM83.0006 50.9999C82.4589 50.9999 81.9902 51.1978 81.5944 51.5937C81.1985 51.9895 81.0006 52.4582 81.0006 52.9999C81.0006 53.5415 81.1985 54.0103 81.5944 54.4061C81.9902 54.8019 82.4589 54.9999 83.0006 54.9999C83.5422 54.9999 84.011 54.8019 84.4068 54.4061C84.8026 54.0103 85.0005 53.5415 85.0005 52.9999C85.0005 52.4582 84.8026 51.9895 84.4068 51.5937C84.011 51.1978 83.5422 50.9999 83.0006 50.9999Z" fill="#0078D4"/>
<defs>
<filter id="filter0_d_1331_264" x="0" y="0" width="166" height="166" filterUnits="userSpaceOnUse" color-interpolation-filters="sRGB">
<feFlood flood-opacity="0" result="BackgroundImageFix"/>
<feColorMatrix in="SourceAlpha" type="matrix" values="0 0 0 0 0 0 0 0 0 0 0 0 0 0 0 0 0 0 127 0" result="hardAlpha"/>
<feOffset dy="4"/>
<feGaussianBlur stdDeviation="4"/>
<feComposite in2="hardAlpha" operator="out"/>
<feColorMatrix type="matrix" values="0 0 0 0 0 0 0 0 0 0 0 0 0 0 0 0 0 0 0.12 0"/>
<feBlend mode="normal" in2="BackgroundImageFix" result="effect1_dropShadow_1331_264"/>
<feBlend mode="normal" in="SourceGraphic" in2="effect1_dropShadow_1331_264" result="shape"/>
</filter>
<linearGradient id="paint0_linear_1331_264" x1="83" y1="4" x2="83" y2="154" gradientUnits="userSpaceOnUse">
<stop stop-color="#0078D4" stop-opacity="0.02"/>
<stop offset="1" stop-color="#0078D4" stop-opacity="0.1"/>
</linearGradient>
</defs>
</svg>
