<svg width="88" height="88" viewBox="0 0 88 88" fill="none" xmlns="http://www.w3.org/2000/svg">
<rect x="16" y="8" width="56" height="56" rx="18" fill="url(#paint0_linear_1353_30)"/>
<g filter="url(#filter0_dd_1353_30)">
<path d="M54 9C63.3888 9 71 16.6112 71 26V46C71 55.3888 63.3888 63 54 63H34C24.6112 63 17 55.3888 17 46V26C17 16.6112 24.6112 9 34 9H54Z" stroke="url(#paint1_linear_1353_30)" stroke-width="2" shape-rendering="crispEdges"/>
<path d="M55 40.9996C55 42.01 54.8698 42.984 54.6094 43.9214C54.349 44.8589 53.9792 45.7339 53.5 46.5464C53.0209 47.3589 52.448 48.1037 51.7813 48.7807C51.1147 49.4578 50.3751 50.0307 49.5626 50.4994C48.7502 50.9682 47.87 51.338 46.9221 51.6088C45.9742 51.8796 45.0003 52.0098 44.0003 51.9994C42.9899 51.9994 42.016 51.8692 41.0785 51.6088C40.141 51.3484 39.266 50.9786 38.4536 50.4994C37.6411 50.0203 36.8963 49.4474 36.2192 48.7807C35.5422 48.1141 34.9693 47.3745 34.5005 46.562C34.0318 45.7495 33.662 44.8693 33.3912 43.9214C33.1204 42.9735 32.9902 41.9996 33.0006 40.9996V33.9997L39.0004 39.9996H35.0005V40.9996C35.0005 42.2392 35.2349 43.4058 35.7036 44.4996C36.1724 45.5933 36.8182 46.5464 37.6411 47.3589C38.464 48.1714 39.4171 48.812 40.5004 49.2807C41.5837 49.7495 42.7503 49.989 44.0003 49.9995C45.2398 49.9995 46.4065 49.7651 47.5002 49.2963C48.5939 48.8276 49.547 48.1818 50.3595 47.3589C51.172 46.536 51.8126 45.5829 52.2813 44.4996C52.7501 43.4162 52.9896 42.2496 53.0001 40.9996C53.0001 39.6976 52.7344 38.458 52.2032 37.2809C51.672 36.1039 50.9116 35.0831 49.922 34.2185L47.6721 32.2498C46.9221 31.5935 46.1669 30.9373 45.4065 30.2811C44.7503 29.7186 44.2242 29.0519 43.8284 28.2811C43.4326 27.5103 43.1722 26.6978 43.0472 25.8436C42.4326 25.6353 41.9378 25.2707 41.5629 24.7499C41.1879 24.2291 41.0004 23.6458 41.0004 22.9999C41.0004 22.5833 41.0785 22.1927 41.2347 21.8281C41.391 21.4635 41.6045 21.1458 41.8753 20.875C42.1462 20.6042 42.4639 20.3906 42.8284 20.2344C43.193 20.0781 43.5836 20 44.0003 20C44.4169 20 44.8076 20.0781 45.1721 20.2344C45.5367 20.3906 45.8544 20.6042 46.1252 20.875C46.3961 21.1458 46.6096 21.4635 46.7658 21.8281C46.9221 22.1927 47.0002 22.5833 47.0002 22.9999C47.0002 23.6249 46.8231 24.1926 46.469 24.703C46.1148 25.2134 45.6461 25.5832 45.0628 25.8124C45.1565 26.3957 45.344 26.9374 45.6252 27.4374C45.9065 27.9374 46.2711 28.3801 46.719 28.7655L51.2345 32.7029C51.8282 33.2237 52.3594 33.7966 52.8282 34.4216C53.2969 35.0466 53.6927 35.7185 54.0157 36.4372C54.3386 37.1559 54.5833 37.8955 54.75 38.6559C54.9167 39.4163 55 40.1976 55 40.9996ZM44.0003 22C43.7295 22 43.4951 22.0989 43.2972 22.2968C43.0993 22.4947 43.0003 22.7291 43.0003 22.9999C43.0003 23.2708 43.0993 23.5051 43.2972 23.7031C43.4951 23.901 43.7295 23.9999 44.0003 23.9999C44.2711 23.9999 44.5055 23.901 44.7034 23.7031C44.9013 23.5051 45.0003 23.2708 45.0003 22.9999C45.0003 22.7291 44.9013 22.4947 44.7034 22.2968C44.5055 22.0989 44.2711 22 44.0003 22Z" fill="#0078D4"/>
</g>
<defs>
<filter id="filter0_dd_1353_30" x="0" y="0" width="88" height="88" filterUnits="userSpaceOnUse" color-interpolation-filters="sRGB">
<feFlood flood-opacity="0" result="BackgroundImageFix"/>
<feColorMatrix in="SourceAlpha" type="matrix" values="0 0 0 0 0 0 0 0 0 0 0 0 0 0 0 0 0 0 127 0" result="hardAlpha"/>
<feOffset/>
<feGaussianBlur stdDeviation="1"/>
<feComposite in2="hardAlpha" operator="out"/>
<feColorMatrix type="matrix" values="0 0 0 0 0 0 0 0 0 0 0 0 0 0 0 0 0 0 0.12 0"/>
<feBlend mode="normal" in2="BackgroundImageFix" result="effect1_dropShadow_1353_30"/>
<feColorMatrix in="SourceAlpha" type="matrix" values="0 0 0 0 0 0 0 0 0 0 0 0 0 0 0 0 0 0 127 0" result="hardAlpha"/>
<feOffset dy="8"/>
<feGaussianBlur stdDeviation="8"/>
<feComposite in2="hardAlpha" operator="out"/>
<feColorMatrix type="matrix" values="0 0 0 0 0 0 0 0 0 0 0 0 0 0 0 0 0 0 0.14 0"/>
<feBlend mode="normal" in2="effect1_dropShadow_1353_30" result="effect2_dropShadow_1353_30"/>
<feBlend mode="normal" in="SourceGraphic" in2="effect2_dropShadow_1353_30" result="shape"/>
</filter>
<linearGradient id="paint0_linear_1353_30" x1="65" y1="15" x2="26" y2="59" gradientUnits="userSpaceOnUse">
<stop stop-color="#A0E4FC" stop-opacity="0.2"/>
<stop offset="1" stop-color="#DBA9F6" stop-opacity="0.2"/>
</linearGradient>
<linearGradient id="paint1_linear_1353_30" x1="63.5" y1="16.5" x2="27.2857" y2="57.3571" gradientUnits="userSpaceOnUse">
<stop stop-color="#A0E4FC"/>
<stop offset="1" stop-color="#DBA9F6"/>
</linearGradient>
</defs>
</svg>
