<svg width="96" height="96" viewBox="0 0 96 96" fill="none" xmlns="http://www.w3.org/2000/svg">
<g filter="url(#filter0_d_1331_264)">
<circle cx="48" cy="44" r="40" fill="url(#paint0_linear_1331_264)" shape-rendering="crispEdges"/>
</g>
<path d="M59.7333 49.3329C59.7333 50.4107 59.5944 51.4496 59.3166 52.4496C59.0388 53.4495 58.6444 54.3829 58.1333 55.2495C57.6222 56.1162 57.0111 56.9106 56.3 57.6328C55.5889 58.355 54.8001 58.9661 53.9334 59.4661C53.0668 59.9661 52.1279 60.3605 51.1168 60.6494C50.1057 60.9383 49.0669 61.0772 48.0002 61.0661C46.9225 61.0661 45.8836 60.9272 44.8837 60.6494C43.8837 60.3716 42.9504 59.9772 42.0837 59.4661C41.2171 58.955 40.4227 58.3439 39.7005 57.6328C38.9783 56.9217 38.3672 56.1328 37.8672 55.2662C37.3672 54.3995 36.9728 53.4606 36.6839 52.4496C36.395 51.4385 36.2561 50.3996 36.2672 49.3329V41.8664L42.6671 48.2663H38.4005V49.3329C38.4005 50.6551 38.6505 51.8996 39.1505 53.0662C39.6505 54.2329 40.3393 55.2495 41.2171 56.1162C42.0948 56.9828 43.1115 57.6661 44.267 58.1661C45.4225 58.6661 46.6669 58.9217 48.0002 58.9328C49.3224 58.9328 50.5668 58.6828 51.7335 58.1828C52.9001 57.6828 53.9168 56.9939 54.7834 56.1162C55.65 55.2384 56.3334 54.2217 56.8333 53.0662C57.3333 51.9107 57.5889 50.6663 57.6 49.3329C57.6 47.9441 57.3167 46.6219 56.75 45.3664C56.1834 44.1108 55.3723 43.0219 54.3167 42.0997L51.9168 39.9998C51.1168 39.2998 50.3113 38.5998 49.5002 37.8998C48.8002 37.2998 48.2391 36.5887 47.8169 35.7665C47.3947 34.9443 47.1169 34.0777 46.9836 33.1666C46.3281 32.9444 45.8003 32.5555 45.4003 31.9999C45.0003 31.4444 44.8003 30.8222 44.8003 30.1333C44.8003 29.6889 44.8837 29.2722 45.0503 28.8833C45.217 28.4944 45.4448 28.1555 45.7336 27.8667C46.0225 27.5778 46.3614 27.35 46.7503 27.1833C47.1392 27.0167 47.5558 26.9333 48.0002 26.9333C48.4447 26.9333 48.8613 27.0167 49.2502 27.1833C49.6391 27.35 49.978 27.5778 50.2669 27.8667C50.5557 28.1555 50.7835 28.4944 50.9502 28.8833C51.1168 29.2722 51.2002 29.6889 51.2002 30.1333C51.2002 30.7999 51.0113 31.4055 50.6335 31.9499C50.2557 32.4944 49.7558 32.8888 49.1335 33.1332C49.2335 33.7554 49.4335 34.3332 49.7335 34.8665C50.0335 35.3999 50.4224 35.8721 50.9002 36.2832L55.7167 40.4831C56.35 41.0387 56.9167 41.6498 57.4167 42.3164C57.9166 42.9831 58.3389 43.6997 58.6833 44.4664C59.0277 45.233 59.2888 46.0219 59.4666 46.833C59.6444 47.6441 59.7333 48.4774 59.7333 49.3329ZM48.0002 29.0666C47.7114 29.0666 47.4614 29.1722 47.2503 29.3833C47.0392 29.5944 46.9336 29.8444 46.9336 30.1333C46.9336 30.4222 47.0392 30.6722 47.2503 30.8833C47.4614 31.0944 47.7114 31.1999 48.0002 31.1999C48.2891 31.1999 48.5391 31.0944 48.7502 30.8833C48.9613 30.6722 49.0669 30.4222 49.0669 30.1333C49.0669 29.8444 48.9613 29.5944 48.7502 29.3833C48.5391 29.1722 48.2891 29.0666 48.0002 29.0666Z" fill="#0078D4"/>
<defs>
<filter id="filter0_d_1331_264" x="0" y="0" width="96" height="96" filterUnits="userSpaceOnUse" color-interpolation-filters="sRGB">
<feFlood flood-opacity="0" result="BackgroundImageFix"/>
<feColorMatrix in="SourceAlpha" type="matrix" values="0 0 0 0 0 0 0 0 0 0 0 0 0 0 0 0 0 0 127 0" result="hardAlpha"/>
<feOffset dy="4"/>
<feGaussianBlur stdDeviation="4"/>
<feComposite in2="hardAlpha" operator="out"/>
<feColorMatrix type="matrix" values="0 0 0 0 0 0 0 0 0 0 0 0 0 0 0 0 0 0 0.12 0"/>
<feBlend mode="normal" in2="BackgroundImageFix" result="effect1_dropShadow_1331_264"/>
<feBlend mode="normal" in="SourceGraphic" in2="effect1_dropShadow_1331_264" result="shape"/>
</filter>
<linearGradient id="paint0_linear_1331_264" x1="48" y1="4" x2="48" y2="84" gradientUnits="userSpaceOnUse">
<stop stop-color="#0078D4" stop-opacity="0.02"/>
<stop offset="1" stop-color="#0078D4" stop-opacity="0.1"/>
</linearGradient>
</defs>
</svg>
