<svg width="266" height="93" viewBox="0 0 266 93" fill="none" xmlns="http://www.w3.org/2000/svg">
<g filter="url(#filter0_dd_1304_327)">
<rect x="4" y="2" width="257.844" height="85" rx="12" fill="#F5F5F5" shape-rendering="crispEdges"/>
<path d="M129.923 62.4993V59.4993H138.923V53.4993H129.923V50.4993H150.923C151.345 50.4993 151.735 50.4212 152.095 50.265C152.454 50.1087 152.766 49.8978 153.032 49.6321C153.298 49.3665 153.516 49.0462 153.688 48.6712C153.86 48.2962 153.938 47.9056 153.923 47.4993V26.4993C153.923 26.0931 153.845 25.7103 153.688 25.3509C153.532 24.9915 153.321 24.6712 153.055 24.39C152.79 24.1087 152.47 23.89 152.095 23.7337C151.72 23.5775 151.329 23.4993 150.923 23.4993H120.923C120.501 23.4993 120.11 23.5775 119.751 23.7337C119.391 23.89 119.079 24.1009 118.813 24.3665C118.548 24.6321 118.329 24.9525 118.157 25.3275C117.985 25.7025 117.907 26.0931 117.923 26.4993V35.4993H114.923V26.3821C114.923 25.6009 115.079 24.8587 115.391 24.1556C115.704 23.4525 116.134 22.8275 116.68 22.2806C117.227 21.7337 117.852 21.304 118.555 20.9915C119.259 20.679 120.009 20.515 120.805 20.4993H151.04C151.821 20.4993 152.563 20.6556 153.266 20.9681C153.97 21.2806 154.595 21.7103 155.141 22.2571C155.688 22.804 156.118 23.429 156.43 24.1321C156.743 24.8353 156.907 25.5853 156.923 26.3821V47.6165C156.923 48.429 156.759 49.1868 156.43 49.89C156.102 50.5931 155.665 51.2181 155.118 51.765C154.571 52.3118 153.938 52.7337 153.22 53.0306C152.501 53.3275 151.735 53.4837 150.923 53.4993H141.923V59.4993H146.423C146.829 59.4993 147.18 59.6478 147.477 59.9446C147.774 60.2415 147.923 60.5931 147.923 60.9993C147.923 61.4056 147.774 61.7571 147.477 62.054C147.18 62.3509 146.829 62.4993 146.423 62.4993H129.923ZM113.423 68.4993C112.813 68.4993 112.235 68.3821 111.688 68.1478C111.141 67.9134 110.665 67.5931 110.259 67.1868C109.852 66.7806 109.524 66.2962 109.274 65.7337C109.024 65.1712 108.907 64.5931 108.923 63.9993V42.9993C108.923 42.39 109.04 41.8118 109.274 41.265C109.509 40.7181 109.829 40.2415 110.235 39.8353C110.641 39.429 111.126 39.1009 111.688 38.8509C112.251 38.6009 112.829 38.4837 113.423 38.4993H122.423C123.032 38.4993 123.61 38.6165 124.157 38.8509C124.704 39.0853 125.18 39.4056 125.587 39.8118C125.993 40.2181 126.321 40.7025 126.571 41.265C126.821 41.8275 126.938 42.4056 126.923 42.9993V63.9993C126.923 64.6087 126.805 65.1868 126.571 65.7337C126.337 66.2806 126.016 66.7571 125.61 67.1634C125.204 67.5696 124.72 67.8978 124.157 68.1478C123.595 68.3978 123.016 68.515 122.423 68.4993H113.423ZM122.423 65.4993C122.829 65.4993 123.18 65.3509 123.477 65.054C123.774 64.7571 123.923 64.4056 123.923 63.9993V42.9993C123.923 42.5931 123.774 42.2415 123.477 41.9446C123.18 41.6478 122.829 41.4993 122.423 41.4993H113.423C113.016 41.4993 112.665 41.6478 112.368 41.9446C112.071 42.2415 111.923 42.5931 111.923 42.9993V63.9993C111.923 64.4056 112.071 64.7571 112.368 65.054C112.665 65.3509 113.016 65.4993 113.423 65.4993H122.423ZM116.423 62.4993C116.016 62.4993 115.665 62.3509 115.368 62.054C115.071 61.7571 114.923 61.4056 114.923 60.9993C114.923 60.5931 115.071 60.2415 115.368 59.9446C115.665 59.6478 116.016 59.4993 116.423 59.4993H119.423C119.829 59.4993 120.18 59.6478 120.477 59.9446C120.774 60.2415 120.923 60.5931 120.923 60.9993C120.923 61.4056 120.774 61.7571 120.477 62.054C120.18 62.3509 119.829 62.4993 119.423 62.4993H116.423Z" fill="#0078D4"/>
</g>
<defs>
<filter id="filter0_dd_1304_327" x="0" y="0" width="265.844" height="93" filterUnits="userSpaceOnUse" color-interpolation-filters="sRGB">
<feFlood flood-opacity="0" result="BackgroundImageFix"/>
<feColorMatrix in="SourceAlpha" type="matrix" values="0 0 0 0 0 0 0 0 0 0 0 0 0 0 0 0 0 0 127 0" result="hardAlpha"/>
<feOffset/>
<feGaussianBlur stdDeviation="1"/>
<feComposite in2="hardAlpha" operator="out"/>
<feColorMatrix type="matrix" values="0 0 0 0 0 0 0 0 0 0 0 0 0 0 0 0 0 0 0.12 0"/>
<feBlend mode="normal" in2="BackgroundImageFix" result="effect1_dropShadow_1304_327"/>
<feColorMatrix in="SourceAlpha" type="matrix" values="0 0 0 0 0 0 0 0 0 0 0 0 0 0 0 0 0 0 127 0" result="hardAlpha"/>
<feOffset dy="2"/>
<feGaussianBlur stdDeviation="2"/>
<feComposite in2="hardAlpha" operator="out"/>
<feColorMatrix type="matrix" values="0 0 0 0 0 0 0 0 0 0 0 0 0 0 0 0 0 0 0.14 0"/>
<feBlend mode="normal" in2="effect1_dropShadow_1304_327" result="effect2_dropShadow_1304_327"/>
<feBlend mode="normal" in="SourceGraphic" in2="effect2_dropShadow_1304_327" result="shape"/>
</filter>
</defs>
</svg>
