<svg width="48" height="48" viewBox="0 0 48 48" fill="none" xmlns="http://www.w3.org/2000/svg">
<path d="M42.88 2.74658H1.6C0.716344 2.74658 0 3.46293 0 4.34658V32.7999C0 33.6836 0.716344 34.3999 1.6 34.3999H42.88C43.7637 34.3999 44.48 33.6836 44.48 32.7999V4.34658C44.48 3.46293 43.7637 2.74658 42.88 2.74658Z" fill="#0078D4"/>
<path opacity="0.9" d="M41.0931 4.95996H3.38643C2.9446 4.95996 2.58643 5.31813 2.58643 5.75996V31.0933C2.58643 31.5351 2.9446 31.8933 3.38643 31.8933H41.0931C41.5349 31.8933 41.8931 31.5351 41.8931 31.0933V5.75996C41.8931 5.31813 41.5349 4.95996 41.0931 4.95996Z" fill="url(#paint0_linear_750_9971)"/>
<path d="M47.2001 10.9866H28.2668C27.825 10.9866 27.4668 11.3447 27.4668 11.7866V44.4532C27.4668 44.8951 27.825 45.2532 28.2668 45.2532H47.2001C47.642 45.2532 48.0001 44.8951 48.0001 44.4532V11.7866C48.0001 11.3447 47.642 10.9866 47.2001 10.9866Z" fill="url(#paint1_linear_750_9971)"/>
<path d="M39.8134 12.1333H35.6801C35.518 12.1333 35.3867 12.2646 35.3867 12.4266V12.48C35.3867 12.642 35.518 12.7733 35.6801 12.7733H39.8134C39.9754 12.7733 40.1067 12.642 40.1067 12.48V12.4266C40.1067 12.2646 39.9754 12.1333 39.8134 12.1333Z" fill="#F2F2F2"/>
<path d="M24.3734 3.73315H20.2401C20.0781 3.73315 19.9468 3.86448 19.9468 4.02649V4.07982C19.9468 4.24182 20.0781 4.37315 20.2401 4.37315H24.3734C24.5354 4.37315 24.6668 4.24182 24.6668 4.07982V4.02649C24.6668 3.86448 24.5354 3.73315 24.3734 3.73315Z" fill="#F2F2F2"/>
<path d="M38.3464 42.5598H37.1198C36.8252 42.5598 36.5864 42.7986 36.5864 43.0931V43.9731C36.5864 44.2677 36.8252 44.5065 37.1198 44.5065H38.3464C38.641 44.5065 38.8798 44.2677 38.8798 43.9731V43.0931C38.8798 42.7986 38.641 42.5598 38.3464 42.5598Z" fill="#F2F2F2"/>
<defs>
<linearGradient id="paint0_linear_750_9971" x1="22.2398" y1="31.8933" x2="22.2398" y2="4.95996" gradientUnits="userSpaceOnUse">
<stop stop-color="#D2EBFF"/>
<stop offset="1" stop-color="#F0FFFD"/>
</linearGradient>
<linearGradient id="paint1_linear_750_9971" x1="37.7335" y1="54.4266" x2="37.7335" y2="6.23991" gradientUnits="userSpaceOnUse">
<stop stop-color="#0078D4"/>
<stop offset="0.17" stop-color="#1C84DC"/>
<stop offset="0.38" stop-color="#3990E4"/>
<stop offset="0.59" stop-color="#4D99EA"/>
<stop offset="0.8" stop-color="#5A9EEE"/>
<stop offset="1" stop-color="#5EA0EF"/>
</linearGradient>
</defs>
</svg>
