<svg width="274" height="101" viewBox="0 0 274 101" fill="none" xmlns="http://www.w3.org/2000/svg">
<g filter="url(#filter0_d_1313_184)">
<g filter="url(#filter1_dd_1313_184)">
<rect width="257.844" height="85" transform="translate(8 4)" fill="url(#paint0_linear_1313_184)"/>
<g clip-path="url(#clip0_1313_184)">
<path d="M124.939 30.6742C128.031 30.6749 130.539 33.1554 130.539 36.2149V66.2926C130.539 69.3524 128.031 71.8326 124.939 71.8333H110.522C107.429 71.8333 104.922 69.3526 104.922 66.2926V36.2149C104.922 33.1549 107.429 30.6742 110.522 30.6742H124.939ZM116.929 60.7365C115.604 60.737 114.529 61.8002 114.529 63.111C114.529 64.4224 115.604 65.4853 116.929 65.4856H118.529C119.854 65.4856 120.929 64.4228 120.929 63.111C120.928 61.8002 119.854 60.7365 118.529 60.7365H116.929ZM166.522 57.5768C167.847 57.5768 168.922 58.6398 168.922 59.9513C168.922 61.1528 168.021 62.1464 166.85 62.3044L166.522 62.3258L133.723 62.3226V57.5736L166.522 57.5768ZM156.924 21.1666C160.017 21.1666 162.524 23.6478 162.525 26.7073V50.4561C162.524 53.5156 160.017 55.9968 156.924 55.9968L133.723 55.9937V33.831C133.723 30.493 131.113 27.7593 127.801 27.5174L127.323 27.4988L111.322 27.4957V26.7073C111.323 23.6478 113.83 21.1666 116.923 21.1666H156.924Z" fill="#0078D4"/>
</g>
</g>
</g>
<defs>
<filter id="filter0_d_1313_184" x="0" y="0" width="273.844" height="101" filterUnits="userSpaceOnUse" color-interpolation-filters="sRGB">
<feFlood flood-opacity="0" result="BackgroundImageFix"/>
<feColorMatrix in="SourceAlpha" type="matrix" values="0 0 0 0 0 0 0 0 0 0 0 0 0 0 0 0 0 0 127 0" result="hardAlpha"/>
<feOffset dy="4"/>
<feGaussianBlur stdDeviation="4"/>
<feComposite in2="hardAlpha" operator="out"/>
<feColorMatrix type="matrix" values="0 0 0 0 0 0 0 0 0 0 0 0 0 0 0 0 0 0 0.12 0"/>
<feBlend mode="normal" in2="BackgroundImageFix" result="effect1_dropShadow_1313_184"/>
<feBlend mode="normal" in="SourceGraphic" in2="effect1_dropShadow_1313_184" result="shape"/>
</filter>
<filter id="filter1_dd_1313_184" x="4" y="2" width="265.844" height="93" filterUnits="userSpaceOnUse" color-interpolation-filters="sRGB">
<feFlood flood-opacity="0" result="BackgroundImageFix"/>
<feColorMatrix in="SourceAlpha" type="matrix" values="0 0 0 0 0 0 0 0 0 0 0 0 0 0 0 0 0 0 127 0" result="hardAlpha"/>
<feOffset/>
<feGaussianBlur stdDeviation="1"/>
<feComposite in2="hardAlpha" operator="out"/>
<feColorMatrix type="matrix" values="0 0 0 0 0 0 0 0 0 0 0 0 0 0 0 0 0 0 0.12 0"/>
<feBlend mode="normal" in2="BackgroundImageFix" result="effect1_dropShadow_1313_184"/>
<feColorMatrix in="SourceAlpha" type="matrix" values="0 0 0 0 0 0 0 0 0 0 0 0 0 0 0 0 0 0 127 0" result="hardAlpha"/>
<feOffset dy="2"/>
<feGaussianBlur stdDeviation="2"/>
<feComposite in2="hardAlpha" operator="out"/>
<feColorMatrix type="matrix" values="0 0 0 0 0 0 0 0 0 0 0 0 0 0 0 0 0 0 0.14 0"/>
<feBlend mode="normal" in2="effect1_dropShadow_1313_184" result="effect2_dropShadow_1313_184"/>
<feBlend mode="normal" in="SourceGraphic" in2="effect2_dropShadow_1313_184" result="shape"/>
</filter>
<linearGradient id="paint0_linear_1313_184" x1="128.922" y1="0" x2="128.922" y2="85" gradientUnits="userSpaceOnUse">
<stop stop-color="#0078D4" stop-opacity="0.02"/>
<stop offset="1" stop-color="#0078D4" stop-opacity="0.1"/>
</linearGradient>
<clipPath id="clip0_1313_184">
<rect width="64" height="64" fill="white" transform="translate(104.922 14.5)"/>
</clipPath>
</defs>
</svg>
