<svg width="166" height="166" viewBox="0 0 166 166" fill="none" xmlns="http://www.w3.org/2000/svg">
<g filter="url(#filter0_d_1311_166)">
<circle cx="83" cy="79" r="75" fill="url(#paint0_linear_1311_166)" shape-rendering="crispEdges"/>
</g>
<path d="M71.0167 63.1742C74.1088 63.1749 76.6168 65.6554 76.6169 68.7149V98.7926C76.6169 101.852 74.1089 104.333 71.0167 104.333H56.6003C53.5073 104.333 51 101.853 51 98.7926V68.7149C51.0001 65.6549 53.5074 63.1742 56.6003 63.1742H71.0167ZM63.0068 93.2365C61.682 93.237 60.6072 94.3002 60.6067 95.611C60.6067 96.9224 61.6817 97.9853 63.0068 97.9856H64.6069C65.9325 97.9856 67.0071 96.9228 67.0071 95.611C67.0065 94.3002 65.9323 93.2365 64.6069 93.2365H63.0068ZM112.6 90.0768C113.925 90.0768 115 91.1398 115 92.4513C115 93.6528 114.099 94.6464 112.928 94.8044L112.6 94.8258L79.8015 94.8226V90.0736L112.6 90.0768ZM103.003 53.6666C106.095 53.6666 108.602 56.1478 108.603 59.2073V82.9561C108.602 86.0156 106.095 88.4968 103.003 88.4968L79.8015 88.4937V66.331C79.8015 62.993 77.1907 60.2593 73.8792 60.0174L73.4011 59.9988L57.4003 59.9957V59.2073C57.4009 56.1478 59.908 53.6666 63.0006 53.6666H103.003Z" fill="#0078D4"/>
<defs>
<filter id="filter0_d_1311_166" x="0" y="0" width="166" height="166" filterUnits="userSpaceOnUse" color-interpolation-filters="sRGB">
<feFlood flood-opacity="0" result="BackgroundImageFix"/>
<feColorMatrix in="SourceAlpha" type="matrix" values="0 0 0 0 0 0 0 0 0 0 0 0 0 0 0 0 0 0 127 0" result="hardAlpha"/>
<feOffset dy="4"/>
<feGaussianBlur stdDeviation="4"/>
<feComposite in2="hardAlpha" operator="out"/>
<feColorMatrix type="matrix" values="0 0 0 0 0 0 0 0 0 0 0 0 0 0 0 0 0 0 0.12 0"/>
<feBlend mode="normal" in2="BackgroundImageFix" result="effect1_dropShadow_1311_166"/>
<feBlend mode="normal" in="SourceGraphic" in2="effect1_dropShadow_1311_166" result="shape"/>
</filter>
<linearGradient id="paint0_linear_1311_166" x1="83" y1="4" x2="83" y2="154" gradientUnits="userSpaceOnUse">
<stop stop-color="#0078D4" stop-opacity="0.02"/>
<stop offset="1" stop-color="#0078D4" stop-opacity="0.1"/>
</linearGradient>
</defs>
</svg>
