<svg width="266" height="93" viewBox="0 0 266 93" fill="none" xmlns="http://www.w3.org/2000/svg">
<g filter="url(#filter0_dd_1304_327)">
<rect x="4" y="2" width="257.844" height="85" rx="12" fill="#F5F5F5" shape-rendering="crispEdges"/>
<path d="M120.939 28.5701C124.031 28.5709 126.539 31.0676 126.539 34.1472V64.4229C126.539 67.5027 124.031 69.9994 120.939 70H106.522C103.429 70 100.922 67.503 100.922 64.4229V34.1472C100.922 31.0672 103.429 28.5701 106.522 28.5701H120.939ZM112.929 58.8302C111.604 58.8308 110.529 59.901 110.529 61.2204C110.529 62.5404 111.604 63.6102 112.929 63.6105H114.529C115.854 63.6105 116.929 62.5407 116.929 61.2204C116.929 59.901 115.854 58.8302 114.529 58.8302H112.929ZM162.522 55.6496C163.847 55.6496 164.922 56.7198 164.922 58.0398C164.922 59.2492 164.021 60.2493 162.85 60.4083L162.522 60.43L129.723 60.4268V55.6464L162.522 55.6496ZM152.925 19C156.017 19 158.524 21.4975 158.525 24.5771V48.4822C158.524 51.5617 156.017 54.0593 152.925 54.0593L129.723 54.0561V31.7477C129.723 28.3877 127.113 25.6361 123.801 25.3925L123.323 25.3738L107.322 25.3707V24.5771C107.323 21.4975 109.83 19 112.923 19H152.925Z" fill="#0078D4"/>
</g>
<defs>
<filter id="filter0_dd_1304_327" x="0" y="0" width="265.844" height="93" filterUnits="userSpaceOnUse" color-interpolation-filters="sRGB">
<feFlood flood-opacity="0" result="BackgroundImageFix"/>
<feColorMatrix in="SourceAlpha" type="matrix" values="0 0 0 0 0 0 0 0 0 0 0 0 0 0 0 0 0 0 127 0" result="hardAlpha"/>
<feOffset/>
<feGaussianBlur stdDeviation="1"/>
<feComposite in2="hardAlpha" operator="out"/>
<feColorMatrix type="matrix" values="0 0 0 0 0 0 0 0 0 0 0 0 0 0 0 0 0 0 0.12 0"/>
<feBlend mode="normal" in2="BackgroundImageFix" result="effect1_dropShadow_1304_327"/>
<feColorMatrix in="SourceAlpha" type="matrix" values="0 0 0 0 0 0 0 0 0 0 0 0 0 0 0 0 0 0 127 0" result="hardAlpha"/>
<feOffset dy="2"/>
<feGaussianBlur stdDeviation="2"/>
<feComposite in2="hardAlpha" operator="out"/>
<feColorMatrix type="matrix" values="0 0 0 0 0 0 0 0 0 0 0 0 0 0 0 0 0 0 0.14 0"/>
<feBlend mode="normal" in2="effect1_dropShadow_1304_327" result="effect2_dropShadow_1304_327"/>
<feBlend mode="normal" in="SourceGraphic" in2="effect2_dropShadow_1304_327" result="shape"/>
</filter>
</defs>
</svg>
