<svg width="96" height="96" viewBox="0 0 96 96" fill="none" xmlns="http://www.w3.org/2000/svg">
<g filter="url(#filter0_d_1345_128)">
<circle cx="48" cy="44" r="40" fill="url(#paint0_linear_1345_128)" shape-rendering="crispEdges"/>
</g>
<path d="M52.6286 29.825C53.1665 29.825 53.611 30.2247 53.6813 30.7433L53.6911 30.8875L53.6915 37.1003C54.8474 37.5172 55.693 38.5831 55.7884 39.8582L55.7975 40.0996V54.9747C55.7975 56.6616 54.4868 58.0426 52.8282 58.1548L52.61 58.1622H43.4016C41.7146 58.1622 40.3336 56.8514 40.2215 55.1928L40.2141 54.9747V40.0996C40.2141 38.7049 41.1099 37.5194 42.3574 37.0871L42.3566 30.8875C42.3566 30.3495 42.7563 29.905 43.2749 29.8347L43.4191 29.825H52.6286ZM51.5656 31.9495H44.4809V36.9107H51.5656V31.9495Z" fill="#0078D4"/>
<path d="M48 42.5336C47.2621 42.5338 46.6683 43.1339 46.668 43.8695C46.668 44.6053 47.262 45.2062 48 45.2064C48.7381 45.2063 49.333 44.6053 49.333 43.8695C49.3327 43.1339 48.738 42.5337 48 42.5336ZM46.835 46.6879L46.6357 46.5375C46.082 46.1195 45.7246 45.4553 45.7246 44.7064L45.7363 44.472C45.8453 43.3939 46.6982 42.5393 47.7676 42.4301L48 42.4183C49.2546 42.4183 50.2754 43.4406 50.2754 44.7064C50.2754 45.7345 49.6015 46.6042 48.6748 46.8929L47.9619 47.1146L49.1533 48.5502L48.2295 49.3461L47.8691 49.6556L48.1602 50.0316L49.1826 51.351L48.0293 52.475L46.835 51.1996V46.6879Z" fill="white" stroke="white"/>
<defs>
<filter id="filter0_d_1345_128" x="0" y="0" width="96" height="96" filterUnits="userSpaceOnUse" color-interpolation-filters="sRGB">
<feFlood flood-opacity="0" result="BackgroundImageFix"/>
<feColorMatrix in="SourceAlpha" type="matrix" values="0 0 0 0 0 0 0 0 0 0 0 0 0 0 0 0 0 0 127 0" result="hardAlpha"/>
<feOffset dy="4"/>
<feGaussianBlur stdDeviation="4"/>
<feComposite in2="hardAlpha" operator="out"/>
<feColorMatrix type="matrix" values="0 0 0 0 0 0 0 0 0 0 0 0 0 0 0 0 0 0 0.12 0"/>
<feBlend mode="normal" in2="BackgroundImageFix" result="effect1_dropShadow_1345_128"/>
<feBlend mode="normal" in="SourceGraphic" in2="effect1_dropShadow_1345_128" result="shape"/>
</filter>
<linearGradient id="paint0_linear_1345_128" x1="48" y1="4" x2="48" y2="84" gradientUnits="userSpaceOnUse">
<stop stop-color="#0078D4" stop-opacity="0.02"/>
<stop offset="1" stop-color="#0078D4" stop-opacity="0.1"/>
</linearGradient>
</defs>
</svg>
