<svg width="56" height="56" viewBox="0 0 56 56" fill="none" xmlns="http://www.w3.org/2000/svg">
<rect width="56" height="56" rx="18" fill="url(#paint0_linear_1354_36)"/>
<path d="M32.9375 12.8809C33.5111 12.881 33.9846 13.3073 34.0596 13.8604L34.0703 14.0137L34.0713 20.6406C35.3039 21.0853 36.2056 22.2223 36.3076 23.582L36.3174 23.8398V39.707C36.3172 41.5062 34.9193 42.9788 33.1504 43.0986L32.917 43.1064H23.0947C21.2954 43.1063 19.8228 41.7085 19.7031 39.9395L19.6953 39.707V23.8398C19.6954 22.3522 20.6507 21.0881 21.9814 20.627L21.9805 14.0137C21.9805 13.4399 22.4068 12.9657 22.96 12.8906L23.1133 12.8809H32.9375ZM28 25.7793C26.365 25.7794 25.0401 27.1115 25.04 28.7539C25.0402 29.7266 25.5047 30.5903 26.2236 31.1328V35.7227C26.2236 35.8308 26.2651 35.9349 26.3389 36.0137L27.7197 37.4883C27.8815 37.6609 28.1529 37.667 28.3223 37.502L29.7031 36.1572C29.858 36.0062 29.8748 35.7619 29.7422 35.5908L28.5918 34.1074L29.6582 33.1895C29.8338 33.0384 29.856 32.7742 29.708 32.5957L28.8779 31.5947C30.0842 31.219 30.9608 30.0891 30.9609 28.7539C30.9609 27.1114 29.635 25.7793 28 25.7793ZM28 26.9688C28.4905 26.9688 28.8886 27.3686 28.8887 27.8613C28.8887 28.354 28.4905 28.7538 28 28.7539C27.5096 28.7537 27.1123 28.3539 27.1123 27.8613C27.1124 27.3687 27.5096 26.9689 28 26.9688ZM24.2461 20.4385H31.8037V15.1465H24.2461V20.4385Z" fill="url(#paint1_linear_1354_36)"/>
<defs>
<linearGradient id="paint0_linear_1354_36" x1="49" y1="7" x2="10" y2="51" gradientUnits="userSpaceOnUse">
<stop stop-color="#A0E4FC" stop-opacity="0.2"/>
<stop offset="1" stop-color="#DBA9F6" stop-opacity="0.2"/>
</linearGradient>
<linearGradient id="paint1_linear_1354_36" x1="28.0063" y1="12.8809" x2="28.0063" y2="43.1064" gradientUnits="userSpaceOnUse">
<stop stop-color="#118EFA"/>
<stop offset="0.33" stop-color="#1081E3"/>
<stop offset="1.0001" stop-color="#0F6CBD"/>
</linearGradient>
</defs>
</svg>
