<svg width="96" height="96" viewBox="0 0 96 96" fill="none" xmlns="http://www.w3.org/2000/svg">
<g filter="url(#filter0_d_1311_146)">
<circle cx="48" cy="44" r="40" fill="url(#paint0_linear_1311_146)" shape-rendering="crispEdges"/>
</g>
<path d="M52.6472 29.7732C53.187 29.7734 53.6333 30.1755 53.7039 30.696L53.7136 30.8406V37.0779C54.874 37.4964 55.7232 38.5664 55.8191 39.8464L55.8279 40.0886V55.0222C55.8278 56.7156 54.5124 58.1019 52.8474 58.2146L52.6287 58.2224H43.3835C41.6899 58.2223 40.3038 56.906 40.1912 55.241L40.1833 55.0222V40.0886C40.1834 38.6885 41.0832 37.4983 42.3357 37.0642L42.3347 30.8406C42.3347 30.3006 42.736 29.8536 43.2566 29.783L43.4011 29.7732H52.6472ZM47.9871 41.5847L47.8523 41.5886V41.5876L47.8396 41.5886C46.3464 41.665 45.1329 42.7967 44.9207 44.2537L44.8914 44.5496V44.5623L44.8875 44.697V44.7097C44.8876 45.6714 45.321 46.5323 46.0017 47.1052V51.2683C46.0018 51.406 46.0418 51.5412 46.115 51.657L46.1277 51.6775L46.1423 51.697L46.1687 51.7312L46.1824 51.7488L46.198 51.7654L47.4978 53.1531C47.775 53.4487 48.2402 53.4584 48.53 53.1765L49.8298 51.9109L49.8464 51.8943L49.8611 51.8767L49.8894 51.8445L49.9041 51.8269L49.9177 51.8074C50.0976 51.5504 50.0946 51.2001 49.8972 50.9451L49.0037 49.7927L49.7732 49.1326C50.074 48.8739 50.1103 48.421 49.8582 48.1169L49.3621 47.5183C50.398 47.0108 51.1119 45.9441 51.1121 44.7097C51.1121 42.9852 49.7199 41.5847 47.9998 41.5847H47.9871ZM47.9998 43.3562C48.2797 43.3563 48.5095 43.5844 48.5095 43.8699C48.5093 44.1549 48.2797 44.3835 47.9998 44.3835C47.7199 44.3832 47.4902 44.1547 47.49 43.8699C47.49 43.5847 47.7199 43.3565 47.9998 43.3562ZM44.4675 36.8875H51.5798V31.907H44.4675V36.8875Z" fill="#0078D4"/>
<defs>
<filter id="filter0_d_1311_146" x="0" y="0" width="96" height="96" filterUnits="userSpaceOnUse" color-interpolation-filters="sRGB">
<feFlood flood-opacity="0" result="BackgroundImageFix"/>
<feColorMatrix in="SourceAlpha" type="matrix" values="0 0 0 0 0 0 0 0 0 0 0 0 0 0 0 0 0 0 127 0" result="hardAlpha"/>
<feOffset dy="4"/>
<feGaussianBlur stdDeviation="4"/>
<feComposite in2="hardAlpha" operator="out"/>
<feColorMatrix type="matrix" values="0 0 0 0 0 0 0 0 0 0 0 0 0 0 0 0 0 0 0.12 0"/>
<feBlend mode="normal" in2="BackgroundImageFix" result="effect1_dropShadow_1311_146"/>
<feBlend mode="normal" in="SourceGraphic" in2="effect1_dropShadow_1311_146" result="shape"/>
</filter>
<linearGradient id="paint0_linear_1311_146" x1="48" y1="4" x2="48" y2="84" gradientUnits="userSpaceOnUse">
<stop stop-color="#0078D4" stop-opacity="0.02"/>
<stop offset="1" stop-color="#0078D4" stop-opacity="0.1"/>
</linearGradient>
</defs>
</svg>
