<svg width="166" height="166" viewBox="0 0 166 166" fill="none" xmlns="http://www.w3.org/2000/svg">
<g filter="url(#filter0_d_1311_146)">
<circle cx="83" cy="79" r="75" fill="url(#paint0_linear_1311_146)" shape-rendering="crispEdges"/>
</g>
<path d="M91.7129 52.3252C92.7253 52.3252 93.5621 53.0785 93.6943 54.0547L93.7129 54.3252L93.7139 66.0205C95.8894 66.8053 97.4814 68.8119 97.6611 71.2119L97.6777 71.666V99.666C97.6777 102.841 95.2108 105.441 92.0889 105.652L91.6777 105.666H74.3447C71.1692 105.666 68.5697 103.199 68.3584 100.077L68.3447 99.666V71.666C68.3448 69.0408 70.0305 66.8089 72.3789 65.9951L72.377 54.3252C72.3771 53.313 73.1296 52.4763 74.1055 52.3438L74.377 52.3252H91.7129ZM82.9883 74.9082L82.7363 74.915H82.7236C79.9622 75.0557 77.7492 77.2795 77.6094 80.0518V80.0635L77.6025 80.3174V80.3301C77.6027 82.0714 78.4218 83.6196 79.6924 84.6113V92.6279C79.6924 92.8037 79.7428 92.9757 79.8359 93.123L79.8486 93.1436L79.8633 93.1631L79.9121 93.2256L79.9268 93.2441L79.9424 93.2607L82.3789 95.8623L82.4482 95.9287C82.8047 96.238 83.3443 96.2277 83.6895 95.8916L86.127 93.5186L86.1436 93.5029L86.1582 93.4854L86.21 93.4248L86.2256 93.4062L86.2393 93.3867C86.4677 93.06 86.463 92.6147 86.2119 92.29V92.2891L84.2832 89.8008L86.04 88.29C86.3981 87.9818 86.4619 87.4567 86.2041 87.0732L86.1484 86.998L84.8438 85.4268C86.9172 84.6699 88.3983 82.6734 88.3984 80.3301C88.3984 77.3368 85.9824 74.9087 83.001 74.9082H82.9883ZM83.001 77.3545C83.7693 77.3549 84.3942 77.9806 84.3945 78.7549C84.3945 79.5291 83.7696 80.1558 83.001 80.1562C82.232 80.1562 81.6075 79.5294 81.6074 78.7549C81.6078 77.9805 82.2323 77.3546 83.001 77.3545ZM76.376 65.6631H89.7119V56.3252H76.376V65.6631Z" fill="#0078D4"/>
<defs>
<filter id="filter0_d_1311_146" x="0" y="0" width="166" height="166" filterUnits="userSpaceOnUse" color-interpolation-filters="sRGB">
<feFlood flood-opacity="0" result="BackgroundImageFix"/>
<feColorMatrix in="SourceAlpha" type="matrix" values="0 0 0 0 0 0 0 0 0 0 0 0 0 0 0 0 0 0 127 0" result="hardAlpha"/>
<feOffset dy="4"/>
<feGaussianBlur stdDeviation="4"/>
<feComposite in2="hardAlpha" operator="out"/>
<feColorMatrix type="matrix" values="0 0 0 0 0 0 0 0 0 0 0 0 0 0 0 0 0 0 0.12 0"/>
<feBlend mode="normal" in2="BackgroundImageFix" result="effect1_dropShadow_1311_146"/>
<feBlend mode="normal" in="SourceGraphic" in2="effect1_dropShadow_1311_146" result="shape"/>
</filter>
<linearGradient id="paint0_linear_1311_146" x1="83" y1="4" x2="83" y2="154" gradientUnits="userSpaceOnUse">
<stop stop-color="#0078D4" stop-opacity="0.02"/>
<stop offset="1" stop-color="#0078D4" stop-opacity="0.1"/>
</linearGradient>
</defs>
</svg>
