<svg width="96" height="96" viewBox="0 0 96 96" fill="none" xmlns="http://www.w3.org/2000/svg">
<g filter="url(#filter0_d_1330_252)">
<circle cx="48" cy="44" r="40" fill="url(#paint0_linear_1330_252)" shape-rendering="crispEdges"/>
</g>
<g clip-path="url(#clip0_1330_252)">
<path d="M30.9333 33.6212C30.9333 30.8113 33.2075 28.5334 36.0127 28.5334H58.3619C61.1672 28.5334 63.4413 30.8113 63.4413 33.6212V42.876C61.543 41.0514 58.9658 39.9299 56.127 39.9299C54.2041 39.9299 52.4012 40.4445 50.848 41.3436L49.4367 39.9299L50.9533 38.4109C51.35 38.0135 51.35 37.3692 50.9533 36.9718C50.5565 36.5745 49.9134 36.5745 49.5166 36.9718L48 38.4909L46.4834 36.9718C46.0867 36.5745 45.4435 36.5745 45.0468 36.9718C44.6501 37.3692 44.6501 38.0135 45.0468 38.4109L46.5633 39.9299L45.0468 41.449C44.6501 41.8464 44.6501 42.4906 45.0468 42.8881C45.4435 43.2854 46.0867 43.2854 46.4834 42.8881L48 41.369L49.1738 42.5446C46.9601 44.4845 45.5619 47.3349 45.5619 50.5124C45.5619 50.7863 45.5723 51.0578 45.5927 51.3264H36.0127C33.2075 51.3264 30.9333 49.0486 30.9333 46.2387V33.6212ZM37.5438 36.9718C37.147 36.5745 36.5038 36.5745 36.1071 36.9718C35.7104 37.3692 35.7104 38.0135 36.1071 38.4109L37.6236 39.9299L36.1071 41.449C35.7104 41.8464 35.7104 42.4906 36.1071 42.8881C36.5038 43.2854 37.147 43.2854 37.5438 42.8881L39.0603 41.369L40.5769 42.8881C40.9737 43.2854 41.6168 43.2854 42.0136 42.8881C42.4103 42.4906 42.4103 41.8464 42.0136 41.449L40.497 39.9299L42.0136 38.4109C42.4103 38.0135 42.4103 37.3692 42.0136 36.9718C41.6168 36.5745 40.9737 36.5745 40.5769 36.9718L39.0603 38.4909L37.5438 36.9718ZM65.0667 50.5124C65.0667 55.4577 61.0642 59.4668 56.127 59.4668C51.1898 59.4668 47.1873 55.4577 47.1873 50.5124C47.1873 45.567 51.1898 41.558 56.127 41.558C61.0642 41.558 65.0667 45.567 65.0667 50.5124ZM61.0032 50.5124C61.0032 50.0628 60.6393 49.6984 60.1905 49.6984H56.9397V44.8141C56.9397 44.3646 56.5759 44.0001 56.127 44.0001C55.6781 44.0001 55.3143 44.3646 55.3143 44.8141V50.5124C55.3143 50.7283 55.4 50.9354 55.5523 51.088C55.7047 51.2406 55.9115 51.3264 56.127 51.3264H60.1905C60.6393 51.3264 61.0032 50.962 61.0032 50.5124Z" fill="#0078D4"/>
</g>
<defs>
<filter id="filter0_d_1330_252" x="0" y="0" width="96" height="96" filterUnits="userSpaceOnUse" color-interpolation-filters="sRGB">
<feFlood flood-opacity="0" result="BackgroundImageFix"/>
<feColorMatrix in="SourceAlpha" type="matrix" values="0 0 0 0 0 0 0 0 0 0 0 0 0 0 0 0 0 0 127 0" result="hardAlpha"/>
<feOffset dy="4"/>
<feGaussianBlur stdDeviation="4"/>
<feComposite in2="hardAlpha" operator="out"/>
<feColorMatrix type="matrix" values="0 0 0 0 0 0 0 0 0 0 0 0 0 0 0 0 0 0 0.12 0"/>
<feBlend mode="normal" in2="BackgroundImageFix" result="effect1_dropShadow_1330_252"/>
<feBlend mode="normal" in="SourceGraphic" in2="effect1_dropShadow_1330_252" result="shape"/>
</filter>
<linearGradient id="paint0_linear_1330_252" x1="48" y1="4" x2="48" y2="84" gradientUnits="userSpaceOnUse">
<stop stop-color="#0078D4" stop-opacity="0.02"/>
<stop offset="1" stop-color="#0078D4" stop-opacity="0.1"/>
</linearGradient>
<clipPath id="clip0_1330_252">
<rect width="34.1333" height="30.9333" fill="white" transform="translate(30.9333 28.5334)"/>
</clipPath>
</defs>
</svg>
