<svg width="166" height="166" viewBox="0 0 166 166" fill="none" xmlns="http://www.w3.org/2000/svg">
<g filter="url(#filter0_d_1312_177)">
<circle cx="83" cy="79" r="75" fill="url(#paint0_linear_1312_177)" shape-rendering="crispEdges"/>
</g>
<g clip-path="url(#clip0_1312_177)">
<path d="M51 59.5395C51 54.271 55.264 50 60.5238 50H102.429C107.688 50 111.952 54.271 111.952 59.5395V76.8923C108.393 73.4711 103.561 71.3684 98.2381 71.3684C94.6326 71.3684 91.2522 72.3332 88.34 74.019L85.6938 71.3684L88.5374 68.5202C89.2811 67.775 89.2811 66.5671 88.5374 65.8219C87.7934 65.0769 86.5875 65.0769 85.8436 65.8219L83 68.6702L80.1564 65.8219C79.4125 65.0769 78.2066 65.0769 77.4626 65.8219C76.7189 66.5671 76.7189 67.775 77.4626 68.5202L80.3062 71.3684L77.4626 74.2167C76.7189 74.9618 76.7189 76.1698 77.4626 76.9149C78.2066 77.6599 79.4125 77.6599 80.1564 76.9149L83 74.0666L85.2008 76.2709C81.0501 79.9082 78.4286 85.2527 78.4286 91.2105C78.4286 91.7241 78.4481 92.2332 78.4863 92.7368H60.5238C55.264 92.7368 51 88.4659 51 83.1974V59.5395ZM63.3945 65.8219C62.6506 65.0769 61.4446 65.0769 60.7007 65.8219C59.9569 66.5671 59.9569 67.775 60.7007 68.5202L63.5443 71.3684L60.7007 74.2167C59.9569 74.9618 59.9569 76.1698 60.7007 76.9149C61.4446 77.6599 62.6506 77.6599 63.3945 76.9149L66.2381 74.0666L69.0817 76.9149C69.8256 77.6599 71.0315 77.6599 71.7755 76.9149C72.5192 76.1698 72.5192 74.9618 71.7755 74.2167L68.9319 71.3684L71.7755 68.5202C72.5192 67.775 72.5192 66.5671 71.7755 65.8219C71.0315 65.0769 69.8256 65.0769 69.0817 65.8219L66.2381 68.6702L63.3945 65.8219ZM115 91.2105C115 100.483 107.495 108 98.2381 108C88.9808 108 81.4762 100.483 81.4762 91.2105C81.4762 81.938 88.9808 74.4211 98.2381 74.4211C107.495 74.4211 115 81.938 115 91.2105ZM107.381 91.2105C107.381 90.3675 106.699 89.6842 105.857 89.6842H99.7619V80.5263C99.7619 79.6833 99.0797 79 98.2381 79C97.3965 79 96.7143 79.6833 96.7143 80.5263V91.2105C96.7143 91.6153 96.8749 92.0036 97.1606 92.2898C97.4463 92.576 97.834 92.7368 98.2381 92.7368H105.857C106.699 92.7368 107.381 92.0535 107.381 91.2105Z" fill="#0078D4"/>
</g>
<defs>
<filter id="filter0_d_1312_177" x="0" y="0" width="166" height="166" filterUnits="userSpaceOnUse" color-interpolation-filters="sRGB">
<feFlood flood-opacity="0" result="BackgroundImageFix"/>
<feColorMatrix in="SourceAlpha" type="matrix" values="0 0 0 0 0 0 0 0 0 0 0 0 0 0 0 0 0 0 127 0" result="hardAlpha"/>
<feOffset dy="4"/>
<feGaussianBlur stdDeviation="4"/>
<feComposite in2="hardAlpha" operator="out"/>
<feColorMatrix type="matrix" values="0 0 0 0 0 0 0 0 0 0 0 0 0 0 0 0 0 0 0.12 0"/>
<feBlend mode="normal" in2="BackgroundImageFix" result="effect1_dropShadow_1312_177"/>
<feBlend mode="normal" in="SourceGraphic" in2="effect1_dropShadow_1312_177" result="shape"/>
</filter>
<linearGradient id="paint0_linear_1312_177" x1="83" y1="4" x2="83" y2="154" gradientUnits="userSpaceOnUse">
<stop stop-color="#0078D4" stop-opacity="0"/>
<stop offset="1" stop-color="#0078D4" stop-opacity="0.3"/>
</linearGradient>
<clipPath id="clip0_1312_177">
<rect width="64" height="58" fill="white" transform="translate(51 50)"/>
</clipPath>
</defs>
</svg>
