<svg width="166" height="166" viewBox="0 0 166 166" fill="none" xmlns="http://www.w3.org/2000/svg">
<g filter="url(#filter0_d_1310_16)">
<circle cx="83" cy="79" r="75" fill="url(#paint0_linear_1310_16)" shape-rendering="crispEdges"/>
</g>
<g clip-path="url(#clip0_1310_16)">
<path d="M82.875 51C86.4375 51 90 51.5 93.5625 52.5C97.125 53.4688 100.484 54.875 103.641 56.7188C106.797 58.5625 109.656 60.7969 112.219 63.4219C114.813 66.0156 116.938 68.9219 118.594 72.1406C118.781 72.5469 118.938 72.9531 119.062 73.3594C119.188 73.7656 119.25 74.1875 119.25 74.625C119.25 75.4062 119.109 76.125 118.828 76.7812C118.547 77.4062 118.156 77.9531 117.656 78.4219C117.156 78.8594 116.578 79.2031 115.922 79.4531C115.266 79.7031 114.562 79.8281 113.812 79.8281C112.844 79.8281 112.016 79.5781 111.328 79.0781C110.641 78.5469 110.047 77.9062 109.547 77.1562C109.141 76.5312 108.75 75.9062 108.375 75.2812C108 74.6562 107.594 74.0469 107.156 73.4531C105.75 71.5469 104.125 69.8438 102.281 68.3438C100.469 66.8438 98.5156 65.5781 96.4219 64.5469C94.3594 63.4844 92.1719 62.6875 89.8594 62.1562C87.5781 61.5938 85.25 61.3125 82.875 61.3125C80.2812 61.3125 77.75 61.6406 75.2812 62.2969C72.8125 62.9219 70.4688 63.8438 68.25 65.0625C66.0625 66.2812 64.0312 67.7656 62.1562 69.5156C60.2812 71.2344 58.6406 73.1875 57.2344 75.375C57.0156 75.7188 56.8281 76.0469 56.6719 76.3594C56.5156 76.6406 56.3281 76.9531 56.1094 77.2969C55.6406 78.0781 55.0156 78.7031 54.2344 79.1719C53.4531 79.6094 52.6094 79.8281 51.7031 79.8281C50.9844 79.8281 50.3125 79.6875 49.6875 79.4062C49.0625 79.125 48.5156 78.75 48.0469 78.2812C47.5781 77.8125 47.2031 77.2656 46.9219 76.6406C46.6406 76.0156 46.5 75.3438 46.5 74.625C46.5 73.7812 46.7188 72.9531 47.1562 72.1406C48.9688 68.8594 51.1406 65.9219 53.6719 63.3281C56.2344 60.7031 59.0469 58.4844 62.1094 56.6719C65.2031 54.8281 68.5 53.4219 72 52.4531C75.5 51.4844 79.125 51 82.875 51ZM82.875 76.8281C84.9375 76.8281 86.875 77.2188 88.6875 78C90.5 78.7812 92.0781 79.8594 93.4219 81.2344C94.7656 82.5781 95.8281 84.1562 96.6094 85.9688C97.3906 87.7812 97.7812 89.7188 97.7812 91.7812C97.7812 93.875 97.375 95.8281 96.5625 97.6406C95.7812 99.4531 94.7031 101.031 93.3281 102.375C91.9844 103.719 90.4062 104.781 88.5938 105.562C86.7812 106.344 84.8438 106.734 82.7812 106.734C80.6875 106.734 78.7344 106.344 76.9219 105.562C75.1406 104.781 73.5781 103.719 72.2344 102.375C70.9219 101 69.875 99.4062 69.0938 97.5938C68.3438 95.75 67.9688 93.7969 67.9688 91.7344C67.9688 89.6719 68.3594 87.75 69.1406 85.9688C69.9219 84.1562 70.9844 82.5781 72.3281 81.2344C73.7031 79.8594 75.2812 78.7812 77.0625 78C78.875 77.2188 80.8125 76.8281 82.875 76.8281Z" fill="#0078D4"/>
</g>
<defs>
<filter id="filter0_d_1310_16" x="0" y="0" width="166" height="166" filterUnits="userSpaceOnUse" color-interpolation-filters="sRGB">
<feFlood flood-opacity="0" result="BackgroundImageFix"/>
<feColorMatrix in="SourceAlpha" type="matrix" values="0 0 0 0 0 0 0 0 0 0 0 0 0 0 0 0 0 0 127 0" result="hardAlpha"/>
<feOffset dy="4"/>
<feGaussianBlur stdDeviation="4"/>
<feComposite in2="hardAlpha" operator="out"/>
<feColorMatrix type="matrix" values="0 0 0 0 0 0 0 0 0 0 0 0 0 0 0 0 0 0 0.12 0"/>
<feBlend mode="normal" in2="BackgroundImageFix" result="effect1_dropShadow_1310_16"/>
<feBlend mode="normal" in="SourceGraphic" in2="effect1_dropShadow_1310_16" result="shape"/>
</filter>
<linearGradient id="paint0_linear_1310_16" x1="83" y1="4" x2="83" y2="154" gradientUnits="userSpaceOnUse">
<stop stop-color="#0078D4" stop-opacity="0.02"/>
<stop offset="1" stop-color="#0078D4" stop-opacity="0.1"/>
</linearGradient>
<clipPath id="clip0_1310_16">
<rect width="73" height="56" fill="white" transform="translate(46.5 51)"/>
</clipPath>
</defs>
</svg>
