<svg width="96" height="96" viewBox="0 0 96 96" fill="none" xmlns="http://www.w3.org/2000/svg">
<g filter="url(#filter0_d_1310_16)">
<circle cx="48" cy="44" r="40" fill="url(#paint0_linear_1310_16)" shape-rendering="crispEdges"/>
</g>
<g clip-path="url(#clip0_1310_16)">
<path d="M47.9333 29.0667C49.8333 29.0667 51.7333 29.3333 53.6333 29.8667C55.5333 30.3833 57.325 31.1333 59.0083 32.1167C60.6917 33.1 62.2166 34.2917 63.5834 35.6917C64.9667 37.075 66.1 38.625 66.9834 40.3416C67.0833 40.5583 67.1667 40.775 67.2333 40.9917C67.3 41.2083 67.3333 41.4333 67.3333 41.6667C67.3333 42.0833 67.2583 42.4667 67.1083 42.8166C66.9583 43.15 66.75 43.4416 66.4833 43.6917C66.2166 43.925 65.9083 44.1083 65.5583 44.2416C65.2083 44.375 64.8333 44.4416 64.4333 44.4416C63.9167 44.4416 63.475 44.3083 63.1083 44.0416C62.7416 43.7583 62.425 43.4166 62.1583 43.0166C61.9416 42.6833 61.7333 42.35 61.5333 42.0166C61.3333 41.6833 61.1167 41.3583 60.8833 41.0416C60.1333 40.025 59.2667 39.1167 58.2833 38.3167C57.3167 37.5167 56.275 36.8416 55.1583 36.2917C54.0583 35.725 52.8917 35.3 51.6583 35.0166C50.4416 34.7167 49.2 34.5667 47.9333 34.5667C46.55 34.5667 45.2 34.7416 43.8833 35.0917C42.5667 35.425 41.3167 35.9167 40.1333 36.5667C38.9667 37.2166 37.8833 38.0083 36.8833 38.9416C35.8833 39.8583 35.0083 40.9 34.2583 42.0667C34.1416 42.25 34.0416 42.425 33.9583 42.5917C33.875 42.7416 33.775 42.9083 33.6583 43.0917C33.4083 43.5083 33.075 43.8416 32.6583 44.0917C32.2417 44.325 31.7917 44.4416 31.3083 44.4416C30.925 44.4416 30.5667 44.3667 30.2333 44.2166C29.9 44.0667 29.6083 43.8667 29.3583 43.6166C29.1083 43.3667 28.9083 43.075 28.7583 42.7416C28.6083 42.4083 28.5333 42.05 28.5333 41.6667C28.5333 41.2166 28.65 40.775 28.8833 40.3416C29.85 38.5917 31.0083 37.025 32.3583 35.6416C33.725 34.2416 35.225 33.0583 36.8583 32.0917C38.5083 31.1083 40.2667 30.3583 42.1333 29.8416C44 29.325 45.9333 29.0667 47.9333 29.0667ZM47.9333 42.8416C49.0333 42.8416 50.0667 43.05 51.0333 43.4667C52 43.8833 52.8416 44.4583 53.5583 45.1917C54.275 45.9083 54.8416 46.75 55.2583 47.7167C55.675 48.6833 55.8833 49.7167 55.8833 50.8166C55.8833 51.9333 55.6667 52.975 55.2333 53.9416C54.8166 54.9083 54.2416 55.75 53.5083 56.4667C52.7917 57.1833 51.95 57.75 50.9834 58.1667C50.0166 58.5833 48.9834 58.7917 47.8833 58.7917C46.7667 58.7917 45.725 58.5833 44.7583 58.1667C43.8083 57.75 42.975 57.1833 42.2583 56.4667C41.5583 55.7333 41 54.8833 40.5834 53.9167C40.1834 52.9333 39.9834 51.8917 39.9834 50.7917C39.9834 49.6917 40.1917 48.6667 40.6083 47.7167C41.025 46.75 41.5917 45.9083 42.3083 45.1917C43.0416 44.4583 43.8833 43.8833 44.8333 43.4667C45.8 43.05 46.8333 42.8416 47.9333 42.8416Z" fill="#0078D4"/>
</g>
<defs>
<filter id="filter0_d_1310_16" x="0" y="0" width="96" height="96" filterUnits="userSpaceOnUse" color-interpolation-filters="sRGB">
<feFlood flood-opacity="0" result="BackgroundImageFix"/>
<feColorMatrix in="SourceAlpha" type="matrix" values="0 0 0 0 0 0 0 0 0 0 0 0 0 0 0 0 0 0 127 0" result="hardAlpha"/>
<feOffset dy="4"/>
<feGaussianBlur stdDeviation="4"/>
<feComposite in2="hardAlpha" operator="out"/>
<feColorMatrix type="matrix" values="0 0 0 0 0 0 0 0 0 0 0 0 0 0 0 0 0 0 0.12 0"/>
<feBlend mode="normal" in2="BackgroundImageFix" result="effect1_dropShadow_1310_16"/>
<feBlend mode="normal" in="SourceGraphic" in2="effect1_dropShadow_1310_16" result="shape"/>
</filter>
<linearGradient id="paint0_linear_1310_16" x1="48" y1="4" x2="48" y2="84" gradientUnits="userSpaceOnUse">
<stop stop-color="#0078D4" stop-opacity="0.02"/>
<stop offset="1" stop-color="#0078D4" stop-opacity="0.1"/>
</linearGradient>
<clipPath id="clip0_1310_16">
<rect width="38.9333" height="29.8667" fill="white" transform="translate(28.5333 29.0667)"/>
</clipPath>
</defs>
</svg>
