<svg width="150" height="150" viewBox="0 0 150 150" fill="none" xmlns="http://www.w3.org/2000/svg">
<circle cx="75" cy="75" r="75" fill="#F5F5F5"/>
<path d="M97.2848 85.9175C99.9058 84.8199 101.662 82.6041 101.667 79.8976V68.8693C97.4228 72.644 91.2454 72.7299 86.6261 69.4751L86.6082 69.4625L61.1265 50.6272C58.5785 48.7439 55.3413 48.5868 52.7149 49.6866C50.0907 50.7856 48.3333 53.0058 48.3333 55.7173V55.7324C48.3333 60.06 48.3335 63.5789 48.3339 66.4829C49.2116 65.7737 50.1941 65.1944 51.2317 64.7599C54.9569 63.1999 59.6489 63.3751 63.4093 66.1545L88.8739 84.9772C91.4219 86.8605 94.6586 87.0173 97.2848 85.9175Z" fill="#0078D4"/>
<path d="M48.3397 80.5567C48.3382 78.426 48.3368 76.2952 48.3359 74.1645C48.4123 71.5353 50.1493 69.3893 52.715 68.3149C55.3413 67.2151 58.578 67.3717 61.126 69.2551L86.5906 88.0777C91.01 91.3443 97.4046 91.1927 101.667 87.7489V94.4325C101.667 97.1655 99.9569 99.3225 97.434 100.364C94.901 101.41 91.7252 101.232 89.1541 99.3323L74.1892 88.2392L74.1797 88.2447L63.374 80.2437C58.7022 76.8211 52.359 77.1973 48.3397 80.5567Z" fill="#0078D4"/>
<path d="M101.666 60.6724C101.411 65.5953 95.0545 70.3526 89.043 66.0681L79.675 59.0636L88.8941 53.7776C93.8125 51.064 101.721 53.153 101.666 60.6724Z" fill="#0078D4"/>
<path d="M61.0491 95.8888C56.1546 98.5892 48.3333 96.5175 48.3333 89.4004C48.3333 82.8247 55.9024 79.9032 60.9029 83.6421L70.2394 90.6243L61.0491 95.8888Z" fill="#0078D4"/>
</svg>
