<svg width="14" height="14" viewBox="0 0 14 14" fill="none" xmlns="http://www.w3.org/2000/svg">
<g clip-path="url(#clip0_769_20658)">
<mask id="mask0_769_20658" style="mask-type:luminance" maskUnits="userSpaceOnUse" x="0" y="0" width="14" height="14">
<path d="M14 0H0V14H14V0Z" fill="white"/>
</mask>
<g mask="url(#mask0_769_20658)">
<path d="M9.125 0.875C11.3341 0.875 13.125 2.66586 13.125 4.875V9.125C13.125 11.3341 11.3341 13.125 9.125 13.125H4.875C2.66586 13.125 0.875 11.3341 0.875 9.125V4.875C0.875 2.66586 2.66586 0.875 4.875 0.875H9.125ZM6.93848 5.23633C6.5158 5.23652 6.17285 5.57923 6.17285 6.00195V10.6348C6.17285 11.0574 6.5158 11.4002 6.93848 11.4004C7.36133 11.4004 7.7041 11.0576 7.7041 10.6348V6.00195C7.7041 5.57911 7.36133 5.23633 6.93848 5.23633ZM7 2.63184C6.52203 2.63184 6.13477 3.0191 6.13477 3.49707C6.13482 3.97499 6.52206 4.3623 7 4.3623C7.47792 4.36228 7.86518 3.97498 7.86523 3.49707C7.86523 3.01911 7.47795 2.63186 7 2.63184Z" fill="#0078D4"/>
</g>
</g>
<defs>
<clipPath id="clip0_769_20658">
<rect width="14" height="14" fill="white"/>
</clipPath>
</defs>
</svg>
