<svg width="24" height="24" viewBox="0 0 24 24" fill="none" xmlns="http://www.w3.org/2000/svg">
<path d="M17.6878 4.50368L16.9024 5.2891C13.9538 3.39728 9.98631 3.74071 7.40762 6.31939C6.03268 7.69434 5.29322 9.46413 5.18924 11.2638C4.79677 11.4632 4.42927 11.7046 4.09259 11.9821C4.01942 9.66295 4.86793 7.32009 6.63813 5.5499C9.64347 2.54455 14.2994 2.19581 17.6878 4.50368ZM12.5179 20.4074C12.7954 20.0707 13.0368 19.7032 13.2362 19.3108C15.0359 19.2068 16.8057 18.4673 18.1806 17.0923C18.3931 16.8799 18.7376 16.8799 18.9502 17.0923C19.1626 17.3049 19.1626 17.6494 18.9502 17.8619C17.1799 19.632 14.8371 20.4805 12.5179 20.4074ZM13.8824 16.6029C13.8824 16.7503 13.877 16.8963 13.8666 17.041C14.8834 16.8375 15.8534 16.3417 16.6416 15.5533C16.8541 15.3409 16.8541 14.9964 16.6416 14.7838C16.4291 14.5714 16.0846 14.5714 15.8721 14.7838C15.2915 15.3644 14.5879 15.7467 13.845 15.9307C13.8697 16.1514 13.8824 16.3757 13.8824 16.6029ZM7.89706 10.6176C8.12431 10.6176 8.3486 10.6303 8.56926 10.655C8.75328 9.91219 9.13557 9.20845 9.71612 8.62788C11.0079 7.33614 12.9095 7.02597 14.4942 7.69738L15.3112 6.88028C13.26 5.80958 10.6694 6.13562 8.94663 7.85839C8.15837 8.64665 7.66252 9.6166 7.45909 10.6334C7.60371 10.623 7.74977 10.6176 7.89706 10.6176ZM11.7536 12.0256C12.0138 12.245 12.255 12.4862 12.4744 12.7464C12.5755 12.7774 12.6829 12.7941 12.7941 12.7941C13.3951 12.7941 13.8824 12.3069 13.8824 11.7059C13.8824 11.6084 13.8695 11.5139 13.8455 11.424L19.1642 6.10533C19.3766 5.89284 19.3766 5.54833 19.1642 5.33584C18.9517 5.12334 18.6071 5.12334 18.3946 5.33584L13.076 10.6545C12.9861 10.6305 12.8916 10.6176 12.7941 10.6176C12.1931 10.6176 11.7059 11.1049 11.7059 11.7059C11.7059 11.8171 11.7226 11.9245 11.7536 12.0256ZM20.4118 15.5147C20.4118 15.8152 20.1681 16.0588 19.8676 16.0588C19.5672 16.0588 19.3235 15.8152 19.3235 15.5147C19.3235 15.2142 19.5672 14.9706 19.8676 14.9706C20.1681 14.9706 20.4118 15.2142 20.4118 15.5147ZM19.8676 8.44118C20.1681 8.44118 20.4118 8.19756 20.4118 7.89706C20.4118 7.59655 20.1681 7.35294 19.8676 7.35294C19.5672 7.35294 19.3235 7.59655 19.3235 7.89706C19.3235 8.19756 19.5672 8.44118 19.8676 8.44118ZM21.5 13.0662C21.5 13.3667 21.2563 13.6103 20.9559 13.6103C20.6554 13.6103 20.4118 13.3667 20.4118 13.0662C20.4118 12.7657 20.6554 12.5221 20.9559 12.5221C21.2563 12.5221 21.5 12.7657 21.5 13.0662ZM20.9559 10.8897C21.2563 10.8897 21.5 10.6461 21.5 10.3456C21.5 10.0451 21.2563 9.80147 20.9559 9.80147C20.6554 9.80147 20.4118 10.0451 20.4118 10.3456C20.4118 10.6461 20.6554 10.8897 20.9559 10.8897ZM18.2353 13.0662C18.2353 13.3667 17.9916 13.6103 17.6912 13.6103C17.3907 13.6103 17.1471 13.3667 17.1471 13.0662C17.1471 12.7657 17.3907 12.5221 17.6912 12.5221C17.9916 12.5221 18.2353 12.7657 18.2353 13.0662ZM17.6912 10.8897C17.9916 10.8897 18.2353 10.6461 18.2353 10.3456C18.2353 10.0451 17.9916 9.80147 17.6912 9.80147C17.3907 9.80147 17.1471 10.0451 17.1471 10.3456C17.1471 10.6461 17.3907 10.8897 17.6912 10.8897ZM12.7941 16.6029C12.7941 19.3075 10.6016 21.5 7.89706 21.5C5.19249 21.5 3 19.3075 3 16.6029C3 13.8983 5.19249 11.7059 7.89706 11.7059C10.6016 11.7059 12.7941 13.8983 12.7941 16.6029ZM10.4583 14.5858C10.2458 14.3734 9.90127 14.3734 9.68878 14.5858L6.80882 17.4658L6.10533 16.7623C5.89284 16.5498 5.54833 16.5498 5.33584 16.7623C5.12334 16.9748 5.12334 17.3193 5.33584 17.5319L6.42408 18.6201C6.63657 18.8325 6.98108 18.8325 7.19357 18.6201L10.4583 15.3554C10.6708 15.1429 10.6708 14.7983 10.4583 14.5858Z" fill="#4A90D9"/>
</svg>
