<svg width="24" height="24" viewBox="0 0 24 24" fill="none" xmlns="http://www.w3.org/2000/svg">
<path d="M3.44126 9.9557C1.51763 11.8793 1.51763 14.9981 3.44126 16.9218C5.13601 18.6165 7.75847 18.8182 9.67398 17.5267L13.9304 21.7831C14.2324 22.085 14.7219 22.085 15.0239 21.7831C15.2984 21.5086 15.3234 21.079 15.0988 20.7763L15.0239 20.6896L10.8066 16.4712C12.3202 14.5384 12.1871 11.7355 10.4073 9.9557C8.4837 8.03207 5.36488 8.03207 3.44126 9.9557ZM12.0258 1.99841C7.27034 1.99841 3.29007 5.31727 2.27486 9.76508C2.41594 9.58587 2.56916 9.41358 2.73415 9.24859C3.26249 8.72025 3.86577 8.31254 4.50978 8.02545C5.45281 6.24296 7.01307 4.83626 8.90577 4.08918L8.79893 4.26327C8.2614 5.15685 7.8278 6.27457 7.52377 7.54243C8.02265 7.59374 8.51502 7.70694 8.98938 7.88292C9.6212 5.25536 10.8123 3.49841 12.0258 3.49841L12.1414 3.50371C13.4069 3.61947 14.6293 5.62144 15.1971 8.49966L10.1994 8.49893C10.5227 8.71372 10.8295 8.96361 11.1144 9.24859C11.3499 9.48408 11.5617 9.73487 11.7495 9.99788L15.4227 9.99938C15.4907 10.6396 15.5273 11.3094 15.5273 12C15.5273 13.0595 15.4412 14.0698 15.2876 15.0001L12.6422 15.0002C12.5645 15.2859 12.4648 15.5671 12.3432 15.8412L12.2143 16.1129L12.0917 16.3423L12.2503 16.4994L14.9647 16.4997C14.7625 17.2482 14.5141 17.9172 14.2331 18.4842L15.3386 19.5918C15.8305 18.7339 16.2305 17.6833 16.5175 16.5006L19.2401 16.4999C18.3502 17.9236 17.0505 19.0649 15.5063 19.7587L15.7311 19.9826L15.8557 20.1228C16.0761 20.4181 16.2006 20.7471 16.2338 21.0756C19.6547 19.4874 22.0273 16.0208 22.0273 12C22.0273 6.47626 17.5495 1.99841 12.0258 1.99841ZM9.31383 11.0492C10.6335 12.3689 10.6335 14.5086 9.31383 15.8283C7.99412 17.148 5.85446 17.148 4.53476 15.8283C3.21506 14.5086 3.21506 12.3689 4.53476 11.0492C5.85446 9.7295 7.99412 9.7295 9.31383 11.0492ZM16.9324 10L20.29 9.99931L20.2978 10.0294C20.4479 10.6618 20.5273 11.3216 20.5273 12C20.5273 13.056 20.3348 14.0671 19.9829 15L16.8095 15.0009C16.9518 14.0515 17.0273 13.043 17.0273 12C17.0273 11.3162 16.9949 10.6472 16.9324 10ZM15.1447 4.08912L15.1676 4.09783C17.215 4.91256 18.871 6.4999 19.7757 8.49981L16.7274 8.49924C16.414 6.7468 15.8672 5.22119 15.1447 4.08912Z" fill="#4A90D9"/>
</svg>
