<svg width="24" height="24" viewBox="0 0 24 24" fill="none" xmlns="http://www.w3.org/2000/svg">
<path d="M17.7927 2.85674L16.8229 3.82658C13.182 1.49056 8.28293 1.91463 5.09878 5.09878C1.42541 8.77215 1.42541 14.7279 5.09878 18.4012C8.77215 22.0746 14.7279 22.0746 18.4012 18.4012C18.6636 18.1389 19.0891 18.1389 19.3515 18.4012C19.6138 18.6636 19.6138 19.0891 19.3515 19.3515C15.1533 23.5495 8.34675 23.5495 4.14861 19.3515C-0.0495372 15.1533 -0.0495372 8.34675 4.14861 4.14861C7.8596 0.437614 13.6087 0.00699245 17.7927 2.85674ZM13.8492 6.80032L14.8581 5.79136C12.3253 4.46927 9.12641 4.87186 6.99914 6.99914C4.37529 9.62298 4.37529 13.8771 6.99914 16.5009C9.62298 19.1248 13.8771 19.1248 16.5008 16.5009C16.7633 16.2386 16.7633 15.8131 16.5008 15.5507C16.2385 15.2884 15.8131 15.2884 15.5507 15.5507C13.4516 17.6498 10.0484 17.6498 7.94931 15.5507C5.85024 13.4516 5.85024 10.0484 7.94931 7.94931C9.54435 6.35426 11.8925 5.97126 13.8492 6.80032ZM19.6158 3.8843C19.8781 4.14668 19.8781 4.57208 19.6158 4.83446L13.0483 11.402C13.0779 11.513 13.0938 11.6296 13.0938 11.75C13.0938 12.4921 12.4921 13.0938 11.75 13.0938C11.0079 13.0938 10.4063 12.4921 10.4063 11.75C10.4063 11.0079 11.0079 10.4063 11.75 10.4063C11.8704 10.4063 11.9871 10.4221 12.0981 10.4518L18.6655 3.8843C18.9279 3.6219 19.3534 3.6219 19.6158 3.8843ZM21.1563 16.4531C21.1563 16.8242 20.8554 17.125 20.4844 17.125C20.1134 17.125 19.8125 16.8242 19.8125 16.4531C19.8125 16.0821 20.1134 15.7813 20.4844 15.7813C20.8554 15.7813 21.1563 16.0821 21.1563 16.4531ZM20.4844 7.71876C20.8554 7.71876 21.1563 7.41795 21.1563 7.04688C21.1563 6.67582 20.8554 6.37501 20.4844 6.37501C20.1134 6.37501 19.8125 6.67582 19.8125 7.04688C19.8125 7.41795 20.1134 7.71876 20.4844 7.71876ZM22.5 13.4297C22.5 13.8008 22.1992 14.1016 21.8282 14.1016C21.4571 14.1016 21.1563 13.8008 21.1563 13.4297C21.1563 13.0586 21.4571 12.7578 21.8282 12.7578C22.1992 12.7578 22.5 13.0586 22.5 13.4297ZM21.8282 10.7422C22.1992 10.7422 22.5 10.4414 22.5 10.0703C22.5 9.69926 22.1992 9.39845 21.8282 9.39845C21.4571 9.39845 21.1563 9.69926 21.1563 10.0703C21.1563 10.4414 21.4571 10.7422 21.8282 10.7422ZM18.4688 13.4297C18.4688 13.8008 18.1679 14.1016 17.7969 14.1016C17.4259 14.1016 17.125 13.8008 17.125 13.4297C17.125 13.0586 17.4259 12.7578 17.7969 12.7578C18.1679 12.7578 18.4688 13.0586 18.4688 13.4297ZM17.7969 10.7422C18.1679 10.7422 18.4688 10.4414 18.4688 10.0703C18.4688 9.69926 18.1679 9.39845 17.7969 9.39845C17.4259 9.39845 17.125 9.69926 17.125 10.0703C17.125 10.4414 17.4259 10.7422 17.7969 10.7422Z" fill="#4A90D9"/>
</svg>
