<svg width="21" height="20" viewBox="0 0 21 20" fill="none" xmlns="http://www.w3.org/2000/svg">
<g clip-path="url(#clip0_1178_10760)">
<path d="M0 3.20513C0 1.43498 1.39911 0 3.125 0H16.875C18.6009 0 20 1.43498 20 3.20513V11.033C19.6224 10.7131 19.2024 10.4439 18.75 10.2357V3.20513C18.75 2.14304 17.9105 1.28205 16.875 1.28205H3.125C2.08947 1.28205 1.25 2.14304 1.25 3.20513V11.1538C1.25 12.2159 2.08947 13.0769 3.125 13.0769H9.9519L11.2019 14.359H3.125C1.39911 14.359 0 12.924 0 11.1538V3.20513ZM14.625 9.23077C14.4743 9.23077 14.3359 9.176 14.228 9.08487C14.194 8.87503 14.1209 8.67062 14.0084 8.48395C14.0576 8.18026 14.3149 7.94872 14.625 7.94872H16.875C17.2202 7.94872 17.5 8.23569 17.5 8.58974C17.5 8.9438 17.2202 9.23077 16.875 9.23077H14.625ZM11.3839 7.17949L12.0059 7.81749C11.8132 7.89887 11.6326 8.01985 11.476 8.18046L11.034 8.63374L10.5 8.08605L9.56695 9.04303C9.32285 9.29333 8.92715 9.29333 8.68305 9.04303C8.439 8.79267 8.439 8.38682 8.68305 8.13646L9.6161 7.17949L8.68305 6.22251C8.439 5.97215 8.439 5.56631 8.68305 5.31595C8.92715 5.06562 9.32285 5.06562 9.56695 5.31595L10.5 6.27292L11.4331 5.31595C11.6772 5.06562 12.0728 5.06562 12.3169 5.31595C12.561 5.56631 12.561 5.97215 12.3169 6.22251L11.3839 7.17949ZM3.18306 5.31595C3.42713 5.06562 3.82286 5.06562 4.06694 5.31595L5 6.27292L5.93305 5.31595C6.17715 5.06562 6.57285 5.06562 6.81695 5.31595C7.061 5.56631 7.061 5.97215 6.81695 6.22251L5.8839 7.17949L6.81695 8.13646C7.061 8.38682 7.061 8.79267 6.81695 9.04303C6.57285 9.29333 6.17715 9.29333 5.93305 9.04303L5 8.08605L4.06694 9.04303C3.82286 9.29333 3.42713 9.29333 3.18306 9.04303C2.93898 8.79267 2.93898 8.38682 3.18306 8.13646L4.11612 7.17949L3.18306 6.22251C2.93898 5.97215 2.93898 5.56631 3.18306 5.31595ZM13.0669 9.81226C13.311 9.5619 13.311 9.15605 13.0669 8.90569C12.8228 8.65539 12.4272 8.65539 12.1831 8.90569L10.1831 10.957C9.939 11.2073 9.939 11.6132 10.1831 11.8635L12.1831 13.9148C12.4272 14.1651 12.8228 14.1651 13.0669 13.9148C13.311 13.6645 13.311 13.2586 13.0669 13.0083L12.1339 12.0513H16.5C18.2949 12.0513 19.75 13.5436 19.75 15.3846C19.75 17.2256 18.2949 18.7179 16.5 18.7179C14.8847 18.7179 13.5436 17.5087 13.2923 15.9247C13.2369 15.5752 12.9158 15.3381 12.5751 15.3949C12.2344 15.4517 12.0032 15.7811 12.0586 16.1305C12.4067 18.325 14.262 20 16.5 20C18.9853 20 21 17.9336 21 15.3846C21 12.8356 18.9853 10.7692 16.5 10.7692H12.1339L13.0669 9.81226Z" fill="#4A90D9"/>
</g>
<defs>
<clipPath id="clip0_1178_10760">
<rect width="21" height="20" fill="white"/>
</clipPath>
</defs>
</svg>
