<svg width="20" height="19" viewBox="0 0 20 19" fill="none" xmlns="http://www.w3.org/2000/svg">
<g clip-path="url(#clip0_1158_13305)">
<path d="M0 3.04487C0 1.36324 1.33249 0 2.97619 0H16.0714C17.7151 0 19.0476 1.36324 19.0476 3.04487V10.4813C18.688 10.1774 18.288 9.92175 17.8571 9.72391V3.04487C17.8571 2.03589 17.0577 1.21795 16.0714 1.21795H2.97619C1.98997 1.21795 1.19048 2.03589 1.19048 3.04487V10.5962C1.19048 11.6052 1.98997 12.4231 2.97619 12.4231H9.478L10.6685 13.641H2.97619C1.33249 13.641 0 12.2778 0 10.5962V3.04487ZM13.9286 8.76923C13.785 8.76923 13.6533 8.7172 13.5505 8.63063C13.5181 8.43127 13.4485 8.23708 13.3414 8.05975C13.3882 7.77124 13.6333 7.55128 13.9286 7.55128H16.0714C16.4002 7.55128 16.6667 7.82391 16.6667 8.16026C16.6667 8.4966 16.4002 8.76923 16.0714 8.76923H13.9286ZM10.8418 6.82051L11.4342 7.42661C11.2507 7.50393 11.0786 7.61885 10.9295 7.77144L10.5086 8.20206L10 7.68175L9.11138 8.59087C8.8789 8.82867 8.50205 8.82867 8.26957 8.59087C8.03714 8.35303 8.03714 7.96748 8.26957 7.72964L9.15819 6.82051L8.26957 5.91139C8.03714 5.67355 8.03714 5.28799 8.26957 5.05015C8.50205 4.81234 8.8789 4.81234 9.11138 5.05015L10 5.95928L10.8886 5.05015C11.1211 4.81234 11.498 4.81234 11.7304 5.05015C11.9629 5.28799 11.9629 5.67355 11.7304 5.91139L10.8418 6.82051ZM3.03149 5.05015C3.26394 4.81234 3.64082 4.81234 3.87328 5.05015L4.7619 5.95928L5.65052 5.05015C5.883 4.81234 6.25986 4.81234 6.49233 5.05015C6.72476 5.28799 6.72476 5.67355 6.49233 5.91139L5.60371 6.82051L6.49233 7.72964C6.72476 7.96748 6.72476 8.35303 6.49233 8.59087C6.25986 8.82867 5.883 8.82867 5.65052 8.59087L4.7619 7.68175L3.87328 8.59087C3.64082 8.82867 3.26394 8.82867 3.03149 8.59087C2.79903 8.35303 2.79903 7.96748 3.03149 7.72964L3.92011 6.82051L3.03149 5.91139C2.79903 5.67355 2.79903 5.28799 3.03149 5.05015ZM12.4447 9.32164C12.6771 9.0838 12.6771 8.69825 12.4447 8.46041C12.2122 8.22262 11.8354 8.22262 11.6029 8.46041L9.69814 10.4091C9.46571 10.647 9.46571 11.0325 9.69814 11.2704L11.6029 13.2191C11.8354 13.4569 12.2122 13.4569 12.4447 13.2191C12.6771 12.9812 12.6771 12.5957 12.4447 12.3578L11.5561 11.4487H15.7143C17.4238 11.4487 18.8096 12.8665 18.8096 14.6154C18.8096 16.3643 17.4238 17.7821 15.7143 17.7821C14.1759 17.7821 12.8987 16.6332 12.6594 15.1284C12.6066 14.7965 12.3008 14.5711 11.9763 14.6252C11.6519 14.6792 11.4316 14.992 11.4844 15.324C11.8159 17.4087 13.5829 19 15.7143 19C18.0812 19 20 17.037 20 14.6154C20 12.1938 18.0812 10.2308 15.7143 10.2308H11.5561L12.4447 9.32164Z" fill="#C73ECC"/>
</g>
<defs>
<clipPath id="clip0_1158_13305">
<rect width="20" height="19" fill="white"/>
</clipPath>
</defs>
</svg>
