<svg width="18" height="18" viewBox="0 0 18 18" fill="none" xmlns="http://www.w3.org/2000/svg">
<g clip-path="url(#clip0_569_2436)">
<path d="M18 2.9475C17.9971 3.33339 17.9208 3.7152 17.775 4.0725C17.6286 4.43489 17.4105 4.76397 17.1337 5.04L5.625 16.6163L0 18L1.38375 12.4313L12.96 0.86625C13.236 0.589538 13.5651 0.371428 13.9275 0.225C14.2848 0.0792182 14.6666 0.00285639 15.0525 0C15.4397 0.00109828 15.8226 0.0815009 16.1775 0.23625C16.5283 0.380582 16.8461 0.59495 17.1112 0.86625C17.3789 1.13446 17.5927 1.45141 17.7413 1.8C17.9068 2.1602 17.9949 2.55112 18 2.9475ZM1.5525 16.4475L4.5 15.75C4.43392 15.4841 4.33569 15.2272 4.2075 14.985C4.07586 14.7533 3.91726 14.5381 3.735 14.3438C3.54065 14.1615 3.3254 14.0029 3.09375 13.8713C2.82784 13.729 2.54406 13.6231 2.25 13.5563L1.5525 16.4475ZM2.86875 12.5437C3.47085 12.7397 4.01809 13.0752 4.46581 13.5229C4.91354 13.9707 5.24906 14.5179 5.445 15.12L14.9513 5.625L12.375 3.04875L2.86875 12.5437ZM15.75 4.82625L16.1775 4.41C16.3061 4.2829 16.4264 4.14761 16.5375 4.005C16.6376 3.85735 16.7206 3.69884 16.785 3.5325C16.8467 3.34758 16.8771 3.15367 16.875 2.95875C16.8799 2.71453 16.83 2.47232 16.7288 2.25C16.639 2.03007 16.505 1.83094 16.335 1.665C16.1691 1.49503 15.9699 1.36101 15.75 1.27125C15.5312 1.17133 15.293 1.12137 15.0525 1.125C14.8538 1.12209 14.6561 1.15252 14.4675 1.215C14.3012 1.2794 14.1427 1.36243 13.995 1.4625C13.8469 1.57112 13.7111 1.69561 13.59 1.83375L13.1737 2.25L15.75 4.82625Z" fill="#0078D4"/>
</g>
<defs>
<clipPath id="clip0_569_2436">
<rect width="18" height="18" fill="white"/>
</clipPath>
</defs>
</svg>
