<svg width="24" height="24" viewBox="0 0 24 24" fill="none" xmlns="http://www.w3.org/2000/svg">
<path d="M21.5 6.02937C21.4971 6.42598 21.4186 6.8184 21.2688 7.18562C21.1183 7.55808 20.8941 7.8963 20.6097 8.18L8.78125 20.0778L3 21.5L4.42219 15.7766L16.32 3.89031C16.6037 3.60591 16.9419 3.38175 17.3144 3.23125C17.6816 3.08142 18.074 3.00294 18.4706 3C18.8686 3.00113 19.2621 3.08376 19.6269 3.24281C19.9875 3.39115 20.314 3.61148 20.5866 3.89031C20.8616 4.16598 21.0814 4.49173 21.2341 4.85C21.4042 5.22021 21.4948 5.62198 21.5 6.02937ZM4.59562 19.9044L7.625 19.1875C7.55708 18.9142 7.45613 18.6502 7.32438 18.4012C7.18908 18.1632 7.02607 17.9419 6.83875 17.7422C6.639 17.5549 6.41777 17.3919 6.17969 17.2566C5.90639 17.1104 5.61473 17.0015 5.3125 16.9328L4.59562 19.9044ZM5.94844 15.8922C6.56726 16.0936 7.1297 16.4384 7.58986 16.8986C8.05002 17.3587 8.39487 17.9212 8.59625 18.54L18.3666 8.78125L15.7188 6.13344L5.94844 15.8922ZM19.1875 7.96031L19.6269 7.5325C19.759 7.40187 19.8826 7.26283 19.9969 7.11625C20.0997 6.9645 20.1851 6.80158 20.2513 6.63063C20.3146 6.44056 20.3459 6.24127 20.3438 6.04094C20.3488 5.78993 20.2974 5.541 20.1934 5.3125C20.1012 5.08646 19.9634 4.8818 19.7888 4.71125C19.6182 4.53656 19.4135 4.39881 19.1875 4.30656C18.9627 4.20387 18.7178 4.15252 18.4706 4.15625C18.2664 4.15326 18.0632 4.18453 17.8694 4.24875C17.6984 4.31494 17.5355 4.40027 17.3837 4.50312C17.2315 4.61476 17.0919 4.74271 16.9675 4.88469L16.5397 5.3125L19.1875 7.96031Z" fill="#4A90D9"/>
</svg>
