<svg width="18" height="18" viewBox="0 0 18 18" fill="none" xmlns="http://www.w3.org/2000/svg">
<path d="M11.5153 2.5875L13.6867 3.7125C14.352 4.25496 14.9642 4.85759 15.5153 5.5125C15.972 6.16632 16.3192 6.88798 16.5439 7.65C16.8608 8.4372 17.0161 9.27838 17.001 10.125C16.9812 10.8423 16.9048 11.5569 16.7724 12.2625C16.537 12.8943 16.2303 13.498 15.8581 14.0625C15.5717 14.6781 15.1408 15.2179 14.601 15.6375C14.1748 16.1689 13.6264 16.593 13.001 16.875L11.1724 17.775L9.00101 18L6.82958 17.775L5.00101 16.875C4.37564 16.593 3.82726 16.1689 3.40101 15.6375C2.86116 15.2179 2.43029 14.6781 2.14386 14.0625C1.76288 13.5183 1.49132 12.9073 1.34386 12.2625C1.1191 11.5715 1.00347 10.8506 1.00101 10.125C0.985891 9.27838 1.14126 8.4372 1.45815 7.65C1.68278 6.88798 2.03004 6.16632 2.48672 5.5125C3.03779 4.85759 3.64999 4.25496 4.31529 3.7125L6.48672 2.5875L6.94386 3.7125C6.231 3.91145 5.5689 4.25649 5.00101 4.725C4.38788 5.12042 3.84695 5.61486 3.40101 6.1875C3.02884 6.75197 2.72216 7.35574 2.48672 7.9875C2.25237 8.67625 2.13649 9.39868 2.14386 10.125C2.15668 10.7312 2.23328 11.3344 2.37243 11.925L3.05815 13.5C3.34527 14.0196 3.73363 14.4783 4.20101 14.85C4.5786 15.3101 5.04463 15.6924 5.57243 15.975L7.17243 16.65L9.00101 16.875L10.8296 16.65L12.4296 15.975C12.9574 15.6924 13.4234 15.3101 13.801 14.85C14.2684 14.4783 14.6567 14.0196 14.9439 13.5L15.6296 11.925C15.7687 11.3344 15.8453 10.7312 15.8581 10.125C15.8655 9.39868 15.7496 8.67625 15.5153 7.9875C15.2799 7.35574 14.9732 6.75197 14.601 6.1875C14.1551 5.61486 13.6141 5.12042 13.001 4.725C12.4331 4.25649 11.771 3.91145 11.0581 3.7125L11.5153 2.5875ZM9.57244 9H8.42958V0H9.57244V9Z" fill="#0078D4"/>
</svg>
