<svg width="18" height="18" viewBox="0 0 18 18" fill="none" xmlns="http://www.w3.org/2000/svg">
<path d="M8.50001 18C10.2442 18 11.6395 16.56 11.6395 14.76H16V13.5H14.7791V6.39C14.6919 2.88 11.9012 0 8.50001 0C5.09884 0 2.22093 2.88 2.22093 6.39V13.5H1V14.76H5.36047C5.36047 16.56 6.75582 18 8.50001 18ZM8.50001 16.74C7.4535 16.74 6.66861 15.84 6.66861 14.85H10.4186C10.3314 15.84 9.54652 16.74 8.50001 16.74ZM3.52907 13.5V6.39C3.52907 3.6 5.70931 1.26 8.50001 1.26C11.2907 1.26 13.4709 3.6 13.4709 6.39V13.5H3.52907Z" fill="#0078D4"/>
</svg>
