<svg width="24" height="24" viewBox="0 0 24 24" fill="none" xmlns="http://www.w3.org/2000/svg">
<path d="M8.2042 4.82022C8.57962 4.64521 9.02584 4.80767 9.20085 5.1831C9.37586 5.55852 9.2134 6.00474 8.83797 6.17975C6.21382 7.40306 4.5 10.0413 4.5 12.9911C4.5 17.1384 7.85759 20.5 11.9989 20.5C16.1403 20.5 19.4979 17.1384 19.4979 12.9911C19.4979 10.0474 17.7912 7.41365 15.1753 6.18693C14.8002 6.01107 14.6388 5.56448 14.8147 5.18946C14.9905 4.81443 15.4371 4.65298 15.8121 4.82885C18.9502 6.30041 20.9979 9.46042 20.9979 12.9911C20.9979 17.9664 16.9691 22 11.9989 22C7.02876 22 3 17.9664 3 12.9911C3 9.45309 5.05623 6.28771 8.2042 4.82022ZM11.9989 2.49585C12.3786 2.49585 12.6924 2.778 12.7421 3.14408L12.7489 3.24585V10.7458C12.7489 11.16 12.4132 11.4958 11.9989 11.4958C11.6192 11.4958 11.3055 11.2136 11.2558 10.8476L11.2489 10.7458V3.24585C11.2489 2.83164 11.5847 2.49585 11.9989 2.49585Z" fill="#4A90D9"/>
</svg>
