<svg width="18" height="18" viewBox="0 0 18 18" fill="none" xmlns="http://www.w3.org/2000/svg">
<path d="M15.975 6.5125L15.1875 5.6125L14.4 6.5125L12.375 8.425L13.1625 9.325L14.625 7.8625V8.875C14.6492 9.64956 14.4952 10.4193 14.175 11.125H11.1375C11.2342 10.3791 11.2718 9.62679 11.25 8.875C11.3555 6.6442 10.8498 4.42694 9.7875 2.4625C11.1448 2.78599 12.3418 3.584 13.1625 4.7125L13.95 3.925C13.2225 3.01203 12.2985 2.2749 11.2467 1.76847C10.1949 1.26205 9.04237 0.999374 7.875 1C5.78642 1 3.78338 1.82969 2.30653 3.30654C0.829685 4.78338 0 6.78642 0 8.875C0 10.9636 0.829685 12.9666 2.30653 14.4435C3.78338 15.9203 5.78642 16.75 7.875 16.75C9.96358 16.75 11.9666 15.9203 13.4435 14.4435C14.9203 12.9666 15.75 10.9636 15.75 8.875V7.8625L17.2125 9.325L18 8.425L15.975 6.5125ZM7.875 15.625C7.3125 15.625 6.525 14.3875 5.9625 12.25H9.7875C9.225 14.3875 8.4375 15.625 7.875 15.625ZM5.7375 11.125C5.7375 10.45 5.625 9.6625 5.625 8.875C5.625 8.0875 5.7375 7.3 5.7375 6.625H10.0125C10.0125 7.3 10.125 8.0875 10.125 8.875C10.125 9.6625 10.0125 10.45 10.0125 11.125H5.7375ZM9.7875 5.5H5.9625C6.525 3.3625 7.3125 2.125 7.875 2.125C8.4375 2.125 9.225 3.3625 9.7875 5.5ZM5.9625 2.4625C5.4175 3.40366 5.03704 4.43089 4.8375 5.5H2.025C2.89428 4.0155 4.30597 2.92649 5.9625 2.4625ZM1.125 8.875C1.10082 8.10044 1.25477 7.33067 1.575 6.625H4.6125C4.51584 7.37087 4.47822 8.12321 4.5 8.875C4.47822 9.62679 4.51584 10.3791 4.6125 11.125H1.575C1.25477 10.4193 1.10082 9.64956 1.125 8.875ZM2.025 12.25H4.8375C5.03704 13.3191 5.4175 14.3463 5.9625 15.2875C4.30597 14.8235 2.89428 13.7345 2.025 12.25ZM9.7875 15.2875C10.3325 14.3463 10.713 13.3191 10.9125 12.25H13.725C12.8557 13.7345 11.444 14.8235 9.7875 15.2875Z" fill="#0078D4"/>
</svg>
