<svg width="24" height="24" viewBox="0 0 24 24" fill="none" xmlns="http://www.w3.org/2000/svg">
<path d="M4.75 1.99976C5.1297 1.99976 5.44349 2.28191 5.49315 2.64799L5.5 2.74976V8.43976L10.0743 3.87989C12.5163 1.43795 16.4385 1.37839 18.9526 3.70121L19.1385 3.87989C21.6415 6.38289 21.6415 10.441 19.1385 12.944L10.2933 21.7832C10.0003 22.076 9.52558 22.0756 9.23269 21.7827C8.93979 21.4898 8.94013 21.0148 9.23315 20.7221L18.0778 11.8834C19.995 9.96617 19.995 6.85776 18.0778 4.94055C16.2187 3.08144 13.2395 3.02511 11.3118 4.77224L11.1342 4.94132L6.562 9.49976L12.25 9.49994C12.6297 9.49994 12.9435 9.78209 12.9932 10.1482L13 10.2499C13 10.6296 12.7178 10.9434 12.3518 10.9931L12.25 10.9999H4.75C4.3703 10.9999 4.05651 10.7178 4.00685 10.3517L4 10.2499V2.74976C4 2.33554 4.33579 1.99976 4.75 1.99976Z" fill="#4A90D9"/>
</svg>
