<?xml version="1.0" encoding="UTF-8" standalone="no"?>
<!DOCTYPE svg PUBLIC "-//W3C//DTD SVG 1.1//EN" "http://www.w3.org/Graphics/SVG/1.1/DTD/svg11.dtd">
<!-- Generated by Microsoft Visio, SVG Export reinit-missing-message.svg Page-1 -->
<svg xmlns="http://www.w3.org/2000/svg" xmlns:xlink="http://www.w3.org/1999/xlink" xmlns:ev="http://www.w3.org/2001/xml-events"
		width="7.01389in" height="7.20139in" viewBox="0 0 505 518.5" xml:space="preserve" color-interpolation-filters="sRGB"
		class="st16">
	<style type="text/css">
	<![CDATA[
		.st1 {fill:#ffffff;stroke:#c3c3c3;stroke-linecap:round;stroke-linejoin:round;stroke-width:1}
		.st2 {fill:#ffc000;stroke:#000000;stroke-linecap:round;stroke-linejoin:round;stroke-width:1.5}
		.st3 {fill:#000000;font-family:Segoe UI;font-size:0.666664em;font-weight:bold}
		.st4 {fill:#a3d9f4;stroke:#000000;stroke-linecap:round;stroke-linejoin:round;stroke-width:1.5}
		.st5 {font-size:1em}
		.st6 {fill:none;stroke:none;stroke-linecap:round;stroke-linejoin:round;stroke-width:0.5}
		.st7 {marker-end:url(#mrkr4-19);stroke:#000000;stroke-linecap:round;stroke-linejoin:round;stroke-width:1.5}
		.st8 {fill:#000000;fill-opacity:1;stroke:#000000;stroke-opacity:1;stroke-width:0.37313432835821}
		.st9 {fill:#00aba9;stroke:#000000;stroke-linecap:round;stroke-linejoin:round;stroke-width:1.5}
		.st10 {fill:#000000;font-family:Segoe UI;font-size:1.16666em}
		.st11 {fill:#ffffff;stroke:none;stroke-linecap:round;stroke-linejoin:round;stroke-width:0.5}
		.st12 {fill:#ffffff;stroke:none;stroke-linecap:butt;stroke-width:7.2}
		.st13 {fill:#ffffff;stroke:none;stroke-linecap:round;stroke-linejoin:round;stroke-width:1.5}
		.st14 {stroke:#7f7f7f;stroke-linecap:round;stroke-linejoin:round;stroke-width:1.5}
		.st15 {fill:#000000;font-family:Segoe UI;font-size:0.499992em}
		.st16 {fill:none;fill-rule:evenodd;font-size:12px;overflow:visible;stroke-linecap:square;stroke-miterlimit:3}
	]]>
	</style>

	<defs id="Markers">
		<g id="lend4">
			<path d="M 2 1 L 0 0 L 2 -1 L 2 1 " style="stroke:none"/>
		</g>
		<marker id="mrkr4-19" class="st8" refX="-5.36" orient="auto" markerUnits="strokeWidth" overflow="visible">
			<use xlink:href="#lend4" transform="scale(-2.68,-2.68) "/>
		</marker>
	</defs>
	<g>
		<title>Page-1</title>
		<g id="shape104-1" transform="translate(0.5,-0.5)">
			<title>Sheet.104</title>
			<rect x="0" y="0.999988" width="504" height="517.5" class="st1"/>
		</g>
		<g id="shape19-3" transform="translate(290.103,-464.45)">
			<title>Start/End.19</title>
			<desc>Start</desc>
			<path d="M10.35 518.5 L31.05 518.5 A10.35 11.025 -180 0 0 31.05 496.45 L10.35 496.45 A10.35 11.025 -180 1 0 10.35 518.5
						 Z" class="st2"/>
			<text x="11.6" y="509.88" class="st3">Start</text>		</g>
		<g id="shape20-6" transform="translate(132.897,-378.5)">
			<title>Process.13</title>
			<desc>Subscriber site</desc>
			<rect x="0" y="480.404" width="51.5356" height="38.0962" class="st4"/>
			<text x="5.98" y="497.05" class="st3">Subscriber <tspan x="19.15" dy="1.2em" class="st5">site</tspan></text>		</g>
		<g id="shape21-10" transform="translate(188.138,-378.5)">
			<title>Sheet.21</title>
			<desc>Check if site replication hasn't finished reinit</desc>
			<rect x="0" y="480.404" width="113.664" height="38.0962" class="st6"/>
			<text x="2" y="497.05" class="st3">Check if site replication <tspan x="2" dy="1.2em" class="st5">hasn</tspan>'t finished reinit</text>		</g>
		<g id="shape22-14" transform="translate(310.803,-464.45)">
			<title>Dynamic connector.1114</title>
			<path d="M0 518.5 L0 548.35 L-152.14 548.35 L-152.14 558.31" class="st7"/>
		</g>
		<g id="shape23-20" transform="translate(443.964,-261.5)">
			<title>Start/End.1184</title>
			<desc>End</desc>
			<path d="M10.35 518.5 L31.05 518.5 A10.35 11.025 -180 0 0 31.05 496.45 L10.35 496.45 A10.35 11.025 -180 1 0 10.35 518.5
						 Z" class="st9"/>
			<text x="13.67" y="509.88" class="st3">End</text>		</g>
		<g id="shape24-23" transform="translate(0.5,-494)">
			<title>Sheet.24</title>
			<desc>Troubleshoot reinit missing message</desc>
			<rect x="0" y="500.95" width="504" height="17.55" class="st6"/>
			<text x="138.87" y="513.93" class="st10">Troubleshoot reinit missing message</text>		</g>
		<g id="shape25-26" transform="translate(158.664,-378.5)">
			<title>Dynamic connector.1067</title>
			<path d="M0 518.5 L0 563.72 L152.14 563.72 L152.14 573.68" class="st7"/>
		</g>
		<g id="shape26-31" transform="translate(299.103,-216.95)">
			<title>Process.1109</title>
			<rect x="0" y="500.95" width="23.4" height="17.55" class="st4"/>
		</g>
		<g id="shape27-33" transform="translate(336.053,-216.95)">
			<title>Sheet.27</title>
			<desc>Get the TrackingGuid &#38; Status from subscriber site</desc>
			<rect x="0" y="500.95" width="105.447" height="17.55" class="st6"/>
			<text x="2" y="507.33" class="st3">Get the TrackingGuid &#38; <tspan x="2" dy="1.2em" class="st5">Status from subscriber site</tspan></text>		</g>
		<g id="shape29-37" transform="translate(301.803,-297.725)">
			<title>Dynamic connector.1029</title>
			<path d="M9 518.5 L9 573.68" class="st7"/>
		</g>
		<g id="shape31-42" transform="translate(322.503,-306.5)">
			<title>Dynamic connector.1094</title>
			<path d="M0 518.5 L142.16 518.5 L142.16 533.41" class="st7"/>
		</g>
		<g id="shape32-47" transform="translate(299.103,-297.725)">
			<title>Decision.1066</title>
			<path d="M0 509.72 L11.7 500.95 L23.4 509.72 L11.7 518.5 L0 509.72 Z" class="st2"/>
		</g>
		<g id="shape33-49" transform="translate(338,-297.725)">
			<title>Sheet.33</title>
			<desc>No Result</desc>
			<rect x="0" y="500.95" width="38.8125" height="17.55" class="st11"/>
			<text x="13.8" y="507.33" class="st3">No <tspan x="7.76" dy="1.2em" class="st5">Result</tspan></text>		</g>
		<g id="shape34-53" transform="translate(299.103,-81.725)">
			<title>Decision.222</title>
			<path d="M0 509.72 L11.7 500.95 L23.4 509.72 L11.7 518.5 L0 509.72 Z" class="st2"/>
		</g>
		<g id="shape38-55" transform="translate(322.503,-90.5)">
			<title>Dynamic connector.239</title>
			<desc>No Result</desc>
			<path d="M0 518.5 L64.82 518.5 L64.82 571.43" class="st7"/>
			<rect x="20.17" y="508.9" width="23.2965" height="19.1997" class="st12"/>
			<text x="26.21" y="516.1" class="st3">No <tspan x="20.17" dy="1.2em" class="st5">Result</tspan></text>		</g>
		<g id="shape41-63" transform="translate(443.964,-378.5)">
			<title>Process.67</title>
			<desc>Publishing site</desc>
			<rect x="0" y="480.404" width="51.5356" height="38.0962" class="st4"/>
			<text x="5.94" y="497.05" class="st3">Publishing <tspan x="19.15" dy="1.2em" class="st5">site</tspan></text>		</g>
		<g id="shape42-67" transform="translate(469.732,-378.5)">
			<title>Dynamic connector.42</title>
			<path d="M0 518.5 L0 563.72 L-158.93 563.72 L-158.93 573.68" class="st7"/>
		</g>
		<g id="shape43-72" transform="translate(299.103,-153.725)">
			<title>Process.72</title>
			<rect x="0" y="500.95" width="23.4" height="17.55" class="st4"/>
		</g>
		<g id="shape44-74" transform="translate(339.024,-153.725)">
			<title>Sheet.44</title>
			<desc>Get the TrackingGuid &#38; Status from the publishing site</desc>
			<rect x="0" y="500.95" width="125.64" height="17.55" class="st6"/>
			<text x="2" y="507.33" class="st3">Get the TrackingGuid &#38; Status <tspan x="2" dy="1.2em" class="st5">from the publishing site</tspan></text>		</g>
		<g id="shape45-78" transform="translate(301.803,-216.95)">
			<title>Dynamic connector.72</title>
			<path d="M9 518.5 L9 556.13" class="st7"/>
		</g>
		<g id="shape50-83" transform="translate(301.803,-153.725)">
			<title>Dynamic connector.81</title>
			<path d="M9 518.5 L9 564.91" class="st7"/>
		</g>
		<g id="shape93-88" transform="translate(171.86,-7.47499)">
			<title>Start/End.78</title>
			<desc>Go to SQL replication reinit</desc>
			<path d="M11.03 518.5 L114.61 518.5 A11.025 11.025 -180 1 0 114.61 496.45 L11.03 496.45 A11.025 11.025 -180 1 0 11.03
						 518.5 Z" class="st2"/>
			<text x="11.65" y="509.88" class="st3">Go to SQL replication reinit</text>		</g>
		<g id="shape94-91" transform="translate(299.103,-90.5)">
			<title>Dynamic connector.80</title>
			<desc>Has Result</desc>
			<path d="M0 518.5 L-64.42 518.5 L-64.42 571.43" class="st7"/>
			<rect x="-40.251" y="508.9" width="23.2965" height="19.1997" class="st12"/>
			<text x="-35.58" y="516.1" class="st3">Has <tspan x="-40.25" dy="1.2em" class="st5">Result</tspan></text>		</g>
		<g id="shape30-99" transform="translate(291.397,-266.45)">
			<title>Sheet.30</title>
			<desc>Has Result</desc>
			<rect x="0" y="496.45" width="38.8125" height="22.05" class="st13"/>
			<text x="12.43" y="505.08" class="st3">Has <tspan x="7.76" dy="1.2em" class="st5">Result</tspan></text>		</g>
		<g id="shape102-103" transform="translate(324.5,-7.47499)">
			<title>Start/End.357</title>
			<desc>Take remediation actions</desc>
			<path d="M11.03 518.5 L114.61 518.5 A11.025 11.025 -180 0 0 114.61 496.45 L11.03 496.45 A11.025 11.025 -180 1 0 11.03
						 518.5 Z" class="st9"/>
			<text x="15.42" y="509.88" class="st3">Take remediation actions</text>		</g>
		<g id="shape82-106" transform="translate(10.873,-367.25)">
			<title>Orthogonal.1107</title>
			<desc>SELECT * FROM RCM_DrsInitializationTracking dt INNER JOIN Rep...</desc>
			<path d="M105.45 487.67 L122.02 487.88" class="st14"/>
			<path d="M4.5 455.5 L0 455.5 L0 518.5 L4.5 518.5" class="st14"/>
			<path d="M100.95 455.5 L105.45 455.5 L105.45 518.5 L100.95 518.5" class="st14"/>
			<text x="4" y="466" class="st15">SELECT * FROM <tspan x="4" dy="1.2em" class="st5">RCM_DrsInitializationTracking dt </tspan><tspan
						x="4" dy="1.2em" class="st5">INNER JOIN ReplicationData rg  </tspan><tspan x="4" dy="1.2em" class="st5">ON dt.ReplicationGroup = </tspan><tspan
						x="4" dy="1.2em" class="st5">rg.ReplicationGroup </tspan><tspan x="4" dy="1.2em" class="st5">WHERE dt.InitializationStatus NOT </tspan><tspan
						x="4" dy="1.5em" class="st5">IN (6,7) </tspan></text>		</g>
		<g id="shape83-118" transform="translate(167.589,-140.244)">
			<title>Orthogonal.1110</title>
			<desc>SELECT RequestTrackingGUID, InitializationStatus FROM RCM_Drs...</desc>
			<path d="M113.96 496.16 L131.51 496.21" class="st14"/>
			<path d="M4.5 473.5 L0 473.5 L0 518.5 L4.5 518.5" class="st14"/>
			<path d="M109.46 473.5 L113.96 473.5 L113.96 518.5 L109.46 518.5" class="st14"/>
			<text x="4" y="483.4" class="st15">SELECT RequestTrackingGUID, <tspan x="4" dy="1.2em" class="st5">InitializationStatus  </tspan><tspan
						x="4" dy="1.2em" class="st5">FROM RCM_DrsInitializationTracking dt </tspan><tspan x="4" dy="1.2em"
						class="st5">WHERE </tspan><tspan x="4" dy="1.2em" class="st5">RequestTrackingGUID=@trackingGuid</tspan></text>		</g>
		<g id="shape84-128" transform="translate(321.941,-367.25)">
			<title>Orthogonal.68</title>
			<desc>SELECT * FROM RCM_DrsInitializationTracking dt INNER JOIN Rep...</desc>
			<path d="M105.45 487.67 L122.02 487.88" class="st14"/>
			<path d="M4.5 455.5 L0 455.5 L0 518.5 L4.5 518.5" class="st14"/>
			<path d="M100.95 455.5 L105.45 455.5 L105.45 518.5 L100.95 518.5" class="st14"/>
			<text x="4" y="466" class="st15">SELECT * FROM <tspan x="4" dy="1.2em" class="st5">RCM_DrsInitializationTracking dt </tspan><tspan
						x="4" dy="1.2em" class="st5">INNER JOIN ReplicationData rg  </tspan><tspan x="4" dy="1.2em" class="st5">ON dt.ReplicationGroup = </tspan><tspan
						x="4" dy="1.2em" class="st5">rg.ReplicationGroup </tspan><tspan x="4" dy="1.2em" class="st5">WHERE dt.InitializationStatus NOT </tspan><tspan
						x="4" dy="1.5em" class="st5">IN (6,7) </tspan></text>		</g>
		<g id="shape85-140" transform="translate(168.547,-192.219)">
			<title>Orthogonal.70</title>
			<desc>SELECT RequestTrackingGUID, InitializationStatus FROM RCM_Drs...</desc>
			<path d="M113.96 484.91 L130.56 484.96" class="st14"/>
			<path d="M4.5 451 L0 451 L0 518.5 L4.5 518.5" class="st14"/>
			<path d="M109.46 451 L113.96 451 L113.96 518.5 L109.46 518.5" class="st14"/>
			<text x="4" y="461.35" class="st15">SELECT RequestTrackingGUID, <tspan x="4" dy="1.2em" class="st5">InitializationStatus  </tspan><tspan
						x="4" dy="1.2em" class="st5">FROM RCM_DrsInitializationTracking dt </tspan><tspan x="4" dy="1.2em"
						class="st5">INNER JOIN ReplicationData rg  </tspan><tspan x="4" dy="1.2em" class="st5">ON dt.ReplicationGroup = </tspan><tspan
						x="4" dy="1.2em" class="st5">rg.ReplicationGroup </tspan><tspan x="4" dy="1.2em" class="st5">WHERE dt.InitializationStatus NOT IN </tspan><tspan
						x="4" dy="1.2em" class="st5">(6,7) </tspan></text>		</g>
	</g>
</svg>
