<svg width="56" height="56" viewBox="0 0 56 56" fill="none" xmlns="http://www.w3.org/2000/svg">
<rect width="56" height="56" rx="18" fill="#F5F5F5"/>
<path d="M35.8438 24.4219C37.0208 25.0677 38.0833 25.8333 39.0312 26.7188C39.9792 27.6042 40.8073 28.5938 41.5156 29.6875C42.224 30.7812 42.7812 31.9375 43.1875 33.1562C43.5938 34.375 43.8646 35.6615 44 37.0156H12C12.1042 35.6823 12.3646 34.3958 12.7812 33.1562C13.1979 31.9167 13.7604 30.7604 14.4688 29.6875C15.1771 28.6146 16.0052 27.6302 16.9531 26.7344C17.901 25.8385 18.9688 25.0677 20.1562 24.4219C20.0938 24.3073 19.9844 24.1146 19.8281 23.8438C19.6719 23.5729 19.4896 23.2656 19.2812 22.9219C19.0729 22.5781 18.8646 22.2188 18.6562 21.8438C18.4479 21.4688 18.2448 21.1198 18.0469 20.7969C17.849 20.474 17.7031 20.1979 17.6094 19.9688C17.5156 19.7396 17.4531 19.5938 17.4219 19.5312C17.4219 19.3854 17.4792 19.2604 17.5938 19.1562C17.7083 19.0521 17.8385 18.9948 17.9844 18.9844C18.1927 18.9844 18.349 19.0781 18.4531 19.2656L21.1562 23.9375C22.2292 23.4375 23.3385 23.0677 24.4844 22.8281C25.6302 22.5885 26.8021 22.4688 28 22.4688C29.1875 22.4688 30.3542 22.5885 31.5 22.8281C32.6458 23.0677 33.7604 23.4375 34.8438 23.9375L37.5469 19.2656C37.651 19.0781 37.8073 18.9844 38.0156 18.9844C38.1615 18.9844 38.2917 19.0365 38.4062 19.1406C38.5208 19.2448 38.5781 19.375 38.5781 19.5312C38.5781 19.5833 38.5208 19.724 38.4062 19.9531C38.2917 20.1823 38.1406 20.4635 37.9531 20.7969C37.7656 21.1302 37.5677 21.4792 37.3594 21.8438C37.151 22.2083 36.9375 22.5677 36.7188 22.9219C36.5 23.276 36.3229 23.5833 36.1875 23.8438C36.0521 24.1042 35.9375 24.2969 35.8438 24.4219ZM20.6406 32.4531C21.0052 32.4531 21.3177 32.3229 21.5781 32.0625C21.8385 31.8021 21.9688 31.4896 21.9688 31.125C21.9688 30.7604 21.8385 30.4479 21.5781 30.1875C21.3177 29.9271 21.0052 29.7969 20.6406 29.7969C20.4531 29.7969 20.2812 29.8281 20.125 29.8906C19.9688 29.9531 19.8281 30.0469 19.7031 30.1719C19.5781 30.2969 19.4792 30.4375 19.4062 30.5938C19.3333 30.75 19.2969 30.9271 19.2969 31.125C19.2969 31.3125 19.3333 31.4844 19.4062 31.6406C19.4792 31.7969 19.5729 31.9375 19.6875 32.0625C19.8021 32.1875 19.9427 32.2812 20.1094 32.3438C20.276 32.4062 20.4531 32.4427 20.6406 32.4531ZM35.3594 32.4531C35.5365 32.4531 35.7031 32.4219 35.8594 32.3594C36.0156 32.2969 36.1615 32.2031 36.2969 32.0781C36.4323 31.9531 36.5312 31.8125 36.5938 31.6562C36.6562 31.5 36.6927 31.3229 36.7031 31.125C36.7031 30.9375 36.6667 30.7656 36.5938 30.6094C36.5208 30.4531 36.4271 30.3125 36.3125 30.1875C36.1979 30.0625 36.0573 29.9688 35.8906 29.9062C35.724 29.8438 35.5469 29.8073 35.3594 29.7969C34.9948 29.7969 34.6823 29.9271 34.4219 30.1875C34.1615 30.4479 34.0312 30.7604 34.0312 31.125C34.0312 31.4896 34.1615 31.8021 34.4219 32.0625C34.6823 32.3229 34.9948 32.4531 35.3594 32.4531Z" fill="#0078D4"/>
</svg>
