<svg width="56" height="56" viewBox="0 0 56 56" fill="none" xmlns="http://www.w3.org/2000/svg">
<rect width="56" height="56" rx="18" fill="#F5F5F5"/>
<path d="M22.0074 19.8748C23.5539 19.8748 24.8075 21.148 24.8075 22.7185V38.1562C24.8075 39.7268 23.5539 41 22.0074 41H14.8001C13.2536 41 12 39.7268 12 38.1562V22.7185C12 21.148 13.2536 19.8748 14.8001 19.8748H22.0074ZM22.0074 22.3123H14.8001C14.5792 22.3123 14.4001 22.4942 14.4001 22.7185V38.1562C14.4001 38.3806 14.5792 38.5625 14.8001 38.5625H22.0074C22.2283 38.5625 22.4074 38.3806 22.4074 38.1562V22.7185C22.4074 22.4942 22.2283 22.3123 22.0074 22.3123ZM18.8038 34.5C19.4665 34.5 20.0038 35.0457 20.0038 35.7188C20.0038 36.3358 19.5523 36.8457 18.9666 36.9264L18.8038 36.9375H18.0037C17.341 36.9375 16.8037 36.3918 16.8037 35.7188C16.8037 35.1017 17.2552 34.5918 17.8409 34.5111L18.0037 34.5H18.8038ZM40.3999 15C42.3053 15 43.865 16.5034 43.9917 18.4059L44 18.6562V32.4688C44 34.4039 42.5197 35.9879 40.6464 36.1166L40.3999 36.125H26.3989V33.6875H40.3999C41.0074 33.6875 41.5095 33.229 41.589 32.6341L41.5999 32.4688V18.6562C41.5999 18.0392 41.1485 17.5293 40.5627 17.4486L40.3999 17.4375H21.9993C21.477 17.4375 21.0327 17.7764 20.8678 18.2494L18.4211 18.2507C18.6103 16.5093 20.0036 15.1364 21.7369 15.0096L21.9993 15H40.3999ZM33.1997 29.625C33.8624 29.625 34.3997 30.1707 34.3997 30.8438C34.3997 31.5168 33.8624 32.0625 33.1997 32.0625H29.1995C28.5368 32.0625 27.9995 31.5168 27.9995 30.8438C27.9995 30.1707 28.5368 29.625 29.1995 29.625H33.1997Z" fill="#0078D4"/>
</svg>
