<svg width="56" height="56" viewBox="0 0 56 56" fill="none" xmlns="http://www.w3.org/2000/svg">
<rect width="56" height="56" rx="18" fill="#F5F5F5"/>
<path d="M38.0781 21.2143C38.9844 21.6932 39.6979 22.3439 40.2188 23.1664C40.7396 23.9889 41 24.9208 41 25.9619C41 27.7423 40.7969 29.455 40.3906 31.1C39.9844 32.7451 39.3802 34.2964 38.5781 35.754C37.776 37.2116 36.7865 38.5495 35.6094 39.7677C34.4323 40.9858 33.0677 42.0582 31.5156 42.9849C30.9635 43.318 30.3958 43.5679 29.8125 43.7345C29.2292 43.9011 28.6146 43.9896 27.9688 44C27.3333 44 26.7292 43.9167 26.1562 43.7501C25.5833 43.5835 25.0156 43.3285 24.4531 42.9849C22.9323 42.0687 21.5833 40.9963 20.4062 39.7677C19.2292 38.5391 18.2396 37.196 17.4375 35.7384C16.6354 34.2808 16.0312 32.7295 15.625 31.0844C15.2188 29.4394 15.0104 27.7319 15 25.9619C15 24.9 15.2708 23.9525 15.8125 23.1196C16.3542 22.2866 17.099 21.6307 18.0469 21.1518C18.1198 20.2876 18.2969 19.4651 18.5781 18.6842C18.8594 17.9034 19.224 17.1694 19.6719 16.4822C20.1198 15.795 20.651 15.1807 21.2656 14.6393C21.8802 14.0979 22.5417 13.6294 23.25 13.2338C23.9583 12.8381 24.724 12.5362 25.5469 12.328C26.3698 12.1197 27.2083 12.0104 28.0625 12C29.3646 12 30.599 12.2343 31.7656 12.7028C32.9323 13.1713 33.9688 13.8168 34.875 14.6393C35.7812 15.4619 36.5156 16.4353 37.0781 17.5598C37.6406 18.6842 37.974 19.9024 38.0781 21.2143ZM20.1562 20.5271C20.5104 20.4646 20.8646 20.4126 21.2188 20.3709C21.5729 20.3293 21.9323 20.2876 22.2969 20.246C22.4844 19.6109 22.7656 19.033 23.1406 18.5124C23.5156 17.9919 23.9583 17.5442 24.4688 17.1694C24.9792 16.7945 25.5417 16.5082 26.1562 16.3104C26.7708 16.1126 27.4062 16.0085 28.0625 15.998C28.7292 15.998 29.3698 16.1022 29.9844 16.3104C30.599 16.5186 31.1562 16.8102 31.6562 17.185C32.1562 17.5598 32.599 18.0075 32.9844 18.5281C33.3698 19.0486 33.6562 19.6317 33.8438 20.2772L34.9062 20.4021C35.2604 20.4438 35.6146 20.4959 35.9688 20.5583C35.7917 19.6109 35.4635 18.7363 34.9844 17.9346C34.5052 17.1329 33.9167 16.4405 33.2188 15.8575C32.5208 15.2744 31.7292 14.8215 30.8438 14.4988C29.9583 14.176 29.0312 14.0094 28.0625 13.999C27.0938 13.999 26.1719 14.1604 25.2969 14.4832C24.4219 14.8059 23.6354 15.2536 22.9375 15.8263C22.2396 16.3989 21.6458 17.0913 21.1562 17.9034C20.6667 18.7155 20.3333 19.59 20.1562 20.5271ZM31.6094 20.1054C31.2448 19.4495 30.75 18.9341 30.125 18.5593C29.5 18.1845 28.8125 17.9971 28.0625 17.9971C27.3229 17.9971 26.6406 18.1845 26.0156 18.5593C25.3906 18.9341 24.8958 19.4443 24.5312 20.0898C25.6354 20.0273 26.7448 19.9961 27.8594 19.9961C28.4844 19.9961 29.1094 20.0065 29.7344 20.0273C30.3594 20.0482 30.9844 20.0742 31.6094 20.1054ZM38.9844 25.9619C38.9844 25.5038 38.9062 25.0874 38.75 24.7125C38.5938 24.3377 38.3802 24.0046 38.1094 23.713C37.8385 23.4215 37.5208 23.182 37.1562 22.9946C36.7917 22.8072 36.3854 22.6719 35.9375 22.5886C35.3333 22.4845 34.6979 22.396 34.0312 22.3231C33.3646 22.2502 32.6823 22.1877 31.9844 22.1357C31.2865 22.0836 30.6042 22.0472 29.9375 22.0264C29.2708 22.0055 28.625 21.9951 28 21.9951C27.3854 21.9951 26.7396 22.0055 26.0625 22.0264C25.3854 22.0472 24.7031 22.0784 24.0156 22.1201C23.3281 22.1617 22.651 22.2242 21.9844 22.3075C21.3177 22.3908 20.6771 22.4845 20.0625 22.5886C19.625 22.6719 19.224 22.802 18.8594 22.979C18.4948 23.156 18.1719 23.3903 17.8906 23.6818C17.6094 23.9733 17.3958 24.3065 17.25 24.6813C17.1042 25.0561 17.026 25.4778 17.0156 25.9463C17.0156 28.0703 17.349 30.1214 18.0156 32.0996C18.6823 34.0778 19.7031 35.8842 21.0781 37.5188C21.4844 36.9566 21.9479 36.462 22.4688 36.0351C22.9896 35.6083 23.5521 35.2439 24.1562 34.9419C24.7604 34.64 25.3906 34.4161 26.0469 34.2704C26.7031 34.1246 27.3802 34.0465 28.0781 34.0361C28.7552 34.0361 29.4167 34.1142 30.0625 34.2704C30.7083 34.4265 31.3333 34.6504 31.9375 34.9419C32.5417 35.2334 33.099 35.5874 33.6094 36.0039C34.1198 36.4204 34.5885 36.8993 35.0156 37.4407C36.3906 35.8061 37.3958 34.0153 38.0312 32.0683C38.6667 30.1214 38.9844 28.0859 38.9844 25.9619ZM28.0625 23.9941C28.6146 23.9941 29.1302 24.0983 29.6094 24.3065C30.0885 24.5147 30.5156 24.801 30.8906 25.1654C31.2656 25.5299 31.5521 25.9515 31.75 26.4305C31.9479 26.9094 32.0573 27.43 32.0781 27.9922C32.0781 28.544 31.974 29.0646 31.7656 29.5539C31.5573 30.0433 31.2708 30.4649 30.9062 30.8189C30.5417 31.1729 30.1146 31.4592 29.625 31.6779C29.1354 31.8965 28.6146 32.0007 28.0625 31.9902C27.5104 31.9902 26.9896 31.8861 26.5 31.6779C26.0104 31.4697 25.5833 31.1885 25.2188 30.8346C24.8542 30.4806 24.5677 30.0537 24.3594 29.5539C24.151 29.0542 24.0469 28.5336 24.0469 27.9922C24.0469 27.4404 24.151 26.925 24.3594 26.4461C24.5677 25.9671 24.8594 25.5403 25.2344 25.1654C25.6094 24.7906 26.0312 24.5043 26.5 24.3065C26.9688 24.1087 27.4896 24.0046 28.0625 23.9941ZM26.0469 27.9922C26.0469 28.2733 26.099 28.5336 26.2031 28.7731C26.3073 29.0125 26.4479 29.2208 26.625 29.3978C26.8021 29.5748 27.0156 29.7205 27.2656 29.835C27.5156 29.9496 27.7812 30.0016 28.0625 29.9912C28.3438 29.9912 28.6042 29.9392 28.8438 29.835C29.0833 29.7309 29.2969 29.5904 29.4844 29.4134C29.6719 29.2364 29.8177 29.0229 29.9219 28.7731C30.026 28.5232 30.0781 28.2629 30.0781 27.9922C30.0781 27.7111 30.026 27.4508 29.9219 27.2113C29.8177 26.9719 29.6719 26.7636 29.4844 26.5866C29.2969 26.4096 29.0833 26.2639 28.8438 26.1493C28.6042 26.0348 28.3438 25.9828 28.0625 25.9932C27.7917 25.9932 27.5365 26.0452 27.2969 26.1493C27.0573 26.2535 26.8438 26.394 26.6562 26.571C26.4688 26.748 26.3229 26.9614 26.2188 27.2113C26.1146 27.4612 26.0573 27.7215 26.0469 27.9922ZM28.0781 36.0351C26.9427 36.0351 25.8854 36.2902 24.9062 36.8004C23.9271 37.3106 23.125 38.0446 22.5 39.0024C23.4167 39.8562 24.4219 40.6162 25.5156 41.2826C25.901 41.5116 26.2917 41.6834 26.6875 41.798C27.0833 41.9125 27.5104 41.9749 27.9688 41.9854C28.4896 41.9854 29.0052 41.8917 29.5156 41.7042C30.026 41.5168 30.526 41.267 31.0156 40.9546C31.5052 40.6423 31.9688 40.3143 32.4062 39.9707C32.8438 39.6271 33.2448 39.2731 33.6094 38.9087C33.2969 38.461 32.9375 38.0602 32.5312 37.7062C32.125 37.3522 31.6823 37.0503 31.2031 36.8004C30.724 36.5505 30.224 36.3631 29.7031 36.2382C29.1823 36.1132 28.6406 36.0456 28.0781 36.0351Z" fill="url(#paint0_linear_1118_11731)"/>
<defs>
<linearGradient id="paint0_linear_1118_11731" x1="28" y1="12" x2="28" y2="44" gradientUnits="userSpaceOnUse">
<stop offset="1.0001" stop-color="#0078D4"/>
</linearGradient>
</defs>
</svg>
