<svg width="64" height="64" viewBox="0 0 64 64" fill="none" xmlns="http://www.w3.org/2000/svg">
<circle cx="32" cy="32" r="32" fill="#F5F5F5"/>
<g clip-path="url(#clip0_1353_20)">
<path d="M26.8871 25.2477C28.2064 25.248 29.2765 26.3063 29.2766 27.6117V40.4449C29.2766 41.7503 28.2065 42.8086 26.8871 42.8089H20.7361C19.4165 42.8089 18.3467 41.7505 18.3467 40.4449V27.6117C18.3467 26.3061 19.4165 25.2477 20.7361 25.2477H26.8871ZM23.4696 38.0742C22.9043 38.0745 22.4457 38.5281 22.4455 39.0874C22.4455 39.6469 22.9042 40.1004 23.4696 40.1005H24.1523C24.7179 40.1005 25.1764 39.6471 25.1764 39.0874C25.1761 38.5281 24.7178 38.0742 24.1523 38.0742H23.4696ZM44.6293 36.7261C45.1948 36.7261 45.6533 37.1797 45.6533 37.7392C45.6532 38.2519 45.2688 38.6758 44.7694 38.7432L44.6293 38.7524L30.6353 38.751V36.7247L44.6293 36.7261ZM40.5344 21.1911C41.854 21.1911 42.9236 22.2497 42.9239 23.5551V33.6879C42.9236 34.9933 41.854 36.052 40.5344 36.052L30.6353 36.0507V26.5946C30.6353 25.1704 29.5214 24.004 28.1085 23.9007L27.9045 23.8928L21.0775 23.8915V23.5551C21.0777 22.2497 22.1474 21.1911 23.4669 21.1911H40.5344Z" fill="#0078D4"/>
</g>
<defs>
<clipPath id="clip0_1353_20">
<rect width="27.3067" height="27.3067" fill="white" transform="translate(18.3467 18.3467)"/>
</clipPath>
</defs>
</svg>
