<svg width="120" height="120" viewBox="0 0 120 120" fill="none" xmlns="http://www.w3.org/2000/svg">
<circle cx="60" cy="60" r="60" fill="#F5F5F5"/>
<g clip-path="url(#clip0_1353_20)">
<path d="M50.4132 47.3394C52.8869 47.34 54.8933 49.3244 54.8934 51.772V75.8341C54.8934 78.2819 52.887 80.2661 50.4132 80.2667H38.8801C36.4058 80.2667 34.3999 78.2821 34.3999 75.8341V51.772C34.4 49.324 36.4058 47.3394 38.8801 47.3394H50.4132ZM44.0054 71.3892C42.9455 71.3897 42.0856 72.2402 42.0853 73.2889C42.0853 74.3379 42.9452 75.1883 44.0054 75.1885H45.2854C46.3459 75.1885 47.2056 74.3382 47.2056 73.2889C47.2051 72.2402 46.3457 71.3892 45.2854 71.3892H44.0054ZM83.6798 68.8614C84.7402 68.8614 85.5999 69.7119 85.5999 70.7611C85.5997 71.7222 84.8789 72.5171 83.9425 72.6435L83.6798 72.6607L57.4411 72.6581V68.8589L83.6798 68.8614ZM76.0019 39.7333C78.4761 39.7333 80.4817 41.7182 80.4823 44.1659V63.1649C80.4817 65.6125 78.4761 67.5974 76.0019 67.5974L57.4411 67.595V49.8649C57.4411 47.1945 55.3524 45.0075 52.7033 44.8139L52.3208 44.7991L39.5202 44.7966V44.1659C39.5206 41.7182 41.5263 39.7333 44.0004 39.7333H76.0019Z" fill="#0078D4"/>
</g>
<defs>
<clipPath id="clip0_1353_20">
<rect width="51.2" height="51.2" fill="white" transform="translate(34.3999 34.4)"/>
</clipPath>
</defs>
</svg>
