<svg width="64" height="64" viewBox="0 0 64 64" fill="none" xmlns="http://www.w3.org/2000/svg">
<circle cx="32" cy="32" r="32" fill="#F5F5F5"/>
<path d="M30.2777 20.8155C31.2638 19.7314 32.8915 19.8897 33.688 20.7513V20.7543C33.7092 20.7752 37.6671 25.1626 37.664 25.1611C36.7144 24.7176 34.1461 24.1442 32.1831 26.2587C32.174 26.2706 25.4066 33.7955 25.4066 33.7955L30.7708 37.1002L28.9822 38.2023C26.1257 39.8927 23.2813 38.9967 22.2255 38.3456C22.0525 38.2381 19.3962 36.5999 19.3962 36.5999C18.2494 35.904 17.9991 34.4451 18.8607 33.4923C19.1657 33.1533 29.991 21.1306 30.2777 20.8155ZM40.1079 27.8297C40.1034 27.8117 45.1459 33.4908 45.1656 33.5132C45.8953 34.3405 45.8771 35.8488 44.624 36.5969C44.3965 36.7328 33.2632 43.5961 33.2632 43.5961C32.5062 44.0635 31.5247 44.0635 30.7677 43.5961L25.4976 40.3571C27.5107 40.8275 29.2826 39.5492 29.2826 39.5492L38.6258 33.7925L33.0114 27.5474C33.8184 26.6992 34.8758 26.0407 36.1743 26.0078C36.1905 26.0072 36.2067 26.0062 36.2229 26.0051C36.2479 26.0035 36.273 26.0018 36.2987 26.0018C37.8567 26.0018 39.2887 26.7082 40.1079 27.8297Z" fill="#0078D4"/>
</svg>
