<svg width="120" height="120" viewBox="0 0 120 120" fill="none" xmlns="http://www.w3.org/2000/svg">
<circle cx="60" cy="60" r="60" fill="#F5F5F5"/>
<path d="M56.7707 39.0291C58.6196 36.9963 61.6716 37.2931 63.1649 38.9087V38.9143C63.2047 38.9535 70.6258 47.1798 70.6201 47.177C68.8395 46.3454 64.0239 45.2702 60.3433 49.235C60.3262 49.2574 47.6374 63.3665 47.6374 63.3665L57.6952 69.5628L54.3416 71.6292C48.9857 74.7987 43.6524 73.1188 41.6727 71.898C41.3485 71.6964 36.368 68.6248 36.368 68.6248C34.2176 67.32 33.7483 64.5845 35.3639 62.7981C35.9356 62.1625 56.2332 39.6199 56.7707 39.0291ZM75.2024 52.1806C75.1938 52.147 84.6486 62.7953 84.6855 62.8373C86.0537 64.3885 86.0196 67.2164 83.6701 68.6192C83.2434 68.874 62.3685 81.7427 62.3685 81.7427C60.9491 82.6191 59.1088 82.6191 57.6895 81.7427L47.8081 75.6695C51.5826 76.5515 54.9048 74.1548 54.9048 74.1548L72.4234 63.3609L61.8963 51.6514C63.4095 50.061 65.3921 48.8262 67.8269 48.7646C67.8572 48.7635 67.8875 48.7615 67.918 48.7595C67.9647 48.7565 68.0119 48.7534 68.0601 48.7534C70.9813 48.7534 73.6664 50.0778 75.2024 52.1806Z" fill="#0078D4"/>
</svg>
