<svg width="64" height="64" viewBox="0 0 64 64" fill="none" xmlns="http://www.w3.org/2000/svg">
<circle cx="32" cy="32" r="32" fill="#F5F5F5"/>
<path d="M41.5083 36.6581C42.6266 36.1898 43.3759 35.2444 43.3779 34.0897V29.3843C41.5672 30.9948 38.9315 31.0314 36.9606 29.6427L36.953 29.6374L26.0807 21.601C24.9936 20.7974 23.6124 20.7304 22.4918 21.1996C21.3721 21.6685 20.6223 22.6158 20.6223 23.7727V23.7792C20.6223 25.6256 20.6224 27.127 20.6226 28.3661C20.9971 28.0635 21.4163 27.8163 21.859 27.6309C23.4484 26.9653 25.4503 27.04 27.0547 28.2259L37.9197 36.2569C39.0068 37.0605 40.3878 37.1274 41.5083 36.6581Z" fill="#0078D4"/>
<path d="M20.6249 34.3709C20.6242 33.4618 20.6236 32.5526 20.6233 31.6435C20.6559 30.5218 21.397 29.6061 22.4917 29.1477C23.6123 28.6784 24.9932 28.7453 26.0804 29.5488L36.9453 37.5798C38.8309 38.9736 41.5593 38.9089 43.3777 37.4396V40.2912C43.3777 41.4573 42.6482 42.3776 41.5718 42.822C40.4911 43.2682 39.136 43.1925 38.039 42.3818L31.654 37.6487L31.65 37.6511L27.0395 34.2373C25.0462 32.777 22.3398 32.9375 20.6249 34.3709Z" fill="#0078D4"/>
<path d="M43.3776 25.8869C43.2685 27.9873 40.5565 30.0171 37.9916 28.189L33.9946 25.2004L37.9281 22.9451C40.0266 21.7873 43.4008 22.6786 43.3776 25.8869Z" fill="#0078D4"/>
<path d="M26.0478 40.9125C23.9594 42.0647 20.6223 41.1808 20.6223 38.1442C20.6223 35.3385 23.8518 34.092 25.9853 35.6873L29.9689 38.6663L26.0478 40.9125Z" fill="#0078D4"/>
</svg>
