<svg width="120" height="120" viewBox="0 0 120 120" fill="none" xmlns="http://www.w3.org/2000/svg">
<circle cx="60" cy="60" r="60" fill="#F5F5F5"/>
<path d="M77.8278 68.734C79.9245 67.8559 81.3294 66.0833 81.3332 63.9181V55.0955C77.9382 58.1152 72.9962 58.1839 69.3007 55.5801L69.2865 55.57L48.9011 40.5018C46.8627 38.9951 44.2729 38.8694 42.1718 39.7493C40.0724 40.6285 38.6665 42.4046 38.6665 44.5738V44.5859C38.6665 48.048 38.6667 50.8632 38.667 53.1864C39.3692 52.619 40.1552 52.1555 40.9852 51.8079C43.9654 50.5599 47.719 50.7001 50.7273 52.9236L71.099 67.9818C73.1374 69.4884 75.7268 69.6139 77.8278 68.734Z" fill="#0078D4"/>
<path d="M38.6717 64.4454C38.6705 62.7408 38.6694 61.0362 38.6687 59.3317C38.7298 57.2283 40.1194 55.5115 42.1719 54.652C44.273 53.7721 46.8623 53.8974 48.9007 55.4041L69.2725 70.4622C72.8079 73.0755 77.9237 72.9542 81.3333 70.1992V75.5461C81.3333 77.7324 79.9655 79.4581 77.9471 80.2913C75.9208 81.1279 73.3801 80.986 71.3232 79.4659L59.3513 70.5914L59.3437 70.5958L50.6991 64.195C46.9617 61.4569 41.8871 61.7579 38.6717 64.4454Z" fill="#0078D4"/>
<path d="M81.3331 48.5379C81.1285 52.4763 76.0436 56.2821 71.2344 52.8545L63.74 47.2509L71.1152 43.0221C75.05 40.8512 81.3766 42.5224 81.3331 48.5379Z" fill="#0078D4"/>
<path d="M48.8392 76.7111C44.9236 78.8714 38.6665 77.214 38.6665 71.5203C38.6665 66.2598 44.7218 63.9226 48.7222 66.9137L56.1914 72.4994L48.8392 76.7111Z" fill="#0078D4"/>
</svg>
