<svg width="56" height="56" viewBox="0 0 56 56" fill="none" xmlns="http://www.w3.org/2000/svg">
<rect width="56" height="56" rx="18" fill="#F5F5F5"/>
<path d="M15.6 13C13.6118 13 12 14.5906 12 16.5526V33.1316C12 35.0936 13.6118 36.6842 15.6 36.6842H24V38.6579C24 39.748 23.1046 40.6316 22 40.6316H21.2C20.5373 40.6316 20 41.1618 20 41.8158C20 42.4698 20.5373 43 21.2 43H34.8C35.4627 43 36 42.4698 36 41.8158C36 41.1618 35.4627 40.6316 34.8 40.6316H34C32.8954 40.6316 32 39.748 32 38.6579V36.6842H40.4C42.3882 36.6842 44 35.0936 44 33.1316V16.5526C44 14.5906 42.3882 13 40.4 13H15.6ZM29.6 36.6842V38.6579C29.6 39.3686 29.773 40.0395 30.0798 40.6316H25.9202C26.227 40.0395 26.4 39.3686 26.4 38.6579V36.6842H29.6ZM14.4 16.5526C14.4 15.8986 14.9373 15.3684 15.6 15.3684H40.4C41.0627 15.3684 41.6 15.8986 41.6 16.5526V28.7895H14.4V16.5526ZM14.4 31.1579H41.6V33.1316C41.6 33.7856 41.0627 34.3158 40.4 34.3158H15.6C14.9373 34.3158 14.4 33.7856 14.4 33.1316V31.1579Z" fill="#0078D4"/>
</svg>
