<svg width="56" height="56" viewBox="0 0 56 56" fill="none" xmlns="http://www.w3.org/2000/svg">
<rect width="56" height="56" rx="18" fill="#F5F5F5"/>
<path d="M28.0002 14.6667C24.3183 14.6667 21.3335 17.6515 21.3335 21.3334C21.3335 25.0153 24.3183 28.0001 28.0002 28.0001C31.6821 28.0001 34.6668 25.0153 34.6668 21.3334C34.6668 17.6515 31.6821 14.6667 28.0002 14.6667ZM20.1667 30.6667C18.6023 30.6667 17.3335 31.9343 17.3335 33.4993L17.3335 34.0001C17.3335 36.5038 18.6279 38.378 20.6136 39.5869C22.5662 40.7756 25.1909 41.3334 28.0002 41.3334C30.4773 41.3334 32.811 40.8997 34.6668 39.9821V34.9894C33.2344 34.0306 32.2361 32.4698 32.0368 30.6667H20.1667ZM33.3808 30.6667C33.3496 30.449 33.3335 30.2264 33.3335 30.0001C33.3335 27.4228 35.4228 25.3334 38.0002 25.3334C40.5775 25.3334 42.6668 27.4228 42.6668 30.0001C42.6668 32.1141 41.2612 33.8998 39.3335 34.4735V34.6667L40.8621 36.1953C41.1224 36.4557 41.1224 36.8778 40.8621 37.1382L39.3335 38.6667L40.8816 40.2149C41.1342 40.4675 41.1428 40.8743 40.9012 41.1373L38.4707 43.7829C38.2141 44.0622 37.7765 44.0715 37.5084 43.8033L36.1954 42.4904C36.0704 42.3653 36.0002 42.1958 36.0002 42.019V34.2177C34.6152 33.5597 33.6058 32.2398 33.3808 30.6667ZM39.3335 29.3334C39.3335 28.597 38.7365 28.0001 38.0002 28.0001C37.2638 28.0001 36.6668 28.597 36.6668 29.3334C36.6668 30.0698 37.2638 30.6667 38.0002 30.6667C38.7365 30.6667 39.3335 30.0698 39.3335 29.3334Z" fill="url(#paint0_linear_1118_11706)"/>
<defs>
<linearGradient id="paint0_linear_1118_11706" x1="30.0002" y1="14.6667" x2="30.0002" y2="43.9986" gradientUnits="userSpaceOnUse">
<stop offset="1.0001" stop-color="#0078D4"/>
</linearGradient>
</defs>
</svg>
