<svg width="56" height="56" viewBox="0 0 56 56" fill="none" xmlns="http://www.w3.org/2000/svg">
<rect width="56" height="56" rx="18" fill="#F5F5F5"/>
<path d="M39 32.9996C39 34.01 38.8698 34.984 38.6094 35.9214C38.349 36.8589 37.9792 37.7339 37.5 38.5464C37.0209 39.3589 36.448 40.1037 35.7813 40.7807C35.1147 41.4578 34.3751 42.0307 33.5626 42.4994C32.7502 42.9682 31.87 43.338 30.9221 43.6088C29.9742 43.8796 29.0003 44.0098 28.0003 43.9994C26.9899 43.9994 26.016 43.8692 25.0785 43.6088C24.141 43.3484 23.266 42.9786 22.4536 42.4994C21.6411 42.0203 20.8963 41.4474 20.2192 40.7807C19.5422 40.1141 18.9693 39.3745 18.5005 38.562C18.0318 37.7495 17.662 36.8693 17.3912 35.9214C17.1204 34.9735 16.9902 33.9996 17.0006 32.9996V25.9997L23.0004 31.9996H19.0005V32.9996C19.0005 34.2392 19.2349 35.4058 19.7036 36.4996C20.1724 37.5933 20.8182 38.5464 21.6411 39.3589C22.464 40.1714 23.4171 40.812 24.5004 41.2807C25.5837 41.7495 26.7503 41.989 28.0003 41.9995C29.2398 41.9995 30.4065 41.7651 31.5002 41.2963C32.5939 40.8276 33.547 40.1818 34.3595 39.3589C35.172 38.536 35.8126 37.5829 36.2813 36.4996C36.7501 35.4162 36.9896 34.2496 37.0001 32.9996C37.0001 31.6976 36.7344 30.458 36.2032 29.2809C35.672 28.1039 34.9116 27.0831 33.922 26.2185L31.6721 24.2498C30.9221 23.5935 30.1669 22.9373 29.4065 22.2811C28.7503 21.7186 28.2242 21.0519 27.8284 20.2811C27.4326 19.5103 27.1722 18.6978 27.0472 17.8436C26.4326 17.6353 25.9378 17.2707 25.5629 16.7499C25.1879 16.2291 25.0004 15.6458 25.0004 14.9999C25.0004 14.5833 25.0785 14.1927 25.2347 13.8281C25.391 13.4635 25.6045 13.1458 25.8753 12.875C26.1462 12.6042 26.4639 12.3906 26.8284 12.2344C27.193 12.0781 27.5836 12 28.0003 12C28.4169 12 28.8076 12.0781 29.1721 12.2344C29.5367 12.3906 29.8544 12.6042 30.1252 12.875C30.3961 13.1458 30.6096 13.4635 30.7658 13.8281C30.9221 14.1927 31.0002 14.5833 31.0002 14.9999C31.0002 15.6249 30.8231 16.1926 30.469 16.703C30.1148 17.2134 29.6461 17.5832 29.0628 17.8124C29.1565 18.3957 29.344 18.9374 29.6252 19.4374C29.9065 19.9374 30.2711 20.3801 30.719 20.7655L35.2345 24.7029C35.8282 25.2237 36.3594 25.7966 36.8282 26.4216C37.2969 27.0466 37.6927 27.7185 38.0157 28.4372C38.3386 29.1559 38.5833 29.8955 38.75 30.6559C38.9167 31.4163 39 32.1976 39 32.9996ZM28.0003 14C27.7295 14 27.4951 14.0989 27.2972 14.2968C27.0993 14.4947 27.0003 14.7291 27.0003 14.9999C27.0003 15.2708 27.0993 15.5051 27.2972 15.7031C27.4951 15.901 27.7295 15.9999 28.0003 15.9999C28.2711 15.9999 28.5055 15.901 28.7034 15.7031C28.9013 15.5051 29.0003 15.2708 29.0003 14.9999C29.0003 14.7291 28.9013 14.4947 28.7034 14.2968C28.5055 14.0989 28.2711 14 28.0003 14Z" fill="url(#paint0_linear_1118_11714)"/>
<defs>
<linearGradient id="paint0_linear_1118_11714" x1="28" y1="12" x2="28" y2="44" gradientUnits="userSpaceOnUse">
<stop offset="1.0001" stop-color="#0078D4"/>
</linearGradient>
</defs>
</svg>
