<svg width="56" height="56" viewBox="0 0 56 56" fill="none" xmlns="http://www.w3.org/2000/svg">
<rect width="56" height="56" rx="18" fill="#F5F5F5"/>
<g clip-path="url(#clip0_1118_11727)">
<path d="M12 18.2697C12 15.6355 14.132 13.5 16.7619 13.5H37.7143C40.3442 13.5 42.4762 15.6355 42.4762 18.2697V26.9462C40.6965 25.2355 38.2804 24.1842 35.619 24.1842C33.8163 24.1842 32.1261 24.6666 30.67 25.5095L29.3469 24.1842L30.7687 22.7601C31.1406 22.3875 31.1406 21.7835 30.7687 21.411C30.3967 21.0385 29.7938 21.0385 29.4218 21.411L28 22.8351L26.5782 21.411C26.2062 21.0385 25.6033 21.0385 25.2313 21.411C24.8594 21.7835 24.8594 22.3875 25.2313 22.7601L26.6531 24.1842L25.2313 25.6083C24.8594 25.9809 24.8594 26.5849 25.2313 26.9574C25.6033 27.3299 26.2062 27.3299 26.5782 26.9574L28 25.5333L29.1004 26.6355C27.0251 28.4541 25.7143 31.1264 25.7143 34.1053C25.7143 34.3621 25.724 34.6166 25.7432 34.8684H16.7619C14.132 34.8684 12 32.733 12 30.0987V18.2697ZM18.1973 21.411C17.8253 21.0385 17.2223 21.0385 16.8504 21.411C16.4784 21.7835 16.4784 22.3875 16.8504 22.7601L18.2722 24.1842L16.8504 25.6083C16.4784 25.9809 16.4784 26.5849 16.8504 26.9574C17.2223 27.3299 17.8253 27.3299 18.1973 26.9574L19.619 25.5333L21.0408 26.9574C21.4128 27.3299 22.0158 27.3299 22.3877 26.9574C22.7596 26.5849 22.7596 25.9809 22.3877 25.6083L20.9659 24.1842L22.3877 22.7601C22.7596 22.3875 22.7596 21.7835 22.3877 21.411C22.0158 21.0385 21.4128 21.0385 21.0408 21.411L19.619 22.8351L18.1973 21.411ZM44 34.1053C44 38.7415 40.2477 42.5 35.619 42.5C30.9904 42.5 27.2381 38.7415 27.2381 34.1053C27.2381 29.469 30.9904 25.7105 35.619 25.7105C40.2477 25.7105 44 29.469 44 34.1053ZM40.1905 34.1053C40.1905 33.6838 39.8494 33.3421 39.4286 33.3421H36.381V28.7632C36.381 28.3417 36.0398 28 35.619 28C35.1982 28 34.8571 28.3417 34.8571 28.7632V34.1053C34.8571 34.3077 34.9374 34.5018 35.0803 34.6449C35.2232 34.788 35.417 34.8684 35.619 34.8684H39.4286C39.8494 34.8684 40.1905 34.5268 40.1905 34.1053Z" fill="url(#paint0_linear_1118_11727)"/>
</g>
<defs>
<linearGradient id="paint0_linear_1118_11727" x1="28" y1="13.5" x2="28" y2="42.5" gradientUnits="userSpaceOnUse">
<stop offset="1.0001" stop-color="#0078D4"/>
</linearGradient>
<clipPath id="clip0_1118_11727">
<rect width="32" height="29" fill="white" transform="translate(12 13.5)"/>
</clipPath>
</defs>
</svg>
