<svg width="56" height="56" viewBox="0 0 56 56" fill="none" xmlns="http://www.w3.org/2000/svg">
<rect width="56" height="56" rx="18" fill="#F5F5F5"/>
<g clip-path="url(#clip0_1118_11723)">
<path d="M27.9452 15.5C29.5069 15.5 31.0685 15.7232 32.6301 16.1696C34.1918 16.6021 35.6644 17.2299 37.0479 18.053C38.4315 18.8761 39.6849 19.8736 40.8082 21.0455C41.9452 22.2034 42.8767 23.5008 43.6028 24.9378C43.6849 25.1192 43.7534 25.3005 43.8082 25.4819C43.863 25.6632 43.8904 25.8516 43.8904 26.0469C43.8904 26.3956 43.8288 26.7165 43.7055 27.0095C43.5822 27.2885 43.4109 27.5326 43.1918 27.7419C42.9726 27.9372 42.7192 28.0907 42.4315 28.2023C42.1438 28.3139 41.8356 28.3697 41.5069 28.3697C41.0822 28.3697 40.7192 28.2581 40.4178 28.0349C40.1164 27.7977 39.8562 27.5117 39.637 27.1769C39.4589 26.8979 39.2877 26.6188 39.1233 26.3398C38.9589 26.0608 38.7808 25.7888 38.589 25.5237C37.9726 24.6727 37.2603 23.9124 36.452 23.2428C35.6576 22.5731 34.8014 22.0081 33.8836 21.5477C32.9795 21.0734 32.0206 20.7176 31.0069 20.4804C30.0068 20.2294 28.9863 20.1038 27.9452 20.1038C26.8082 20.1038 25.6986 20.2503 24.6164 20.5433C23.5342 20.8223 22.5069 21.2338 21.5342 21.7779C20.5753 22.322 19.6849 22.9846 18.863 23.7659C18.0411 24.5332 17.3219 25.4051 16.7055 26.3817C16.6096 26.5352 16.5274 26.6817 16.4589 26.8212C16.3904 26.9467 16.3082 27.0862 16.2123 27.2397C16.0068 27.5884 15.7329 27.8675 15.3904 28.0767C15.0479 28.2721 14.6781 28.3697 14.2808 28.3697C13.9658 28.3697 13.6712 28.3069 13.3973 28.1813C13.1233 28.0558 12.8836 27.8884 12.6781 27.6791C12.4726 27.4699 12.3082 27.2257 12.1849 26.9467C12.0616 26.6677 12 26.3678 12 26.0469C12 25.6702 12.0959 25.3005 12.2877 24.9378C13.0822 23.4729 14.0342 22.1616 15.1438 21.0036C16.2671 19.8318 17.5 18.8412 18.8425 18.0321C20.1986 17.209 21.6438 16.5812 23.1781 16.1487C24.7123 15.7162 26.3014 15.5 27.9452 15.5ZM27.9452 27.0304C28.8493 27.0304 29.6986 27.2048 30.4932 27.5536C31.2877 27.9023 31.9794 28.3837 32.5685 28.9975C33.1575 29.5974 33.6233 30.3019 33.9658 31.1111C34.3082 31.9202 34.4794 32.7852 34.4794 33.7059C34.4794 34.6406 34.3014 35.5125 33.9452 36.3217C33.6027 37.1308 33.1301 37.8354 32.5274 38.4353C31.9384 39.0352 31.2466 39.5095 30.4521 39.8583C29.6575 40.2071 28.8082 40.3814 27.9041 40.3814C26.9863 40.3814 26.1301 40.2071 25.3356 39.8583C24.5548 39.5095 23.8699 39.0352 23.2808 38.4353C22.7055 37.8214 22.2466 37.1099 21.9041 36.3008C21.5754 35.4777 21.411 34.6058 21.411 33.685C21.411 32.7642 21.5822 31.9062 21.9246 31.1111C22.2671 30.3019 22.7329 29.5974 23.3219 28.9975C23.9246 28.3837 24.6164 27.9023 25.3973 27.5536C26.1918 27.2048 27.0411 27.0304 27.9452 27.0304Z" fill="url(#paint0_linear_1118_11723)"/>
</g>
<defs>
<linearGradient id="paint0_linear_1118_11723" x1="27.9452" y1="15.5" x2="27.9452" y2="40.3814" gradientUnits="userSpaceOnUse">
<stop offset="1.0001" stop-color="#0078D4"/>
</linearGradient>
<clipPath id="clip0_1118_11723">
<rect width="32" height="25" fill="white" transform="translate(12 15.5)"/>
</clipPath>
</defs>
</svg>
