<svg xmlns="http://www.w3.org/2000/svg" xmlns:xlink="http://www.w3.org/1999/xlink" viewBox="0 0 325 514">
  <defs>
    <symbol id="New_Symbol_125" data-name="New Symbol 125" viewBox="0 0 32 16">
      <path d="M31,8c0,3.85-3.6,7-8,7H9c-4.4,0-8-3.15-8-7S4.6,1,9,1H23C27.4,1,31,4.15,31,8Z" fill="#fff"/>
      <path d="M23,16H9c-5,0-9-3.59-9-8S4,0,9,0H23c5,0,9,3.59,9,8S28,16,23,16ZM9,2C5.14,2,2,4.69,2,8s3.14,6,7,6H23c3.86,0,7-2.69,7-6s-3.14-6-7-6Z" fill="#0072c6"/>
    </symbol>
  </defs>
  <title>add-win32-app</title>
  <g id="Shapes">
    <rect width="325" height="514" fill="#fff"/>
    <g>
      <path d="M90,350h50a5,5,0,0,1,5,5v59.62" fill="none" stroke="#000" stroke-miterlimit="10"/>
      <polygon points="141.26 413.56 145 420.04 148.74 413.56 141.26 413.56"/>
    </g>
    <g>
      <path d="M60.77,350H30a5,5,0,0,0-5,5v85a5,5,0,0,0,5,5h74.62" fill="none" stroke="#000" stroke-miterlimit="10"/>
      <polygon points="103.52 448.78 110 445.04 103.52 441.3 103.52 448.78"/>
    </g>
    <g>
      <path d="M76,329.66V299.88a5,5,0,0,1,5-5H270a5,5,0,0,1,5,5v29.78" fill="none" stroke="#000" stroke-miterlimit="10"/>
      <polygon points="79.78 328.56 76.04 335.04 72.3 328.56 79.78 328.56"/>
      <polygon points="271.26 328.56 275 335.04 278.74 328.56 271.26 328.56"/>
    </g>
    <g>
      <line x1="176.22" y1="32.96" x2="176.22" y2="49.27" fill="none" stroke="#000" stroke-miterlimit="10"/>
      <polygon points="172.48 48.18 176.22 54.65 179.96 48.18 172.48 48.18"/>
    </g>
    <use width="32" height="16" transform="translate(160.22 16.96)" xlink:href="#New_Symbol_125"/>
    <rect x="108.72" y="55.04" width="135" height="20" fill="#50e6ff" opacity="0.5"/>
    <rect x="108.72" y="90.04" width="135" height="20" fill="#50e6ff" opacity="0.5"/>
    <rect x="166.22" y="285.04" width="20" height="20" transform="translate(260.24 -38.19) rotate(45)" fill="#0072c6"/>
    <rect x="65.86" y="340.9" width="20" height="20" transform="translate(270.34 49.14) rotate(45)" fill="#0072c6"/>
    <g>
      <line x1="176.22" y1="455.04" x2="176.22" y2="471.35" fill="none" stroke="#000" stroke-miterlimit="10"/>
      <polygon points="172.48 470.26 176.22 476.73 179.96 470.26 172.48 470.26"/>
    </g>
    <rect x="108.72" y="160.04" width="135" height="35" fill="#50e6ff" opacity="0.5"/>
    <rect x="225" y="335.04" width="100" height="35" fill="#50e6ff" opacity="0.5"/>
    <rect x="108.72" y="210.04" width="135" height="35" fill="#50e6ff" opacity="0.5"/>
    <rect x="110" y="420.04" width="135" height="35" fill="#50e6ff" opacity="0.5"/>
    <g>
      <line x1="176.22" y1="75.04" x2="176.22" y2="85.16" fill="none" stroke="#000" stroke-miterlimit="10"/>
      <polygon points="172.48 84.07 176.22 90.54 179.96 84.07 172.48 84.07"/>
    </g>
    <rect x="108.72" y="125.04" width="135" height="20" fill="#50e6ff" opacity="0.5"/>
    <g>
      <line x1="176.22" y1="110.04" x2="176.22" y2="120.16" fill="none" stroke="#000" stroke-miterlimit="10"/>
      <polygon points="172.48 119.07 176.22 125.54 179.96 119.07 172.48 119.07"/>
    </g>
    <g>
      <line x1="176.22" y1="145.04" x2="176.22" y2="155.16" fill="none" stroke="#000" stroke-miterlimit="10"/>
      <polygon points="172.48 154.07 176.22 160.54 179.96 154.07 172.48 154.07"/>
    </g>
    <g>
      <line x1="176.22" y1="195.04" x2="176.22" y2="205.16" fill="none" stroke="#000" stroke-miterlimit="10"/>
      <polygon points="172.48 204.07 176.22 210.54 179.96 204.07 172.48 204.07"/>
    </g>
    <g>
      <line x1="176.22" y1="245.04" x2="176.22" y2="275.35" fill="none" stroke="#000" stroke-miterlimit="10"/>
      <polygon points="172.48 274.26 176.22 280.74 179.96 274.26 172.48 274.26"/>
    </g>
    <g>
      <g>
        <path d="M191.22,486c0,3.85-3.6,7-8,7h-14c-4.4,0-8-3.15-8-7s3.6-7,8-7h14C187.62,479,191.22,482.19,191.22,486Z" fill="#fff"/>
        <path d="M183.22,494h-14c-5,0-9-3.59-9-8s4-8,9-8h14c5,0,9,3.59,9,8S188.18,494,183.22,494Zm-14-14c-3.86,0-7,2.69-7,6s3.14,6,7,6h14c3.86,0,7-2.69,7-6s-3.14-6-7-6Z" fill="#0072c6"/>
      </g>
      <rect x="160.63" y="478.54" width="30.58" height="15" rx="7.5" fill="#0072c6"/>
    </g>
    <g>
      <path d="M275,370v60a5,5,0,0,1-5,5H250.38" fill="none" stroke="#000" stroke-miterlimit="10"/>
      <polygon points="251.48 431.3 245 435.04 251.48 438.78 251.48 431.3"/>
    </g>
    <g>
      <path d="M75.86,365v60a5,5,0,0,0,5,5h23.76" fill="none" stroke="#000" stroke-miterlimit="10"/>
      <polygon points="103.52 433.78 110 430.04 103.52 426.3 103.52 433.78"/>
    </g>
    <rect x="20" y="371.41" width="10" height="20.05" fill="#fff"/>
    <rect x="70" y="371.41" width="10" height="31.13" fill="#fff"/>
    <rect x="140" y="371.41" width="10" height="20.05" fill="#fff"/>
  </g>
  <g id="Text">
    <g>
      <path d="M196,263.37l-2.37,8.4h-1.16l-1.73-6.14a3.78,3.78,0,0,1-.13-.86h0a4.9,4.9,0,0,1-.16.85l-1.74,6.15h-1.14l-2.46-8.4h1.08l1.79,6.44a4.57,4.57,0,0,1,.14.85h0a5.24,5.24,0,0,1,.18-.85l1.86-6.44h.94l1.78,6.49a3.9,3.9,0,0,1,.14.78h0a4.13,4.13,0,0,1,.16-.8l1.71-6.47Z" fill="#1e1e1e"/>
      <path d="M202.07,271.77h-1v-3.46c0-1.25-.47-1.87-1.4-1.87a1.53,1.53,0,0,0-1.18.54,2,2,0,0,0-.48,1.39v3.4h-1v-8.88h1v3.88h0a2.18,2.18,0,0,1,2-1.14c1.35,0,2,.81,2,2.44Z" fill="#1e1e1e"/>
      <path d="M204.37,264.25a.61.61,0,0,1-.62-.62.61.61,0,0,1,.18-.45.6.6,0,0,1,.44-.18.62.62,0,0,1,.63.63.63.63,0,0,1-.63.62Zm.47,7.52h-1v-6h1Z" fill="#1e1e1e"/>
      <path d="M210.88,271.49a3.1,3.1,0,0,1-1.64.42,2.76,2.76,0,0,1-2.08-.83,3.06,3.06,0,0,1-.78-2.17,3.3,3.3,0,0,1,.85-2.38,3,3,0,0,1,2.26-.9,3.24,3.24,0,0,1,1.4.29v1a2.4,2.4,0,0,0-1.43-.47,1.92,1.92,0,0,0-1.51.66,2.5,2.5,0,0,0-.59,1.73,2.36,2.36,0,0,0,.55,1.66,1.91,1.91,0,0,0,1.49.61,2.41,2.41,0,0,0,1.48-.52Z" fill="#1e1e1e"/>
      <path d="M217.31,271.77h-1v-3.46c0-1.25-.47-1.87-1.4-1.87a1.53,1.53,0,0,0-1.18.54,2,2,0,0,0-.48,1.39v3.4h-1v-8.88h1v3.88h0a2.18,2.18,0,0,1,2-1.14c1.35,0,2,.81,2,2.44Z" fill="#1e1e1e"/>
      <path d="M227.53,271.77h-1v-1h0a2.21,2.21,0,0,1-2.06,1.16,2.24,2.24,0,0,1-1.81-.81,3.28,3.28,0,0,1-.67-2.19,3.57,3.57,0,0,1,.75-2.38,2.46,2.46,0,0,1,2-.9,1.9,1.9,0,0,1,1.79,1h0v-3.71h1Zm-1-2.71v-.89a1.73,1.73,0,0,0-.48-1.23,1.78,1.78,0,0,0-2.6.14,2.81,2.81,0,0,0-.51,1.78,2.56,2.56,0,0,0,.48,1.64,1.6,1.6,0,0,0,1.3.6,1.65,1.65,0,0,0,1.31-.58A2.17,2.17,0,0,0,226.57,269.06Z" fill="#1e1e1e"/>
      <path d="M234.3,269h-4.24a2.25,2.25,0,0,0,.54,1.55,1.87,1.87,0,0,0,1.42.54,2.93,2.93,0,0,0,1.86-.67v.91a3.5,3.5,0,0,1-2.09.57,2.52,2.52,0,0,1-2-.82,3.36,3.36,0,0,1-.73-2.3,3.29,3.29,0,0,1,.8-2.28,2.53,2.53,0,0,1,2-.88,2.25,2.25,0,0,1,1.82.76,3.18,3.18,0,0,1,.65,2.12Zm-1-.81a2,2,0,0,0-.4-1.3,1.36,1.36,0,0,0-1.1-.46,1.55,1.55,0,0,0-1.15.48,2.25,2.25,0,0,0-.59,1.28Z" fill="#1e1e1e"/>
      <path d="M238.53,271.71a1.76,1.76,0,0,1-.89.19c-1.06,0-1.58-.59-1.58-1.76v-3.55h-1v-.82h1V264.3l1-.31v1.78h1.51v.82H237V270a1.37,1.37,0,0,0,.21.86.81.81,0,0,0,.68.26,1,1,0,0,0,.62-.2Z" fill="#1e1e1e"/>
      <path d="M244.64,269H240.4a2.3,2.3,0,0,0,.54,1.55,1.87,1.87,0,0,0,1.42.54,2.91,2.91,0,0,0,1.86-.67v.91a3.5,3.5,0,0,1-2.09.57,2.53,2.53,0,0,1-2-.82,3.35,3.35,0,0,1-.72-2.3,3.28,3.28,0,0,1,.79-2.28,2.54,2.54,0,0,1,2-.88,2.24,2.24,0,0,1,1.82.76,3.18,3.18,0,0,1,.65,2.12Zm-1-.81a1.91,1.91,0,0,0-.4-1.3,1.36,1.36,0,0,0-1.1-.46,1.56,1.56,0,0,0-1.15.48,2.25,2.25,0,0,0-.59,1.28Z" fill="#1e1e1e"/>
      <path d="M250.18,271.49a3.1,3.1,0,0,1-1.64.42,2.72,2.72,0,0,1-2.07-.83,3,3,0,0,1-.79-2.17,3.3,3.3,0,0,1,.85-2.38,3,3,0,0,1,2.27-.9,3.2,3.2,0,0,1,1.39.29v1a2.38,2.38,0,0,0-1.43-.47,2,2,0,0,0-1.51.66,2.5,2.5,0,0,0-.58,1.73,2.36,2.36,0,0,0,.55,1.66,1.89,1.89,0,0,0,1.48.61,2.39,2.39,0,0,0,1.48-.52Z" fill="#1e1e1e"/>
      <path d="M254.42,271.71a1.82,1.82,0,0,1-.9.19c-1.05,0-1.58-.59-1.58-1.76v-3.55h-1v-.82h1V264.3l1-.31v1.78h1.51v.82h-1.51V270a1.38,1.38,0,0,0,.2.86.83.83,0,0,0,.68.26,1.05,1.05,0,0,0,.63-.2Z" fill="#1e1e1e"/>
      <path d="M256.19,264.25a.61.61,0,0,1-.62-.62.61.61,0,0,1,.18-.45.6.6,0,0,1,.44-.18.61.61,0,0,1,.45.18.62.62,0,0,1,.19.45.59.59,0,0,1-.19.43A.58.58,0,0,1,256.19,264.25Zm.47,7.52h-1v-6h1Z" fill="#1e1e1e"/>
      <path d="M261.11,271.91a2.79,2.79,0,0,1-2.12-.84,3.1,3.1,0,0,1-.79-2.23,3.23,3.23,0,0,1,.82-2.36,3,3,0,0,1,2.23-.85,2.66,2.66,0,0,1,2.1.83,3.77,3.77,0,0,1-.06,4.59A2.87,2.87,0,0,1,261.11,271.91Zm.07-5.47a1.83,1.83,0,0,0-1.46.63,2.58,2.58,0,0,0-.54,1.73,2.42,2.42,0,0,0,.55,1.69,1.84,1.84,0,0,0,1.45.61,1.77,1.77,0,0,0,1.44-.6,3.23,3.23,0,0,0,0-3.45A1.75,1.75,0,0,0,261.18,266.44Z" fill="#1e1e1e"/>
      <path d="M270.62,271.77h-1v-3.42c0-1.28-.47-1.91-1.4-1.91a1.5,1.5,0,0,0-1.19.54,2,2,0,0,0-.47,1.37v3.42h-1v-6h1v1h0a2.17,2.17,0,0,1,2-1.14,1.85,1.85,0,0,1,1.51.63,2.9,2.9,0,0,1,.52,1.84Z" fill="#1e1e1e"/>
      <path d="M194.4,285h-1v-3.45a2.57,2.57,0,0,0-.31-1.44,1.17,1.17,0,0,0-1-.44,1.3,1.3,0,0,0-1,.56,2.14,2.14,0,0,0-.43,1.35V285h-1v-3.56c0-1.18-.46-1.77-1.37-1.77a1.24,1.24,0,0,0-1,.53,2.2,2.2,0,0,0-.41,1.38V285h-1v-6h1v.95h0a2,2,0,0,1,1.87-1.09,1.71,1.71,0,0,1,1.07.34,1.81,1.81,0,0,1,.63.9,2.13,2.13,0,0,1,2-1.24c1.32,0,2,.81,2,2.44Z" fill="#1e1e1e"/>
      <path d="M201,282.21H196.8a2.3,2.3,0,0,0,.54,1.55,1.87,1.87,0,0,0,1.42.54,2.91,2.91,0,0,0,1.86-.67v.91a3.5,3.5,0,0,1-2.09.57,2.53,2.53,0,0,1-2-.82,3.35,3.35,0,0,1-.72-2.3,3.28,3.28,0,0,1,.79-2.28,2.54,2.54,0,0,1,2-.88,2.24,2.24,0,0,1,1.82.76,3.18,3.18,0,0,1,.65,2.12Zm-1-.81a1.91,1.91,0,0,0-.4-1.3,1.36,1.36,0,0,0-1.1-.46,1.56,1.56,0,0,0-1.15.48,2.25,2.25,0,0,0-.59,1.28Z" fill="#1e1e1e"/>
      <path d="M205.27,284.91a1.76,1.76,0,0,1-.89.19c-1,0-1.58-.59-1.58-1.76v-3.55h-1V279h1V277.5l1-.31V279h1.51v.82h-1.51v3.38a1.37,1.37,0,0,0,.21.86.81.81,0,0,0,.68.26,1,1,0,0,0,.62-.2Z" fill="#1e1e1e"/>
      <path d="M211.54,285h-1v-3.46c0-1.25-.47-1.87-1.4-1.87a1.51,1.51,0,0,0-1.18.54,2,2,0,0,0-.48,1.39V285h-1v-8.88h1V280h0a2.18,2.18,0,0,1,2-1.14c1.35,0,2,.81,2,2.44Z" fill="#1e1e1e"/>
      <path d="M215.86,285.11a2.79,2.79,0,0,1-2.13-.84,3.1,3.1,0,0,1-.79-2.23,3.24,3.24,0,0,1,.82-2.36,3,3,0,0,1,2.24-.85,2.66,2.66,0,0,1,2.09.83,3.77,3.77,0,0,1-.06,4.59A2.85,2.85,0,0,1,215.86,285.11Zm.07-5.47a1.84,1.84,0,0,0-1.47.63,2.58,2.58,0,0,0-.54,1.73,2.42,2.42,0,0,0,.55,1.69,1.85,1.85,0,0,0,1.46.61,1.75,1.75,0,0,0,1.43-.6,3.23,3.23,0,0,0,0-3.45A1.73,1.73,0,0,0,215.93,279.64Z" fill="#1e1e1e"/>
      <path d="M225.5,285h-1v-1h0a2.42,2.42,0,0,1-3.87.35,3.28,3.28,0,0,1-.68-2.19,3.57,3.57,0,0,1,.75-2.38,2.48,2.48,0,0,1,2-.9,1.93,1.93,0,0,1,1.8,1h0v-3.71h1Zm-1-2.71v-.89a1.73,1.73,0,0,0-.48-1.23,1.78,1.78,0,0,0-2.6.14,2.81,2.81,0,0,0-.51,1.78,2.56,2.56,0,0,0,.49,1.64,1.57,1.57,0,0,0,1.3.6,1.63,1.63,0,0,0,1.3-.58A2.17,2.17,0,0,0,224.54,282.26Z" fill="#1e1e1e"/>
      <path d="M228.44,282.64a2.32,2.32,0,0,1-.1-.4,3.88,3.88,0,0,1,0-.48,1.51,1.51,0,0,1,.15-.68,2.59,2.59,0,0,1,.37-.56,4.7,4.7,0,0,1,.49-.51c.18-.16.34-.33.49-.49a3.54,3.54,0,0,0,.37-.52,1.27,1.27,0,0,0,.15-.6,1.12,1.12,0,0,0-.11-.5,1,1,0,0,0-.3-.37,1.45,1.45,0,0,0-.43-.22,2.18,2.18,0,0,0-.52-.07,2.29,2.29,0,0,0-1.72.78v-1a3.42,3.42,0,0,1,1.86-.56,3.28,3.28,0,0,1,.84.11,2.08,2.08,0,0,1,.68.35,1.65,1.65,0,0,1,.47.58,1.85,1.85,0,0,1,.17.8,1.94,1.94,0,0,1-.15.78,2.69,2.69,0,0,1-.39.62,4.18,4.18,0,0,1-.5.53c-.18.16-.34.33-.5.49a2.6,2.6,0,0,0-.38.51,1.14,1.14,0,0,0-.15.58,1.88,1.88,0,0,0,.06.49,3.85,3.85,0,0,0,.13.37Zm.52,2.44a.65.65,0,0,1-.45-.19.63.63,0,0,1-.2-.46.67.67,0,0,1,.65-.65.62.62,0,0,1,.46.19.6.6,0,0,1,.19.46.62.62,0,0,1-.19.46A.66.66,0,0,1,229,285.08Z" fill="#1e1e1e"/>
    </g>
    <g>
      <path d="M14.77,320.84l-2.37,8.41H11.25l-1.73-6.14a3.86,3.86,0,0,1-.14-.86h0a3.89,3.89,0,0,1-.15.84l-1.74,6.16H6.33l-2.47-8.41H5l1.79,6.45a4.6,4.6,0,0,1,.14.84h0a5.39,5.39,0,0,1,.18-.84l1.85-6.45h1l1.78,6.5a4.78,4.78,0,0,1,.14.78h0a5.38,5.38,0,0,1,.16-.81l1.72-6.47Z" fill="#1e1e1e"/>
      <path d="M20.87,329.25h-1v-3.46c0-1.25-.46-1.87-1.39-1.87a1.51,1.51,0,0,0-1.18.54,2,2,0,0,0-.49,1.39v3.4h-1v-8.89h1v3.88h0a2.19,2.19,0,0,1,2-1.13c1.35,0,2,.81,2,2.44Z" fill="#1e1e1e"/>
      <path d="M23.18,321.72a.64.64,0,0,1-.44-.17.65.65,0,0,1,0-.9.6.6,0,0,1,.44-.17.63.63,0,0,1,.45.17.61.61,0,0,1,.18.45.6.6,0,0,1-.18.44A.64.64,0,0,1,23.18,321.72Zm.47,7.53h-1v-6h1Z" fill="#1e1e1e"/>
      <path d="M29.68,329a3.1,3.1,0,0,1-1.64.42,2.71,2.71,0,0,1-2.07-.84,3,3,0,0,1-.79-2.16A3.3,3.3,0,0,1,26,324a3,3,0,0,1,2.27-.9,3.06,3.06,0,0,1,1.39.29v1a2.44,2.44,0,0,0-1.43-.46,1.94,1.94,0,0,0-1.51.65,2.52,2.52,0,0,0-.58,1.74,2.38,2.38,0,0,0,.55,1.66,1.89,1.89,0,0,0,1.48.61,2.39,2.39,0,0,0,1.48-.52Z" fill="#1e1e1e"/>
      <path d="M36.11,329.25h-1v-3.46c0-1.25-.46-1.87-1.39-1.87a1.51,1.51,0,0,0-1.18.54,2,2,0,0,0-.48,1.39v3.4h-1v-8.89h1v3.88h0a2.19,2.19,0,0,1,2-1.13c1.35,0,2,.81,2,2.44Z" fill="#1e1e1e"/>
      <path d="M47.36,329.25H46.19l-1.4-2.36a6,6,0,0,0-.38-.56A2.23,2.23,0,0,0,44,326a1.59,1.59,0,0,0-.41-.21,1.89,1.89,0,0,0-.5-.07h-.8v3.58h-1v-8.41h2.51a3.64,3.64,0,0,1,1,.14,2.11,2.11,0,0,1,.8.42,2,2,0,0,1,.54.7,2.61,2.61,0,0,1,.06,1.79,2.2,2.2,0,0,1-.37.65,2.34,2.34,0,0,1-.59.49,2.64,2.64,0,0,1-.77.31v0a1.88,1.88,0,0,1,.37.21,2,2,0,0,1,.29.29,2.75,2.75,0,0,1,.28.37l.31.48Zm-5-7.52v3h1.33a1.83,1.83,0,0,0,.68-.11,1.59,1.59,0,0,0,.55-.32,1.41,1.41,0,0,0,.35-.51,1.6,1.6,0,0,0,.13-.67,1.34,1.34,0,0,0-.43-1.06,1.91,1.91,0,0,0-1.27-.38Z" fill="#1e1e1e"/>
      <path d="M53.24,329.25h-1v-.95h0a2,2,0,0,1-1.85,1.09c-1.43,0-2.15-.85-2.15-2.56v-3.58h1v3.43c0,1.27.48,1.9,1.45,1.9a1.47,1.47,0,0,0,1.16-.52,2,2,0,0,0,.45-1.36v-3.45h1Z" fill="#1e1e1e"/>
      <path d="M56.14,329.25h-1v-8.89h1Z" fill="#1e1e1e"/>
      <path d="M62.91,326.49H58.67a2.26,2.26,0,0,0,.54,1.54,1.85,1.85,0,0,0,1.42.55,2.89,2.89,0,0,0,1.86-.67v.9a3.41,3.41,0,0,1-2.09.58,2.53,2.53,0,0,1-2-.82,3.35,3.35,0,0,1-.72-2.3,3.28,3.28,0,0,1,.79-2.28,2.54,2.54,0,0,1,2-.88,2.26,2.26,0,0,1,1.83.76,3.22,3.22,0,0,1,.64,2.11Zm-1-.82a2,2,0,0,0-.41-1.29,1.35,1.35,0,0,0-1.09-.46,1.57,1.57,0,0,0-1.16.48,2.18,2.18,0,0,0-.58,1.27Z" fill="#1e1e1e"/>
      <path d="M39.32,334.94H36.89v7.51h-1v-7.51H33.49V334h5.83Z" fill="#1e1e1e"/>
      <path d="M44.62,336.45l-2.76,7q-.73,1.86-2.07,1.86a2.28,2.28,0,0,1-.63-.07v-.87a1.84,1.84,0,0,0,.57.11,1.18,1.18,0,0,0,1.09-.87l.48-1.13-2.34-6H40l1.63,4.61c0,.06.06.22.12.46h0c0-.09.06-.24.12-.44l1.71-4.63Z" fill="#1e1e1e"/>
      <path d="M46.64,341.58h0v3.63h-1v-8.76h1v1.05h0a2.27,2.27,0,0,1,2.07-1.19,2.2,2.2,0,0,1,1.81.8,3.31,3.31,0,0,1,.65,2.16,3.69,3.69,0,0,1-.73,2.41,2.43,2.43,0,0,1-2,.91A2,2,0,0,1,46.64,341.58Zm0-2.42V340a1.79,1.79,0,0,0,.49,1.26,1.72,1.72,0,0,0,2.59-.15,3,3,0,0,0,.5-1.86,2.49,2.49,0,0,0-.46-1.57,1.53,1.53,0,0,0-1.26-.56,1.7,1.7,0,0,0-1.35.58A2.13,2.13,0,0,0,46.61,339.16Z" fill="#1e1e1e"/>
      <path d="M57.53,339.69H53.29a2.26,2.26,0,0,0,.54,1.54,1.85,1.85,0,0,0,1.42.55,2.89,2.89,0,0,0,1.86-.67v.9a3.41,3.41,0,0,1-2.09.58,2.54,2.54,0,0,1-2-.82,3.35,3.35,0,0,1-.72-2.3,3.28,3.28,0,0,1,.79-2.28,2.54,2.54,0,0,1,2-.88,2.26,2.26,0,0,1,1.83.76,3.17,3.17,0,0,1,.64,2.11Zm-1-.82a2,2,0,0,0-.4-1.29,1.37,1.37,0,0,0-1.1-.46,1.57,1.57,0,0,0-1.16.48,2.24,2.24,0,0,0-.58,1.27Z" fill="#1e1e1e"/>
      <path d="M60,340.12c0-.11-.06-.24-.09-.4a2.59,2.59,0,0,1,0-.48,1.51,1.51,0,0,1,.15-.68,2.92,2.92,0,0,1,.37-.57,5.75,5.75,0,0,1,.49-.5c.17-.16.34-.33.48-.49a2.72,2.72,0,0,0,.38-.53,1.21,1.21,0,0,0,.14-.6,1.1,1.1,0,0,0-.1-.49,1.09,1.09,0,0,0-.3-.37,1.25,1.25,0,0,0-.43-.22,1.81,1.81,0,0,0-.52-.07,2.27,2.27,0,0,0-1.72.78v-1a3.43,3.43,0,0,1,1.86-.57,2.82,2.82,0,0,1,.83.12,2,2,0,0,1,.69.35,1.57,1.57,0,0,1,.47.58,2,2,0,0,1,0,1.57,2.89,2.89,0,0,1-.39.63,5,5,0,0,1-.5.53,5.81,5.81,0,0,0-.5.49,2.87,2.87,0,0,0-.38.5,1.08,1.08,0,0,0-.16.58,1.81,1.81,0,0,0,.07.49,2.39,2.39,0,0,0,.13.38Zm.53,2.43a.69.69,0,0,1-.46-.18.66.66,0,0,1-.19-.46.63.63,0,0,1,.19-.46.63.63,0,0,1,.46-.19.62.62,0,0,1,.46.19.59.59,0,0,1,.19.46.62.62,0,0,1-.19.46A.67.67,0,0,1,60.5,342.55Z" fill="#1e1e1e"/>
    </g>
    <g>
      <path d="M164.73,9.86V8.7a2.23,2.23,0,0,0,.48.32,3.69,3.69,0,0,0,.58.23,3.5,3.5,0,0,0,.62.15,3.07,3.07,0,0,0,.57.06,2.29,2.29,0,0,0,1.36-.34,1.14,1.14,0,0,0,.45-1,1.13,1.13,0,0,0-.15-.59,1.76,1.76,0,0,0-.41-.46,4.57,4.57,0,0,0-.63-.4l-.77-.4c-.3-.15-.57-.3-.83-.45a3.4,3.4,0,0,1-.66-.51,2.26,2.26,0,0,1-.44-.62,1.91,1.91,0,0,1-.16-.82,1.93,1.93,0,0,1,.25-1,2.32,2.32,0,0,1,.66-.7,3.19,3.19,0,0,1,.94-.41,4.24,4.24,0,0,1,1.07-.13,4.08,4.08,0,0,1,1.81.3v1.1a3.33,3.33,0,0,0-1.91-.51,2.88,2.88,0,0,0-.65.07,1.58,1.58,0,0,0-.57.22,1.18,1.18,0,0,0-.41.39,1,1,0,0,0-.16.58,1.22,1.22,0,0,0,.12.56,1.31,1.31,0,0,0,.36.43,3,3,0,0,0,.57.37c.22.12.48.26.77.4s.59.31.86.47a4.46,4.46,0,0,1,.71.55,2.53,2.53,0,0,1,.48.66,1.84,1.84,0,0,1,.18.83,2.14,2.14,0,0,1-.24,1.05,2,2,0,0,1-.66.7,2.88,2.88,0,0,1-.95.39,5.24,5.24,0,0,1-1.14.12l-.49,0q-.3,0-.6-.09l-.58-.16A1.57,1.57,0,0,1,164.73,9.86Z" fill="#1e1e1e"/>
      <path d="M173.76,10.14a1.76,1.76,0,0,1-.89.19c-1.05,0-1.58-.59-1.58-1.76V5h-1V4.2h1V2.74l1-.31V4.2h1.51V5h-1.51V8.4a1.37,1.37,0,0,0,.21.86.78.78,0,0,0,.68.26.94.94,0,0,0,.62-.2Z" fill="#1e1e1e"/>
      <path d="M179.34,10.2h-1V9.26h0a2,2,0,0,1-1.85,1.08,2,2,0,0,1-1.4-.47,1.65,1.65,0,0,1-.51-1.26c0-1.12.66-1.78,2-2l1.8-.25c0-1-.41-1.53-1.24-1.53a3,3,0,0,0-1.95.74v-1a3.76,3.76,0,0,1,2-.56c1.41,0,2.11.75,2.11,2.24Zm-1-3-1.45.2a2.35,2.35,0,0,0-1,.33,1,1,0,0,0-.34.84.9.9,0,0,0,.32.71,1.19,1.19,0,0,0,.83.28,1.51,1.51,0,0,0,1.18-.5,1.78,1.78,0,0,0,.47-1.27Z" fill="#1e1e1e"/>
      <path d="M184.28,5.17a1.18,1.18,0,0,0-.73-.19,1.2,1.2,0,0,0-1,.58,2.64,2.64,0,0,0-.42,1.58V10.2h-1v-6h1V5.44h0a2.08,2.08,0,0,1,.62-1,1.42,1.42,0,0,1,1-.35,1.44,1.44,0,0,1,.57.08Z" fill="#1e1e1e"/>
      <path d="M188.11,10.14a1.82,1.82,0,0,1-.9.19c-1.05,0-1.58-.59-1.58-1.76V5h-1V4.2h1V2.74l1-.31V4.2h1.52V5h-1.52V8.4a1.37,1.37,0,0,0,.21.86.8.8,0,0,0,.68.26,1,1,0,0,0,.63-.2Z" fill="#1e1e1e"/>
    </g>
    <g>
      <path d="M165.88,508.71a5,5,0,0,1-2.32.49,3.75,3.75,0,0,1-2.88-1.15,4.3,4.3,0,0,1-1.07-3,4.45,4.45,0,0,1,1.21-3.26,4.11,4.11,0,0,1,3.08-1.24,5,5,0,0,1,2,.34v1.05a4.12,4.12,0,0,0-2-.5,3,3,0,0,0-2.34,1,3.62,3.62,0,0,0-.9,2.58,3.49,3.49,0,0,0,.84,2.45,2.87,2.87,0,0,0,2.2.91,4.12,4.12,0,0,0,2.2-.57Z" fill="#1e1e1e"/>
      <path d="M170.59,504a1.25,1.25,0,0,0-.73-.19,1.23,1.23,0,0,0-1,.58,2.72,2.72,0,0,0-.41,1.58v3.06h-1v-6h1v1.24h0a2.17,2.17,0,0,1,.63-1A1.41,1.41,0,0,1,170,503a1.52,1.52,0,0,1,.58.08Z" fill="#1e1e1e"/>
      <path d="M176.45,506.3h-4.23a2.23,2.23,0,0,0,.53,1.55,1.88,1.88,0,0,0,1.42.54,3,3,0,0,0,1.87-.66v.9a3.53,3.53,0,0,1-2.1.57,2.51,2.51,0,0,1-2-.82,3.83,3.83,0,0,1,.06-4.58,2.55,2.55,0,0,1,2-.88,2.25,2.25,0,0,1,1.82.76,3.19,3.19,0,0,1,.64,2.12Zm-1-.81a2,2,0,0,0-.4-1.3,1.37,1.37,0,0,0-1.1-.46,1.54,1.54,0,0,0-1.16.49,2.18,2.18,0,0,0-.58,1.27Z" fill="#1e1e1e"/>
      <path d="M182.2,509.06h-1v-.94h0a2,2,0,0,1-1.85,1.08,2,2,0,0,1-1.4-.47,1.65,1.65,0,0,1-.51-1.26c0-1.12.66-1.78,2-2l1.8-.25c0-1-.41-1.53-1.24-1.53a3,3,0,0,0-1.95.74v-1a3.75,3.75,0,0,1,2-.56c1.42,0,2.12.75,2.12,2.24Zm-1-3-1.45.2a2.35,2.35,0,0,0-1,.33,1,1,0,0,0-.34.84.93.93,0,0,0,.32.72,1.24,1.24,0,0,0,.83.27,1.51,1.51,0,0,0,1.18-.5,1.78,1.78,0,0,0,.47-1.27Z" fill="#1e1e1e"/>
      <path d="M186.79,509a1.76,1.76,0,0,1-.89.19c-1.05,0-1.58-.59-1.58-1.76v-3.55h-1v-.82h1V501.6l1-.31v1.77h1.51v.82h-1.51v3.38a1.35,1.35,0,0,0,.21.86.78.78,0,0,0,.68.26.94.94,0,0,0,.62-.2Z" fill="#1e1e1e"/>
      <path d="M192.9,506.3h-4.24a2.28,2.28,0,0,0,.54,1.55,1.88,1.88,0,0,0,1.42.54,2.94,2.94,0,0,0,1.86-.66v.9a3.47,3.47,0,0,1-2.09.57,2.53,2.53,0,0,1-2-.82,3.35,3.35,0,0,1-.72-2.3,3.28,3.28,0,0,1,.79-2.28,2.54,2.54,0,0,1,2-.88,2.22,2.22,0,0,1,1.82.76,3.2,3.2,0,0,1,.65,2.12Zm-1-.81a2,2,0,0,0-.41-1.3,1.35,1.35,0,0,0-1.09-.46,1.54,1.54,0,0,0-1.16.49,2.19,2.19,0,0,0-.59,1.27Z" fill="#1e1e1e"/>
    </g>
    <g>
      <path d="M142.64,68.47V67.31a2.23,2.23,0,0,0,.48.32,5,5,0,0,0,.58.24c.21.06.41.11.62.15a4.13,4.13,0,0,0,.58,0,2.2,2.2,0,0,0,1.35-.34,1.26,1.26,0,0,0,.3-1.56,1.76,1.76,0,0,0-.41-.46,4.57,4.57,0,0,0-.63-.4l-.77-.4c-.3-.15-.57-.3-.82-.45a2.89,2.89,0,0,1-.66-.51,2.1,2.1,0,0,1-.45-.62,2.15,2.15,0,0,1,.09-1.82,2.24,2.24,0,0,1,.67-.7,3,3,0,0,1,.93-.41,4.29,4.29,0,0,1,1.07-.13,4.08,4.08,0,0,1,1.81.3v1.11a3.24,3.24,0,0,0-1.91-.52,2.79,2.79,0,0,0-.64.07,1.75,1.75,0,0,0-.58.22,1.27,1.27,0,0,0-.41.39,1.08,1.08,0,0,0-.16.59,1.18,1.18,0,0,0,.12.55,1.31,1.31,0,0,0,.36.43,3,3,0,0,0,.57.37c.22.13.48.26.78.4s.58.31.85.47a4,4,0,0,1,.71.55,2.53,2.53,0,0,1,.48.66,1.84,1.84,0,0,1,.18.83,2.12,2.12,0,0,1-.24,1,1.93,1.93,0,0,1-.66.7,2.8,2.8,0,0,1-1,.39,5.24,5.24,0,0,1-1.14.12l-.49,0-.6-.09a4.74,4.74,0,0,1-.57-.16A1.65,1.65,0,0,1,142.64,68.47Z" fill="#1e1e1e"/>
      <path d="M154.1,66.05h-4.24a2.28,2.28,0,0,0,.54,1.55,1.88,1.88,0,0,0,1.42.54,3,3,0,0,0,1.87-.66v.9a3.53,3.53,0,0,1-2.1.57,2.53,2.53,0,0,1-2-.81,3.34,3.34,0,0,1-.73-2.3,3.29,3.29,0,0,1,.79-2.29,2.58,2.58,0,0,1,2-.88,2.29,2.29,0,0,1,1.83.76,3.19,3.19,0,0,1,.64,2.12Zm-1-.81a2,2,0,0,0-.4-1.3,1.37,1.37,0,0,0-1.1-.46,1.54,1.54,0,0,0-1.16.49,2.18,2.18,0,0,0-.58,1.27Z" fill="#1e1e1e"/>
      <path d="M156.52,68.81h-1V59.93h1Z" fill="#1e1e1e"/>
      <path d="M163.28,66.05h-4.23a2.19,2.19,0,0,0,.54,1.55,1.85,1.85,0,0,0,1.41.54,3,3,0,0,0,1.87-.66v.9a3.53,3.53,0,0,1-2.1.57,2.53,2.53,0,0,1-2-.81,3.34,3.34,0,0,1-.73-2.3,3.29,3.29,0,0,1,.79-2.29,2.58,2.58,0,0,1,2-.88,2.28,2.28,0,0,1,1.82.76,3.19,3.19,0,0,1,.64,2.12Zm-1-.81a2,2,0,0,0-.4-1.3,1.37,1.37,0,0,0-1.1-.46,1.56,1.56,0,0,0-1.16.49,2.18,2.18,0,0,0-.58,1.27Z" fill="#1e1e1e"/>
      <path d="M168.83,68.54a3.22,3.22,0,0,1-1.64.41,2.76,2.76,0,0,1-2.08-.83,3.06,3.06,0,0,1-.78-2.17,3.3,3.3,0,0,1,.85-2.38,3,3,0,0,1,2.26-.9,3.24,3.24,0,0,1,1.4.29v1a2.47,2.47,0,0,0-1.43-.47,1.92,1.92,0,0,0-1.51.66,2.52,2.52,0,0,0-.59,1.73,2.36,2.36,0,0,0,.55,1.66,1.91,1.91,0,0,0,1.49.61,2.43,2.43,0,0,0,1.48-.52Z" fill="#1e1e1e"/>
      <path d="M173.06,68.75a1.76,1.76,0,0,1-.89.19c-1.06,0-1.58-.59-1.58-1.76V63.63h-1v-.82h1V61.35l1-.31v1.77h1.51v.82h-1.51V67a1.35,1.35,0,0,0,.21.86.78.78,0,0,0,.68.26.94.94,0,0,0,.62-.2Z" fill="#1e1e1e"/>
      <path d="M187.72,60.41l-2.37,8.4h-1.16l-1.72-6.14a3.77,3.77,0,0,1-.14-.85h0a5.91,5.91,0,0,1-.15.84l-1.74,6.15h-1.15l-2.46-8.4h1.09l1.78,6.44a4,4,0,0,1,.14.85h0a5.24,5.24,0,0,1,.18-.85l1.86-6.44h1l1.78,6.49a4.92,4.92,0,0,1,.14.79h0a4.94,4.94,0,0,1,.16-.81l1.72-6.47Z" fill="#1e1e1e"/>
      <path d="M189.33,61.29a.62.62,0,0,1-.44-.18.57.57,0,0,1-.18-.44.61.61,0,0,1,.18-.45.62.62,0,0,1,.44-.18.61.61,0,0,1,.45.18.62.62,0,0,1,0,.89A.61.61,0,0,1,189.33,61.29Zm.47,7.52h-1v-6h1Z" fill="#1e1e1e"/>
      <path d="M196.73,68.81h-1V65.39c0-1.27-.47-1.91-1.4-1.91a1.5,1.5,0,0,0-1.19.54,2,2,0,0,0-.47,1.37v3.42h-1v-6h1v1h0a2.17,2.17,0,0,1,2-1.14,1.83,1.83,0,0,1,1.51.64,2.85,2.85,0,0,1,.52,1.83Z" fill="#1e1e1e"/>
      <path d="M203.15,66.43a2.51,2.51,0,0,1-.21,1,2.36,2.36,0,0,1-.61.79,2.8,2.8,0,0,1-.93.52,3.87,3.87,0,0,1-1.2.18,3.44,3.44,0,0,1-1.91-.46v-1a3,3,0,0,0,1.94.67A2.86,2.86,0,0,0,201,68a1.8,1.8,0,0,0,.61-.33,1.39,1.39,0,0,0,.39-.51,1.57,1.57,0,0,0,.14-.67c0-1.1-.79-1.65-2.35-1.65h-.7v-.81h.67c1.38,0,2.07-.52,2.07-1.55s-.53-1.43-1.58-1.43a2.7,2.7,0,0,0-1.67.6v-.93a3.64,3.64,0,0,1,1.91-.48,2.83,2.83,0,0,1,.95.15,2.05,2.05,0,0,1,.74.41,1.74,1.74,0,0,1,.47.63,2,2,0,0,1,.17.81,2.06,2.06,0,0,1-1.68,2.14v0a2.56,2.56,0,0,1,.79.21,1.95,1.95,0,0,1,1,1A2,2,0,0,1,203.15,66.43Z" fill="#1e1e1e"/>
      <path d="M208.56,62.61a1.71,1.71,0,0,0-.12-.67,1.37,1.37,0,0,0-.33-.48,1.26,1.26,0,0,0-.49-.28,1.74,1.74,0,0,0-.61-.1,2,2,0,0,0-.55.08,2.57,2.57,0,0,0-.52.21,3.84,3.84,0,0,0-.5.32,5.77,5.77,0,0,0-.44.42v-1a2.88,2.88,0,0,1,.91-.6,3.14,3.14,0,0,1,1.22-.21,2.91,2.91,0,0,1,1,.15,2.23,2.23,0,0,1,.77.43,2.12,2.12,0,0,1,.5.71,2.33,2.33,0,0,1,.19,1,3.16,3.16,0,0,1-.12.9,2.6,2.6,0,0,1-.34.76,3.73,3.73,0,0,1-.59.69,8.71,8.71,0,0,1-.82.67c-.4.28-.72.52-1,.72a4.3,4.3,0,0,0-.61.56,1.59,1.59,0,0,0-.31.52,1.8,1.8,0,0,0-.09.6h4.18v.86h-5.19V68.4a3.38,3.38,0,0,1,.12-1,2.38,2.38,0,0,1,.39-.78,4.33,4.33,0,0,1,.7-.74c.29-.25.65-.52,1.07-.83a6.87,6.87,0,0,0,.77-.63,3.23,3.23,0,0,0,.49-.6,2,2,0,0,0,.27-.6A2.84,2.84,0,0,0,208.56,62.61Z" fill="#1e1e1e"/>
    </g>
    <g>
      <path d="M132.33,138.57a4.89,4.89,0,0,1-2.32.49,3.73,3.73,0,0,1-2.87-1.15,4.26,4.26,0,0,1-1.08-3,4.5,4.5,0,0,1,1.21-3.26,4.12,4.12,0,0,1,3.08-1.24,4.92,4.92,0,0,1,2,.34v1.05a4.08,4.08,0,0,0-2-.5,3,3,0,0,0-2.35,1,3.62,3.62,0,0,0-.9,2.58,3.49,3.49,0,0,0,.84,2.45,2.89,2.89,0,0,0,2.21.91,4.11,4.11,0,0,0,2.19-.57Z" fill="#1e1e1e"/>
      <path d="M136.42,139.06a2.77,2.77,0,0,1-2.12-.84,3.11,3.11,0,0,1-.8-2.23,3.25,3.25,0,0,1,.83-2.36,3,3,0,0,1,2.23-.85,2.71,2.71,0,0,1,2.1.83,3.77,3.77,0,0,1-.06,4.59A2.87,2.87,0,0,1,136.42,139.06Zm.07-5.47a1.81,1.81,0,0,0-1.46.63,2.59,2.59,0,0,0-.54,1.74,2.46,2.46,0,0,0,.54,1.68,1.86,1.86,0,0,0,1.46.61,1.75,1.75,0,0,0,1.43-.6,3.23,3.23,0,0,0,0-3.45A1.73,1.73,0,0,0,136.49,133.59Z" fill="#1e1e1e"/>
      <path d="M145.92,138.92h-1V135.5c0-1.27-.46-1.91-1.39-1.91a1.5,1.5,0,0,0-1.19.54,2,2,0,0,0-.48,1.37v3.42h-1v-6h1v1h0a2.16,2.16,0,0,1,2-1.14,1.81,1.81,0,0,1,1.5.64,2.79,2.79,0,0,1,.52,1.83Z" fill="#1e1e1e"/>
      <path d="M150.7,130.88a1.35,1.35,0,0,0-.64-.16c-.67,0-1,.43-1,1.28v.92h1.41v.82h-1.41v5.18h-1v-5.18h-1v-.82h1v-1a2,2,0,0,1,.54-1.49,1.84,1.84,0,0,1,1.36-.55,1.89,1.89,0,0,1,.7.1Z" fill="#1e1e1e"/>
      <path d="M152,131.4a.6.6,0,0,1-.44-.18.59.59,0,0,1-.18-.44.61.61,0,0,1,.18-.45.6.6,0,0,1,.44-.18.61.61,0,0,1,.45.18.62.62,0,0,1,.19.45.63.63,0,0,1-.19.44A.61.61,0,0,1,152,131.4Zm.47,7.52h-1v-6h1Z" fill="#1e1e1e"/>
      <path d="M159.52,138.44c0,2.2-1.06,3.31-3.17,3.31a4.24,4.24,0,0,1-1.94-.43v-1a3.92,3.92,0,0,0,1.93.56c1.48,0,2.22-.78,2.22-2.35v-.66h0a2.23,2.23,0,0,1-2.06,1.15,2.26,2.26,0,0,1-1.8-.8,3.17,3.17,0,0,1-.68-2.15,3.73,3.73,0,0,1,.73-2.43,2.46,2.46,0,0,1,2-.9,2,2,0,0,1,1.8,1h0v-.83h1Zm-1-2.23v-.89a1.69,1.69,0,0,0-.49-1.22,1.58,1.58,0,0,0-1.2-.51,1.64,1.64,0,0,0-1.39.65,2.85,2.85,0,0,0-.51,1.81,2.48,2.48,0,0,0,.48,1.6,1.57,1.57,0,0,0,1.28.6,1.69,1.69,0,0,0,1.32-.57A2.12,2.12,0,0,0,158.56,136.21Z" fill="#1e1e1e"/>
      <path d="M166.31,138.92h-1V138h0a2,2,0,0,1-1.85,1.09c-1.43,0-2.15-.85-2.15-2.55v-3.59h1v3.43c0,1.27.48,1.9,1.45,1.9a1.46,1.46,0,0,0,1.16-.52,2,2,0,0,0,.45-1.35v-3.46h1Z" fill="#1e1e1e"/>
      <path d="M171.38,133.89a1.14,1.14,0,0,0-.72-.19,1.21,1.21,0,0,0-1,.58,2.64,2.64,0,0,0-.41,1.58v3.06h-1v-6h1v1.24h0a2.09,2.09,0,0,1,.63-1,1.39,1.39,0,0,1,.94-.35,1.44,1.44,0,0,1,.57.08Z" fill="#1e1e1e"/>
      <path d="M177.25,136.16H173a2.3,2.3,0,0,0,.54,1.55,1.88,1.88,0,0,0,1.42.54,2.89,2.89,0,0,0,1.86-.67v.91a3.47,3.47,0,0,1-2.09.57,2.53,2.53,0,0,1-2-.82,3.35,3.35,0,0,1-.72-2.3,3.28,3.28,0,0,1,.79-2.28,2.54,2.54,0,0,1,2-.88,2.24,2.24,0,0,1,1.82.76,3.18,3.18,0,0,1,.65,2.12Zm-1-.81a1.91,1.91,0,0,0-.4-1.3,1.36,1.36,0,0,0-1.1-.46,1.54,1.54,0,0,0-1.15.49,2.19,2.19,0,0,0-.59,1.27Z" fill="#1e1e1e"/>
      <path d="M188.62,138.92h-1.09l-.89-2.35h-3.56l-.84,2.35h-1.09l3.22-8.4h1Zm-2.3-3.24L185,132.1a3.38,3.38,0,0,1-.13-.56h0a3.23,3.23,0,0,1-.14.56l-1.3,3.58Z" fill="#1e1e1e"/>
      <path d="M190.71,138.05h0v3.63h-1v-8.76h1V134h0a2.29,2.29,0,0,1,2.08-1.2,2.2,2.2,0,0,1,1.81.81,3.33,3.33,0,0,1,.65,2.16,3.78,3.78,0,0,1-.73,2.41,2.46,2.46,0,0,1-2,.9A2,2,0,0,1,190.71,138.05Zm0-2.42v.84a1.77,1.77,0,0,0,.48,1.26,1.73,1.73,0,0,0,2.6-.15,3,3,0,0,0,.49-1.85,2.41,2.41,0,0,0-.46-1.57,1.53,1.53,0,0,0-1.25-.57,1.7,1.7,0,0,0-1.35.58A2.15,2.15,0,0,0,190.69,135.63Z" fill="#1e1e1e"/>
      <path d="M197.77,138.05h0v3.63h-1v-8.76h1V134h0a2.26,2.26,0,0,1,2.07-1.2,2.18,2.18,0,0,1,1.81.81,3.28,3.28,0,0,1,.65,2.16,3.72,3.72,0,0,1-.73,2.41,2.45,2.45,0,0,1-2,.9A2,2,0,0,1,197.77,138.05Zm0-2.42v.84a1.78,1.78,0,0,0,.49,1.26,1.72,1.72,0,0,0,2.59-.15,3,3,0,0,0,.5-1.85,2.47,2.47,0,0,0-.46-1.57,1.54,1.54,0,0,0-1.26-.57,1.7,1.7,0,0,0-1.35.58A2.15,2.15,0,0,0,197.74,135.63Z" fill="#1e1e1e"/>
      <path d="M208.24,138.92h-1v-8.4h1Z" fill="#1e1e1e"/>
      <path d="M215.3,138.92h-1V135.5c0-1.27-.47-1.91-1.4-1.91a1.52,1.52,0,0,0-1.19.54,2,2,0,0,0-.47,1.37v3.42h-1v-6h1v1h0a2.17,2.17,0,0,1,2-1.14,1.83,1.83,0,0,1,1.51.64,2.79,2.79,0,0,1,.52,1.83Z" fill="#1e1e1e"/>
      <path d="M220.07,130.88a1.31,1.31,0,0,0-.63-.16c-.68,0-1,.43-1,1.28v.92h1.4v.82h-1.4v5.18h-1v-5.18h-1v-.82h1v-1a2,2,0,0,1,.55-1.49,1.81,1.81,0,0,1,1.36-.55,1.86,1.86,0,0,1,.69.1Z" fill="#1e1e1e"/>
      <path d="M223.37,139.06a2.79,2.79,0,0,1-2.12-.84,3.1,3.1,0,0,1-.79-2.23,3.24,3.24,0,0,1,.82-2.36,3,3,0,0,1,2.23-.85,2.7,2.7,0,0,1,2.1.83,3.77,3.77,0,0,1-.06,4.59A2.87,2.87,0,0,1,223.37,139.06Zm.07-5.47a1.83,1.83,0,0,0-1.46.63,2.59,2.59,0,0,0-.54,1.74,2.46,2.46,0,0,0,.54,1.68,1.86,1.86,0,0,0,1.46.61,1.79,1.79,0,0,0,1.44-.6,3.23,3.23,0,0,0,0-3.45A1.76,1.76,0,0,0,223.44,133.59Z" fill="#1e1e1e"/>
    </g>
    <g>
      <path d="M144.36,173.57a4.89,4.89,0,0,1-2.32.49,3.73,3.73,0,0,1-2.87-1.15,4.26,4.26,0,0,1-1.08-3,4.45,4.45,0,0,1,1.21-3.26,4.12,4.12,0,0,1,3.08-1.24,4.92,4.92,0,0,1,2,.34v1.05a4.08,4.08,0,0,0-2-.5,3,3,0,0,0-2.35,1,3.62,3.62,0,0,0-.9,2.58,3.49,3.49,0,0,0,.84,2.45,2.89,2.89,0,0,0,2.21.91,4.11,4.11,0,0,0,2.19-.57Z" fill="#1e1e1e"/>
      <path d="M148.45,174.06a2.76,2.76,0,0,1-2.12-.84,3.11,3.11,0,0,1-.8-2.23,3.25,3.25,0,0,1,.83-2.36,3,3,0,0,1,2.23-.85,2.73,2.73,0,0,1,2.1.83,3.77,3.77,0,0,1-.06,4.59A2.87,2.87,0,0,1,148.45,174.06Zm.07-5.47a1.8,1.8,0,0,0-1.46.63,2.59,2.59,0,0,0-.54,1.74,2.46,2.46,0,0,0,.54,1.68,1.85,1.85,0,0,0,1.46.61,1.75,1.75,0,0,0,1.43-.6,3.23,3.23,0,0,0,0-3.45A1.73,1.73,0,0,0,148.52,168.59Z" fill="#1e1e1e"/>
      <path d="M158,173.92h-1V170.5c0-1.27-.46-1.91-1.39-1.91a1.5,1.5,0,0,0-1.19.54,2,2,0,0,0-.48,1.37v3.42h-1v-6h1v1h0a2.16,2.16,0,0,1,2-1.14,1.82,1.82,0,0,1,1.5.64,2.79,2.79,0,0,1,.52,1.83Z" fill="#1e1e1e"/>
      <path d="M162.73,165.88a1.35,1.35,0,0,0-.64-.16c-.67,0-1,.43-1,1.28v.92h1.41v.82h-1.41v5.18h-1v-5.18h-1v-.82h1v-1a2,2,0,0,1,.54-1.49,1.84,1.84,0,0,1,1.36-.55,1.92,1.92,0,0,1,.7.1Z" fill="#1e1e1e"/>
      <path d="M164,166.4a.6.6,0,0,1-.44-.18.59.59,0,0,1-.18-.44.61.61,0,0,1,.18-.45.6.6,0,0,1,.44-.18.61.61,0,0,1,.45.18.62.62,0,0,1,.19.45.63.63,0,0,1-.19.44A.61.61,0,0,1,164,166.4Zm.47,7.52h-1v-6h1Z" fill="#1e1e1e"/>
      <path d="M171.55,173.44c0,2.2-1.06,3.31-3.17,3.31a4.24,4.24,0,0,1-1.94-.43v-1a3.92,3.92,0,0,0,1.93.56c1.48,0,2.22-.78,2.22-2.35v-.66h0a2.42,2.42,0,0,1-3.86.35,3.17,3.17,0,0,1-.68-2.15,3.73,3.73,0,0,1,.73-2.43,2.46,2.46,0,0,1,2-.9,2,2,0,0,1,1.8,1h0v-.83h1Zm-1-2.23v-.89a1.69,1.69,0,0,0-.49-1.22,1.58,1.58,0,0,0-1.2-.51,1.67,1.67,0,0,0-1.4.65,2.91,2.91,0,0,0-.5,1.81,2.48,2.48,0,0,0,.48,1.6,1.57,1.57,0,0,0,1.28.6,1.69,1.69,0,0,0,1.32-.57A2.12,2.12,0,0,0,170.59,171.21Z" fill="#1e1e1e"/>
      <path d="M178.34,173.92h-1V173h0a2,2,0,0,1-1.85,1.09c-1.43,0-2.15-.85-2.15-2.55v-3.59h1v3.43c0,1.27.48,1.9,1.45,1.9a1.46,1.46,0,0,0,1.16-.52,2,2,0,0,0,.45-1.35v-3.46h1Z" fill="#1e1e1e"/>
      <path d="M183.41,168.89a1.16,1.16,0,0,0-.72-.19,1.21,1.21,0,0,0-1,.58,2.64,2.64,0,0,0-.42,1.58v3.06h-1v-6h1v1.24h0a2,2,0,0,1,.63-1,1.39,1.39,0,0,1,.94-.35,1.44,1.44,0,0,1,.57.08Z" fill="#1e1e1e"/>
      <path d="M189.28,171.16H185a2.3,2.3,0,0,0,.54,1.55,1.87,1.87,0,0,0,1.42.54,2.91,2.91,0,0,0,1.86-.67v.91a3.5,3.5,0,0,1-2.09.57,2.53,2.53,0,0,1-2-.82,3.35,3.35,0,0,1-.72-2.3,3.28,3.28,0,0,1,.79-2.28,2.54,2.54,0,0,1,2-.88,2.24,2.24,0,0,1,1.82.76,3.18,3.18,0,0,1,.65,2.12Zm-1-.81a1.91,1.91,0,0,0-.4-1.3,1.36,1.36,0,0,0-1.1-.46,1.54,1.54,0,0,0-1.15.49,2.19,2.19,0,0,0-.59,1.27Z" fill="#1e1e1e"/>
      <path d="M200.65,173.92h-1.09l-.89-2.35h-3.56l-.84,2.35h-1.1l3.23-8.4h1Zm-2.3-3.24L197,167.1a3.38,3.38,0,0,1-.13-.56h0a3.23,3.23,0,0,1-.14.56l-1.3,3.58Z" fill="#1e1e1e"/>
      <path d="M202.74,173.05h0v3.63h-1v-8.76h1V169h0a2.29,2.29,0,0,1,2.08-1.2,2.2,2.2,0,0,1,1.81.81,3.33,3.33,0,0,1,.65,2.16,3.78,3.78,0,0,1-.73,2.41,2.46,2.46,0,0,1-2,.9A2,2,0,0,1,202.74,173.05Zm0-2.42v.84a1.77,1.77,0,0,0,.48,1.26,1.59,1.59,0,0,0,1.23.52,1.6,1.6,0,0,0,1.37-.67,3,3,0,0,0,.49-1.85,2.41,2.41,0,0,0-.46-1.57,1.53,1.53,0,0,0-1.25-.57,1.7,1.7,0,0,0-1.35.58A2.15,2.15,0,0,0,202.72,170.63Z" fill="#1e1e1e"/>
      <path d="M209.8,173.05h0v3.63h-1v-8.76h1V169h0a2.26,2.26,0,0,1,2.07-1.2,2.18,2.18,0,0,1,1.81.81,3.28,3.28,0,0,1,.65,2.16,3.72,3.72,0,0,1-.73,2.41,2.45,2.45,0,0,1-2,.9A2,2,0,0,1,209.8,173.05Zm0-2.42v.84a1.78,1.78,0,0,0,.49,1.26,1.71,1.71,0,0,0,2.59-.15,3,3,0,0,0,.5-1.85,2.47,2.47,0,0,0-.46-1.57,1.54,1.54,0,0,0-1.26-.57,1.7,1.7,0,0,0-1.35.58A2.15,2.15,0,0,0,209.77,170.63Z" fill="#1e1e1e"/>
      <path d="M129.8,187.12h-1v-8.4h1Z" fill="#1e1e1e"/>
      <path d="M136.86,187.12h-1V183.7c0-1.27-.47-1.91-1.4-1.91a1.5,1.5,0,0,0-1.19.54,2,2,0,0,0-.47,1.37v3.42h-1v-6h1v1h0a2.16,2.16,0,0,1,2-1.14,1.83,1.83,0,0,1,1.51.64,2.85,2.85,0,0,1,.52,1.83Z" fill="#1e1e1e"/>
      <path d="M138.3,186.9v-1a2.84,2.84,0,0,0,1.73.58c.85,0,1.27-.28,1.27-.84a.76.76,0,0,0-.11-.41,1,1,0,0,0-.29-.29,2.28,2.28,0,0,0-.44-.24l-.53-.21a5.16,5.16,0,0,1-.7-.32,2.55,2.55,0,0,1-.51-.36,1.52,1.52,0,0,1-.3-.46,1.59,1.59,0,0,1-.1-.61,1.38,1.38,0,0,1,.19-.74,1.78,1.78,0,0,1,.51-.55,2.77,2.77,0,0,1,.74-.33,3.59,3.59,0,0,1,2.25.16v1a2.71,2.71,0,0,0-1.53-.43,1.75,1.75,0,0,0-.48.06,1.15,1.15,0,0,0-.37.17.76.76,0,0,0-.24.27.67.67,0,0,0-.09.34.82.82,0,0,0,.09.4.88.88,0,0,0,.24.28,2.48,2.48,0,0,0,.4.22l.54.22a6.85,6.85,0,0,1,.71.31,2.82,2.82,0,0,1,.54.36,1.41,1.41,0,0,1,.34.47,1.48,1.48,0,0,1,.12.63,1.49,1.49,0,0,1-.19.77,1.61,1.61,0,0,1-.53.54,2.32,2.32,0,0,1-.75.33,3.82,3.82,0,0,1-.9.1A3.41,3.41,0,0,1,138.3,186.9Z" fill="#1e1e1e"/>
      <path d="M146.54,187.06a1.76,1.76,0,0,1-.89.19c-1.05,0-1.58-.59-1.58-1.76v-3.55h-1v-.82h1v-1.46l1-.31v1.77h1.51v.82H145v3.38a1.37,1.37,0,0,0,.21.86.78.78,0,0,0,.68.26.94.94,0,0,0,.62-.2Z" fill="#1e1e1e"/>
      <path d="M152.12,187.12h-1v-.94h0a2,2,0,0,1-1.85,1.08,2,2,0,0,1-1.4-.47,1.65,1.65,0,0,1-.51-1.26c0-1.12.66-1.78,2-2l1.8-.25c0-1-.41-1.53-1.24-1.53a3,3,0,0,0-1.95.74v-1a3.76,3.76,0,0,1,2-.56c1.41,0,2.11.75,2.11,2.24Zm-1-3-1.45.2a2.35,2.35,0,0,0-1,.33,1,1,0,0,0-.34.84.9.9,0,0,0,.32.71,1.19,1.19,0,0,0,.83.28,1.51,1.51,0,0,0,1.18-.5,1.78,1.78,0,0,0,.47-1.27Z" fill="#1e1e1e"/>
      <path d="M154.89,187.12h-1v-8.88h1Z" fill="#1e1e1e"/>
      <path d="M157.8,187.12h-1v-8.88h1Z" fill="#1e1e1e"/>
      <path d="M164,187.12h-1v-.94h0a2,2,0,0,1-1.84,1.08,2,2,0,0,1-1.4-.47,1.65,1.65,0,0,1-.51-1.26c0-1.12.66-1.78,2-2l1.8-.25c0-1-.41-1.53-1.24-1.53a3,3,0,0,0-2,.74v-1a3.76,3.76,0,0,1,2-.56c1.41,0,2.12.75,2.12,2.24Zm-1-3-1.45.2a2.35,2.35,0,0,0-1,.33,1,1,0,0,0-.34.84.9.9,0,0,0,.32.71,1.18,1.18,0,0,0,.83.28,1.51,1.51,0,0,0,1.18-.5,1.78,1.78,0,0,0,.47-1.27Z" fill="#1e1e1e"/>
      <path d="M168.63,187.06a1.76,1.76,0,0,1-.89.19c-1.05,0-1.58-.59-1.58-1.76v-3.55h-1v-.82h1v-1.46l1-.31v1.77h1.51v.82h-1.51v3.38a1.37,1.37,0,0,0,.21.86.78.78,0,0,0,.68.26.94.94,0,0,0,.62-.2Z" fill="#1e1e1e"/>
      <path d="M170.41,179.6a.6.6,0,0,1-.44-.18.59.59,0,0,1-.18-.44.61.61,0,0,1,.18-.45.6.6,0,0,1,.44-.18.64.64,0,0,1,.45.18.61.61,0,0,1,.18.45.62.62,0,0,1-.18.44A.64.64,0,0,1,170.41,179.6Zm.47,7.52h-1v-6h1Z" fill="#1e1e1e"/>
      <path d="M175.33,187.26a2.76,2.76,0,0,1-2.12-.84,3.11,3.11,0,0,1-.8-2.23,3.25,3.25,0,0,1,.83-2.36,3,3,0,0,1,2.23-.85,2.69,2.69,0,0,1,2.09.83,3.75,3.75,0,0,1-.05,4.59A2.87,2.87,0,0,1,175.33,187.26Zm.07-5.47a1.8,1.8,0,0,0-1.46.63,2.59,2.59,0,0,0-.54,1.74,2.46,2.46,0,0,0,.54,1.68,1.85,1.85,0,0,0,1.46.61,1.75,1.75,0,0,0,1.43-.6,2.58,2.58,0,0,0,.5-1.72,2.61,2.61,0,0,0-.5-1.73A1.73,1.73,0,0,0,175.4,181.79Z" fill="#1e1e1e"/>
      <path d="M184.83,187.12h-1V183.7c0-1.27-.46-1.91-1.39-1.91a1.5,1.5,0,0,0-1.19.54,2,2,0,0,0-.48,1.37v3.42h-1v-6h1v1h0a2.16,2.16,0,0,1,2-1.14,1.82,1.82,0,0,1,1.5.64,2.79,2.79,0,0,1,.52,1.83Z" fill="#1e1e1e"/>
      <path d="M190.06,187.12v-8.4h2.32q4.44,0,4.44,4.09a4.14,4.14,0,0,1-1.23,3.13,4.55,4.55,0,0,1-3.3,1.18Zm1-7.51v6.62h1.26a3.55,3.55,0,0,0,2.57-.88,3.34,3.34,0,0,0,.92-2.51q0-3.22-3.43-3.23Z" fill="#1e1e1e"/>
      <path d="M203.17,184.36h-4.24a2.3,2.3,0,0,0,.54,1.55,1.87,1.87,0,0,0,1.42.54,3,3,0,0,0,1.86-.66v.9a3.5,3.5,0,0,1-2.09.57,2.53,2.53,0,0,1-2-.82,3.35,3.35,0,0,1-.72-2.3,3.28,3.28,0,0,1,.79-2.28,2.54,2.54,0,0,1,2-.88,2.24,2.24,0,0,1,1.82.76,3.2,3.2,0,0,1,.65,2.12Zm-1-.81a1.91,1.91,0,0,0-.4-1.3,1.36,1.36,0,0,0-1.1-.46,1.54,1.54,0,0,0-1.15.49,2.19,2.19,0,0,0-.59,1.27Z" fill="#1e1e1e"/>
      <path d="M207.4,187.06a1.76,1.76,0,0,1-.89.19c-1,0-1.58-.59-1.58-1.76v-3.55h-1v-.82h1v-1.46l1-.31v1.77h1.51v.82h-1.51v3.38a1.37,1.37,0,0,0,.21.86.78.78,0,0,0,.68.26.94.94,0,0,0,.62-.2Z" fill="#1e1e1e"/>
      <path d="M213,187.12h-1v-.94h0a2,2,0,0,1-1.85,1.08,2,2,0,0,1-1.4-.47,1.65,1.65,0,0,1-.51-1.26c0-1.12.66-1.78,2-2l1.8-.25c0-1-.41-1.53-1.24-1.53a3,3,0,0,0-1.95.74v-1a3.76,3.76,0,0,1,2-.56c1.41,0,2.11.75,2.11,2.24Zm-1-3-1.45.2a2.25,2.25,0,0,0-1,.33.93.93,0,0,0-.34.84.89.89,0,0,0,.31.71,1.19,1.19,0,0,0,.83.28,1.55,1.55,0,0,0,1.19-.5,1.77,1.77,0,0,0,.46-1.27Z" fill="#1e1e1e"/>
      <path d="M215.28,179.6a.58.58,0,0,1-.43-.18.56.56,0,0,1-.19-.44.63.63,0,0,1,.62-.63.61.61,0,0,1,.45.18.58.58,0,0,1,.19.45.59.59,0,0,1-.19.44A.61.61,0,0,1,215.28,179.6Zm.47,7.52h-1v-6h1Z" fill="#1e1e1e"/>
      <path d="M218.66,187.12h-1v-8.88h1Z" fill="#1e1e1e"/>
      <path d="M220.24,186.9v-1a2.84,2.84,0,0,0,1.73.58c.84,0,1.27-.28,1.27-.84a.76.76,0,0,0-.11-.41.93.93,0,0,0-.3-.29,1.94,1.94,0,0,0-.43-.24l-.54-.21a6.6,6.6,0,0,1-.7-.32,2.47,2.47,0,0,1-.5-.36,1.35,1.35,0,0,1-.3-.46,1.58,1.58,0,0,1-.11-.61,1.39,1.39,0,0,1,.2-.74,1.78,1.78,0,0,1,.51-.55,2.77,2.77,0,0,1,.74-.33,3.56,3.56,0,0,1,2.24.16v1a2.68,2.68,0,0,0-1.52-.43,1.75,1.75,0,0,0-.48.06,1.33,1.33,0,0,0-.38.17,1,1,0,0,0-.24.27.77.77,0,0,0-.08.34,1,1,0,0,0,.08.4,1.07,1.07,0,0,0,.25.28,2.11,2.11,0,0,0,.4.22l.53.22a6.21,6.21,0,0,1,.72.31,2.82,2.82,0,0,1,.54.36,1.41,1.41,0,0,1,.34.47,1.48,1.48,0,0,1,.12.63,1.5,1.5,0,0,1-.2.77,1.58,1.58,0,0,1-.52.54,2.28,2.28,0,0,1-.76.33,3.68,3.68,0,0,1-.89.1A3.39,3.39,0,0,1,220.24,186.9Z" fill="#1e1e1e"/>
    </g>
    <g>
      <path d="M248.25,346.75v3.17h-1v-8.4h2.31a3.08,3.08,0,0,1,2.09.65,2.37,2.37,0,0,1,.74,1.86,2.52,2.52,0,0,1-.82,2,3.15,3.15,0,0,1-2.23.77Zm0-4.34v3.44h1a2.28,2.28,0,0,0,1.55-.46,1.65,1.65,0,0,0,.54-1.32c0-1.11-.66-1.66-2-1.66Z" fill="#1e1e1e"/>
      <path d="M255.92,350.06a2.79,2.79,0,0,1-2.13-.84A3.1,3.1,0,0,1,253,347a3.24,3.24,0,0,1,.82-2.36,3,3,0,0,1,2.24-.85,2.69,2.69,0,0,1,2.09.83,3.77,3.77,0,0,1-.06,4.59A2.85,2.85,0,0,1,255.92,350.06Zm.07-5.47a1.84,1.84,0,0,0-1.47.63A2.59,2.59,0,0,0,254,347a2.41,2.41,0,0,0,.55,1.68,1.85,1.85,0,0,0,1.46.61,1.77,1.77,0,0,0,1.43-.6,3.23,3.23,0,0,0,0-3.45A1.74,1.74,0,0,0,256,344.59Z" fill="#1e1e1e"/>
      <path d="M268,343.92l-1.8,6h-1L264,345.63a3,3,0,0,1-.1-.56h0a2.44,2.44,0,0,1-.12.54l-1.35,4.31h-1l-1.81-6h1l1.24,4.51a3.12,3.12,0,0,1,.08.54H262a2.38,2.38,0,0,1,.1-.55l1.38-4.5h.88l1.25,4.52a5.29,5.29,0,0,1,.08.54h.05a2.61,2.61,0,0,1,.1-.54l1.22-4.52Z" fill="#1e1e1e"/>
      <path d="M273.93,347.16H269.7a2.21,2.21,0,0,0,.54,1.55,1.85,1.85,0,0,0,1.41.54,2.94,2.94,0,0,0,1.87-.67v.91a3.52,3.52,0,0,1-2.09.57,2.52,2.52,0,0,1-2-.82,3.81,3.81,0,0,1,.07-4.58,2.51,2.51,0,0,1,2-.88,2.25,2.25,0,0,1,1.82.76,3.18,3.18,0,0,1,.64,2.12Zm-1-.81a2,2,0,0,0-.4-1.3,1.37,1.37,0,0,0-1.1-.46,1.56,1.56,0,0,0-1.16.49,2.18,2.18,0,0,0-.58,1.27Z" fill="#1e1e1e"/>
      <path d="M278.52,344.89a1.18,1.18,0,0,0-.73-.19,1.23,1.23,0,0,0-1,.58,2.72,2.72,0,0,0-.41,1.58v3.06h-1v-6h1v1.24h0a2.17,2.17,0,0,1,.63-1,1.39,1.39,0,0,1,.94-.35,1.52,1.52,0,0,1,.58.08Z" fill="#1e1e1e"/>
      <path d="M279.29,349.58v-1.16a2.86,2.86,0,0,0,.48.32,3.8,3.8,0,0,0,.59.23,3.3,3.3,0,0,0,.62.15,2.91,2.91,0,0,0,.57.06,2.29,2.29,0,0,0,1.36-.34,1.26,1.26,0,0,0,.3-1.56,1.64,1.64,0,0,0-.42-.46,3.91,3.91,0,0,0-.62-.4l-.78-.4-.82-.45a3.4,3.4,0,0,1-.66-.51,2.06,2.06,0,0,1-.44-.62,1.91,1.91,0,0,1-.16-.82,1.93,1.93,0,0,1,.25-1,2.32,2.32,0,0,1,.66-.7,3.08,3.08,0,0,1,.94-.41,5.12,5.12,0,0,1,2.88.17v1.1a3.34,3.34,0,0,0-1.92-.51,2.85,2.85,0,0,0-.64.07,1.51,1.51,0,0,0-.57.22,1.18,1.18,0,0,0-.41.39,1,1,0,0,0-.16.58,1.22,1.22,0,0,0,.12.56,1.41,1.41,0,0,0,.35.43,3.75,3.75,0,0,0,.57.37l.78.4c.3.15.59.31.86.47a3.55,3.55,0,0,1,.7.55,2.23,2.23,0,0,1,.49.66,1.84,1.84,0,0,1,.18.83,2,2,0,0,1-.25,1.05,2,2,0,0,1-.65.7,3,3,0,0,1-.95.39,5.24,5.24,0,0,1-1.14.12l-.49,0q-.3,0-.6-.09c-.2-.05-.4-.1-.58-.16A1.65,1.65,0,0,1,279.29,349.58Z" fill="#1e1e1e"/>
      <path d="M290.91,349.92h-1v-3.46c0-1.25-.46-1.87-1.39-1.87a1.55,1.55,0,0,0-1.19.54,2,2,0,0,0-.48,1.39v3.4h-1V341h1v3.88h0a2.18,2.18,0,0,1,2-1.14c1.35,0,2,.81,2,2.44Z" fill="#1e1e1e"/>
      <path d="M297.55,347.16h-4.24a2.3,2.3,0,0,0,.54,1.55,1.87,1.87,0,0,0,1.42.54,2.93,2.93,0,0,0,1.86-.67v.91a3.5,3.5,0,0,1-2.09.57,2.53,2.53,0,0,1-2-.82,3.36,3.36,0,0,1-.73-2.3,3.29,3.29,0,0,1,.8-2.28,2.53,2.53,0,0,1,2-.88,2.24,2.24,0,0,1,1.82.76,3.18,3.18,0,0,1,.65,2.12Zm-1-.81a2,2,0,0,0-.4-1.3,1.36,1.36,0,0,0-1.1-.46,1.52,1.52,0,0,0-1.15.49,2.19,2.19,0,0,0-.59,1.27Z" fill="#1e1e1e"/>
      <path d="M300,349.92h-1V341h1Z" fill="#1e1e1e"/>
      <path d="M302.87,349.92h-1V341h1Z" fill="#1e1e1e"/>
      <path d="M260.65,362.78v-1.16a2.23,2.23,0,0,0,.48.32,3.69,3.69,0,0,0,.58.23,3.5,3.5,0,0,0,.62.15,3.09,3.09,0,0,0,.58.06,2.27,2.27,0,0,0,1.35-.34,1.26,1.26,0,0,0,.3-1.56,1.76,1.76,0,0,0-.41-.46,4.57,4.57,0,0,0-.63-.4l-.77-.4c-.29-.15-.57-.3-.82-.45a2.89,2.89,0,0,1-.66-.51,2.1,2.1,0,0,1-.45-.62,2.07,2.07,0,0,1-.16-.82,2,2,0,0,1,.25-1,2.24,2.24,0,0,1,.67-.7,3,3,0,0,1,.93-.41,4.29,4.29,0,0,1,1.07-.13,4.08,4.08,0,0,1,1.81.3V356a3.31,3.31,0,0,0-1.91-.51,2.79,2.79,0,0,0-.64.07,1.56,1.56,0,0,0-.58.22,1.27,1.27,0,0,0-.41.39,1.07,1.07,0,0,0-.16.58,1.22,1.22,0,0,0,.12.56,1.31,1.31,0,0,0,.36.43,3,3,0,0,0,.57.37c.22.12.48.26.78.4s.58.31.85.47a4,4,0,0,1,.71.55,2.53,2.53,0,0,1,.48.66,1.84,1.84,0,0,1,.18.83,2.14,2.14,0,0,1-.24,1.05,1.93,1.93,0,0,1-.66.7,2.8,2.8,0,0,1-.95.39,5.24,5.24,0,0,1-1.14.12l-.49,0-.6-.09-.57-.16A1.65,1.65,0,0,1,260.65,362.78Z" fill="#1e1e1e"/>
      <path d="M271.38,362.85a3.19,3.19,0,0,1-1.64.41,2.72,2.72,0,0,1-2.07-.83,3,3,0,0,1-.79-2.17,3.3,3.3,0,0,1,.85-2.38A3,3,0,0,1,270,357a3.23,3.23,0,0,1,1.39.29v1a2.45,2.45,0,0,0-1.43-.47,1.93,1.93,0,0,0-1.51.66,2.5,2.5,0,0,0-.59,1.73,2.36,2.36,0,0,0,.56,1.66,1.89,1.89,0,0,0,1.48.61,2.39,2.39,0,0,0,1.48-.52Z" fill="#1e1e1e"/>
      <path d="M276,358.09a1.18,1.18,0,0,0-.73-.19,1.2,1.2,0,0,0-1,.58,2.64,2.64,0,0,0-.42,1.58v3.06h-1v-6h1v1.24h0a2.08,2.08,0,0,1,.62-1,1.42,1.42,0,0,1,.95-.35,1.44,1.44,0,0,1,.57.08Z" fill="#1e1e1e"/>
      <path d="M277.5,355.6a.59.59,0,0,1-.44-.18.6.6,0,0,1-.19-.44.62.62,0,0,1,.19-.45.59.59,0,0,1,.44-.18.6.6,0,0,1,.44.18.58.58,0,0,1,.19.45.59.59,0,0,1-.19.44A.6.6,0,0,1,277.5,355.6Zm.46,7.52h-1v-6h1Z" fill="#1e1e1e"/>
      <path d="M280.89,362.25h0v3.63h-1v-8.76h1v1.06h0A2.29,2.29,0,0,1,283,357a2.19,2.19,0,0,1,1.81.81,3.33,3.33,0,0,1,.65,2.16,3.72,3.72,0,0,1-.73,2.41,2.46,2.46,0,0,1-2,.9A2,2,0,0,1,280.89,362.25Zm0-2.42v.84a1.77,1.77,0,0,0,.48,1.26,1.73,1.73,0,0,0,2.6-.14,3.09,3.09,0,0,0,.5-1.86,2.41,2.41,0,0,0-.47-1.57,1.52,1.52,0,0,0-1.25-.57,1.7,1.7,0,0,0-1.35.58A2.15,2.15,0,0,0,280.87,359.83Z" fill="#1e1e1e"/>
      <path d="M289.75,363.06a1.82,1.82,0,0,1-.9.19c-1.05,0-1.57-.59-1.57-1.76v-3.55h-1v-.82h1v-1.46l1-.31v1.77h1.51v.82h-1.51v3.38a1.38,1.38,0,0,0,.2.86.8.8,0,0,0,.68.26,1,1,0,0,0,.63-.2Z" fill="#1e1e1e"/>
    </g>
    <g>
      <path d="M144.36,224.57a4.89,4.89,0,0,1-2.32.49,3.73,3.73,0,0,1-2.87-1.15,4.26,4.26,0,0,1-1.08-3,4.45,4.45,0,0,1,1.21-3.26,4.12,4.12,0,0,1,3.08-1.24,4.92,4.92,0,0,1,2,.34v1.05a4.08,4.08,0,0,0-2-.5,3,3,0,0,0-2.35,1,3.62,3.62,0,0,0-.9,2.58,3.49,3.49,0,0,0,.84,2.45,2.89,2.89,0,0,0,2.21.91,4.11,4.11,0,0,0,2.19-.57Z" fill="#1e1e1e"/>
      <path d="M148.45,225.06a2.76,2.76,0,0,1-2.12-.84,3.11,3.11,0,0,1-.8-2.23,3.25,3.25,0,0,1,.83-2.36,3,3,0,0,1,2.23-.85,2.73,2.73,0,0,1,2.1.83,3.77,3.77,0,0,1-.06,4.59A2.87,2.87,0,0,1,148.45,225.06Zm.07-5.47a1.8,1.8,0,0,0-1.46.63,2.59,2.59,0,0,0-.54,1.74,2.46,2.46,0,0,0,.54,1.68,1.85,1.85,0,0,0,1.46.61,1.75,1.75,0,0,0,1.43-.6,3.23,3.23,0,0,0,0-3.45A1.73,1.73,0,0,0,148.52,219.59Z" fill="#1e1e1e"/>
      <path d="M158,224.92h-1V221.5c0-1.27-.46-1.91-1.39-1.91a1.5,1.5,0,0,0-1.19.54,2,2,0,0,0-.48,1.37v3.42h-1v-6h1v1h0a2.16,2.16,0,0,1,2-1.14,1.82,1.82,0,0,1,1.5.64,2.79,2.79,0,0,1,.52,1.83Z" fill="#1e1e1e"/>
      <path d="M162.73,216.88a1.35,1.35,0,0,0-.64-.16c-.67,0-1,.43-1,1.28v.92h1.41v.82h-1.41v5.18h-1v-5.18h-1v-.82h1v-1a2,2,0,0,1,.54-1.49,1.84,1.84,0,0,1,1.36-.55,1.92,1.92,0,0,1,.7.1Z" fill="#1e1e1e"/>
      <path d="M164,217.4a.6.6,0,0,1-.44-.18.59.59,0,0,1-.18-.44.61.61,0,0,1,.18-.45.6.6,0,0,1,.44-.18.61.61,0,0,1,.45.18.62.62,0,0,1,.19.45.63.63,0,0,1-.19.44A.61.61,0,0,1,164,217.4Zm.47,7.52h-1v-6h1Z" fill="#1e1e1e"/>
      <path d="M171.55,224.44c0,2.2-1.06,3.31-3.17,3.31a4.24,4.24,0,0,1-1.94-.43v-1a3.92,3.92,0,0,0,1.93.56c1.48,0,2.22-.78,2.22-2.35v-.66h0a2.42,2.42,0,0,1-3.86.35,3.17,3.17,0,0,1-.68-2.15,3.73,3.73,0,0,1,.73-2.43,2.46,2.46,0,0,1,2-.9,2,2,0,0,1,1.8,1h0v-.83h1Zm-1-2.23v-.89a1.69,1.69,0,0,0-.49-1.22,1.58,1.58,0,0,0-1.2-.51,1.67,1.67,0,0,0-1.4.65,2.91,2.91,0,0,0-.5,1.81,2.48,2.48,0,0,0,.48,1.6,1.57,1.57,0,0,0,1.28.6,1.69,1.69,0,0,0,1.32-.57A2.12,2.12,0,0,0,170.59,222.21Z" fill="#1e1e1e"/>
      <path d="M178.34,224.92h-1V224h0a2,2,0,0,1-1.85,1.09c-1.43,0-2.15-.85-2.15-2.55v-3.59h1v3.43c0,1.27.48,1.9,1.45,1.9a1.46,1.46,0,0,0,1.16-.52,2,2,0,0,0,.45-1.35v-3.46h1Z" fill="#1e1e1e"/>
      <path d="M183.41,219.89a1.16,1.16,0,0,0-.72-.19,1.21,1.21,0,0,0-1,.58,2.64,2.64,0,0,0-.42,1.58v3.06h-1v-6h1v1.24h0a2,2,0,0,1,.63-1,1.39,1.39,0,0,1,.94-.35,1.44,1.44,0,0,1,.57.08Z" fill="#1e1e1e"/>
      <path d="M189.28,222.16H185a2.3,2.3,0,0,0,.54,1.55,1.87,1.87,0,0,0,1.42.54,2.91,2.91,0,0,0,1.86-.67v.91a3.5,3.5,0,0,1-2.09.57,2.53,2.53,0,0,1-2-.82,3.35,3.35,0,0,1-.72-2.3,3.28,3.28,0,0,1,.79-2.28,2.54,2.54,0,0,1,2-.88,2.24,2.24,0,0,1,1.82.76,3.18,3.18,0,0,1,.65,2.12Zm-1-.81a1.91,1.91,0,0,0-.4-1.3,1.36,1.36,0,0,0-1.1-.46,1.54,1.54,0,0,0-1.15.49,2.19,2.19,0,0,0-.59,1.27Z" fill="#1e1e1e"/>
      <path d="M200.65,224.92h-1.09l-.89-2.35h-3.56l-.84,2.35h-1.1l3.23-8.4h1Zm-2.3-3.24L197,218.1a3.38,3.38,0,0,1-.13-.56h0a3.23,3.23,0,0,1-.14.56l-1.3,3.58Z" fill="#1e1e1e"/>
      <path d="M202.74,224.05h0v3.63h-1v-8.76h1V220h0a2.29,2.29,0,0,1,2.08-1.2,2.2,2.2,0,0,1,1.81.81,3.33,3.33,0,0,1,.65,2.16,3.78,3.78,0,0,1-.73,2.41,2.46,2.46,0,0,1-2,.9A2,2,0,0,1,202.74,224.05Zm0-2.42v.84a1.77,1.77,0,0,0,.48,1.26,1.59,1.59,0,0,0,1.23.52,1.6,1.6,0,0,0,1.37-.67,3,3,0,0,0,.49-1.85,2.41,2.41,0,0,0-.46-1.57,1.53,1.53,0,0,0-1.25-.57,1.7,1.7,0,0,0-1.35.58A2.15,2.15,0,0,0,202.72,221.63Z" fill="#1e1e1e"/>
      <path d="M209.8,224.05h0v3.63h-1v-8.76h1V220h0a2.26,2.26,0,0,1,2.07-1.2,2.18,2.18,0,0,1,1.81.81,3.28,3.28,0,0,1,.65,2.16,3.72,3.72,0,0,1-.73,2.41,2.45,2.45,0,0,1-2,.9A2,2,0,0,1,209.8,224.05Zm0-2.42v.84a1.78,1.78,0,0,0,.49,1.26,1.71,1.71,0,0,0,2.59-.15,3,3,0,0,0,.5-1.85,2.47,2.47,0,0,0-.46-1.57,1.54,1.54,0,0,0-1.26-.57,1.7,1.7,0,0,0-1.35.58A2.15,2.15,0,0,0,209.77,221.63Z" fill="#1e1e1e"/>
      <path d="M146.91,238.12h-1.18l-1.4-2.35a4.9,4.9,0,0,0-.38-.56,1.92,1.92,0,0,0-.37-.38,1.36,1.36,0,0,0-.41-.22,1.88,1.88,0,0,0-.49-.06h-.81v3.57h-1v-8.4h2.51a3.31,3.31,0,0,1,1,.14,2.23,2.23,0,0,1,.81.42,2,2,0,0,1,.53.7,2.58,2.58,0,0,1,.06,1.78,2,2,0,0,1-.37.66,2.37,2.37,0,0,1-.59.49,3.35,3.35,0,0,1-.77.31v0a1.81,1.81,0,0,1,.66.5,2.75,2.75,0,0,1,.28.37c.09.14.2.3.31.49Zm-5-7.51v3h1.33a1.92,1.92,0,0,0,.69-.12,1.81,1.81,0,0,0,.54-.31,1.41,1.41,0,0,0,.35-.51,1.68,1.68,0,0,0,.13-.68,1.31,1.31,0,0,0-.43-1,1.89,1.89,0,0,0-1.27-.38Z" fill="#1e1e1e"/>
      <path d="M152.4,235.36h-4.23a2.25,2.25,0,0,0,.53,1.55,1.88,1.88,0,0,0,1.42.54,3,3,0,0,0,1.87-.66v.9a3.53,3.53,0,0,1-2.1.57,2.51,2.51,0,0,1-2-.82,3.83,3.83,0,0,1,.06-4.58,2.55,2.55,0,0,1,2-.88,2.25,2.25,0,0,1,1.82.76,3.19,3.19,0,0,1,.64,2.12Zm-1-.81a2,2,0,0,0-.4-1.3,1.37,1.37,0,0,0-1.1-.46,1.54,1.54,0,0,0-1.16.49,2.18,2.18,0,0,0-.58,1.27Z" fill="#1e1e1e"/>
      <path d="M159,240.88h-1v-3.79h0a2.15,2.15,0,0,1-2.05,1.17,2.27,2.27,0,0,1-1.81-.8,3.28,3.28,0,0,1-.69-2.2,3.62,3.62,0,0,1,.75-2.39,2.52,2.52,0,0,1,2-.89,1.89,1.89,0,0,1,1.78,1h0v-.83h1Zm-1-5.46v-.87a1.75,1.75,0,0,0-.49-1.25,1.61,1.61,0,0,0-1.23-.51,1.66,1.66,0,0,0-1.37.64,2.91,2.91,0,0,0-.5,1.81,2.43,2.43,0,0,0,.49,1.62,1.52,1.52,0,0,0,1.25.59,1.69,1.69,0,0,0,1.34-.57A2.13,2.13,0,0,0,158,235.42Z" fill="#1e1e1e"/>
      <path d="M165.77,238.12h-1v-1h0a2,2,0,0,1-1.85,1.09c-1.43,0-2.15-.85-2.15-2.55v-3.59h1v3.43c0,1.27.48,1.9,1.45,1.9a1.46,1.46,0,0,0,1.16-.52,2,2,0,0,0,.45-1.35v-3.46h1Z" fill="#1e1e1e"/>
      <path d="M168.2,230.6a.58.58,0,0,1-.43-.18.56.56,0,0,1-.19-.44.63.63,0,0,1,.62-.63.61.61,0,0,1,.45.18.58.58,0,0,1,.19.45.59.59,0,0,1-.19.44A.61.61,0,0,1,168.2,230.6Zm.47,7.52h-1v-6h1Z" fill="#1e1e1e"/>
      <path d="M173.75,233.09a1.18,1.18,0,0,0-.73-.19,1.23,1.23,0,0,0-1,.58,2.72,2.72,0,0,0-.41,1.58v3.06h-1v-6h1v1.24h0a2.17,2.17,0,0,1,.63-1,1.41,1.41,0,0,1,.94-.35,1.52,1.52,0,0,1,.58.08Z" fill="#1e1e1e"/>
      <path d="M179.61,235.36h-4.23a2.21,2.21,0,0,0,.54,1.55,1.85,1.85,0,0,0,1.41.54,3,3,0,0,0,1.87-.66v.9a3.53,3.53,0,0,1-2.1.57,2.51,2.51,0,0,1-2-.82,3.83,3.83,0,0,1,.06-4.58,2.55,2.55,0,0,1,2-.88,2.25,2.25,0,0,1,1.82.76,3.19,3.19,0,0,1,.64,2.12Zm-1-.81a2,2,0,0,0-.4-1.3,1.37,1.37,0,0,0-1.1-.46,1.56,1.56,0,0,0-1.16.49,2.18,2.18,0,0,0-.58,1.27Z" fill="#1e1e1e"/>
      <path d="M189.59,238.12h-1v-3.44a2.68,2.68,0,0,0-.3-1.45,1.19,1.19,0,0,0-1-.44,1.27,1.27,0,0,0-1,.56,2.16,2.16,0,0,0-.43,1.35v3.42h-1v-3.56c0-1.18-.46-1.77-1.37-1.77a1.27,1.27,0,0,0-1,.53,2.14,2.14,0,0,0-.41,1.38v3.42h-1v-6h1v.95h0a2,2,0,0,1,1.86-1.09,1.76,1.76,0,0,1,1.08.34,1.73,1.73,0,0,1,.62.9,2.14,2.14,0,0,1,2-1.24c1.33,0,2,.81,2,2.44Z" fill="#1e1e1e"/>
      <path d="M196.22,235.36H192a2.21,2.21,0,0,0,.54,1.55,1.85,1.85,0,0,0,1.41.54,3,3,0,0,0,1.87-.66v.9a3.52,3.52,0,0,1-2.09.57,2.52,2.52,0,0,1-2-.82,3.81,3.81,0,0,1,.07-4.58,2.51,2.51,0,0,1,2-.88,2.25,2.25,0,0,1,1.82.76,3.19,3.19,0,0,1,.64,2.12Zm-1-.81a2,2,0,0,0-.4-1.3,1.37,1.37,0,0,0-1.1-.46,1.52,1.52,0,0,0-1.15.49,2.13,2.13,0,0,0-.59,1.27Z" fill="#1e1e1e"/>
      <path d="M202.66,238.12h-1V234.7c0-1.27-.47-1.91-1.4-1.91a1.5,1.5,0,0,0-1.19.54,2,2,0,0,0-.47,1.37v3.42h-1v-6h1v1h0a2.16,2.16,0,0,1,2-1.14,1.83,1.83,0,0,1,1.51.64,2.85,2.85,0,0,1,.52,1.83Z" fill="#1e1e1e"/>
      <path d="M207.25,238.06a1.8,1.8,0,0,1-.9.19c-1,0-1.57-.59-1.57-1.76v-3.55h-1v-.82h1v-1.46l1-.31v1.77h1.51v.82h-1.51v3.38a1.45,1.45,0,0,0,.2.86.81.81,0,0,0,.68.26,1,1,0,0,0,.63-.2Z" fill="#1e1e1e"/>
      <path d="M208.17,237.9v-1a2.82,2.82,0,0,0,1.73.58c.84,0,1.27-.28,1.27-.84a.76.76,0,0,0-.11-.41,1,1,0,0,0-.3-.29,1.94,1.94,0,0,0-.43-.24l-.54-.21a6.6,6.6,0,0,1-.7-.32,2.47,2.47,0,0,1-.5-.36,1.35,1.35,0,0,1-.3-.46,1.58,1.58,0,0,1-.11-.61,1.39,1.39,0,0,1,.2-.74,1.78,1.78,0,0,1,.51-.55,2.77,2.77,0,0,1,.74-.33,3.56,3.56,0,0,1,2.24.16v1a2.68,2.68,0,0,0-1.52-.43,1.88,1.88,0,0,0-.49.06,1.4,1.4,0,0,0-.37.17,1,1,0,0,0-.24.27.77.77,0,0,0-.08.34,1,1,0,0,0,.08.4,1.07,1.07,0,0,0,.25.28,2.11,2.11,0,0,0,.4.22l.53.22a6.21,6.21,0,0,1,.72.31,2.82,2.82,0,0,1,.54.36,1.41,1.41,0,0,1,.34.47,1.48,1.48,0,0,1,.12.63,1.5,1.5,0,0,1-.2.77,1.58,1.58,0,0,1-.52.54,2.28,2.28,0,0,1-.76.33,3.68,3.68,0,0,1-.89.1A3.39,3.39,0,0,1,208.17,237.9Z" fill="#1e1e1e"/>
    </g>
    <g>
      <path d="M137.82,435.57a4.89,4.89,0,0,1-2.32.49,3.74,3.74,0,0,1-2.87-1.15,4.26,4.26,0,0,1-1.08-3,4.46,4.46,0,0,1,1.22-3.26,4.1,4.1,0,0,1,3.07-1.24,4.92,4.92,0,0,1,2,.34v1a4.05,4.05,0,0,0-2-.5,3.06,3.06,0,0,0-2.35,1,3.66,3.66,0,0,0-.89,2.58,3.49,3.49,0,0,0,.84,2.45,2.87,2.87,0,0,0,2.2.91,4.06,4.06,0,0,0,2.19-.57Z" fill="#1e1e1e"/>
      <path d="M141.91,436.06a2.79,2.79,0,0,1-2.12-.84A3.1,3.1,0,0,1,139,433a3.24,3.24,0,0,1,.82-2.36,3,3,0,0,1,2.23-.85,2.7,2.7,0,0,1,2.1.83,3.77,3.77,0,0,1-.06,4.59A2.87,2.87,0,0,1,141.91,436.06Zm.07-5.47a1.83,1.83,0,0,0-1.46.63A2.59,2.59,0,0,0,140,433a2.46,2.46,0,0,0,.54,1.68,1.86,1.86,0,0,0,1.46.61,1.79,1.79,0,0,0,1.44-.6,3.23,3.23,0,0,0,0-3.45A1.76,1.76,0,0,0,142,430.59Z" fill="#1e1e1e"/>
      <path d="M151.42,435.92h-1V432.5c0-1.27-.47-1.91-1.4-1.91a1.5,1.5,0,0,0-1.19.54,2,2,0,0,0-.47,1.37v3.42h-1v-6h1v1h0a2.16,2.16,0,0,1,2-1.14,1.83,1.83,0,0,1,1.51.64,2.85,2.85,0,0,1,.52,1.83Z" fill="#1e1e1e"/>
      <path d="M156.19,427.88a1.32,1.32,0,0,0-.64-.16c-.67,0-1,.43-1,1.28v.92H156v.82h-1.4v5.18h-1v-5.18h-1v-.82h1v-1a2,2,0,0,1,.55-1.49,1.81,1.81,0,0,1,1.36-.55,1.86,1.86,0,0,1,.69.1Z" fill="#1e1e1e"/>
      <path d="M157.48,428.4a.59.59,0,0,1-.44-.18.6.6,0,0,1-.19-.44.62.62,0,0,1,.19-.45.59.59,0,0,1,.44-.18.6.6,0,0,1,.44.18.58.58,0,0,1,.19.45.59.59,0,0,1-.19.44A.6.6,0,0,1,157.48,428.4Zm.46,7.52h-1v-6h1Z" fill="#1e1e1e"/>
      <path d="M165,435.44c0,2.2-1,3.31-3.16,3.31a4.28,4.28,0,0,1-1.95-.43v-1a4,4,0,0,0,1.94.56c1.47,0,2.21-.78,2.21-2.35v-.66h0a2.43,2.43,0,0,1-3.87.35,3.22,3.22,0,0,1-.68-2.15,3.73,3.73,0,0,1,.74-2.43,2.46,2.46,0,0,1,2-.9,2,2,0,0,1,1.8,1h0v-.83h1Zm-1-2.23v-.89a1.72,1.72,0,0,0-.48-1.22,1.62,1.62,0,0,0-1.21-.51,1.64,1.64,0,0,0-1.39.65,2.85,2.85,0,0,0-.51,1.81,2.48,2.48,0,0,0,.49,1.6,1.56,1.56,0,0,0,1.28.6,1.65,1.65,0,0,0,1.31-.57A2.12,2.12,0,0,0,164.05,433.21Z" fill="#1e1e1e"/>
      <path d="M171.81,435.92h-1V435h0a2,2,0,0,1-1.85,1.09c-1.43,0-2.14-.85-2.14-2.55v-3.59h.95v3.43c0,1.27.49,1.9,1.46,1.9a1.45,1.45,0,0,0,1.15-.52,1.92,1.92,0,0,0,.46-1.35v-3.46h1Z" fill="#1e1e1e"/>
      <path d="M176.88,430.89a1.18,1.18,0,0,0-.73-.19,1.23,1.23,0,0,0-1,.58,2.72,2.72,0,0,0-.41,1.58v3.06h-1v-6h1v1.24h0a2.17,2.17,0,0,1,.63-1,1.39,1.39,0,0,1,.94-.35,1.52,1.52,0,0,1,.58.08Z" fill="#1e1e1e"/>
      <path d="M182.74,433.16h-4.23a2.25,2.25,0,0,0,.53,1.55,1.88,1.88,0,0,0,1.42.54,2.94,2.94,0,0,0,1.87-.67v.91a3.53,3.53,0,0,1-2.1.57,2.51,2.51,0,0,1-2-.82,3.83,3.83,0,0,1,.06-4.58,2.54,2.54,0,0,1,2-.88,2.26,2.26,0,0,1,1.83.76,3.18,3.18,0,0,1,.64,2.12Zm-1-.81a2,2,0,0,0-.4-1.3,1.37,1.37,0,0,0-1.1-.46,1.54,1.54,0,0,0-1.16.49,2.18,2.18,0,0,0-.58,1.27Z" fill="#1e1e1e"/>
      <path d="M193.63,435.92h-1.17l-1.4-2.35a4.9,4.9,0,0,0-.38-.56,1.92,1.92,0,0,0-.37-.38,1.36,1.36,0,0,0-.41-.22,1.9,1.9,0,0,0-.5-.06h-.8v3.57h-1v-8.4h2.51a3.36,3.36,0,0,1,1,.14,2.11,2.11,0,0,1,.8.42,1.88,1.88,0,0,1,.54.7,2.37,2.37,0,0,1-.31,2.44,2.57,2.57,0,0,1-.59.49,3.35,3.35,0,0,1-.77.31v0a1.81,1.81,0,0,1,.66.5,2.75,2.75,0,0,1,.28.37l.31.49Zm-5-7.51v3h1.33a1.87,1.87,0,0,0,.68-.12,1.74,1.74,0,0,0,.55-.31,1.41,1.41,0,0,0,.35-.51,1.68,1.68,0,0,0,.13-.68,1.31,1.31,0,0,0-.43-1,1.92,1.92,0,0,0-1.27-.38Z" fill="#1e1e1e"/>
      <path d="M199.13,433.16h-4.24a2.3,2.3,0,0,0,.54,1.55,1.88,1.88,0,0,0,1.42.54,2.89,2.89,0,0,0,1.86-.67v.91a3.47,3.47,0,0,1-2.09.57,2.53,2.53,0,0,1-2-.82,3.35,3.35,0,0,1-.72-2.3,3.28,3.28,0,0,1,.79-2.28,2.54,2.54,0,0,1,2-.88,2.26,2.26,0,0,1,1.83.76,3.18,3.18,0,0,1,.64,2.12Zm-1-.81a2,2,0,0,0-.41-1.3,1.35,1.35,0,0,0-1.09-.46,1.54,1.54,0,0,0-1.16.49,2.18,2.18,0,0,0-.58,1.27Z" fill="#1e1e1e"/>
      <path d="M203.37,435.86a1.82,1.82,0,0,1-.9.19c-1.05,0-1.58-.59-1.58-1.76v-3.55h-1v-.82h1v-1.46l1-.31v1.77h1.52v.82h-1.52v3.38a1.37,1.37,0,0,0,.21.86.8.8,0,0,0,.68.26,1.05,1.05,0,0,0,.63-.2Z" fill="#1e1e1e"/>
      <path d="M209.5,435.92h-1V435h0a2,2,0,0,1-1.85,1.09c-1.43,0-2.15-.85-2.15-2.55v-3.59h1v3.43c0,1.27.48,1.9,1.45,1.9a1.47,1.47,0,0,0,1.16-.52,2,2,0,0,0,.45-1.35v-3.46h1Z" fill="#1e1e1e"/>
      <path d="M214.57,430.89a1.18,1.18,0,0,0-.73-.19,1.23,1.23,0,0,0-1,.58,2.72,2.72,0,0,0-.41,1.58v3.06h-1v-6h1v1.24h0a2.08,2.08,0,0,1,.62-1,1.42,1.42,0,0,1,.95-.35,1.44,1.44,0,0,1,.57.08Z" fill="#1e1e1e"/>
      <path d="M220.59,435.92h-1V432.5c0-1.27-.46-1.91-1.39-1.91a1.5,1.5,0,0,0-1.19.54,2,2,0,0,0-.48,1.37v3.42h-1v-6h1v1h0a2.16,2.16,0,0,1,2-1.14,1.82,1.82,0,0,1,1.5.64,2.79,2.79,0,0,1,.52,1.83Z" fill="#1e1e1e"/>
      <path d="M165.78,448.85a3.22,3.22,0,0,1-1.64.41,2.76,2.76,0,0,1-2.08-.83,3.06,3.06,0,0,1-.78-2.17,3.3,3.3,0,0,1,.85-2.38,3,3,0,0,1,2.26-.9,3.24,3.24,0,0,1,1.4.29v1a2.47,2.47,0,0,0-1.43-.47,1.92,1.92,0,0,0-1.51.66,2.5,2.5,0,0,0-.59,1.73,2.36,2.36,0,0,0,.55,1.66,1.91,1.91,0,0,0,1.49.61,2.43,2.43,0,0,0,1.48-.52Z" fill="#1e1e1e"/>
      <path d="M169.74,449.26a2.79,2.79,0,0,1-2.13-.84,3.1,3.1,0,0,1-.79-2.23,3.21,3.21,0,0,1,.83-2.36,3,3,0,0,1,2.23-.85,2.69,2.69,0,0,1,2.09.83,3.73,3.73,0,0,1-.06,4.59A2.85,2.85,0,0,1,169.74,449.26Zm.07-5.47a1.84,1.84,0,0,0-1.47.63,2.59,2.59,0,0,0-.54,1.74,2.41,2.41,0,0,0,.55,1.68,1.85,1.85,0,0,0,1.46.61,1.75,1.75,0,0,0,1.43-.6,2.63,2.63,0,0,0,.5-1.72,2.66,2.66,0,0,0-.5-1.73A1.73,1.73,0,0,0,169.81,443.79Z" fill="#1e1e1e"/>
      <path d="M179.38,449.12h-1v-1h0a2.22,2.22,0,0,1-2.07,1.16,2.25,2.25,0,0,1-1.8-.8,3.33,3.33,0,0,1-.68-2.2,3.57,3.57,0,0,1,.75-2.38,2.48,2.48,0,0,1,2-.9,1.93,1.93,0,0,1,1.8,1h0v-3.71h1Zm-1-2.71v-.89a1.73,1.73,0,0,0-.48-1.23,1.78,1.78,0,0,0-2.6.14,2.81,2.81,0,0,0-.51,1.78,2.54,2.54,0,0,0,.49,1.64,1.57,1.57,0,0,0,1.3.6,1.63,1.63,0,0,0,1.3-.58A2.16,2.16,0,0,0,178.42,446.41Z" fill="#1e1e1e"/>
      <path d="M186.15,446.36h-4.24a2.3,2.3,0,0,0,.54,1.55,1.88,1.88,0,0,0,1.42.54,2.94,2.94,0,0,0,1.86-.66v.9a3.47,3.47,0,0,1-2.09.57,2.53,2.53,0,0,1-2-.82,3.35,3.35,0,0,1-.72-2.3,3.28,3.28,0,0,1,.79-2.28,2.54,2.54,0,0,1,2-.88,2.24,2.24,0,0,1,1.82.76,3.2,3.2,0,0,1,.65,2.12Zm-1-.81a1.91,1.91,0,0,0-.4-1.3,1.36,1.36,0,0,0-1.1-.46,1.54,1.54,0,0,0-1.15.49,2.19,2.19,0,0,0-.59,1.27Z" fill="#1e1e1e"/>
      <path d="M187.24,448.9v-1a2.82,2.82,0,0,0,1.73.58q1.26,0,1.26-.84a.68.68,0,0,0-.11-.41,1,1,0,0,0-.29-.29,2.19,2.19,0,0,0-.43-.24l-.54-.21a5.79,5.79,0,0,1-.7-.32,2.22,2.22,0,0,1-.5-.36,1.38,1.38,0,0,1-.31-.46,1.59,1.59,0,0,1-.1-.61,1.38,1.38,0,0,1,.19-.74,1.7,1.7,0,0,1,.52-.55,2.71,2.71,0,0,1,.73-.33,3.49,3.49,0,0,1,.86-.11,3.41,3.41,0,0,1,1.39.27v1a2.7,2.7,0,0,0-1.52-.43,1.88,1.88,0,0,0-.49.06,1.26,1.26,0,0,0-.37.17,1,1,0,0,0-.24.27.67.67,0,0,0-.09.34.82.82,0,0,0,.09.4,1.07,1.07,0,0,0,.25.28,2.11,2.11,0,0,0,.4.22l.53.22a7.07,7.07,0,0,1,.72.31,2.45,2.45,0,0,1,.53.36,1.45,1.45,0,0,1,.35.47,1.48,1.48,0,0,1,.12.63,1.5,1.5,0,0,1-.2.77,1.58,1.58,0,0,1-.52.54,2.28,2.28,0,0,1-.76.33,3.71,3.71,0,0,1-.9.1A3.37,3.37,0,0,1,187.24,448.9Z" fill="#1e1e1e"/>
    </g>
    <g>
      <path d="M125.65,99.9q0,3.54-3.2,3.54T119.39,100V94.9h1V100c0,1.72.72,2.58,2.18,2.58s2.1-.83,2.1-2.49V94.9h1Z" fill="#1e1e1e"/>
      <path d="M128.6,102.43h0v3.63h-1V97.3h1v1h0a2.27,2.27,0,0,1,2.07-1.19,2.2,2.2,0,0,1,1.81.8,3.31,3.31,0,0,1,.65,2.16,3.69,3.69,0,0,1-.73,2.41,2.43,2.43,0,0,1-2,.91A2,2,0,0,1,128.6,102.43Zm0-2.42v.84a1.79,1.79,0,0,0,.49,1.26,1.72,1.72,0,0,0,2.59-.15,3,3,0,0,0,.5-1.86,2.49,2.49,0,0,0-.46-1.57,1.56,1.56,0,0,0-1.26-.56,1.7,1.7,0,0,0-1.35.58A2.13,2.13,0,0,0,128.57,100Z" fill="#1e1e1e"/>
      <path d="M135.63,103.3h-1V94.42h1Z" fill="#1e1e1e"/>
      <path d="M140.08,103.44a2.79,2.79,0,0,1-2.12-.84,3.12,3.12,0,0,1-.8-2.23A3.23,3.23,0,0,1,138,98a3,3,0,0,1,2.23-.85,2.69,2.69,0,0,1,2.1.82,3.29,3.29,0,0,1,.75,2.29,3.21,3.21,0,0,1-.81,2.3A2.84,2.84,0,0,1,140.08,103.44Zm.07-5.47a1.83,1.83,0,0,0-1.46.63,2.56,2.56,0,0,0-.54,1.73,2.46,2.46,0,0,0,.54,1.68,1.87,1.87,0,0,0,1.46.62,1.79,1.79,0,0,0,1.44-.6,3.23,3.23,0,0,0,0-3.45A1.76,1.76,0,0,0,140.15,98Z" fill="#1e1e1e"/>
      <path d="M148.9,103.3h-1v-.94h0a2,2,0,0,1-1.85,1.08,2,2,0,0,1-1.4-.48,1.62,1.62,0,0,1-.51-1.26q0-1.68,2-2l1.8-.25c0-1-.41-1.53-1.24-1.53a2.94,2.94,0,0,0-1.95.73v-1a3.68,3.68,0,0,1,2-.56c1.41,0,2.11.74,2.11,2.24Zm-1-3-1.45.2a2.35,2.35,0,0,0-1,.33,1,1,0,0,0-.33.84.9.9,0,0,0,.31.72,1.19,1.19,0,0,0,.83.28,1.55,1.55,0,0,0,1.18-.5,1.81,1.81,0,0,0,.47-1.27Z" fill="#1e1e1e"/>
      <path d="M155.83,103.3h-1v-1h0a2.42,2.42,0,0,1-3.87.35,3.3,3.3,0,0,1-.68-2.19,3.62,3.62,0,0,1,.75-2.39,2.5,2.5,0,0,1,2-.89,1.93,1.93,0,0,1,1.8,1h0V94.42h1Zm-1-2.72V99.7a1.73,1.73,0,0,0-.48-1.23,1.6,1.6,0,0,0-1.22-.5,1.66,1.66,0,0,0-1.38.64,2.79,2.79,0,0,0-.5,1.78,2.56,2.56,0,0,0,.48,1.64,1.57,1.57,0,0,0,1.3.6,1.63,1.63,0,0,0,1.3-.58A2.2,2.2,0,0,0,154.87,100.58Z" fill="#1e1e1e"/>
      <path d="M162.18,103.3h-1V94.9h1Z" fill="#1e1e1e"/>
      <path d="M169.24,103.3h-1V99.88c0-1.28-.47-1.91-1.4-1.91a1.52,1.52,0,0,0-1.19.54,2,2,0,0,0-.47,1.37v3.42h-1v-6h1v1h0a2.18,2.18,0,0,1,2-1.13,1.85,1.85,0,0,1,1.51.63,2.9,2.9,0,0,1,.52,1.84Z" fill="#1e1e1e"/>
      <path d="M173.83,103.24a1.87,1.87,0,0,1-.89.19c-1.05,0-1.58-.59-1.58-1.76V98.12h-1V97.3h1V95.83l1-.31V97.3h1.51v.82h-1.51v3.38a1.37,1.37,0,0,0,.21.86.81.81,0,0,0,.68.26,1,1,0,0,0,.62-.2Z" fill="#1e1e1e"/>
      <path d="M180,103.3h-1v-1h0a2,2,0,0,1-1.85,1.09c-1.43,0-2.14-.85-2.14-2.56V97.3h.95v3.43c0,1.27.49,1.9,1.46,1.9a1.45,1.45,0,0,0,1.15-.52,2,2,0,0,0,.46-1.36V97.3h1Z" fill="#1e1e1e"/>
      <path d="M186.89,103.3h-1V99.88c0-1.28-.47-1.91-1.4-1.91a1.5,1.5,0,0,0-1.19.54,2,2,0,0,0-.47,1.37v3.42h-1v-6h1v1h0a2.17,2.17,0,0,1,2-1.13,1.85,1.85,0,0,1,1.51.63,2.9,2.9,0,0,1,.52,1.84Z" fill="#1e1e1e"/>
      <path d="M193.52,100.54h-4.24a2.26,2.26,0,0,0,.54,1.54,1.85,1.85,0,0,0,1.42.55,2.89,2.89,0,0,0,1.86-.67v.9a3.41,3.41,0,0,1-2.09.58,2.53,2.53,0,0,1-2-.82,3.35,3.35,0,0,1-.72-2.3,3.28,3.28,0,0,1,.79-2.28,2.54,2.54,0,0,1,2-.88,2.26,2.26,0,0,1,1.83.76,3.17,3.17,0,0,1,.64,2.11Zm-1-.82a2,2,0,0,0-.41-1.29A1.35,1.35,0,0,0,191,98a1.57,1.57,0,0,0-1.16.48,2.18,2.18,0,0,0-.58,1.27Z" fill="#1e1e1e"/>
      <path d="M205.06,94.9l-2.37,8.4h-1.15l-1.73-6.14a3.77,3.77,0,0,1-.14-.86h0a4.88,4.88,0,0,1-.15.85l-1.74,6.15h-1.15l-2.46-8.4h1.09l1.78,6.44a3.36,3.36,0,0,1,.14.84h0a4.61,4.61,0,0,1,.19-.84l1.85-6.44h1l1.78,6.49a4.78,4.78,0,0,1,.14.78h0a5.38,5.38,0,0,1,.16-.81L204,94.9Z" fill="#1e1e1e"/>
      <path d="M206.67,95.77a.6.6,0,0,1-.62-.62.57.57,0,0,1,.18-.44.62.62,0,0,1,.44-.18.61.61,0,0,1,.45.18.55.55,0,0,1,.19.44.56.56,0,0,1-.19.44A.61.61,0,0,1,206.67,95.77Zm.47,7.53h-1v-6h1Z" fill="#1e1e1e"/>
      <path d="M214.07,103.3h-1V99.88c0-1.28-.47-1.91-1.4-1.91a1.52,1.52,0,0,0-1.19.54,2,2,0,0,0-.47,1.37v3.42h-1v-6h1v1h0a2.18,2.18,0,0,1,2-1.13,1.85,1.85,0,0,1,1.51.63,2.84,2.84,0,0,1,.52,1.84Z" fill="#1e1e1e"/>
      <path d="M222.13,95.26a1.24,1.24,0,0,0-.64-.16c-.67,0-1,.42-1,1.27v.93h1.41v.82h-1.41v5.18h-.95V98.12h-1V97.3h1v-1a2.06,2.06,0,0,1,.54-1.5,2.12,2.12,0,0,1,2.06-.44Z" fill="#1e1e1e"/>
      <path d="M223.41,95.77a.57.57,0,0,1-.43-.17.58.58,0,0,1-.19-.45.55.55,0,0,1,.19-.44.58.58,0,0,1,.43-.18.61.61,0,0,1,.45.18.55.55,0,0,1,.19.44.56.56,0,0,1-.19.44A.61.61,0,0,1,223.41,95.77Zm.47,7.53h-1v-6h1Z" fill="#1e1e1e"/>
      <path d="M226.79,103.3h-1V94.42h1Z" fill="#1e1e1e"/>
      <path d="M233.56,100.54h-4.24a2.26,2.26,0,0,0,.54,1.54,1.84,1.84,0,0,0,1.42.55,2.93,2.93,0,0,0,1.86-.67v.9a3.43,3.43,0,0,1-2.09.58,2.53,2.53,0,0,1-2-.82,3.36,3.36,0,0,1-.73-2.3,3.29,3.29,0,0,1,.8-2.28,2.54,2.54,0,0,1,2-.88,2.24,2.24,0,0,1,1.82.76,3.17,3.17,0,0,1,.65,2.11Zm-1-.82a1.9,1.9,0,0,0-.4-1.29,1.36,1.36,0,0,0-1.1-.46,1.55,1.55,0,0,0-1.15.48,2.25,2.25,0,0,0-.59,1.27Z" fill="#1e1e1e"/>
    </g>
    <g>
      <path d="M90.54,308.92H88.67v-5c0-.54,0-1.14.07-1.8h0c-.1.52-.19.89-.26,1.12l-2,5.71H84.91l-2-5.65a9.65,9.65,0,0,1-.27-1.18h0c0,.83.08,1.56.08,2.18v4.65H81v-8.4h2.77l1.72,5a6.58,6.58,0,0,1,.3,1.2h0a12.46,12.46,0,0,1,.34-1.21l1.71-5h2.71Z" fill="#1e1e1e"/>
      <path d="M97.26,308.92H95.5v-.86h0a2,2,0,0,1-1.79,1,1.86,1.86,0,0,1-1.37-.5,1.79,1.79,0,0,1-.5-1.32q0-1.74,2.07-2l1.63-.22c0-.66-.36-1-1.07-1a3.67,3.67,0,0,0-2,.64v-1.39a4.67,4.67,0,0,1,1.06-.35,5.69,5.69,0,0,1,1.22-.16,2.27,2.27,0,0,1,2.57,2.56Zm-1.74-2.44v-.4l-1.09.14c-.61.08-.91.35-.91.81a.68.68,0,0,0,.22.52.84.84,0,0,0,.6.2,1.1,1.1,0,0,0,.85-.36A1.29,1.29,0,0,0,95.52,306.48Z" fill="#1e1e1e"/>
      <path d="M104.52,308.92h-1.85v-3.33c0-.93-.33-1.4-1-1.4a1,1,0,0,0-.79.37,1.46,1.46,0,0,0-.31.94v3.42H98.72v-6h1.85v.95h0a2.12,2.12,0,0,1,1.92-1.1c1.33,0,2,.83,2,2.48Z" fill="#1e1e1e"/>
      <path d="M111.68,308.92h-1.84V308h0a2.12,2.12,0,0,1-1.84,1.06c-1.39,0-2.08-.84-2.08-2.53v-3.62h1.84v3.46c0,.85.34,1.27,1,1.27a1,1,0,0,0,.8-.35,1.41,1.41,0,0,0,.3-.95v-3.43h1.84Z" fill="#1e1e1e"/>
      <path d="M118.23,308.92h-1.75v-.86h0a2,2,0,0,1-1.79,1,1.86,1.86,0,0,1-1.37-.5,1.76,1.76,0,0,1-.51-1.32q0-1.74,2.07-2l1.63-.22c0-.66-.35-1-1.06-1a3.67,3.67,0,0,0-2,.64v-1.39a4.57,4.57,0,0,1,1-.35,5.77,5.77,0,0,1,1.23-.16,2.26,2.26,0,0,1,2.56,2.56Zm-1.74-2.44v-.4l-1.09.14q-.9.12-.9.81a.65.65,0,0,0,.22.52.81.81,0,0,0,.59.2,1.08,1.08,0,0,0,.85-.36A1.29,1.29,0,0,0,116.49,306.48Z" fill="#1e1e1e"/>
      <path d="M121.55,308.92H119.7V300h1.85Z" fill="#1e1e1e"/>
    </g>
    <g>
      <path d="M234,308.62a5.54,5.54,0,0,1-2.41.45,4,4,0,0,1-3-1.14,4.15,4.15,0,0,1-1.1-3,4.45,4.45,0,0,1,1.24-3.27,4.38,4.38,0,0,1,3.23-1.25,6,6,0,0,1,2.08.31v1.82a3.68,3.68,0,0,0-1.93-.5,2.54,2.54,0,0,0-1.91.74,2.79,2.79,0,0,0-.72,2,2.73,2.73,0,0,0,.68,1.94,2.45,2.45,0,0,0,1.85.72,4,4,0,0,0,2-.54Z" fill="#1e1e1e"/>
      <path d="M241,308.92h-1.85V308h0a2.12,2.12,0,0,1-1.84,1.06c-1.39,0-2.08-.84-2.08-2.53v-3.62H237v3.46c0,.85.34,1.27,1,1.27a1,1,0,0,0,.8-.35,1.46,1.46,0,0,0,.29-.95v-3.43H241Z" fill="#1e1e1e"/>
      <path d="M242.16,308.76v-1.5a3.5,3.5,0,0,0,.91.41,3,3,0,0,0,.86.14,1.83,1.83,0,0,0,.77-.14.43.43,0,0,0,.29-.41.41.41,0,0,0-.13-.29,1.33,1.33,0,0,0-.33-.21c-.14-.05-.29-.11-.45-.15l-.46-.16a4.68,4.68,0,0,1-.63-.29,2.45,2.45,0,0,1-.46-.36,1.64,1.64,0,0,1-.28-.48,2,2,0,0,1-.09-.64,1.6,1.6,0,0,1,.22-.86,1.84,1.84,0,0,1,.58-.6,3.15,3.15,0,0,1,.84-.34,4.55,4.55,0,0,1,1.79,0,7.78,7.78,0,0,1,.81.17v1.43a3.46,3.46,0,0,0-.75-.3,3.13,3.13,0,0,0-.79-.11,1.34,1.34,0,0,0-.35,0,1.15,1.15,0,0,0-.28.09.43.43,0,0,0-.19.16.34.34,0,0,0-.07.22.4.4,0,0,0,.1.28.88.88,0,0,0,.28.2,1.88,1.88,0,0,0,.38.15l.41.14a7.13,7.13,0,0,1,.67.28,1.94,1.94,0,0,1,.51.36,1.58,1.58,0,0,1,.33.48,1.82,1.82,0,0,1,.11.66,1.76,1.76,0,0,1-.23.91,1.78,1.78,0,0,1-.61.61,2.81,2.81,0,0,1-.89.35,5,5,0,0,1-1,.11A5.17,5.17,0,0,1,242.16,308.76Z" fill="#1e1e1e"/>
      <path d="M251.46,308.85a2.7,2.7,0,0,1-1.24.22c-1.31,0-2-.68-2-2v-2.74h-1v-1.37h1v-1.29l1.85-.53v1.82h1.35v1.37h-1.35v2.42c0,.63.25.94.74.94a1.31,1.31,0,0,0,.61-.17Z" fill="#1e1e1e"/>
      <path d="M255.31,309.07a3.23,3.23,0,0,1-2.36-.84,3.47,3.47,0,0,1,0-4.61,3.35,3.35,0,0,1,2.41-.85,3.17,3.17,0,0,1,2.35.85,3,3,0,0,1,.85,2.22,3.2,3.2,0,0,1-.88,2.36A3.24,3.24,0,0,1,255.31,309.07Zm.05-4.88a1.23,1.23,0,0,0-1,.45,2,2,0,0,0-.37,1.28c0,1.15.47,1.73,1.4,1.73s1.33-.59,1.33-1.78S256.25,304.19,255.36,304.19Z" fill="#1e1e1e"/>
      <path d="M269.31,308.92h-1.84V305.5c0-.87-.32-1.31-1-1.31a.9.9,0,0,0-.75.39,1.64,1.64,0,0,0-.28,1v3.36h-1.86v-3.46c0-.84-.31-1.27-.94-1.27a.92.92,0,0,0-.76.38,1.65,1.65,0,0,0-.28,1v3.33h-1.85v-6h1.85v.94h0a2.17,2.17,0,0,1,.81-.78,2.2,2.2,0,0,1,1.13-.31,1.73,1.73,0,0,1,1.74,1.12,2.24,2.24,0,0,1,2-1.12c1.3,0,1.95.81,1.95,2.42Z" fill="#1e1e1e"/>
    </g>
    <g>
      <path d="M12.12,385H11l-1.4-2.36a6,6,0,0,0-.38-.56,1.85,1.85,0,0,0-.37-.37,1.36,1.36,0,0,0-.41-.22,1.89,1.89,0,0,0-.5-.07h-.8V385h-1v-8.4H8.61a3.65,3.65,0,0,1,1,.13,2.26,2.26,0,0,1,.8.42,2,2,0,0,1,.54.7,2.61,2.61,0,0,1,.06,1.79,2.11,2.11,0,0,1-1,1.14,3,3,0,0,1-.77.32v0a1.88,1.88,0,0,1,.37.21,2,2,0,0,1,.29.29,2.75,2.75,0,0,1,.28.37l.31.48Zm-5-7.51v3H8.42a1.83,1.83,0,0,0,.68-.11,1.59,1.59,0,0,0,.55-.32,1.41,1.41,0,0,0,.35-.51,1.6,1.6,0,0,0,.13-.67,1.34,1.34,0,0,0-.43-1.06,1.91,1.91,0,0,0-1.27-.37Z" fill="#1e1e1e"/>
      <path d="M17.62,382.28H13.38a2.3,2.3,0,0,0,.54,1.55,1.88,1.88,0,0,0,1.42.54,2.94,2.94,0,0,0,1.87-.67v.9a3.46,3.46,0,0,1-2.1.58,2.51,2.51,0,0,1-2-.82,3.83,3.83,0,0,1,.06-4.58,2.54,2.54,0,0,1,2-.88,2.26,2.26,0,0,1,1.83.76,3.17,3.17,0,0,1,.64,2.11Zm-1-.82a2,2,0,0,0-.4-1.29,1.37,1.37,0,0,0-1.1-.46,1.57,1.57,0,0,0-1.16.48,2.24,2.24,0,0,0-.58,1.27Z" fill="#1e1e1e"/>
      <path d="M24.2,384.56q0,3.3-3.17,3.3a4.23,4.23,0,0,1-1.94-.42v-1A4,4,0,0,0,21,387c1.48,0,2.21-.78,2.21-2.35V384h0a2.42,2.42,0,0,1-3.86.35,3.17,3.17,0,0,1-.69-2.15,3.73,3.73,0,0,1,.74-2.43,2.46,2.46,0,0,1,2-.9,2,2,0,0,1,1.8,1h0V379h1Zm-1-2.23v-.89a1.71,1.71,0,0,0-.48-1.22,1.58,1.58,0,0,0-1.2-.51,1.67,1.67,0,0,0-1.4.64,3,3,0,0,0-.5,1.82,2.5,2.5,0,0,0,.48,1.6,1.56,1.56,0,0,0,1.28.6,1.69,1.69,0,0,0,1.32-.57A2.15,2.15,0,0,0,23.23,382.33Z" fill="#1e1e1e"/>
      <path d="M26.63,377.51a.6.6,0,0,1-.44-.17.61.61,0,0,1-.18-.45.57.57,0,0,1,.18-.44.6.6,0,0,1,.44-.18.61.61,0,0,1,.45.18.58.58,0,0,1,.19.44.6.6,0,0,1-.19.44A.61.61,0,0,1,26.63,377.51ZM27.1,385h-1v-6h1Z" fill="#1e1e1e"/>
      <path d="M28.68,384.82v-1a2.84,2.84,0,0,0,1.73.58c.85,0,1.27-.28,1.27-.84a.76.76,0,0,0-.11-.41,1.17,1.17,0,0,0-.29-.3,3,3,0,0,0-.44-.23l-.53-.21a6.76,6.76,0,0,1-.7-.32,2.55,2.55,0,0,1-.51-.36,1.52,1.52,0,0,1-.3-.46,1.66,1.66,0,0,1-.1-.61,1.44,1.44,0,0,1,.19-.75,1.87,1.87,0,0,1,.51-.54,2.26,2.26,0,0,1,.74-.33,3.05,3.05,0,0,1,.85-.11,3.46,3.46,0,0,1,1.4.27v1a2.71,2.71,0,0,0-1.53-.43,1.75,1.75,0,0,0-.48.06,1.33,1.33,0,0,0-.38.17.78.78,0,0,0-.24.27.74.74,0,0,0-.08.34.87.87,0,0,0,.08.39.83.83,0,0,0,.25.28,1.91,1.91,0,0,0,.4.23l.54.21a6.81,6.81,0,0,1,.71.32,2.42,2.42,0,0,1,.54.36,1.32,1.32,0,0,1,.34.47,1.46,1.46,0,0,1,.12.62,1.5,1.5,0,0,1-.19.78,1.82,1.82,0,0,1-.53.54,2.3,2.3,0,0,1-.75.32,3.82,3.82,0,0,1-.9.11A3.41,3.41,0,0,1,28.68,384.82Z" fill="#1e1e1e"/>
      <path d="M36.92,385a1.87,1.87,0,0,1-.89.19c-1.06,0-1.58-.59-1.58-1.76v-3.55h-1V379h1v-1.47l1-.31V379h1.51v.82H35.41v3.38a1.37,1.37,0,0,0,.21.86.8.8,0,0,0,.67.26,1,1,0,0,0,.63-.2Z" fill="#1e1e1e"/>
      <path d="M41.33,380a1.14,1.14,0,0,0-.72-.19,1.21,1.21,0,0,0-1,.58,2.62,2.62,0,0,0-.41,1.58V385h-1v-6h1v1.23h0a2.09,2.09,0,0,1,.63-1,1.4,1.4,0,0,1,.94-.36,1.65,1.65,0,0,1,.57.08Z" fill="#1e1e1e"/>
      <path d="M47.15,379l-2.76,7q-.73,1.86-2.07,1.86a2.28,2.28,0,0,1-.63-.07v-.87a1.59,1.59,0,0,0,.57.11,1.18,1.18,0,0,0,1.09-.87l.48-1.13-2.34-6h1.06l1.63,4.62s.06.21.12.45h0c0-.09.06-.24.12-.44L46.16,379Z" fill="#1e1e1e"/>
    </g>
    <g>
      <path d="M64.15,377.53H60.87v2.9h3v.89h-3V385h-1v-8.4h4.27Z" fill="#1e1e1e"/>
      <path d="M66.11,377.51a.61.61,0,0,1-.63-.62.55.55,0,0,1,.19-.44.59.59,0,0,1,.44-.18.6.6,0,0,1,.44.18.55.55,0,0,1,.19.44.56.56,0,0,1-.19.44A.6.6,0,0,1,66.11,377.51Zm.46,7.53h-1v-6h1Z" fill="#1e1e1e"/>
      <path d="M69.48,385h-1v-8.88h1Z" fill="#1e1e1e"/>
      <path d="M76.25,382.28H72a2.3,2.3,0,0,0,.54,1.55,1.87,1.87,0,0,0,1.42.54,2.91,2.91,0,0,0,1.86-.67v.9a3.43,3.43,0,0,1-2.09.58,2.53,2.53,0,0,1-2-.82,3.35,3.35,0,0,1-.72-2.3,3.28,3.28,0,0,1,.79-2.28,2.54,2.54,0,0,1,2-.88,2.24,2.24,0,0,1,1.82.76,3.17,3.17,0,0,1,.65,2.11Zm-1-.82a1.9,1.9,0,0,0-.4-1.29,1.36,1.36,0,0,0-1.1-.46,1.56,1.56,0,0,0-1.15.48,2.25,2.25,0,0,0-.59,1.27Z" fill="#1e1e1e"/>
      <path d="M83.5,385.18a2.79,2.79,0,0,1-2.13-.84,3.12,3.12,0,0,1-.79-2.23,3.23,3.23,0,0,1,.82-2.36,3,3,0,0,1,2.24-.85,2.68,2.68,0,0,1,2.09.82,3.29,3.29,0,0,1,.75,2.29,3.21,3.21,0,0,1-.81,2.3A2.82,2.82,0,0,1,83.5,385.18Zm.07-5.47a1.84,1.84,0,0,0-1.47.63,2.56,2.56,0,0,0-.54,1.73,2.41,2.41,0,0,0,.55,1.68,1.82,1.82,0,0,0,1.46.62,1.75,1.75,0,0,0,1.43-.6,3.23,3.23,0,0,0,0-3.45A1.73,1.73,0,0,0,83.57,379.71Z" fill="#1e1e1e"/>
      <path d="M91.15,380a1.18,1.18,0,0,0-.73-.19,1.23,1.23,0,0,0-1,.58A2.7,2.7,0,0,0,89,382V385H88v-6h1v1.23h0a2.09,2.09,0,0,1,.63-1,1.42,1.42,0,0,1,.94-.36,1.71,1.71,0,0,1,.58.08Z" fill="#1e1e1e"/>
      <path d="M63.71,390.73H60.43v2.9h3v.89h-3v3.72h-1v-8.4h4.26Z" fill="#1e1e1e"/>
      <path d="M67.68,398.38a2.79,2.79,0,0,1-2.12-.84,3.12,3.12,0,0,1-.79-2.23,3.23,3.23,0,0,1,.82-2.36,3,3,0,0,1,2.24-.85,2.68,2.68,0,0,1,2.09.82,3.29,3.29,0,0,1,.75,2.29,3.21,3.21,0,0,1-.81,2.3A2.84,2.84,0,0,1,67.68,398.38Zm.07-5.47a1.83,1.83,0,0,0-1.46.63,2.58,2.58,0,0,0-.54,1.73A2.46,2.46,0,0,0,66.3,397a1.84,1.84,0,0,0,1.45.61,1.77,1.77,0,0,0,1.44-.6,3.23,3.23,0,0,0,0-3.45A1.75,1.75,0,0,0,67.75,392.91Z" fill="#1e1e1e"/>
      <path d="M73.17,398.24h-1v-8.88h1Z" fill="#1e1e1e"/>
      <path d="M80.24,398.24h-1v-1h0a2.42,2.42,0,0,1-3.87.35,3.3,3.3,0,0,1-.68-2.19,3.62,3.62,0,0,1,.75-2.39,2.5,2.5,0,0,1,2-.89,1.91,1.91,0,0,1,1.8,1h0v-3.71h1Zm-1-2.71v-.89a1.73,1.73,0,0,0-.48-1.23,1.58,1.58,0,0,0-1.21-.5,1.67,1.67,0,0,0-1.39.64,2.85,2.85,0,0,0-.5,1.78,2.56,2.56,0,0,0,.48,1.64,1.59,1.59,0,0,0,1.3.6,1.63,1.63,0,0,0,1.3-.58A2.12,2.12,0,0,0,79.27,395.53Z" fill="#1e1e1e"/>
      <path d="M87,395.48H82.77a2.21,2.21,0,0,0,.54,1.55,1.85,1.85,0,0,0,1.41.54,2.94,2.94,0,0,0,1.87-.67v.9a3.45,3.45,0,0,1-2.09.58,2.52,2.52,0,0,1-2-.82,3.83,3.83,0,0,1,.06-4.58,2.55,2.55,0,0,1,2-.88,2.25,2.25,0,0,1,1.82.76A3.17,3.17,0,0,1,87,395Zm-1-.82a2,2,0,0,0-.4-1.29,1.37,1.37,0,0,0-1.1-.46,1.59,1.59,0,0,0-1.16.48,2.24,2.24,0,0,0-.58,1.27Z" fill="#1e1e1e"/>
      <path d="M91.58,393.21a1.14,1.14,0,0,0-.72-.19,1.23,1.23,0,0,0-1,.58,2.62,2.62,0,0,0-.41,1.58v3.06h-1v-6h1v1.23h0a2.09,2.09,0,0,1,.63-1,1.4,1.4,0,0,1,.94-.36,1.65,1.65,0,0,1,.57.08Z" fill="#1e1e1e"/>
    </g>
    <g>
      <path d="M144.5,385h-1V379.4c0-.44,0-1,.08-1.63h0a4.83,4.83,0,0,1-.26.81L140.45,385H140l-2.86-6.41a4.93,4.93,0,0,1-.25-.86h0c0,.33,0,.88,0,1.64V385h-.95v-8.4h1.3l2.58,5.86a7.37,7.37,0,0,1,.39,1h0c.17-.46.3-.8.4-1l2.64-5.83h1.23Z" fill="#1e1e1e"/>
      <path d="M146.31,384.7v-1.16a2.09,2.09,0,0,0,.48.31,3,3,0,0,0,.59.24,3.39,3.39,0,0,0,.61.15,3,3,0,0,0,.58.05,2.26,2.26,0,0,0,1.35-.33,1.15,1.15,0,0,0,.45-1,1.1,1.1,0,0,0-.15-.59,1.48,1.48,0,0,0-.41-.46,3.68,3.68,0,0,0-.62-.4l-.78-.4c-.29-.15-.57-.3-.82-.46a3.81,3.81,0,0,1-.66-.5,1.9,1.9,0,0,1-.44-.62,1.94,1.94,0,0,1-.17-.82,1.91,1.91,0,0,1,.26-1,2,2,0,0,1,.66-.7,3,3,0,0,1,.93-.41,4.29,4.29,0,0,1,1.07-.13,4.1,4.1,0,0,1,1.81.29v1.11a3.29,3.29,0,0,0-1.91-.51,3.47,3.47,0,0,0-.64.06,2,2,0,0,0-.58.22,1.42,1.42,0,0,0-.41.4,1.06,1.06,0,0,0-.15.58,1.22,1.22,0,0,0,.12.56,1.38,1.38,0,0,0,.35.43,4.7,4.7,0,0,0,.57.37l.78.4c.3.15.58.3.85.47a3.59,3.59,0,0,1,.71.54,2.36,2.36,0,0,1,.49.66,2,2,0,0,1,.17.84,2.14,2.14,0,0,1-.24,1.05,1.93,1.93,0,0,1-.66.7,2.8,2.8,0,0,1-.95.39,5.22,5.22,0,0,1-1.13.12l-.5,0c-.19,0-.39-.06-.59-.1a4.45,4.45,0,0,1-.58-.15A2,2,0,0,1,146.31,384.7Z" fill="#1e1e1e"/>
      <path d="M154.06,385h-1v-8.4h1Z" fill="#1e1e1e"/>
    </g>
  </g>
</svg>
