<svg width="16" height="16" viewBox="0 0 16 16" fill="none" xmlns="http://www.w3.org/2000/svg">
<path d="M16 8C16 12.4183 12.4183 16 8 16C3.58172 16 0 12.4183 0 8C0 3.58172 3.58172 0 8 0C12.4183 0 16 3.58172 16 8ZM8 4C7.72384 4 7.5 4.22384 7.5 4.5V7.5H4.5C4.22384 7.5 4 7.72384 4 8C4 8.27616 4.22384 8.5 4.5 8.5H7.5V11.5C7.5 11.7762 7.72384 12 8 12C8.27616 12 8.5 11.7762 8.5 11.5V8.5H11.5C11.7762 8.5 12 8.27616 12 8C12 7.72384 11.7762 7.5 11.5 7.5H8.5V4.5C8.5 4.22384 8.27616 4 8 4Z" fill="#4A90D9"/>
</svg>
