<svg width="20" height="16" viewBox="0 0 20 16" fill="none" xmlns="http://www.w3.org/2000/svg">
<g clip-path="url(#clip0_1158_11881)">
<path d="M6.25444 3.00266C7.22093 3.00266 8.0044 3.78616 8.0044 4.75266V14.2528C8.0044 15.2193 7.22093 16.0028 6.25444 16.0028H1.75C0.7835 16.0028 0 15.2193 0 14.2528V4.75266C0 3.78616 0.7835 3.00266 1.75 3.00266H6.25444ZM6.25444 4.50266H1.75C1.61193 4.50266 1.5 4.61459 1.5 4.75266V14.2528C1.5 14.3909 1.61193 14.5028 1.75 14.5028H6.25444C6.39251 14.5028 6.50444 14.3909 6.50444 14.2528V4.75266C6.50444 4.61459 6.39251 4.50266 6.25444 4.50266ZM4.25222 11.9997C4.66643 11.9997 5.00222 12.3354 5.00222 12.7497C5.00222 13.1294 4.72006 13.4431 4.35399 13.4928L4.25222 13.4997H3.75222C3.338 13.4997 3.00222 13.1639 3.00222 12.7497C3.00222 12.37 3.28437 12.0562 3.65045 12.0065L3.75222 11.9997H4.25222ZM19.2494 11.4995C19.6636 11.4995 19.9994 11.8353 19.9994 12.2495C19.9994 12.6292 19.7172 12.943 19.3511 12.9927L19.2494 12.9995L9 12.999V11.499L19.2494 11.4995ZM16.25 0C17.2165 0 18 0.7835 18 1.75V9.2503C18 10.2168 17.2165 11.0003 16.25 11.0003L9 11V9.5L16.25 9.5003C16.3881 9.5003 16.5 9.3884 16.5 9.2503V1.75C16.5 1.61193 16.3881 1.5 16.25 1.5H3.75C3.61193 1.5 3.5 1.61193 3.5 1.75L3.499 1.999H2V1.75C2 0.7835 2.7835 0 3.75 0H16.25Z" fill="#4A90D9"/>
</g>
<defs>
<clipPath id="clip0_1158_11881">
<rect width="20" height="16" fill="white"/>
</clipPath>
</defs>
</svg>
