<svg width="16" height="16" viewBox="0 0 16 16" fill="none" xmlns="http://www.w3.org/2000/svg">
<path d="M11.9219 5.71875C12.5104 6.04167 13.0417 6.42448 13.5156 6.86719C13.9896 7.3099 14.4036 7.80469 14.7578 8.35156C15.112 8.89844 15.3906 9.47656 15.5938 10.0859C15.7969 10.6953 15.9323 11.3385 16 12.0156H0C0.0520833 11.349 0.182292 10.7057 0.390625 10.0859C0.598958 9.46615 0.880208 8.88802 1.23438 8.35156C1.58854 7.8151 2.0026 7.32292 2.47656 6.875C2.95052 6.42708 3.48438 6.04167 4.07812 5.71875C4.04688 5.66146 3.99219 5.5651 3.91406 5.42969C3.83594 5.29427 3.74479 5.14062 3.64062 4.96875C3.53646 4.79688 3.43229 4.61719 3.32812 4.42969C3.22396 4.24219 3.1224 4.06771 3.02344 3.90625C2.92448 3.74479 2.85156 3.60677 2.80469 3.49219C2.75781 3.3776 2.72656 3.30469 2.71094 3.27344C2.71094 3.20052 2.73958 3.13802 2.79688 3.08594C2.85417 3.03385 2.91927 3.00521 2.99219 3C3.09635 3 3.17448 3.04688 3.22656 3.14062L4.57812 5.47656C5.11458 5.22656 5.66927 5.04167 6.24219 4.92188C6.8151 4.80208 7.40104 4.74219 8 4.74219C8.59375 4.74219 9.17708 4.80208 9.75 4.92188C10.3229 5.04167 10.8802 5.22656 11.4219 5.47656L12.7734 3.14062C12.8255 3.04688 12.9036 3 13.0078 3C13.0807 3 13.1458 3.02604 13.2031 3.07812C13.2604 3.13021 13.2891 3.19531 13.2891 3.27344C13.2891 3.29948 13.2604 3.36979 13.2031 3.48438C13.1458 3.59896 13.0703 3.73958 12.9766 3.90625C12.8828 4.07292 12.7839 4.2474 12.6797 4.42969C12.5755 4.61198 12.4688 4.79167 12.3594 4.96875C12.25 5.14583 12.1615 5.29948 12.0938 5.42969C12.026 5.5599 11.9688 5.65625 11.9219 5.71875ZM4.32031 9.73438C4.5026 9.73438 4.65885 9.66927 4.78906 9.53906C4.91927 9.40885 4.98438 9.2526 4.98438 9.07031C4.98438 8.88802 4.91927 8.73177 4.78906 8.60156C4.65885 8.47135 4.5026 8.40625 4.32031 8.40625C4.22656 8.40625 4.14062 8.42188 4.0625 8.45312C3.98438 8.48438 3.91406 8.53125 3.85156 8.59375C3.78906 8.65625 3.73958 8.72656 3.70312 8.80469C3.66667 8.88281 3.64844 8.97135 3.64844 9.07031C3.64844 9.16406 3.66667 9.25 3.70312 9.32812C3.73958 9.40625 3.78646 9.47656 3.84375 9.53906C3.90104 9.60156 3.97135 9.64844 4.05469 9.67969C4.13802 9.71094 4.22656 9.72917 4.32031 9.73438ZM11.6797 9.73438C11.7682 9.73438 11.8516 9.71875 11.9297 9.6875C12.0078 9.65625 12.0807 9.60938 12.1484 9.54688C12.2161 9.48438 12.2656 9.41406 12.2969 9.33594C12.3281 9.25781 12.3464 9.16927 12.3516 9.07031C12.3516 8.97656 12.3333 8.89062 12.2969 8.8125C12.2604 8.73438 12.2135 8.66406 12.1562 8.60156C12.099 8.53906 12.0286 8.49219 11.9453 8.46094C11.862 8.42969 11.7734 8.41146 11.6797 8.40625C11.4974 8.40625 11.3411 8.47135 11.2109 8.60156C11.0807 8.73177 11.0156 8.88802 11.0156 9.07031C11.0156 9.2526 11.0807 9.40885 11.2109 9.53906C11.3411 9.66927 11.4974 9.73438 11.6797 9.73438Z" fill="#4A90D9"/>
</svg>
