<svg width="16" height="16" viewBox="0 0 16 16" fill="none" xmlns="http://www.w3.org/2000/svg">
<path d="M14 14H2C1.46957 14 0.960859 13.7893 0.585786 13.4142C0.210714 13.0391 0 12.5304 0 12L0 4C0 3.46957 0.210714 2.96086 0.585786 2.58579C0.960859 2.21071 1.46957 2 2 2H14C14.5304 2 15.0391 2.21071 15.4142 2.58579C15.7893 2.96086 16 3.46957 16 4V12C16 12.5304 15.7893 13.0391 15.4142 13.4142C15.0391 13.7893 14.5304 14 14 14Z" fill="#1D1D1D"/>
<path d="M2 4H14V12H2V4Z" fill="#B7D333"/>
<path d="M14 12H2V10L14 6V12Z" fill="#7FBA42"/>
<path opacity="0.4" d="M13 5V11H3V5H13ZM14 4H2V12H14V4Z" fill="white"/>
<path d="M6 12H10V13H6V12Z" fill="#9E9FA0"/>
</svg>
