<svg width="20" height="16" viewBox="0 0 20 16" fill="none" xmlns="http://www.w3.org/2000/svg">
<path d="M6.25463 2.99995C7.22116 2.99995 8.00469 3.78348 8.00469 4.75001V14.2504C8.00469 15.217 7.22116 16.0005 6.25463 16.0005H1.75005C0.783526 16.0005 0 15.217 0 14.2504V4.75001C0 3.78348 0.783526 2.99995 1.75005 2.99995H6.25463ZM6.25463 4.5H1.75005C1.61198 4.5 1.50005 4.61193 1.50005 4.75001V14.2504C1.50005 14.3885 1.61198 14.5005 1.75005 14.5005H6.25463C6.39271 14.5005 6.50464 14.3885 6.50464 14.2504V4.75001C6.50464 4.61193 6.39271 4.5 6.25463 4.5ZM4.25235 12.0004C4.66658 12.0004 5.00237 12.3362 5.00237 12.7504C5.00237 13.1301 4.72021 13.4439 4.35412 13.4936L4.25235 13.5004H3.75234C3.33811 13.5004 3.00231 13.1646 3.00231 12.7504C3.00231 12.3707 3.28447 12.0569 3.65056 12.0072L3.75234 12.0004H4.25235ZM17.7499 0C18.9408 0 19.9156 0.925191 19.9948 2.09602L20 2.25007V10.7503C20 11.9412 19.0748 12.9161 17.904 12.9952L17.7499 13.0004H8.99934V11.5004H17.7499C18.1296 11.5004 18.4434 11.2182 18.4931 10.8521L18.5 10.7503V2.25007C18.5 1.87036 18.2178 1.55656 17.8517 1.50689L17.7499 1.50005H6.24957C5.92314 1.50005 5.64542 1.70858 5.54235 1.9997L4.01318 2.0005C4.13144 0.92885 5.00228 0.0839257 6.08555 0.00588674L6.24957 0H17.7499ZM13.2498 9.00028C13.664 9.00028 13.9998 9.33608 13.9998 9.75031C13.9998 10.1645 13.664 10.5003 13.2498 10.5003H10.7497C10.3355 10.5003 9.99969 10.1645 9.99969 9.75031C9.99969 9.33608 10.3355 9.00028 10.7497 9.00028H13.2498Z" fill="#4A90D9"/>
</svg>
