<svg width="16" height="15" viewBox="0 0 16 15" fill="none" xmlns="http://www.w3.org/2000/svg">
<path d="M6.68539 0.785435C7.25283 -0.261875 8.75586 -0.261795 9.32319 0.785573L15.8237 12.7865C16.3651 13.786 15.6414 15.0009 14.5048 15.0009H1.5021C0.365381 15.0009 -0.358265 13.7858 0.183243 12.7864L6.68539 0.785435ZM8.50391 5.5C8.50391 5.22386 8.28005 5 8.00391 5C7.72776 5 7.50391 5.22386 7.50391 5.5V9.5C7.50391 9.77614 7.72776 10 8.00391 10C8.28005 10 8.50391 9.77614 8.50391 9.5V5.5ZM8.75391 11.75C8.75391 11.3358 8.41812 11 8.00391 11C7.58969 11 7.25391 11.3358 7.25391 11.75C7.25391 12.1642 7.58969 12.5 8.00391 12.5C8.41812 12.5 8.75391 12.1642 8.75391 11.75Z" fill="#DB7500"/>
</svg>
