<svg width="16" height="16" viewBox="0 0 16 16" fill="none" xmlns="http://www.w3.org/2000/svg">
<path d="M8 0C12.4183 0 16 3.58172 16 8C16 12.4183 12.4183 16 8 16C3.58172 16 0 12.4183 0 8C0 3.58172 3.58172 0 8 0ZM11.3584 5.64645C11.1849 5.47288 10.9154 5.4536 10.7206 5.58859L10.6513 5.64645L7 9.298L5.35355 7.65131L5.28431 7.59346C5.08944 7.45846 4.82001 7.47775 4.64645 7.65131C4.47288 7.82488 4.4536 8.09431 4.58859 8.28917L4.64645 8.35842L6.64645 10.3584L6.71569 10.4163C6.8862 10.5344 7.1138 10.5344 7.28431 10.4163L7.35355 10.3584L11.3584 6.35355L11.4163 6.28431C11.5513 6.08944 11.532 5.82001 11.3584 5.64645Z" fill="#57A300"/>
</svg>
