<svg width="21" height="16" viewBox="0 0 21 16" fill="none" xmlns="http://www.w3.org/2000/svg">
<g clip-path="url(#clip0_1158_11893)">
<path d="M4.4625 0C3.15773 0 2.1 1.07452 2.1 2.4V10.4C2.1 11.7255 3.15773 12.8 4.4625 12.8H16.5375C17.8423 12.8 18.9 11.7255 18.9 10.4V2.4C18.9 1.07452 17.8423 0 16.5375 0H4.4625ZM3.675 2.4C3.675 1.95817 4.02757 1.6 4.4625 1.6H16.5375C16.9724 1.6 17.325 1.95817 17.325 2.4V10.4C17.325 10.8418 16.9724 11.2 16.5375 11.2H4.4625C4.02757 11.2 3.675 10.8418 3.675 10.4V2.4ZM0.7875 14.4C0.352576 14.4 0 14.7582 0 15.2C0 15.6418 0.352576 16 0.7875 16H20.2125C20.6474 16 21 15.6418 21 15.2C21 14.7582 20.6474 14.4 20.2125 14.4H0.7875Z" fill="#4A90D9"/>
</g>
<defs>
<clipPath id="clip0_1158_11893">
<rect width="21" height="16" fill="white"/>
</clipPath>
</defs>
</svg>
