<svg width="16" height="16" viewBox="0 0 16 16" fill="none" xmlns="http://www.w3.org/2000/svg">
<path d="M14.3879 1.56873H1.39238C1.11419 1.56873 0.888672 1.79494 0.888672 2.07399V11.0593C0.888672 11.3383 1.11419 11.5645 1.39238 11.5645H14.3879C14.6661 11.5645 14.8916 11.3383 14.8916 11.0593V2.07399C14.8916 1.79494 14.6661 1.56873 14.3879 1.56873Z" fill="#0078D4"/>
<path opacity="0.9" d="M13.8261 2.2677H1.95546C1.81637 2.2677 1.70361 2.38081 1.70361 2.52033V10.5204C1.70361 10.6599 1.81637 10.773 1.95546 10.773H13.8261C13.9652 10.773 14.0779 10.6599 14.0779 10.5204V2.52033C14.0779 2.38081 13.9652 2.2677 13.8261 2.2677Z" fill="url(#paint0_linear_607_5083)"/>
<path d="M15.748 4.17102H9.7875C9.64839 4.17102 9.53564 4.28413 9.53564 4.42366V14.7394C9.53564 14.879 9.64839 14.9921 9.7875 14.9921H15.748C15.8871 14.9921 15.9998 14.879 15.9998 14.7394V4.42366C15.9998 4.28413 15.8871 4.17102 15.748 4.17102Z" fill="url(#paint1_linear_607_5083)"/>
<path d="M13.4229 4.53284H12.1216C12.0707 4.53284 12.0293 4.57431 12.0293 4.62547V4.64231C12.0293 4.69347 12.0707 4.73494 12.1216 4.73494H13.4229C13.4739 4.73494 13.5152 4.69347 13.5152 4.64231V4.62547C13.5152 4.57431 13.4739 4.53284 13.4229 4.53284Z" fill="#F2F2F2"/>
<path opacity="0.9" d="M15.2778 5.08057H10.266C10.2011 5.08057 10.1484 5.13335 10.1484 5.19846V13.6616C10.1484 13.7267 10.2011 13.7795 10.266 13.7795H15.2778C15.3427 13.7795 15.3954 13.7267 15.3954 13.6616V5.19846C15.3954 5.13335 15.3427 5.08057 15.2778 5.08057Z" fill="url(#paint2_linear_607_5083)"/>
<path d="M8.56204 1.88037H7.2608C7.2098 1.88037 7.16846 1.92184 7.16846 1.973V1.98984C7.16846 2.041 7.2098 2.08248 7.2608 2.08248H8.56204C8.61304 2.08248 8.65438 2.041 8.65438 1.98984V1.973C8.65438 1.92184 8.61304 1.88037 8.56204 1.88037Z" fill="#F2F2F2"/>
<path d="M12.9613 14.1415H12.5751C12.4824 14.1415 12.4072 14.2168 12.4072 14.3099V14.5878C12.4072 14.6808 12.4824 14.7562 12.5751 14.7562H12.9613C13.0541 14.7562 13.1292 14.6808 13.1292 14.5878V14.3099C13.1292 14.2168 13.0541 14.1415 12.9613 14.1415Z" fill="#F2F2F2"/>
<defs>
<linearGradient id="paint0_linear_607_5083" x1="7.89077" y1="10.773" x2="7.89077" y2="2.2677" gradientUnits="userSpaceOnUse">
<stop stop-color="#D2EBFF"/>
<stop offset="1" stop-color="#F0FFFD"/>
</linearGradient>
<linearGradient id="paint1_linear_607_5083" x1="12.7677" y1="17.8889" x2="12.7677" y2="2.67208" gradientUnits="userSpaceOnUse">
<stop stop-color="#0078D4"/>
<stop offset="0.17" stop-color="#1C84DC"/>
<stop offset="0.38" stop-color="#3990E4"/>
<stop offset="0.59" stop-color="#4D99EA"/>
<stop offset="0.8" stop-color="#5A9EEE"/>
<stop offset="1" stop-color="#5EA0EF"/>
</linearGradient>
<linearGradient id="paint2_linear_607_5083" x1="84.3923" y1="140.175" x2="84.3923" y2="50.3151" gradientUnits="userSpaceOnUse">
<stop stop-color="#D2EBFF"/>
<stop offset="1" stop-color="#F0FFFD"/>
</linearGradient>
</defs>
</svg>
