<svg width="16" height="16" viewBox="0 0 16 16" fill="none" xmlns="http://www.w3.org/2000/svg">
<g clip-path="url(#clip0_707_20830)">
<path d="M3.26385 4.97819C3.63846 2.72137 5.61618 1 8 1C10.3838 1 12.3615 2.72137 12.7362 4.97819C14.5668 5.14613 16 6.67195 16 8.52941C16 8.6613 15.9928 8.79151 15.9787 8.91975C15.054 7.49313 13.4384 6.54799 11.6 6.54799C8.72808 6.54799 6.4 8.85444 6.4 11.6997C6.4 11.833 6.40512 11.9652 6.41512 12.096H3.6C1.61178 12.096 0 10.4992 0 8.52941C0 6.67195 1.43324 5.14613 3.26385 4.97819ZM16 11.6997C16 14.1072 14.0301 16.0588 11.6 16.0588C9.16992 16.0588 7.2 14.1072 7.2 11.6997C7.2 9.29218 9.16992 7.34056 11.6 7.34056C14.0301 7.34056 16 9.29218 16 11.6997ZM14.2829 9.8343C14.1266 9.67959 13.8734 9.67959 13.7171 9.8343L10.8 12.7244L9.48288 11.4194C9.32664 11.2647 9.07336 11.2647 8.91712 11.4194C8.76096 11.5742 8.76096 11.8252 8.91712 11.9799L10.5171 13.5651C10.6734 13.7198 10.9266 13.7198 11.0829 13.5651L14.2829 10.3948C14.439 10.24 14.439 9.98909 14.2829 9.8343Z" fill="url(#paint0_linear_707_20830)"/>
</g>
<defs>
<linearGradient id="paint0_linear_707_20830" x1="10.656" y1="1.03412" x2="8.28469" y2="16.1787" gradientUnits="userSpaceOnUse">
<stop stop-color="#4DA9FF"/>
<stop offset="1" stop-color="#0052B3"/>
</linearGradient>
<clipPath id="clip0_707_20830">
<rect width="16" height="16" fill="white"/>
</clipPath>
</defs>
</svg>
