<svg width="16" height="16" viewBox="0 0 16 16" fill="none" xmlns="http://www.w3.org/2000/svg">
<rect x="0.727539" y="3.51123" width="14.5455" height="11.3333" fill="black"/>
<path d="M3.56104 7.30029C3.44775 7.34587 3.33773 7.37972 3.23096 7.40186C3.12549 7.42399 3.01546 7.43506 2.90088 7.43506C2.71729 7.43506 2.55452 7.40837 2.4126 7.35498C2.27197 7.30029 2.15283 7.21956 2.05518 7.11279C1.95882 7.00602 1.88525 6.87386 1.83447 6.71631C1.78499 6.55745 1.76025 6.37321 1.76025 6.16357C1.76025 5.94873 1.7876 5.75798 1.84229 5.59131C1.89697 5.42334 1.9751 5.28206 2.07666 5.16748C2.17822 5.0516 2.30127 4.9637 2.4458 4.90381C2.59163 4.84261 2.75505 4.81201 2.93604 4.81201C2.99463 4.81201 3.04932 4.81331 3.1001 4.81592C3.15218 4.81852 3.20296 4.82373 3.25244 4.83154C3.30192 4.83805 3.35205 4.84717 3.40283 4.85889C3.45361 4.87061 3.50635 4.88558 3.56104 4.90381V5.38037C3.45036 5.32829 3.34489 5.29118 3.24463 5.26904C3.14437 5.24691 3.05322 5.23584 2.97119 5.23584C2.8501 5.23584 2.74658 5.25798 2.66064 5.30225C2.57471 5.34521 2.50374 5.40641 2.44775 5.48584C2.39307 5.56396 2.3527 5.65771 2.32666 5.76709C2.30062 5.87516 2.2876 5.9943 2.2876 6.12451C2.2876 6.26253 2.30062 6.38623 2.32666 6.49561C2.354 6.60368 2.39567 6.69548 2.45166 6.771C2.50765 6.84652 2.57926 6.90446 2.6665 6.94482C2.75374 6.98389 2.85726 7.00342 2.97705 7.00342C3.02002 7.00342 3.06624 6.99951 3.11572 6.9917C3.1665 6.98258 3.21729 6.97152 3.26807 6.9585C3.32015 6.94417 3.37093 6.9279 3.42041 6.90967C3.47119 6.89014 3.51807 6.87061 3.56104 6.85107V7.30029ZM4.89893 5.396C4.9484 5.396 4.99463 5.40511 5.0376 5.42334C5.08057 5.44157 5.11768 5.46696 5.14893 5.49951C5.18018 5.53076 5.20492 5.56787 5.22314 5.61084C5.24137 5.65381 5.25049 5.69938 5.25049 5.74756C5.25049 5.79704 5.24137 5.84326 5.22314 5.88623C5.20492 5.9292 5.18018 5.96631 5.14893 5.99756C5.11768 6.02881 5.08057 6.05355 5.0376 6.07178C4.99463 6.09001 4.9484 6.09912 4.89893 6.09912C4.84945 6.09912 4.80322 6.09001 4.76025 6.07178C4.71859 6.05355 4.68148 6.02881 4.64893 5.99756C4.61768 5.96631 4.59294 5.9292 4.57471 5.88623C4.55648 5.84326 4.54736 5.79704 4.54736 5.74756C4.54736 5.69938 4.55648 5.65381 4.57471 5.61084C4.59294 5.56787 4.61768 5.53076 4.64893 5.49951C4.68148 5.46696 4.71859 5.44157 4.76025 5.42334C4.80322 5.40511 4.84945 5.396 4.89893 5.396ZM4.89893 6.7417C4.9484 6.7417 4.99463 6.75081 5.0376 6.76904C5.08057 6.78727 5.11768 6.81201 5.14893 6.84326C5.18018 6.87451 5.20492 6.91162 5.22314 6.95459C5.24137 6.99756 5.25049 7.04313 5.25049 7.09131C5.25049 7.14079 5.24137 7.18701 5.22314 7.22998C5.20492 7.27295 5.18018 7.31071 5.14893 7.34326C5.11768 7.37451 5.08057 7.39925 5.0376 7.41748C4.99463 7.43571 4.9484 7.44482 4.89893 7.44482C4.84945 7.44482 4.80322 7.43571 4.76025 7.41748C4.71859 7.39925 4.68148 7.37451 4.64893 7.34326C4.61768 7.31071 4.59294 7.27295 4.57471 7.22998C4.55648 7.18701 4.54736 7.14079 4.54736 7.09131C4.54736 7.04313 4.55648 6.99756 4.57471 6.95459C4.59294 6.91162 4.61768 6.87451 4.64893 6.84326C4.68148 6.81201 4.71859 6.78727 4.76025 6.76904C4.80322 6.75081 4.84945 6.7417 4.89893 6.7417ZM6.69385 4.64014L8.05908 7.81982H7.59424L6.23096 4.64014H6.69385ZM8.19775 8.20068V7.82373H10.397V8.20068H8.19775ZM10.397 8.20068V7.82373H12.5962V8.20068H10.397Z" fill="white"/>
<rect x="0.727539" y="2.75562" width="14.5455" height="1.51111" fill="#D9D9D9"/>
<rect x="13.8184" y="2.75562" width="0.727273" height="0.755556" fill="#605E5C"/>
<rect x="12.3638" y="2.75562" width="0.727273" height="0.755556" fill="#605E5C"/>
<rect x="10.9092" y="2.75562" width="0.727273" height="0.755556" fill="#605E5C"/>
<rect x="0.5" y="2.5" width="15" height="12.6" stroke="#CDCDCD"/>
</svg>
