<svg width="16" height="16" viewBox="0 0 16 16" fill="none" xmlns="http://www.w3.org/2000/svg">
<path d="M0 14.3883C0 14.7262 0.28736 15.0001 0.642239 15.0001H15.3577C15.7126 15.0001 16 14.7259 16 14.3883V3.63306H0V14.3883Z" fill="#3898C6"/>
<path d="M15.3578 1H0.642247C0.557532 1.00029 0.473705 1.01729 0.395563 1.05001C0.317421 1.08273 0.246496 1.13053 0.186846 1.19069C0.127196 1.25084 0.0799908 1.32217 0.0479313 1.40058C0.0158718 1.479 -0.000413179 1.56296 7.96432e-06 1.64768V4H16V1.64768C16.0004 1.56298 15.9841 1.47903 15.952 1.40063C15.9199 1.32224 15.8727 1.25093 15.8131 1.19078C15.7534 1.13063 15.6825 1.08283 15.6044 1.05009C15.5263 1.01736 15.4425 1.00034 15.3578 1V1Z" fill="#7B7B7B"/>
<path d="M1 4H15V14H1V4Z" fill="white"/>
<path d="M8 6H13V7H8V6ZM8 8H12V9H8V8ZM8 10H13V11H8V10ZM3 6V12H7V6H3ZM6 11H4V7H6V11Z" fill="#3898C6"/>
<path d="M14 2H15V3H14V2ZM12 2H13V3H12V2ZM10 2H11V3H10V2Z" fill="white"/>
</svg>
