<svg width="16" height="16" viewBox="0 0 16 16" fill="none" xmlns="http://www.w3.org/2000/svg">
<g clip-path="url(#clip0_1398_11037)">
<path d="M3.37789 5.66212V3.39812C3.37813 3.33133 3.40483 3.26734 3.45215 3.22019C3.49946 3.17304 3.56354 3.14657 3.63034 3.14657H8.49701V1.88257H2.59034C2.52396 1.88257 2.45823 1.89566 2.39692 1.92109C2.33561 1.94651 2.27991 1.98378 2.23301 2.03076C2.18612 2.07774 2.14895 2.1335 2.12363 2.19486C2.09831 2.25622 2.08533 2.32197 2.08545 2.38835V5.69412L3.37789 5.66212Z" fill="#5EA0EF"/>
<path d="M2.08545 10.1875V13.6133C2.08545 13.7472 2.13864 13.8756 2.23333 13.9703C2.32801 14.065 2.45643 14.1182 2.59034 14.1182H8.47034V12.8551H3.62945C3.56265 12.8551 3.49857 12.8286 3.45126 12.7814C3.40394 12.7343 3.37724 12.6703 3.377 12.6035V10.1555L2.08545 10.1875Z" fill="#5EA0EF"/>
<path d="M0 5.65415V10.3902C0.000235487 10.5289 0.0554996 10.6618 0.15366 10.7598C0.25182 10.8578 0.384854 10.9128 0.523556 10.9128H5.25956C5.32819 10.9134 5.39628 10.9005 5.45991 10.8747C5.52355 10.849 5.5815 10.811 5.63044 10.7629C5.67939 10.7148 5.71838 10.6575 5.74519 10.5943C5.77199 10.5311 5.78609 10.4632 5.78667 10.3946V5.65415C5.78738 5.51545 5.73302 5.38213 5.63552 5.28347C5.53803 5.18481 5.40537 5.12887 5.26667 5.12793H0.523556C0.384854 5.12793 0.25182 5.18297 0.15366 5.28096C0.0554996 5.37895 0.000235487 5.51189 0 5.6506L0 5.65415ZM4.46311 6.1066C4.55505 6.1066 4.64323 6.14312 4.70824 6.20813C4.77325 6.27315 4.80978 6.36132 4.80978 6.45326V9.59371C4.80954 9.68558 4.77294 9.77362 4.70798 9.83858C4.64302 9.90354 4.55498 9.94014 4.46311 9.94037H1.31911C1.22724 9.94014 1.1392 9.90354 1.07424 9.83858C1.00928 9.77362 0.972679 9.68558 0.972444 9.59371V6.44971C0.972679 6.35784 1.00928 6.2698 1.07424 6.20484C1.1392 6.13987 1.22724 6.10328 1.31911 6.10304L4.46311 6.1066Z" fill="#83B9F9"/>
<path d="M15.5778 10.9094H7.9556C7.84409 10.9094 7.73715 10.9537 7.6583 11.0326C7.57945 11.1114 7.53516 11.2184 7.53516 11.3299V15.1521C7.53516 15.2636 7.57945 15.3705 7.6583 15.4494C7.73715 15.5282 7.84409 15.5725 7.9556 15.5725H15.5796C15.691 15.5725 15.7978 15.5284 15.8766 15.4497C15.9554 15.371 15.9998 15.2643 16 15.153V11.3308C16 11.2192 15.9557 11.1123 15.8769 11.0335C15.7981 10.9546 15.6911 10.9103 15.5796 10.9103L15.5778 10.9094Z" fill="url(#paint0_linear_1398_11037)"/>
<path d="M15.5778 0.426758H7.9556C7.84409 0.426758 7.73715 0.471055 7.6583 0.549903C7.57945 0.628752 7.53516 0.735693 7.53516 0.847202V4.66942C7.53516 4.78093 7.57945 4.88787 7.6583 4.96672C7.73715 5.04557 7.84409 5.08987 7.9556 5.08987H15.5796C15.6906 5.08987 15.7972 5.04594 15.876 4.96767C15.9547 4.88939 15.9993 4.78314 16 4.67209V0.847202C16 0.735693 15.9557 0.628752 15.8769 0.549903C15.7981 0.471055 15.6911 0.426758 15.5796 0.426758H15.5778Z" fill="url(#paint1_linear_1398_11037)"/>
<path d="M10.3351 13.3201H9.17777C9.12328 13.3201 9.0791 13.3642 9.0791 13.4187V14.2783C9.0791 14.3328 9.12328 14.377 9.17777 14.377H10.3351C10.3896 14.377 10.4338 14.3328 10.4338 14.2783V13.4187C10.4338 13.3642 10.3896 13.3201 10.3351 13.3201Z" fill="white"/>
<path d="M12.2935 12.863H11.1735C11.1087 12.863 11.0562 12.9156 11.0562 12.9804V14.2595C11.0562 14.3243 11.1087 14.3768 11.1735 14.3768H12.2935C12.3583 14.3768 12.4108 14.3243 12.4108 14.2595V12.9804C12.4108 12.9156 12.3583 12.863 12.2935 12.863Z" fill="white"/>
<path d="M14.2443 12.1475H13.1758C13.0968 12.1475 13.0327 12.2115 13.0327 12.2906V14.2337C13.0327 14.3127 13.0968 14.3768 13.1758 14.3768H14.2443C14.3233 14.3768 14.3874 14.3127 14.3874 14.2337V12.2906C14.3874 12.2115 14.3233 12.1475 14.2443 12.1475Z" fill="white"/>
<path d="M10.8691 2.97232C11.1455 2.97232 11.3695 2.74827 11.3695 2.47188C11.3695 2.19549 11.1455 1.97144 10.8691 1.97144C10.5927 1.97144 10.3687 2.19549 10.3687 2.47188C10.3687 2.74827 10.5927 2.97232 10.8691 2.97232Z" fill="white"/>
<path d="M12.6176 4.06656C12.894 4.06656 13.1181 3.84251 13.1181 3.56612C13.1181 3.28973 12.894 3.06567 12.6176 3.06567C12.3412 3.06567 12.1172 3.28973 12.1172 3.56612C12.1172 3.84251 12.3412 4.06656 12.6176 4.06656Z" fill="white"/>
<path d="M14.0073 2.16715C14.2837 2.16715 14.5077 1.94309 14.5077 1.6667C14.5077 1.39032 14.2837 1.16626 14.0073 1.16626C13.7309 1.16626 13.5068 1.39032 13.5068 1.6667C13.5068 1.94309 13.7309 2.16715 14.0073 2.16715Z" fill="white"/>
<path d="M9.41499 4.22135C9.69138 4.22135 9.91544 3.99729 9.91544 3.7209C9.91544 3.44452 9.69138 3.22046 9.41499 3.22046C9.13861 3.22046 8.91455 3.44452 8.91455 3.7209C8.91455 3.99729 9.13861 4.22135 9.41499 4.22135Z" fill="white"/>
<path d="M9.47356 3.97423L9.17578 3.66757L10.8318 2.06134L12.5696 3.28179L13.9287 1.4729L14.2709 1.72979L12.6629 3.86934L10.8753 2.61423L9.47356 3.97423Z" fill="white"/>
</g>
<defs>
<linearGradient id="paint0_linear_1398_11037" x1="11.768" y1="9.43565" x2="11.768" y2="15.5468" gradientUnits="userSpaceOnUse">
<stop stop-color="#5EA0EF"/>
<stop offset="1" stop-color="#0078D4"/>
</linearGradient>
<linearGradient id="paint1_linear_1398_11037" x1="11.768" y1="-0.81502" x2="11.768" y2="5.74854" gradientUnits="userSpaceOnUse">
<stop stop-color="#5EA0EF"/>
<stop offset="1" stop-color="#0078D4"/>
</linearGradient>
<clipPath id="clip0_1398_11037">
<rect width="16" height="16" fill="white"/>
</clipPath>
</defs>
</svg>
