<svg width="16" height="16" viewBox="0 0 16 16" fill="none" xmlns="http://www.w3.org/2000/svg">
<path d="M14.6666 8.12856V3.36377C7.90401 6.00702 5.43152 8.02462 6.10406 14.3884C6.13732 14.7032 6.32471 14.986 6.61195 15.1191C7.14588 15.3665 7.62754 15.5025 7.99997 15.5025C9.90471 15.5025 14.6666 11.9446 14.6666 8.12856Z" fill="url(#paint0_linear_820_25414)"/>
<path d="M14.6666 8.12856V3.36377C7.90401 6.00702 5.43152 8.02462 6.10406 14.3884C6.13732 14.7032 6.32471 14.986 6.61195 15.1191C7.14588 15.3665 7.62754 15.5025 7.99997 15.5025C9.90471 15.5025 14.6666 11.9446 14.6666 8.12856Z" fill="url(#paint1_radial_820_25414)" fill-opacity="0.6"/>
<path d="M8.00029 0.496582C9.28219 0.496582 11.8582 1.14475 13.4058 1.56864C13.5504 1.60824 13.6861 1.64664 13.8108 1.68283C14.3254 1.83202 14.6669 2.30791 14.6669 2.84369V3.63172C14.5139 7.14236 13.389 8.16354 10.249 10.6918C9.83663 11.0567 9.4128 11.4039 8.98253 11.7563C8.36597 12.2613 7.73614 12.7771 7.10782 13.3717C6.86787 13.5987 6.7182 13.9202 6.7182 14.2765C6.7182 14.8122 7.05619 15.2688 7.53052 15.4448C7.41487 15.419 7.29335 15.3846 7.16696 15.3422C6.01861 14.9573 4.46839 13.9088 3.25469 12.5164C2.29779 6.55398 4.17334 3.63172 8.00029 0.496582Z" fill="url(#paint2_radial_820_25414)"/>
<path d="M8.00029 0.496582C9.28219 0.496582 11.8582 1.14475 13.4058 1.56864C13.5504 1.60824 13.6861 1.64664 13.8108 1.68283C14.3254 1.83202 14.6669 2.30791 14.6669 2.84369V3.63172C14.5139 7.14236 13.389 8.16354 10.249 10.6918C9.83663 11.0567 9.4128 11.4039 8.98253 11.7563C8.36597 12.2613 7.73614 12.7771 7.10782 13.3717C6.86787 13.5987 6.7182 13.9202 6.7182 14.2765C6.7182 14.8122 7.05619 15.2688 7.53052 15.4448C7.41487 15.419 7.29335 15.3846 7.16696 15.3422C6.01861 14.9573 4.46839 13.9088 3.25469 12.5164C2.29779 6.55398 4.17334 3.63172 8.00029 0.496582Z" fill="url(#paint3_radial_820_25414)" fill-opacity="0.7"/>
<path d="M8.00029 0.496582C9.28219 0.496582 11.8582 1.14475 13.4058 1.56864C13.5504 1.60824 13.6861 1.64664 13.8108 1.68283C14.3254 1.83202 14.6669 2.30791 14.6669 2.84369V3.63172C14.5139 7.14236 13.389 8.16354 10.249 10.6918C9.83663 11.0567 9.4128 11.4039 8.98253 11.7563C8.36597 12.2613 7.73614 12.7771 7.10782 13.3717C6.86787 13.5987 6.7182 13.9202 6.7182 14.2765C6.7182 14.8122 7.05619 15.2688 7.53052 15.4448C7.41487 15.419 7.29335 15.3846 7.16696 15.3422C6.01861 14.9573 4.46839 13.9088 3.25469 12.5164C2.29779 6.55398 4.17334 3.63172 8.00029 0.496582Z" fill="url(#paint4_radial_820_25414)"/>
<path d="M2.22554 1.67081C3.69739 1.25896 6.6098 0.496582 8.00008 0.496582C8.10021 0.496582 8.20823 0.500631 8.32303 0.508303C9.59389 0.631005 10.5874 1.702 10.5874 3.00504C10.5874 3.47818 10.4565 3.92071 10.2288 4.29836C9.74204 5.26825 8.94544 6.03052 7.73314 7.02859C7.3849 7.31528 6.98563 7.63174 6.58755 7.94722C6.21138 8.24537 5.83624 8.54268 5.50636 8.81317C4.70498 9.47025 4.21518 9.87185 3.9458 10.3758C3.68933 10.7693 3.54029 11.2391 3.54029 11.7438C3.54029 12.4827 3.85975 13.147 4.36807 13.606C4.38422 13.6241 4.40056 13.6418 4.41707 13.659C4.42152 13.6656 4.4259 13.6722 4.43021 13.6788C4.26895 13.5408 4.10929 13.3966 3.95252 13.2466C2.52396 11.8801 1.3335 10.0367 1.3335 8.12865V2.85691V2.85664C1.33361 2.30461 1.69391 1.81955 2.22554 1.67081Z" fill="url(#paint5_radial_820_25414)"/>
<path d="M2.22554 1.67081C3.69739 1.25896 6.6098 0.496582 8.00008 0.496582C8.10021 0.496582 8.20823 0.500631 8.32303 0.508303C9.59389 0.631005 10.5874 1.702 10.5874 3.00504C10.5874 3.47818 10.4565 3.92071 10.2288 4.29836C9.74204 5.26825 8.94544 6.03052 7.73314 7.02859C7.3849 7.31528 6.98563 7.63174 6.58755 7.94722C6.21138 8.24537 5.83624 8.54268 5.50636 8.81317C4.70498 9.47025 4.21518 9.87185 3.9458 10.3758C3.68933 10.7693 3.54029 11.2391 3.54029 11.7438C3.54029 12.4827 3.85975 13.147 4.36807 13.606C4.38422 13.6241 4.40056 13.6418 4.41707 13.659C4.42152 13.6656 4.4259 13.6722 4.43021 13.6788C4.26895 13.5408 4.10929 13.3966 3.95252 13.2466C2.52396 11.8801 1.3335 10.0367 1.3335 8.12865V2.85691V2.85664C1.33361 2.30461 1.69391 1.81955 2.22554 1.67081Z" fill="url(#paint6_radial_820_25414)"/>
<defs>
<linearGradient id="paint0_linear_820_25414" x1="13.9817" y1="7.72616" x2="5.12627" y2="14.8235" gradientUnits="userSpaceOnUse">
<stop offset="0.716383" stop-color="#143DE0"/>
<stop offset="0.97828" stop-color="#003375"/>
</linearGradient>
<radialGradient id="paint1_radial_820_25414" cx="0" cy="0" r="1" gradientUnits="userSpaceOnUse" gradientTransform="translate(9.01877 9.43312) rotate(50.2877) scale(7.88982 23.5871)">
<stop offset="0.227837" stop-color="#003375"/>
<stop offset="0.434167" stop-color="#003375" stop-opacity="0.1"/>
</radialGradient>
<radialGradient id="paint2_radial_820_25414" cx="0" cy="0" r="1" gradientTransform="matrix(-12.4473 21.9255 -10.9707 -13.5013 15.1025 -3.58113)" gradientUnits="userSpaceOnUse">
<stop offset="0.165327" stop-color="#29C3FF"/>
<stop offset="0.534" stop-color="#1C91FF"/>
</radialGradient>
<radialGradient id="paint3_radial_820_25414" cx="0" cy="0" r="1" gradientUnits="userSpaceOnUse" gradientTransform="translate(6.53345 5.45449) rotate(46.7724) scale(4.25549 9.83489)">
<stop offset="0.331015" stop-color="#1B44B1"/>
<stop offset="1" stop-color="#1F9EFF" stop-opacity="0"/>
</radialGradient>
<radialGradient id="paint4_radial_820_25414" cx="0" cy="0" r="1" gradientUnits="userSpaceOnUse" gradientTransform="translate(9.40903 4.67215) rotate(-111.097) scale(15.3272 11.7157)">
<stop offset="0.612778" stop-color="#1C91FF" stop-opacity="0"/>
<stop offset="0.788043" stop-color="#66C0FF"/>
</radialGradient>
<radialGradient id="paint5_radial_820_25414" cx="0" cy="0" r="1" gradientTransform="matrix(-10.9735 14.768 -11.6159 -18.815 10.5874 -0.215108)" gradientUnits="userSpaceOnUse">
<stop stop-color="#9DEAFF"/>
<stop offset="0.521141" stop-color="#29C3FF"/>
</radialGradient>
<radialGradient id="paint6_radial_820_25414" cx="0" cy="0" r="1" gradientTransform="matrix(0.573757 -14.4323 7.68129 -0.262027 6.98143 2.64193)" gradientUnits="userSpaceOnUse">
<stop offset="0.516387" stop-color="#2BC3FF" stop-opacity="0"/>
<stop offset="0.80216" stop-color="#9DEAFF"/>
</radialGradient>
</defs>
</svg>
