<svg width="16" height="16" viewBox="0 0 16 16" fill="none" xmlns="http://www.w3.org/2000/svg">
<g clip-path="url(#clip0_693_7099)">
<path d="M14.2933 0.915527H0.533333C0.238781 0.915527 0 1.15431 0 1.44886V10.9333C0 11.2279 0.238781 11.4666 0.533333 11.4666H14.2933C14.5879 11.4666 14.8267 11.2279 14.8267 10.9333V1.44886C14.8267 1.15431 14.5879 0.915527 14.2933 0.915527Z" fill="#0078D4"/>
<path opacity="0.9" d="M13.6979 1.65332H1.12897C0.981695 1.65332 0.862305 1.77271 0.862305 1.91999V10.3644C0.862305 10.5117 0.981695 10.6311 1.12897 10.6311H13.6979C13.8451 10.6311 13.9645 10.5117 13.9645 10.3644V1.91999C13.9645 1.77271 13.8451 1.65332 13.6979 1.65332Z" fill="url(#paint0_linear_693_7099)"/>
<path d="M15.7335 3.66211H9.42243C9.27515 3.66211 9.15576 3.7815 9.15576 3.92878V14.8177C9.15576 14.9649 9.27515 15.0843 9.42243 15.0843H15.7335C15.8808 15.0843 16.0002 14.9649 16.0002 14.8177V3.92878C16.0002 3.7815 15.8808 3.66211 15.7335 3.66211Z" fill="url(#paint1_linear_693_7099)"/>
<path d="M13.271 4.04443H11.8932C11.8392 4.04443 11.7954 4.08821 11.7954 4.14221V4.15999C11.7954 4.21399 11.8392 4.25777 11.8932 4.25777H13.271C13.325 4.25777 13.3687 4.21399 13.3687 4.15999V4.14221C13.3687 4.08821 13.325 4.04443 13.271 4.04443Z" fill="#F2F2F2"/>
<path d="M8.12448 1.24438H6.7467C6.6927 1.24438 6.64893 1.28816 6.64893 1.34216V1.35994C6.64893 1.41394 6.6927 1.45772 6.7467 1.45772H8.12448C8.17848 1.45772 8.22226 1.41394 8.22226 1.35994V1.34216C8.22226 1.28816 8.17848 1.24438 8.12448 1.24438Z" fill="#F2F2F2"/>
<path d="M12.782 14.1865H12.3731C12.2749 14.1865 12.1953 14.2661 12.1953 14.3643V14.6576C12.1953 14.7558 12.2749 14.8354 12.3731 14.8354H12.782C12.8802 14.8354 12.9598 14.7558 12.9598 14.6576V14.3643C12.9598 14.2661 12.8802 14.1865 12.782 14.1865Z" fill="#F2F2F2"/>
</g>
<defs>
<linearGradient id="paint0_linear_693_7099" x1="7.41342" y1="10.6311" x2="7.41342" y2="1.65332" gradientUnits="userSpaceOnUse">
<stop stop-color="#D2EBFF"/>
<stop offset="1" stop-color="#F0FFFD"/>
</linearGradient>
<linearGradient id="paint1_linear_693_7099" x1="12.578" y1="18.1421" x2="12.578" y2="2.07989" gradientUnits="userSpaceOnUse">
<stop stop-color="#0078D4"/>
<stop offset="0.17" stop-color="#1C84DC"/>
<stop offset="0.38" stop-color="#3990E4"/>
<stop offset="0.59" stop-color="#4D99EA"/>
<stop offset="0.8" stop-color="#5A9EEE"/>
<stop offset="1" stop-color="#5EA0EF"/>
</linearGradient>
<clipPath id="clip0_693_7099">
<rect width="16" height="16" fill="white"/>
</clipPath>
</defs>
</svg>
