<svg width="14" height="16" viewBox="0 0 14 16" fill="none" xmlns="http://www.w3.org/2000/svg">
<path d="M9.06619 15.7119C8.31273 16.5015 7.09332 16.0768 6.77328 15.155C6.50927 14.3945 6.16622 13.4837 5.83203 12.8133C4.83248 10.808 4.249 9.66703 2.63975 8.23947C2.42629 8.05006 2.15106 7.89742 1.84677 7.77715C0.781764 7.35616 -0.219762 6.25281 0.0421739 4.94301L0.375136 3.27804C0.550389 2.40221 1.20528 1.70051 2.06702 1.46551L7.34884 0.0249993C9.74994 -0.629829 12.1966 0.912112 12.6418 3.3607L13.2869 6.90886C13.6027 8.64585 12.2683 10.2448 10.5028 10.2448H9.66948L9.6792 10.294C9.75475 10.679 9.84568 11.2092 9.90652 11.7871C9.96707 12.3627 9.99924 12.9985 9.95179 13.5911C9.90529 14.1725 9.77833 14.7693 9.47621 15.2226C9.37293 15.3775 9.21956 15.5511 9.06619 15.7119Z" fill="#4A90D9"/>
</svg>
