<svg width="16" height="16" viewBox="0 0 16 16" fill="none" xmlns="http://www.w3.org/2000/svg">
<g clip-path="url(#clip0_816_8703)">
<path d="M10.3997 15.7119C9.64623 16.5015 8.42682 16.0768 8.10678 15.155C7.84277 14.3945 7.49971 13.4837 7.16553 12.8133C6.16598 10.808 5.5825 9.66703 3.97324 8.23947C3.75979 8.05006 3.48455 7.89742 3.18027 7.77715C2.11526 7.35616 1.11373 6.25281 1.37567 4.94301L1.70863 3.27804C1.88389 2.40221 2.53877 1.70051 3.40051 1.46551L8.68234 0.0249993C11.0834 -0.629829 13.5301 0.912112 13.9753 3.3607L14.6204 6.90886C14.9362 8.64585 13.6018 10.2448 11.8363 10.2448H11.003L11.0127 10.294C11.0882 10.679 11.1792 11.2092 11.24 11.7871C11.3006 12.3627 11.3327 12.9985 11.2853 13.5911C11.2388 14.1725 11.1118 14.7693 10.8097 15.2226C10.7064 15.3775 10.5531 15.5511 10.3997 15.7119Z" fill="#0078D4"/>
</g>
<defs>
<clipPath id="clip0_816_8703">
<rect width="16" height="16" fill="white"/>
</clipPath>
</defs>
</svg>
