<svg width="16" height="16" viewBox="0 0 16 16" fill="none" xmlns="http://www.w3.org/2000/svg">
<g clip-path="url(#clip0_738_8608)">
<path d="M3.3291 12.4817C3.67775 12.6972 4.25733 12.9368 4.87015 12.9368C5.42816 12.9368 5.94664 12.7764 6.37616 12.5031C6.37616 12.5031 6.37706 12.5031 6.37795 12.5022L7.99984 11.4976V15.125C7.74288 15.125 7.48413 15.0555 7.2595 14.9165L3.3291 12.4817Z" fill="#225086"/>
<path d="M6.97958 1.33908L0.313734 8.85075C-0.200867 9.43144 -0.0666616 10.3087 0.600814 10.7251C0.600814 10.7251 3.06808 12.2656 3.37915 12.4601C3.72401 12.6749 4.29727 12.9138 4.90342 12.9138C5.45535 12.9138 5.96818 12.754 6.39302 12.4814C6.39302 12.4814 6.39391 12.4814 6.3948 12.4805L7.99906 11.479L4.1204 9.05675L7.99991 4.6847V0.888916C7.62313 0.888916 7.24626 1.03897 6.97958 1.33908Z" fill="#66DDFF"/>
<path d="M4.09912 9.07073L4.14559 9.0992L7.99883 11.4977H7.99967V4.69107L7.99883 4.69019L4.09912 9.07073Z" fill="#CBF8FF"/>
<path d="M15.399 10.7468C16.0667 10.3296 16.2009 9.4506 15.6862 8.86877L11.3115 3.93028C10.9586 3.7657 10.5629 3.67139 10.1443 3.67139C9.32198 3.67139 8.58671 4.02636 8.09784 4.58417L8.00095 4.6936L11.8805 9.07428L8 11.5013V15.1248C8.25516 15.1248 8.50937 15.0555 8.73167 14.9167L15.399 10.7459V10.7468Z" fill="#074793"/>
<path d="M8.00095 0.888916V4.69017L8.09911 4.5808C8.59432 4.02328 9.33899 3.6685 10.1718 3.6685C10.5968 3.6685 10.9966 3.76364 11.3541 3.92725L9.03195 1.34062C8.76263 1.04008 8.38089 0.889805 8 0.889805L8.00095 0.888916Z" fill="#0294E4"/>
<path d="M11.9006 9.07099L8 4.69019V11.4977L11.9006 9.07099Z" fill="#96BCC2"/>
</g>
<defs>
<clipPath id="clip0_738_8608">
<rect width="16" height="16" fill="white"/>
</clipPath>
</defs>
</svg>
