<svg width="16" height="16" viewBox="0 0 16 16" fill="none" xmlns="http://www.w3.org/2000/svg">
<path d="M5.98747 2.17997C5.71458 2.84269 5.48643 3.62692 5.31842 4.5H10.6816C10.5136 3.62692 10.2854 2.84269 10.0125 2.17997C9.71058 1.44666 9.3637 0.88614 9.00409 0.51675C8.64602 0.148942 8.30689 0 8 0C7.69311 0 7.35398 0.148942 6.99591 0.51675C6.6363 0.88614 6.28942 1.44666 5.98747 2.17997ZM5.89053 0.281044C5.57693 0.707246 5.30036 1.22224 5.06279 1.79922C4.74205 2.57814 4.48315 3.49258 4.3012 4.5H0.804233C1.80285 2.45074 3.65108 0.891625 5.89053 0.281044ZM10.1095 0.281046C10.4231 0.707248 10.6996 1.22225 10.9372 1.79922C11.2579 2.57814 11.5169 3.49258 11.6988 4.5H15.1958C14.1972 2.45074 12.3489 0.891627 10.1095 0.281046ZM15.6016 5.5H11.85C11.9479 6.2949 12 7.13416 12 8C12 8.86584 11.9479 9.7051 11.85 10.5H15.6016C15.8601 9.71345 16 8.87306 16 8C16 7.12694 15.8601 6.28655 15.6016 5.5ZM15.1958 11.5H11.6988C11.5169 12.5074 11.2579 13.4219 10.9372 14.2008C10.6996 14.7778 10.4231 15.2928 10.1095 15.719C12.3489 15.1084 14.1972 13.5493 15.1958 11.5ZM8 16C8.30689 16 8.64602 15.8511 9.00409 15.4832C9.3637 15.1139 9.71058 14.5533 10.0125 13.82C10.2854 13.1573 10.5136 12.3731 10.6816 11.5H5.31842C5.48643 12.3731 5.71458 13.1573 5.98747 13.82C6.28942 14.5533 6.6363 15.1139 6.99591 15.4832C7.35398 15.8511 7.69311 16 8 16ZM5.89053 15.719C3.65107 15.1084 1.80285 13.5493 0.804233 11.5H4.3012C4.48315 12.5074 4.74205 13.4219 5.06279 14.2008C5.30036 14.7778 5.57693 15.2928 5.89053 15.719ZM0.398379 10.5H4.14996C4.0521 9.7051 4 8.86584 4 8C4 7.13416 4.0521 6.2949 4.14996 5.5H0.398379C0.139853 6.28655 0 7.12694 0 8C0 8.87306 0.139853 9.71345 0.398379 10.5ZM5 8C5 7.1253 5.0557 6.28549 5.15793 5.5H10.8421C10.9443 6.28549 11 7.1253 11 8C11 8.8747 10.9443 9.71451 10.8421 10.5H5.15793C5.0557 9.71451 5 8.8747 5 8Z" fill="#4A90D9"/>
</svg>
