<svg width="18" height="16" viewBox="0 0 18 16" fill="none" xmlns="http://www.w3.org/2000/svg">
<path d="M5.90507 3.21829L4.11475 0.635163C4.22441 0.550006 4.60797 0.33363 4.78773 0.259848C5.05866 0.14865 5.31634 0.0832536 5.5516 0.0527402C5.86662 -0.0289093 10.7256 0.0184178 11.061 0.00577648C11.9947 -0.0294074 12.3448 0.106045 12.4888 0.14482L5.90507 3.21829Z" fill="url(#paint0_linear_1131_32389)"/>
<path d="M5.90517 3.21841L4.1151 0.635376C4.03296 0.695012 4.04141 0.681976 3.88876 0.810507C3.6787 0.98736 3.43427 1.31312 3.34238 1.44093C2.61238 2.71456 0.422768 6.11016 0.204594 6.73111C0.0821318 7.07965 0.0166016 7.40573 0.0166016 7.70525L5.90517 3.21841Z" fill="url(#paint1_linear_1131_32389)"/>
<path d="M6.07293 12.5803L5.90509 3.2179C4.0518 4.63534 0.0436689 7.65586 0.0177221 7.70354C-0.0234368 8.0113 0.00900187 8.2883 0.0952615 8.58649L6.07293 12.5803Z" fill="url(#paint2_linear_1131_32389)"/>
<path d="M0.0966797 8.57532L6.0918 12.5803L4.13381 15.5299C3.68852 15.2891 3.32669 14.8056 3.11395 14.5562C2.78658 14.0733 0.527993 9.64942 0.357958 9.34252C0.253342 9.15373 0.149052 8.84874 0.0966797 8.57532Z" fill="url(#paint3_linear_1131_32389)"/>
<path d="M13.0017 15.5428L6.07286 12.5616C6.07286 12.5616 4.17986 15.4384 4.1333 15.5301C4.93117 16.0511 5.78992 15.981 5.93883 15.981C6.05934 15.981 11.3136 16.029 11.7439 15.9724C12.2366 15.9076 12.6241 15.7472 13.0017 15.5428Z" fill="url(#paint4_linear_1131_32389)"/>
<path d="M17.3376 8.05944L14.1331 7.77693L13.4839 0.641846C13.8036 0.865985 13.8955 0.97082 14.0343 1.17087C15.0023 2.5663 16.2344 5.29133 16.5789 5.86954C16.9485 6.48958 17.3712 7.42063 17.3376 8.05944Z" fill="url(#paint5_linear_1131_32389)"/>
<path d="M17.3374 8.05928L14.1336 7.76343L13.7783 14.925C14.0322 14.6167 14.5089 13.7856 14.6205 13.6164C15.0547 12.9577 16.8831 9.91967 17.0179 9.61557C17.2872 9.00842 17.3533 8.37706 17.3374 8.05928Z" fill="url(#paint6_linear_1131_32389)"/>
<path d="M14.1368 7.77332C14.1368 7.77332 6.12388 12.5506 6.06689 12.5868C8.36451 13.6076 12.9777 15.5594 12.9777 15.5594C12.9777 15.5594 13.4593 15.2542 13.7784 14.9252L14.1368 7.77332Z" fill="url(#paint7_linear_1131_32389)"/>
<path d="M6.07023 12.594L5.90527 3.21704L14.1406 7.77323L6.07023 12.594Z" fill="url(#paint8_linear_1131_32389)"/>
<path d="M14.1336 7.77393L5.90576 3.21789L12.4881 0.144897C12.7057 0.200704 13.1009 0.343307 13.4886 0.646449L14.1336 7.77393Z" fill="url(#paint9_linear_1131_32389)"/>
<path fill-rule="evenodd" clip-rule="evenodd" d="M5.52795 1.92139L5.81993 2.3633L5.94044 2.56858C6.00854 2.68475 6.15564 2.72729 6.27523 2.66541L7.49093 2.13173L7.67956 2.59577L6.93691 2.89315L6.83817 2.94424C6.70078 3.03202 6.72277 3.11938 6.81828 3.19205L13.5261 7.01987L13.6696 7.10178C13.762 7.13163 13.8417 7.13901 13.8462 6.9488L13.7731 5.84523L14.2776 5.81268L14.3786 7.32871C14.3858 7.45886 14.4892 7.56168 14.6188 7.57437L15.1852 7.63156L15.1535 8.14022L14.6184 8.08155C14.4829 8.07599 14.3656 8.17793 14.3514 8.31355L14.2307 9.79805L13.7236 9.75021L13.7931 8.7591L13.8049 8.647C13.807 8.48515 13.7246 8.45419 13.6137 8.49242L7.01919 12.3443L7.02891 12.3398C7.02503 12.3416 7.02119 12.3434 7.0174 12.3453L6.93274 12.3948C6.82576 12.4707 6.79609 12.563 6.94391 12.6543L7.89075 13.126L7.68853 13.5902L6.35937 12.952C6.24115 12.9006 6.10313 12.9461 6.03881 13.0579L5.78794 13.4888L5.34904 13.2362L5.46724 13.0359L5.58506 12.8291C5.65178 12.7121 5.61528 12.5634 5.50198 12.4906L4.46681 11.7831L4.7667 11.3814L5.36933 11.8034L5.46286 11.8635C5.60317 11.9366 5.6683 11.8798 5.68606 11.7677L5.64705 4.03315L5.64431 4.06404C5.65995 3.86981 5.60627 3.72968 5.41407 3.83347L4.53636 4.48395L4.23486 4.07711L5.44761 3.17834C5.55121 3.10156 5.58056 2.9592 5.51576 2.84771L5.08848 2.1773L5.52795 1.92139ZM6.53109 3.61119L13.4521 7.56061C13.6214 7.65721 13.6225 7.90084 13.4543 7.99914L6.57349 12.0182C6.4052 12.1165 6.1936 11.9957 6.19261 11.8008L6.15242 3.83237C6.15144 3.63747 6.36181 3.51458 6.53109 3.61119Z" fill="url(#paint10_linear_1131_32389)"/>
<path d="M17.3339 8.34658C17.3429 8.19546 17.3441 7.96498 17.3331 7.84587C17.1178 7.8381 15.1716 7.63013 15.1716 7.63013L15.1494 8.1399L17.3339 8.34658Z" fill="url(#paint11_linear_1131_32389)"/>
<path fill-rule="evenodd" clip-rule="evenodd" d="M4.53952 0.38562L5.5278 1.92127L5.09145 2.18327L4.10352 0.650288C4.19795 0.580885 4.44335 0.432906 4.53952 0.38562Z" fill="url(#paint12_linear_1131_32389)"/>
<path d="M0.203296 8.97319C0.139314 8.75534 0.0735716 8.55874 0.0273438 8.29639L4.76668 11.3814L4.47192 11.786L0.203296 8.97319Z" fill="url(#paint13_linear_1131_32389)"/>
<path d="M0.0742213 7.23465C0.0376145 7.4191 0.00258215 7.63921 0.000976562 7.93712L4.63445 4.4161L4.32711 4.0116L0.0742213 7.23465Z" fill="url(#paint14_linear_1131_32389)"/>
<path d="M12.2675 0.0932617L7.46777 2.14167L7.66647 2.60174L12.9636 0.322289C12.7711 0.233873 12.4883 0.122717 12.2675 0.0932617Z" fill="url(#paint15_linear_1131_32389)"/>
<path d="M13.2979 0.508545L13.7726 5.86377L14.2766 5.81928L13.8935 0.987783C13.7748 0.845262 13.4473 0.592177 13.2979 0.508545Z" fill="url(#paint16_linear_1131_32389)"/>
<path d="M12.9773 15.5595C12.7622 15.6822 12.605 15.7438 12.3929 15.8179L7.6875 13.5898L7.88956 13.1255L12.9773 15.5595Z" fill="url(#paint17_linear_1131_32389)"/>
<path d="M3.97949 15.4376C4.07813 15.5018 4.25852 15.606 4.42371 15.673L5.78819 13.4862L5.34784 13.2352L3.97949 15.4376Z" fill="url(#paint18_linear_1131_32389)"/>
<path d="M13.3501 15.3002C13.5404 15.15 13.7484 14.9858 13.8592 14.8227L14.2317 9.78044L13.724 9.7384L13.3501 15.3002Z" fill="url(#paint19_linear_1131_32389)"/>
<defs>
<linearGradient id="paint0_linear_1131_32389" x1="8.49563" y1="-0.829673" x2="8.81348" y2="3.45355" gradientUnits="userSpaceOnUse">
<stop stop-color="#50E5FF"/>
<stop offset="0.71875" stop-color="#2CA4F0"/>
</linearGradient>
<linearGradient id="paint1_linear_1131_32389" x1="4.81229" y1="1.33911" x2="2.19538" y2="5.13421" gradientUnits="userSpaceOnUse">
<stop stop-color="#49DCF8"/>
<stop offset="1" stop-color="#0799F2"/>
</linearGradient>
<linearGradient id="paint2_linear_1131_32389" x1="3.90216" y1="3.95699" x2="5.06311" y2="11.0484" gradientUnits="userSpaceOnUse">
<stop stop-color="#1FB8FF"/>
<stop offset="1" stop-color="#0D51B4"/>
</linearGradient>
<linearGradient id="paint3_linear_1131_32389" x1="-0.325936" y1="7.63589" x2="5.54643" y2="15.624" gradientUnits="userSpaceOnUse">
<stop stop-color="#3979D6"/>
<stop offset="0.807255" stop-color="#003480"/>
</linearGradient>
<linearGradient id="paint4_linear_1131_32389" x1="11.8122" y1="12.7967" x2="4.64159" y2="16.2052" gradientUnits="userSpaceOnUse">
<stop offset="0.0627089" stop-color="#3979D6"/>
<stop offset="0.723958" stop-color="#003480"/>
</linearGradient>
<linearGradient id="paint5_linear_1131_32389" x1="17.6525" y1="2.832" x2="14.4993" y2="6.92028" gradientUnits="userSpaceOnUse">
<stop offset="0.0801082" stop-color="#50E4FE"/>
<stop offset="1" stop-color="#0986E3"/>
</linearGradient>
<linearGradient id="paint6_linear_1131_32389" x1="16.6171" y1="6.72588" x2="15.5152" y2="10.9659" gradientUnits="userSpaceOnUse">
<stop stop-color="#50E6FA"/>
<stop offset="1" stop-color="#1C9EE1"/>
</linearGradient>
<linearGradient id="paint7_linear_1131_32389" x1="15.4915" y1="9.0518" x2="6.57744" y2="13.7316" gradientUnits="userSpaceOnUse">
<stop stop-color="#24BCFF"/>
<stop offset="0.798256" stop-color="#0F4FAD"/>
</linearGradient>
<linearGradient id="paint8_linear_1131_32389" x1="10.7622" y1="5.11744" x2="5.8434" y2="13.1201" gradientUnits="userSpaceOnUse">
<stop stop-color="#51E6FF"/>
<stop offset="1" stop-color="#0052C2"/>
</linearGradient>
<linearGradient id="paint9_linear_1131_32389" x1="12.9548" y1="0.17539" x2="10.3797" y2="8.15351" gradientUnits="userSpaceOnUse">
<stop stop-color="#50E4FE"/>
<stop offset="1" stop-color="#3093FA"/>
</linearGradient>
<linearGradient id="paint10_linear_1131_32389" x1="9.95633" y1="5.11523" x2="5.88854" y2="12.8241" gradientUnits="userSpaceOnUse">
<stop stop-color="white"/>
<stop offset="0.40625" stop-color="#BDEBFF"/>
<stop offset="1" stop-color="#5CCEFF"/>
</linearGradient>
<linearGradient id="paint11_linear_1131_32389" x1="15.1912" y1="7.85066" x2="17.3014" y2="8.03113" gradientUnits="userSpaceOnUse">
<stop stop-color="white"/>
<stop offset="1" stop-color="#47D3FC"/>
</linearGradient>
<linearGradient id="paint12_linear_1131_32389" x1="5.33693" y1="1.98529" x2="4.40157" y2="0.562951" gradientUnits="userSpaceOnUse">
<stop stop-color="white"/>
<stop offset="1" stop-color="#46D2FB"/>
</linearGradient>
<linearGradient id="paint13_linear_1131_32389" x1="4.69944" y1="11.6201" x2="-0.117739" y2="9.93873" gradientUnits="userSpaceOnUse">
<stop stop-color="#69D2FF"/>
<stop offset="1" stop-color="#1680D6"/>
</linearGradient>
<linearGradient id="paint14_linear_1131_32389" x1="4.43377" y1="4.22827" x2="0.856441" y2="7.46405" gradientUnits="userSpaceOnUse">
<stop stop-color="#E1F6FF"/>
<stop offset="1" stop-color="#0899F2"/>
</linearGradient>
<linearGradient id="paint15_linear_1131_32389" x1="7.60298" y1="2.41322" x2="12.3967" y2="-0.00414221" gradientUnits="userSpaceOnUse">
<stop stop-color="white"/>
<stop offset="1" stop-color="#4FD1F7"/>
</linearGradient>
<linearGradient id="paint16_linear_1131_32389" x1="14.0858" y1="5.81249" x2="13.8223" y2="0.820291" gradientUnits="userSpaceOnUse">
<stop stop-color="white"/>
<stop offset="1" stop-color="#4FD4F8"/>
</linearGradient>
<linearGradient id="paint17_linear_1131_32389" x1="7.80177" y1="13.323" x2="12.7683" y2="15.3906" gradientUnits="userSpaceOnUse">
<stop offset="0.00427501" stop-color="#66D1FF"/>
<stop offset="1" stop-color="#1672C7"/>
</linearGradient>
<linearGradient id="paint18_linear_1131_32389" x1="5.61824" y1="13.4793" x2="4.13041" y2="15.5267" gradientUnits="userSpaceOnUse">
<stop stop-color="#67CEFF"/>
<stop offset="1" stop-color="#013480"/>
</linearGradient>
<linearGradient id="paint19_linear_1131_32389" x1="14.0047" y1="9.89647" x2="14.0768" y2="14.8074" gradientUnits="userSpaceOnUse">
<stop stop-color="#D8F4FF"/>
<stop offset="1" stop-color="#1D9EE1"/>
</linearGradient>
</defs>
</svg>
