<svg width="16" height="16" viewBox="0 0 16 16" fill="none" xmlns="http://www.w3.org/2000/svg">
<path d="M11.9997 16H3C2.73478 16 2.48043 15.8946 2.29289 15.7071C2.10536 15.5196 2 15.2652 2 15V1C2 0.734783 2.10536 0.48043 2.29289 0.292893C2.48043 0.105357 2.73478 0 3 0L11.9997 0C12.2649 0 12.5193 0.105357 12.7068 0.292893C12.8943 0.48043 12.9997 0.734783 12.9997 1V15C12.9997 15.2652 12.8943 15.5196 12.7068 15.7071C12.5193 15.8946 12.2649 16 11.9997 16Z" fill="#1D1D1D"/>
<path d="M3 1H11.9997V14H3V1Z" fill="#5AB3D9"/>
<path d="M11.9997 14H3V11.9997L11.9997 4.54529V14Z" fill="#3898C6"/>
<path opacity="0.4" d="M10.9997 2V13H4V2H10.9997ZM11.9997 1H3V14H11.9997V1Z" fill="white"/>
<path d="M5.99951 14H8.99951V15H5.99951V14Z" fill="#E4E4E4"/>
</svg>
