<svg width="14" height="14" viewBox="0 0 14 14" fill="none" xmlns="http://www.w3.org/2000/svg">
<g clip-path="url(#clip0_1115_28290)">
<path d="M9.42857 0C11.9533 0 14 2.0467 14 4.57143V9.42857C14 11.9533 11.9533 14 9.42857 14H4.57143C2.0467 14 0 11.9533 0 9.42857V4.57143C0 2.0467 2.0467 0 4.57143 0H9.42857ZM6.92969 4.98438C6.44663 4.98459 6.05469 5.37626 6.05469 5.85937V11.154C6.05469 11.637 6.44663 12.0288 6.92969 12.029C7.41295 12.029 7.80469 11.6373 7.80469 11.154V5.85937C7.80469 5.37613 7.41295 4.98438 6.92969 4.98438ZM7 2.00782C6.45375 2.00782 6.01117 2.4504 6.01117 2.99665C6.01122 3.54285 6.45378 3.98549 7 3.98549C7.54619 3.98546 7.98878 3.54283 7.98883 2.99665C7.98883 2.45041 7.54623 2.00784 7 2.00782Z" fill="#4A90D9"/>
</g>
<defs>
<clipPath id="clip0_1115_28290">
<rect width="14" height="14" fill="white"/>
</clipPath>
</defs>
</svg>
