<svg width="16" height="16" viewBox="0 0 16 16" fill="none" xmlns="http://www.w3.org/2000/svg">
<g clip-path="url(#clip0_717_7126)">
<path d="M6.6075 0.54248L6.52761 0.590804C6.40053 0.667675 6.28081 0.753624 6.1691 0.847536L6.39953 0.685449H8.35534L8.71089 3.37772L6.93312 5.1555L5.15534 6.3912V7.81609C5.15534 8.81129 5.67548 9.73413 6.52686 10.2495L8.3984 11.3823L4.44423 13.6889H3.6816L2.26018 12.8285C1.4088 12.3132 0.888672 11.3903 0.888672 10.3951V5.60371C0.888672 4.60819 1.40913 3.6851 2.26095 3.16987L6.52761 0.589055C6.55406 0.573062 6.58069 0.557538 6.6075 0.54248Z" fill="url(#paint0_radial_717_7126)"/>
<path d="M6.6075 0.54248L6.52761 0.590804C6.40053 0.667675 6.28081 0.753624 6.1691 0.847536L6.39953 0.685449H8.35534L8.71089 3.37772L6.93312 5.1555L5.15534 6.3912V7.81609C5.15534 8.81129 5.67548 9.73413 6.52686 10.2495L8.3984 11.3823L4.44423 13.6889H3.6816L2.26018 12.8285C1.4088 12.3132 0.888672 11.3903 0.888672 10.3951V5.60371C0.888672 4.60819 1.40913 3.6851 2.26095 3.16987L6.52761 0.589055C6.55406 0.573062 6.58069 0.557538 6.6075 0.54248Z" fill="url(#paint1_linear_717_7126)"/>
<path d="M10.8445 6.22217V7.81516C10.8445 8.81036 10.3244 9.73321 9.47301 10.2486L5.20634 12.8312C4.33353 13.3595 3.24755 13.3785 2.35938 12.8884L6.52713 15.4111C7.43258 15.9592 8.56752 15.9592 9.47301 15.4111L13.7397 12.8285C14.5911 12.3132 15.1112 11.3903 15.1112 10.3951V9.24439L14.7556 8.71106L10.8445 6.22217Z" fill="url(#paint2_radial_717_7126)"/>
<path d="M10.8445 6.22217V7.81516C10.8445 8.81036 10.3244 9.73321 9.47301 10.2486L5.20634 12.8312C4.33353 13.3595 3.24755 13.3785 2.35938 12.8884L6.52713 15.4111C7.43258 15.9592 8.56752 15.9592 9.47301 15.4111L13.7397 12.8285C14.5911 12.3132 15.1112 11.3903 15.1112 10.3951V9.24439L14.7556 8.71106L10.8445 6.22217Z" fill="url(#paint3_linear_717_7126)"/>
<path d="M13.7386 3.16988L9.47189 0.589072C8.59485 0.0585582 7.50269 0.0421244 6.6123 0.539767L6.52754 0.591038C5.67574 1.10628 5.15527 2.02935 5.15527 3.02488V6.39694L6.52754 5.56686C7.43264 5.01941 8.56679 5.01941 9.47189 5.56686L13.7386 8.14766C14.5637 8.64682 15.078 9.52867 15.1093 10.4884C15.1103 10.4573 15.1108 10.4263 15.1108 10.3952V5.60373C15.1108 4.60821 14.5904 3.68511 13.7386 3.16988Z" fill="url(#paint4_radial_717_7126)"/>
<path d="M13.7386 3.16988L9.47189 0.589072C8.59485 0.0585582 7.50269 0.0421244 6.6123 0.539767L6.52754 0.591038C5.67574 1.10628 5.15527 2.02935 5.15527 3.02488V6.39694L6.52754 5.56686C7.43264 5.01941 8.56679 5.01941 9.47189 5.56686L13.7386 8.14766C14.5637 8.64682 15.078 9.52867 15.1093 10.4884C15.1103 10.4573 15.1108 10.4263 15.1108 10.3952V5.60373C15.1108 4.60821 14.5904 3.68511 13.7386 3.16988Z" fill="url(#paint5_linear_717_7126)"/>
</g>
<defs>
<radialGradient id="paint0_radial_717_7126" cx="0" cy="0" r="1" gradientUnits="userSpaceOnUse" gradientTransform="translate(5.65973 3.24912) rotate(110.528) scale(11.8634 20.6921)">
<stop offset="0.06441" stop-color="#AE7FE2"/>
<stop offset="1" stop-color="#0078D4"/>
</radialGradient>
<linearGradient id="paint1_linear_717_7126" x1="5.6929" y1="12.931" x2="4.00025" y2="10.0034" gradientUnits="userSpaceOnUse">
<stop stop-color="#114A8B"/>
<stop offset="1" stop-color="#0078D4" stop-opacity="0"/>
</linearGradient>
<radialGradient id="paint2_radial_717_7126" cx="0" cy="0" r="1" gradientUnits="userSpaceOnUse" gradientTransform="translate(3.17516 12.3914) rotate(-8.36717) scale(11.0401 7.29273)">
<stop offset="0.133928" stop-color="#D59DFF"/>
<stop offset="1" stop-color="#5E438F"/>
</radialGradient>
<linearGradient id="paint3_linear_717_7126" x1="13.8158" y1="8.48947" x2="12.0019" y2="11.0903" gradientUnits="userSpaceOnUse">
<stop stop-color="#493474"/>
<stop offset="1" stop-color="#8C66BA" stop-opacity="0"/>
</linearGradient>
<radialGradient id="paint4_radial_717_7126" cx="0" cy="0" r="1" gradientUnits="userSpaceOnUse" gradientTransform="translate(14.0638 8.89031) rotate(-165.772) scale(8.86144 14.9174)">
<stop offset="0.0584996" stop-color="#50E6FF"/>
<stop offset="1" stop-color="#436DCD"/>
</radialGradient>
<linearGradient id="paint5_linear_717_7126" x1="5.50222" y1="0.553435" x2="8.1728" y2="0.553435" gradientUnits="userSpaceOnUse">
<stop stop-color="#2D3F80"/>
<stop offset="1" stop-color="#436DCD" stop-opacity="0"/>
</linearGradient>
<clipPath id="clip0_717_7126">
<rect width="16" height="16" fill="white"/>
</clipPath>
</defs>
</svg>
