<svg width="14" height="16" viewBox="0 0 14 16" fill="none" xmlns="http://www.w3.org/2000/svg">
<path d="M9.06619 0.288187C8.31274 -0.50142 7.09332 -0.0767069 6.77329 0.845112C6.50927 1.6056 6.16622 2.51631 5.83203 3.18684C4.83248 5.19209 4.249 6.33301 2.63975 7.76061C2.42629 7.95003 2.15106 8.10266 1.84677 8.22294C0.78176 8.64392 -0.219776 9.74724 0.0421791 11.057L0.375132 12.722C0.550385 13.5978 1.20527 14.2996 2.06701 14.5345L7.34885 15.975C9.74994 16.6299 12.1966 15.0879 12.6418 12.6394L13.2869 9.09125C13.6027 7.35423 12.2683 5.75532 10.5028 5.75532H9.66948L9.67919 5.70605C9.75475 5.32105 9.84567 4.79082 9.90651 4.21298C9.96707 3.63736 9.99923 3.0015 9.95179 2.40902C9.90529 1.82764 9.77833 1.23077 9.47621 0.777538C9.37294 0.62264 9.21956 0.448937 9.06619 0.288187Z" fill="#4A90D9"/>
</svg>
