<svg width="16" height="16" viewBox="0 0 16 16" fill="none" xmlns="http://www.w3.org/2000/svg">
<g clip-path="url(#clip0_816_8701)">
<rect width="16" height="16" fill="white"/>
<path d="M10.3997 0.288187C9.64623 -0.50142 8.42682 -0.0767069 8.10678 0.845112C7.84277 1.6056 7.49972 2.51631 7.16553 3.18684C6.16598 5.19209 5.5825 6.33301 3.97324 7.76061C3.75979 7.95003 3.48455 8.10266 3.18027 8.22294C2.11526 8.64392 1.11372 9.74724 1.37568 11.057L1.70863 12.722C1.88388 13.5978 2.53877 14.2996 3.40051 14.5345L8.68234 15.975C11.0834 16.6299 13.5301 15.0879 13.9753 12.6394L14.6204 9.09125C14.9362 7.35423 13.6018 5.75532 11.8363 5.75532H11.003L11.0127 5.70605C11.0882 5.32105 11.1792 4.79082 11.24 4.21298C11.3006 3.63736 11.3327 3.0015 11.2853 2.40902C11.2388 1.82764 11.1118 1.23077 10.8097 0.777538C10.7064 0.62264 10.5531 0.448937 10.3997 0.288187Z" fill="#0078D4"/>
</g>
<defs>
<clipPath id="clip0_816_8701">
<rect width="16" height="16" fill="white"/>
</clipPath>
</defs>
</svg>
