<svg width="16" height="16" viewBox="0 0 16 16" fill="none" xmlns="http://www.w3.org/2000/svg">
<path d="M12.9219 11.1562C13.0885 11.2292 13.2135 11.3281 13.2969 11.4531C13.3802 11.5781 13.4401 11.7292 13.4766 11.9062C13.4974 12.0104 13.5208 12.1068 13.5469 12.1953C13.5729 12.2839 13.6042 12.3672 13.6406 12.4453C13.6771 12.5234 13.7188 12.599 13.7656 12.6719C13.8125 12.7448 13.875 12.8255 13.9531 12.9141C14.0208 12.987 14.0807 13.0807 14.1328 13.1953C14.1849 13.3099 14.2109 13.4193 14.2109 13.5234C14.2109 13.6432 14.1797 13.7448 14.1172 13.8281C14.0547 13.9115 13.9766 13.9844 13.8828 14.0469C13.763 14.1302 13.638 14.2031 13.5078 14.2656C13.3776 14.3281 13.2474 14.3932 13.1172 14.4609C12.9036 14.5651 12.7188 14.6745 12.5625 14.7891C12.4062 14.9036 12.25 15.0495 12.0938 15.2266C12.0104 15.3203 11.9167 15.4115 11.8125 15.5C11.7083 15.5885 11.5938 15.6719 11.4688 15.75C11.3438 15.8281 11.2161 15.8854 11.0859 15.9219C10.9557 15.9583 10.8255 15.9818 10.6953 15.9922C10.3932 15.9922 10.1432 15.9401 9.94531 15.8359C9.7474 15.7318 9.57552 15.5417 9.42969 15.2656C9.38802 15.1875 9.34635 15.138 9.30469 15.1172C9.26302 15.0964 9.19531 15.0781 9.10156 15.0625C8.83594 15.0417 8.57292 15.0208 8.3125 15C8.05208 14.9792 7.78646 14.9688 7.51562 14.9688C7.29688 14.9688 7.07292 14.987 6.84375 15.0234C6.61458 15.0599 6.38802 15.1042 6.16406 15.1562C6.11719 15.1667 6.07031 15.2057 6.02344 15.2734C5.97656 15.3411 5.91146 15.4167 5.82812 15.5C5.74479 15.5833 5.63281 15.6562 5.49219 15.7188C5.35156 15.7812 5.16667 15.8151 4.9375 15.8203C4.76562 15.8203 4.58073 15.8021 4.38281 15.7656C4.1849 15.7292 4.00781 15.6693 3.85156 15.5859C3.52865 15.4245 3.21094 15.3151 2.89844 15.2578C2.58594 15.2005 2.25521 15.1484 1.90625 15.1016C1.78646 15.0859 1.67188 15.0651 1.5625 15.0391C1.45312 15.013 1.35677 14.9688 1.27344 14.9062C1.1901 14.8438 1.125 14.7708 1.07812 14.6875C1.03125 14.6042 1.00521 14.487 1 14.3359C1 14.1745 1.02083 14.0182 1.0625 13.8672C1.10417 13.7161 1.1276 13.5573 1.13281 13.3906C1.13281 13.276 1.125 13.1641 1.10938 13.0547C1.09375 12.9453 1.08333 12.8281 1.07812 12.7031C1.07812 12.4375 1.14062 12.2422 1.26562 12.1172C1.39062 11.9922 1.57292 11.8932 1.8125 11.8203C1.92708 11.7839 2.02604 11.7344 2.10938 11.6719C2.19271 11.6094 2.27083 11.5417 2.34375 11.4688C2.41667 11.3958 2.48438 11.3151 2.54688 11.2266C2.60938 11.138 2.67969 11.0495 2.75781 10.9609C2.77344 10.9401 2.78125 10.9167 2.78125 10.8906C2.78125 10.8281 2.77865 10.7682 2.77344 10.7109C2.76823 10.6536 2.76302 10.5911 2.75781 10.5234C2.75781 10.1693 2.8125 9.8125 2.92188 9.45312C3.03125 9.09375 3.17448 8.74219 3.35156 8.39844C3.52865 8.05469 3.72656 7.72396 3.94531 7.40625C4.16406 7.08854 4.38021 6.79427 4.59375 6.52344C4.89583 6.13802 5.1224 5.73698 5.27344 5.32031C5.42448 4.90365 5.5026 4.45052 5.50781 3.96094C5.50781 3.7526 5.4974 3.54688 5.47656 3.34375C5.45573 3.14062 5.44531 2.93229 5.44531 2.71875C5.44531 2.30208 5.49219 1.92708 5.58594 1.59375C5.67969 1.26042 5.82552 0.973958 6.02344 0.734375C6.22135 0.494792 6.47917 0.315104 6.79688 0.195312C7.11458 0.0755208 7.49479 0.0104167 7.9375 0C8.46354 0 8.88281 0.104167 9.19531 0.3125C9.50781 0.520833 9.7474 0.794271 9.91406 1.13281C10.0807 1.47135 10.1875 1.84896 10.2344 2.26562C10.2812 2.68229 10.3073 3.10417 10.3125 3.53125V3.66406C10.3125 3.8776 10.3151 4.06771 10.3203 4.23438C10.3255 4.40104 10.3464 4.5651 10.3828 4.72656C10.4193 4.88802 10.474 5.04948 10.5469 5.21094C10.6198 5.3724 10.7292 5.54688 10.875 5.73438C11.125 6.0625 11.3802 6.39323 11.6406 6.72656C11.901 7.0599 12.138 7.40365 12.3516 7.75781C12.5651 8.11198 12.7396 8.48177 12.875 8.86719C13.0104 9.2526 13.0807 9.66927 13.0859 10.1172C13.0859 10.4766 13.0312 10.8229 12.9219 11.1562ZM6.36719 3.01562C6.4401 3.01562 6.5 3.03385 6.54688 3.07031C6.59375 3.10677 6.63021 3.15625 6.65625 3.21875C6.68229 3.28125 6.70052 3.34375 6.71094 3.40625C6.72135 3.46875 6.72656 3.53385 6.72656 3.60156C6.72656 3.65365 6.71875 3.69531 6.70312 3.72656C6.6875 3.75781 6.66406 3.78646 6.63281 3.8125C6.60156 3.83854 6.57031 3.86458 6.53906 3.89062C6.50781 3.91667 6.47656 3.94792 6.44531 3.98438C6.40885 4.04167 6.35938 4.08854 6.29688 4.125C6.23438 4.16146 6.17448 4.20052 6.11719 4.24219C6.0599 4.28385 6.00781 4.32812 5.96094 4.375C5.91406 4.42188 5.89062 4.48698 5.89062 4.57031C5.89062 4.61719 5.91406 4.65625 5.96094 4.6875C6.08594 4.77083 6.17448 4.8724 6.22656 4.99219C6.27865 5.11198 6.33594 5.22917 6.39844 5.34375C6.46094 5.45833 6.54167 5.55469 6.64062 5.63281C6.73958 5.71094 6.89323 5.75 7.10156 5.75H7.14844C7.35677 5.73958 7.55469 5.6849 7.74219 5.58594C7.92969 5.48698 8.11719 5.38281 8.30469 5.27344C8.33073 5.25781 8.36458 5.24219 8.40625 5.22656C8.44792 5.21094 8.48177 5.19271 8.50781 5.17188L9.07812 4.72656C9.08854 4.6901 9.09635 4.65625 9.10156 4.625C9.10677 4.59375 9.11198 4.55729 9.11719 4.51562C9.11719 4.45833 9.10417 4.41146 9.07812 4.375C9.05208 4.33854 9.02083 4.30729 8.98438 4.28125C8.94792 4.25521 8.90365 4.23698 8.85156 4.22656C8.79948 4.21615 8.7526 4.20312 8.71094 4.1875C8.58594 4.16146 8.46875 4.11458 8.35938 4.04688C8.25 3.97917 8.13542 3.92708 8.01562 3.89062C7.99479 3.88542 7.97917 3.86979 7.96875 3.84375C7.95833 3.81771 7.94792 3.78646 7.9375 3.75C7.92708 3.71354 7.92448 3.67969 7.92969 3.64844C7.9349 3.61719 7.93229 3.59115 7.92188 3.57031C7.92188 3.50781 7.92708 3.44271 7.9375 3.375C7.94792 3.30729 7.97135 3.24219 8.00781 3.17969C8.04427 3.11719 8.08594 3.07031 8.13281 3.03906C8.17969 3.00781 8.2474 2.98958 8.33594 2.98438C8.4974 2.98438 8.61458 3.04427 8.6875 3.16406C8.76042 3.28385 8.79948 3.41406 8.80469 3.55469C8.80469 3.6224 8.79167 3.68229 8.76562 3.73438C8.73958 3.78646 8.72656 3.84375 8.72656 3.90625C8.72656 3.94792 8.73958 3.97656 8.76562 3.99219C8.79167 4.00781 8.82552 4.01823 8.86719 4.02344C8.98698 4.02344 9.0651 3.99479 9.10156 3.9375C9.13802 3.88021 9.15885 3.79427 9.16406 3.67969C9.16406 3.5599 9.15365 3.42708 9.13281 3.28125C9.11198 3.13542 9.07031 3 9.00781 2.875C8.94531 2.75 8.86458 2.64583 8.76562 2.5625C8.66667 2.47917 8.53906 2.4375 8.38281 2.4375C8.11198 2.4375 7.91667 2.50521 7.79688 2.64062C7.67708 2.77604 7.61458 2.97917 7.60938 3.25C7.60938 3.32812 7.61458 3.40625 7.625 3.48438C7.63542 3.5625 7.64062 3.64062 7.64062 3.71875C7.64062 3.74479 7.63802 3.75781 7.63281 3.75781C7.6276 3.75781 7.61198 3.7526 7.58594 3.74219C7.5599 3.73177 7.52865 3.71875 7.49219 3.70312C7.45573 3.6875 7.41667 3.67448 7.375 3.66406C7.33333 3.65365 7.29167 3.64844 7.25 3.64844C7.23958 3.64844 7.21354 3.65104 7.17188 3.65625C7.13021 3.66146 7.08854 3.66406 7.04688 3.66406C6.97396 3.66406 6.9375 3.65104 6.9375 3.625C6.9375 3.54688 6.93229 3.44792 6.92188 3.32812C6.91146 3.20833 6.88542 3.08854 6.84375 2.96875C6.80208 2.84896 6.75 2.75 6.6875 2.67188C6.625 2.59375 6.53125 2.55208 6.40625 2.54688C6.31771 2.54688 6.24219 2.57552 6.17969 2.63281C6.11719 2.6901 6.0625 2.75781 6.01562 2.83594C5.96875 2.91406 5.9401 3.0026 5.92969 3.10156C5.91927 3.20052 5.90885 3.28385 5.89844 3.35156C5.89844 3.38281 5.90365 3.4375 5.91406 3.51562C5.92448 3.59375 5.94271 3.67448 5.96875 3.75781C5.99479 3.84115 6.02344 3.91406 6.05469 3.97656C6.08594 4.03906 6.1224 4.07031 6.16406 4.07031C6.1901 4.07031 6.22396 4.05208 6.26562 4.01562C6.30729 3.97917 6.32812 3.94531 6.32812 3.91406C6.32812 3.89844 6.32031 3.88802 6.30469 3.88281C6.28906 3.8776 6.27344 3.875 6.25781 3.875C6.22135 3.875 6.1901 3.85677 6.16406 3.82031C6.13802 3.78385 6.11719 3.74219 6.10156 3.69531C6.08594 3.64844 6.07031 3.59896 6.05469 3.54688C6.03906 3.49479 6.03385 3.45573 6.03906 3.42969C6.03906 3.32552 6.0625 3.23177 6.10938 3.14844C6.15625 3.0651 6.24219 3.02083 6.36719 3.01562ZM4.66406 15.1797C4.78906 15.1797 4.91146 15.1693 5.03125 15.1484C5.15104 15.1276 5.26302 15.0859 5.36719 15.0234C5.47135 14.9609 5.54948 14.8802 5.60156 14.7812C5.65365 14.6823 5.6849 14.5573 5.69531 14.4062C5.69531 14.3125 5.67969 14.2214 5.64844 14.1328C5.61719 14.0443 5.57292 13.9609 5.51562 13.8828C5.45312 13.7839 5.38542 13.6901 5.3125 13.6016C5.23958 13.513 5.17188 13.4193 5.10938 13.3203C5.01042 13.1745 4.91406 13.0312 4.82031 12.8906C4.72656 12.75 4.63281 12.6016 4.53906 12.4453C4.45573 12.3099 4.3776 12.1745 4.30469 12.0391C4.23177 11.9036 4.14323 11.7708 4.03906 11.6406C3.97656 11.5625 3.90365 11.4922 3.82031 11.4297C3.73698 11.3672 3.64062 11.3359 3.53125 11.3359C3.41667 11.3359 3.31771 11.3724 3.23438 11.4453C3.15104 11.5182 3.0651 11.6068 2.97656 11.7109C2.88802 11.8151 2.78906 11.9167 2.67969 12.0156C2.57031 12.1146 2.42969 12.1927 2.25781 12.25C2.1224 12.2917 2.01823 12.349 1.94531 12.4219C1.8724 12.4948 1.83594 12.6068 1.83594 12.7578C1.83594 12.862 1.84375 12.9661 1.85938 13.0703C1.875 13.1745 1.88542 13.2786 1.89062 13.3828C1.89062 13.5234 1.86979 13.6562 1.82812 13.7812C1.78646 13.9062 1.76562 14.0286 1.76562 14.1484C1.76562 14.2891 1.8151 14.388 1.91406 14.4453C2.01302 14.5026 2.125 14.5417 2.25 14.5625C2.40625 14.5885 2.55469 14.6094 2.69531 14.625C2.83594 14.6406 2.97396 14.6641 3.10938 14.6953C3.24479 14.7266 3.38021 14.7604 3.51562 14.7969C3.65104 14.8333 3.79427 14.8906 3.94531 14.9688C3.97656 14.9844 4.02344 15.0026 4.08594 15.0234C4.14844 15.0443 4.21875 15.0677 4.29688 15.0938C4.375 15.1198 4.44792 15.1406 4.51562 15.1562C4.58333 15.1719 4.63281 15.1797 4.66406 15.1797ZM7.52344 14.2422C7.66927 14.2422 7.82552 14.2266 7.99219 14.1953C8.15885 14.1641 8.32552 14.1198 8.49219 14.0625C8.65885 14.0052 8.81771 13.9375 8.96875 13.8594C9.11979 13.7812 9.25521 13.6953 9.375 13.6016C9.38542 13.5911 9.39583 13.5755 9.40625 13.5547C9.41667 13.5339 9.42448 13.513 9.42969 13.4922V13.4844C9.46094 13.3698 9.48698 13.2448 9.50781 13.1094C9.52865 12.974 9.54688 12.8359 9.5625 12.6953C9.57812 12.5547 9.59635 12.4167 9.61719 12.2812C9.63802 12.1458 9.65625 12.013 9.67188 11.8828C9.69271 11.7422 9.71875 11.6068 9.75 11.4766C9.78125 11.3464 9.82292 11.224 9.875 11.1094C9.92708 10.9948 9.9974 10.8932 10.0859 10.8047C10.1745 10.7161 10.2891 10.6328 10.4297 10.5547V10.5391L10.4219 10.5156C10.4219 10.4688 10.4375 10.4193 10.4688 10.3672C10.5 10.3151 10.5391 10.2604 10.5859 10.2031C10.6328 10.1458 10.6823 10.1016 10.7344 10.0703C10.7865 10.0391 10.8411 10.013 10.8984 9.99219C10.8672 9.86719 10.8333 9.74219 10.7969 9.61719C10.7604 9.49219 10.7292 9.36719 10.7031 9.24219C10.6719 9.05469 10.6406 8.89583 10.6094 8.76562C10.5781 8.63542 10.5417 8.51562 10.5 8.40625C10.4583 8.29688 10.3984 8.1901 10.3203 8.08594C10.2422 7.98177 10.1458 7.85677 10.0312 7.71094C9.97396 7.64323 9.9349 7.59115 9.91406 7.55469C9.89323 7.51823 9.8776 7.45312 9.86719 7.35938C9.86198 7.32292 9.84635 7.25521 9.82031 7.15625C9.79427 7.05729 9.76042 6.94271 9.71875 6.8125C9.67708 6.68229 9.63021 6.54688 9.57812 6.40625C9.52604 6.26562 9.46875 6.13802 9.40625 6.02344C9.34375 5.90885 9.28646 5.8125 9.23438 5.73438C9.18229 5.65625 9.1276 5.61719 9.07031 5.61719C8.94531 5.61719 8.79688 5.66667 8.625 5.76562C8.45312 5.86458 8.27083 5.97396 8.07812 6.09375C7.88542 6.21354 7.69792 6.32552 7.51562 6.42969C7.33333 6.53385 7.16927 6.58333 7.02344 6.57812C6.86719 6.57812 6.72396 6.52865 6.59375 6.42969C6.46354 6.33073 6.34375 6.21615 6.23438 6.08594C6.125 5.95573 6.03385 5.84375 5.96094 5.75C5.88802 5.65625 5.83333 5.60417 5.79688 5.59375C5.75521 5.59375 5.73177 5.625 5.72656 5.6875C5.72135 5.75 5.71875 5.82031 5.71875 5.89844V6.03125C5.71875 6.0625 5.71354 6.08333 5.70312 6.09375C5.64583 6.21354 5.58333 6.33073 5.51562 6.44531C5.44792 6.5599 5.38021 6.67708 5.3125 6.79688C5.24479 6.91667 5.19271 7.03906 5.15625 7.16406C5.11979 7.28906 5.09896 7.41927 5.09375 7.55469C5.09375 7.63281 5.09896 7.71094 5.10938 7.78906C5.11979 7.86719 5.14583 7.94271 5.1875 8.01562L5.17188 8.04688C5.13021 8.10417 5.08594 8.15625 5.03906 8.20312C4.99219 8.25 4.94792 8.30469 4.90625 8.36719C4.71354 8.65365 4.57812 8.96354 4.5 9.29688C4.42188 9.63021 4.38021 9.96875 4.375 10.3125C4.375 10.401 4.38021 10.4896 4.39062 10.5781C4.40104 10.6667 4.40625 10.7552 4.40625 10.8438C4.40625 10.8698 4.40365 10.8984 4.39844 10.9297C4.39323 10.9609 4.39062 10.9896 4.39062 11.0156C4.47917 11.0208 4.58333 11.0573 4.70312 11.125C4.82292 11.1927 4.95312 11.2786 5.09375 11.3828C5.23438 11.487 5.36719 11.6068 5.49219 11.7422C5.61719 11.8776 5.73698 12.0104 5.85156 12.1406C5.96615 12.2708 6.04948 12.401 6.10156 12.5312C6.15365 12.6615 6.1875 12.7682 6.20312 12.8516C6.20312 12.987 6.16146 13.0964 6.07812 13.1797C5.99479 13.263 5.89062 13.3307 5.76562 13.3828C5.85417 13.5391 5.96354 13.6719 6.09375 13.7812C6.22396 13.8906 6.36458 13.9792 6.51562 14.0469C6.66667 14.1146 6.83073 14.1641 7.00781 14.1953C7.1849 14.2266 7.35677 14.2422 7.52344 14.2422ZM10.6562 15.3516C10.7656 15.3516 10.8724 15.3359 10.9766 15.3047C11.138 15.2578 11.2865 15.1901 11.4219 15.1016C11.5573 15.013 11.6823 14.9036 11.7969 14.7734C11.9375 14.612 12.0859 14.4714 12.2422 14.3516C12.3984 14.2318 12.5755 14.1224 12.7734 14.0234C12.862 13.9818 12.9479 13.9427 13.0312 13.9062C13.1146 13.8698 13.2005 13.8255 13.2891 13.7734C13.3464 13.737 13.401 13.6927 13.4531 13.6406C13.5052 13.5885 13.5312 13.526 13.5312 13.4531C13.5312 13.4115 13.5234 13.3724 13.5078 13.3359C13.4922 13.2995 13.4688 13.2604 13.4375 13.2188C13.3594 13.1094 13.2917 13.0078 13.2344 12.9141C13.1771 12.8203 13.1276 12.7214 13.0859 12.6172C13.0443 12.513 13.0026 12.4089 12.9609 12.3047C12.9193 12.2005 12.8828 12.0833 12.8516 11.9531C12.8464 11.9271 12.8281 11.8932 12.7969 11.8516C12.6875 11.6953 12.5339 11.6172 12.3359 11.6172C12.2422 11.6172 12.1536 11.6406 12.0703 11.6875C11.987 11.7344 11.8984 11.7839 11.8047 11.8359C11.7109 11.888 11.6172 11.9375 11.5234 11.9844C11.4297 12.0312 11.3307 12.0547 11.2266 12.0547C11.1224 12.0547 11.0365 12.0286 10.9688 11.9766C10.901 11.9245 10.8438 11.8542 10.7969 11.7656C10.75 11.6771 10.7109 11.5911 10.6797 11.5078C10.6484 11.4245 10.6172 11.3385 10.5859 11.25C10.5443 11.3177 10.4974 11.3802 10.4453 11.4375C10.3932 11.4948 10.3516 11.5625 10.3203 11.6406C10.2526 11.7969 10.2109 11.9714 10.1953 12.1641C10.1693 12.4661 10.1354 12.7604 10.0938 13.0469C10.0521 13.3333 9.98177 13.6198 9.88281 13.9062C9.85677 13.9896 9.83594 14.0807 9.82031 14.1797C9.80469 14.2786 9.79427 14.375 9.78906 14.4688C9.78906 14.724 9.86719 14.9349 10.0234 15.1016C10.1797 15.2682 10.3906 15.3516 10.6562 15.3516Z" fill="#4A90D9"/>
</svg>
