<svg width="16" height="16" viewBox="0 0 16 16" fill="none" xmlns="http://www.w3.org/2000/svg">
<g clip-path="url(#clip0_588_1514)">
<path opacity="0.9" d="M15.4658 0.606201H0.534222C0.239179 0.606201 0 0.845381 0 1.14042V10.7386C0 11.0337 0.239179 11.2729 0.534222 11.2729H15.4658C15.7608 11.2729 16 11.0337 16 10.7386V1.14042C16 0.845381 15.7608 0.606201 15.4658 0.606201Z" fill="url(#paint0_linear_588_1514)"/>
<path d="M15.2836 1.32353V10.5564H0.716444V1.32353H15.2836ZM15.4667 0.606201H0.533333C0.391885 0.606201 0.256229 0.662392 0.15621 0.762411C0.0561903 0.86243 0 0.998086 0 1.13953L0 10.7395C0 10.881 0.0561903 11.0166 0.15621 11.1167C0.256229 11.2167 0.391885 11.2729 0.533333 11.2729H15.4667C15.5367 11.2729 15.6061 11.2591 15.6708 11.2323C15.7355 11.2055 15.7943 11.1662 15.8438 11.1167C15.8933 11.0671 15.9326 11.0083 15.9594 10.9436C15.9862 10.8789 16 10.8096 16 10.7395V1.14042C16 1.07039 15.9862 1.00103 15.9594 0.936326C15.9326 0.871619 15.8933 0.812824 15.8438 0.7633C15.7943 0.713775 15.7355 0.67449 15.6708 0.647688C15.6061 0.620885 15.5367 0.60709 15.4667 0.60709V0.606201Z" fill="#0078D4"/>
<path d="M11.2062 14.4995C9.624 14.2524 9.56178 13.111 9.56711 11.2728H6.42844C6.42844 13.111 6.37067 14.2524 4.78933 14.4995C4.57394 14.5327 4.37701 14.6403 4.23279 14.8037C4.08857 14.9671 4.00619 15.1759 4 15.3937H12C11.9928 15.1755 11.9095 14.9666 11.7645 14.8033C11.6196 14.64 11.4221 14.5326 11.2062 14.4995Z" fill="url(#paint1_linear_588_1514)"/>
<path d="M0 8.78223H16V10.9564C16 11.0404 15.9667 11.1209 15.9073 11.1802C15.848 11.2396 15.7675 11.2729 15.6836 11.2729H0.539556C0.396457 11.2729 0.259218 11.216 0.158032 11.1149C0.0568459 11.0137 0 10.8764 0 10.7333L0 8.78223Z" fill="url(#paint2_linear_588_1514)"/>
<path d="M7.99994 10.6915C8.36665 10.6915 8.66394 10.3942 8.66394 10.0275C8.66394 9.66081 8.36665 9.36353 7.99994 9.36353C7.63322 9.36353 7.33594 9.66081 7.33594 10.0275C7.33594 10.3942 7.63322 10.6915 7.99994 10.6915Z" fill="#C3F1FF"/>
</g>
<defs>
<linearGradient id="paint0_linear_588_1514" x1="8" y1="11.2729" x2="8" y2="0.606201" gradientUnits="userSpaceOnUse">
<stop offset="0.145" stop-color="#D2EBFF"/>
<stop offset="0.503" stop-color="#DBF1FE"/>
<stop offset="0.997" stop-color="#F0FFFD"/>
</linearGradient>
<linearGradient id="paint1_linear_588_1514" x1="8" y1="15.3937" x2="8" y2="11.2728" gradientUnits="userSpaceOnUse">
<stop offset="0.157" stop-color="#0078D4"/>
<stop offset="0.356" stop-color="#0072CA"/>
<stop offset="0.689" stop-color="#0064B0"/>
<stop offset="0.851" stop-color="#005BA1"/>
</linearGradient>
<linearGradient id="paint2_linear_588_1514" x1="8" y1="11.2729" x2="8" y2="8.78223" gradientUnits="userSpaceOnUse">
<stop stop-color="#0078D4"/>
<stop offset="0.127" stop-color="#107FD8"/>
<stop offset="0.516" stop-color="#3A91E5"/>
<stop offset="0.82" stop-color="#549CEC"/>
<stop offset="1" stop-color="#5EA0EF"/>
</linearGradient>
<clipPath id="clip0_588_1514">
<rect width="16" height="16" fill="white"/>
</clipPath>
</defs>
</svg>
