<svg width="17" height="16" viewBox="0 0 17 16" fill="none" xmlns="http://www.w3.org/2000/svg">
<g clip-path="url(#clip0_1158_11934)">
<path d="M1.9125 0C0.856256 0 0 0.848303 0 1.89474V10.7368C0 11.7832 0.856256 12.6316 1.9125 12.6316H6.375V13.6842C6.375 14.2656 5.89931 14.7368 5.3125 14.7368H4.8875C4.53542 14.7368 4.25 15.0196 4.25 15.3684C4.25 15.7172 4.53542 16 4.8875 16H12.1125C12.4646 16 12.75 15.7172 12.75 15.3684C12.75 15.0196 12.4646 14.7368 12.1125 14.7368H11.6875C11.1007 14.7368 10.625 14.2656 10.625 13.6842V12.6316H15.0875C16.1437 12.6316 17 11.7832 17 10.7368V1.89474C17 0.848303 16.1437 0 15.0875 0H1.9125ZM9.35 12.6316V13.6842C9.35 14.0632 9.44188 14.4211 9.60491 14.7368H7.39509C7.55812 14.4211 7.65 14.0632 7.65 13.6842V12.6316H9.35ZM1.275 1.89474C1.275 1.54593 1.56042 1.26316 1.9125 1.26316H15.0875C15.4396 1.26316 15.725 1.54593 15.725 1.89474V8.42105H1.275V1.89474ZM1.275 9.68421H15.725V10.7368C15.725 11.0856 15.4396 11.3684 15.0875 11.3684H1.9125C1.56042 11.3684 1.275 11.0856 1.275 10.7368V9.68421Z" fill="#4A90D9"/>
</g>
<defs>
<clipPath id="clip0_1158_11934">
<rect width="17" height="16" fill="white"/>
</clipPath>
</defs>
</svg>
