<svg width="16" height="16" viewBox="0 0 16 16" fill="none" xmlns="http://www.w3.org/2000/svg">
<g clip-path="url(#clip0_822_25496)">
<path d="M14.1236 2.55702L13.292 1.72455L14.9507 0.0640523C14.971 0.0437492 14.995 0.0276404 15.0215 0.0166491C15.048 0.00565779 15.0764 0 15.105 0C15.1337 0 15.1621 0.00565779 15.1886 0.0166491C15.215 0.0276404 15.2391 0.0437492 15.2593 0.0640523L15.7841 0.588793C15.8044 0.609036 15.8205 0.633086 15.8315 0.659565C15.8425 0.686045 15.8481 0.714433 15.8481 0.743103C15.8481 0.771773 15.8425 0.800161 15.8315 0.82664C15.8205 0.85312 15.8044 0.87717 15.7841 0.897412L14.1254 2.5588L14.1236 2.55702Z" fill="#32BEDD"/>
<path d="M1.70264 13.4626L2.53779 14.2987L0.898627 15.9369C0.858119 15.9773 0.803272 15.9999 0.746095 15.9999C0.688917 15.9999 0.63407 15.9773 0.593563 15.9369L0.0661495 15.4104C0.0454561 15.3905 0.0289479 15.3666 0.017591 15.3402C0.0062341 15.3138 0.000256533 15.2854 8.07735e-06 15.2567C-0.000240378 15.2279 0.00524527 15.1994 0.016144 15.1728C0.0270428 15.1462 0.0431358 15.1221 0.0634813 15.1018L1.70264 13.4626Z" fill="#0078D4"/>
<path d="M1.9588 10.0145C1.43337 10.5399 1.13818 11.2526 1.13818 11.9956C1.13818 12.7387 1.43337 13.4513 1.9588 13.9767C2.48423 14.5022 3.19686 14.7974 3.93993 14.7974C4.683 14.7974 5.39564 14.5022 5.92107 13.9767L7.20536 12.6916L3.24398 8.73022L1.9588 10.0145Z" fill="url(#paint0_linear_822_25496)"/>
<path d="M6.89298 7.2646L6.97036 7.34286C7.04933 7.42191 7.09369 7.52907 7.09369 7.64081C7.09369 7.75254 7.04933 7.85971 6.97036 7.93875L5.36322 9.54589L4.68994 8.87262L6.29708 7.26371C6.37613 7.18474 6.4833 7.14038 6.59503 7.14038C6.70677 7.14038 6.81393 7.18563 6.89298 7.2646ZM8.55794 8.93043L8.6362 9.00869C8.71517 9.08774 8.75953 9.19491 8.75953 9.30664C8.75953 9.41837 8.71517 9.52554 8.6362 9.60459L7.02728 11.2135L6.35401 10.5393L7.96382 8.93043C8.04287 8.85146 8.15003 8.8071 8.26177 8.8071C8.3735 8.8071 8.48067 8.85146 8.55971 8.93043H8.55794Z" fill="#C3F1FF"/>
<path d="M8.2993 12.0292L3.87122 7.6012C3.7889 7.51888 3.65544 7.51888 3.57312 7.6012L2.99202 8.1823C2.9097 8.26461 2.9097 8.39807 2.99201 8.48039L7.4201 12.9084C7.50242 12.9908 7.63588 12.9908 7.7182 12.9084L8.2993 12.3273C8.38162 12.245 8.38162 12.1116 8.2993 12.0292Z" fill="#5EA0EF"/>
<path d="M13.8906 5.98915C14.416 5.46372 14.7112 4.75109 14.7112 4.00803C14.7112 3.26496 14.416 2.55233 13.8906 2.02691C13.3652 1.50148 12.6525 1.2063 11.9095 1.2063C11.1664 1.2063 10.4538 1.50148 9.92833 2.02691L8.64404 3.31208L12.6054 7.27343L13.8906 5.98915Z" fill="url(#paint1_linear_822_25496)"/>
<path d="M8.95817 8.73749L8.88079 8.65922C8.80182 8.58018 8.75747 8.47301 8.75747 8.36128C8.75747 8.24954 8.80182 8.14238 8.88079 8.06333L10.4888 6.45442L11.163 7.12858L9.55318 8.73927C9.47393 8.81773 9.36682 8.8616 9.25531 8.86126C9.14379 8.86093 9.03695 8.81642 8.95817 8.73749ZM7.29144 7.07344L7.21317 6.99517C7.1342 6.91612 7.08984 6.80896 7.08984 6.69723C7.08984 6.58549 7.1342 6.47833 7.21317 6.39928L8.8212 4.79126L9.49537 5.46542L7.88911 7.07255C7.81006 7.15152 7.7029 7.19588 7.59116 7.19588C7.47943 7.19588 7.37226 7.15152 7.29322 7.07255L7.29144 7.07344Z" fill="#C3F1FF"/>
<path d="M7.5508 3.97442L11.9789 8.40247C12.0612 8.48478 12.1947 8.48478 12.277 8.40247L12.8581 7.82137C12.9404 7.73905 12.9404 7.60559 12.8581 7.52327L8.43 3.09522C8.34768 3.01291 8.21422 3.01291 8.1319 3.09522L7.5508 3.67632C7.46848 3.75864 7.46848 3.8921 7.5508 3.97442Z" fill="#50E6FF"/>
</g>
<defs>
<linearGradient id="paint0_linear_822_25496" x1="4.17151" y1="8.72915" x2="4.17151" y2="14.7967" gradientUnits="userSpaceOnUse">
<stop stop-color="#5EA0EF"/>
<stop offset="0.997" stop-color="#0078D4"/>
</linearGradient>
<linearGradient id="paint1_linear_822_25496" x1="11.678" y1="1.20634" x2="11.678" y2="7.27266" gradientUnits="userSpaceOnUse">
<stop stop-color="#50E6FF"/>
<stop offset="0.997" stop-color="#32BEDD"/>
</linearGradient>
<clipPath id="clip0_822_25496">
<rect width="16" height="16" fill="white"/>
</clipPath>
</defs>
</svg>
