<svg width="16" height="16" viewBox="0 0 16 16" fill="none" xmlns="http://www.w3.org/2000/svg">
<g clip-path="url(#clip0_820_25425)">
<path d="M12.5659 1.01358L14.9877 3.4355C15.6572 4.10497 15.6572 5.19039 14.9877 5.85986L13.0187 7.82856C13.8438 7.95237 14.4765 8.66421 14.4765 9.52379V13.5238C14.4765 14.4705 13.709 15.2381 12.7622 15.2381H2.47649C1.52972 15.2381 0.762207 14.4705 0.762207 13.5238V3.23809C0.762207 2.29131 1.52972 1.5238 2.47649 1.5238H6.47649C7.33661 1.5238 8.04884 2.15729 8.17196 2.98315L10.1415 1.01358C10.811 0.344107 11.8964 0.344107 12.5659 1.01358ZM1.90506 13.5238C1.90506 13.8394 2.1609 14.0952 2.47649 14.0952L7.04716 14.0947L7.04792 8.95237L1.90506 8.95183V13.5238ZM8.19002 14.0947L12.7622 14.0952C13.0778 14.0952 13.3336 13.8394 13.3336 13.5238V9.52379C13.3336 9.20821 13.0778 8.95237 12.7622 8.95237L8.19002 8.95183V14.0947ZM6.47649 2.66666H2.47649C2.1609 2.66666 1.90506 2.92249 1.90506 3.23809V7.80898H7.04792V3.23809C7.04792 2.92249 6.79207 2.66666 6.47649 2.66666ZM8.19078 6.3309V7.80951L9.66887 7.80898L8.19078 6.3309Z" fill="#0078D4"/>
</g>
<defs>
<clipPath id="clip0_820_25425">
<rect width="16" height="16" fill="white"/>
</clipPath>
</defs>
</svg>
