<svg width="16" height="16" viewBox="0 0 16 16" fill="none" xmlns="http://www.w3.org/2000/svg">
<g clip-path="url(#clip0_729_8592)">
<path d="M12.5654 1.01406L14.9872 3.43599C15.6567 4.10546 15.6567 5.19088 14.9872 5.86035L13.0182 7.82908C13.8433 7.95282 14.476 8.66467 14.476 9.52432V13.5243C14.476 14.4711 13.7085 15.2386 12.7617 15.2386H2.476C1.52923 15.2386 0.761719 14.4711 0.761719 13.5243V3.23857C0.761719 2.2918 1.52923 1.52428 2.476 1.52428H6.476C7.33612 1.52428 8.04835 2.15778 8.17147 2.98364L10.141 1.01406C10.8105 0.344597 11.8959 0.344597 12.5654 1.01406ZM1.90458 13.5243C1.90458 13.8399 2.16042 14.0958 2.476 14.0958L7.04667 14.0952L7.04743 8.95289L1.90458 8.95236V13.5243ZM8.18953 14.0952L12.7617 14.0958C13.0773 14.0958 13.3331 13.8399 13.3331 13.5243V9.52432C13.3331 9.20867 13.0773 8.95289 12.7617 8.95289L8.18953 8.95236V14.0952ZM6.476 2.66714H2.476C2.16042 2.66714 1.90458 2.92298 1.90458 3.23857V7.8095H7.04743V3.23857C7.04743 2.92298 6.79159 2.66714 6.476 2.66714ZM8.19029 6.33139V7.81004L9.66838 7.8095L8.19029 6.33139ZM10.9491 1.82218L8.5272 4.24411C8.30404 4.46726 8.30404 4.82907 8.5272 5.05223L10.9491 7.47411C11.1722 7.69728 11.5341 7.69728 11.7572 7.47411L14.1792 5.05223C14.4023 4.82907 14.4023 4.46726 14.1792 4.24411L11.7572 1.82218C11.5341 1.59903 11.1722 1.59903 10.9491 1.82218Z" fill="#0078D4"/>
</g>
<defs>
<clipPath id="clip0_729_8592">
<rect width="16" height="16" fill="white"/>
</clipPath>
</defs>
</svg>
