<svg width="68" height="16" viewBox="0 0 68 16" fill="none" xmlns="http://www.w3.org/2000/svg">
<g clip-path="url(#clip0_915_4787)">
<rect width="68" height="16" rx="2" fill="#F0F6FF"/>
<path d="M8.40918 9.58789V12H6.83203V4.99805H9.30273C11.0671 4.99805 11.9492 5.74186 11.9492 7.22949C11.9492 7.93262 11.6953 8.50228 11.1875 8.93848C10.6829 9.37142 10.0075 9.58789 9.16113 9.58789H8.40918ZM8.40918 6.20898V8.3916H9.0293C9.86914 8.3916 10.2891 8.02376 10.2891 7.28809C10.2891 6.56868 9.86914 6.20898 9.0293 6.20898H8.40918ZM18.8486 12H17.0371L15.9482 10.1982C15.8669 10.0615 15.7887 9.93945 15.7139 9.83203C15.639 9.72461 15.5625 9.63346 15.4844 9.55859C15.4095 9.48047 15.3298 9.42188 15.2451 9.38281C15.1637 9.34049 15.0742 9.31934 14.9766 9.31934H14.5518V12H12.9746V4.99805H15.4746C17.1738 4.99805 18.0234 5.63281 18.0234 6.90234C18.0234 7.14648 17.986 7.37272 17.9111 7.58105C17.8363 7.78613 17.7305 7.97168 17.5938 8.1377C17.457 8.30371 17.291 8.44694 17.0957 8.56738C16.9036 8.68783 16.6888 8.78223 16.4512 8.85059V8.87012C16.5553 8.90267 16.6562 8.95638 16.7539 9.03125C16.8516 9.10286 16.946 9.1875 17.0371 9.28516C17.1283 9.38281 17.2145 9.48861 17.2959 9.60254C17.3805 9.71322 17.457 9.82227 17.5254 9.92969L18.8486 12ZM14.5518 6.17969V8.12793H15.2354C15.5739 8.12793 15.8457 8.03027 16.0508 7.83496C16.2591 7.63639 16.3633 7.39062 16.3633 7.09766C16.3633 6.48568 15.9971 6.17969 15.2646 6.17969H14.5518ZM21.085 12H19.5078V4.99805H21.085V12ZM28.5117 4.99805L26.0996 12H24.3125L21.9297 4.99805H23.6289L25.0889 9.87109C25.167 10.1348 25.2142 10.3675 25.2305 10.5693H25.2598C25.2826 10.3512 25.333 10.112 25.4111 9.85156L26.8613 4.99805H28.5117ZM30.9287 12H29.3516V4.99805H30.9287V12ZM36.6953 12H32.5254V4.99805H34.1025V10.7207H36.6953V12ZM41.8418 12H37.6426V4.99805H41.6807V6.28223H39.2197V7.83984H41.5098V9.11914H39.2197V10.7207H41.8418V12ZM48.7119 11.5312C48.0283 11.9251 47.1787 12.1221 46.1631 12.1221C45.0368 12.1221 44.1481 11.8112 43.4971 11.1895C42.8493 10.5645 42.5254 9.70508 42.5254 8.61133C42.5254 7.51107 42.8802 6.61426 43.5898 5.9209C44.2995 5.22754 45.2435 4.88086 46.4219 4.88086C47.1641 4.88086 47.8184 4.9834 48.3848 5.18848V6.66797C47.8444 6.35547 47.1836 6.19922 46.4023 6.19922C45.748 6.19922 45.2142 6.41243 44.8008 6.83887C44.3906 7.26204 44.1855 7.82845 44.1855 8.53809C44.1855 9.25749 44.3695 9.81413 44.7373 10.208C45.1084 10.6019 45.6081 10.7988 46.2363 10.7988C46.6139 10.7988 46.9134 10.7451 47.1348 10.6377V9.27051H45.7334V8.01074H48.7119V11.5312ZM54.2734 12H50.0742V4.99805H54.1123V6.28223H51.6514V7.83984H53.9414V9.11914H51.6514V10.7207H54.2734V12ZM55.3965 12V4.99805H57.877C60.3639 4.99805 61.6074 6.13574 61.6074 8.41113C61.6074 9.50163 61.2673 10.3724 60.5869 11.0234C59.9098 11.6745 59.0065 12 57.877 12H55.3965ZM56.9736 6.28223V10.7207H57.7549C58.4385 10.7207 58.974 10.5156 59.3613 10.1055C59.752 9.69531 59.9473 9.13704 59.9473 8.43066C59.9473 7.76335 59.7536 7.23926 59.3662 6.8584C58.9821 6.47428 58.4417 6.28223 57.7451 6.28223H56.9736Z" fill="#005EA8"/>
</g>
<rect x="0.25" y="0.25" width="67.5" height="15.5" rx="1.75" stroke="#005EA8" stroke-width="0.5"/>
<defs>
<clipPath id="clip0_915_4787">
<rect width="68" height="16" rx="2" fill="white"/>
</clipPath>
</defs>
</svg>
