<svg width="16" height="16" viewBox="0 0 16 16" fill="none" xmlns="http://www.w3.org/2000/svg">
<path d="M8.85714 11.4286C8.85714 11.902 8.47339 12.2857 8 12.2857C7.52661 12.2857 7.14286 11.902 7.14286 11.4286C7.14286 10.9552 7.52661 10.5714 8 10.5714C8.47339 10.5714 8.85714 10.9552 8.85714 11.4286ZM6.85714 5.71434C6.85714 5.40752 6.96006 5.11939 7.14138 4.9154C7.31335 4.72194 7.58363 4.57148 8 4.57148C8.74726 4.57148 9.36134 5.34149 9.15992 6.14718C9.05667 6.56019 8.81117 6.79586 8.44151 7.15072C8.4086 7.18231 8.37471 7.21484 8.33985 7.24853C7.92353 7.65083 7.42857 8.18682 7.42857 9.14285C7.42857 9.45844 7.68441 9.71428 8 9.71428C8.31559 9.71428 8.57143 9.45844 8.57143 9.14285C8.57143 8.67031 8.77333 8.41891 9.13401 8.07038C9.16848 8.03706 9.20514 8.00243 9.24341 7.96628C9.59427 7.63481 10.081 7.17499 10.2687 6.42436C10.6387 4.94433 9.53846 3.42862 8 3.42862C7.27351 3.42862 6.68665 3.70674 6.28719 4.15613C5.89708 4.595 5.71429 5.16401 5.71429 5.71434C5.71429 6.02993 5.97012 6.28577 6.28571 6.28577C6.60131 6.28577 6.85714 6.02993 6.85714 5.71434ZM0 8C0 3.58172 3.58172 0 8 0C12.4183 0 16 3.58172 16 8C16 12.4183 12.4183 16 8 16C3.58172 16 0 12.4183 0 8ZM8 1.14286C4.2129 1.14286 1.14286 4.2129 1.14286 8C1.14286 11.7871 4.2129 14.8571 8 14.8571C11.7871 14.8571 14.8571 11.7871 14.8571 8C14.8571 4.2129 11.7871 1.14286 8 1.14286Z" fill="#7A7A7A"/>
</svg>
