<svg width="16" height="16" viewBox="0 0 16 16" fill="none" xmlns="http://www.w3.org/2000/svg">
<path d="M8 16C3.58172 16 0 12.4183 0 8C0 3.58172 3.58172 0 8 0C12.4183 0 16 3.58172 16 8C16 12.4183 12.4183 16 8 16ZM11.4999 8C11.776 8 11.9999 7.77614 11.9999 7.5V5.5C11.9999 5.22386 11.776 5 11.4999 5C11.2237 5 10.9999 5.22386 10.9999 5.5V6.19617C10.3877 5.18015 9.27374 4.5 8.00005 4.5C6.96342 4.5 6.03154 4.9513 5.39138 5.66654C5.20721 5.87231 5.22472 6.1884 5.43049 6.37257C5.63625 6.55673 5.95235 6.53922 6.13651 6.33346C6.59499 5.8212 7.25968 5.5 8.00005 5.5C9.02453 5.5 9.90617 6.11648 10.2922 7H9.49988C9.22374 7 8.99988 7.22386 8.99988 7.5C8.99988 7.77614 9.22374 8 9.49988 8H11.4999ZM4.00012 8.5V10.5C4.00012 10.7761 4.22398 11 4.50012 11C4.77626 11 5.00012 10.7761 5.00012 10.5V9.80366C5.61231 10.8198 6.7263 11.5 8.00005 11.5C9.03668 11.5 9.96857 11.0487 10.6087 10.3335C10.7929 10.1277 10.7754 9.8116 10.5696 9.62743C10.3639 9.44327 10.0478 9.46078 9.86359 9.66654C9.40511 10.1788 8.74042 10.5 8.00005 10.5C6.97557 10.5 6.09394 9.88352 5.70793 9H6.50012C6.77627 9 7.00012 8.77614 7.00012 8.5C7.00012 8.22386 6.77627 8 6.50012 8H4.50012C4.22398 8 4.00012 8.22386 4.00012 8.5Z" fill="#015CDA"/>
</svg>
