<svg width="16" height="16" viewBox="0 0 16 16" fill="none" xmlns="http://www.w3.org/2000/svg">
<g clip-path="url(#clip0_863_4742)">
<path d="M10.4737 14.8986C10.608 14.8991 10.741 14.8731 10.8652 14.8222C10.9894 14.7712 11.1023 14.6963 11.1976 14.6017C11.2929 14.5071 11.3685 14.3947 11.4203 14.2709C11.4721 14.147 11.499 14.0142 11.4995 13.88C11.4998 13.8387 11.4974 13.7974 11.4924 13.7564C11.0906 10.5431 9.25685 7.92529 5.75907 7.92529C2.20351 7.92529 0.363514 10.1413 0.00529225 13.7653C-0.0223027 14.0365 0.0587763 14.3075 0.230745 14.519C0.402714 14.7304 0.651533 14.865 0.922626 14.8933C0.95688 14.8969 0.991297 14.8986 1.02574 14.8986H10.4737Z" fill="url(#paint0_linear_863_4742)"/>
<path opacity="0.8" d="M5.81414 8.68707C5.1952 8.6897 4.58878 8.51277 4.06836 8.17773L5.79636 12.6933L7.5128 8.20351C7.003 8.5205 6.41446 8.68804 5.81414 8.68707Z" fill="white"/>
<path d="M5.79032 8.68782C7.57137 8.68782 9.01521 7.24398 9.01521 5.46293C9.01521 3.68187 7.57137 2.23804 5.79032 2.23804C4.00926 2.23804 2.56543 3.68187 2.56543 5.46293C2.56543 7.24398 4.00926 8.68782 5.79032 8.68782Z" fill="url(#paint1_linear_863_4742)"/>
<path d="M15.9999 7.65416V6.33505L15.815 6.26572L14.3999 5.80261L14.0302 4.90038L14.7555 3.37772L13.8248 2.44794L13.6399 2.53683L12.3217 3.20705L11.4195 2.84438L10.8444 1.24438H9.52171L9.45237 1.42927L8.99015 2.84438L8.09326 3.21238C8.53254 3.65993 8.83106 4.22637 8.95193 4.84172C9.28868 4.64728 9.66566 4.53295 10.0537 4.50757C10.4417 4.48219 10.8304 4.54644 11.1896 4.69536C11.5488 4.84427 11.8689 5.07385 12.1252 5.36632C12.3814 5.65879 12.567 6.00631 12.6674 6.38198C12.7678 6.75765 12.7804 7.15138 12.7042 7.53271C12.6281 7.91403 12.4652 8.27272 12.2282 8.58099C11.9912 8.88927 11.6864 9.13888 11.3375 9.31048C10.9885 9.48209 10.6048 9.57109 10.2159 9.57061C10.024 9.5689 9.83288 9.54564 9.64615 9.50127C10.3439 10.2528 10.8554 11.1577 11.1395 12.1431L11.4426 11.2195L12.3448 10.8488L13.871 11.5662L14.7973 10.6408L14.7084 10.4559L14.0382 9.13683L14.3999 8.23194L15.9999 7.65416Z" fill="#0078D4"/>
</g>
<defs>
<linearGradient id="paint0_linear_863_4742" x1="5.75018" y1="7.07463" x2="5.75018" y2="16.6222" gradientUnits="userSpaceOnUse">
<stop offset="0.225" stop-color="#50E6FF"/>
<stop offset="1" stop-color="#198AB3"/>
</linearGradient>
<linearGradient id="paint1_linear_863_4742" x1="5.50854" y1="1.95626" x2="6.20543" y2="10.6247" gradientUnits="userSpaceOnUse">
<stop offset="0.225" stop-color="#50E6FF"/>
<stop offset="1" stop-color="#198AB3"/>
</linearGradient>
<clipPath id="clip0_863_4742">
<rect width="16" height="16" fill="white"/>
</clipPath>
</defs>
</svg>
