<svg width="16" height="16" viewBox="0 0 16 16" fill="none" xmlns="http://www.w3.org/2000/svg">
<path d="M15.36 13.6666H0.64C0.287 13.6666 0 13.3796 0 13.0266V3.30663C0 2.95363 0.287 2.66663 0.64 2.66663H15.36C15.713 2.66663 16 2.95363 16 3.30663V13.0266C16 13.3796 15.713 13.6666 15.36 13.6666Z" fill="#3E3E3E"/>
<path d="M14 3.66663H2V12.6666H14V3.66663Z" fill="#2072B8"/>
<path opacity="0.4" d="M13 4.66663V11.6666H3V4.66663H13ZM14 3.66663H2V12.6666H14V3.66663Z" fill="white"/>
<path opacity="0.2" d="M4.667 13.6666H0.64C0.287 13.6666 0 13.3796 0 13.0266V3.30663C0 2.95363 0.287 2.66663 0.64 2.66663H11.333L4.667 13.6666Z" fill="white"/>
</svg>
