<?xml version="1.0" encoding="UTF-8" standalone="no"?>
<!DOCTYPE svg PUBLIC "-//W3C//DTD SVG 1.1//EN" "http://www.w3.org/Graphics/SVG/1.1/DTD/svg11.dtd">
<!-- Generated by Microsoft Visio, SVG Export overview.svg Page-1 -->
<svg xmlns="http://www.w3.org/2000/svg" xmlns:xlink="http://www.w3.org/1999/xlink" xmlns:ev="http://www.w3.org/2001/xml-events"
		width="7.01389in" height="5.63889in" viewBox="0 0 505 406" xml:space="preserve" color-interpolation-filters="sRGB"
		class="st6">
	<style type="text/css">
	<![CDATA[
		.st1 {fill:#ffffff;stroke:#c3c3c3;stroke-linecap:round;stroke-linejoin:round;stroke-width:1}
		.st2 {fill:#ffc000;stroke:#000000;stroke-linecap:round;stroke-linejoin:round;stroke-width:1.5}
		.st3 {fill:#000000;font-family:Segoe UI;font-size:0.666664em;font-weight:bold}
		.st4 {marker-end:url(#mrkr4-32);stroke:#000000;stroke-linecap:round;stroke-linejoin:round;stroke-width:1.5}
		.st5 {fill:#000000;fill-opacity:1;stroke:#000000;stroke-opacity:1;stroke-width:0.37313432835821}
		.st6 {fill:none;fill-rule:evenodd;font-size:12px;overflow:visible;stroke-linecap:square;stroke-miterlimit:3}
	]]>
	</style>

	<defs id="Markers">
		<g id="lend4">
			<path d="M 2 1 L 0 0 L 2 -1 L 2 1 " style="stroke:none"/>
		</g>
		<marker id="mrkr4-32" class="st5" refX="-5.36" orient="auto" markerUnits="strokeWidth" overflow="visible">
			<use xlink:href="#lend4" transform="scale(-2.68,-2.68) "/>
		</marker>
	</defs>
	<g>
		<title>Page-1</title>
		<g id="shape110-1" transform="translate(0.5,-0.5)">
			<title>Sheet.110</title>
			<rect x="0" y="1" width="504" height="405" class="st1"/>
		</g>
		<g id="shape60-3" transform="translate(72.86,-266.45)">
			<title>Start/End.78</title>
			<desc>SQL replication reinit</desc>
			<path d="M11.03 406 L114.61 406 A11.025 11.025 -180 1 0 114.61 383.95 L11.03 383.95 A11.025 11.025 -180 1 0 11.03 406
						 Z" class="st2"/>
			<text x="23.15" y="397.38" class="st3">SQL replication reinit</text>		</g>
		<g id="shape61-6" transform="translate(238.22,-117.853)">
			<title>Start/End.93</title>
			<desc>SQL performance</desc>
			<path d="M11.03 406 L96.97 406 A11.025 11.025 -180 0 0 96.97 383.95 L11.03 383.95 A11.025 11.025 -180 1 0 11.03 406 Z"
					class="st2"/>
			<text x="21.45" y="397.38" class="st3">SQL performance</text>		</g>
		<g id="shape62-9" transform="translate(229.4,-338.45)">
			<title>Start/End.62</title>
			<desc>SQL replication</desc>
			<path d="M11.03 406 L114.61 406 A11.025 11.025 -180 1 0 114.61 383.95 L11.03 383.95 A11.025 11.025 -180 1 0 11.03 406
						 Z" class="st2"/>
			<text x="34.26" y="397.38" class="st3">SQL replication</text>		</g>
		<g id="shape64-12" transform="translate(392.431,-117.853)">
			<title>Start/End.241</title>
			<desc>SQL configuration</desc>
			<path d="M11.03 406 L87.11 406 A11.025 11.025 -180 0 0 87.11 383.95 L11.03 383.95 A11.025 11.025 -180 1 0 11.03 406 Z"
					class="st2"/>
			<text x="14.99" y="397.38" class="st3">SQL configuration</text>		</g>
		<g id="shape65-15" transform="translate(14.4308,-176.45)">
			<title>Start/End.240</title>
			<desc>Global data reinit</desc>
			<path d="M11.03 406 L87.11 406 A11.025 11.025 -180 0 0 87.11 383.95 L11.03 383.95 A11.025 11.025 -180 1 0 11.03 406 Z"
					class="st2"/>
			<text x="16.32" y="397.38" class="st3">Global data reinit</text>		</g>
		<g id="shape66-18" transform="translate(161.273,-176.45)">
			<title>Start/End.238</title>
			<desc>Site data reinit</desc>
			<path d="M11.03 406 L87.11 406 A11.025 11.025 -180 0 0 87.11 383.95 L11.03 383.95 A11.025 11.025 -180 1 0 11.03 406 Z"
					class="st2"/>
			<text x="21.42" y="397.38" class="st3">Site data reinit</text>		</g>
		<g id="shape72-21" transform="translate(9.5,-59.45)">
			<title>Start/End.72</title>
			<desc>Reinit missing message</desc>
			<path d="M11.03 406 L96.97 406 A11.025 11.025 -180 0 0 96.97 383.95 L11.03 383.95 A11.025 11.025 -180 1 0 11.03 406 Z"
					class="st2"/>
			<text x="10.27" y="397.38" class="st3">Reinit missing message</text>		</g>
		<g id="shape73-24" transform="translate(153.5,-59.45)">
			<title>Start/End.84</title>
			<desc>Reinit failed</desc>
			<path d="M11.03 406 L102.94 406 A11.025 11.025 -180 0 0 102.94 383.95 L11.03 383.95 A11.025 11.025 -180 1 0 11.03 406
						 Z" class="st2"/>
			<text x="34.25" y="397.38" class="st3">Reinit failed</text>		</g>
		<g id="shape74-27" transform="translate(292.22,-338.45)">
			<title>Dynamic connector.1114</title>
			<path d="M0 406 L0 419.95 L-156.54 419.95 L-156.54 447.91" class="st4"/>
		</g>
		<g id="shape75-33" transform="translate(135.68,-266.45)">
			<title>Dynamic connector.75</title>
			<path d="M0 406 L0 424 L-72.18 424 L-72.18 465.91" class="st4"/>
		</g>
		<g id="shape76-38" transform="translate(135.68,-266.45)">
			<title>Dynamic connector.76</title>
			<path d="M0 406 L0 424 L74.66 424 L74.66 465.91" class="st4"/>
		</g>
		<g id="shape77-43" transform="translate(283.22,-338.45)">
			<title>Dynamic connector.77</title>
			<path d="M9 406 L9 596.51" class="st4"/>
		</g>
		<g id="shape100-48" transform="translate(292.22,-338.45)">
			<title>Dynamic connector.100</title>
			<path d="M0 406 L0 419.95 L149.28 419.95 L149.28 596.51" class="st4"/>
		</g>
		<g id="shape101-53" transform="translate(54.5,-176.45)">
			<title>Dynamic connector.101</title>
			<path d="M9 406 L9 492.91" class="st4"/>
		</g>
		<g id="shape102-58" transform="translate(201.412,-176.45)">
			<title>Dynamic connector.102</title>
			<path d="M8.93 406 L9.06 492.91" class="st4"/>
		</g>
		<g id="shape103-63" transform="translate(210.482,-50.45)">
			<title>Dynamic connector.103</title>
			<path d="M0 397 L0 422.32 L-71.98 422.32 A3 3 -180 0 0 -77.98 422.32 L-146.98 422.32 L-146.98 405.04" class="st4"/>
		</g>
		<g id="shape104-68" transform="translate(117.5,-70.475)">
			<title>Dynamic connector.104</title>
			<path d="M0 406 L18 406 L18 347.6 L89.91 347.6 A3 3 0 1 1 95.91 347.6 L112.68 347.6" class="st4"/>
		</g>
		<g id="shape105-73" transform="translate(117.5,-70.475)">
			<title>Dynamic connector.105</title>
			<path d="M0 406 L18 406 L18 466.98 L324 466.98 L324 366.66" class="st4"/>
		</g>
		<g id="shape106-78" transform="translate(256.438,-81.5)">
			<title>Dynamic connector.106</title>
			<path d="M0 406 L0 388 L35.78 388 L35.78 377.69" class="st4"/>
		</g>
		<g id="shape107-83" transform="translate(267.463,-70.475)">
			<title>Dynamic connector.107</title>
			<path d="M0 406 L174.04 406 L174.04 366.66" class="st4"/>
		</g>
		<g id="shape108-88" transform="translate(271.52,-378.5)">
			<title>Start/End.10</title>
			<desc>Start</desc>
			<path d="M10.35 406 L31.05 406 A10.35 11.025 -180 0 0 31.05 383.95 L10.35 383.95 A10.35 11.025 -180 1 0 10.35 406 Z"
					class="st2"/>
			<text x="11.6" y="397.38" class="st3">Start</text>		</g>
		<g id="shape109-91" transform="translate(283.22,-378.5)">
			<title>Dynamic connector.109</title>
			<path d="M9 406 L9 415.96" class="st4"/>
		</g>
	</g>
</svg>
