<?xml version="1.0" encoding="UTF-8" standalone="no"?>
<!DOCTYPE svg PUBLIC "-//W3C//DTD SVG 1.1//EN" "http://www.w3.org/Graphics/SVG/1.1/DTD/svg11.dtd">
<!-- Generated by Microsoft Visio, SVG Export overview.svg overview 2 -->
<svg xmlns="http://www.w3.org/2000/svg" xmlns:xlink="http://www.w3.org/1999/xlink" xmlns:ev="http://www.w3.org/2001/xml-events"
		width="8.5in" height="11in" viewBox="0 0 612 792" xml:space="preserve" color-interpolation-filters="sRGB" class="st6">
	<style type="text/css">
	<![CDATA[
		.st1 {fill:#ffffff;stroke:#c3c3c3;stroke-linecap:round;stroke-linejoin:round;stroke-width:1}
		.st2 {fill:#ffc000;stroke:#000000;stroke-linecap:round;stroke-linejoin:round;stroke-width:1.5}
		.st3 {fill:#000000;font-family:Segoe UI;font-size:0.666664em;font-weight:bold}
		.st4 {marker-end:url(#mrkr4-29);stroke:#000000;stroke-linecap:round;stroke-linejoin:round;stroke-width:1.5}
		.st5 {fill:#000000;fill-opacity:1;stroke:#000000;stroke-opacity:1;stroke-width:0.37313432835821}
		.st6 {fill:none;fill-rule:evenodd;font-size:12px;overflow:visible;stroke-linecap:square;stroke-miterlimit:3}
	]]>
	</style>

	<defs id="Markers">
		<g id="lend4">
			<path d="M 2 1 L 0 0 L 2 -1 L 2 1 " style="stroke:none"/>
		</g>
		<marker id="mrkr4-29" class="st5" refX="-5.36" orient="auto" markerUnits="strokeWidth" overflow="visible">
			<use xlink:href="#lend4" transform="scale(-2.68,-2.68) "/>
		</marker>
	</defs>
	<g>
		<title>overview 2</title>
		<g id="shape110-1" transform="translate(11.25,-423)">
			<title>Sheet.110</title>
			<rect x="0" y="441" width="492.75" height="351" class="st1"/>
		</g>
		<g id="shape60-3" transform="translate(81.36,-634.95)">
			<title>Start/End.78</title>
			<desc>SQL replication reinit</desc>
			<path d="M11.03 792 L114.61 792 A11.025 11.025 -180 0 0 114.61 769.95 L11.03 769.95 A11.025 11.025 -180 1 0 11.03 792
						 Z" class="st2"/>
			<text x="23.15" y="783.38" class="st3">SQL replication reinit</text>		</g>
		<g id="shape61-6" transform="translate(246.72,-486.353)">
			<title>Start/End.93</title>
			<desc>SQL performance</desc>
			<path d="M11.03 792 L96.97 792 A11.025 11.025 -180 0 0 96.97 769.95 L11.03 769.95 A11.025 11.025 -180 1 0 11.03 792 Z"
					class="st2"/>
			<text x="21.45" y="783.38" class="st3">SQL performance</text>		</g>
		<g id="shape62-9" transform="translate(237.9,-706.95)">
			<title>Start/End.62</title>
			<desc>SQL replication</desc>
			<path d="M11.03 792 L114.61 792 A11.025 11.025 -180 0 0 114.61 769.95 L11.03 769.95 A11.025 11.025 -180 1 0 11.03 792
						 Z" class="st2"/>
			<text x="34.26" y="783.38" class="st3">SQL replication</text>		</g>
		<g id="shape64-12" transform="translate(400.931,-486.353)">
			<title>Start/End.241</title>
			<desc>SQL configuration</desc>
			<path d="M11.03 792 L87.11 792 A11.025 11.025 -180 0 0 87.11 769.95 L11.03 769.95 A11.025 11.025 -180 1 0 11.03 792 Z"
					class="st2"/>
			<text x="14.99" y="783.38" class="st3">SQL configuration</text>		</g>
		<g id="shape65-15" transform="translate(22.9308,-544.95)">
			<title>Start/End.240</title>
			<desc>Global data reinit</desc>
			<path d="M11.03 792 L87.11 792 A11.025 11.025 -180 0 0 87.11 769.95 L11.03 769.95 A11.025 11.025 -180 1 0 11.03 792 Z"
					class="st2"/>
			<text x="16.32" y="783.38" class="st3">Global data reinit</text>		</g>
		<g id="shape66-18" transform="translate(169.773,-544.95)">
			<title>Start/End.238</title>
			<desc>Site data reinit</desc>
			<path d="M11.03 792 L87.11 792 A11.025 11.025 -180 0 0 87.11 769.95 L11.03 769.95 A11.025 11.025 -180 1 0 11.03 792 Z"
					class="st2"/>
			<text x="21.42" y="783.38" class="st3">Site data reinit</text>		</g>
		<g id="shape72-21" transform="translate(18,-427.95)">
			<title>Start/End.72</title>
			<desc>Reinit missing message</desc>
			<path d="M11.03 792 L96.97 792 A11.025 11.025 -180 1 0 96.97 769.95 L11.03 769.95 A11.025 11.025 -180 1 0 11.03 792 Z"
					class="st2"/>
			<text x="10.27" y="783.38" class="st3">Reinit missing message</text>		</g>
		<g id="shape74-24" transform="translate(300.72,-706.95)">
			<title>Dynamic connector.1114</title>
			<path d="M0 792 L0 805.95 L-156.54 805.95 L-156.54 833.91" class="st4"/>
		</g>
		<g id="shape75-30" transform="translate(144.18,-634.95)">
			<title>Dynamic connector.75</title>
			<path d="M0 792 L0 806.47 L-72.18 806.47 L-72.18 851.91" class="st4"/>
		</g>
		<g id="shape76-35" transform="translate(144.18,-634.95)">
			<title>Dynamic connector.76</title>
			<path d="M0 792 L0 806.47 L74.66 806.47 L74.66 851.91" class="st4"/>
		</g>
		<g id="shape77-40" transform="translate(291.72,-706.95)">
			<title>Dynamic connector.77</title>
			<path d="M9 792 L9 982.51" class="st4"/>
		</g>
		<g id="shape100-45" transform="translate(300.72,-706.95)">
			<title>Dynamic connector.100</title>
			<path d="M0 792 L0 805.95 L149.28 805.95 L149.28 982.51" class="st4"/>
		</g>
		<g id="shape101-50" transform="translate(63,-544.95)">
			<title>Dynamic connector.101</title>
			<path d="M9 792 L9 878.91" class="st4"/>
		</g>
		<g id="shape104-55" transform="translate(126,-438.975)">
			<title>Dynamic connector.104</title>
			<path d="M0 792 L174.72 792 L174.72 752.66" class="st4"/>
		</g>
		<g id="shape105-60" transform="translate(126,-438.975)">
			<title>Dynamic connector.105</title>
			<path d="M0 792 L324 792 L324 752.66" class="st4"/>
		</g>
		<g id="shape108-65" transform="translate(280.02,-747)">
			<title>Start/End.10</title>
			<desc>Start</desc>
			<path d="M10.35 792 L31.05 792 A10.35 11.025 -180 0 0 31.05 769.95 L10.35 769.95 A10.35 11.025 -180 1 0 10.35 792 Z"
					class="st2"/>
			<text x="11.6" y="783.38" class="st3">Start</text>		</g>
		<g id="shape109-68" transform="translate(291.72,-747)">
			<title>Dynamic connector.109</title>
			<path d="M9 792 L9 801.96" class="st4"/>
		</g>
	</g>
</svg>
