<?xml version="1.0" encoding="UTF-8" standalone="no"?>
<!DOCTYPE svg PUBLIC "-//W3C//DTD SVG 1.1//EN" "http://www.w3.org/Graphics/SVG/1.1/DTD/svg11.dtd">
<!-- Generated by Microsoft Visio, SVG Export sql-configuration.svg Page-1 -->
<svg xmlns="http://www.w3.org/2000/svg" xmlns:xlink="http://www.w3.org/1999/xlink" xmlns:ev="http://www.w3.org/2001/xml-events"
		width="6.13889in" height="6.26389in" viewBox="0 0 442 451" xml:space="preserve" color-interpolation-filters="sRGB"
		class="st16">
	<style type="text/css">
	<![CDATA[
		.st1 {fill:#ffffff;stroke:#c3c3c3;stroke-linecap:round;stroke-linejoin:round;stroke-width:1}
		.st2 {fill:#ffc000;stroke:#000000;stroke-linecap:round;stroke-linejoin:round;stroke-width:1.5}
		.st3 {fill:#000000;font-family:Segoe UI;font-size:0.666664em;font-weight:bold}
		.st4 {fill:#a3d9f4;stroke:#000000;stroke-linecap:round;stroke-linejoin:round;stroke-width:1.5}
		.st5 {font-size:1em}
		.st6 {fill:none;stroke:none;stroke-linecap:round;stroke-linejoin:round;stroke-width:0.5}
		.st7 {fill:#000000;font-family:Segoe UI;font-size:0.666664em}
		.st8 {marker-end:url(#mrkr4-22);stroke:#000000;stroke-linecap:round;stroke-linejoin:round;stroke-width:1.5}
		.st9 {fill:#000000;fill-opacity:1;stroke:#000000;stroke-opacity:1;stroke-width:0.37313432835821}
		.st10 {fill:#000000;font-family:Segoe UI;font-size:1.16666em}
		.st11 {fill:#ffffff;stroke:none;stroke-linecap:round;stroke-linejoin:round;stroke-width:1.5}
		.st12 {fill:#ffffff;stroke:none;stroke-linecap:round;stroke-linejoin:round;stroke-width:0.5}
		.st13 {font-size:1em;font-weight:normal}
		.st14 {fill:#ffffff;stroke:none;stroke-linecap:butt}
		.st15 {stroke:#7f7f7f;stroke-linecap:round;stroke-linejoin:round;stroke-width:1.5}
		.st16 {fill:none;fill-rule:evenodd;font-size:12px;overflow:visible;stroke-linecap:square;stroke-miterlimit:3}
	]]>
	</style>

	<defs id="Markers">
		<g id="lend4">
			<path d="M 2 1 L 0 0 L 2 -1 L 2 1 " style="stroke:none"/>
		</g>
		<marker id="mrkr4-22" class="st9" refX="-5.36" orient="auto" markerUnits="strokeWidth" overflow="visible">
			<use xlink:href="#lend4" transform="scale(-2.68,-2.68) "/>
		</marker>
	</defs>
	<g>
		<title>Page-1</title>
		<g id="shape74-1" transform="translate(0.5,-0.5)">
			<title>Sheet.74</title>
			<rect x="0" y="1" width="441" height="450" class="st1"/>
		</g>
		<g id="shape21-3" transform="translate(154.85,-395.916)">
			<title>Start/End.21</title>
			<desc>Start</desc>
			<path d="M10.35 451 L31.05 451 A10.35 11.025 -180 0 0 31.05 428.95 L10.35 428.95 A10.35 11.025 -180 1 0 10.35 451 Z"
					class="st2"/>
			<text x="11.6" y="442.38" class="st3">Start</text>		</g>
		<g id="shape22-6" transform="translate(154.8,-308.918)">
			<title>Process.13</title>
			<desc>CAS /Primary</desc>
			<rect x="0" y="412.904" width="41.4" height="38.0962" class="st4"/>
			<text x="10.27" y="429.55" class="st3">CAS /<tspan x="5.95" dy="1.2em" class="st5">Primary</tspan></text>		</g>
		<g id="shape23-10" transform="translate(207,-359.466)">
			<title>Sheet.23</title>
			<desc>Troubleshoot SQL configuration related to SQL service broker ...</desc>
			<rect x="0" y="392.5" width="130.5" height="58.5" class="st6"/>
			<text x="2" y="401.7" class="st7">Troubleshoot SQL configuration <tspan x="2" dy="1.2em" class="st5">related to SQL service broker (SSB)</tspan></text>		</g>
		<g id="shape24-14" transform="translate(205.836,-313.716)">
			<title>Sheet.24</title>
			<desc>Check if SQL can deliver SSB messages</desc>
			<rect x="0" y="422.5" width="154.664" height="28.5" class="st6"/>
			<text x="2" y="439.15" class="st3">Check if SQL can deliver SSB messages</text>		</g>
		<g id="shape25-17" transform="translate(184.525,-395.916)">
			<title>Dynamic connector.1114</title>
			<path d="M-8.97 451 L-9.02 491.86" class="st8"/>
		</g>
		<g id="shape26-23" transform="translate(386.962,-226.941)">
			<title>Start/End.1184</title>
			<desc>End</desc>
			<path d="M10.35 451 L31.05 451 A10.35 11.025 -180 0 0 31.05 428.95 L10.35 428.95 A10.35 11.025 -180 1 0 10.35 451 Z"
					class="st2"/>
			<text x="13.67" y="442.38" class="st3">End</text>		</g>
		<g id="shape27-26" transform="translate(0.5,-425.466)">
			<title>Sheet.27</title>
			<desc>Troubleshoot SQL configuration</desc>
			<rect x="0" y="428.95" width="441" height="22.05" class="st6"/>
			<text x="121.84" y="444.18" class="st10">Troubleshoot SQL configuration</text>		</g>
		<g id="shape28-29" transform="translate(166.5,-308.918)">
			<title>Dynamic connector.1067</title>
			<path d="M9 451 L9 504.12" class="st8"/>
		</g>
		<g id="shape33-34" transform="translate(166.5,-230.203)">
			<title>Dynamic connector.1029</title>
			<path d="M9 451 L9 489.65" class="st8"/>
		</g>
		<g id="shape34-39" transform="translate(156.094,-202.884)">
			<title>Sheet.34</title>
			<desc>Has Result</desc>
			<rect x="0" y="428.95" width="38.8125" height="22.05" class="st11"/>
			<text x="12.43" y="437.58" class="st3">Has <tspan x="7.76" dy="1.2em" class="st5">Result</tspan></text>		</g>
		<g id="shape35-43" transform="translate(187.2,-247.472)">
			<title>Dynamic connector.1094</title>
			<path d="M0 459.49 L191.72 460.47" class="st8"/>
		</g>
		<g id="shape36-48" transform="translate(163.8,-230.203)">
			<title>Decision.1066</title>
			<path d="M0 442.22 L11.7 433.45 L23.4 442.22 L11.7 451 L0 442.22 Z" class="st2"/>
		</g>
		<g id="shape37-50" transform="translate(192.955,-229.191)">
			<title>Sheet.37</title>
			<desc>No Result</desc>
			<rect x="0" y="433.45" width="38.8125" height="17.55" class="st12"/>
			<text x="13.8" y="439.83" class="st3">No <tspan x="7.76" dy="1.2em" class="st5">Result</tspan></text>		</g>
		<g id="shape38-54" transform="translate(163.8,-165.966)">
			<title>Process.1136</title>
			<rect x="0" y="433.45" width="23.4" height="17.55" class="st4"/>
		</g>
		<g id="shape39-56" transform="translate(202.5,-149.109)">
			<title>Sheet.39</title>
			<desc>Check transmission_status You may need to refresh the previou...</desc>
			<rect x="0" y="412.904" width="135" height="38.0962" class="st6"/>
			<text x="2" y="422.1" class="st3">Check transmission_status <tspan x="2" dy="1.2em" class="st13">You may need to refresh the </tspan><tspan
						x="2" dy="1.2em" class="st13">previous query as it could be blank</tspan></text>		</g>
		<g id="shape40-61" transform="translate(166.5,-165.966)">
			<title>Dynamic connector.1138</title>
			<path d="M9 451 L9 482.99" class="st8"/>
		</g>
		<g id="shape41-66" transform="translate(163.8,-108.384)">
			<title>Decision.73</title>
			<path d="M0 442.22 L11.7 433.45 L23.4 442.22 L11.7 451 L0 442.22 Z" class="st2"/>
		</g>
		<g id="shape42-68" transform="translate(163.8,-117.159)">
			<title>Dynamic connector.75</title>
			<desc>Has Result</desc>
			<path d="M0 451 L-85 451 L-85 527.13" class="st8"/>
			<rect x="-44.4482" y="441.06" width="23.2965" height="19.1997" class="st14"/>
			<text x="-39.78" y="448.26" class="st3">Has <tspan x="-44.45" dy="1.2em" class="st5">Result</tspan></text>		</g>
		<g id="shape43-76" transform="translate(187.2,-117.159)">
			<title>Dynamic connector.76</title>
			<path d="M0 451 L116.6 451 L116.6 527.13" class="st8"/>
		</g>
		<g id="shape44-81" transform="translate(200.549,-108.384)">
			<title>Sheet.44</title>
			<desc>Transmission_status is empty</desc>
			<rect x="0" y="433.45" width="81.2009" height="17.55" class="st12"/>
			<text x="3.15" y="439.83" class="st3">Transmission_status <tspan x="24.58" dy="1.2em" class="st5">is empty</tspan></text>		</g>
		<g id="shape68-85" transform="translate(106.05,-7.71563)">
			<title>Sheet.68</title>
			<desc>Remediate the issues reported from transmission_status</desc>
			<rect x="0" y="422.5" width="78.4502" height="28.5" class="st6"/>
			<text x="2" y="429.55" class="st7">Remediate the issues <tspan x="2" dy="1.2em" class="st5">reported from </tspan><tspan
						x="2" dy="1.2em" class="st5">transmission_status</tspan></text>		</g>
		<g id="shape71-90" transform="translate(283.1,-10.9406)">
			<title>Start/End.71</title>
			<desc>End</desc>
			<path d="M10.35 451 L31.05 451 A10.35 11.025 -180 0 0 31.05 428.95 L10.35 428.95 A10.35 11.025 -180 1 0 10.35 451 Z"
					class="st2"/>
			<text x="13.67" y="442.38" class="st3">End</text>		</g>
		<g id="shape72-93" transform="translate(58.1,-10.9406)">
			<title>Start/End.72</title>
			<desc>End</desc>
			<path d="M10.35 451 L31.05 451 A10.35 11.025 -180 0 0 31.05 428.95 L10.35 428.95 A10.35 11.025 -180 1 0 10.35 451 Z"
					class="st2"/>
			<text x="13.67" y="442.38" class="st3">End</text>		</g>
		<g id="shape73-96" transform="translate(337.5,-7.71563)">
			<title>Sheet.73</title>
			<desc>Run SQL profiler to trace SSB events</desc>
			<rect x="0" y="422.5" width="78.4502" height="28.5" class="st6"/>
			<text x="2" y="434.35" class="st7">Run SQL profiler to <tspan x="2" dy="1.2em" class="st5">trace SSB events</tspan></text>		</g>
		<g id="shape62-100" transform="translate(12.1116,-294.216)">
			<title>Orthogonal.1107</title>
			<desc>SELECT transmission_status, * FROM sys.transmission_queue ORD...</desc>
			<path d="M105.45 417.25 L142.69 417.25" class="st15"/>
			<path d="M4.5 383.5 L0 383.5 L0 451 L4.5 451" class="st15"/>
			<path d="M100.95 383.5 L105.45 383.5 L105.45 451 L100.95 451" class="st15"/>
			<text x="4" y="395.65" class="st7">SELECT <tspan x="4" dy="1.2em" class="st5">transmission_status, * </tspan><tspan
						x="4" dy="1.2em" class="st5">FROM </tspan><tspan x="4" dy="1.2em" class="st5">sys.transmission_queue </tspan><tspan
						x="4" dy="1.2em" class="st5">ORDER BY enqueue_time </tspan><tspan x="4" dy="1.2em" class="st5">DESC</tspan></text>		</g>
	</g>
</svg>
