<svg width="54" height="32" viewBox="0 0 54 32" fill="none" xmlns="http://www.w3.org/2000/svg">
<path d="M27.0195 0.399902C28.1939 0.413438 29.3637 0.549118 30.5099 0.804766C31.0102 0.916366 31.3845 1.33352 31.4413 1.84304L31.7136 4.286C31.837 5.40768 32.784 6.25725 33.913 6.25843C34.2165 6.25891 34.5166 6.19571 34.7971 6.07163L37.0381 5.0872C37.5042 4.88245 38.0488 4.99408 38.3966 5.36569C40.0162 7.09533 41.2222 9.16974 41.9243 11.4328C42.0757 11.9208 41.9014 12.4512 41.4902 12.7543L39.5038 14.2185C38.9371 14.6348 38.6026 15.2959 38.6026 15.9991C38.6026 16.7021 38.9371 17.3633 39.5051 17.7805L41.4931 19.2452C41.9045 19.5482 42.0789 20.0786 41.9275 20.5668C41.2258 22.8295 40.0203 24.9037 38.4018 26.6337C38.0542 27.0052 37.5101 27.1172 37.044 26.9129L34.7939 25.9271C34.1501 25.6453 33.4109 25.6866 32.8024 26.0383C32.1941 26.3898 31.7893 27.0098 31.712 27.7082L31.4414 30.1509C31.3856 30.6546 31.0195 31.069 30.5264 31.1863C28.209 31.7377 25.7944 31.7377 23.4768 31.1863C22.9839 31.069 22.6177 30.6546 22.5619 30.1509L22.2918 27.7119C22.2124 27.0148 21.8069 26.3967 21.1991 26.0463C20.5912 25.6959 19.8531 25.6548 19.2115 25.9349L16.9609 26.9209C16.4948 27.1252 15.9505 27.0132 15.6029 26.6413C13.9834 24.9095 12.7779 22.8327 12.0771 20.5676C11.9262 20.0797 12.1006 19.5497 12.5118 19.2468L14.5011 17.7812C15.0677 17.3649 15.4024 16.7037 15.4024 16.0007C15.4024 15.2975 15.0677 14.6364 14.5003 14.2196L12.5123 12.7565C12.1005 12.4534 11.9259 11.9228 12.0774 11.4344C12.7794 9.17134 13.9855 7.09693 15.605 5.36729C15.9529 4.99568 16.4975 4.88405 16.9636 5.0888L19.2042 6.07305C19.8489 6.356 20.5901 6.31326 21.2012 5.95621C21.8097 5.60325 22.2149 4.98265 22.2931 4.28413L22.5652 1.84304C22.622 1.33326 22.9966 0.915966 23.4973 0.804606C24.645 0.549374 25.816 0.413742 27.0195 0.399902ZM26.9995 11.1998C24.3485 11.1998 22.1995 13.3489 22.1995 15.9999C22.1995 18.6508 24.3485 20.7999 26.9995 20.7999C29.6504 20.7999 31.7995 18.6508 31.7995 15.9999C31.7995 13.3489 29.6504 11.1998 26.9995 11.1998Z" fill="#0883D9"/>
</svg>
