<svg xmlns="http://www.w3.org/2000/svg" xmlns:xlink="http://www.w3.org/1999/xlink" viewBox="0 0 492.8 288.533">
  <defs>
    <linearGradient id="Grey_Gradient_2" data-name="Grey Gradient 2" x1="137.488" y1="15.733" x2="137.488" y2="261.933" gradientUnits="userSpaceOnUse">
      <stop offset="0" stop-color="#b3b2b3"/>
      <stop offset="0.38" stop-color="#afaeaf"/>
      <stop offset="0.76" stop-color="#a2a2a2"/>
      <stop offset="1" stop-color="#979797"/>
    </linearGradient>
    <linearGradient id="linear-gradient" x1="67.188" y1="623.389" x2="67.188" y2="644.34" gradientTransform="matrix(1, 0, 0, -1, 0, 722.35)" gradientUnits="userSpaceOnUse">
      <stop offset="0" stop-color="#2e76bc"/>
      <stop offset="0.156" stop-color="#347dc0"/>
      <stop offset="0.528" stop-color="#4c8dcb"/>
      <stop offset="0.822" stop-color="#6198d1"/>
      <stop offset="1" stop-color="#699cd3"/>
    </linearGradient>
    <linearGradient id="linear-gradient-2" x1="-496.802" y1="757.98" x2="-496.802" y2="787.18" gradientTransform="matrix(1, 0, 0, -1, 564, 956.35)" gradientUnits="userSpaceOnUse">
      <stop offset="0" stop-color="#d2ebff"/>
      <stop offset="1" stop-color="#f0fffd"/>
    </linearGradient>
    <linearGradient id="linear-gradient-3" x1="-362.712" y1="830.661" x2="-362.712" y2="871.684" gradientTransform="matrix(1, 0, 0, -1, 564, 956.35)" gradientUnits="userSpaceOnUse">
      <stop offset="0" stop-color="#0078d4"/>
      <stop offset="0.16" stop-color="#1380da"/>
      <stop offset="0.53" stop-color="#3c91e5"/>
      <stop offset="0.82" stop-color="#559cec"/>
      <stop offset="1" stop-color="#5ea0ef"/>
    </linearGradient>
    <radialGradient id="radial-gradient" cx="-286.621" cy="688.204" r="15.882" gradientTransform="matrix(0.94, 0, 0, -0.94, 470.35, 870.47)" gradientUnits="userSpaceOnUse">
      <stop offset="0.18" stop-color="#5ea0ef"/>
      <stop offset="0.56" stop-color="#5c9fee"/>
      <stop offset="0.69" stop-color="#559ced"/>
      <stop offset="0.78" stop-color="#4a97e9"/>
      <stop offset="0.86" stop-color="#3990e4"/>
      <stop offset="0.93" stop-color="#2387de"/>
      <stop offset="0.99" stop-color="#087bd6"/>
      <stop offset="1" stop-color="#0078d4"/>
    </radialGradient>
    <clipPath id="clip-path">
      <path d="M204.076,222.733l4.271,4.553a.389.389,0,0,1,0,.53l-.829.864a.354.354,0,0,1-.5.032c-.011-.01-.021-.021-.031-.032h0l-5.7-5.947a.392.392,0,0,1,0-.6l5.559-5.859a.353.353,0,0,1,.5-.031.3.3,0,0,1,.031.031h0l.83.865a.407.407,0,0,1,0,.547l-4.13,4.447a.39.39,0,0,0-.053.547A.442.442,0,0,0,204.076,222.733Z" fill="none"/>
    </clipPath>
    <clipPath id="clip-path-2">
      <path d="M197.953,225.5l-4.288,4.535a.4.4,0,0,0,0,.547l.829.865a.353.353,0,0,0,.5.031.3.3,0,0,0,.031-.031h0l5.647-5.947a.389.389,0,0,0,0-.53l-5.558-5.858a.353.353,0,0,0-.5-.032c-.011.01-.021.021-.031.032h0l-.829.864a.389.389,0,0,0,0,.53l4.2,4.464a.354.354,0,0,1,.031.5C197.974,225.484,197.964,225.494,197.953,225.5Z" fill="none"/>
    </clipPath>
    <linearGradient id="linear-gradient-4" x1="23.112" y1="473.617" x2="23.112" y2="443.617" gradientTransform="matrix(1, 0, 0, -1, 0, 722.35)" gradientUnits="userSpaceOnUse">
      <stop offset="0" stop-color="#5ea0ef"/>
      <stop offset="0.18" stop-color="#559cec"/>
      <stop offset="0.47" stop-color="#3c91e5"/>
      <stop offset="0.84" stop-color="#1380da"/>
      <stop offset="1" stop-color="#0078d4"/>
    </linearGradient>
    <linearGradient id="Blue_Gradient_2" data-name="Blue Gradient 2" x1="395.793" y1="147.283" x2="395.793" y2="14.945" gradientTransform="matrix(1, 0, 0, 1, 0, 0)" xlink:href="#linear-gradient-3"/>
    <linearGradient id="linear-gradient-5" x1="319.535" y1="713.09" x2="311.055" y2="688.039" gradientTransform="matrix(1, 0, 0, -1, 0, 722.35)" gradientUnits="userSpaceOnUse">
      <stop offset="0" stop-color="#114a8b"/>
      <stop offset="1" stop-color="#0669bc"/>
    </linearGradient>
    <linearGradient id="linear-gradient-6" x1="322.122" y1="701.518" x2="320.111" y2="700.832" gradientTransform="matrix(1, 0, 0, -1, 0, 722.35)" gradientUnits="userSpaceOnUse">
      <stop offset="0" stop-opacity="0.3"/>
      <stop offset="0.071" stop-opacity="0.2"/>
      <stop offset="0.321" stop-opacity="0.1"/>
      <stop offset="0.623" stop-opacity="0.05"/>
      <stop offset="1" stop-opacity="0"/>
    </linearGradient>
    <linearGradient id="linear-gradient-7" x1="321.089" y1="713.821" x2="330.398" y2="689.022" gradientTransform="matrix(1, 0, 0, -1, 0, 722.35)" gradientUnits="userSpaceOnUse">
      <stop offset="0" stop-color="#3ccbf4"/>
      <stop offset="1" stop-color="#2892df"/>
    </linearGradient>
    <linearGradient id="linear-gradient-8" x1="-160.724" y1="835.226" x2="-160.724" y2="857.268" gradientTransform="matrix(1, 0, 0, -1, 564, 956.35)" gradientUnits="userSpaceOnUse">
      <stop offset="0" stop-color="#32bedd"/>
      <stop offset="0.175" stop-color="#32caea"/>
      <stop offset="0.41" stop-color="#32d2f2"/>
      <stop offset="0.775" stop-color="#32d4f5"/>
    </linearGradient>
    <linearGradient id="linear-gradient-9" x1="403.184" y1="519.963" x2="403.184" y2="543.701" gradientTransform="matrix(1, 0, 0, -1, 0, 722.35)" gradientUnits="userSpaceOnUse">
      <stop offset="0" stop-color="#2e76bc"/>
      <stop offset="0.17" stop-color="#3780c3"/>
      <stop offset="0.38" stop-color="#4a8cca"/>
      <stop offset="0.59" stop-color="#5a95cf"/>
      <stop offset="0.8" stop-color="#659ad2"/>
      <stop offset="1" stop-color="#699cd3"/>
    </linearGradient>
    <linearGradient id="linear-gradient-10" x1="260.688" y1="74.8" x2="346.076" y2="74.8" gradientUnits="userSpaceOnUse">
      <stop offset="0.094" stop-color="#699cd3"/>
      <stop offset="1" stop-color="#1e3465"/>
    </linearGradient>
    <linearGradient id="linear-gradient-12" x1="260.688" y1="82.272" x2="346.076" y2="82.272" gradientUnits="userSpaceOnUse">
      <stop offset="0" stop-color="#1e3465"/>
      <stop offset="0.906" stop-color="#699cd3"/>
    </linearGradient>
    <symbol id="New_Symbol_41" data-name="New Symbol 41" viewBox="0 0 21 20">
      <circle cx="10.5" cy="10" r="10" fill="#505150"/>
      <path d="M11.689,5.838v8.59H10.33V7.5a4.355,4.355,0,0,1-.794.449,6.627,6.627,0,0,1-.97.325V7.116c.226-.074.445-.153.656-.235s.419-.173.624-.275.412-.215.621-.34.425-.267.648-.428Z" fill="#fff"/>
    </symbol>
    <symbol id="New_Symbol_42" data-name="New Symbol 42" viewBox="0 0 21 20">
      <circle cx="10.5" cy="10" r="10" fill="#505150"/>
      <path d="M13.016,14.428H7.743v-.65a2.445,2.445,0,0,1,.111-.747,3,3,0,0,1,.3-.656,3.633,3.633,0,0,1,.439-.581q.252-.272.539-.527t.586-.492q.3-.237.586-.478.27-.228.492-.448a2.923,2.923,0,0,0,.381-.454,2.007,2.007,0,0,0,.246-.495,1.749,1.749,0,0,0,.088-.566,1.534,1.534,0,0,0-.1-.583,1.147,1.147,0,0,0-.287-.416,1.237,1.237,0,0,0-.437-.252A1.73,1.73,0,0,0,10.133,7a2.548,2.548,0,0,0-1.049.24,3.593,3.593,0,0,0-1.025.72V6.653a4.309,4.309,0,0,1,.522-.337,3.46,3.46,0,0,1,.544-.24,3.3,3.3,0,0,1,.592-.144,4.474,4.474,0,0,1,.662-.047,3.34,3.34,0,0,1,1.032.15,2.2,2.2,0,0,1,.791.439,1.935,1.935,0,0,1,.506.724,2.58,2.58,0,0,1,.179,1,3.1,3.1,0,0,1-.126.917,3,3,0,0,1-.357.759,3.932,3.932,0,0,1-.56.668q-.328.317-.732.65-.341.276-.677.536t-.606.51a2.824,2.824,0,0,0-.437.5.9.9,0,0,0-.167.5v.029h3.791Z" fill="#fff"/>
    </symbol>
    <symbol id="New_Symbol_43" data-name="New Symbol 43" viewBox="0 0 21 20">
      <circle cx="10.5" cy="10" r="10" fill="#505150"/>
      <path d="M7.889,14.118V12.84a2.9,2.9,0,0,0,1.852.651,2.159,2.159,0,0,0,1.339-.381,1.228,1.228,0,0,0,.5-1.031q0-1.431-2.186-1.43h-.65V9.559h.621q1.94,0,1.939-1.348,0-1.242-1.512-1.242a2.474,2.474,0,0,0-1.587.6V6.366a4.053,4.053,0,0,1,2.021-.481,2.707,2.707,0,0,1,1.793.563,1.793,1.793,0,0,1,.674,1.441,2.054,2.054,0,0,1-1.688,2.133v.023a2.215,2.215,0,0,1,1.436.636,1.9,1.9,0,0,1,.527,1.368,2.245,2.245,0,0,1-.849,1.826,3.434,3.434,0,0,1-2.239.694A3.826,3.826,0,0,1,7.889,14.118Z" fill="#fff"/>
    </symbol>
    <symbol id="New_Symbol_44" data-name="New Symbol 44" viewBox="0 0 21 20">
      <circle cx="10.5" cy="10" r="10" fill="#505150"/>
      <path d="M12.468,6.026v5.426h1.248v1.131H12.468v1.845H11.15V12.583h-3.8V11.44q.516-.58,1.058-1.257T9.448,8.8q.5-.705.928-1.415A12.7,12.7,0,0,0,11.1,6.026ZM11.15,11.452V7.924a19.435,19.435,0,0,1-1.263,2q-.624.857-1.169,1.524Z" fill="#fff"/>
    </symbol>
    <symbol id="New_Symbol_45" data-name="New Symbol 45" viewBox="0 0 21 20">
      <circle cx="10.5" cy="10" r="10" fill="#505150"/>
      <path d="M8.077,14.235V12.928a2.97,2.97,0,0,0,1.675.557,2.072,2.072,0,0,0,1.377-.437,1.439,1.439,0,0,0,.522-1.163,1.315,1.315,0,0,0-.53-1.113,2.5,2.5,0,0,0-1.521-.4q-.339,0-1.377.07l.3-4.418h4.137v1.16H9.653l-.141,2.1q.4-.024.733-.024a2.9,2.9,0,0,1,2.065.686,2.45,2.45,0,0,1,.73,1.875,2.566,2.566,0,0,1-.835,2,3.3,3.3,0,0,1-2.294.753A3.8,3.8,0,0,1,8.077,14.235Z" fill="#fff"/>
    </symbol>
  </defs>
  <g id="Shapes">
    <rect width="492.8" height="288.533" fill="#fff"/>
    <g>
      <rect x="5.488" y="15.733" width="264" height="246.2" fill="#fff"/>
      <rect x="5.488" y="15.733" width="264" height="246.2" opacity="0.4" fill="url(#Grey_Gradient_2)"/>
      <rect x="5.488" y="15.733" width="264" height="246.2" fill="none" stroke="#fff"/>
    </g>
    <g>
      <rect x="14.288" y="24.333" width="105.8" height="84" fill="#fff"/>
      <g opacity="0.65">
        <path d="M119.838,24.583v83.5H14.538v-83.5h105.3m.25-.25H14.288v84h105.8v-84Z" fill="#505150"/>
      </g>
    </g>
    <g>
      <rect x="14.288" y="112.333" width="105.8" height="96.8" fill="#fff"/>
      <g opacity="0.65">
        <path d="M119.838,112.583v96.3H14.538v-96.3h105.3m.25-.25H14.288v96.8h105.8v-96.8Z" fill="#505150"/>
      </g>
    </g>
    <g>
      <rect x="141.888" y="24.533" width="118.8" height="109.8" fill="#fff"/>
      <g opacity="0.65">
        <path d="M260.438,24.783v109.3h-118.3V24.783h118.3m.25-.25h-118.8v109.8h118.8V24.533Z" fill="#505150"/>
      </g>
    </g>
    <g>
      <rect x="141.888" y="143.333" width="118.8" height="109.8" fill="#fff"/>
      <g opacity="0.65">
        <path d="M260.438,143.583v109.3h-118.3v-109.3h118.3m.25-.25h-118.8v109.8h118.8v-109.8Z" fill="#505150"/>
      </g>
    </g>
    <g id="bb1c4aae-a407-4f6f-98e2-81891d0404e1">
      <g>
        <path d="M74.485,78.187h-1.5V74.24a.177.177,0,0,0-.046,0H61.62a.114.114,0,0,0-.045,0v3.947h-1.5V74.164a1.492,1.492,0,0,1,1.545-1.43H72.939a1.493,1.493,0,0,1,1.546,1.43Z" fill="#a3a3a3"/>
        <rect x="52.188" y="78.011" width="30" height="20.951" rx="1.001" fill="url(#linear-gradient)"/>
        <rect x="52.188" y="83.367" width="30" height="2.314" fill="#a5def3"/>
        <path d="M62.983,85.68H71.6v2.7a.5.5,0,0,1-.5.5H63.482a.5.5,0,0,1-.5-.5h0v-2.7Z" fill="#005ca1"/>
        <polygon points="52.188 89.19 52.188 94.475 60.383 97.103 61.92 92.31 52.188 89.19" fill="#8bb6e1"/>
        <path d="M82.188,88.927a4.8,4.8,0,1,0,0,8.536Z" fill="#699cd3"/>
      </g>
    </g>
    <g>
      <rect x="50.034" y="170.333" width="34.307" height="24.416" rx="1.144" fill="#0078d4"/>
      <rect x="52.036" y="172.049" width="30.324" height="20.775" rx="0.629" opacity="0.9" fill="url(#linear-gradient-2)" style="isolation: isolate"/>
      <rect x="65.416" y="171.096" width="3.64" height="0.496" rx="0.229" fill="#f2f2f2"/>
      <circle cx="74.564" cy="192.29" r="8.043" fill="#76bc2d"/>
      <path d="M69.761,191.051a5.259,5.259,0,0,0-.152,1.906,5.039,5.039,0,0,0,.686,1.906,4.814,4.814,0,0,0,.915,1.144,5.579,5.579,0,0,0,1.162.819,6.892,6.892,0,0,0,1.373.477,5.241,5.241,0,0,0,1.448,0l-.133-1.392a.267.267,0,0,0-.267-.266H74.05a3.849,3.849,0,0,1-.915-.324,4.634,4.634,0,0,1-.8-.458,2.9,2.9,0,0,1-.61-.762,3.23,3.23,0,0,1-.457-1.277,3.585,3.585,0,0,1,0-1.354l.476.8a.286.286,0,0,0,.382.1l.59-.343a.286.286,0,0,0,.1-.381l-1.6-2.706a.306.306,0,0,0-.4-.1l-2.687,1.6a.268.268,0,0,0,0,.378l0,0,.324.572a.286.286,0,0,0,.385.123l.015-.008Z" fill="#fff"/>
      <path d="M75.384,188.916a4.786,4.786,0,0,1,.915.324,3.862,3.862,0,0,1,.8.572,3.058,3.058,0,0,1,.629.763,3.412,3.412,0,0,1,.439,1.277,3.621,3.621,0,0,1,0,1.353l-.477-.8a.286.286,0,0,0-.381-.114l-.572.343a.287.287,0,0,0-.1.392l.006.008,1.582,2.688a.3.3,0,0,0,.4.114l2.687-1.6a.285.285,0,0,0,.123-.385l-.008-.015-.343-.572a.306.306,0,0,0-.4-.095l-.934.553a4.993,4.993,0,0,0,.153-2.059,5.508,5.508,0,0,0-.667-1.906,5.89,5.89,0,0,0-.915-1.124,5.314,5.314,0,0,0-2.63-1.392,4.714,4.714,0,0,0-1.163,0,.267.267,0,0,0-.25.283l0,.022v1.106a.285.285,0,0,0,.267.247A5,5,0,0,1,75.384,188.916Z" fill="#fff"/>
    </g>
    <g>
      <path d="M221.938,111.786a9.432,9.432,0,0,0-8.054-9.178,11.793,11.793,0,0,0-12.045-11.472A12.068,12.068,0,0,0,190.367,99.1a11.173,11.173,0,0,0-9.728,11.013,11.334,11.334,0,0,0,11.632,11.013h19.847a3.532,3.532,0,0,0,.5,0A9.476,9.476,0,0,0,221.938,111.786Z" fill="url(#linear-gradient-3)"/>
      <circle cx="192.661" cy="109.721" r="1.629" fill="#e3e3e3"/>
      <path d="M198.4,110.34v-1.308h-.183l-1.4-.459-.367-.894.711-1.515-.918-.917h-.183l-1.308.688-.895-.367-.573-1.583h-1.308v.183l-.459,1.4-.964.367-1.491-.711-.918.917v.184l.666,1.308-.367.9-1.607.573v1.423h.184l1.4.459.367.894-.712,1.515.918.917h.184l1.308-.665.894.367.574,1.583h1.308v-.183l.459-1.4.894-.367,1.515.711.918-.917v-.184l-.666-1.308.367-.895Zm-5.736,1.9a2.5,2.5,0,1,1,.046,0A.353.353,0,0,1,192.661,112.244Z" fill="#fff"/>
      <circle cx="203.583" cy="102.7" r="1.927" fill="#e3e3e3"/>
      <path d="M210.466,103.434v-1.56h-.207l-1.7-.528-.39-1.17.849-1.836-1.1-1.1h-.207l-1.583.8-1.055-.436-.688-1.9h-1.629v.229l-.551,1.675-1.078.436-1.79-.849-1.1,1.1.114.206.643,1.7-.367,1.147-1.928.62v1.675h.23l1.675.55.39,1.033-.849,1.835,1.147,1.17.229-.114,1.561-.8,1.078.435.688,1.905h1.56v-.23l.551-1.675,1.079-.435,1.812.848,1.1-1.1-.114-.206-.666-1.652.436-1.079Zm-6.883,2.294a3.029,3.029,0,1,1,3.028-3.028h0a3,3,0,0,1-2.982,3.028A.353.353,0,0,1,203.583,105.728Z" fill="#fff"/>
    </g>
    <g>
      <circle cx="201.288" cy="223.898" r="15" fill="url(#radial-gradient)"/>
      <circle cx="201.288" cy="223.898" r="13.059" fill="#fff"/>
      <g clip-path="url(#clip-path)">
        <g>
          <polygon points="203.812 222.469 208.629 227.551 207.27 228.963 201.094 222.469 207.182 216.063 208.541 217.474 203.812 222.469" fill="#5e9624"/>
          <polygon points="208.629 227.551 203.812 222.469 202.47 223.88 207.27 228.963 208.629 227.551" fill="#86d633"/>
        </g>
      </g>
      <g clip-path="url(#clip-path-2)">
        <g>
          <polygon points="198.218 225.239 193.418 230.321 194.759 231.733 200.935 225.239 194.847 218.833 193.488 220.245 198.218 225.239" fill="#5e9624"/>
          <polygon points="193.418 230.321 198.218 225.239 199.559 226.651 194.759 231.733 193.418 230.321" fill="#86d633"/>
        </g>
      </g>
    </g>
    <g>
      <path d="M31.935,249.739v27.988a.988.988,0,0,1-.97,1.006H15.294a.988.988,0,0,1-1.006-.97V249.739a.989.989,0,0,1,.971-1.006h15.67a.989.989,0,0,1,1.006.971Z" fill="url(#linear-gradient-4)"/>
      <path id="a1bc77ea-5288-41a0-8f9a-2d282cf54a86" d="M16.635,251.857h2.947a.247.247,0,0,1,.247.247v3.706a.247.247,0,0,1-.247.247H16.635a.265.265,0,0,1-.264-.247V252.1A.265.265,0,0,1,16.635,251.857Zm5.047,0h2.859a.247.247,0,0,1,.247.247h0v3.706a.247.247,0,0,1-.247.247H21.682a.248.248,0,0,1-.247-.247h0V252.1a.248.248,0,0,1,.247-.247Zm5.047,0h2.859a.265.265,0,0,1,.265.247v3.706a.265.265,0,0,1-.265.247H26.729a.248.248,0,0,1-.247-.247h0V252.1a.248.248,0,0,1,.247-.247ZM16.635,258.58h2.947a.247.247,0,0,1,.247.247v3.706a.263.263,0,0,1-.247.265H16.635a.265.265,0,0,1-.264-.265v-3.706A.265.265,0,0,1,16.635,258.58Zm5.047,0h2.859a.247.247,0,0,1,.247.247h0v3.706a.265.265,0,0,1-.247.265H21.682a.265.265,0,0,1-.247-.265v-3.706a.248.248,0,0,1,.247-.247Zm5.047,0h2.859a.265.265,0,0,1,.265.247v3.706a.265.265,0,0,1-.265.265H26.729a.265.265,0,0,1-.247-.265v-3.706a.248.248,0,0,1,.247-.247Zm-10.094,6.741h2.947a.247.247,0,0,1,.247.248h0v3.7a.246.246,0,0,1-.247.247H16.635a.263.263,0,0,1-.264-.247V265.5A.266.266,0,0,1,16.635,265.321Zm5.047,0h2.859a.247.247,0,0,1,.322.135.225.225,0,0,1,.013.042V269.2a.247.247,0,0,1-.247.247H21.682a.248.248,0,0,1-.247-.247h0V265.5A.247.247,0,0,1,21.682,265.321Zm0,6.724h2.859a.247.247,0,0,1,.247.247h0v5.559a.247.247,0,0,1-.247.247H21.682a.248.248,0,0,1-.247-.247v-5.559A.248.248,0,0,1,21.682,272.045Zm5.047-6.724h2.859a.265.265,0,0,1,.265.248v3.7a.263.263,0,0,1-.265.247H26.729a.247.247,0,0,1-.247-.247h0V265.5A.247.247,0,0,1,26.729,265.321Z" fill="#f2f2f2"/>
    </g>
    <g>
      <line x1="141.888" y1="117.395" x2="125.27" y2="117.395" fill="none" stroke="#3c3c41" stroke-miterlimit="10"/>
      <polygon points="126.365 113.655 119.888 117.395 126.365 121.135 126.365 113.655" fill="#3c3c41"/>
    </g>
    <g>
      <line x1="141.888" y1="82.272" x2="125.27" y2="82.272" fill="none" stroke="#3c3c41" stroke-miterlimit="10"/>
      <polygon points="126.365 78.532 119.888 82.272 126.365 86.012 126.365 78.532" fill="#3c3c41"/>
    </g>
    <g>
      <rect x="312.236" y="14.945" width="167.114" height="132.338" fill="#fff"/>
      <rect x="312.236" y="14.945" width="167.114" height="132.338" opacity="0.4" fill="url(#Blue_Gradient_2)"/>
      <path d="M479.1,15.2V147.033H312.486V15.2H479.1m.5-.5H311.986V147.533H479.6V14.7Z" fill="#fff"/>
    </g>
    <g>
      <path d="M315.325,8.218a1.3,1.3,0,0,1,1.232-.885h8.167l-8.477,25.116a1.3,1.3,0,0,1-1.231.884H308.66a1.3,1.3,0,0,1-1.232-1.716Z" fill="url(#linear-gradient-5)"/>
      <path d="M328.381,24.233h-12.87a.6.6,0,0,0-.407,1.032l8.27,7.719a1.3,1.3,0,0,0,.887.349h7.288Z" fill="#0078d4"/>
      <path d="M324.724,7.333h-9.1l-8.775,26h9.1l1.868-5.536,5.932,5.536h7.8l-3.168-9.1H319.02Z" fill="url(#linear-gradient-6)"/>
      <path d="M326.972,8.218a1.3,1.3,0,0,0-1.231-.885h-9.1a1.3,1.3,0,0,1,1.231.885l7.9,23.4a1.3,1.3,0,0,1-1.232,1.716h9.1a1.3,1.3,0,0,0,1.232-1.716Z" fill="url(#linear-gradient-7)"/>
    </g>
    <g>
      <rect x="346.201" y="24.658" width="116.762" height="109.55" fill="#fff"/>
      <path d="M462.838,24.783v109.3H346.326V24.783H462.838m.25-.25H346.076v109.8H463.088V24.533Z" fill="#499bd5"/>
    </g>
    <g id="f12b48ce-114c-4425-96be-0112b3f7d9c3">
      <g>
        <path d="M384.627,99.083h37.3v20.794a1.247,1.247,0,0,1-1.247,1.247h-34.8a1.247,1.247,0,0,1-1.247-1.247V99.083Z" fill="url(#linear-gradient-8)"/>
        <path d="M385.881,91.133h34.791a1.248,1.248,0,0,1,1.254,1.24v6.71h-37.3v-6.7a1.247,1.247,0,0,1,1.242-1.252Z" fill="#198ab3"/>
        <path d="M384.627,99.083H394.4v22.041h-8.528a1.24,1.24,0,0,1-1.249-1.231V99.083Z" fill="#9cebff"/>
        <path d="M394.4,116.294h27.522v3.6a1.24,1.24,0,0,1-1.24,1.24H394.4v-4.839Z" fill="#32bedd"/>
      </g>
    </g>
    <g>
      <path d="M385.2,178.649h35.971c.466,0,.844.144.844.322v23.1c0,.177-.378.321-.844.321H385.2c-.466,0-.843-.144-.843-.321V178.971C384.355,178.793,384.732,178.649,385.2,178.649Z" fill-opacity="0.5" fill="url(#linear-gradient-9)"/>
      <g>
        <path d="M385.323,180.262a.834.834,0,0,1,.833-.835H420.4a.834.834,0,0,1,.833.835v20.254a.834.834,0,0,1-.833.835H386.156a.834.834,0,0,1-.833-.835Zm-1.892-.972v22.155a1.792,1.792,0,0,0,1.789,1.794h36.112a1.793,1.793,0,0,0,1.79-1.794V179.29a1.793,1.793,0,0,0-1.79-1.794H385.22A1.792,1.792,0,0,0,383.431,179.29Z" fill="#191a1e" fill-rule="evenodd"/>
        <path d="M381.972,205.146h42.609a.475.475,0,0,1,.474.476v1.4a.475.475,0,0,1-.474.475H381.972a.475.475,0,0,1-.475-.475v-1.4A.476.476,0,0,1,381.972,205.146Z" fill="#191a1e" fill-rule="evenodd"/>
        <path d="M398.416,205.981h9.72a.137.137,0,0,1,.137.138v.4a.138.138,0,0,1-.137.139h-9.72a.138.138,0,0,1-.137-.139v-.4A.137.137,0,0,1,398.416,205.981Z" fill="#fff" fill-rule="evenodd"/>
      </g>
    </g>
    <g>
      <line x1="403.276" y1="173.933" x2="403.276" y2="139.715" fill="none" stroke="#3c3c41" stroke-miterlimit="10"/>
      <polygon points="407.016 140.81 403.276 134.333 399.537 140.81 407.016 140.81" fill="#3c3c41"/>
    </g>
    <g>
      <path d="M261.071,191.733h61.541a5.015,5.015,0,0,0,5-5V152.915" fill="none" stroke="#3c3c41" stroke-miterlimit="10"/>
      <polygon points="331.352 154.01 327.612 147.533 323.872 154.01 331.352 154.01" fill="#3c3c41"/>
    </g>
    <g>
      <g>
        <line x1="337.106" y1="74.8" x2="260.688" y2="74.8" fill="none" stroke-miterlimit="10" stroke-width="2.5" stroke="url(#linear-gradient-10)"/>
        <polygon points="335.282 68.567 346.076 74.8 335.282 81.033 335.282 68.567" fill="url(#linear-gradient-10)"/>
      </g>
      <g>
        <line x1="346.076" y1="82.272" x2="269.658" y2="82.272" fill="none" stroke-miterlimit="10" stroke-width="2.5" stroke="url(#linear-gradient-12)"/>
        <polygon points="271.482 76.039 260.688 82.272 271.482 88.505 271.482 76.039" fill="url(#linear-gradient-12)"/>
      </g>
    </g>
  </g>
  <g id="Text">
    <g>
      <path d="M43.065,279.7a4.3,4.3,0,0,1-3.339-1.374,5.1,5.1,0,0,1-1.254-3.575,5.4,5.4,0,0,1,1.278-3.773,4.465,4.465,0,0,1,3.479-1.409,4.206,4.206,0,0,1,3.272,1.368,5.114,5.114,0,0,1,1.24,3.575A5.422,5.422,0,0,1,46.47,278.3,4.386,4.386,0,0,1,43.065,279.7Zm.082-9.092a3.159,3.159,0,0,0-2.508,1.115,4.956,4.956,0,0,0-.024,5.841,3.063,3.063,0,0,0,2.45,1.1,3.216,3.216,0,0,0,2.543-1.053,4.3,4.3,0,0,0,.93-2.946,4.5,4.5,0,0,0-.9-3A3.094,3.094,0,0,0,43.147,270.605Z" fill="#2f2f2f"/>
      <path d="M55.318,279.533H54.2v-3.992q0-2.229-1.627-2.229a1.765,1.765,0,0,0-1.391.633,2.341,2.341,0,0,0-.55,1.6v3.992H49.508v-7h1.121V273.7h.027a2.526,2.526,0,0,1,2.3-1.326,2.141,2.141,0,0,1,1.757.742,3.307,3.307,0,0,1,.608,2.143Z" fill="#2f2f2f"/>
      <path d="M60.927,276.074H57.194v-.882h3.733Z" fill="#2f2f2f"/>
      <path d="M63.984,278.521h-.027v4.232H62.836v-10.22h1.121v1.231h.027a2.65,2.65,0,0,1,2.42-1.395,2.563,2.563,0,0,1,2.112.94,3.891,3.891,0,0,1,.759,2.519,4.343,4.343,0,0,1-.854,2.813,2.848,2.848,0,0,1-2.338,1.056A2.342,2.342,0,0,1,63.984,278.521Zm-.027-2.823v.978a2.081,2.081,0,0,0,.563,1.473,2.013,2.013,0,0,0,3.029-.174,3.577,3.577,0,0,0,.578-2.167,2.83,2.83,0,0,0-.54-1.833,1.792,1.792,0,0,0-1.463-.663,1.984,1.984,0,0,0-1.572.681A2.494,2.494,0,0,0,63.957,275.7Z" fill="#2f2f2f"/>
      <path d="M74.642,273.668a1.365,1.365,0,0,0-.847-.226,1.431,1.431,0,0,0-1.2.677,3.123,3.123,0,0,0-.482,1.846v3.568H70.992v-7h1.121v1.442h.028a2.44,2.44,0,0,1,.731-1.151,1.665,1.665,0,0,1,1.1-.414,1.822,1.822,0,0,1,.669.1Z" fill="#2f2f2f"/>
      <path d="M81.485,276.313H76.543a2.608,2.608,0,0,0,.629,1.805,2.165,2.165,0,0,0,1.654.636A3.444,3.444,0,0,0,81,277.975v1.052a4.061,4.061,0,0,1-2.441.67,2.96,2.96,0,0,1-2.331-.953,3.906,3.906,0,0,1-.847-2.684,3.824,3.824,0,0,1,.926-2.662,2.97,2.97,0,0,1,2.3-1.029,2.631,2.631,0,0,1,2.126.889,3.705,3.705,0,0,1,.752,2.467Zm-1.148-.95a2.282,2.282,0,0,0-.469-1.511,1.6,1.6,0,0,0-1.281-.54,1.809,1.809,0,0,0-1.347.568,2.562,2.562,0,0,0-.683,1.483Z" fill="#2f2f2f"/>
      <path d="M93.107,279.533H91.986v-4.019a3.036,3.036,0,0,0-.358-1.682,1.363,1.363,0,0,0-1.207-.52,1.493,1.493,0,0,0-1.22.657,2.508,2.508,0,0,0-.5,1.572v3.992H87.577v-4.156q0-2.065-1.593-2.065a1.476,1.476,0,0,0-1.217.619,2.564,2.564,0,0,0-.478,1.61v3.992H83.168v-7h1.121v1.108h.027a2.379,2.379,0,0,1,2.174-1.272,2.024,2.024,0,0,1,1.983,1.449,2.5,2.5,0,0,1,2.324-1.449q2.311,0,2.31,2.851Z" fill="#2f2f2f"/>
      <path d="M95.7,270.756a.713.713,0,0,1-.513-.2.693.693,0,0,1-.211-.52.716.716,0,0,1,.724-.731.724.724,0,0,1,.523.208.731.731,0,0,1,0,1.036A.72.72,0,0,1,95.7,270.756Zm.547,8.777H95.122v-7h1.121Z" fill="#2f2f2f"/>
      <path d="M97.96,279.28v-1.2a3.315,3.315,0,0,0,2.016.677q1.477,0,1.477-.985a.848.848,0,0,0-.127-.475,1.245,1.245,0,0,0-.342-.345,2.6,2.6,0,0,0-.506-.27c-.193-.079-.4-.163-.625-.249a7.918,7.918,0,0,1-.817-.373,2.476,2.476,0,0,1-.588-.424,1.583,1.583,0,0,1-.355-.536,1.917,1.917,0,0,1-.119-.7,1.674,1.674,0,0,1,.225-.871,2,2,0,0,1,.6-.636,2.779,2.779,0,0,1,.857-.386,3.831,3.831,0,0,1,1-.13,4.009,4.009,0,0,1,1.627.315v1.134a3.171,3.171,0,0,0-1.777-.506,2.071,2.071,0,0,0-.568.072,1.382,1.382,0,0,0-.434.2.93.93,0,0,0-.28.311.818.818,0,0,0-.1.4.961.961,0,0,0,.1.458,1.008,1.008,0,0,0,.291.328,2.215,2.215,0,0,0,.464.26q.273.115.623.253a8.823,8.823,0,0,1,.834.365,2.884,2.884,0,0,1,.628.424,1.653,1.653,0,0,1,.4.544,1.74,1.74,0,0,1,.14.731,1.721,1.721,0,0,1-.229.9,1.942,1.942,0,0,1-.611.636,2.808,2.808,0,0,1-.882.376,4.362,4.362,0,0,1-1.046.123A3.967,3.967,0,0,1,97.96,279.28Z" fill="#2f2f2f"/>
      <path d="M109.915,276.313h-4.942a2.612,2.612,0,0,0,.628,1.805,2.169,2.169,0,0,0,1.655.636,3.446,3.446,0,0,0,2.174-.779v1.052a4.063,4.063,0,0,1-2.441.67,2.96,2.96,0,0,1-2.331-.953,3.907,3.907,0,0,1-.848-2.684,3.829,3.829,0,0,1,.926-2.662,2.972,2.972,0,0,1,2.3-1.029,2.631,2.631,0,0,1,2.126.889,3.705,3.705,0,0,1,.752,2.467Zm-1.149-.95a2.282,2.282,0,0,0-.468-1.511,1.6,1.6,0,0,0-1.282-.54,1.807,1.807,0,0,0-1.346.568,2.57,2.57,0,0,0-.684,1.483Z" fill="#2f2f2f"/>
      <path d="M111.157,279.28v-1.2a3.316,3.316,0,0,0,2.017.677q1.476,0,1.476-.985a.848.848,0,0,0-.127-.475,1.255,1.255,0,0,0-.341-.345,2.665,2.665,0,0,0-.506-.27c-.194-.079-.4-.163-.625-.249a7.942,7.942,0,0,1-.818-.373,2.5,2.5,0,0,1-.588-.424,1.583,1.583,0,0,1-.355-.536,1.917,1.917,0,0,1-.119-.7,1.674,1.674,0,0,1,.225-.871,2.006,2.006,0,0,1,.6-.636,2.779,2.779,0,0,1,.857-.386,3.842,3.842,0,0,1,.995-.13,4.009,4.009,0,0,1,1.627.315v1.134a3.171,3.171,0,0,0-1.777-.506,2.064,2.064,0,0,0-.567.072,1.387,1.387,0,0,0-.435.2.93.93,0,0,0-.28.311.818.818,0,0,0-.1.4.961.961,0,0,0,.1.458,1.008,1.008,0,0,0,.291.328,2.2,2.2,0,0,0,.465.26c.181.077.389.161.622.253a8.711,8.711,0,0,1,.834.365,2.916,2.916,0,0,1,.629.424,1.65,1.65,0,0,1,.4.544,1.74,1.74,0,0,1,.141.731,1.712,1.712,0,0,1-.23.9,1.942,1.942,0,0,1-.611.636,2.808,2.808,0,0,1-.882.376,4.362,4.362,0,0,1-1.046.123A3.967,3.967,0,0,1,111.157,279.28Z" fill="#2f2f2f"/>
    </g>
    <g>
      <path d="M37.587,45.7H36.445V39.12q0-.78.1-1.907h-.027a6.1,6.1,0,0,1-.294.95L32.87,45.7h-.561l-3.342-7.478a5.821,5.821,0,0,1-.294-1.005h-.028q.055.588.055,1.921V45.7H27.593v-9.8H29.11l3.008,6.836a8.738,8.738,0,0,1,.451,1.176h.041c.2-.537.354-.939.472-1.2l3.069-6.809h1.436Z" fill="#2f2f2f"/>
      <path d="M44.9,45.7H43.78V44.6h-.027A2.346,2.346,0,0,1,41.6,45.86a2.3,2.3,0,0,1-1.636-.553,1.917,1.917,0,0,1-.592-1.47q0-1.962,2.311-2.283l2.1-.294q0-1.785-1.442-1.785a3.446,3.446,0,0,0-2.283.862V39.188a4.34,4.34,0,0,1,2.378-.656q2.469,0,2.468,2.611ZM43.78,42.155l-1.688.233a2.726,2.726,0,0,0-1.176.386,1.112,1.112,0,0,0-.4.981,1.066,1.066,0,0,0,.366.837,1.412,1.412,0,0,0,.974.325,1.8,1.8,0,0,0,1.377-.585,2.083,2.083,0,0,0,.544-1.48Z" fill="#2f2f2f"/>
      <path d="M52.733,45.7H51.612V41.7q0-2.229-1.627-2.229a1.761,1.761,0,0,0-1.39.633,2.336,2.336,0,0,0-.551,1.6V45.7H46.923v-7h1.121v1.162h.027a2.526,2.526,0,0,1,2.3-1.326,2.139,2.139,0,0,1,1.757.742,3.307,3.307,0,0,1,.608,2.143Z" fill="#2f2f2f"/>
      <path d="M59.765,45.7H58.643V44.6h-.027a2.345,2.345,0,0,1-2.153,1.258,2.3,2.3,0,0,1-1.637-.553,1.921,1.921,0,0,1-.592-1.47q0-1.962,2.311-2.283l2.1-.294q0-1.785-1.442-1.785a3.447,3.447,0,0,0-2.283.862V39.188a4.342,4.342,0,0,1,2.379-.656q2.468,0,2.468,2.611Zm-1.122-3.541-1.688.233a2.726,2.726,0,0,0-1.176.386,1.114,1.114,0,0,0-.4.981,1.069,1.069,0,0,0,.365.837,1.413,1.413,0,0,0,.975.325,1.8,1.8,0,0,0,1.376-.585,2.079,2.079,0,0,0,.544-1.48Z" fill="#2f2f2f"/>
      <path d="M67.834,45.136q0,3.855-3.692,3.855a4.955,4.955,0,0,1-2.269-.492V47.378a4.664,4.664,0,0,0,2.256.656q2.583,0,2.584-2.748V44.52h-.028a2.831,2.831,0,0,1-4.507.407,3.724,3.724,0,0,1-.8-2.505,4.363,4.363,0,0,1,.857-2.837,2.868,2.868,0,0,1,2.349-1.053,2.282,2.282,0,0,1,2.1,1.135h.028V38.7h1.121Zm-1.121-2.605V41.5a2,2,0,0,0-.565-1.429,1.855,1.855,0,0,0-1.4-.595,1.947,1.947,0,0,0-1.627.756,3.371,3.371,0,0,0-.588,2.116,2.887,2.887,0,0,0,.565,1.869,1.817,1.817,0,0,0,1.493.7,1.948,1.948,0,0,0,1.534-.67A2.5,2.5,0,0,0,66.713,42.531Z" fill="#2f2f2f"/>
      <path d="M75.655,42.476H70.713a2.612,2.612,0,0,0,.629,1.8A2.167,2.167,0,0,0,73,44.917a3.444,3.444,0,0,0,2.174-.779V45.19a4.061,4.061,0,0,1-2.441.67,2.962,2.962,0,0,1-2.331-.953,3.905,3.905,0,0,1-.847-2.683,3.829,3.829,0,0,1,.925-2.663,2.973,2.973,0,0,1,2.3-1.029,2.633,2.633,0,0,1,2.126.889,3.706,3.706,0,0,1,.752,2.468Zm-1.148-.95a2.283,2.283,0,0,0-.468-1.51,1.6,1.6,0,0,0-1.282-.541,1.809,1.809,0,0,0-1.347.568,2.576,2.576,0,0,0-.684,1.483Z" fill="#2f2f2f"/>
      <path d="M87.277,45.7H86.156V41.677a3.026,3.026,0,0,0-.359-1.682,1.361,1.361,0,0,0-1.206-.52,1.491,1.491,0,0,0-1.22.657,2.5,2.5,0,0,0-.5,1.572V45.7H81.747V41.54q0-2.066-1.593-2.065a1.479,1.479,0,0,0-1.217.619,2.558,2.558,0,0,0-.478,1.61V45.7H77.338v-7h1.121V39.8h.027a2.379,2.379,0,0,1,2.174-1.272,2.021,2.021,0,0,1,1.982,1.449,2.5,2.5,0,0,1,2.325-1.449q2.31,0,2.31,2.851Z" fill="#2f2f2f"/>
      <path d="M94.984,42.476H90.042a2.612,2.612,0,0,0,.629,1.8,2.167,2.167,0,0,0,1.654.636,3.444,3.444,0,0,0,2.174-.779V45.19a4.061,4.061,0,0,1-2.441.67,2.962,2.962,0,0,1-2.331-.953,3.905,3.905,0,0,1-.847-2.683,3.825,3.825,0,0,1,.926-2.663,2.97,2.97,0,0,1,2.3-1.029,2.633,2.633,0,0,1,2.126.889,3.706,3.706,0,0,1,.752,2.468Zm-1.148-.95a2.283,2.283,0,0,0-.468-1.51,1.6,1.6,0,0,0-1.282-.541,1.81,1.81,0,0,0-1.347.568,2.569,2.569,0,0,0-.683,1.483Z" fill="#2f2f2f"/>
      <path d="M102.477,45.7h-1.121V41.7q0-2.229-1.627-2.229a1.761,1.761,0,0,0-1.39.633,2.341,2.341,0,0,0-.551,1.6V45.7H96.667v-7h1.121v1.162h.027a2.527,2.527,0,0,1,2.3-1.326,2.139,2.139,0,0,1,1.757.742,3.307,3.307,0,0,1,.608,2.143Z" fill="#2f2f2f"/>
      <path d="M107.707,45.628a2.162,2.162,0,0,1-1.046.219q-1.839,0-1.839-2.051V39.653h-1.2V38.7h1.2V36.987l1.121-.362V38.7h1.764v.957h-1.764V43.6a1.628,1.628,0,0,0,.24,1,.951.951,0,0,0,.792.3,1.179,1.179,0,0,0,.732-.232Z" fill="#2f2f2f"/>
      <path d="M53.433,61.484h-.028v4.232H52.284V55.5h1.121v1.23h.028a2.651,2.651,0,0,1,2.419-1.394,2.563,2.563,0,0,1,2.113.94,3.891,3.891,0,0,1,.759,2.519,4.343,4.343,0,0,1-.855,2.813,2.844,2.844,0,0,1-2.338,1.056A2.341,2.341,0,0,1,53.433,61.484Zm-.028-2.823v.978a2.08,2.08,0,0,0,.565,1.473A2.01,2.01,0,0,0,57,60.937a3.566,3.566,0,0,0,.578-2.167,2.823,2.823,0,0,0-.54-1.832,1.788,1.788,0,0,0-1.463-.663,1.987,1.987,0,0,0-1.572.68A2.5,2.5,0,0,0,53.405,58.661Z" fill="#2f2f2f"/>
      <path d="M63.43,62.66a3.249,3.249,0,0,1-2.479-.981,3.636,3.636,0,0,1-.926-2.6,3.788,3.788,0,0,1,.964-2.755,3.47,3.47,0,0,1,2.605-.991,3.135,3.135,0,0,1,2.443.964,3.818,3.818,0,0,1,.879,2.673,3.764,3.764,0,0,1-.947,2.683A3.318,3.318,0,0,1,63.43,62.66Zm.082-6.385a2.132,2.132,0,0,0-1.709.735,3.021,3.021,0,0,0-.629,2.027A2.858,2.858,0,0,0,61.809,61a2.164,2.164,0,0,0,1.7.718,2.051,2.051,0,0,0,1.671-.7,3.062,3.062,0,0,0,.584-2,3.113,3.113,0,0,0-.584-2.024A2.041,2.041,0,0,0,63.512,56.275Z" fill="#2f2f2f"/>
      <path d="M69.16,53.719a.716.716,0,0,1-.513-.2.694.694,0,0,1-.212-.52.717.717,0,0,1,.725-.731.724.724,0,0,1,.523.208.731.731,0,0,1,0,1.036A.72.72,0,0,1,69.16,53.719Zm.547,8.777H68.586v-7h1.121Z" fill="#2f2f2f"/>
      <path d="M77.636,62.5H76.515V58.5q0-2.229-1.627-2.229a1.762,1.762,0,0,0-1.391.633,2.341,2.341,0,0,0-.551,1.6V62.5H71.825v-7h1.121v1.162h.028a2.524,2.524,0,0,1,2.3-1.326,2.139,2.139,0,0,1,1.757.742,3.3,3.3,0,0,1,.609,2.143Z" fill="#2f2f2f"/>
      <path d="M82.865,62.428a2.162,2.162,0,0,1-1.046.218q-1.838,0-1.839-2.05V56.453h-1.2V55.5h1.2V53.787l1.121-.362V55.5h1.764v.957H81.1V60.4a1.636,1.636,0,0,0,.24,1.005.953.953,0,0,0,.793.3,1.184,1.184,0,0,0,.731-.232Z" fill="#2f2f2f"/>
    </g>
    <g>
      <path d="M180.235,166.3v-1.354a2.624,2.624,0,0,0,.558.369,4.375,4.375,0,0,0,.683.277,5.645,5.645,0,0,0,.721.175,4.015,4.015,0,0,0,.67.061,2.622,2.622,0,0,0,1.582-.393,1.326,1.326,0,0,0,.524-1.131,1.34,1.34,0,0,0-.174-.691,1.968,1.968,0,0,0-.483-.536,4.718,4.718,0,0,0-.728-.465q-.42-.222-.905-.469-.513-.26-.958-.526a4.169,4.169,0,0,1-.772-.588,2.441,2.441,0,0,1-.516-.728,2.481,2.481,0,0,1,.106-2.119,2.513,2.513,0,0,1,.772-.817,3.523,3.523,0,0,1,1.091-.478,4.974,4.974,0,0,1,1.247-.158,4.793,4.793,0,0,1,2.113.349v1.292a3.833,3.833,0,0,0-2.229-.6,3.7,3.7,0,0,0-.752.079,2.123,2.123,0,0,0-.67.256,1.485,1.485,0,0,0-.478.458,1.218,1.218,0,0,0-.185.684,1.409,1.409,0,0,0,.14.649,1.566,1.566,0,0,0,.414.5,4.045,4.045,0,0,0,.666.438q.393.212.906.465t1,.547a4.54,4.54,0,0,1,.827.635,2.809,2.809,0,0,1,.564.773,2.173,2.173,0,0,1,.209.971,2.466,2.466,0,0,1-.284,1.227,2.34,2.34,0,0,1-.765.817,3.366,3.366,0,0,1-1.111.454,6.115,6.115,0,0,1-1.327.14,5.4,5.4,0,0,1-.574-.037c-.227-.025-.46-.062-.7-.11a5.916,5.916,0,0,1-.674-.177A2.153,2.153,0,0,1,180.235,166.3Z" fill="#2f2f2f"/>
      <path d="M193.558,163.476h-4.943a2.622,2.622,0,0,0,.629,1.805,2.167,2.167,0,0,0,1.654.636,3.444,3.444,0,0,0,2.174-.779v1.052a4.06,4.06,0,0,1-2.44.67,2.959,2.959,0,0,1-2.331-.953,3.9,3.9,0,0,1-.848-2.683,3.83,3.83,0,0,1,.926-2.663,2.972,2.972,0,0,1,2.3-1.029,2.633,2.633,0,0,1,2.126.889,3.706,3.706,0,0,1,.752,2.468Zm-1.149-.95a2.283,2.283,0,0,0-.468-1.51,1.6,1.6,0,0,0-1.282-.541,1.812,1.812,0,0,0-1.347.568,2.575,2.575,0,0,0-.683,1.483Z" fill="#2f2f2f"/>
      <path d="M198.891,160.831a1.377,1.377,0,0,0-.848-.226,1.428,1.428,0,0,0-1.2.677,3.118,3.118,0,0,0-.483,1.846V166.7H195.24v-7h1.121v1.443h.028a2.439,2.439,0,0,1,.731-1.152,1.667,1.667,0,0,1,1.1-.414,1.828,1.828,0,0,1,.67.1Z" fill="#2f2f2f"/>
      <path d="M206.163,159.7l-2.789,7h-1.1l-2.652-7h1.23l1.778,5.086a4.587,4.587,0,0,1,.246.978h.027a4.615,4.615,0,0,1,.219-.951l1.859-5.113Z" fill="#2f2f2f"/>
      <path d="M207.978,157.919a.712.712,0,0,1-.512-.205.69.69,0,0,1-.212-.52.717.717,0,0,1,.724-.731.728.728,0,0,1,.524.208.731.731,0,0,1,0,1.036A.724.724,0,0,1,207.978,157.919Zm.547,8.777H207.4v-7h1.121Z" fill="#2f2f2f"/>
      <path d="M215.437,166.375a3.637,3.637,0,0,1-1.914.485,3.166,3.166,0,0,1-2.416-.974,3.529,3.529,0,0,1-.92-2.526,3.877,3.877,0,0,1,.992-2.779,3.47,3.47,0,0,1,2.645-1.049,3.683,3.683,0,0,1,1.627.342v1.148a2.852,2.852,0,0,0-1.668-.547,2.251,2.251,0,0,0-1.76.77,2.912,2.912,0,0,0-.687,2.02,2.777,2.777,0,0,0,.646,1.941,2.225,2.225,0,0,0,1.733.711,2.813,2.813,0,0,0,1.722-.608Z" fill="#2f2f2f"/>
      <path d="M222.607,163.476h-4.942a2.612,2.612,0,0,0,.629,1.805,2.167,2.167,0,0,0,1.654.636,3.444,3.444,0,0,0,2.174-.779v1.052a4.06,4.06,0,0,1-2.44.67,2.962,2.962,0,0,1-2.332-.953,3.905,3.905,0,0,1-.847-2.683,3.825,3.825,0,0,1,.926-2.663,2.97,2.97,0,0,1,2.3-1.029,2.633,2.633,0,0,1,2.126.889,3.706,3.706,0,0,1,.752,2.468Zm-1.148-.95a2.283,2.283,0,0,0-.468-1.51,1.6,1.6,0,0,0-1.282-.541,1.81,1.81,0,0,0-1.347.568,2.575,2.575,0,0,0-.683,1.483Z" fill="#2f2f2f"/>
      <path d="M173.123,183.175a3.649,3.649,0,0,1-1.914.485,3.168,3.168,0,0,1-2.416-.974,3.529,3.529,0,0,1-.92-2.526,3.881,3.881,0,0,1,.991-2.779,3.47,3.47,0,0,1,2.646-1.049,3.683,3.683,0,0,1,1.627.342v1.148a2.85,2.85,0,0,0-1.668-.547,2.254,2.254,0,0,0-1.76.769,2.914,2.914,0,0,0-.688,2.02,2.773,2.773,0,0,0,.647,1.942,2.224,2.224,0,0,0,1.732.711,2.809,2.809,0,0,0,1.723-.609Z" fill="#2f2f2f"/>
      <path d="M177.563,183.66a3.248,3.248,0,0,1-2.478-.981,3.636,3.636,0,0,1-.926-2.6,3.784,3.784,0,0,1,.964-2.755,3.469,3.469,0,0,1,2.6-.991,3.137,3.137,0,0,1,2.444.964,3.818,3.818,0,0,1,.879,2.673,3.76,3.76,0,0,1-.948,2.683A3.315,3.315,0,0,1,177.563,183.66Zm.082-6.385a2.133,2.133,0,0,0-1.709.735,3.02,3.02,0,0,0-.628,2.027,2.853,2.853,0,0,0,.635,1.962,2.162,2.162,0,0,0,1.7.718,2.052,2.052,0,0,0,1.672-.7,3.062,3.062,0,0,0,.584-2,3.113,3.113,0,0,0-.584-2.024A2.042,2.042,0,0,0,177.645,177.275Z" fill="#2f2f2f"/>
      <path d="M188.576,183.5h-1.121V179.5q0-2.229-1.627-2.229a1.763,1.763,0,0,0-1.391.633,2.341,2.341,0,0,0-.55,1.6V183.5h-1.121v-7h1.121v1.162h.027a2.526,2.526,0,0,1,2.3-1.326,2.142,2.142,0,0,1,1.757.742,3.307,3.307,0,0,1,.608,2.143Z" fill="#2f2f2f"/>
      <path d="M196.409,183.5h-1.121V179.5q0-2.229-1.627-2.229a1.763,1.763,0,0,0-1.391.633,2.341,2.341,0,0,0-.55,1.6V183.5H190.6v-7h1.121v1.162h.027a2.526,2.526,0,0,1,2.3-1.326,2.142,2.142,0,0,1,1.757.742,3.307,3.307,0,0,1,.608,2.143Z" fill="#2f2f2f"/>
      <path d="M204.112,180.276H199.17a2.612,2.612,0,0,0,.629,1.8,2.167,2.167,0,0,0,1.654.636,3.439,3.439,0,0,0,2.174-.78v1.053a4.061,4.061,0,0,1-2.441.67,2.959,2.959,0,0,1-2.331-.954,3.9,3.9,0,0,1-.847-2.683,3.828,3.828,0,0,1,.925-2.662,2.973,2.973,0,0,1,2.3-1.029,2.63,2.63,0,0,1,2.126.889,3.705,3.705,0,0,1,.752,2.467Zm-1.148-.95a2.288,2.288,0,0,0-.468-1.511,1.6,1.6,0,0,0-1.282-.54,1.809,1.809,0,0,0-1.347.568,2.576,2.576,0,0,0-.684,1.483Z" fill="#2f2f2f"/>
      <path d="M210.61,183.175a3.649,3.649,0,0,1-1.914.485,3.168,3.168,0,0,1-2.416-.974,3.529,3.529,0,0,1-.92-2.526,3.881,3.881,0,0,1,.991-2.779A3.472,3.472,0,0,1,209,176.332a3.683,3.683,0,0,1,1.627.342v1.148a2.848,2.848,0,0,0-1.668-.547,2.254,2.254,0,0,0-1.76.769,2.914,2.914,0,0,0-.687,2.02,2.778,2.778,0,0,0,.646,1.942,2.225,2.225,0,0,0,1.733.711,2.808,2.808,0,0,0,1.722-.609Z" fill="#2f2f2f"/>
      <path d="M215.773,183.428a2.159,2.159,0,0,1-1.046.218q-1.838,0-1.838-2.05v-4.143h-1.2V176.5h1.2v-1.709l1.121-.362V176.5h1.763v.957H214.01V181.4a1.637,1.637,0,0,0,.239,1,.953.953,0,0,0,.793.3,1.184,1.184,0,0,0,.731-.232Z" fill="#2f2f2f"/>
      <path d="M217.728,174.719a.712.712,0,0,1-.512-.2.69.69,0,0,1-.212-.52.717.717,0,0,1,.724-.731.728.728,0,0,1,.524.208.731.731,0,0,1,0,1.036A.724.724,0,0,1,217.728,174.719Zm.547,8.777h-1.121v-7h1.121Z" fill="#2f2f2f"/>
      <path d="M223.37,183.66a3.252,3.252,0,0,1-2.479-.981,3.635,3.635,0,0,1-.925-2.6,3.784,3.784,0,0,1,.964-2.755,3.466,3.466,0,0,1,2.6-.991,3.135,3.135,0,0,1,2.443.964,3.818,3.818,0,0,1,.879,2.673,3.759,3.759,0,0,1-.947,2.683A3.316,3.316,0,0,1,223.37,183.66Zm.082-6.385a2.132,2.132,0,0,0-1.709.735,3.021,3.021,0,0,0-.629,2.027A2.854,2.854,0,0,0,221.75,182a2.162,2.162,0,0,0,1.7.718,2.053,2.053,0,0,0,1.672-.7,3.062,3.062,0,0,0,.584-2,3.113,3.113,0,0,0-.584-2.024A2.043,2.043,0,0,0,223.452,177.275Z" fill="#2f2f2f"/>
      <path d="M234.382,183.5h-1.121V179.5q0-2.229-1.627-2.229a1.762,1.762,0,0,0-1.391.633,2.341,2.341,0,0,0-.551,1.6V183.5h-1.121v-7h1.121v1.162h.028a2.525,2.525,0,0,1,2.3-1.326,2.139,2.139,0,0,1,1.757.742,3.3,3.3,0,0,1,.609,2.143Z" fill="#2f2f2f"/>
      <path d="M187.532,199.285h-.027v4.231h-1.121V193.3h1.121v1.231h.027a2.652,2.652,0,0,1,2.42-1.395,2.565,2.565,0,0,1,2.112.94,3.892,3.892,0,0,1,.759,2.519,4.341,4.341,0,0,1-.854,2.813,2.846,2.846,0,0,1-2.338,1.056A2.343,2.343,0,0,1,187.532,199.285Zm-.027-2.824v.978a2.077,2.077,0,0,0,.564,1.473,2.012,2.012,0,0,0,3.028-.174,3.577,3.577,0,0,0,.578-2.167,2.821,2.821,0,0,0-.54-1.832,1.789,1.789,0,0,0-1.463-.663,1.986,1.986,0,0,0-1.573.68A2.5,2.5,0,0,0,187.505,196.461Z" fill="#2f2f2f"/>
      <path d="M197.529,200.46a3.248,3.248,0,0,1-2.478-.981,3.63,3.63,0,0,1-.926-2.6,3.785,3.785,0,0,1,.964-2.755,3.466,3.466,0,0,1,2.6-.991,3.14,3.14,0,0,1,2.444.964,3.822,3.822,0,0,1,.879,2.673,3.756,3.756,0,0,1-.948,2.683A3.316,3.316,0,0,1,197.529,200.46Zm.082-6.384a2.134,2.134,0,0,0-1.709.734,3.021,3.021,0,0,0-.629,2.027,2.852,2.852,0,0,0,.636,1.962,2.159,2.159,0,0,0,1.7.718,2.053,2.053,0,0,0,1.672-.7,3.058,3.058,0,0,0,.584-2,3.11,3.11,0,0,0-.584-2.023A2.04,2.04,0,0,0,197.611,194.076Z" fill="#2f2f2f"/>
      <path d="M203.26,191.519a.71.71,0,0,1-.513-.205.69.69,0,0,1-.212-.52.717.717,0,0,1,.725-.731.724.724,0,0,1,.523.208.7.7,0,0,1,.215.523.694.694,0,0,1-.215.513A.72.72,0,0,1,203.26,191.519Zm.547,8.777h-1.122v-7h1.122Z" fill="#2f2f2f"/>
      <path d="M211.735,200.3h-1.121V196.3q0-2.229-1.627-2.228a1.764,1.764,0,0,0-1.39.632,2.338,2.338,0,0,0-.551,1.6V200.3h-1.121v-7h1.121v1.162h.027a2.526,2.526,0,0,1,2.3-1.326,2.139,2.139,0,0,1,1.757.742,3.309,3.309,0,0,1,.608,2.143Z" fill="#2f2f2f"/>
      <path d="M216.965,200.228a2.164,2.164,0,0,1-1.046.219q-1.839,0-1.839-2.051v-4.143h-1.2V193.3h1.2v-1.709l1.121-.362V193.3h1.764v.957H215.2V198.2a1.641,1.641,0,0,0,.239,1,.956.956,0,0,0,.793.3,1.179,1.179,0,0,0,.732-.232Z" fill="#2f2f2f"/>
    </g>
    <g>
      <path d="M40.724,135.5v-1.354a2.664,2.664,0,0,0,.558.37,4.443,4.443,0,0,0,.684.276,5.278,5.278,0,0,0,.72.175,4.025,4.025,0,0,0,.67.061,2.62,2.62,0,0,0,1.582-.393,1.326,1.326,0,0,0,.524-1.131,1.343,1.343,0,0,0-.174-.691,1.979,1.979,0,0,0-.482-.536,4.779,4.779,0,0,0-.729-.465c-.279-.148-.582-.3-.905-.468q-.513-.261-.957-.527a4.1,4.1,0,0,1-.773-.588,2.456,2.456,0,0,1-.515-.728,2.476,2.476,0,0,1,.1-2.119,2.525,2.525,0,0,1,.773-.817,3.507,3.507,0,0,1,1.09-.478,4.985,4.985,0,0,1,1.247-.157,4.8,4.8,0,0,1,2.113.348v1.292a3.831,3.831,0,0,0-2.229-.6,3.693,3.693,0,0,0-.752.078,2.134,2.134,0,0,0-.67.257,1.475,1.475,0,0,0-.478.458,1.214,1.214,0,0,0-.185.683,1.413,1.413,0,0,0,.14.65,1.6,1.6,0,0,0,.414.5,4.154,4.154,0,0,0,.666.437c.263.141.564.3.906.465s.684.355,1,.547a4.5,4.5,0,0,1,.827.636,2.789,2.789,0,0,1,.564.772,2.16,2.16,0,0,1,.209.971,2.474,2.474,0,0,1-.283,1.227,2.352,2.352,0,0,1-.766.817,3.357,3.357,0,0,1-1.111.454,6.051,6.051,0,0,1-1.326.14,5.4,5.4,0,0,1-.575-.037c-.227-.025-.46-.062-.7-.11a5.526,5.526,0,0,1-.674-.177A2.153,2.153,0,0,1,40.724,135.5Z" fill="#2f2f2f"/>
      <path d="M51.347,136.06a3.249,3.249,0,0,1-2.479-.981,3.632,3.632,0,0,1-.926-2.6,3.785,3.785,0,0,1,.964-2.754,3.466,3.466,0,0,1,2.605-.992,3.138,3.138,0,0,1,2.443.964,3.822,3.822,0,0,1,.879,2.673,3.76,3.76,0,0,1-.947,2.683A3.314,3.314,0,0,1,51.347,136.06Zm.082-6.384a2.132,2.132,0,0,0-1.709.735,3.016,3.016,0,0,0-.629,2.026,2.856,2.856,0,0,0,.635,1.962,2.161,2.161,0,0,0,1.7.718,2.051,2.051,0,0,0,1.671-.7,3.058,3.058,0,0,0,.584-2,3.11,3.11,0,0,0-.584-2.023A2.041,2.041,0,0,0,51.429,129.676Z" fill="#2f2f2f"/>
      <path d="M59.9,126.517a1.494,1.494,0,0,0-.745-.184q-1.176,0-1.176,1.483v1.08h1.641v.957H57.981V135.9H56.867v-6.043h-1.2V128.9h1.2v-1.134a2.357,2.357,0,0,1,.636-1.74,2.146,2.146,0,0,1,1.586-.639,2.192,2.192,0,0,1,.813.123Z" fill="#2f2f2f"/>
      <path d="M64.538,135.828a2.162,2.162,0,0,1-1.046.219q-1.839,0-1.839-2.051v-4.143h-1.2V128.9h1.2v-1.709l1.121-.362V128.9h1.764v.957H62.774V133.8a1.633,1.633,0,0,0,.24,1,.954.954,0,0,0,.793.3,1.178,1.178,0,0,0,.731-.232Z" fill="#2f2f2f"/>
      <path d="M75.228,128.9l-2.1,7H71.968l-1.443-5.01a3.308,3.308,0,0,1-.109-.65h-.027a3.1,3.1,0,0,1-.144.636L68.68,135.9H67.558l-2.119-7h1.176l1.449,5.264a3.2,3.2,0,0,1,.1.629h.055a2.865,2.865,0,0,1,.123-.643l1.613-5.25h1.025l1.45,5.278a3.637,3.637,0,0,1,.1.629h.055a2.914,2.914,0,0,1,.116-.629l1.422-5.278Z" fill="#2f2f2f"/>
      <path d="M81.4,135.9H80.281V134.8h-.027A2.348,2.348,0,0,1,78.1,136.06a2.3,2.3,0,0,1-1.636-.553,1.916,1.916,0,0,1-.592-1.47q0-1.962,2.311-2.283l2.1-.294q0-1.785-1.442-1.784a3.445,3.445,0,0,0-2.283.861v-1.148a4.333,4.333,0,0,1,2.378-.657q2.469,0,2.468,2.612Zm-1.121-3.541-1.688.233a2.739,2.739,0,0,0-1.176.386,1.113,1.113,0,0,0-.4.981,1.066,1.066,0,0,0,.366.837,1.412,1.412,0,0,0,.974.325,1.8,1.8,0,0,0,1.377-.584,2.086,2.086,0,0,0,.544-1.48Z" fill="#2f2f2f"/>
      <path d="M87.074,130.031a1.373,1.373,0,0,0-.848-.225,1.429,1.429,0,0,0-1.2.676,3.127,3.127,0,0,0-.482,1.846V135.9H83.424v-7h1.121v1.443h.027a2.437,2.437,0,0,1,.732-1.152,1.666,1.666,0,0,1,1.1-.414,1.824,1.824,0,0,1,.67.1Z" fill="#2f2f2f"/>
      <path d="M93.917,132.677H88.974a2.619,2.619,0,0,0,.629,1.8,2.17,2.17,0,0,0,1.655.636,3.446,3.446,0,0,0,2.174-.779v1.053a4.07,4.07,0,0,1-2.441.669,2.957,2.957,0,0,1-2.331-.953,3.9,3.9,0,0,1-.848-2.683,3.83,3.83,0,0,1,.926-2.663,2.972,2.972,0,0,1,2.3-1.029,2.633,2.633,0,0,1,2.126.889,3.706,3.706,0,0,1,.752,2.468Zm-1.149-.951a2.285,2.285,0,0,0-.467-1.51,1.6,1.6,0,0,0-1.283-.54,1.811,1.811,0,0,0-1.346.567,2.579,2.579,0,0,0-.684,1.483Z" fill="#2f2f2f"/>
      <path d="M34.478,152.7H33.357v-1.107H33.33a2.3,2.3,0,0,1-2.16,1.271q-2.5,0-2.5-2.98V145.7h1.114V149.7q0,2.216,1.7,2.215a1.719,1.719,0,0,0,1.351-.6,2.315,2.315,0,0,0,.529-1.583V145.7h1.121Z" fill="#2f2f2f"/>
      <path d="M37.734,151.684h-.027v4.232H36.586V145.7h1.121v1.231h.027a2.652,2.652,0,0,1,2.42-1.395,2.563,2.563,0,0,1,2.112.94,3.892,3.892,0,0,1,.759,2.519,4.341,4.341,0,0,1-.854,2.813,2.846,2.846,0,0,1-2.338,1.056A2.342,2.342,0,0,1,37.734,151.684Zm-.027-2.823v.978a2.077,2.077,0,0,0,.564,1.473,2.012,2.012,0,0,0,3.028-.174,3.577,3.577,0,0,0,.578-2.167,2.819,2.819,0,0,0-.54-1.832,1.79,1.79,0,0,0-1.463-.664,1.985,1.985,0,0,0-1.572.681A2.494,2.494,0,0,0,37.707,148.861Z" fill="#2f2f2f"/>
      <path d="M50.81,152.7H49.689v-1.189h-.027a2.588,2.588,0,0,1-2.406,1.353,2.617,2.617,0,0,1-2.11-.94,3.862,3.862,0,0,1-.789-2.56,4.2,4.2,0,0,1,.875-2.782,2.887,2.887,0,0,1,2.331-1.046,2.246,2.246,0,0,1,2.1,1.135h.027v-4.334H50.81Zm-1.121-3.165V148.5a2,2,0,0,0-.56-1.436,1.881,1.881,0,0,0-1.422-.588,1.934,1.934,0,0,0-1.613.752,3.3,3.3,0,0,0-.588,2.079,2.957,2.957,0,0,0,.564,1.91,1.839,1.839,0,0,0,1.514.7,1.916,1.916,0,0,0,1.521-.677A2.524,2.524,0,0,0,49.689,149.531Z" fill="#2f2f2f"/>
      <path d="M57.968,152.7H56.847V151.6h-.028a2.345,2.345,0,0,1-2.153,1.258,2.3,2.3,0,0,1-1.637-.553,1.921,1.921,0,0,1-.592-1.47q0-1.962,2.311-2.283l2.1-.294q0-1.785-1.443-1.785a3.447,3.447,0,0,0-2.283.862v-1.149a4.342,4.342,0,0,1,2.379-.656q2.468,0,2.468,2.611Zm-1.121-3.541-1.689.233a2.73,2.73,0,0,0-1.176.386,1.114,1.114,0,0,0-.4.981,1.069,1.069,0,0,0,.365.837,1.413,1.413,0,0,0,.975.325,1.8,1.8,0,0,0,1.377-.585,2.083,2.083,0,0,0,.544-1.48Z" fill="#2f2f2f"/>
      <path d="M63.226,152.628a2.157,2.157,0,0,1-1.045.219q-1.839,0-1.839-2.051v-4.143h-1.2V145.7h1.2v-1.709l1.121-.362V145.7h1.763v.957H61.463V150.6a1.636,1.636,0,0,0,.239,1,.953.953,0,0,0,.793.3,1.178,1.178,0,0,0,.731-.232Z" fill="#2f2f2f"/>
      <path d="M70.219,149.476H65.276a2.622,2.622,0,0,0,.629,1.805,2.168,2.168,0,0,0,1.654.636,3.442,3.442,0,0,0,2.174-.779v1.052a4.058,4.058,0,0,1-2.44.67,2.96,2.96,0,0,1-2.331-.953,3.9,3.9,0,0,1-.848-2.683,3.83,3.83,0,0,1,.926-2.663,2.972,2.972,0,0,1,2.3-1.029,2.633,2.633,0,0,1,2.126.889,3.706,3.706,0,0,1,.752,2.468Zm-1.149-.95a2.283,2.283,0,0,0-.468-1.51,1.6,1.6,0,0,0-1.282-.541,1.808,1.808,0,0,0-1.346.568,2.57,2.57,0,0,0-.684,1.483Z" fill="#2f2f2f"/>
      <path d="M76.9,151.684H76.87v4.232H75.749V145.7H76.87v1.231H76.9a2.652,2.652,0,0,1,2.42-1.395,2.566,2.566,0,0,1,2.113.94,3.9,3.9,0,0,1,.758,2.519,4.341,4.341,0,0,1-.854,2.813A2.844,2.844,0,0,1,79,152.86,2.343,2.343,0,0,1,76.9,151.684Zm-.027-2.823v.978a2.082,2.082,0,0,0,.564,1.473,2.012,2.012,0,0,0,3.028-.174,3.57,3.57,0,0,0,.578-2.167,2.819,2.819,0,0,0-.54-1.832,1.789,1.789,0,0,0-1.463-.664,1.985,1.985,0,0,0-1.572.681A2.494,2.494,0,0,0,76.87,148.861Z" fill="#2f2f2f"/>
      <path d="M86.894,152.86a3.248,3.248,0,0,1-2.478-.981,3.636,3.636,0,0,1-.926-2.6,3.784,3.784,0,0,1,.964-2.755,3.469,3.469,0,0,1,2.6-.991,3.137,3.137,0,0,1,2.444.964,3.822,3.822,0,0,1,.879,2.673,3.756,3.756,0,0,1-.948,2.683A3.315,3.315,0,0,1,86.894,152.86Zm.082-6.385a2.136,2.136,0,0,0-1.709.735,3.026,3.026,0,0,0-.628,2.027,2.852,2.852,0,0,0,.635,1.962,2.16,2.16,0,0,0,1.7.718,2.052,2.052,0,0,0,1.672-.7,3.058,3.058,0,0,0,.584-2,3.115,3.115,0,0,0-.584-2.024A2.042,2.042,0,0,0,86.976,146.475Z" fill="#2f2f2f"/>
      <path d="M92.625,143.919a.716.716,0,0,1-.513-.205.694.694,0,0,1-.212-.52.717.717,0,0,1,.725-.731.724.724,0,0,1,.523.208.731.731,0,0,1,0,1.036A.72.72,0,0,1,92.625,143.919Zm.547,8.777H92.051v-7h1.121Z" fill="#2f2f2f"/>
      <path d="M101.1,152.7H99.98V148.7q0-2.229-1.627-2.229a1.761,1.761,0,0,0-1.39.633,2.341,2.341,0,0,0-.551,1.6V152.7H95.291v-7h1.121v1.162h.027a2.527,2.527,0,0,1,2.3-1.326,2.139,2.139,0,0,1,1.757.742,3.307,3.307,0,0,1,.608,2.143Z" fill="#2f2f2f"/>
      <path d="M106.33,152.628a2.162,2.162,0,0,1-1.046.219q-1.839,0-1.839-2.051v-4.143h-1.2V145.7h1.2v-1.709l1.121-.362V145.7h1.764v.957h-1.764V150.6a1.628,1.628,0,0,0,.24,1,.952.952,0,0,0,.793.3,1.178,1.178,0,0,0,.731-.232Z" fill="#2f2f2f"/>
    </g>
    <g>
      <path d="M194.05,45.287a5.761,5.761,0,0,1-2.707.574,4.366,4.366,0,0,1-3.35-1.347,4.968,4.968,0,0,1-1.258-3.534,5.21,5.21,0,0,1,1.415-3.8,4.8,4.8,0,0,1,3.589-1.449,5.755,5.755,0,0,1,2.311.4v1.224a4.687,4.687,0,0,0-2.325-.588,3.567,3.567,0,0,0-2.738,1.128,4.252,4.252,0,0,0-1.049,3.015,4.05,4.05,0,0,0,.981,2.854,3.342,3.342,0,0,0,2.574,1.063,4.826,4.826,0,0,0,2.557-.657Z" fill="#2f2f2f"/>
      <path d="M205.669,45.7h-1.142V39.121q0-.78.1-1.908H204.6a6.1,6.1,0,0,1-.294.95l-3.35,7.534h-.561l-3.342-7.479a5.821,5.821,0,0,1-.294-1.005h-.028q.056.588.055,1.921V45.7h-1.107v-9.8h1.517L200.2,42.73a8.6,8.6,0,0,1,.451,1.176h.041q.3-.807.472-1.2l3.069-6.809h1.436Z" fill="#2f2f2f"/>
      <path d="M215.492,45.027a6.554,6.554,0,0,1-3.281.834,4.485,4.485,0,0,1-3.4-1.354,4.966,4.966,0,0,1-1.3-3.582,5.1,5.1,0,0,1,1.44-3.736,4.9,4.9,0,0,1,3.646-1.459,6.213,6.213,0,0,1,2.687.519v1.272a5.155,5.155,0,0,0-2.817-.752,3.517,3.517,0,0,0-2.7,1.135,4.148,4.148,0,0,0-1.053,2.939,4.158,4.158,0,0,0,.978,2.923,3.427,3.427,0,0,0,2.652,1.063,4.105,4.105,0,0,0,1.99-.458V41.622H212.2V40.583h3.295Z" fill="#2f2f2f"/>
      <path d="M173.123,62.175a3.64,3.64,0,0,1-1.914.486,3.165,3.165,0,0,1-2.416-.975,3.528,3.528,0,0,1-.92-2.525,3.879,3.879,0,0,1,.991-2.779,3.468,3.468,0,0,1,2.646-1.05,3.683,3.683,0,0,1,1.627.342v1.149a2.85,2.85,0,0,0-1.668-.547,2.25,2.25,0,0,0-1.76.769,2.914,2.914,0,0,0-.688,2.02,2.772,2.772,0,0,0,.647,1.941,2.224,2.224,0,0,0,1.732.711,2.808,2.808,0,0,0,1.723-.608Z" fill="#2f2f2f"/>
      <path d="M177.563,62.661a3.252,3.252,0,0,1-2.478-.981,3.636,3.636,0,0,1-.926-2.6,3.782,3.782,0,0,1,.964-2.755,3.466,3.466,0,0,1,2.6-.992,3.14,3.14,0,0,1,2.444.964,3.822,3.822,0,0,1,.879,2.673,3.756,3.756,0,0,1-.948,2.683A3.312,3.312,0,0,1,177.563,62.661Zm.082-6.385a2.133,2.133,0,0,0-1.709.735,3.017,3.017,0,0,0-.628,2.027A2.851,2.851,0,0,0,175.943,61a2.159,2.159,0,0,0,1.7.718,2.052,2.052,0,0,0,1.672-.7,3.058,3.058,0,0,0,.584-2,3.11,3.11,0,0,0-.584-2.023A2.042,2.042,0,0,0,177.645,56.276Z" fill="#2f2f2f"/>
      <path d="M188.576,62.5h-1.121V58.5q0-2.229-1.627-2.228a1.766,1.766,0,0,0-1.391.632,2.342,2.342,0,0,0-.55,1.6V62.5h-1.121v-7h1.121v1.163h.027a2.525,2.525,0,0,1,2.3-1.327,2.142,2.142,0,0,1,1.757.742,3.309,3.309,0,0,1,.608,2.143Z" fill="#2f2f2f"/>
      <path d="M196.409,62.5h-1.121V58.5q0-2.229-1.627-2.228a1.766,1.766,0,0,0-1.391.632,2.342,2.342,0,0,0-.55,1.6V62.5H190.6v-7h1.121v1.163h.027a2.525,2.525,0,0,1,2.3-1.327,2.142,2.142,0,0,1,1.757.742,3.309,3.309,0,0,1,.608,2.143Z" fill="#2f2f2f"/>
      <path d="M204.112,59.277H199.17a2.61,2.61,0,0,0,.629,1.8,2.167,2.167,0,0,0,1.654.636,3.444,3.444,0,0,0,2.174-.779v1.053a4.068,4.068,0,0,1-2.441.67,2.959,2.959,0,0,1-2.331-.954,3.9,3.9,0,0,1-.847-2.683,3.829,3.829,0,0,1,.925-2.663,2.973,2.973,0,0,1,2.3-1.029,2.633,2.633,0,0,1,2.126.889,3.706,3.706,0,0,1,.752,2.468Zm-1.148-.95a2.288,2.288,0,0,0-.468-1.511,1.6,1.6,0,0,0-1.282-.54,1.811,1.811,0,0,0-1.347.567,2.582,2.582,0,0,0-.684,1.484Z" fill="#2f2f2f"/>
      <path d="M210.61,62.175a3.64,3.64,0,0,1-1.914.486,3.165,3.165,0,0,1-2.416-.975,3.528,3.528,0,0,1-.92-2.525,3.879,3.879,0,0,1,.991-2.779A3.469,3.469,0,0,1,209,55.332a3.683,3.683,0,0,1,1.627.342v1.149a2.848,2.848,0,0,0-1.668-.547,2.25,2.25,0,0,0-1.76.769,2.914,2.914,0,0,0-.687,2.02,2.777,2.777,0,0,0,.646,1.941,2.225,2.225,0,0,0,1.733.711,2.807,2.807,0,0,0,1.722-.608Z" fill="#2f2f2f"/>
      <path d="M215.773,62.428a2.159,2.159,0,0,1-1.046.219q-1.838,0-1.838-2.051V56.454h-1.2V55.5h1.2V53.788l1.121-.363V55.5h1.763v.958H214.01V60.4a1.641,1.641,0,0,0,.239,1,.956.956,0,0,0,.793.3,1.178,1.178,0,0,0,.731-.233Z" fill="#2f2f2f"/>
      <path d="M217.728,53.719a.708.708,0,0,1-.512-.2A.69.69,0,0,1,217,53a.719.719,0,0,1,.724-.732.725.725,0,0,1,.524.209.73.73,0,0,1,0,1.035A.724.724,0,0,1,217.728,53.719Zm.547,8.777h-1.121v-7h1.121Z" fill="#2f2f2f"/>
      <path d="M223.37,62.661a3.256,3.256,0,0,1-2.479-.981,3.635,3.635,0,0,1-.925-2.6,3.782,3.782,0,0,1,.964-2.755,3.463,3.463,0,0,1,2.6-.992,3.138,3.138,0,0,1,2.443.964,3.822,3.822,0,0,1,.879,2.673,3.756,3.756,0,0,1-.947,2.683A3.313,3.313,0,0,1,223.37,62.661Zm.082-6.385a2.132,2.132,0,0,0-1.709.735,3.017,3.017,0,0,0-.629,2.027A2.851,2.851,0,0,0,221.75,61a2.159,2.159,0,0,0,1.7.718,2.053,2.053,0,0,0,1.672-.7,3.058,3.058,0,0,0,.584-2,3.11,3.11,0,0,0-.584-2.023A2.043,2.043,0,0,0,223.452,56.276Z" fill="#2f2f2f"/>
      <path d="M234.382,62.5h-1.121V58.5q0-2.229-1.627-2.228a1.764,1.764,0,0,0-1.391.632,2.343,2.343,0,0,0-.551,1.6V62.5h-1.121v-7h1.121v1.163h.028a2.524,2.524,0,0,1,2.3-1.327,2.139,2.139,0,0,1,1.757.742,3.3,3.3,0,0,1,.609,2.143Z" fill="#2f2f2f"/>
      <path d="M187.532,78.285h-.027v4.232h-1.121V72.3h1.121v1.23h.027a2.653,2.653,0,0,1,2.42-1.394,2.562,2.562,0,0,1,2.112.94,3.891,3.891,0,0,1,.759,2.519,4.343,4.343,0,0,1-.854,2.813,2.846,2.846,0,0,1-2.338,1.056A2.342,2.342,0,0,1,187.532,78.285Zm-.027-2.823v.977a2.08,2.08,0,0,0,.564,1.474,2.013,2.013,0,0,0,3.028-.175,3.575,3.575,0,0,0,.578-2.167,2.823,2.823,0,0,0-.54-1.832,1.789,1.789,0,0,0-1.463-.663,1.989,1.989,0,0,0-1.573.68A2.5,2.5,0,0,0,187.505,75.462Z" fill="#2f2f2f"/>
      <path d="M197.529,79.461a3.248,3.248,0,0,1-2.478-.981,3.631,3.631,0,0,1-.926-2.6,3.784,3.784,0,0,1,.964-2.755,3.462,3.462,0,0,1,2.6-.991,3.137,3.137,0,0,1,2.444.964,3.817,3.817,0,0,1,.879,2.672,3.761,3.761,0,0,1-.948,2.684A3.316,3.316,0,0,1,197.529,79.461Zm.082-6.385a2.132,2.132,0,0,0-1.709.735,3.019,3.019,0,0,0-.629,2.027,2.855,2.855,0,0,0,.636,1.962,2.162,2.162,0,0,0,1.7.717,2.05,2.05,0,0,0,1.672-.7,3.058,3.058,0,0,0,.584-2,3.11,3.11,0,0,0-.584-2.023A2.043,2.043,0,0,0,197.611,73.076Z" fill="#2f2f2f"/>
      <path d="M203.26,70.519a.71.71,0,0,1-.513-.205.688.688,0,0,1-.212-.519.719.719,0,0,1,.725-.732.725.725,0,0,1,.523.209.731.731,0,0,1,0,1.036A.719.719,0,0,1,203.26,70.519Zm.547,8.778h-1.122v-7h1.122Z" fill="#2f2f2f"/>
      <path d="M211.735,79.3h-1.121V75.305q0-2.229-1.627-2.229a1.764,1.764,0,0,0-1.39.632,2.341,2.341,0,0,0-.551,1.6V79.3h-1.121v-7h1.121v1.162h.027a2.526,2.526,0,0,1,2.3-1.326,2.142,2.142,0,0,1,1.757.741,3.309,3.309,0,0,1,.608,2.143Z" fill="#2f2f2f"/>
      <path d="M216.965,79.228a2.164,2.164,0,0,1-1.046.219q-1.839,0-1.839-2.051V73.254h-1.2V72.3h1.2V70.588l1.121-.363V72.3h1.764v.957H215.2V77.2a1.641,1.641,0,0,0,.239,1.005.953.953,0,0,0,.793.3,1.179,1.179,0,0,0,.732-.233Z" fill="#2f2f2f"/>
    </g>
    <g>
      <path d="M393.26,45.287a5.761,5.761,0,0,1-2.707.574,4.366,4.366,0,0,1-3.35-1.347,4.968,4.968,0,0,1-1.258-3.534,5.21,5.21,0,0,1,1.415-3.8,4.8,4.8,0,0,1,3.589-1.449,5.755,5.755,0,0,1,2.311.4v1.224a4.687,4.687,0,0,0-2.325-.588A3.567,3.567,0,0,0,388.2,37.9a4.252,4.252,0,0,0-1.049,3.015,4.045,4.045,0,0,0,.981,2.854,3.341,3.341,0,0,0,2.574,1.063,4.826,4.826,0,0,0,2.557-.657Z" fill="#2f2f2f"/>
      <path d="M395.933,45.7h-1.122V35.333h1.122Z" fill="#2f2f2f"/>
      <path d="M401.051,45.861a3.249,3.249,0,0,1-2.479-.981,3.636,3.636,0,0,1-.926-2.6,3.786,3.786,0,0,1,.964-2.755,3.466,3.466,0,0,1,2.6-.991,3.138,3.138,0,0,1,2.443.963,3.822,3.822,0,0,1,.879,2.673,3.756,3.756,0,0,1-.947,2.683A3.315,3.315,0,0,1,401.051,45.861Zm.082-6.385a2.132,2.132,0,0,0-1.709.735,3.019,3.019,0,0,0-.629,2.027,2.855,2.855,0,0,0,.636,1.962,2.16,2.16,0,0,0,1.7.717,2.052,2.052,0,0,0,1.672-.7,3.064,3.064,0,0,0,.584-2,3.116,3.116,0,0,0-.584-2.023A2.044,2.044,0,0,0,401.133,39.476Z" fill="#2f2f2f"/>
      <path d="M411.946,45.7h-1.121V44.589H410.8a2.3,2.3,0,0,1-2.16,1.272q-2.5,0-2.5-2.981V38.7h1.114V42.7q0,2.214,1.695,2.214a1.716,1.716,0,0,0,1.351-.605,2.318,2.318,0,0,0,.529-1.582V38.7h1.121Z" fill="#2f2f2f"/>
      <path d="M420.115,45.7h-1.121v-1.19h-.027a2.588,2.588,0,0,1-2.407,1.354,2.618,2.618,0,0,1-2.109-.94,3.864,3.864,0,0,1-.789-2.56,4.2,4.2,0,0,1,.875-2.782,2.883,2.883,0,0,1,2.331-1.046,2.245,2.245,0,0,1,2.1,1.134h.027V35.333h1.121Zm-1.121-3.165V41.5a2,2,0,0,0-.561-1.435,1.879,1.879,0,0,0-1.421-.588,1.935,1.935,0,0,0-1.614.752,3.3,3.3,0,0,0-.588,2.078,2.96,2.96,0,0,0,.565,1.911,1.841,1.841,0,0,0,1.514.7,1.917,1.917,0,0,0,1.521-.676A2.526,2.526,0,0,0,418.994,42.532Z" fill="#2f2f2f"/>
      <path d="M373.716,62.5H372.6V58.477a3.027,3.027,0,0,0-.36-1.682,1.358,1.358,0,0,0-1.206-.519,1.494,1.494,0,0,0-1.22.656,2.51,2.51,0,0,0-.5,1.572V62.5h-1.122V58.34q0-2.064-1.592-2.064a1.475,1.475,0,0,0-1.217.618,2.561,2.561,0,0,0-.479,1.61V62.5h-1.121v-7H364.9V56.6h.028a2.378,2.378,0,0,1,2.174-1.272,2.023,2.023,0,0,1,1.982,1.45,2.5,2.5,0,0,1,2.324-1.45q2.31,0,2.311,2.851Z" fill="#2f2f2f"/>
      <path d="M380.751,62.5H379.63V61.4H379.6a2.347,2.347,0,0,1-2.153,1.258,2.3,2.3,0,0,1-1.637-.554,1.919,1.919,0,0,1-.591-1.47q0-1.962,2.31-2.283l2.1-.294q0-1.784-1.443-1.784a3.448,3.448,0,0,0-2.283.861V55.989a4.339,4.339,0,0,1,2.379-.657q2.469,0,2.468,2.612Zm-1.121-3.541-1.689.233a2.748,2.748,0,0,0-1.175.386,1.113,1.113,0,0,0-.4.981,1.069,1.069,0,0,0,.365.837,1.414,1.414,0,0,0,.975.325,1.8,1.8,0,0,0,1.377-.584,2.086,2.086,0,0,0,.544-1.48Z" fill="#2f2f2f"/>
      <path d="M388.578,62.5h-1.121V58.5q0-2.229-1.627-2.228a1.766,1.766,0,0,0-1.391.632,2.342,2.342,0,0,0-.55,1.6V62.5h-1.122v-7h1.122v1.163h.027a2.525,2.525,0,0,1,2.3-1.327,2.142,2.142,0,0,1,1.757.742,3.309,3.309,0,0,1,.608,2.143Z" fill="#2f2f2f"/>
      <path d="M395.606,62.5h-1.121V61.4h-.027a2.347,2.347,0,0,1-2.153,1.258,2.3,2.3,0,0,1-1.637-.554,1.916,1.916,0,0,1-.592-1.47q0-1.962,2.311-2.283l2.1-.294q0-1.784-1.442-1.784a3.445,3.445,0,0,0-2.283.861V55.989a4.334,4.334,0,0,1,2.379-.657q2.467,0,2.467,2.612Zm-1.121-3.541-1.688.233a2.753,2.753,0,0,0-1.176.386,1.113,1.113,0,0,0-.4.981,1.069,1.069,0,0,0,.366.837,1.412,1.412,0,0,0,.974.325,1.8,1.8,0,0,0,1.377-.584,2.082,2.082,0,0,0,.544-1.48Z" fill="#2f2f2f"/>
      <path d="M403.675,61.936q0,3.855-3.692,3.855a4.955,4.955,0,0,1-2.269-.492V64.178a4.653,4.653,0,0,0,2.256.656q2.583,0,2.584-2.748v-.765h-.028a2.831,2.831,0,0,1-4.508.406,3.729,3.729,0,0,1-.8-2.5,4.364,4.364,0,0,1,.857-2.837,2.87,2.87,0,0,1,2.349-1.053,2.282,2.282,0,0,1,2.1,1.135h.028V55.5h1.121Zm-1.121-2.6V58.3a2,2,0,0,0-.565-1.428,1.853,1.853,0,0,0-1.4-.595,1.946,1.946,0,0,0-1.627.755,3.373,3.373,0,0,0-.588,2.116,2.9,2.9,0,0,0,.564,1.87,1.821,1.821,0,0,0,1.494.7,1.948,1.948,0,0,0,1.534-.67A2.5,2.5,0,0,0,402.554,59.331Z" fill="#2f2f2f"/>
      <path d="M411.5,59.277h-4.942a2.61,2.61,0,0,0,.629,1.8,2.167,2.167,0,0,0,1.654.636,3.446,3.446,0,0,0,2.174-.779v1.053a4.07,4.07,0,0,1-2.441.67,2.959,2.959,0,0,1-2.331-.954,3.9,3.9,0,0,1-.848-2.683,3.83,3.83,0,0,1,.926-2.663,2.972,2.972,0,0,1,2.3-1.029,2.633,2.633,0,0,1,2.126.889,3.706,3.706,0,0,1,.752,2.468Zm-1.148-.95a2.293,2.293,0,0,0-.468-1.511,1.6,1.6,0,0,0-1.282-.54,1.811,1.811,0,0,0-1.347.567,2.582,2.582,0,0,0-.684,1.484Z" fill="#2f2f2f"/>
      <path d="M423.118,62.5H422V58.477a3.028,3.028,0,0,0-.359-1.682,1.36,1.36,0,0,0-1.206-.519,1.493,1.493,0,0,0-1.22.656,2.5,2.5,0,0,0-.5,1.572V62.5h-1.121V58.34q0-2.064-1.593-2.064a1.478,1.478,0,0,0-1.217.618,2.56,2.56,0,0,0-.478,1.61V62.5h-1.121v-7H414.3V56.6h.027a2.379,2.379,0,0,1,2.174-1.272,2.021,2.021,0,0,1,1.982,1.45,2.5,2.5,0,0,1,2.325-1.45q2.31,0,2.31,2.851Z" fill="#2f2f2f"/>
      <path d="M430.825,59.277h-4.942a2.61,2.61,0,0,0,.629,1.8,2.167,2.167,0,0,0,1.654.636,3.444,3.444,0,0,0,2.174-.779v1.053a4.07,4.07,0,0,1-2.441.67,2.959,2.959,0,0,1-2.331-.954,3.9,3.9,0,0,1-.847-2.683,3.829,3.829,0,0,1,.925-2.663,2.973,2.973,0,0,1,2.3-1.029,2.633,2.633,0,0,1,2.126.889,3.706,3.706,0,0,1,.752,2.468Zm-1.148-.95a2.288,2.288,0,0,0-.468-1.511,1.6,1.6,0,0,0-1.282-.54,1.811,1.811,0,0,0-1.347.567,2.582,2.582,0,0,0-.684,1.484Z" fill="#2f2f2f"/>
      <path d="M438.318,62.5H437.2V58.5q0-2.229-1.627-2.228a1.764,1.764,0,0,0-1.39.632,2.338,2.338,0,0,0-.551,1.6V62.5h-1.121v-7h1.121v1.163h.027a2.525,2.525,0,0,1,2.3-1.327,2.139,2.139,0,0,1,1.757.742,3.309,3.309,0,0,1,.608,2.143Z" fill="#2f2f2f"/>
      <path d="M443.548,62.428a2.164,2.164,0,0,1-1.046.219q-1.839,0-1.839-2.051V56.454h-1.2V55.5h1.2V53.788l1.121-.363V55.5h1.764v.958h-1.764V60.4a1.641,1.641,0,0,0,.239,1,.957.957,0,0,0,.793.3,1.179,1.179,0,0,0,.732-.233Z" fill="#2f2f2f"/>
      <path d="M385.013,78.736q0,3.856-3.692,3.856a4.955,4.955,0,0,1-2.269-.492V80.978a4.655,4.655,0,0,0,2.256.657q2.583,0,2.583-2.748v-.766h-.027a2.832,2.832,0,0,1-4.508.407,3.73,3.73,0,0,1-.8-2.506,4.365,4.365,0,0,1,.858-2.837,2.869,2.869,0,0,1,2.349-1.052,2.282,2.282,0,0,1,2.1,1.134h.027V72.3h1.122Zm-1.122-2.6V75.1a2,2,0,0,0-.564-1.429,1.853,1.853,0,0,0-1.4-.6,1.946,1.946,0,0,0-1.627.755,3.373,3.373,0,0,0-.588,2.116,2.89,2.89,0,0,0,.564,1.87,1.82,1.82,0,0,0,1.494.7,1.952,1.952,0,0,0,1.534-.669A2.5,2.5,0,0,0,383.891,76.132Z" fill="#2f2f2f"/>
      <path d="M392.17,79.3h-1.121V78.2h-.028a2.347,2.347,0,0,1-2.153,1.258,2.3,2.3,0,0,1-1.637-.554,1.919,1.919,0,0,1-.591-1.47q0-1.962,2.31-2.283l2.1-.294q0-1.783-1.443-1.784a3.448,3.448,0,0,0-2.283.861V72.789a4.338,4.338,0,0,1,2.379-.656q2.469,0,2.468,2.611Zm-1.121-3.541-1.689.232a2.757,2.757,0,0,0-1.176.386,1.116,1.116,0,0,0-.4.981,1.072,1.072,0,0,0,.365.838,1.419,1.419,0,0,0,.975.324,1.8,1.8,0,0,0,1.377-.584,2.086,2.086,0,0,0,.544-1.48Z" fill="#2f2f2f"/>
      <path d="M397.429,79.228a2.164,2.164,0,0,1-1.046.219q-1.839,0-1.839-2.051V73.254h-1.2V72.3h1.2V70.588l1.121-.363V72.3h1.764v.957h-1.764V77.2A1.641,1.641,0,0,0,395.9,78.2a.953.953,0,0,0,.793.3,1.181,1.181,0,0,0,.732-.233Z" fill="#2f2f2f"/>
      <path d="M404.421,76.077h-4.943a2.624,2.624,0,0,0,.629,1.805,2.168,2.168,0,0,0,1.655.635,3.435,3.435,0,0,0,2.173-.779v1.053a4.058,4.058,0,0,1-2.44.67,2.958,2.958,0,0,1-2.331-.954,3.9,3.9,0,0,1-.848-2.683,3.829,3.829,0,0,1,.926-2.662,2.969,2.969,0,0,1,2.3-1.029,2.632,2.632,0,0,1,2.126.888,3.708,3.708,0,0,1,.752,2.468Zm-1.149-.95a2.293,2.293,0,0,0-.467-1.511,1.6,1.6,0,0,0-1.283-.54,1.811,1.811,0,0,0-1.346.567,2.582,2.582,0,0,0-.684,1.484Z" fill="#2f2f2f"/>
      <path d="M414.9,72.3l-2.1,7h-1.162l-1.443-5.011a3.3,3.3,0,0,1-.109-.649h-.027a3.08,3.08,0,0,1-.144.635L408.347,79.3h-1.122l-2.119-7h1.176l1.449,5.263a3.21,3.21,0,0,1,.1.629h.055a2.868,2.868,0,0,1,.123-.642l1.613-5.25h1.025l1.45,5.277a3.67,3.67,0,0,1,.1.629h.055a2.925,2.925,0,0,1,.116-.629l1.422-5.277Z" fill="#2f2f2f"/>
      <path d="M421.069,79.3h-1.121V78.2h-.027a2.348,2.348,0,0,1-2.154,1.258,2.3,2.3,0,0,1-1.636-.554,1.916,1.916,0,0,1-.592-1.47q0-1.962,2.31-2.283l2.1-.294q0-1.783-1.442-1.784a3.445,3.445,0,0,0-2.283.861V72.789a4.332,4.332,0,0,1,2.378-.656q2.469,0,2.468,2.611Zm-1.121-3.541-1.688.232a2.753,2.753,0,0,0-1.176.386,1.113,1.113,0,0,0-.4.981,1.07,1.07,0,0,0,.366.838,1.416,1.416,0,0,0,.974.324,1.8,1.8,0,0,0,1.377-.584,2.086,2.086,0,0,0,.544-1.48Z" fill="#2f2f2f"/>
      <path d="M428.581,72.3l-3.22,8.121q-.861,2.173-2.42,2.174a2.569,2.569,0,0,1-.731-.089v-1a2.078,2.078,0,0,0,.663.123,1.373,1.373,0,0,0,1.271-1.012l.561-1.326L421.971,72.3h1.244l1.893,5.387q.034.1.144.533h.041q.033-.165.137-.52l1.989-5.4Z" fill="#2f2f2f"/>
    </g>
    <g>
      <path d="M384.241,224.491h-1.367l-1.641-2.748a5.9,5.9,0,0,0-.437-.653,2.526,2.526,0,0,0-.434-.441,1.521,1.521,0,0,0-.478-.25,2,2,0,0,0-.578-.078h-.944v4.17h-1.148v-9.8h2.926a4.161,4.161,0,0,1,1.185.161,2.626,2.626,0,0,1,.943.488,2.263,2.263,0,0,1,.626.817,2.7,2.7,0,0,1,.226,1.145,2.746,2.746,0,0,1-.154.94,2.422,2.422,0,0,1-.438.762,2.607,2.607,0,0,1-.683.571,3.5,3.5,0,0,1-.9.366v.027a2.061,2.061,0,0,1,.428.25,2.426,2.426,0,0,1,.345.331,4.759,4.759,0,0,1,.325.434c.106.162.226.35.358.564Zm-5.879-8.764v3.555h1.559a2.383,2.383,0,0,0,.8-.13,1.843,1.843,0,0,0,.631-.373,1.674,1.674,0,0,0,.417-.595,1.975,1.975,0,0,0,.151-.789,1.536,1.536,0,0,0-.51-1.227,2.185,2.185,0,0,0-1.473-.441Z" fill="#2f2f2f"/>
      <path d="M388.153,224.655a3.248,3.248,0,0,1-2.478-.981,3.636,3.636,0,0,1-.926-2.6,3.782,3.782,0,0,1,.964-2.755,3.463,3.463,0,0,1,2.6-.991,3.14,3.14,0,0,1,2.444.963,3.822,3.822,0,0,1,.879,2.673,3.756,3.756,0,0,1-.948,2.683A3.313,3.313,0,0,1,388.153,224.655Zm.082-6.385a2.133,2.133,0,0,0-1.709.735,3.019,3.019,0,0,0-.629,2.027,2.855,2.855,0,0,0,.636,1.962,2.162,2.162,0,0,0,1.7.717,2.053,2.053,0,0,0,1.672-.7,3.058,3.058,0,0,0,.584-2,3.11,3.11,0,0,0-.584-2.023A2.043,2.043,0,0,0,388.235,218.27Z" fill="#2f2f2f"/>
      <path d="M398.388,224.491h-1.122V223.4h-.027a2.347,2.347,0,0,1-2.153,1.258,2.3,2.3,0,0,1-1.637-.554,1.92,1.92,0,0,1-.592-1.47q0-1.962,2.311-2.283l2.1-.294q0-1.783-1.442-1.784a3.446,3.446,0,0,0-2.283.861v-1.148a4.333,4.333,0,0,1,2.379-.656q2.467,0,2.468,2.611Zm-1.122-3.541-1.688.232a2.753,2.753,0,0,0-1.176.386,1.116,1.116,0,0,0-.4.981,1.072,1.072,0,0,0,.365.838,1.417,1.417,0,0,0,.975.324,1.8,1.8,0,0,0,1.377-.584,2.086,2.086,0,0,0,.543-1.48Z" fill="#2f2f2f"/>
      <path d="M410.349,224.491h-1.122v-4.02a3.028,3.028,0,0,0-.359-1.682,1.359,1.359,0,0,0-1.206-.519,1.493,1.493,0,0,0-1.22.656,2.506,2.506,0,0,0-.5,1.572v3.993h-1.121v-4.157q0-2.064-1.593-2.064a1.473,1.473,0,0,0-1.216.619,2.55,2.55,0,0,0-.479,1.609v3.993h-1.121v-7h1.121V218.6h.028a2.377,2.377,0,0,1,2.173-1.271,2.021,2.021,0,0,1,1.983,1.449,2.5,2.5,0,0,1,2.324-1.449q2.31,0,2.311,2.85Z" fill="#2f2f2f"/>
      <path d="M412.937,215.713a.708.708,0,0,1-.512-.2.69.69,0,0,1-.212-.519.719.719,0,0,1,.724-.732.729.729,0,0,1,.524.209.73.73,0,0,1,0,1.035A.724.724,0,0,1,412.937,215.713Zm.547,8.778h-1.121v-7h1.121Z" fill="#2f2f2f"/>
      <path d="M421.413,224.491h-1.121V220.5q0-2.227-1.627-2.228a1.766,1.766,0,0,0-1.391.632,2.344,2.344,0,0,0-.55,1.6v3.993H415.6v-7h1.122v1.162h.027a2.524,2.524,0,0,1,2.3-1.326,2.144,2.144,0,0,1,1.757.741,3.309,3.309,0,0,1,.608,2.143Z" fill="#2f2f2f"/>
      <path d="M429.487,223.93q0,3.855-3.691,3.856a4.962,4.962,0,0,1-2.27-.493v-1.121a4.655,4.655,0,0,0,2.256.657q2.584,0,2.584-2.749v-.765h-.027a2.832,2.832,0,0,1-4.508.407,3.73,3.73,0,0,1-.8-2.506,4.364,4.364,0,0,1,.857-2.837,2.872,2.872,0,0,1,2.349-1.052,2.283,2.283,0,0,1,2.1,1.134h.027v-.97h1.121Zm-1.121-2.6v-1.033a2,2,0,0,0-.564-1.428,1.853,1.853,0,0,0-1.405-.595,1.949,1.949,0,0,0-1.627.755,3.379,3.379,0,0,0-.587,2.116,2.892,2.892,0,0,0,.564,1.87,1.819,1.819,0,0,0,1.493.7,1.947,1.947,0,0,0,1.534-.67A2.491,2.491,0,0,0,428.366,221.326Z" fill="#2f2f2f"/>
      <path d="M385.845,241.29h-1.121V230.927h1.121Z" fill="#2f2f2f"/>
      <path d="M393,241.29h-1.121V240.2h-.028a2.346,2.346,0,0,1-2.153,1.257,2.3,2.3,0,0,1-1.637-.553,1.919,1.919,0,0,1-.591-1.47q0-1.962,2.31-2.283l2.1-.294q0-1.785-1.443-1.784a3.448,3.448,0,0,0-2.283.861v-1.148a4.339,4.339,0,0,1,2.379-.657q2.469,0,2.468,2.612Zm-1.121-3.541-1.689.233a2.748,2.748,0,0,0-1.175.386,1.113,1.113,0,0,0-.4.981,1.069,1.069,0,0,0,.365.837,1.414,1.414,0,0,0,.975.325,1.8,1.8,0,0,0,1.377-.584,2.086,2.086,0,0,0,.544-1.48Z" fill="#2f2f2f"/>
      <path d="M396.169,240.279h-.028v4.231H395.02V234.29h1.121v1.231h.028a2.651,2.651,0,0,1,2.42-1.395,2.565,2.565,0,0,1,2.112.94,3.894,3.894,0,0,1,.759,2.519,4.335,4.335,0,0,1-.855,2.813,2.843,2.843,0,0,1-2.338,1.056A2.342,2.342,0,0,1,396.169,240.279Zm-.028-2.824v.978a2.076,2.076,0,0,0,.565,1.473,2.011,2.011,0,0,0,3.027-.174,3.57,3.57,0,0,0,.578-2.167,2.817,2.817,0,0,0-.54-1.832,1.786,1.786,0,0,0-1.463-.663,1.986,1.986,0,0,0-1.572.68A2.5,2.5,0,0,0,396.141,237.455Z" fill="#2f2f2f"/>
      <path d="M406.407,241.222a2.162,2.162,0,0,1-1.046.219q-1.837,0-1.839-2.051v-4.143h-1.2v-.957h1.2v-1.709l1.121-.362v2.071h1.764v.957h-1.764v3.945a1.64,1.64,0,0,0,.24,1,.956.956,0,0,0,.793.3,1.178,1.178,0,0,0,.731-.232Z" fill="#2f2f2f"/>
      <path d="M410.664,241.454a3.255,3.255,0,0,1-2.479-.98,3.636,3.636,0,0,1-.925-2.6,3.781,3.781,0,0,1,.964-2.754,3.463,3.463,0,0,1,2.6-.992,3.138,3.138,0,0,1,2.443.964,3.822,3.822,0,0,1,.879,2.673,3.756,3.756,0,0,1-.947,2.683A3.314,3.314,0,0,1,410.664,241.454Zm.082-6.384a2.132,2.132,0,0,0-1.709.735,3.016,3.016,0,0,0-.629,2.026,2.852,2.852,0,0,0,.636,1.962,2.159,2.159,0,0,0,1.7.718,2.053,2.053,0,0,0,1.672-.7,3.058,3.058,0,0,0,.584-2,3.11,3.11,0,0,0-.584-2.023A2.043,2.043,0,0,0,410.746,235.07Z" fill="#2f2f2f"/>
      <path d="M417.015,240.279h-.028v4.231h-1.121V234.29h1.121v1.231h.028a2.65,2.65,0,0,1,2.419-1.395,2.566,2.566,0,0,1,2.113.94,3.894,3.894,0,0,1,.759,2.519,4.341,4.341,0,0,1-.855,2.813,2.844,2.844,0,0,1-2.338,1.056A2.342,2.342,0,0,1,417.015,240.279Zm-.028-2.824v.978a2.076,2.076,0,0,0,.565,1.473,2.011,2.011,0,0,0,3.027-.174,3.57,3.57,0,0,0,.578-2.167,2.823,2.823,0,0,0-.54-1.832,1.788,1.788,0,0,0-1.463-.663,1.984,1.984,0,0,0-1.572.68A2.5,2.5,0,0,0,416.987,237.455Z" fill="#2f2f2f"/>
    </g>
    <use width="21" height="20" transform="translate(146.7 149.6)" xlink:href="#New_Symbol_41"/>
    <use width="21" height="20" transform="translate(280.304 50.633)" xlink:href="#New_Symbol_42"/>
    <use width="21" height="20" transform="translate(407.773 151.488)" xlink:href="#New_Symbol_43"/>
    <use width="21" height="20" transform="translate(280.304 87.422)" xlink:href="#New_Symbol_44"/>
    <use width="21" height="20" transform="translate(120.388 89.834)" xlink:href="#New_Symbol_45"/>
  </g>
</svg>
