<svg width="48" height="48" viewBox="0 0 48 48" fill="none" xmlns="http://www.w3.org/2000/svg">
<path d="M0 13.7143C0 6.1401 6.1401 0 13.7143 0H34.2857C41.8599 0 48 6.1401 48 13.7143V34.2857C48 41.8599 41.8599 48 34.2857 48H13.7143C6.1401 48 0 41.8599 0 34.2857V13.7143Z" fill="url(#paint0_linear_891_9014)"/>
<path d="M21.8361 14.0342C21.9486 14.0725 22.0585 14.118 22.1652 14.1705L23.4479 14.8021C23.796 14.9735 24.204 14.9735 24.5522 14.8021L25.8349 14.1705C27.1975 13.4997 28.8459 14.0604 29.5168 15.423L29.5903 15.5853L29.6531 15.7521L30.1136 17.1057C30.2385 17.473 30.527 17.7615 30.8944 17.8865L32.248 18.347C33.6859 18.8361 34.455 20.3982 33.9658 21.8361C33.9276 21.9486 33.882 22.0585 33.8295 22.1652L33.198 23.4479C33.0266 23.796 33.0266 24.204 33.198 24.5522L33.8295 25.8349C34.5004 27.1975 33.9396 28.8459 32.5771 29.5168C32.4704 29.5693 32.3605 29.6148 32.248 29.6531L30.8944 30.1136C30.527 30.2385 30.2385 30.527 30.1136 30.8944L29.6531 32.248C29.164 33.6859 27.6018 34.455 26.164 33.9658C26.0514 33.9276 25.9415 33.882 25.8349 33.8295L24.5522 33.198C24.204 33.0266 23.796 33.0266 23.4479 33.198L22.1652 33.8295C20.8026 34.5004 19.1541 33.9396 18.4833 32.5771C18.4308 32.4704 18.3852 32.3605 18.347 32.248L17.8865 30.8944C17.7615 30.527 17.473 30.2385 17.1057 30.1136L15.7521 29.6531C14.3142 29.164 13.5451 27.6018 14.0342 26.164C14.0725 26.0514 14.118 25.9415 14.1705 25.8349L14.8021 24.5522C14.9735 24.204 14.9735 23.796 14.8021 23.4479L14.1705 22.1652C13.4997 20.8026 14.0604 19.1541 15.423 18.4833C15.5296 18.4308 15.6396 18.3852 15.7521 18.347L17.1057 17.8865C17.473 17.7615 17.7615 17.473 17.8865 17.1057L18.347 15.7521C18.8361 14.3142 20.3982 13.5451 21.8361 14.0342ZM27.4697 20.9697L22.0504 26.389L20.0762 24.0199C19.811 23.7017 19.3381 23.6587 19.0199 23.9239C18.7017 24.189 18.6587 24.662 18.9239 24.9802L21.4239 27.9802C21.7062 28.319 22.2185 28.3422 22.5304 28.0304L28.5304 22.0304C28.8233 21.7375 28.8233 21.2626 28.5304 20.9697C28.2375 20.6768 27.7626 20.6768 27.4697 20.9697Z" fill="white"/>
<defs>
<linearGradient id="paint0_linear_891_9014" x1="30.5" y1="4.27788e-07" x2="19.5" y2="48" gradientUnits="userSpaceOnUse">
<stop stop-color="#4DA9FF"/>
<stop offset="1" stop-color="#0052B3"/>
</linearGradient>
</defs>
</svg>
