<svg width="48" height="48" viewBox="0 0 48 48" fill="none" xmlns="http://www.w3.org/2000/svg">
<path d="M0 13.7143C0 6.1401 6.1401 0 13.7143 0H34.2857C41.8599 0 48 6.1401 48 13.7143V34.2857C48 41.8599 41.8599 48 34.2857 48H13.7143C6.1401 48 0 41.8599 0 34.2857V13.7143Z" fill="url(#paint0_linear_891_9018)"/>
<path d="M14 24C14 18.4772 18.4772 14 24 14C29.5228 14 34 18.4772 34 24C34 29.5228 29.5228 34 24 34C18.4772 34 14 29.5228 14 24ZM29.5 20.25C29.5 19.8358 29.1642 19.5 28.75 19.5C28.3358 19.5 28 19.8358 28 20.25V20.9995C27.0878 19.7853 25.6356 19 24 19C22.4733 19 21.1059 19.6851 20.1899 20.762C19.9216 21.0776 19.9598 21.5509 20.2753 21.8193C20.5908 22.0876 21.0642 22.0494 21.3325 21.7339C21.9757 20.9777 22.9317 20.5 24 20.5C25.3962 20.5 26.6014 21.3175 27.1632 22.5H25.75C25.3358 22.5 25 22.8358 25 23.25C25 23.6642 25.3358 24 25.75 24H28.75C29.1642 24 29.5 23.6642 29.5 23.25V20.25ZM19.25 28.5C19.6642 28.5 20 28.1642 20 27.75V27.0005C20.9122 28.2147 22.3644 29 24 29C25.526 29 26.8929 28.3155 27.8089 27.2393C28.0773 26.9239 28.0393 26.4506 27.7239 26.1821C27.4084 25.9136 26.9351 25.9517 26.6666 26.2671C26.0235 27.0227 25.0679 27.5 24 27.5C22.6038 27.5 21.3985 26.6825 20.8368 25.5H22.25C22.6642 25.5 23 25.1642 23 24.75C23 24.3358 22.6642 24 22.25 24H19.25C18.8358 24 18.5 24.3358 18.5 24.75V27.75C18.5 28.1642 18.8358 28.5 19.25 28.5Z" fill="white"/>
<defs>
<linearGradient id="paint0_linear_891_9018" x1="30.5" y1="4.27788e-07" x2="19.5" y2="48" gradientUnits="userSpaceOnUse">
<stop stop-color="#4DA9FF"/>
<stop offset="1" stop-color="#0052B3"/>
</linearGradient>
</defs>
</svg>
