<svg width="48" height="48" viewBox="0 0 48 48" fill="none" xmlns="http://www.w3.org/2000/svg">
<path d="M0 13.7143C0 6.1401 6.1401 0 13.7143 0H34.2857C41.8599 0 48 6.1401 48 13.7143V34.2857C48 41.8599 41.8599 48 34.2857 48H13.7143C6.1401 48 0 41.8599 0 34.2857V13.7143Z" fill="url(#paint0_linear_891_8993)"/>
<path d="M28.25 24.5H24.25C23.836 24.5 23.5 24.164 23.5 23.75V17.75C23.5 17.336 23.836 17 24.25 17C24.664 17 25 17.336 25 17.75V23H28.25C28.664 23 29 23.336 29 23.75C29 24.164 28.664 24.5 28.25 24.5ZM25 13C19.478 13 15 17.478 15 23L15.0001 23.0356C15.1637 23.0121 15.331 23 15.5011 23H19.5011C21.4341 23 23.0011 24.567 23.0011 26.5V32.5C23.0011 32.6002 22.9969 32.6995 22.9886 32.7976C23.6384 32.9303 24.3111 33 25 33C30.522 33 35 28.522 35 23C35 17.478 30.522 13 25 13ZM13 26.5C13 25.1193 14.1193 24 15.5 24H19.5C20.8807 24 22 25.1193 22 26.5V32.5C22 33.8807 20.8807 35 19.5 35H15.5C14.1193 35 13 33.8807 13 32.5V26.5ZM19.5 26H15.5C15.2239 26 15 26.2239 15 26.5C15 26.7761 15.2239 27 15.5 27H19.5C19.7761 27 20 26.7761 20 26.5C20 26.2239 19.7761 26 19.5 26ZM19.5 29H15.5C15.2239 29 15 29.2239 15 29.5C15 29.7761 15.2239 30 15.5 30H19.5C19.7761 30 20 29.7761 20 29.5C20 29.2239 19.7761 29 19.5 29ZM19.5 32H15.5C15.2239 32 15 32.2239 15 32.5C15 32.7761 15.2239 33 15.5 33H19.5C19.7761 33 20 32.7761 20 32.5C20 32.2239 19.7761 32 19.5 32Z" fill="white"/>
<defs>
<linearGradient id="paint0_linear_891_8993" x1="30.5" y1="4.27788e-07" x2="19.5" y2="48" gradientUnits="userSpaceOnUse">
<stop stop-color="#4DA9FF"/>
<stop offset="1" stop-color="#0052B3"/>
</linearGradient>
</defs>
</svg>
