<?xml version="1.0" encoding="utf-8"?>
<!-- Generator: Adobe Illustrator 22.0.1, SVG Export Plug-In . SVG Version: 6.00 Build 0)  -->
<svg version="1.1" id="Layer_1" xmlns="http://www.w3.org/2000/svg" xmlns:xlink="http://www.w3.org/1999/xlink" x="0px" y="0px"
	 viewBox="0 0 64 64" style="enable-background:new 0 0 64 64;" xml:space="preserve" width="64px" height="64px">
<style type="text/css">
	.st0{fill:#939393;}
	.st1{fill:#C2C2C2;}
</style>
<title>cloud</title>
<g id="Layer_2_1_">
	<g id="SYMBOLS">
		<g id="cloud">
			<path class="st0" d="M22,31.8c-1.2,0.3-2.3,0.7-3.4,1.3c-1,0.5-1.9,1.2-2.6,2.1c-0.8,0.8-1.4,1.8-1.8,2.9
				c-0.4,1.2-0.6,2.4-0.6,3.6c0,0.8,0.1,1.6,0.3,2.3c0.1,0.8,0.3,1.6,0.6,2.3h-3.8c-1,0-2-0.2-2.9-0.7c-0.9-0.4-1.8-1-2.5-1.7
				c-0.7-0.7-1.3-1.6-1.7-2.5c-0.4-0.9-0.6-1.9-0.6-3c0-1.6,0.4-3.1,1.1-4.5C5,32.5,6.3,31.5,7.8,31c0.4-0.2,0.8-0.3,1.2-0.4
				c0.4-0.1,0.7-0.2,1.1-0.2c0-0.2,0-0.4,0-0.5c0-0.2,0-0.4,0-0.5c0-2.6,1-5.1,2.7-7c0.9-0.9,1.9-1.6,3.1-2.2
				c1.2-0.5,2.5-0.8,3.8-0.8c0.4,0,0.8,0,1.2,0c0.4,0,0.8,0.1,1.2,0.2c0.4,0.1,0.8,0.2,1.2,0.4c0.4,0.1,0.7,0.3,1.1,0.5
				c0.5-1,1.2-1.8,1.9-2.6c0.7-0.8,1.6-1.4,2.5-2c0.9-0.6,1.9-1,2.9-1.3c1.1-0.3,2.1-0.5,3.2-0.5c1.6,0,3.1,0.3,4.6,0.9
				c1.4,0.6,2.8,1.4,3.9,2.4c1.2,1,2.1,2.3,2.9,3.6c0.7,1.4,1.2,2.9,1.4,4.4c-0.7,0-1.4,0-2.1,0.1c-0.7,0.1-1.4,0.3-2,0.7
				c-0.5-0.7-1.1-1.4-1.7-1.9c-0.7-0.6-1.4-1-2.2-1.4c-0.8-0.4-1.6-0.7-2.4-0.9c-0.8-0.2-1.7-0.3-2.6-0.3c-2.9,0-5.8,1-8.1,2.8
				c-1.1,0.9-2.1,2-2.9,3.2C22.9,28.9,22.3,30.3,22,31.8L22,31.8z"/>
			<path class="st1" d="M55.6,37.4c0.8,0,1.6,0.3,2.2,0.6c0.6,0.4,1.2,0.8,1.7,1.4c0.5,0.6,0.8,1.2,1.1,1.9c0.3,0.8,0.4,1.6,0.4,2.4
				c0,0.8-0.1,1.6-0.4,2.3c-0.3,0.7-0.7,1.4-1.2,2c-0.5,0.6-1.1,1.1-1.8,1.4c-0.7,0.4-1.5,0.6-2.3,0.5H24.6c-1.2,0-2.3-0.2-3.4-0.6
				c-1-0.4-1.8-0.9-2.6-1.6C17.8,46.9,17.3,46,17,45c-0.4-1.1-0.5-2.3-0.5-3.5c0-1,0.2-2.1,0.6-3c0.4-0.9,1-1.7,1.7-2.3
				c0.7-0.6,1.6-1.1,2.5-1.4c1-0.3,2-0.5,3-0.6c0.1-1.1,0.3-2.1,0.7-3.1c0.4-1,0.9-1.9,1.5-2.8c0.7-0.8,1.4-1.5,2.3-2.1
				c0.9-0.6,1.9-1,2.9-1.3c0.9-0.2,1.9-0.3,2.8-0.3c1.7,0,3.4,0.4,4.8,1.2c1.5,0.8,2.7,2,3.6,3.4c0.7-0.4,1.4-0.6,2.1-0.8
				c0.7-0.2,1.5-0.3,2.2-0.3c1.2,0,2.3,0.2,3.4,0.7c1,0.4,1.8,1,2.6,1.8c0.7,0.8,1.3,1.7,1.6,2.7c0.4,1.1,0.5,2.2,0.5,3.3V37.4z"/>
		</g>
	</g>
</g>
</svg>
