<?xml version="1.0" encoding="UTF-8" standalone="no"?>
<!DOCTYPE svg PUBLIC "-//W3C//DTD SVG 1.1//EN" "http://www.w3.org/Graphics/SVG/1.1/DTD/svg11.dtd">
<!-- Generated by Microsoft Visio, SVG Export community.svg Page-1 -->
<svg xmlns="http://www.w3.org/2000/svg" xmlns:xlink="http://www.w3.org/1999/xlink" xmlns:ev="http://www.w3.org/2001/xml-events"
		xmlns:v="http://schemas.microsoft.com/visio/2003/SVGExtensions/" width="2.38966in" height="2.13853in"
		viewBox="0 0 172.055 153.974" xml:space="preserve" color-interpolation-filters="sRGB" class="st6">
	<v:documentProperties v:langID="1033" v:viewMarkup="false"/>

	<style type="text/css">
	<![CDATA[
		.st1 {fill:#0087ea;stroke:none;stroke-linecap:butt;stroke-width:0.298828}
		.st2 {fill:#0078d4;stroke:none;stroke-linecap:butt;stroke-width:0.75}
		.st3 {fill:#ffffff;fill-opacity:0.8;stroke:none;stroke-linecap:butt;stroke-width:0.75}
		.st4 {fill:url(#grad0-14);stroke:none;stroke-linecap:butt;stroke-width:0.75}
		.st5 {fill:url(#grad0-20);stroke:none;stroke-linecap:butt;stroke-width:0.75}
		.st6 {fill:none;fill-rule:evenodd;font-size:12px;overflow:visible;stroke-linecap:square;stroke-miterlimit:3}
	]]>
	</style>

	<defs id="Patterns_And_Gradients">
		<linearGradient id="grad0-14" x1="0" y1="0" x2="1" y2="0" gradientTransform="rotate(90 0.5 0.5)">
			<stop offset="0.22" stop-color="#32d4f5" stop-opacity="1"/>
			<stop offset="1" stop-color="#198ab3" stop-opacity="1"/>
		</linearGradient>
		<linearGradient id="grad0-20" x1="0" y1="0" x2="1" y2="0" gradientTransform="rotate(85.401203911388 0.5 0.5)">
			<stop offset="0.22" stop-color="#32d4f5" stop-opacity="1"/>
			<stop offset="1" stop-color="#198ab3" stop-opacity="1"/>
		</linearGradient>
	</defs>
	<g v:mID="0" v:index="1" v:groupContext="foregroundPage">
		<title>Page-1</title>
		<v:pageProperties v:drawingScale="1" v:pageScale="1" v:drawingUnits="0" v:shadowOffsetX="9" v:shadowOffsetY="-9"/>
		<g id="group61-1" transform="translate(0.298828,-0.75)" v:mID="61" v:groupContext="group">
			<title>Sheet.61</title>
			<g id="shape62-2" v:mID="62" v:groupContext="shape">
				<title>Sheet.62</title>
				<path d="M86.02 106.19 L50.7 106.19 C51.7 110.96 53.07 115.74 54.81 120.52 C56.55 125.3 58.79 129.71 61.53 133.74
							 C60.48 134.63 59.49 135.63 58.54 136.73 C57.6 137.82 56.72 138.99 55.93 140.23 C55.13 141.48 54.53 142.77
							 54.14 144.12 C53.74 145.46 53.51 146.86 53.46 148.3 C53.46 149.05 53.54 149.79 53.69 150.54 C45.72 148.05
							 38.46 144.42 31.88 139.64 C25.31 134.86 19.66 129.23 14.93 122.76 C10.2 116.29 6.55 109.25 3.96 101.63
							 C1.37 94.01 0.05 85.97 0 77.51 C0 70.49 0.9 63.72 2.69 57.2 C4.48 50.68 7.07 44.61 10.45 38.98 C13.84
							 33.36 17.82 28.2 22.4 23.52 C26.98 18.85 32.13 14.84 37.86 11.5 C43.58 8.17 49.68 5.6 56.15 3.81 C62.62
							 2.02 69.39 1.1 76.46 1.05 C85.17 1.05 93.51 2.44 101.48 5.23 C109.44 8.02 116.69 11.98 123.21 17.1 C129.73
							 22.23 135.33 28.28 140.01 35.25 C144.69 42.22 148.15 49.93 150.39 58.4 L49.06 58.4 C48.61 61.58 48.29
							 64.74 48.09 67.88 C47.89 71.02 47.79 74.23 47.79 77.51 C47.79 80.75 47.89 83.93 48.09 87.07 C48.29 90.21
							 48.61 93.39 49.06 96.63 L86.02 96.63 L86.02 106.19 ZM39.43 96.63 C39.03 93.44 38.73 90.28 38.53 87.14
							 C38.33 84.01 38.23 80.8 38.23 77.51 C38.23 74.28 38.33 71.09 38.53 67.95 C38.73 64.82 39.03 61.63 39.43
							 58.4 L12.32 58.4 C10.48 64.52 9.56 70.89 9.56 77.51 C9.56 84.13 10.48 90.5 12.32 96.63 L39.43 96.63
							 ZM136.8 48.84 C134.86 44.81 132.57 41.02 129.93 37.49 C127.29 33.95 124.3 30.72 120.97 27.78 C117.63
							 24.84 114.1 22.23 110.36 19.94 C106.63 17.65 102.6 15.78 98.27 14.34 C100.06 16.78 101.68 19.39 103.12
							 22.18 C104.56 24.97 105.83 27.83 106.93 30.77 C108.02 33.7 108.99 36.72 109.84 39.8 C110.69 42.89 111.41
							 45.9 112.01 48.84 L136.8 48.84 ZM76.46 10.61 C74.02 10.61 71.76 11.28 69.67 12.62 C67.58 13.97 65.64
							 15.78 63.84 18.07 C62.05 20.36 60.43 22.88 58.99 25.62 C57.55 28.35 56.28 31.17 55.18 34.05 C54.09 36.94
							 53.17 39.65 52.42 42.19 C51.67 44.73 51.1 46.95 50.7 48.84 L102.15 48.84 C101.75 47.05 101.18 44.86
							 100.43 42.27 C99.69 39.68 98.76 36.94 97.67 34.05 C96.57 31.17 95.3 28.35 93.86 25.62 C92.42 22.88 90.82
							 20.39 89.08 18.15 C87.34 15.91 85.4 14.09 83.26 12.7 C81.12 11.3 78.85 10.61 76.46 10.61 ZM54.66 14.34
							 C50.43 15.78 46.4 17.63 42.56 19.87 C38.73 22.11 35.17 24.72 31.88 27.71 C28.6 30.69 25.64 33.93 23
							 37.41 C20.36 40.9 18.05 44.71 16.05 48.84 L40.92 48.84 C41.52 45.9 42.21 42.91 43.01 39.88 C43.81 36.84
							 44.78 33.83 45.92 30.84 C47.07 27.86 48.36 24.97 49.81 22.18 C51.25 19.39 52.87 16.78 54.66 14.34 ZM54.66
							 140.68 C52.87 138.24 51.25 135.63 49.81 132.84 C48.36 130.05 47.09 127.19 46 124.26 C44.9 121.32 43.93
							 118.31 43.08 115.22 C42.24 112.13 41.52 109.12 40.92 106.19 L16.05 106.19 C18 110.22 20.29 114 22.92
							 117.53 C25.56 121.07 28.55 124.33 31.88 127.32 C35.22 130.3 38.78 132.89 42.56 135.08 C46.35 137.27
							 50.38 139.14 54.66 140.68 ZM124.25 67.95 C128.18 67.95 131.89 68.7 135.38 70.19 C138.86 71.69 141.9
							 73.73 144.49 76.32 C147.08 78.91 149.14 81.97 150.69 85.5 C152.23 89.04 152.98 92.74 152.93 96.63 C152.93
							 100.61 152.18 104.32 150.69 107.75 C149.19 111.19 147.15 114.22 144.56 116.86 C141.97 119.5 138.91 121.57
							 135.38 123.06 C131.84 124.55 128.13 125.3 124.25 125.3 C121.27 125.3 118.35 124.85 115.52 123.96 C112.68
							 123.06 110.06 121.74 107.67 120 L75.04 152.56 C74.1 153.5 72.98 153.97 71.68 153.97 C70.39 153.97 69.27
							 153.5 68.32 152.56 C67.38 151.61 66.9 150.49 66.9 149.2 C66.9 147.9 67.38 146.78 68.32 145.84 L100.88
							 113.2 C99.14 110.81 97.82 108.2 96.92 105.36 C96.03 102.53 95.58 99.61 95.58 96.63 C95.58 92.69 96.33
							 88.99 97.82 85.5 C99.31 82.02 101.35 78.98 103.94 76.39 C106.53 73.8 109.57 71.74 113.05 70.19 C116.54
							 68.65 120.27 67.9 124.25 67.95 ZM124.25 115.74 C126.89 115.74 129.35 115.25 131.64 114.25 C133.93 113.25
							 135.98 111.88 137.77 110.14 C139.56 108.4 140.93 106.38 141.87 104.09 C142.82 101.8 143.32 99.32 143.37
							 96.63 C143.37 93.99 142.87 91.52 141.87 89.23 C140.88 86.94 139.51 84.9 137.77 83.11 C136.02 81.32 134.01
							 79.95 131.72 79 C129.43 78.06 126.94 77.56 124.25 77.51 C121.61 77.51 119.15 78.01 116.86 79 C114.57
							 80 112.53 81.37 110.74 83.11 C108.94 84.85 107.58 86.87 106.63 89.16 C105.68 91.45 105.19 93.94 105.14
							 96.63 C105.14 99.27 105.63 101.73 106.63 104.02 C107.63 106.31 108.99 108.35 110.74 110.14 C112.48 111.93
							 114.49 113.3 116.78 114.25 C119.07 115.2 121.56 115.69 124.25 115.74 Z" class="st1"/>
			</g>
		</g>
		<g id="group63-4" transform="translate(55.4181,-0.75)" v:mID="63" v:groupContext="group">
			<title>Icon-identity-223</title>
			<g id="shape64-5" v:mID="64" v:groupContext="shape" transform="translate(58.3262,-15.6908)">
				<title>Sheet.64</title>
				<path d="M52.41 153.97 A5.08023 5.08023 -180 0 0 57.55 148.89 A1.80059 1.80059 -180 0 0 57.43 148.06 C55.43 131.98
							 46.24 118.86 28.75 118.86 C11.25 118.86 1.8 130.18 0 148.06 A5.20885 5.20885 -180 0 0 4.63 153.72 L52.41
							 153.72 L52.41 153.97 Z" class="st2"/>
			</g>
			<g id="shape65-7" v:mID="65" v:groupContext="shape" transform="translate(78.3899,-26.6873)">
				<title>Sheet.65</title>
				<path d="M8.75 133.91 A15.6908 15.6908 0 0 1 -0 131.34 L8.68 153.97 L17.23 131.53 A16.3339 16.3339 0 0 1 8.75 133.91
							 Z" class="st3"/>
			</g>
			<g id="shape66-9" v:mID="66" v:groupContext="shape" transform="translate(70.9946,-46.751)">
				<title>Sheet.66</title>
				<ellipse cx="16.141" cy="137.833" rx="16.141" ry="16.141" class="st2"/>
			</g>
			<g id="shape67-11" v:mID="67" v:groupContext="shape">
				<title>Sheet.67</title>
				<path d="M78.39 153.97 A7.6525 7.6525 -180 0 0 86.04 146.32 A4.24425 4.24425 -180 0 0 86.04 145.42 C83.02 121.37
							 69.32 101.82 43.21 101.82 C17.11 101.82 2.83 118.41 0 145.23 A7.71681 7.71681 -180 0 0 6.88 153.65 L78.26
							 153.65 L78.39 153.97 Z" class="st4"/>
			</g>
			<g id="shape68-15" v:mID="68" v:groupContext="shape" transform="translate(30.6743,-16.5268)">
				<title>Sheet.68</title>
				<path d="M12.86 124.07 A23.9221 23.9221 0 0 1 0 120.21 L12.86 153.97 L25.72 120.47 A24.5009 24.5009 0 0 1 12.86 124.07
							 Z" class="st3"/>
			</g>
			<g id="shape69-17" v:mID="69" v:groupContext="shape" transform="translate(19.2277,-46.4295)">
				<title>Sheet.69</title>
				<ellipse cx="24.115" cy="129.859" rx="24.115" ry="24.115" class="st5"/>
			</g>
		</g>
	</g>
</svg>
