<?xml version="1.0" encoding="UTF-8" standalone="no"?>
<!DOCTYPE svg PUBLIC "-//W3C//DTD SVG 1.1//EN" "http://www.w3.org/Graphics/SVG/1.1/DTD/svg11.dtd">
<!-- Generated by Microsoft Visio, SVG Export community.svg Page-1 -->
<svg xmlns="http://www.w3.org/2000/svg" xmlns:xlink="http://www.w3.org/1999/xlink" xmlns:ev="http://www.w3.org/2001/xml-events"
		xmlns:v="http://schemas.microsoft.com/visio/2003/SVGExtensions/" width="2.81161in" height="2.68207in"
		viewBox="0 0 202.436 193.109" xml:space="preserve" color-interpolation-filters="sRGB" class="st6">
	<v:documentProperties v:langID="1033" v:viewMarkup="false"/>

	<style type="text/css">
	<![CDATA[
		.st1 {fill:#0087ea;stroke:none;stroke-linecap:butt;stroke-width:0.298828}
		.st2 {fill:#0078d4;stroke:none;stroke-linecap:butt;stroke-width:0.75}
		.st3 {fill:#ffffff;fill-opacity:0.8;stroke:none;stroke-linecap:butt;stroke-width:0.75}
		.st4 {fill:url(#grad0-14);stroke:none;stroke-linecap:butt;stroke-width:0.75}
		.st5 {fill:url(#grad0-20);stroke:none;stroke-linecap:butt;stroke-width:0.75}
		.st6 {fill:none;fill-rule:evenodd;font-size:12px;overflow:visible;stroke-linecap:square;stroke-miterlimit:3}
	]]>
	</style>

	<defs id="Patterns_And_Gradients">
		<linearGradient id="grad0-14" x1="0" y1="0" x2="1" y2="0" gradientTransform="rotate(90 0.5 0.5)">
			<stop offset="0.22" stop-color="#32d4f5" stop-opacity="1"/>
			<stop offset="1" stop-color="#198ab3" stop-opacity="1"/>
		</linearGradient>
		<linearGradient id="grad0-20" x1="0" y1="0" x2="1" y2="0" gradientTransform="rotate(85.401203911388 0.5 0.5)">
			<stop offset="0.22" stop-color="#32d4f5" stop-opacity="1"/>
			<stop offset="1" stop-color="#198ab3" stop-opacity="1"/>
		</linearGradient>
	</defs>
	<g v:mID="0" v:index="1" v:groupContext="foregroundPage">
		<title>Page-1</title>
		<v:pageProperties v:drawingScale="1" v:pageScale="1" v:drawingUnits="0" v:shadowOffsetX="9" v:shadowOffsetY="-9"/>
		<g id="group70-1" transform="translate(0.298828,-4.63729)" v:mID="70" v:groupContext="group">
			<title>Sheet.70</title>
			<g id="shape71-2" v:mID="71" v:groupContext="shape">
				<title>Sheet.71</title>
				<path d="M94.09 4.94 C102.72 4.94 111.05 6.04 119.08 8.24 C127.1 10.45 134.61 13.6 141.59 17.71 C148.57 21.81 154.91
							 26.71 160.61 32.41 C166.31 38.11 171.21 44.48 175.31 51.52 C179.41 58.56 182.57 66.07 184.77 74.03 C186.98
							 81.99 188.11 90.32 188.17 99.02 C188.17 107.66 187.07 115.99 184.87 124.01 C182.66 132.04 179.51 139.54
							 175.4 146.53 C171.3 153.51 166.4 159.85 160.7 165.54 C155 171.24 148.63 176.14 141.59 180.25 C134.54
							 184.35 127.04 187.5 119.08 189.71 C111.12 191.91 102.78 193.05 94.09 193.11 C85.45 193.11 77.12 192.01
							 69.09 189.8 C61.07 187.6 53.57 184.44 46.58 180.34 C39.6 176.23 33.26 171.33 27.56 165.64 C21.87 159.94
							 16.97 153.57 12.86 146.53 C8.76 139.48 5.6 132.01 3.4 124.11 C1.19 116.2 0.06 107.84 0 99.02 C0 90.39
							 1.1 82.06 3.31 74.03 C5.51 66.01 8.67 58.5 12.77 51.52 C16.88 44.54 21.78 38.2 27.47 32.5 C33.17 26.8
							 39.54 21.9 46.58 17.8 C53.63 13.7 61.1 10.54 69 8.34 C76.9 6.13 85.27 5 94.09 4.94 ZM168.42 63.74 C166.09
							 58.78 163.27 54.12 159.97 49.77 C156.66 45.43 152.98 41.41 148.94 37.74 C144.9 34.06 140.52 30.85 135.8
							 28.09 C131.08 25.33 126.15 23.04 121.01 21.2 C123.21 24.26 125.2 27.51 126.98 30.94 C128.76 34.37 130.32
							 37.89 131.67 41.5 C133.01 45.12 134.21 48.82 135.25 52.62 C136.29 56.42 137.15 60.13 137.82 63.74 L168.42
							 63.74 ZM176.41 99.02 C176.41 90.88 175.28 83.04 173.01 75.5 L139.66 75.5 C140.15 79.42 140.52 83.31
							 140.76 87.17 C141.01 91.03 141.13 94.98 141.13 99.02 C141.13 103 141.01 106.92 140.76 110.78 C140.52
							 114.64 140.15 118.56 139.66 122.54 L173.01 122.54 C175.28 115.01 176.41 107.17 176.41 99.02 ZM94.09
							 181.35 C97.09 181.35 99.88 180.52 102.45 178.87 C105.02 177.21 107.44 175.04 109.71 172.34 C111.97 169.65
							 113.93 166.62 115.59 163.25 C117.24 159.88 118.8 156.42 120.27 152.87 C121.74 149.31 122.88 145.94 123.67
							 142.76 C124.47 139.57 125.17 136.76 125.79 134.31 L62.39 134.31 C62.88 136.69 63.58 139.51 64.5 142.76
							 C65.42 146 66.55 149.37 67.9 152.87 C69.25 156.36 70.78 159.79 72.49 163.16 C74.21 166.52 76.2 169.59
							 78.47 172.34 C80.73 175.1 83.12 177.27 85.63 178.87 C88.14 180.46 90.96 181.29 94.09 181.35 ZM127.81
							 122.54 C128.3 118.62 128.66 114.73 128.91 110.88 C129.15 107.02 129.31 103.07 129.37 99.02 C129.37 95.04
							 129.25 91.12 129 87.26 C128.76 83.4 128.36 79.48 127.81 75.5 L60.37 75.5 C59.88 79.42 59.51 83.31 59.26
							 87.17 C59.02 91.03 58.87 94.98 58.8 99.02 C58.8 103 58.93 106.92 59.17 110.78 C59.42 114.64 59.81 118.56
							 60.37 122.54 L127.81 122.54 ZM11.76 99.02 C11.76 107.17 12.89 115.01 15.16 122.54 L48.51 122.54 C48.02
							 118.62 47.66 114.73 47.41 110.88 C47.17 107.02 47.04 103.07 47.04 99.02 C47.04 95.04 47.17 91.12 47.41
							 87.26 C47.66 83.4 48.02 79.48 48.51 75.5 L15.16 75.5 C12.89 83.04 11.76 90.88 11.76 99.02 ZM94.09 16.7
							 C91.09 16.7 88.3 17.52 85.73 19.18 C83.15 20.83 80.73 23.01 78.47 25.7 C76.2 28.4 74.24 31.43 72.59
							 34.8 C70.93 38.17 69.37 41.63 67.9 45.18 C66.43 48.73 65.3 52.1 64.5 55.29 C63.7 58.47 63 61.29 62.39
							 63.74 L125.79 63.74 C125.3 61.35 124.59 58.53 123.67 55.29 C122.75 52.04 121.62 48.67 120.27 45.18 C118.93
							 41.69 117.39 38.26 115.68 34.89 C113.96 31.52 111.97 28.46 109.71 25.7 C107.44 22.94 105.05 20.77 102.54
							 19.18 C100.03 17.59 97.21 16.76 94.09 16.7 ZM67.17 21.2 C62.02 22.98 57.09 25.27 52.37 28.09 C47.66
							 30.91 43.28 34.12 39.23 37.74 C35.19 41.35 31.52 45.33 28.21 49.68 C24.9 54.03 22.08 58.72 19.75 63.74
							 L50.35 63.74 C51.09 60.06 51.94 56.36 52.92 52.62 C53.9 48.89 55.07 45.21 56.42 41.6 C57.76 37.98 59.36
							 34.43 61.19 30.94 C63.03 27.45 65.02 24.2 67.17 21.2 ZM19.75 134.31 C22.08 139.27 24.9 143.92 28.21
							 148.27 C31.52 152.62 35.19 156.63 39.23 160.31 C43.28 163.98 47.66 167.2 52.37 169.96 C57.09 172.71
							 62.02 175.01 67.17 176.85 C64.96 173.78 62.97 170.54 61.19 167.11 C59.42 163.68 57.85 160.15 56.51 156.54
							 C55.16 152.93 53.96 149.22 52.92 145.42 C51.88 141.62 51.02 137.92 50.35 134.31 L19.75 134.31 ZM121.01
							 176.85 C126.15 175.07 131.08 172.77 135.8 169.96 C140.52 167.14 144.9 163.92 148.94 160.31 C152.98 156.69
							 156.66 152.71 159.97 148.36 C163.27 144.01 166.09 139.33 168.42 134.31 L137.82 134.31 C137.09 137.98
							 136.23 141.69 135.25 145.42 C134.27 149.16 133.11 152.83 131.76 156.45 C130.41 160.06 128.82 163.62
							 126.98 167.11 C125.14 170.6 123.15 173.84 121.01 176.85 Z" class="st1"/>
			</g>
		</g>
		<g id="group63-4" transform="translate(85.7988,-0.75)" v:mID="63" v:groupContext="group">
			<title>Icon-identity-223</title>
			<g id="shape64-5" v:mID="64" v:groupContext="shape" transform="translate(58.3262,-15.6908)">
				<title>Sheet.64</title>
				<path d="M52.41 193.11 A5.08023 5.08023 -180 0 0 57.55 188.03 A1.80059 1.80059 -180 0 0 57.43 187.19 C55.43 171.12
							 46.24 158 28.75 158 C11.25 158 1.8 169.32 0 187.19 A5.20885 5.20885 -180 0 0 4.63 192.85 L52.41 192.85
							 L52.41 193.11 Z" class="st2"/>
			</g>
			<g id="shape65-7" v:mID="65" v:groupContext="shape" transform="translate(78.3899,-26.6873)">
				<title>Sheet.65</title>
				<path d="M8.75 173.05 A15.6908 15.6908 0 0 1 -0 170.47 L8.68 193.11 L17.23 170.67 A16.3339 16.3339 0 0 1 8.75 173.05
							 Z" class="st3"/>
			</g>
			<g id="shape66-9" v:mID="66" v:groupContext="shape" transform="translate(70.9946,-46.751)">
				<title>Sheet.66</title>
				<ellipse cx="16.141" cy="176.968" rx="16.141" ry="16.141" class="st2"/>
			</g>
			<g id="shape67-11" v:mID="67" v:groupContext="shape">
				<title>Sheet.67</title>
				<path d="M78.39 193.11 A7.6525 7.6525 -180 0 0 86.04 185.46 A4.24425 4.24425 -180 0 0 86.04 184.56 C83.02 160.51
							 69.32 140.96 43.21 140.96 C17.11 140.96 2.83 157.55 0 184.36 A7.71681 7.71681 -180 0 0 6.88 192.79 L78.26
							 192.79 L78.39 193.11 Z" class="st4"/>
			</g>
			<g id="shape68-15" v:mID="68" v:groupContext="shape" transform="translate(30.6743,-16.5268)">
				<title>Sheet.68</title>
				<path d="M12.86 163.21 A23.9221 23.9221 0 0 1 0 159.35 L12.86 193.11 L25.72 159.61 A24.5009 24.5009 0 0 1 12.86 163.21
							 Z" class="st3"/>
			</g>
			<g id="shape69-17" v:mID="69" v:groupContext="shape" transform="translate(19.2277,-46.4295)">
				<title>Sheet.69</title>
				<ellipse cx="24.115" cy="168.994" rx="24.115" ry="24.115" class="st5"/>
			</g>
		</g>
	</g>
</svg>
