<?xml version="1.0" encoding="UTF-8" standalone="no"?>
<!DOCTYPE svg PUBLIC "-//W3C//DTD SVG 1.1//EN" "http://www.w3.org/Graphics/SVG/1.1/DTD/svg11.dtd">
<!-- Generated by Microsoft Visio, SVG Export community.svg Page-1 -->
<svg xmlns="http://www.w3.org/2000/svg" xmlns:xlink="http://www.w3.org/1999/xlink" xmlns:ev="http://www.w3.org/2001/xml-events"
		xmlns:v="http://schemas.microsoft.com/visio/2003/SVGExtensions/" width="2.98342in" height="2.83721in"
		viewBox="0 0 214.806 204.279" xml:space="preserve" color-interpolation-filters="sRGB" class="st6">
	<v:documentProperties v:langID="1033" v:viewMarkup="false"/>

	<style type="text/css">
	<![CDATA[
		.st1 {fill:#0087ea;stroke:none;stroke-linecap:butt;stroke-width:0.298828}
		.st2 {fill:#0078d4;stroke:none;stroke-linecap:butt;stroke-width:0.75}
		.st3 {fill:#ffffff;fill-opacity:0.8;stroke:none;stroke-linecap:butt;stroke-width:0.75}
		.st4 {fill:url(#grad0-14);stroke:none;stroke-linecap:butt;stroke-width:0.75}
		.st5 {fill:url(#grad0-20);stroke:none;stroke-linecap:butt;stroke-width:0.75}
		.st6 {fill:none;fill-rule:evenodd;font-size:12px;overflow:visible;stroke-linecap:square;stroke-miterlimit:3}
	]]>
	</style>

	<defs id="Patterns_And_Gradients">
		<linearGradient id="grad0-14" x1="0" y1="0" x2="1" y2="0" gradientTransform="rotate(90 0.5 0.5)">
			<stop offset="0.22" stop-color="#32d4f5" stop-opacity="1"/>
			<stop offset="1" stop-color="#198ab3" stop-opacity="1"/>
		</linearGradient>
		<linearGradient id="grad0-20" x1="0" y1="0" x2="1" y2="0" gradientTransform="rotate(85.401203911388 0.5 0.5)">
			<stop offset="0.22" stop-color="#32d4f5" stop-opacity="1"/>
			<stop offset="1" stop-color="#198ab3" stop-opacity="1"/>
		</linearGradient>
	</defs>
	<g v:mID="0" v:index="1" v:groupContext="foregroundPage">
		<title>Page-1</title>
		<v:pageProperties v:drawingScale="1" v:pageScale="1" v:drawingUnits="0" v:shadowOffsetX="9" v:shadowOffsetY="-9"/>
		<g id="group70-1" transform="translate(0.298828,-15.8075)" v:mID="70" v:groupContext="group">
			<title>Sheet.70</title>
			<g id="shape71-2" v:mID="71" v:groupContext="shape">
				<title>Sheet.71</title>
				<path d="M94.09 16.11 C102.72 16.11 111.05 17.21 119.08 19.41 C127.1 21.62 134.61 24.77 141.59 28.88 C148.57 32.98
							 154.91 37.88 160.61 43.58 C166.31 49.28 171.21 55.65 175.31 62.69 C179.41 69.73 182.57 77.24 184.77
							 85.2 C186.98 93.16 188.11 101.49 188.17 110.19 C188.17 118.83 187.07 127.16 184.87 135.18 C182.66 143.21
							 179.51 150.71 175.4 157.7 C171.3 164.68 166.4 171.02 160.7 176.71 C155 182.41 148.63 187.31 141.59 191.42
							 C134.54 195.52 127.04 198.67 119.08 200.88 C111.12 203.08 102.78 204.22 94.09 204.28 C85.45 204.28 77.12
							 203.18 69.09 200.97 C61.07 198.77 53.57 195.61 46.58 191.51 C39.6 187.4 33.26 182.5 27.56 176.81 C21.87
							 171.11 16.97 164.74 12.86 157.7 C8.76 150.65 5.6 143.18 3.4 135.28 C1.19 127.37 0.06 119.01 0 110.19
							 C0 101.56 1.1 93.23 3.31 85.2 C5.51 77.18 8.67 69.67 12.77 62.69 C16.88 55.71 21.78 49.37 27.47 43.67
							 C33.17 37.97 39.54 33.07 46.58 28.97 C53.63 24.87 61.1 21.71 69 19.51 C76.9 17.3 85.27 16.17 94.09 16.11
							 ZM168.42 74.91 C166.09 69.95 163.27 65.29 159.97 60.94 C156.66 56.6 152.98 52.58 148.94 48.91 C144.9
							 45.23 140.52 42.02 135.8 39.26 C131.08 36.5 126.15 34.21 121.01 32.37 C123.21 35.43 125.2 38.68 126.98
							 42.11 C128.76 45.54 130.32 49.06 131.67 52.68 C133.01 56.29 134.21 60 135.25 63.79 C136.29 67.59 137.15
							 71.3 137.82 74.91 L168.42 74.91 ZM176.41 110.19 C176.41 102.05 175.28 94.21 173.01 86.67 L139.66 86.67
							 C140.15 90.59 140.52 94.48 140.76 98.34 C141.01 102.2 141.13 106.15 141.13 110.19 C141.13 114.17 141.01
							 118.09 140.76 121.95 C140.52 125.81 140.15 129.73 139.66 133.71 L173.01 133.71 C175.28 126.18 176.41
							 118.34 176.41 110.19 ZM94.09 192.52 C97.09 192.52 99.88 191.69 102.45 190.04 C105.02 188.38 107.44 186.21
							 109.71 183.51 C111.97 180.82 113.93 177.79 115.59 174.42 C117.24 171.05 118.8 167.59 120.27 164.04 C121.74
							 160.48 122.88 157.11 123.67 153.93 C124.47 150.74 125.17 147.93 125.79 145.48 L62.39 145.48 C62.88 147.86
							 63.58 150.68 64.5 153.93 C65.42 157.17 66.55 160.54 67.9 164.04 C69.25 167.53 70.78 170.96 72.49 174.33
							 C74.21 177.7 76.2 180.76 78.47 183.51 C80.73 186.27 83.12 188.45 85.63 190.04 C88.14 191.63 90.96 192.46
							 94.09 192.52 ZM127.81 133.71 C128.3 129.79 128.66 125.9 128.91 122.05 C129.15 118.19 129.31 114.24 129.37
							 110.19 C129.37 106.21 129.25 102.29 129 98.43 C128.76 94.57 128.36 90.65 127.81 86.67 L60.37 86.67 C59.88
							 90.59 59.51 94.48 59.26 98.34 C59.02 102.2 58.87 106.15 58.8 110.19 C58.8 114.17 58.93 118.09 59.17
							 121.95 C59.42 125.81 59.81 129.73 60.37 133.71 L127.81 133.71 ZM11.76 110.19 C11.76 118.34 12.89 126.18
							 15.16 133.71 L48.51 133.71 C48.02 129.79 47.66 125.9 47.41 122.05 C47.17 118.19 47.04 114.24 47.04 110.19
							 C47.04 106.21 47.17 102.29 47.41 98.43 C47.66 94.57 48.02 90.65 48.51 86.67 L15.16 86.67 C12.89 94.21
							 11.76 102.05 11.76 110.19 ZM94.09 27.87 C91.09 27.87 88.3 28.69 85.73 30.35 C83.15 32 80.73 34.18 78.47
							 36.87 C76.2 39.57 74.24 42.6 72.59 45.97 C70.93 49.34 69.37 52.8 67.9 56.35 C66.43 59.9 65.3 63.27 64.5
							 66.46 C63.7 69.64 63 72.46 62.39 74.91 L125.79 74.91 C125.3 72.52 124.59 69.7 123.67 66.46 C122.75 63.21
							 121.62 59.84 120.27 56.35 C118.93 52.86 117.39 49.43 115.68 46.06 C113.96 42.69 111.97 39.63 109.71
							 36.87 C107.44 34.12 105.05 31.94 102.54 30.35 C100.03 28.76 97.21 27.93 94.09 27.87 ZM67.17 32.37 C62.02
							 34.15 57.09 36.44 52.37 39.26 C47.66 42.08 43.28 45.29 39.23 48.91 C35.19 52.52 31.52 56.5 28.21 60.85
							 C24.9 65.2 22.08 69.89 19.75 74.91 L50.35 74.91 C51.09 71.24 51.94 67.53 52.92 63.79 C53.9 60.06 55.07
							 56.38 56.42 52.77 C57.76 49.15 59.36 45.6 61.19 42.11 C63.03 38.62 65.02 35.37 67.17 32.37 ZM19.75 145.48
							 C22.08 150.44 24.9 155.09 28.21 159.44 C31.52 163.79 35.19 167.8 39.23 171.48 C43.28 175.15 47.66 178.37
							 52.37 181.13 C57.09 183.88 62.02 186.18 67.17 188.02 C64.96 184.95 62.97 181.71 61.19 178.28 C59.42
							 174.85 57.85 171.32 56.51 167.71 C55.16 164.1 53.96 160.39 52.92 156.59 C51.88 152.8 51.02 149.09 50.35
							 145.48 L19.75 145.48 ZM121.01 188.02 C126.15 186.24 131.08 183.94 135.8 181.13 C140.52 178.31 144.9
							 175.09 148.94 171.48 C152.98 167.86 156.66 163.88 159.97 159.53 C163.27 155.18 166.09 150.5 168.42 145.48
							 L137.82 145.48 C137.09 149.15 136.23 152.86 135.25 156.59 C134.27 160.33 133.11 164 131.76 167.62 C130.41
							 171.23 128.82 174.79 126.98 178.28 C125.14 181.77 123.15 185.01 121.01 188.02 Z" class="st1"/>
			</g>
		</g>
		<g id="group63-4" transform="translate(83.5488,-0.75)" v:mID="63" v:groupContext="group">
			<title>Icon-identity-223</title>
			<g id="shape64-5" v:mID="64" v:groupContext="shape" transform="translate(65.6845,-17.6704)">
				<title>Sheet.64</title>
				<path d="M59.02 204.28 A5.72114 5.72114 -180 0 0 64.82 198.56 A2.02775 2.02775 -180 0 0 64.67 197.62 C62.43 179.51
							 52.07 164.74 32.37 164.74 C12.67 164.74 2.03 177.48 0 197.62 A5.86598 5.86598 -180 0 0 5.21 203.99 L59.02
							 203.99 L59.02 204.28 Z" class="st2"/>
			</g>
			<g id="shape65-7" v:mID="65" v:groupContext="shape" transform="translate(88.2794,-30.0541)">
				<title>Sheet.65</title>
				<path d="M9.85 181.68 A17.6704 17.6704 0 0 1 0 178.79 L9.78 204.28 L19.41 179 A18.3946 18.3946 0 0 1 9.85 181.68 Z"
						class="st3"/>
			</g>
			<g id="shape66-9" v:mID="66" v:groupContext="shape" transform="translate(79.9512,-52.649)">
				<title>Sheet.66</title>
				<ellipse cx="18.1773" cy="186.102" rx="18.1773" ry="18.1773" class="st2"/>
			</g>
			<g id="shape67-11" v:mID="67" v:groupContext="shape">
				<title>Sheet.67</title>
				<path d="M88.28 204.28 A8.61792 8.61792 -180 0 0 96.9 195.66 A4.77969 4.77969 -180 0 0 96.9 194.65 C93.49 167.56
							 78.07 145.55 48.67 145.55 C19.26 145.55 3.19 164.23 0 194.43 A8.69034 8.69034 -180 0 0 7.75 203.92 L88.13
							 203.92 L88.28 204.28 Z" class="st4"/>
			</g>
			<g id="shape68-15" v:mID="68" v:groupContext="shape" transform="translate(34.5441,-18.6118)">
				<title>Sheet.68</title>
				<path d="M14.48 170.6 A26.9401 26.9401 0 0 1 -0 166.26 L14.48 204.28 L28.97 166.55 A27.5918 27.5918 0 0 1 14.48 170.6
							 Z" class="st3"/>
			</g>
			<g id="shape69-17" v:mID="69" v:groupContext="shape" transform="translate(21.6534,-52.2869)">
				<title>Sheet.69</title>
				<ellipse cx="27.1573" cy="177.122" rx="27.1573" ry="27.1573" class="st5"/>
			</g>
		</g>
	</g>
</svg>
