<svg id="ICONS-64x" xmlns="http://www.w3.org/2000/svg" viewBox="0 0 64 64"><defs><style>.cls-1{fill:#556a8a}</style></defs><path class="cls-1" d="M26 48L12 61H8l6-17 6.61-3L26 48zm12 0l14 13h4l-6-17-6.61-3L38 48zm-2 14h-8l2-6h4l2 6z"/><path d="M32 3S18.79 20.1 19 33a38.74 38.74 0 007 22h12a38.74 38.74 0 007-22c.21-12.9-13-30-13-30z" fill="#fff"/><path d="M45 33.49a38.52 38.52 0 01-6.6 21.3l-.15.21h-6l-.15-.21a38.59 38.59 0 01-6.6-21.3c-.07-4.11 1.27-8.68 3.11-13a81.56 81.56 0 016.64-12.17 81.56 81.56 0 016.64 12.18c1.84 4.31 3.18 8.88 3.11 12.99z" fill="#e5e5e5"/><path d="M41.39 20H22.61a87.76 87.76 0 019-15.61l.39-.56.41.56A87.76 87.76 0 0141.39 20z" fill="#2bc7f4"/><path d="M32 3S18.79 20.1 19 33a38.74 38.74 0 007 22h12a38.74 38.74 0 007-22c.21-12.9-13-30-13-30z" stroke="#556a8a" stroke-miterlimit="10" stroke-width="2" fill="none"/><circle cx="32" cy="28" r="5" stroke="#556a8a" stroke-miterlimit="10" stroke-width="2" fill="#fff"/><path class="cls-1" d="M27 55h10v2H27z"/></svg>