<svg xmlns="http://www.w3.org/2000/svg" viewBox="0 0 2048 2048">
  <path d="M917 1280q18 68 54 128H0V0h1152v712q-36 21-68 48t-60 59V128H128v1152h789zM384 512v128H256V512h128zm512 0v128H512V512h384zM256 896V768h128v128H256zm256 0V768h384v128H512zM384 256v128H256V256h128zm512 0v128H512V256h384zm1154 1792h-128q0-105-40-198t-109-164-162-110-199-41q-106 0-200 40t-164 110-111 163-41 200H768q0-98 29-189t82-169 127-139 165-97q-70-55-109-134t-40-168q0-79 30-149t82-122 122-83 150-30q79 0 149 30t122 82 83 123 30 149q0 88-39 167t-108 133q92 36 167 96t128 139 83 170 29 191zm-388-896q0-53-20-99t-55-82-81-55-100-20q-53 0-99 20t-82 55-55 81-20 100q0 52 20 98t54 82 81 55 98 21q53 0 100-20t82-54 56-81 21-101z" />
</svg>