<svg id="ICONS-64x" xmlns="http://www.w3.org/2000/svg" viewBox="0 0 64 64"><defs><style>.cls-3{fill:#556a8a}</style></defs><path d="M63 19.45L46 18 44.55 1 30.5 12 18.45 1 17 18 0 19.45 11 32.5 0 45.55 17 47l1.42 17L31.5 53l13.05 11L46 47l17-1.42L52 32.5z" fill="#fff"/><path fill="#e5e5e5" d="M51.31 32.5l10.68 12.63-16.48 1.38-1.38 16.48L30 52V13L44.13 1.96l1.38 16.53 16.48 1.38L51.31 32.5z"/><path class="cls-3" d="M42.86 4.86L44 18.2l.14 1.69 1.66.11L59 21.12l-8.57 10.09-1.09 1.29 1.09 1.29L59 43.88 45.8 45l-1.69.14L44 46.8 42.88 60l-10.09-8.57-1.29-1.09-1.29 1.09L20.12 60 19 46.8l-.14-1.69L17.2 45 4 43.88l8.53-10.09 1.09-1.29-1.09-1.29L4 21.12 17.2 20l1.69-.14.11-1.66 1.08-13 9 8.26 1.25 1.14 1.33-1 11.2-8.74M44.55 1L30.5 12 18.45 1 17 18 0 19.45 11 32.5 0 45.55 17 47l1.42 17L31.5 53l13.05 11L46 47l17-1.42L52 32.5l11-13.05L46 18 44.55 1z"/><path class="cls-3" d="M20.2 28.91l10 10V18h1.62v20.9l10-10 1.14 1.14L31 42 19.05 30.05z"/><path fill="none" stroke="#556a8a" stroke-miterlimit="10" stroke-width="2" d="M22 46h18"/></svg>