<?xml version="1.0" encoding="UTF-8" standalone="no"?>
<!DOCTYPE svg PUBLIC "-//W3C//DTD SVG 1.1//EN" "http://www.w3.org/Graphics/SVG/1.1/DTD/svg11.dtd">
<!-- Generated by Microsoft Visio, SVG Export platform-guide.svg Page-1 -->
<svg xmlns="http://www.w3.org/2000/svg" xmlns:xlink="http://www.w3.org/1999/xlink" xmlns:ev="http://www.w3.org/2001/xml-events"
		xmlns:v="http://schemas.microsoft.com/visio/2003/SVGExtensions/" width="2.14583in" height="2.6198in"
		viewBox="0 0 154.5 188.626" xml:space="preserve" color-interpolation-filters="sRGB" class="st6">
	<v:documentProperties v:langID="1033" v:viewMarkup="false"/>

	<style type="text/css">
	<![CDATA[
		.st1 {fill:#ffffff;stroke:none;stroke-linecap:butt;stroke-width:0.75}
		.st2 {fill:url(#grad0-9)}
		.st3 {stroke:none;stroke-linecap:butt;stroke-width:0.75}
		.st4 {fill:#0078d4;stroke:none;stroke-linecap:butt;stroke-width:0.75}
		.st5 {fill:url(#grad0-18);stroke:none;stroke-linecap:butt;stroke-width:0.944444}
		.st6 {fill:none;fill-rule:evenodd;font-size:12px;overflow:visible;stroke-linecap:square;stroke-miterlimit:3}
	]]>
	</style>

	<defs id="Patterns_And_Gradients">
		<linearGradient id="grad0-9" x1="0" y1="0" x2="1" y2="0" gradientTransform="rotate(-90 0.5 0.5)">
			<stop offset="0" stop-color="#0078d4" stop-opacity="1"/>
			<stop offset="0.82" stop-color="#5ea0ef" stop-opacity="1"/>
		</linearGradient>
		<linearGradient id="grad0-18" x1="0" y1="0" x2="1" y2="0" gradientTransform="rotate(90 0.5 0.5)">
			<stop offset="0" stop-color="#3cacff" stop-opacity="1"/>
			<stop offset="1" stop-color="#0066cc" stop-opacity="1"/>
		</linearGradient>
	</defs>
	<g v:mID="0" v:index="1" v:groupContext="foregroundPage">
		<title>Page-1</title>
		<v:pageProperties v:drawingScale="1" v:pageScale="1" v:drawingUnits="0" v:shadowOffsetX="9" v:shadowOffsetY="-9"/>
		<g id="group131-1" transform="translate(0.75,-0.750978)" v:mID="131" v:groupContext="group">
			<title>Icon-azurestack-6</title>
			<g id="group132-2" v:mID="132" v:groupContext="group">
				<title>Sheet.132</title>
				<g id="group133-3" v:mID="133" v:groupContext="group">
					<title>Sheet.133</title>
					<g id="shape134-4" v:mID="134" v:groupContext="shape" transform="translate(1.11516,-1.33819)">
						<title>Sheet.134</title>
						<path d="M86.54 4.18 L6.36 4.18 A6.35641 6.35641 -180 0 0 0 10.53 L0 182.27 A6.35641 6.35641 -180 0 0 6.36
									 188.63 L144.41 188.63 A6.35641 6.35641 -180 0 0 150.77 182.27 L150.77 68.63 A6.35641 6.35641
									 -180 0 0 144.41 62.28 L98.58 62.28 A6.2449 6.2449 0 0 1 92.34 56.03 L92.34 10.53 A6.2449 6.2449
									 -180 0 0 86.54 4.18 Z" class="st1"/>
					</g>
					<g id="shape135-6" v:mID="135" v:groupContext="shape">
						<title>Sheet.135</title>
						<path d="M84.19 10.87 L84.19 54.03 A15.8353 15.8353 -180 0 0 100.03 69.86 L143.41 69.86 L143.41 179.26 L9.59
									 179.26 L9.59 10.87 L84.31 10.87 L84.19 10.87 ZM87.65 1.5 L6.47 1.5 A6.35641 6.35641 -180 0 0
									 0 7.86 L0 182.27 A6.35641 6.35641 -180 0 0 6.47 188.63 L146.53 188.63 A6.35641 6.35641 -180
									 0 0 153 182.27 L153 66.85 A6.35641 6.35641 -180 0 0 146.53 60.49 L100.03 60.49 A6.35641 6.35641
									 0 0 1 93.67 54.03 L93.67 7.86 A6.35641 6.35641 -180 0 0 87.65 1.5 Z" class="st2"/>
						<path d="M84.19 10.87 L84.19 54.03 A15.8353 15.8353 -180 0 0 100.03 69.86 L143.41 69.86 L143.41 179.26 L9.59
									 179.26 L9.59 10.87 L84.31 10.87M87.65 1.5 L6.47 1.5 A6.35641 6.35641 -180 0 0 0 7.86 L0 182.27
									 A6.35641 6.35641 -180 0 0 6.47 188.63 L146.53 188.63 A6.35641 6.35641 -180 0 0 153 182.27 L153
									 66.85 A6.35641 6.35641 -180 0 0 146.53 60.49 L100.03 60.49 A6.35641 6.35641 0 0 1 93.67 54.03
									 L93.67 7.86 A6.35641 6.35641 -180 0 0 87.65 1.5" class="st3"/>
					</g>
					<g id="shape136-11" v:mID="136" v:groupContext="shape" transform="translate(91.4432,-127.017)">
						<title>Sheet.136</title>
						<path d="M59.1 188.63 L0 129.86 L0 177.47 A11.1516 11.1516 -180 0 0 11.15 188.63 L59.1 188.63 Z"
								class="st4"/>
					</g>
				</g>
				<g id="shape138-13" v:mID="138" v:groupContext="shape" transform="translate(24.9796,-27.0124)">
					<title>Sheet.138</title>
					<path d="M4.57 130.11 L4.57 115.39 A6.91399 6.91399 0 0 1 2.45 116.17 L0 116.84 L0 112.26 A25.5372 25.5372 -180
								 0 0 3.46 110.92 A14.2741 14.2741 -180 0 0 6.91 109.36 L10.48 109.36 L10.48 130.11 L4.57 130.11 ZM0.22
								 159.1 L0.22 157.43 A11.1516 11.1516 0 0 1 0.22 154.53 A25.2026 25.2026 0 0 1 1.45 152.07 A20.742
								 20.742 0 0 1 4.57 149.17 A9.7019 9.7019 -180 0 0 6.91 147.28 C6.91 147.28 6.91 146.5 7.69 146.28
								 A1.56122 1.56122 -180 0 0 7.69 145.05 C7.69 143.6 6.91 142.93 5.24 142.93 A7.47158 7.47158 -180
								 0 0 0.45 144.83 L0.45 139.81 A12.0437 12.0437 0 0 1 3.57 138.58 A14.051 14.051 0 0 1 6.69 138.58
								 A7.80612 7.80612 0 0 1 11.82 140.25 A5.68732 5.68732 0 0 1 13.72 144.6 A8.3637 8.3637 0 0 1 12.71
								 148.39 A12.8243 12.8243 0 0 1 9.14 151.52 L6.91 152.85 A2.00729 2.00729 -180 0 0 6.24 153.97 L14.39
								 153.97 L14.39 158.65 L0.22 159.1 ZM14.05 182.3 A5.01822 5.01822 0 0 1 11.93 186.87 A10.2595 10.2595
								 0 0 1 6.02 188.54 A12.2668 12.2668 0 0 1 3.12 188.54 L0.56 187.76 L0.56 182.96 A5.46429 5.46429
								 -180 0 0 2.68 183.74 A8.02916 8.02916 -180 0 0 5.13 183.74 A6.69096 6.69096 -180 0 0 7.47 183.74
								 A2.1188 2.1188 -180 0 0 8.25 182.3 A1.67274 1.67274 -180 0 0 6.91 180.62 A11.1516 11.1516 -180 0
								 0 4.24 180.06 L2.68 180.06 L2.68 175.72 L4.35 175.72 A3.34548 3.34548 -180 0 0 6.91 175.05 A1.33819
								 1.33819 -180 0 0 7.69 173.6 C7.69 173.6 7.69 172.59 7.69 172.37 C7.69 172.15 6.69 172.37 5.8 172.37
								 A8.69825 8.69825 -180 0 0 1.9 173.49 L1.9 168.91 A13.7165 13.7165 0 0 1 7.03 167.8 A9.0328 9.0328
								 0 0 1 12.49 169.25 A4.23761 4.23761 0 0 1 14.27 173.04 A5.01822 5.01822 0 0 1 13.27 176.16 A5.01822
								 5.01822 0 0 1 10.37 177.83 A4.68367 4.68367 0 0 1 13.72 179.51 A6.46793 6.46793 0 0 1 14.05 182.3
								 Z" class="st4"/>
				</g>
			</g>
		</g>
		<g id="shape141-15" v:mID="141" v:groupContext="shape" transform="translate(59.895,-26.0729)">
			<title>Sheet.141</title>
			<path d="M68.39 188.63 L38.9 188.63 C38.08 188.63 37.26 187.94 37.26 186.99 L37.26 137.71 C37.26 136.76 38.08 136.07
						 38.9 136.07 L68.39 136.07 C69.34 136.07 70.02 136.76 70.02 137.71 L70.02 186.99 C70.02 187.94 69.34 188.63
						 68.39 188.63 ZM50.37 184.26 L56.92 184.26 L56.92 182.07 L50.37 182.07 L50.37 184.26 ZM65.66 140.44 L41.63
						 140.44 L41.63 177.57 L65.66 177.57 L65.66 140.44 ZM61.29 122.97 L4.37 122.97 L4.37 157.91 L34.94 157.91
						 L34.94 164.47 L2.18 164.47 C0 164.47 0 162.28 0 162.28 L0 120.65 C0 120.65 -0 118.47 2.18 118.47 L63.47
						 118.47 C63.47 118.47 65.66 118.47 65.66 120.65 L65.66 133.75 L61.29 133.75 L61.29 122.97 Z" class="st5"/>
		</g>
	</g>
</svg>
