<?xml version="1.0" encoding="UTF-8" standalone="no"?>
<!DOCTYPE svg PUBLIC "-//W3C//DTD SVG 1.1//EN" "http://www.w3.org/Graphics/SVG/1.1/DTD/svg11.dtd">
<!-- Generated by Microsoft Visio, SVG Export resources-devices.svg Page-1 -->
<svg xmlns="http://www.w3.org/2000/svg" xmlns:xlink="http://www.w3.org/1999/xlink" xmlns:ev="http://www.w3.org/2001/xml-events"
		xmlns:v="http://schemas.microsoft.com/visio/2003/SVGExtensions/" width="3.19957in" height="4.42354in"
		viewBox="0 0 230.369 318.495" xml:space="preserve" color-interpolation-filters="sRGB" class="st4">
	<v:documentProperties v:langID="1033" v:viewMarkup="false"/>

	<style type="text/css">
	<![CDATA[
		.st1 {fill:#0087ea;stroke:none;stroke-linecap:butt;stroke-width:0.298828}
		.st2 {fill:#ffffff;stroke:none;stroke-linecap:butt;stroke-width:0.944444}
		.st3 {fill:url(#grad0-10);stroke:none;stroke-linecap:butt;stroke-width:0.944444}
		.st4 {fill:none;fill-rule:evenodd;font-size:12px;overflow:visible;stroke-linecap:square;stroke-miterlimit:3}
	]]>
	</style>

	<defs id="Patterns_And_Gradients">
		<linearGradient id="grad0-10" x1="0" y1="0" x2="1" y2="0" gradientTransform="rotate(90 0.5 0.5)">
			<stop offset="0" stop-color="#3cacff" stop-opacity="1"/>
			<stop offset="1" stop-color="#0066cc" stop-opacity="1"/>
		</linearGradient>
	</defs>
	<g v:mID="0" v:index="1" v:groupContext="foregroundPage">
		<title>Page-1</title>
		<v:pageProperties v:drawingScale="1" v:pageScale="1" v:drawingUnits="0" v:shadowOffsetX="9" v:shadowOffsetY="-9"/>
		<g id="group81-1" transform="translate(0.298828,-130.023)" v:mID="81" v:groupContext="group">
			<title>Sheet.81</title>
			<g id="shape82-2" v:mID="82" v:groupContext="shape">
				<title>Sheet.82</title>
				<path d="M94.09 130.32 C102.72 130.32 111.05 131.42 119.08 133.63 C127.1 135.83 134.61 138.99 141.59 143.09 C148.57
							 147.2 154.91 152.1 160.61 157.79 C166.31 163.49 171.21 169.86 175.31 176.91 C179.41 183.95 182.57 191.45
							 184.77 199.42 C186.98 207.38 188.11 215.71 188.17 224.41 C188.17 233.05 187.07 241.38 184.87 249.4 C182.66
							 257.42 179.51 264.93 175.4 271.91 C171.3 278.89 166.4 285.23 160.7 290.93 C155 296.63 148.63 301.53
							 141.59 305.63 C134.54 309.74 127.04 312.89 119.08 315.1 C111.12 317.3 102.78 318.43 94.09 318.49 C85.45
							 318.49 77.12 317.39 69.09 315.19 C61.07 312.98 53.57 309.83 46.58 305.72 C39.6 301.62 33.26 296.72 27.56
							 291.02 C21.87 285.33 16.97 278.96 12.86 271.91 C8.76 264.87 5.6 257.39 3.4 249.49 C1.19 241.59 0.06
							 233.23 0 224.41 C0 215.77 1.1 207.44 3.31 199.42 C5.51 191.39 8.67 183.89 12.77 176.91 C16.88 169.92
							 21.78 163.58 27.47 157.89 C33.17 152.19 39.54 147.29 46.58 143.19 C53.63 139.08 61.1 135.93 69 133.72
							 C76.9 131.52 85.27 130.38 94.09 130.32 ZM168.42 189.13 C166.09 184.16 163.27 179.51 159.97 175.16 C156.66
							 170.81 152.98 166.8 148.94 163.12 C144.9 159.45 140.52 156.23 135.8 153.48 C131.08 150.72 126.15 148.42
							 121.01 146.58 C123.21 149.65 125.2 152.89 126.98 156.32 C128.76 159.75 130.32 163.28 131.67 166.89 C133.01
							 170.5 134.21 174.21 135.25 178.01 C136.29 181.81 137.15 185.51 137.82 189.13 L168.42 189.13 ZM176.41
							 224.41 C176.41 216.26 175.28 208.42 173.01 200.89 L139.66 200.89 C140.15 204.81 140.52 208.7 140.76
							 212.56 C141.01 216.41 141.13 220.37 141.13 224.41 C141.13 228.39 141.01 232.31 140.76 236.17 C140.52
							 240.03 140.15 243.95 139.66 247.93 L173.01 247.93 C175.28 240.4 176.41 232.56 176.41 224.41 ZM94.09
							 306.73 C97.09 306.73 99.88 305.91 102.45 304.25 C105.02 302.6 107.44 300.42 109.71 297.73 C111.97 295.03
							 113.93 292 115.59 288.63 C117.24 285.26 118.8 281.8 120.27 278.25 C121.74 274.7 122.88 271.33 123.67
							 268.14 C124.47 264.96 125.17 262.14 125.79 259.69 L62.39 259.69 C62.88 262.08 63.58 264.9 64.5 268.14
							 C65.42 271.39 66.55 274.76 67.9 278.25 C69.25 281.74 70.78 285.17 72.49 288.54 C74.21 291.91 76.2 294.97
							 78.47 297.73 C80.73 300.49 83.12 302.66 85.63 304.25 C88.14 305.85 90.96 306.67 94.09 306.73 ZM127.81
							 247.93 C128.3 244.01 128.66 240.12 128.91 236.26 C129.15 232.4 129.31 228.45 129.37 224.41 C129.37 220.43
							 129.25 216.51 129 212.65 C128.76 208.79 128.36 204.87 127.81 200.89 L60.37 200.89 C59.88 204.81 59.51
							 208.7 59.26 212.56 C59.02 216.41 58.87 220.37 58.8 224.41 C58.8 228.39 58.93 232.31 59.17 236.17 C59.42
							 240.03 59.81 243.95 60.37 247.93 L127.81 247.93 ZM11.76 224.41 C11.76 232.56 12.89 240.4 15.16 247.93
							 L48.51 247.93 C48.02 244.01 47.66 240.12 47.41 236.26 C47.17 232.4 47.04 228.45 47.04 224.41 C47.04
							 220.43 47.17 216.51 47.41 212.65 C47.66 208.79 48.02 204.87 48.51 200.89 L15.16 200.89 C12.89 208.42
							 11.76 216.26 11.76 224.41 ZM94.09 142.08 C91.09 142.08 88.3 142.91 85.73 144.56 C83.15 146.22 80.73
							 148.39 78.47 151.09 C76.2 153.78 74.24 156.81 72.59 160.18 C70.93 163.55 69.37 167.01 67.9 170.57 C66.43
							 174.12 65.3 177.49 64.5 180.67 C63.7 183.86 63 186.68 62.39 189.13 L125.79 189.13 C125.3 186.74 124.59
							 183.92 123.67 180.67 C122.75 177.43 121.62 174.06 120.27 170.57 C118.93 167.07 117.39 163.64 115.68
							 160.28 C113.96 156.91 111.97 153.84 109.71 151.09 C107.44 148.33 105.05 146.16 102.54 144.56 C100.03
							 142.97 97.21 142.14 94.09 142.08 ZM67.17 146.58 C62.02 148.36 57.09 150.66 52.37 153.48 C47.66 156.29
							 43.28 159.51 39.23 163.12 C35.19 166.74 31.52 170.72 28.21 175.07 C24.9 179.42 22.08 184.1 19.75 189.13
							 L50.35 189.13 C51.09 185.45 51.94 181.74 52.92 178.01 C53.9 174.27 55.07 170.6 56.42 166.98 C57.76 163.37
							 59.36 159.82 61.19 156.32 C63.03 152.83 65.02 149.59 67.17 146.58 ZM19.75 259.69 C22.08 264.65 24.9
							 269.31 28.21 273.66 C31.52 278.01 35.19 282.02 39.23 285.69 C43.28 289.37 47.66 292.58 52.37 295.34
							 C57.09 298.1 62.02 300.39 67.17 302.23 C64.96 299.17 62.97 295.92 61.19 292.49 C59.42 289.06 57.85 285.54
							 56.51 281.93 C55.16 278.31 53.96 274.61 52.92 270.81 C51.88 267.01 51.02 263.3 50.35 259.69 L19.75 259.69
							 ZM121.01 302.23 C126.15 300.46 131.08 298.16 135.8 295.34 C140.52 292.52 144.9 289.31 148.94 285.69
							 C152.98 282.08 156.66 278.1 159.97 273.75 C163.27 269.4 166.09 264.71 168.42 259.69 L137.82 259.69 C137.09
							 263.37 136.23 267.07 135.25 270.81 C134.27 274.55 133.11 278.22 131.76 281.83 C130.41 285.45 128.82
							 289 126.98 292.49 C125.14 295.98 123.15 299.23 121.01 302.23 Z" class="st1"/>
			</g>
		</g>
		<g id="group106-4" transform="translate(101.549,-110.987)" v:mID="106" v:groupContext="group">
			<title>Device group</title>
			<g id="shape107-5" v:mID="107" v:groupContext="shape">
				<title>Sheet.107</title>
				<path d="M101.65 318.49 L59.01 318.49 C56.05 318.49 53.69 316.13 53.69 313.17 L53.69 283.76 L6.12 283.76 C2.17 283.76
							 0 280.6 0 277.64 L0 217.44 C0 214.48 2.17 211.32 6.12 211.32 L94.74 211.32 C97.7 211.32 100.86 213.49
							 100.86 217.44 L100.86 236.59 L101.84 236.59 C104.8 236.59 107.17 238.95 107.17 241.91 L107.17 313.17
							 C106.98 316.13 104.61 318.49 101.65 318.49 Z" class="st2"/>
			</g>
			<g id="shape108-7" v:mID="108" v:groupContext="shape" transform="translate(2.76321,-2.96058)">
				<title>Sheet.108</title>
				<path d="M98.88 318.49 L56.25 318.49 C55.07 318.49 53.88 317.51 53.88 316.13 L53.88 244.88 C53.88 243.49 55.07 242.51
							 56.25 242.51 L98.88 242.51 C100.27 242.51 101.25 243.49 101.25 244.88 L101.25 316.13 C101.25 317.51
							 100.27 318.49 98.88 318.49 ZM72.83 312.18 L82.3 312.18 L82.3 309.02 L72.83 309.02 L72.83 312.18 ZM94.94
							 248.82 L60.2 248.82 L60.2 302.51 L94.94 302.51 L94.94 248.82 ZM88.62 223.56 L6.32 223.56 L6.32 274.09
							 L50.53 274.09 L50.53 283.56 L3.16 283.56 C-0 283.56 0 280.4 0 280.4 L0 220.2 C0 220.2 -0 217.05 3.16
							 217.05 L91.78 217.05 C91.78 217.05 94.94 217.05 94.94 220.2 L94.94 239.15 L88.62 239.15 L88.62 223.56
							 Z" class="st3"/>
			</g>
		</g>
	</g>
</svg>
