<?xml version="1.0" encoding="UTF-8" standalone="no"?>
<!DOCTYPE svg PUBLIC "-//W3C//DTD SVG 1.1//EN" "http://www.w3.org/Graphics/SVG/1.1/DTD/svg11.dtd">
<!-- Generated by Microsoft Visio, SVG Export test.svg Page-1 -->
<svg xmlns="http://www.w3.org/2000/svg" xmlns:xlink="http://www.w3.org/1999/xlink" xmlns:ev="http://www.w3.org/2001/xml-events"
		xmlns:v="http://schemas.microsoft.com/visio/2003/SVGExtensions/" width="2.76152in" height="2.98434in"
		viewBox="0 0 198.83 214.872" xml:space="preserve" color-interpolation-filters="sRGB" class="st4">
	<v:documentProperties v:langID="1033" v:viewMarkup="false"/>

	<style type="text/css">
	<![CDATA[
		.st1 {fill:#0087ea;stroke:none;stroke-linecap:butt;stroke-width:0.298828}
		.st2 {fill:#ffffff;stroke:none;stroke-linecap:butt;stroke-width:0.944444}
		.st3 {fill:url(#grad0-9);stroke:none;stroke-linecap:butt;stroke-width:0.944444}
		.st4 {fill:none;fill-rule:evenodd;font-size:12px;overflow:visible;stroke-linecap:square;stroke-miterlimit:3}
	]]>
	</style>

	<defs id="Patterns_And_Gradients">
		<linearGradient id="grad0-9" x1="0" y1="0" x2="1" y2="0" gradientTransform="rotate(90 0.5 0.5)">
			<stop offset="0" stop-color="#3cacff" stop-opacity="1"/>
			<stop offset="1" stop-color="#0066cc" stop-opacity="1"/>
		</linearGradient>
	</defs>
	<g v:mID="0" v:index="1" v:groupContext="foregroundPage">
		<title>Page-1</title>
		<v:pageProperties v:drawingScale="1" v:pageScale="1" v:drawingUnits="0" v:shadowOffsetX="9" v:shadowOffsetY="-9"/>
		<g id="shape116-1" v:mID="116" v:groupContext="shape" transform="translate(0.298828,-26.4004)">
			<title>Sheet.116</title>
			<path d="M94.09 26.7 C102.72 26.7 111.05 27.8 119.08 30.01 C127.1 32.21 134.61 35.37 141.59 39.47 C148.57 43.57 154.91
						 48.48 160.61 54.17 C166.31 59.87 171.21 66.24 175.31 73.28 C179.41 80.33 182.57 87.83 184.77 95.79 C186.98
						 103.76 188.11 112.09 188.17 120.79 C188.17 129.42 187.07 137.75 184.87 145.78 C182.66 153.8 179.51 161.31
						 175.4 168.29 C171.3 175.27 166.4 181.61 160.7 187.31 C155 193 148.63 197.9 141.59 202.01 C134.54 206.11
						 127.04 209.27 119.08 211.47 C111.12 213.68 102.78 214.81 94.09 214.87 C85.45 214.87 77.12 213.77 69.09 211.56
						 C61.07 209.36 53.57 206.2 46.58 202.1 C39.6 198 33.26 193.1 27.56 187.4 C21.87 181.7 16.97 175.33 12.86
						 168.29 C8.76 161.24 5.6 153.77 3.4 145.87 C1.19 137.97 0.06 129.61 0 120.79 C0 112.15 1.1 103.82 3.31 95.79
						 C5.51 87.77 8.67 80.27 12.77 73.28 C16.88 66.3 21.78 59.96 27.47 54.26 C33.17 48.57 39.54 43.67 46.58 39.56
						 C53.63 35.46 61.1 32.3 69 30.1 C76.9 27.89 85.27 26.76 94.09 26.7 ZM168.42 85.5 C166.09 80.54 163.27 75.89
						 159.97 71.54 C156.66 67.19 152.98 63.18 148.94 59.5 C144.9 55.83 140.52 52.61 135.8 49.85 C131.08 47.1 126.15
						 44.8 121.01 42.96 C123.21 46.02 125.2 49.27 126.98 52.7 C128.76 56.13 130.32 59.65 131.67 63.27 C133.01
						 66.88 134.21 70.59 135.25 74.39 C136.29 78.18 137.15 81.89 137.82 85.5 L168.42 85.5 ZM176.41 120.79 C176.41
						 112.64 175.28 104.8 173.01 97.26 L139.66 97.26 C140.15 101.18 140.52 105.07 140.76 108.93 C141.01 112.79
						 141.13 116.74 141.13 120.79 C141.13 124.77 141.01 128.69 140.76 132.55 C140.52 136.41 140.15 140.33 139.66
						 144.31 L173.01 144.31 C175.28 136.77 176.41 128.93 176.41 120.79 ZM94.09 203.11 C97.09 203.11 99.88 202.28
						 102.45 200.63 C105.02 198.98 107.44 196.8 109.71 194.11 C111.97 191.41 113.93 188.38 115.59 185.01 C117.24
						 181.64 118.8 178.18 120.27 174.63 C121.74 171.08 122.88 167.71 123.67 164.52 C124.47 161.34 125.17 158.52
						 125.79 156.07 L62.39 156.07 C62.88 158.46 63.58 161.27 64.5 164.52 C65.42 167.77 66.55 171.14 67.9 174.63
						 C69.25 178.12 70.78 181.55 72.49 184.92 C74.21 188.29 76.2 191.35 78.47 194.11 C80.73 196.86 83.12 199.04
						 85.63 200.63 C88.14 202.22 90.96 203.05 94.09 203.11 ZM127.81 144.31 C128.3 140.39 128.66 136.5 128.91 132.64
						 C129.15 128.78 129.31 124.83 129.37 120.79 C129.37 116.8 129.25 112.88 129 109.02 C128.76 105.17 128.36
						 101.25 127.81 97.26 L60.37 97.26 C59.88 101.18 59.51 105.07 59.26 108.93 C59.02 112.79 58.87 116.74 58.8
						 120.79 C58.8 124.77 58.93 128.69 59.17 132.55 C59.42 136.41 59.81 140.33 60.37 144.31 L127.81 144.31 ZM11.76
						 120.79 C11.76 128.93 12.89 136.77 15.16 144.31 L48.51 144.31 C48.02 140.39 47.66 136.5 47.41 132.64 C47.17
						 128.78 47.04 124.83 47.04 120.79 C47.04 116.8 47.17 112.88 47.41 109.02 C47.66 105.17 48.02 101.25 48.51
						 97.26 L15.16 97.26 C12.89 104.8 11.76 112.64 11.76 120.79 ZM94.09 38.46 C91.09 38.46 88.3 39.29 85.73 40.94
						 C83.15 42.59 80.73 44.77 78.47 47.46 C76.2 50.16 74.24 53.19 72.59 56.56 C70.93 59.93 69.37 63.39 67.9 66.94
						 C66.43 70.5 65.3 73.87 64.5 77.05 C63.7 80.24 63 83.05 62.39 85.5 L125.79 85.5 C125.3 83.11 124.59 80.3
						 123.67 77.05 C122.75 73.8 121.62 70.43 120.27 66.94 C118.93 63.45 117.39 60.02 115.68 56.65 C113.96 53.28
						 111.97 50.22 109.71 47.46 C107.44 44.71 105.05 42.53 102.54 40.94 C100.03 39.35 97.21 38.52 94.09 38.46
						 ZM67.17 42.96 C62.02 44.74 57.09 47.04 52.37 49.85 C47.66 52.67 43.28 55.89 39.23 59.5 C35.19 63.11 31.52
						 67.1 28.21 71.45 C24.9 75.79 22.08 80.48 19.75 85.5 L50.35 85.5 C51.09 81.83 51.94 78.12 52.92 74.39 C53.9
						 70.65 55.07 66.97 56.42 63.36 C57.76 59.75 59.36 56.19 61.19 52.7 C63.03 49.21 65.02 45.96 67.17 42.96 ZM19.75
						 156.07 C22.08 161.03 24.9 165.69 28.21 170.03 C31.52 174.38 35.19 178.4 39.23 182.07 C43.28 185.75 47.66
						 188.96 52.37 191.72 C57.09 194.47 62.02 196.77 67.17 198.61 C64.96 195.55 62.97 192.3 61.19 188.87 C59.42
						 185.44 57.85 181.92 56.51 178.3 C55.16 174.69 53.96 170.98 52.92 167.19 C51.88 163.39 51.02 159.68 50.35
						 156.07 L19.75 156.07 ZM121.01 198.61 C126.15 196.83 131.08 194.54 135.8 191.72 C140.52 188.9 144.9 185.68
						 148.94 182.07 C152.98 178.46 156.66 174.48 159.97 170.13 C163.27 165.78 166.09 161.09 168.42 156.07 L137.82
						 156.07 C137.09 159.74 136.23 163.45 135.25 167.19 C134.27 170.92 133.11 174.6 131.76 178.21 C130.41 181.83
						 128.82 185.38 126.98 188.87 C125.14 192.36 123.15 195.61 121.01 198.61 Z" class="st1"/>
		</g>
		<g id="group130-3" transform="translate(90.7123,-0.944444)" v:mID="130" v:groupContext="group">
			<title>Sheet.130</title>
			<g id="shape112-4" v:mID="112" v:groupContext="shape">
				<title>Sheet.112</title>
				<path d="M101.65 214.87 L59.01 214.87 C56.05 214.87 53.69 212.5 53.69 209.54 L53.69 180.13 L6.12 180.13 C2.17 180.13
							 0 176.98 0 174.02 L0 113.82 C0 110.86 2.17 107.7 6.12 107.7 L94.74 107.7 C97.7 107.7 100.86 109.87 100.86
							 113.82 L100.86 132.96 L101.84 132.96 C104.8 132.96 107.17 135.33 107.17 138.29 L107.17 209.54 C106.98
							 212.5 104.61 214.87 101.65 214.87 Z" class="st2"/>
			</g>
			<g id="shape113-6" v:mID="113" v:groupContext="shape" transform="translate(2.76321,-2.96058)">
				<title>Sheet.113</title>
				<path d="M98.88 214.87 L56.25 214.87 C55.07 214.87 53.88 213.89 53.88 212.5 L53.88 141.25 C53.88 139.87 55.07 138.88
							 56.25 138.88 L98.88 138.88 C100.27 138.88 101.25 139.87 101.25 141.25 L101.25 212.5 C101.25 213.89 100.27
							 214.87 98.88 214.87 ZM72.83 208.56 L82.3 208.56 L82.3 205.4 L72.83 205.4 L72.83 208.56 ZM94.94 145.2
							 L60.2 145.2 L60.2 198.89 L94.94 198.89 L94.94 145.2 ZM88.62 119.94 L6.32 119.94 L6.32 170.46 L50.53
							 170.46 L50.53 179.94 L3.16 179.94 C-0 179.94 0 176.78 0 176.78 L0 116.58 C0 116.58 -0 113.42 3.16 113.42
							 L91.78 113.42 C91.78 113.42 94.94 113.42 94.94 116.58 L94.94 135.53 L88.62 135.53 L88.62 119.94 Z"
						class="st3"/>
			</g>
		</g>
	</g>
</svg>
