<?xml version="1.0" encoding="UTF-8" standalone="no"?>
<!DOCTYPE svg PUBLIC "-//W3C//DTD SVG 1.1//EN" "http://www.w3.org/Graphics/SVG/1.1/DTD/svg11.dtd">
<!-- Generated by Microsoft Visio, SVG Export resources2.svg Page-1 -->
<svg xmlns="http://www.w3.org/2000/svg" xmlns:xlink="http://www.w3.org/1999/xlink" xmlns:ev="http://www.w3.org/2001/xml-events"
		xmlns:v="http://schemas.microsoft.com/visio/2003/SVGExtensions/" width="0.405135in" height="0.405129in"
		viewBox="0 0 29.1697 29.1693" xml:space="preserve" color-interpolation-filters="sRGB" class="st2">
	<v:documentProperties v:langID="1033" v:viewMarkup="false"/>

	<style type="text/css">
	<![CDATA[
		.st1 {fill:#0087ea;stroke:none;stroke-linecap:butt;stroke-width:0.298828}
		.st2 {fill:none;fill-rule:evenodd;font-size:12px;overflow:visible;stroke-linecap:square;stroke-miterlimit:3}
	]]>
	</style>

	<g v:mID="0" v:index="1" v:groupContext="foregroundPage">
		<title>Page-1</title>
		<v:pageProperties v:drawingScale="1" v:pageScale="1" v:drawingUnits="0" v:shadowOffsetX="9" v:shadowOffsetY="-9"/>
		<g id="group61-1" transform="translate(0.298828,-0.298828)" v:mID="61" v:groupContext="group">
			<title>Sheet.61</title>
			<g id="shape62-2" v:mID="62" v:groupContext="shape">
				<title>Sheet.62</title>
				<path d="M16.07 20.24 L9.47 20.24 C9.66 21.13 9.91 22.03 10.24 22.92 C10.57 23.81 10.98 24.64 11.5 25.39 C11.3 25.56
							 11.11 25.74 10.94 25.95 C10.76 26.15 10.6 26.37 10.45 26.6 C10.3 26.83 10.19 27.08 10.11 27.33 C10.04
							 27.58 10 27.84 9.99 28.11 C9.99 28.25 10 28.39 10.03 28.53 C8.54 28.06 7.18 27.38 5.96 26.49 C4.73 25.6
							 3.67 24.55 2.79 23.34 C1.91 22.13 1.22 20.81 0.74 19.39 C0.26 17.97 0.01 16.46 0 14.88 C0 13.57 0.17
							 12.31 0.5 11.09 C0.84 9.87 1.32 8.74 1.95 7.68 C2.59 6.63 3.33 5.67 4.19 4.8 C5.04 3.92 6 3.17 7.07
							 2.55 C8.14 1.93 9.28 1.45 10.49 1.11 C11.7 0.78 12.97 0.61 14.29 0.6 C15.91 0.6 17.47 0.86 18.96 1.38
							 C20.45 1.9 21.8 2.64 23.02 3.6 C24.24 4.56 25.28 5.69 26.16 6.99 C27.03 8.29 27.68 9.73 28.1 11.31 L9.17
							 11.31 C9.08 11.91 9.02 12.5 8.98 13.08 C8.95 13.67 8.93 14.27 8.93 14.88 C8.93 15.49 8.95 16.08 8.98
							 16.67 C9.02 17.26 9.08 17.85 9.17 18.45 L16.07 18.45 L16.07 20.24 ZM7.37 18.45 C7.29 17.86 7.24 17.27
							 7.2 16.68 C7.16 16.1 7.14 15.5 7.14 14.88 C7.14 14.28 7.16 13.68 7.2 13.1 C7.24 12.51 7.29 11.92 7.37
							 11.31 L2.3 11.31 C1.96 12.46 1.79 13.65 1.79 14.88 C1.79 16.12 1.96 17.31 2.3 18.45 L7.37 18.45 ZM25.56
							 9.53 C25.2 8.77 24.77 8.07 24.27 7.41 C23.78 6.75 23.22 6.14 22.6 5.59 C21.98 5.04 21.32 4.56 20.62
							 4.13 C19.92 3.7 19.17 3.35 18.36 3.08 C18.69 3.54 19 4.02 19.27 4.55 C19.54 5.07 19.77 5.6 19.98 6.15
							 C20.18 6.7 20.36 7.26 20.52 7.84 C20.68 8.41 20.81 8.98 20.93 9.53 L25.56 9.53 ZM14.29 2.38 C13.83 2.38
							 13.41 2.51 13.02 2.76 C12.63 3.01 12.26 3.35 11.93 3.78 C11.59 4.21 11.29 4.68 11.02 5.19 C10.75 5.7
							 10.51 6.22 10.31 6.76 C10.11 7.3 9.93 7.81 9.79 8.28 C9.65 8.76 9.55 9.17 9.47 9.53 L19.08 9.53 C19.01
							 9.19 18.9 8.78 18.76 8.3 C18.62 7.81 18.45 7.3 18.25 6.76 C18.04 6.22 17.81 5.7 17.54 5.19 C17.27 4.68
							 16.97 4.21 16.64 3.79 C16.32 3.37 15.96 3.03 15.56 2.77 C15.16 2.51 14.73 2.38 14.29 2.38 ZM10.21 3.08
							 C9.42 3.35 8.67 3.69 7.95 4.11 C7.24 4.53 6.57 5.02 5.96 5.58 C5.34 6.14 4.79 6.74 4.3 7.39 C3.8 8.04
							 3.37 8.75 3 9.53 L7.65 9.53 C7.76 8.98 7.89 8.42 8.04 7.85 C8.18 7.28 8.37 6.72 8.58 6.16 C8.79 5.61
							 9.04 5.07 9.31 4.55 C9.58 4.02 9.88 3.54 10.21 3.08 ZM10.21 26.69 C9.88 26.23 9.58 25.74 9.31 25.22
							 C9.04 24.7 8.8 24.17 8.59 23.62 C8.39 23.07 8.21 22.51 8.05 21.93 C7.89 21.35 7.76 20.79 7.65 20.24
							 L3 20.24 C3.36 20.99 3.79 21.7 4.28 22.36 C4.78 23.02 5.33 23.63 5.96 24.19 C6.58 24.75 7.25 25.23 7.95
							 25.64 C8.66 26.05 9.41 26.4 10.21 26.69 ZM23.21 13.1 C23.95 13.1 24.64 13.24 25.29 13.52 C25.94 13.8
							 26.51 14.18 27 14.66 C27.48 15.14 27.86 15.72 28.15 16.38 C28.44 17.04 28.58 17.73 28.57 18.45 C28.57
							 19.2 28.43 19.89 28.15 20.53 C27.87 21.18 27.49 21.74 27.01 22.24 C26.53 22.73 25.95 23.11 25.29 23.39
							 C24.63 23.67 23.94 23.81 23.21 23.81 C22.66 23.81 22.11 23.73 21.58 23.56 C21.05 23.39 20.56 23.15 20.12
							 22.82 L14.02 28.9 C13.84 29.08 13.63 29.17 13.39 29.17 C13.15 29.17 12.94 29.08 12.77 28.9 C12.59 28.73
							 12.5 28.52 12.5 28.28 C12.5 28.03 12.59 27.83 12.77 27.65 L18.85 21.55 C18.52 21.11 18.28 20.62 18.11
							 20.09 C17.94 19.56 17.86 19.01 17.86 18.45 C17.86 17.72 18 17.03 18.28 16.38 C18.55 15.73 18.94 15.16
							 19.42 14.67 C19.9 14.19 20.47 13.8 21.12 13.52 C21.77 13.23 22.47 13.09 23.21 13.1 ZM23.21 22.03 C23.71
							 22.03 24.17 21.93 24.6 21.75 C25.02 21.56 25.4 21.31 25.74 20.98 C26.07 20.65 26.33 20.28 26.51 19.85
							 C26.68 19.42 26.78 18.96 26.79 18.45 C26.79 17.96 26.69 17.5 26.51 17.07 C26.32 16.65 26.07 16.26 25.74
							 15.93 C25.41 15.59 25.04 15.34 24.61 15.16 C24.18 14.99 23.72 14.89 23.21 14.88 C22.72 14.88 22.26 14.98
							 21.83 15.16 C21.41 15.35 21.02 15.6 20.69 15.93 C20.35 16.26 20.1 16.63 19.92 17.06 C19.75 17.49 19.65
							 17.95 19.64 18.45 C19.64 18.95 19.74 19.41 19.92 19.84 C20.11 20.26 20.36 20.65 20.69 20.98 C21.01 21.31
							 21.39 21.57 21.82 21.75 C22.25 21.92 22.71 22.02 23.21 22.03 Z" class="st1"/>
			</g>
		</g>
	</g>
</svg>
