<svg width="18" height="17" viewBox="0 0 18 17" fill="none" xmlns="http://www.w3.org/2000/svg">
<path d="M8.74286 3.34848C8.74286 5.19781 7.24621 6.69697 5.4 6.69697C3.55379 6.69697 2.05714 5.19781 2.05714 3.34848C2.05714 1.49916 3.55379 0 5.4 0C7.24621 0 8.74286 1.49916 8.74286 3.34848ZM9.77143 12.3109C9.01234 13.166 7.69301 13.9091 5.4 13.9091C0 13.9091 0 9.78788 0 9.78788C0 8.64981 0.921014 7.72727 2.05714 7.72727H8.74286C9.87902 7.72727 10.8 8.64981 10.8 9.78788C10.8 9.78788 10.8 9.89596 10.7771 10.0771C10.1748 10.4365 9.77143 11.0953 9.77143 11.8485V12.3109ZM13.3714 6.69697C14.7916 6.69697 15.9429 5.54376 15.9429 4.12121C15.9429 2.69866 14.7916 1.54545 13.3714 1.54545C11.9513 1.54545 10.8 2.69866 10.8 4.12121C10.8 5.54376 11.9513 6.69697 13.3714 6.69697ZM12.3429 9.78788V10.8182H11.8286C11.2605 10.8182 10.8 11.2794 10.8 11.8485V15.9697C10.8 16.5387 11.2605 17 11.8286 17H16.9714C17.5395 17 18 16.5387 18 15.9697V11.8485C18 11.2794 17.5395 10.8182 16.9714 10.8182H16.4571V9.78788C16.4571 8.64981 15.5362 7.72727 14.4 7.72727C13.2638 7.72727 12.3429 8.64981 12.3429 9.78788ZM13.3714 10.8182V9.78788C13.3714 9.21884 13.8319 8.75758 14.4 8.75758C14.9681 8.75758 15.4286 9.21884 15.4286 9.78788V10.8182H13.3714ZM14.4 13.1364C14.826 13.1364 15.1714 13.4823 15.1714 13.9091C15.1714 14.3358 14.826 14.6818 14.4 14.6818C13.974 14.6818 13.6286 14.3358 13.6286 13.9091C13.6286 13.4823 13.974 13.1364 14.4 13.1364Z" fill="#212121"/>
<path d="M8.74286 3.34848C8.74286 5.19781 7.24621 6.69697 5.4 6.69697C3.55379 6.69697 2.05714 5.19781 2.05714 3.34848C2.05714 1.49916 3.55379 0 5.4 0C7.24621 0 8.74286 1.49916 8.74286 3.34848ZM9.77143 12.3109C9.01234 13.166 7.69301 13.9091 5.4 13.9091C0 13.9091 0 9.78788 0 9.78788C0 8.64981 0.921014 7.72727 2.05714 7.72727H8.74286C9.87902 7.72727 10.8 8.64981 10.8 9.78788C10.8 9.78788 10.8 9.89596 10.7771 10.0771C10.1748 10.4365 9.77143 11.0953 9.77143 11.8485V12.3109ZM13.3714 6.69697C14.7916 6.69697 15.9429 5.54376 15.9429 4.12121C15.9429 2.69866 14.7916 1.54545 13.3714 1.54545C11.9513 1.54545 10.8 2.69866 10.8 4.12121C10.8 5.54376 11.9513 6.69697 13.3714 6.69697ZM12.3429 9.78788V10.8182H11.8286C11.2605 10.8182 10.8 11.2794 10.8 11.8485V15.9697C10.8 16.5387 11.2605 17 11.8286 17H16.9714C17.5395 17 18 16.5387 18 15.9697V11.8485C18 11.2794 17.5395 10.8182 16.9714 10.8182H16.4571V9.78788C16.4571 8.64981 15.5362 7.72727 14.4 7.72727C13.2638 7.72727 12.3429 8.64981 12.3429 9.78788ZM13.3714 10.8182V9.78788C13.3714 9.21884 13.8319 8.75758 14.4 8.75758C14.9681 8.75758 15.4286 9.21884 15.4286 9.78788V10.8182H13.3714ZM14.4 13.1364C14.826 13.1364 15.1714 13.4823 15.1714 13.9091C15.1714 14.3358 14.826 14.6818 14.4 14.6818C13.974 14.6818 13.6286 14.3358 13.6286 13.9091C13.6286 13.4823 13.974 13.1364 14.4 13.1364Z" fill="url(#paint0_linear_944_699)"/>
<defs>
<linearGradient id="paint0_linear_944_699" x1="2.39463" y1="51.1335" x2="-16.2197" y2="3.57193" gradientUnits="userSpaceOnUse">
<stop stop-color="#0078D4"/>
<stop offset="0.897238" stop-color="#C73ECC"/>
</linearGradient>
</defs>
</svg>
