<svg width="18" height="18" viewBox="0 0 18 18" fill="none" xmlns="http://www.w3.org/2000/svg">
<path d="M7.71262 10.282V12.7977C7.71262 13.4705 7.97719 14.1159 8.44872 14.5958L10.3832 16.5648C9.37171 16.949 8.19358 17.1402 6.85556 17.1402C3.92266 17.1402 1.75967 16.2213 0.437542 14.366C0.152946 13.9667 0 13.4885 0 12.9982V12.2097C0 11.145 0.863194 10.282 1.928 10.282H7.71262ZM11.1422 4.28583C11.1422 1.91883 9.22297 0 6.85556 0C4.4881 0 2.56892 1.91883 2.56892 4.28583C2.56892 6.65283 4.4881 8.57167 6.85556 8.57167C9.22297 8.57167 11.1422 6.65283 11.1422 4.28583ZM12.4897 17.4857L9.06033 13.9951C8.74595 13.6752 8.56995 13.2453 8.56995 12.7977V10.2806C8.56995 9.336 9.33785 8.57021 10.2858 8.56961L12.7867 8.56781C13.2392 8.56747 13.6736 8.74516 13.9955 9.06214L17.4896 12.5029C18.166 13.1691 18.1707 14.256 17.5 14.9275L14.9344 17.496C14.2591 18.172 13.1594 18.1674 12.4897 17.4857ZM11.1387 11.9964C11.6115 11.9964 11.9949 11.6125 11.9949 11.1392C11.9949 10.6658 11.6115 10.2821 11.1387 10.2821C10.6658 10.2821 10.2825 10.6658 10.2825 11.1392C10.2825 11.6125 10.6658 11.9964 11.1387 11.9964Z" fill="url(#paint0_linear_956_763)"/>
<defs>
<linearGradient id="paint0_linear_956_763" x1="2.39463" y1="54.1414" x2="-18.1436" y2="4.57931" gradientUnits="userSpaceOnUse">
<stop stop-color="#0078D4"/>
<stop offset="0.897238" stop-color="#C73ECC"/>
</linearGradient>
</defs>
</svg>
