<svg width="18" height="17" viewBox="0 0 18 17" fill="none" xmlns="http://www.w3.org/2000/svg">
<path d="M15.3399 14.9968H7.85461C8.01887 14.6911 8.15777 14.3577 8.26122 13.9953H8.99237V8.48673H6.33167C5.75643 8.23381 5.2535 7.82845 4.90258 7.48518H8.99237V2.47741C8.99237 2.2623 8.84911 2.07887 8.64798 2.00797L8.55849 1.98471L8.46341 1.97664H3.70274C3.44306 1.97664 3.22709 2.15379 3.1823 2.3874L3.17378 2.47741V7.06722C2.93763 7.1435 2.71718 7.2725 2.53414 7.45424C2.41294 7.57459 2.27232 7.70355 2.11585 7.83156V2.47741C2.11585 1.69651 2.7452 1.05476 3.54991 0.981962L3.70274 0.975085H8.46341C9.28827 0.975085 9.96614 1.5709 10.043 2.33273L10.0503 2.47741V2.73224L12.3657 0.459462C12.9359 -0.100594 13.8544 -0.150982 14.4889 0.321135L14.6118 0.422529L17.5292 3.15141C18.1137 3.69815 18.1555 4.56834 17.6462 5.16571L17.5369 5.28137L15.0924 7.48461L15.3399 7.48518C16.1648 7.48518 16.8427 8.08099 16.9196 8.84283L16.9268 8.98751V13.4945C16.9268 14.2754 16.2975 14.9172 15.4928 14.99L15.3399 14.9968ZM15.3399 8.48673H10.0503V13.9953H15.3399C15.5996 13.9953 15.8156 13.8181 15.8604 13.5845L15.8689 13.4945V8.98751C15.8689 8.74167 15.6818 8.5372 15.435 8.4948L15.3399 8.48673ZM10.0503 5.69183V7.48461H11.944L10.0503 5.69183ZM4.10557 8.14543C4.64267 8.67882 5.67467 9.52698 6.94386 9.70099C7.19699 9.73569 7.40548 9.93462 7.40548 10.1836V12.5096C7.40548 15.6367 4.4602 16.7716 3.82345 16.9804C3.74372 17.0065 3.6623 17.0065 3.58257 16.9804C2.94579 16.7716 0.000281617 15.6367 0.000281617 12.5096L3.43365e-09 10.1836C-3.08946e-05 9.93466 0.208472 9.73569 0.461618 9.70097C1.73054 9.52691 2.76263 8.67875 3.29981 8.14539C3.51383 7.93288 3.89156 7.9329 4.10557 8.14543Z" fill="url(#paint0_linear_1158_11982)"/>
<defs>
<linearGradient id="paint0_linear_1158_11982" x1="2.65255e-07" y1="0.685484" x2="17.0122" y2="17.9721" gradientUnits="userSpaceOnUse">
<stop stop-color="#FF5C39"/>
<stop offset="0.5" stop-color="#F4364C"/>
<stop offset="1" stop-color="#C73ECC"/>
</linearGradient>
</defs>
</svg>
