<svg width="18" height="18" viewBox="0 0 18 18" fill="none" xmlns="http://www.w3.org/2000/svg">
<path d="M15.3508 0.52679C15.0138 0.189469 14.5569 0 14.0806 0C13.6042 0 13.1474 0.189469 12.8103 0.52679L10.7384 2.60066C10.65 2.20033 10.428 1.84219 10.109 1.58542C9.79002 1.32865 9.39317 1.18862 8.98401 1.18846H5.38897C4.91224 1.18846 4.45503 1.37824 4.11793 1.71604C3.78083 2.05385 3.59145 2.51201 3.59145 2.98974V6.09274C3.97966 5.95929 4.40105 5.95844 4.7898 6.09034V2.98974C4.7898 2.83049 4.85292 2.67777 4.96529 2.56517C5.07766 2.45257 5.23006 2.38931 5.38897 2.38931H8.98401C9.14293 2.38931 9.29533 2.45257 9.40769 2.56517C9.52006 2.67777 9.58319 2.83049 9.58319 2.98974V7.19272H6.21583C6.73112 7.59861 7.36385 7.96246 8.03732 8.06093C8.32492 8.10176 8.60773 8.21704 8.8498 8.39357H9.58319V9.71571C9.58558 9.75253 9.58678 9.78976 9.58678 9.82739V12.617C9.58678 12.6922 9.58558 12.7671 9.58319 12.8415V13.1946H9.56401C9.53046 13.6221 9.45856 14.0232 9.3579 14.3978H14.9793C15.4561 14.3978 15.9133 14.2081 16.2504 13.8702C16.5875 13.5324 16.7769 13.0743 16.7769 12.5966V8.99399C16.777 8.59453 16.6447 8.20634 16.4006 7.89048C16.1566 7.57463 15.8147 7.34902 15.4287 7.24916L17.4731 5.2005C17.6401 5.03322 17.7727 4.8346 17.8631 4.61599C17.9535 4.39737 18 4.16305 18 3.9264C18 3.68976 17.9535 3.45543 17.8631 3.23682C17.7727 3.0182 17.6401 2.81958 17.4731 2.6523L15.3508 0.52679ZM10.7815 5.29417L12.6761 7.19272H10.7827L10.7815 5.29417ZM10.7815 13.197V8.39357H14.9793C15.1383 8.39357 15.2907 8.45683 15.403 8.56943C15.5154 8.68203 15.5785 8.83475 15.5785 8.99399V12.5966C15.5785 12.7558 15.5154 12.9085 15.403 13.0211C15.2907 13.1337 15.1383 13.197 14.9793 13.197H10.7815ZM4.65079 7.38485C5.25835 8.02371 6.42794 9.04083 7.86596 9.24858C8.00759 9.26684 8.13805 9.33519 8.23385 9.44131C8.32964 9.54743 8.38446 9.68435 8.38844 9.82739V12.617C8.38844 16.366 5.05223 17.7266 4.33083 17.9764C4.24247 18.0079 4.14597 18.0079 4.05761 17.9764C3.3362 17.7266 0 16.3672 0 12.617V9.82739C0.00397322 9.68435 0.0587957 9.54743 0.154589 9.44131C0.250383 9.33519 0.380849 9.26684 0.52248 9.24858C1.9605 9.04083 3.12889 8.02371 3.73765 7.38365C3.79729 7.32302 3.86837 7.27487 3.94675 7.24201C4.02514 7.20914 4.10925 7.19222 4.19422 7.19222C4.27918 7.19222 4.3633 7.20914 4.44168 7.24201C4.52006 7.27487 4.59114 7.32302 4.65079 7.38365" fill="url(#paint0_linear_937_710)"/>
<path d="M15.3508 0.52679C15.0138 0.189469 14.5569 0 14.0806 0C13.6042 0 13.1474 0.189469 12.8103 0.52679L10.7384 2.60066C10.65 2.20033 10.428 1.84219 10.109 1.58542C9.79002 1.32865 9.39317 1.18862 8.98401 1.18846H5.38897C4.91224 1.18846 4.45503 1.37824 4.11793 1.71604C3.78083 2.05385 3.59145 2.51201 3.59145 2.98974V6.09274C3.97966 5.95929 4.40105 5.95844 4.7898 6.09034V2.98974C4.7898 2.83049 4.85292 2.67777 4.96529 2.56517C5.07766 2.45257 5.23006 2.38931 5.38897 2.38931H8.98401C9.14293 2.38931 9.29533 2.45257 9.40769 2.56517C9.52006 2.67777 9.58319 2.83049 9.58319 2.98974V7.19272H6.21583C6.73112 7.59861 7.36385 7.96246 8.03732 8.06093C8.32492 8.10176 8.60773 8.21704 8.8498 8.39357H9.58319V9.71571C9.58558 9.75253 9.58678 9.78976 9.58678 9.82739V12.617C9.58678 12.6922 9.58558 12.7671 9.58319 12.8415V13.1946H9.56401C9.53046 13.6221 9.45856 14.0232 9.3579 14.3978H14.9793C15.4561 14.3978 15.9133 14.2081 16.2504 13.8702C16.5875 13.5324 16.7769 13.0743 16.7769 12.5966V8.99399C16.777 8.59453 16.6447 8.20634 16.4006 7.89048C16.1566 7.57463 15.8147 7.34902 15.4287 7.24916L17.4731 5.2005C17.6401 5.03322 17.7727 4.8346 17.8631 4.61599C17.9535 4.39737 18 4.16305 18 3.9264C18 3.68976 17.9535 3.45543 17.8631 3.23682C17.7727 3.0182 17.6401 2.81958 17.4731 2.6523L15.3508 0.52679ZM10.7815 5.29417L12.6761 7.19272H10.7827L10.7815 5.29417ZM10.7815 13.197V8.39357H14.9793C15.1383 8.39357 15.2907 8.45683 15.403 8.56943C15.5154 8.68203 15.5785 8.83475 15.5785 8.99399V12.5966C15.5785 12.7558 15.5154 12.9085 15.403 13.0211C15.2907 13.1337 15.1383 13.197 14.9793 13.197H10.7815ZM4.65079 7.38485C5.25835 8.02371 6.42794 9.04083 7.86596 9.24858C8.00759 9.26684 8.13805 9.33519 8.23385 9.44131C8.32964 9.54743 8.38446 9.68435 8.38844 9.82739V12.617C8.38844 16.366 5.05223 17.7266 4.33083 17.9764C4.24247 18.0079 4.14597 18.0079 4.05761 17.9764C3.3362 17.7266 0 16.3672 0 12.617V9.82739C0.00397322 9.68435 0.0587957 9.54743 0.154589 9.44131C0.250383 9.33519 0.380849 9.26684 0.52248 9.24858C1.9605 9.04083 3.12889 8.02371 3.73765 7.38365C3.79729 7.32302 3.86837 7.27487 3.94675 7.24201C4.02514 7.20914 4.10925 7.19222 4.19422 7.19222C4.27918 7.19222 4.3633 7.20914 4.44168 7.24201C4.52006 7.27487 4.59114 7.32302 4.65079 7.38365" fill="url(#paint1_linear_937_710)"/>
<defs>
<linearGradient id="paint0_linear_937_710" x1="0.84041" y1="0.466788" x2="22.1642" y2="13.5113" gradientUnits="userSpaceOnUse">
<stop stop-color="#FF5C39"/>
<stop offset="0.174757" stop-color="#F4364C"/>
<stop offset="0.525405" stop-color="#C73ECC"/>
<stop offset="0.957171" stop-color="#0078D4"/>
</linearGradient>
<linearGradient id="paint1_linear_937_710" x1="7.73029" y1="-3.12866" x2="24.1212" y2="19.2388" gradientUnits="userSpaceOnUse">
<stop offset="0.0001" stop-color="#FBBE52"/>
<stop offset="0.283642" stop-color="#FD7853"/>
<stop offset="0.668279" stop-color="#F4364C"/>
<stop offset="0.923101" stop-color="#C73ECC"/>
</linearGradient>
</defs>
</svg>
