<svg width="18" height="18" viewBox="0 0 18 18" fill="none" xmlns="http://www.w3.org/2000/svg">
<g clip-path="url(#clip0_933_2419)">
<path d="M5.47155 11.2377H10.1611V16.0541H5.47155V11.2377ZM0.00221531 4.81633H4.68958V0H0.65127C0.478542 0 0.312889 0.0704702 0.190753 0.195908C0.0686159 0.321346 0 0.491476 0 0.668872L0.00221531 4.81633ZM4.68958 16.0541V11.2377H0.00221531V15.3852C0.00221431 15.5622 0.0705259 15.732 0.192184 15.8573C0.313842 15.9827 0.478926 16.0535 0.65127 16.0541H4.68958ZM0.00221531 10.4358H4.68958V5.61943H0.00221531V10.4358ZM10.9453 16.0541H14.9836C15.1564 16.0541 15.322 15.9836 15.4441 15.8581C15.5663 15.7327 15.6349 15.5626 15.6349 15.3852V11.2377H10.9431L10.9453 16.0541ZM5.47155 10.4358H10.1611V5.61943H5.47155V10.4358ZM10.9431 10.4358H15.6327V5.61943H10.9431V10.4358ZM10.9431 0V4.81633H15.6327V0.668872C15.6327 0.491476 15.5641 0.321346 15.4419 0.195908C15.3198 0.0704702 15.1541 0 14.9814 0H10.9431ZM5.47155 4.81633H10.1611V0H5.47155V4.81633Z" fill="url(#paint0_linear_933_2419)"/>
<path d="M8.76316 9.43844C8.76316 9.22182 8.93547 9.04621 9.14803 9.04621C10.5148 9.04621 11.8462 8.55279 13.1507 7.55574C13.2875 7.45114 13.4756 7.45114 13.6125 7.55574C14.9169 8.55279 16.2484 9.04621 17.6151 9.04621C17.8277 9.04621 18 9.22182 18 9.43844V12.184C18 14.7995 16.4823 16.7212 13.5226 17.9095C13.432 17.9458 13.3312 17.9458 13.2405 17.9095C10.2809 16.7212 8.76316 14.7995 8.76316 12.184V9.43844Z" fill="#76BC2D"/>
</g>
<defs>
<linearGradient id="paint0_linear_933_2419" x1="9.24865" y1="0.373656" x2="9.24865" y2="18.3098" gradientUnits="userSpaceOnUse">
<stop stop-color="#5EA0EF"/>
<stop offset="0.178" stop-color="#589EED"/>
<stop offset="0.406" stop-color="#4897E9"/>
<stop offset="0.662" stop-color="#2E8CE1"/>
<stop offset="0.936" stop-color="#0A7CD7"/>
<stop offset="1" stop-color="#0078D4"/>
</linearGradient>
<clipPath id="clip0_933_2419">
<rect width="18" height="18" fill="white"/>
</clipPath>
</defs>
</svg>
