<svg width="18" height="18" viewBox="0 0 18 18" fill="none" xmlns="http://www.w3.org/2000/svg">
<path d="M14.4263 0.613708L17.3863 3.57397C18.2046 4.39224 18.2046 5.71894 17.3863 6.53721L14.9797 8.94352C15.9882 9.09481 16.7615 9.96487 16.7615 11.0156V15.9047C16.7615 17.0619 15.8234 18 14.6663 18H2.09518C0.938046 18 0 17.0619 0 15.9047V3.33268C0 2.17546 0.938046 1.23734 2.09518 1.23734H6.98395C8.03521 1.23734 8.90564 2.01164 9.05612 3.02108L11.4632 0.613708C12.2815 -0.20457 13.6081 -0.20457 14.4263 0.613708ZM1.39679 15.9047C1.39679 16.2904 1.70947 16.6031 2.09518 16.6031L7.68141 16.6025L7.68234 10.3171L1.39679 10.3165V15.9047ZM9.0782 16.6025L14.6663 16.6031C15.052 16.6031 15.3647 16.2904 15.3647 15.9047V11.0156C15.3647 10.6298 15.052 10.3171 14.6663 10.3171L9.0782 10.3165V16.6025ZM6.98395 2.63423H2.09518C1.70947 2.63423 1.39679 2.94694 1.39679 3.33268V8.9196H7.68234V3.33268C7.68234 2.94694 7.36966 2.63423 6.98395 2.63423ZM9.07913 7.11295V8.92023L10.8856 8.9196L9.07913 7.11295Z" fill="url(#paint0_linear_1158_11970)"/>
<defs>
<linearGradient id="paint0_linear_1158_11970" x1="36.1304" y1="-4.02212" x2="39.5143" y2="23.5945" gradientUnits="userSpaceOnUse">
<stop stop-color="#FBBE52"/>
<stop offset="0.41" stop-color="#FF5C39"/>
<stop offset="1" stop-color="#F4364C"/>
</linearGradient>
</defs>
</svg>
