<svg width="18" height="18" viewBox="0 0 18 18" fill="none" xmlns="http://www.w3.org/2000/svg">
<path d="M15.3399 15.879H7.8546C8.01886 15.5553 8.15775 15.2023 8.26121 14.8185H8.99235V8.98593H6.33165C5.75642 8.71816 5.25349 8.28896 4.90257 7.9255H8.99235V2.62315C8.99235 2.39538 8.84909 2.20116 8.64797 2.12609L8.55848 2.10146L8.46339 2.09291H3.70273C3.44306 2.09291 3.22708 2.28048 3.1823 2.52783L3.17377 2.62315V7.48295C2.93762 7.56372 2.71717 7.70031 2.53414 7.89274C2.41293 8.02016 2.27231 8.1567 2.11585 8.29225V2.62315C2.11585 1.7963 2.7452 1.1168 3.54991 1.03973L3.70273 1.03244H8.46339C9.28825 1.03244 9.96607 1.66331 10.043 2.46995L10.0503 2.62315V2.89296L12.3656 0.486493C12.9359 -0.106511 13.8545 -0.159863 14.4889 0.340021L14.6118 0.447383L17.5292 3.33679C18.1137 3.91569 18.1555 4.83708 17.6462 5.46959L17.5369 5.59205L15.0923 7.92489L15.3399 7.9255C16.1648 7.9255 16.8426 8.55633 16.9195 9.36303L16.9268 9.51616V14.2883C16.9268 15.1151 16.2974 15.7947 15.4928 15.8718L15.3399 15.879ZM15.3399 8.98593H10.0503V14.8185H15.3399C15.5996 14.8185 15.8155 14.631 15.8603 14.3836L15.8689 14.2883V9.51616C15.8689 9.25592 15.6817 9.03937 15.435 8.99452L15.3399 8.98593ZM10.0503 6.02665V7.92489H11.944L10.0503 6.02665ZM4.10556 8.62462C4.64266 9.18932 5.67466 10.0874 6.94384 10.2716C7.19697 10.3084 7.40547 10.519 7.40547 10.7827V13.2455C7.40547 16.5565 4.46019 17.7581 3.82344 17.9792C3.74372 18.0069 3.66229 18.0069 3.58256 17.9792C2.94579 17.7581 0.000285652 16.5565 0.000285652 13.2455L3.38527e-09 10.7827C-3.06764e-05 10.519 0.208474 10.3084 0.461614 10.2716C1.73054 10.0873 2.76263 9.18932 3.2998 8.62452C3.51383 8.39953 3.89155 8.39956 4.10556 8.62462Z" fill="url(#paint0_linear_956_754)"/>
<defs>
<linearGradient id="paint0_linear_956_754" x1="7.73029" y1="-3.12866" x2="24.1212" y2="19.2388" gradientUnits="userSpaceOnUse">
<stop offset="0.0001" stop-color="#FBBE52"/>
<stop offset="0.283642" stop-color="#FD7853"/>
<stop offset="0.668279" stop-color="#F4364C"/>
<stop offset="0.923101" stop-color="#C73ECC"/>
</linearGradient>
</defs>
</svg>
