<svg width="18" height="18" viewBox="0 0 18 18" fill="none" xmlns="http://www.w3.org/2000/svg">
<path d="M14.6923 0.658587C14.2712 0.236873 13.7004 0 13.1053 0C12.5101 0 11.9393 0.236873 11.5182 0.658587L8.9295 3.24831C8.81878 2.7481 8.54125 2.30071 8.14274 1.97999C7.74422 1.65928 7.24854 1.48442 6.73755 1.4843H2.24585C1.65021 1.4843 1.07897 1.72155 0.657794 2.14387C0.236616 2.56619 0 3.13898 0 3.73623V15.7466C0 16.5122 0.381794 17.1878 0.964218 17.5947C1.32805 17.8499 1.77272 18 2.25034 18H14.2282C14.8238 18 15.3951 17.7627 15.8163 17.3404C16.2374 16.9181 16.4741 16.3453 16.4741 15.7481V11.2442C16.4739 10.745 16.3084 10.2601 16.0035 9.8655C15.6986 9.47093 15.2717 9.1891 14.7897 9.06431L17.3424 6.49861C17.7635 6.07631 18 5.50362 18 4.90649C18 4.30936 17.7635 3.73667 17.3424 3.31437L14.6923 0.658587ZM8.9834 6.61871L11.349 8.99075H8.9834V6.61871ZM7.48616 8.99075H1.49723V3.73623C1.49723 3.53715 1.5761 3.34622 1.7165 3.20545C1.85689 3.06467 2.0473 2.98559 2.24585 2.98559H6.73755C6.93609 2.98559 7.12651 3.06467 7.2669 3.20545C7.40729 3.34622 7.48616 3.53715 7.48616 3.73623V8.99075ZM1.81764 16.3621C1.71958 16.2924 1.63968 16.2002 1.58469 16.093C1.52971 15.9859 1.50125 15.8671 1.50172 15.7466V10.492H7.48616V16.4972H2.24585C2.09269 16.4972 1.94323 16.45 1.81764 16.3621ZM8.9834 16.4972V10.492H14.2282C14.4267 10.492 14.6172 10.5711 14.7576 10.7119C14.8979 10.8527 14.9768 11.0436 14.9768 11.2427V15.7466C14.9768 15.9456 14.8979 16.1366 14.7576 16.2773C14.6172 16.4181 14.4267 16.4972 14.2282 16.4972H8.9834Z" fill="url(#paint0_linear_937_713)"/>
<defs>
<linearGradient id="paint0_linear_937_713" x1="7.71236" y1="2.48264" x2="43.1125" y2="18.5252" gradientUnits="userSpaceOnUse">
<stop offset="0.0001" stop-color="#FBBE52"/>
<stop offset="0.283642" stop-color="#FD7853"/>
<stop offset="0.668279" stop-color="#F4364C"/>
<stop offset="0.923101" stop-color="#C73ECC"/>
</linearGradient>
</defs>
</svg>
