<svg width="18" height="18" viewBox="0 0 18 18" fill="none" xmlns="http://www.w3.org/2000/svg">
<path d="M14.4263 0.613709L17.3863 3.57397C18.2046 4.39225 18.2046 5.71894 17.3863 6.53722L14.9797 8.94351C15.9882 9.09483 16.7615 9.96491 16.7615 11.0156V15.9047C16.7615 17.0618 15.8234 18 14.6663 18H2.09519C0.938047 18 0 17.0618 0 15.9047V3.33268C0 2.17545 0.938047 1.23735 2.09519 1.23735H6.98395C8.03518 1.23735 8.90566 2.01164 9.05614 3.02108L11.4633 0.613709C12.2815 -0.20457 13.6081 -0.20457 14.4263 0.613709ZM1.39679 15.9047C1.39679 16.2904 1.70948 16.6031 2.09519 16.6031L7.68142 16.6025L7.68235 10.3171L1.39679 10.3165V15.9047ZM9.07821 16.6025L14.6663 16.6031C15.052 16.6031 15.3647 16.2904 15.3647 15.9047V11.0156C15.3647 10.6298 15.052 10.3171 14.6663 10.3171L9.07821 10.3165V16.6025ZM6.98395 2.63423H2.09519C1.70948 2.63423 1.39679 2.94693 1.39679 3.33268V8.91957H7.68235V3.33268C7.68235 2.94693 7.36965 2.63423 6.98395 2.63423ZM9.07914 7.11296V8.92022L10.8857 8.91957L9.07914 7.11296Z" fill="url(#paint0_linear_956_751)"/>
<defs>
<linearGradient id="paint0_linear_956_751" x1="7.71236" y1="2.48264" x2="43.1125" y2="18.5252" gradientUnits="userSpaceOnUse">
<stop offset="0.0001" stop-color="#FBBE52"/>
<stop offset="0.283642" stop-color="#FD7853"/>
<stop offset="0.668279" stop-color="#F4364C"/>
<stop offset="0.923101" stop-color="#C73ECC"/>
</linearGradient>
</defs>
</svg>
