<svg width="18" height="18" viewBox="0 0 18 18" fill="none" xmlns="http://www.w3.org/2000/svg">
<g clip-path="url(#clip0_933_2414)">
<path d="M6.30057 12.5999H11.7007V18H6.30057V12.5999ZM0.00255096 5.40013H5.40013V0H0.749947C0.551049 0 0.360297 0.079012 0.219655 0.219654C0.0790123 0.360297 0 0.551049 0 0.749947L0.00255096 5.40013ZM0.752498 18H5.40013V12.5999H0.00255096V17.2501C0.00254981 17.4485 0.0812117 17.6389 0.221303 17.7794C0.361394 17.92 0.551491 17.9993 0.749947 18H0.752498ZM0.00255096 11.7007H5.40013V6.30057H0.00255096V11.7007ZM12.6037 18H17.2539C17.4528 18 17.6435 17.921 17.7842 17.7803C17.9248 17.6397 18.0038 17.449 18.0038 17.2501V12.5999H12.6011L12.6037 18ZM6.30057 11.7007H11.7007V6.30057H6.30057V11.7007ZM12.6011 11.7007H18.0013V6.30057H12.6011V11.7007ZM12.6011 0V5.40013H18.0013V0.749947C18.0013 0.551049 17.9223 0.360297 17.7816 0.219654C17.641 0.079012 17.4502 0 17.2513 0H12.6011ZM6.30057 5.40013H11.7007V0H6.30057V5.40013Z" fill="url(#paint0_linear_933_2414)"/>
</g>
<defs>
<linearGradient id="paint0_linear_933_2414" x1="9.25062" y1="0.374973" x2="9.25062" y2="18.3743" gradientUnits="userSpaceOnUse">
<stop stop-color="#5EA0EF"/>
<stop offset="0.178" stop-color="#589EED"/>
<stop offset="0.406" stop-color="#4897E9"/>
<stop offset="0.662" stop-color="#2E8CE1"/>
<stop offset="0.936" stop-color="#0A7CD7"/>
<stop offset="1" stop-color="#0078D4"/>
</linearGradient>
<clipPath id="clip0_933_2414">
<rect width="18" height="18" fill="white"/>
</clipPath>
</defs>
</svg>
