<svg width="18" height="18" viewBox="0 0 18 18" fill="none" xmlns="http://www.w3.org/2000/svg">
<path d="M3.67183 4.51743C4.09327 1.95469 6.3182 0 9 0C11.6818 0 13.9067 1.9547 14.3282 4.51743C16.3876 4.70813 18 6.44078 18 8.55001C18 10.7868 16.1868 12.6 13.95 12.6H10.35V9.74863C10.9346 10.0257 11.6547 9.92242 12.1385 9.43867C12.7535 8.82361 12.7535 7.82641 12.1385 7.21135L9.88857 4.96131C9.27351 4.34624 8.27622 4.34624 7.66116 4.96131L5.4113 7.21135C4.79623 7.82641 4.79623 8.82361 5.4113 9.43867C5.89509 9.92251 6.61529 10.0257 7.2 9.74854V12.6H4.05C1.81325 12.6 0 10.7868 0 8.55001C0 6.44078 1.6124 4.70813 3.67183 4.51743ZM11.5023 8.80228C11.2387 9.06589 10.8113 9.06589 10.5477 8.80228L9.45 7.70464V15.6954L10.5477 14.5977C10.8113 14.3341 11.2387 14.3341 11.5023 14.5977C11.7659 14.8614 11.7659 15.2887 11.5023 15.5523L9.25227 17.8023C8.98866 18.0659 8.56134 18.0659 8.29773 17.8023L6.0477 15.5523C5.7841 15.2887 5.7841 14.8614 6.0477 14.5977C6.3113 14.3341 6.7387 14.3341 7.0023 14.5977L8.1 15.6954V7.70464L7.0023 8.80228C6.7387 9.06589 6.3113 9.06589 6.0477 8.80228C5.7841 8.53867 5.7841 8.11135 6.0477 7.84774L8.29773 5.59771C8.56134 5.33411 8.98866 5.33411 9.25227 5.59771L11.5023 7.84774C11.7659 8.11135 11.7659 8.53867 11.5023 8.80228Z" fill="url(#paint0_linear_956_769)"/>
<defs>
<linearGradient id="paint0_linear_956_769" x1="2.39463" y1="54.1414" x2="-18.1436" y2="4.57931" gradientUnits="userSpaceOnUse">
<stop stop-color="#0078D4"/>
<stop offset="0.897238" stop-color="#C73ECC"/>
</linearGradient>
</defs>
</svg>
