<svg width="18" height="18" viewBox="0 0 18 18" fill="none" xmlns="http://www.w3.org/2000/svg">
<path d="M4.53379 6.19575C4.80693 3.97195 6.70238 2.25 9 2.25C11.2976 2.25 13.1931 3.97196 13.4663 6.19575C15.0663 6.30268 16.3847 7.43912 16.7646 8.94846C16.0595 8.28296 15.1086 7.875 14.0625 7.875H9.5625C7.38788 7.875 5.625 9.63788 5.625 11.8125C5.625 12.4164 5.76096 12.9886 6.00392 13.5H4.78125C2.76195 13.5 1.125 11.863 1.125 9.84375C1.125 7.90763 2.6299 6.32298 4.53379 6.19575ZM9.5625 9C8.0092 9 6.75 10.2592 6.75 11.8125C6.75 13.3658 8.0092 14.625 9.5625 14.625H10.125C10.4357 14.625 10.6875 14.3731 10.6875 14.0625C10.6875 13.7519 10.4357 13.5 10.125 13.5H9.5625C8.63052 13.5 7.875 12.7445 7.875 11.8125C7.875 10.8805 8.63052 10.125 9.5625 10.125H10.125C10.4357 10.125 10.6875 9.87316 10.6875 9.5625C10.6875 9.25184 10.4357 9 10.125 9H9.5625ZM13.5 9C13.1894 9 12.9375 9.25184 12.9375 9.5625C12.9375 9.87316 13.1894 10.125 13.5 10.125H14.0625C14.9945 10.125 15.75 10.8805 15.75 11.8125C15.75 12.7445 14.9945 13.5 14.0625 13.5H13.5C13.1894 13.5 12.9375 13.7519 12.9375 14.0625C12.9375 14.3731 13.1894 14.625 13.5 14.625H14.0625C15.6158 14.625 16.875 13.3658 16.875 11.8125C16.875 10.2592 15.6158 9 14.0625 9H13.5ZM9 11.8125C9 11.5019 9.25184 11.25 9.5625 11.25H14.0625C14.3731 11.25 14.625 11.5019 14.625 11.8125C14.625 12.1231 14.3731 12.375 14.0625 12.375H9.5625C9.25184 12.375 9 12.1231 9 11.8125Z" fill="url(#paint0_linear_933_2385)"/>
<defs>
<linearGradient id="paint0_linear_933_2385" x1="9" y1="2.25" x2="9.06433" y2="14.6247" gradientUnits="userSpaceOnUse">
<stop stop-color="#4DA9FF"/>
<stop offset="1" stop-color="#0052B3"/>
</linearGradient>
</defs>
</svg>
