<svg width="18" height="17" viewBox="0 0 18 17" fill="none" xmlns="http://www.w3.org/2000/svg">
<path d="M3.68511 4.49049C3.89437 3.23594 4.54426 2.09601 5.51906 1.27368C6.49386 0.451348 7.7303 0 9.00822 0C10.2861 0 11.5226 0.451348 12.4974 1.27368C13.4722 2.09601 14.1221 3.23594 14.3313 4.49049C14.8659 4.54035 15.3851 4.69558 15.8588 4.94714C16.3324 5.19869 16.7511 5.54154 17.0903 5.9557C17.4294 6.36986 17.6824 6.84706 17.8344 7.35949C17.9864 7.87192 18.0345 8.40933 17.9757 8.94041C17.2735 7.84879 16.2251 7.02184 14.9968 6.59083C13.7685 6.15982 12.4307 6.14944 11.1958 6.56135C9.96087 6.97325 8.89959 7.78383 8.18041 8.86442C7.46122 9.94501 7.12533 11.2337 7.22606 12.5259H4.06276C3.0195 12.5302 2.01492 12.1332 1.25872 11.418C0.502519 10.7027 0.0531505 9.72446 0.00442032 8.68738C-0.0443099 7.6503 0.311365 6.63457 0.997196 5.85222C1.68303 5.06987 2.64601 4.58137 3.68511 4.4887M13.0545 17C14.3661 17 15.624 16.4815 16.5515 15.5585C17.4789 14.6356 18 13.3838 18 12.0785C18 10.7733 17.4789 9.52146 16.5515 8.59851C15.624 7.67555 14.3661 7.15704 13.0545 7.15704C11.7429 7.15704 10.485 7.67555 9.55754 8.59851C8.63008 9.52146 8.10905 10.7733 8.10905 12.0785C8.10905 13.3838 8.63008 14.6356 9.55754 15.5585C10.485 16.4815 11.7429 17 13.0545 17ZM14.8529 10.7363C14.6435 10.4585 14.3719 10.233 14.0598 10.0777C13.7477 9.92234 13.4035 9.84148 13.0545 9.84148C12.3891 9.84148 11.7912 10.1287 11.3784 10.5878C11.2988 10.6762 11.1871 10.7295 11.068 10.7359C10.9488 10.7424 10.832 10.7015 10.7432 10.6222C10.6543 10.5429 10.6008 10.4318 10.5943 10.3133C10.5878 10.1947 10.6289 10.0784 10.7086 9.99002C11.0038 9.66167 11.3654 9.39901 11.7697 9.21923C12.1739 9.03944 12.6117 8.94656 13.0545 8.94667C13.9357 8.94667 14.7315 9.30728 15.3024 9.88622V9.39408C15.3024 9.27542 15.3498 9.16162 15.4341 9.07771C15.5184 8.99381 15.6328 8.94667 15.752 8.94667C15.8713 8.94667 15.9856 8.99381 16.0699 9.07771C16.1542 9.16162 16.2016 9.27542 16.2016 9.39408V11.1837C16.2016 11.3024 16.1542 11.4162 16.0699 11.5001C15.9856 11.584 15.8713 11.6311 15.752 11.6311H13.9537C13.8344 11.6311 13.7201 11.584 13.6358 11.5001C13.5515 11.4162 13.5041 11.3024 13.5041 11.1837C13.5041 11.065 13.5515 10.9512 13.6358 10.8673C13.7201 10.7834 13.8344 10.7363 13.9537 10.7363H14.8529ZM9.90739 12.9733C9.90739 12.8547 9.95476 12.7409 10.0391 12.657C10.1234 12.5731 10.2377 12.5259 10.357 12.5259H12.1553C12.2746 12.5259 12.3889 12.5731 12.4732 12.657C12.5575 12.7409 12.6049 12.8547 12.6049 12.9733C12.6049 13.092 12.5575 13.2058 12.4732 13.2897C12.3889 13.3736 12.2746 13.4207 12.1553 13.4207H11.2562C11.6662 13.9648 12.3199 14.3156 13.0545 14.3156C13.7199 14.3156 14.3178 14.0283 14.7297 13.5693C14.8093 13.4808 14.921 13.4274 15.0403 13.4208C15.1595 13.4143 15.2764 13.4551 15.3654 13.5344C15.4543 13.6136 15.508 13.7248 15.5146 13.8435C15.5212 13.9621 15.4801 14.0785 15.4004 14.167C15.1052 14.4954 14.7436 14.758 14.3394 14.9378C13.9351 15.1176 13.4973 15.2105 13.0545 15.2104C12.6358 15.2104 12.2214 15.1274 11.8354 14.966C11.4494 14.8047 11.0996 14.5683 10.8066 14.2708V14.763C10.8066 14.8816 10.7592 14.9954 10.6749 15.0793C10.5906 15.1632 10.4762 15.2104 10.357 15.2104C10.2377 15.2104 10.1234 15.1632 10.0391 15.0793C9.95476 14.9954 9.90739 14.8816 9.90739 14.763V12.9733Z" fill="black"/>
<path d="M3.68511 4.49049C3.89437 3.23594 4.54426 2.09601 5.51906 1.27368C6.49386 0.451348 7.7303 0 9.00822 0C10.2861 0 11.5226 0.451348 12.4974 1.27368C13.4722 2.09601 14.1221 3.23594 14.3313 4.49049C14.8659 4.54035 15.3851 4.69558 15.8588 4.94714C16.3324 5.19869 16.7511 5.54154 17.0903 5.9557C17.4294 6.36986 17.6824 6.84706 17.8344 7.35949C17.9864 7.87192 18.0345 8.40933 17.9757 8.94041C17.2735 7.84879 16.2251 7.02184 14.9968 6.59083C13.7685 6.15982 12.4307 6.14944 11.1958 6.56135C9.96087 6.97325 8.89959 7.78383 8.18041 8.86442C7.46122 9.94501 7.12533 11.2337 7.22606 12.5259H4.06276C3.0195 12.5302 2.01492 12.1332 1.25872 11.418C0.502519 10.7027 0.0531505 9.72446 0.00442032 8.68738C-0.0443099 7.6503 0.311365 6.63457 0.997196 5.85222C1.68303 5.06987 2.64601 4.58137 3.68511 4.4887M13.0545 17C14.3661 17 15.624 16.4815 16.5515 15.5585C17.4789 14.6356 18 13.3838 18 12.0785C18 10.7733 17.4789 9.52146 16.5515 8.59851C15.624 7.67555 14.3661 7.15704 13.0545 7.15704C11.7429 7.15704 10.485 7.67555 9.55754 8.59851C8.63008 9.52146 8.10905 10.7733 8.10905 12.0785C8.10905 13.3838 8.63008 14.6356 9.55754 15.5585C10.485 16.4815 11.7429 17 13.0545 17ZM14.8529 10.7363C14.6435 10.4585 14.3719 10.233 14.0598 10.0777C13.7477 9.92234 13.4035 9.84148 13.0545 9.84148C12.3891 9.84148 11.7912 10.1287 11.3784 10.5878C11.2988 10.6762 11.1871 10.7295 11.068 10.7359C10.9488 10.7424 10.832 10.7015 10.7432 10.6222C10.6543 10.5429 10.6008 10.4318 10.5943 10.3133C10.5878 10.1947 10.6289 10.0784 10.7086 9.99002C11.0038 9.66167 11.3654 9.39901 11.7697 9.21923C12.1739 9.03944 12.6117 8.94656 13.0545 8.94667C13.9357 8.94667 14.7315 9.30728 15.3024 9.88622V9.39408C15.3024 9.27542 15.3498 9.16162 15.4341 9.07771C15.5184 8.99381 15.6328 8.94667 15.752 8.94667C15.8713 8.94667 15.9856 8.99381 16.0699 9.07771C16.1542 9.16162 16.2016 9.27542 16.2016 9.39408V11.1837C16.2016 11.3024 16.1542 11.4162 16.0699 11.5001C15.9856 11.584 15.8713 11.6311 15.752 11.6311H13.9537C13.8344 11.6311 13.7201 11.584 13.6358 11.5001C13.5515 11.4162 13.5041 11.3024 13.5041 11.1837C13.5041 11.065 13.5515 10.9512 13.6358 10.8673C13.7201 10.7834 13.8344 10.7363 13.9537 10.7363H14.8529ZM9.90739 12.9733C9.90739 12.8547 9.95476 12.7409 10.0391 12.657C10.1234 12.5731 10.2377 12.5259 10.357 12.5259H12.1553C12.2746 12.5259 12.3889 12.5731 12.4732 12.657C12.5575 12.7409 12.6049 12.8547 12.6049 12.9733C12.6049 13.092 12.5575 13.2058 12.4732 13.2897C12.3889 13.3736 12.2746 13.4207 12.1553 13.4207H11.2562C11.6662 13.9648 12.3199 14.3156 13.0545 14.3156C13.7199 14.3156 14.3178 14.0283 14.7297 13.5693C14.8093 13.4808 14.921 13.4274 15.0403 13.4208C15.1595 13.4143 15.2764 13.4551 15.3654 13.5344C15.4543 13.6136 15.508 13.7248 15.5146 13.8435C15.5212 13.9621 15.4801 14.0785 15.4004 14.167C15.1052 14.4954 14.7436 14.758 14.3394 14.9378C13.9351 15.1176 13.4973 15.2105 13.0545 15.2104C12.6358 15.2104 12.2214 15.1274 11.8354 14.966C11.4494 14.8047 11.0996 14.5683 10.8066 14.2708V14.763C10.8066 14.8816 10.7592 14.9954 10.6749 15.0793C10.5906 15.1632 10.4762 15.2104 10.357 15.2104C10.2377 15.2104 10.1234 15.1632 10.0391 15.0793C9.95476 14.9954 9.90739 14.8816 9.90739 14.763V12.9733Z" fill="url(#paint0_linear_944_703)"/>
<defs>
<linearGradient id="paint0_linear_944_703" x1="2.39463" y1="51.1335" x2="-16.2197" y2="3.57193" gradientUnits="userSpaceOnUse">
<stop stop-color="#0078D4"/>
<stop offset="0.897238" stop-color="#C73ECC"/>
</linearGradient>
</defs>
</svg>
