<svg width="16" height="13" viewBox="0 0 16 13" fill="none" xmlns="http://www.w3.org/2000/svg">
<path d="M3.40879 3.94575C3.68193 1.72195 5.57738 0 7.875 0C10.1726 0 12.0681 1.72196 12.3413 3.94575C13.9413 4.05268 15.2597 5.18912 15.6396 6.69846C14.9345 6.03296 13.9836 5.625 12.9375 5.625H8.4375C6.26288 5.625 4.5 7.38788 4.5 9.5625C4.5 10.1664 4.63596 10.7386 4.87892 11.25H3.65625C1.63695 11.25 0 9.61301 0 7.59375C0 5.65763 1.5049 4.07298 3.40879 3.94575ZM8.4375 6.75C6.8842 6.75 5.625 8.0092 5.625 9.5625C5.625 11.1158 6.8842 12.375 8.4375 12.375H9C9.31066 12.375 9.5625 12.1231 9.5625 11.8125C9.5625 11.5019 9.31066 11.25 9 11.25H8.4375C7.50552 11.25 6.75 10.4945 6.75 9.5625C6.75 8.63052 7.50552 7.875 8.4375 7.875H9C9.31066 7.875 9.5625 7.62316 9.5625 7.3125C9.5625 7.00184 9.31066 6.75 9 6.75H8.4375ZM12.375 6.75C12.0644 6.75 11.8125 7.00184 11.8125 7.3125C11.8125 7.62316 12.0644 7.875 12.375 7.875H12.9375C13.8695 7.875 14.625 8.63052 14.625 9.5625C14.625 10.4945 13.8695 11.25 12.9375 11.25H12.375C12.0644 11.25 11.8125 11.5019 11.8125 11.8125C11.8125 12.1231 12.0644 12.375 12.375 12.375H12.9375C14.4908 12.375 15.75 11.1158 15.75 9.5625C15.75 8.0092 14.4908 6.75 12.9375 6.75H12.375ZM7.875 9.5625C7.875 9.25189 8.12684 9 8.4375 9H12.9375C13.2481 9 13.5 9.25189 13.5 9.5625C13.5 9.87311 13.2481 10.125 12.9375 10.125H8.4375C8.12684 10.125 7.875 9.87311 7.875 9.5625Z" fill="url(#paint0_linear_937_732)"/>
<path d="M3.40879 3.94575C3.68193 1.72195 5.57738 0 7.875 0C10.1726 0 12.0681 1.72196 12.3413 3.94575C13.9413 4.05268 15.2597 5.18912 15.6396 6.69846C14.9345 6.03296 13.9836 5.625 12.9375 5.625H8.4375C6.26288 5.625 4.5 7.38788 4.5 9.5625C4.5 10.1664 4.63596 10.7386 4.87892 11.25H3.65625C1.63695 11.25 0 9.61301 0 7.59375C0 5.65763 1.5049 4.07298 3.40879 3.94575ZM8.4375 6.75C6.8842 6.75 5.625 8.0092 5.625 9.5625C5.625 11.1158 6.8842 12.375 8.4375 12.375H9C9.31066 12.375 9.5625 12.1231 9.5625 11.8125C9.5625 11.5019 9.31066 11.25 9 11.25H8.4375C7.50552 11.25 6.75 10.4945 6.75 9.5625C6.75 8.63052 7.50552 7.875 8.4375 7.875H9C9.31066 7.875 9.5625 7.62316 9.5625 7.3125C9.5625 7.00184 9.31066 6.75 9 6.75H8.4375ZM12.375 6.75C12.0644 6.75 11.8125 7.00184 11.8125 7.3125C11.8125 7.62316 12.0644 7.875 12.375 7.875H12.9375C13.8695 7.875 14.625 8.63052 14.625 9.5625C14.625 10.4945 13.8695 11.25 12.9375 11.25H12.375C12.0644 11.25 11.8125 11.5019 11.8125 11.8125C11.8125 12.1231 12.0644 12.375 12.375 12.375H12.9375C14.4908 12.375 15.75 11.1158 15.75 9.5625C15.75 8.0092 14.4908 6.75 12.9375 6.75H12.375ZM7.875 9.5625C7.875 9.25189 8.12684 9 8.4375 9H12.9375C13.2481 9 13.5 9.25189 13.5 9.5625C13.5 9.87311 13.2481 10.125 12.9375 10.125H8.4375C8.12684 10.125 7.875 9.87311 7.875 9.5625Z" fill="url(#paint1_linear_937_732)"/>
<defs>
<linearGradient id="paint0_linear_937_732" x1="7.875" y1="1.06607e-07" x2="7.93933" y2="12.3747" gradientUnits="userSpaceOnUse">
<stop stop-color="#4DA9FF"/>
<stop offset="1" stop-color="#0052B3"/>
</linearGradient>
<linearGradient id="paint1_linear_937_732" x1="-6.3457" y1="-4.63682" x2="14.4046" y2="19.2868" gradientUnits="userSpaceOnUse">
<stop offset="0.0515184" stop-color="#8B50CE"/>
<stop offset="0.520533" stop-color="#615CD0"/>
<stop offset="0.961602" stop-color="#0078D4"/>
</linearGradient>
</defs>
</svg>
