<svg width="17" height="18" viewBox="0 0 17 18" fill="none" xmlns="http://www.w3.org/2000/svg">
<path d="M0 3.21429C0 2.85925 0.285422 2.57143 0.6375 2.57143C2.9014 2.57143 5.10677 1.76273 7.2675 0.128571C7.4942 -0.0428571 7.80581 -0.0428571 8.0325 0.128571C10.1932 1.76273 12.3986 2.57143 14.6625 2.57143C15.0146 2.57143 15.3 2.85925 15.3 3.21429V7.71429C15.3 8.00409 15.2885 8.28866 15.2656 8.56809C14.414 8.02723 13.4058 7.71429 12.325 7.71429C9.27359 7.71429 6.8 10.2087 6.8 13.2857C6.8 14.7009 7.32326 15.9928 8.18524 16.9755C8.08571 17.0169 7.98524 17.0577 7.88367 17.0981C7.73347 17.1578 7.56653 17.1578 7.41633 17.0981C2.51393 15.1506 0 12.001 0 7.71429V3.21429ZM17 13.2857C17 10.6821 14.907 8.57143 12.325 8.57143C9.74304 8.57143 7.65 10.6821 7.65 13.2857C7.65 15.8894 9.74304 18 12.325 18C14.907 18 17 15.8894 17 13.2857ZM15.1756 11.2683C15.3415 11.4357 15.3415 11.7071 15.1756 11.8745L11.7756 15.3031C11.6096 15.4704 11.3404 15.4704 11.1744 15.3031L9.47444 13.5888C9.30852 13.4214 9.30852 13.15 9.47444 12.9826C9.64045 12.8153 9.90955 12.8153 10.0756 12.9826L11.475 14.3939L14.5744 11.2683C14.7404 11.101 15.0096 11.101 15.1756 11.2683Z" fill="url(#paint0_linear_956_748)"/>
<defs>
<linearGradient id="paint0_linear_956_748" x1="7.30083" y1="-3.12866" x2="23.9514" y2="18.3308" gradientUnits="userSpaceOnUse">
<stop offset="0.0001" stop-color="#FBBE52"/>
<stop offset="0.283642" stop-color="#FD7853"/>
<stop offset="0.668279" stop-color="#F4364C"/>
<stop offset="0.923101" stop-color="#C73ECC"/>
</linearGradient>
</defs>
</svg>
