<svg width="17" height="18" viewBox="0 0 17 18" fill="none" xmlns="http://www.w3.org/2000/svg">
<path d="M10.2282 0H0.54C0.241766 0 0 0.241766 0 0.54V17.4494C0 17.7476 0.241766 17.9894 0.54 17.9894H10.2282C10.5265 17.9894 10.7682 17.7476 10.7682 17.4494V0.54C10.7682 0.241766 10.5265 0 10.2282 0Z" fill="url(#paint0_linear_933_2402)"/>
<path d="M5.69608 16.5918H5.06078C4.9029 16.5918 4.7749 16.7198 4.7749 16.8777V17.333C4.7749 17.4909 4.9029 17.6189 5.06078 17.6189H5.69608C5.85397 17.6189 5.98196 17.4909 5.98196 17.333V16.8777C5.98196 16.7198 5.85397 16.5918 5.69608 16.5918Z" fill="#F2F2F2"/>
<path d="M6.45896 0.603516H4.29896C4.21124 0.603516 4.14014 0.674623 4.14014 0.762339V0.772927C4.14014 0.860643 4.21124 0.931751 4.29896 0.931751H6.45896C6.54668 0.931751 6.61778 0.860643 6.61778 0.772927V0.762339C6.61778 0.674623 6.54668 0.603516 6.45896 0.603516Z" fill="#F2F2F2"/>
<path opacity="0.9" d="M9.55057 1.52466H1.20704C1.09593 1.52466 1.00586 1.61473 1.00586 1.72583V15.7764C1.00586 15.8875 1.09593 15.9776 1.20704 15.9776H9.55057C9.66167 15.9776 9.75174 15.8875 9.75174 15.7764V1.72583C9.75174 1.61473 9.66167 1.52466 9.55057 1.52466Z" fill="url(#paint1_linear_933_2402)"/>
<path d="M16.0516 10.0376H8.68221C8.51848 10.0376 8.38574 10.1703 8.38574 10.3341V17.7035C8.38574 17.8672 8.51848 18 8.68221 18H16.0516C16.2154 18 16.3481 17.8672 16.3481 17.7035V10.3341C16.3481 10.1703 16.2154 10.0376 16.0516 10.0376Z" fill="#76BC2D"/>
<path d="M11.9594 15.7129L11.502 16.1682C11.4643 16.2057 11.4133 16.2268 11.3601 16.2268C11.3069 16.2268 11.2559 16.2057 11.2182 16.1682L9.39067 14.3428C9.37178 14.3241 9.35679 14.3018 9.34656 14.2773C9.33632 14.2528 9.33105 14.2264 9.33105 14.1998C9.33105 14.1733 9.33632 14.1469 9.34656 14.1224C9.35679 14.0979 9.37178 14.0756 9.39067 14.0569L9.71255 13.7361C9.73124 13.7174 9.75344 13.7025 9.77787 13.6924C9.80231 13.6822 9.82851 13.677 9.85496 13.677C9.88142 13.677 9.90762 13.6822 9.93205 13.6924C9.95649 13.7025 9.97869 13.7174 9.99738 13.7361L11.9668 15.7055L11.9594 15.7129Z" fill="white"/>
<path d="M11.2596 16.1567L10.8032 15.6992L14.9962 11.5063C15.0339 11.4688 15.0849 11.4478 15.138 11.4478C15.1912 11.4478 15.2422 11.4688 15.2799 11.5063L15.6018 11.8282C15.6207 11.8469 15.6357 11.8692 15.6459 11.8937C15.6562 11.9182 15.6614 11.9445 15.6614 11.9711C15.6614 11.9977 15.6562 12.024 15.6459 12.0486C15.6357 12.0731 15.6207 12.0954 15.6018 12.1141L11.5518 16.1641C11.5331 16.1828 11.5109 16.1977 11.4865 16.2078C11.4621 16.2179 11.4359 16.2232 11.4094 16.2232C11.3829 16.2232 11.3567 16.2179 11.3323 16.2078C11.3079 16.1977 11.2857 16.1828 11.267 16.1641L11.2596 16.1567Z" fill="white"/>
<defs>
<linearGradient id="paint0_linear_933_2402" x1="5.37882" y1="22.7965" x2="5.37882" y2="-2.48824" gradientUnits="userSpaceOnUse">
<stop stop-color="#0078D4"/>
<stop offset="0.17" stop-color="#1C84DC"/>
<stop offset="0.38" stop-color="#3990E4"/>
<stop offset="0.59" stop-color="#4D99EA"/>
<stop offset="0.8" stop-color="#5A9EEE"/>
<stop offset="1" stop-color="#5EA0EF"/>
</linearGradient>
<linearGradient id="paint1_linear_933_2402" x1="5.3788" y1="15.9776" x2="5.3788" y2="1.52466" gradientUnits="userSpaceOnUse">
<stop stop-color="#D2EBFF"/>
<stop offset="1" stop-color="#F0FFFD"/>
</linearGradient>
</defs>
</svg>
