<svg width="16" height="17" viewBox="0 0 16 17" fill="none" xmlns="http://www.w3.org/2000/svg">
<path d="M6.723 0.0837417C6.80506 0.0291343 6.90143 0 7 0C7.09857 0 7.19494 0.0291343 7.277 0.0837417C9.16487 1.35644 11.3169 2.18421 13.571 2.50474C13.6901 2.52183 13.799 2.58129 13.8778 2.67221C13.9566 2.76313 14 2.87942 14 2.99974V7.59974C12.8781 7.02672 11.5935 6.8562 10.361 7.11668C9.12847 7.37716 8.02272 8.05285 7.22861 9.03079C6.4345 10.0087 6.00018 11.2296 5.99824 12.4894C5.99631 13.7491 6.4269 14.9714 7.218 15.9517L7.18 15.9667C7.06416 16.0114 6.93584 16.0114 6.82 15.9667C2.308 14.2297 0 11.3897 0 7.49974V2.99974C1.82515e-05 2.87927 0.04353 2.76286 0.122533 2.67192C0.201536 2.58097 0.310718 2.52161 0.43 2.50474C2.68377 2.18407 4.83543 1.3563 6.723 0.0837417ZM16 12.4997C16 11.3063 15.5259 10.1617 14.682 9.31776C13.8381 8.47385 12.6935 7.99974 11.5 7.99974C10.3065 7.99974 9.16193 8.47385 8.31802 9.31776C7.47411 10.1617 7 11.3063 7 12.4997C7 13.6932 7.47411 14.8378 8.31802 15.6817C9.16193 16.5256 10.3065 16.9997 11.5 16.9997C12.6935 16.9997 13.8381 16.5256 14.682 15.6817C15.5259 14.8378 16 13.6932 16 12.4997ZM13.854 10.6457C13.9006 10.6922 13.9375 10.7474 13.9627 10.8081C13.9879 10.8689 14.0009 10.934 14.0009 10.9997C14.0009 11.0655 13.9879 11.1306 13.9627 11.1914C13.9375 11.2521 13.9006 11.3073 13.854 11.3537L10.854 14.3537C10.8076 14.4003 10.7524 14.4372 10.6916 14.4625C10.6309 14.4877 10.5658 14.5006 10.5 14.5006C10.4342 14.5006 10.3691 14.4877 10.3084 14.4625C10.2476 14.4372 10.1924 14.4003 10.146 14.3537L9.146 13.3537C9.05211 13.2599 8.99937 13.1325 8.99937 12.9997C8.99937 12.867 9.05211 12.7396 9.146 12.6457C9.23989 12.5519 9.36722 12.4991 9.5 12.4991C9.63278 12.4991 9.76011 12.5519 9.854 12.6457L10.5 13.2927L13.146 10.6457C13.1924 10.5992 13.2476 10.5622 13.3084 10.537C13.3691 10.5118 13.4342 10.4988 13.5 10.4988C13.5658 10.4988 13.6309 10.5118 13.6916 10.537C13.7524 10.5622 13.8076 10.5992 13.854 10.6457Z" fill="url(#paint0_linear_937_721)"/>
<path d="M6.723 0.0837417C6.80506 0.0291343 6.90143 0 7 0C7.09857 0 7.19494 0.0291343 7.277 0.0837417C9.16487 1.35644 11.3169 2.18421 13.571 2.50474C13.6901 2.52183 13.799 2.58129 13.8778 2.67221C13.9566 2.76313 14 2.87942 14 2.99974V7.59974C12.8781 7.02672 11.5935 6.8562 10.361 7.11668C9.12847 7.37716 8.02272 8.05285 7.22861 9.03079C6.4345 10.0087 6.00018 11.2296 5.99824 12.4894C5.99631 13.7491 6.4269 14.9714 7.218 15.9517L7.18 15.9667C7.06416 16.0114 6.93584 16.0114 6.82 15.9667C2.308 14.2297 0 11.3897 0 7.49974V2.99974C1.82515e-05 2.87927 0.04353 2.76286 0.122533 2.67192C0.201536 2.58097 0.310718 2.52161 0.43 2.50474C2.68377 2.18407 4.83543 1.3563 6.723 0.0837417ZM16 12.4997C16 11.3063 15.5259 10.1617 14.682 9.31776C13.8381 8.47385 12.6935 7.99974 11.5 7.99974C10.3065 7.99974 9.16193 8.47385 8.31802 9.31776C7.47411 10.1617 7 11.3063 7 12.4997C7 13.6932 7.47411 14.8378 8.31802 15.6817C9.16193 16.5256 10.3065 16.9997 11.5 16.9997C12.6935 16.9997 13.8381 16.5256 14.682 15.6817C15.5259 14.8378 16 13.6932 16 12.4997ZM13.854 10.6457C13.9006 10.6922 13.9375 10.7474 13.9627 10.8081C13.9879 10.8689 14.0009 10.934 14.0009 10.9997C14.0009 11.0655 13.9879 11.1306 13.9627 11.1914C13.9375 11.2521 13.9006 11.3073 13.854 11.3537L10.854 14.3537C10.8076 14.4003 10.7524 14.4372 10.6916 14.4625C10.6309 14.4877 10.5658 14.5006 10.5 14.5006C10.4342 14.5006 10.3691 14.4877 10.3084 14.4625C10.2476 14.4372 10.1924 14.4003 10.146 14.3537L9.146 13.3537C9.05211 13.2599 8.99937 13.1325 8.99937 12.9997C8.99937 12.867 9.05211 12.7396 9.146 12.6457C9.23989 12.5519 9.36722 12.4991 9.5 12.4991C9.63278 12.4991 9.76011 12.5519 9.854 12.6457L10.5 13.2927L13.146 10.6457C13.1924 10.5992 13.2476 10.5622 13.3084 10.537C13.3691 10.5118 13.4342 10.4988 13.5 10.4988C13.5658 10.4988 13.6309 10.5118 13.6916 10.537C13.7524 10.5622 13.8076 10.5992 13.854 10.6457Z" fill="url(#paint1_linear_937_721)"/>
<defs>
<linearGradient id="paint0_linear_937_721" x1="0.747031" y1="0.440849" x2="20.3097" y2="11.7042" gradientUnits="userSpaceOnUse">
<stop stop-color="#FF5C39"/>
<stop offset="0.174757" stop-color="#F4364C"/>
<stop offset="0.525405" stop-color="#C73ECC"/>
<stop offset="0.957171" stop-color="#0078D4"/>
</linearGradient>
<linearGradient id="paint1_linear_937_721" x1="6.87137" y1="-2.95481" x2="22.61" y2="17.2595" gradientUnits="userSpaceOnUse">
<stop offset="0.0001" stop-color="#FBBE52"/>
<stop offset="0.283642" stop-color="#FD7853"/>
<stop offset="0.668279" stop-color="#F4364C"/>
<stop offset="0.923101" stop-color="#C73ECC"/>
</linearGradient>
</defs>
</svg>
