<svg width="18" height="18" viewBox="0 0 18 18" fill="none" xmlns="http://www.w3.org/2000/svg">
<path d="M18 9C18 4.02944 13.9706 0 9 0C4.02944 0 0 4.02944 0 9C0 13.9706 4.02944 18 9 18C13.9706 18 18 13.9706 18 9ZM11.5188 4.7534L7.66169 13.7534C7.52184 14.0797 7.14392 14.2309 6.81758 14.091C6.49125 13.9512 6.34008 13.5733 6.47994 13.2469L10.3371 4.24693C10.4769 3.9206 10.8549 3.76943 11.1812 3.90929C11.5075 4.04914 11.6587 4.42707 11.5188 4.7534ZM6.20903 7.23389L4.19052 9.00004L6.20905 10.7663C6.47624 11.0001 6.50331 11.4062 6.26951 11.6734C6.03571 11.9406 5.62958 11.9677 5.36238 11.7339L2.79095 9.48382C2.65145 9.36175 2.57143 9.18539 2.57143 9.00002C2.57143 8.81464 2.65146 8.63829 2.79097 8.51622L5.3624 6.26628C5.62959 6.03249 6.03573 6.05957 6.26952 6.32677C6.50331 6.59397 6.47623 7.0001 6.20903 7.23389ZM11.7305 11.6734C11.4967 11.4062 11.5238 11.0001 11.791 10.7663L13.8095 9.00012L11.791 7.23387C11.5238 7.00007 11.4967 6.59393 11.7305 6.32674C11.9643 6.05955 12.3704 6.03248 12.6376 6.26628L15.209 8.51634C15.3486 8.63841 15.4286 8.81477 15.4286 9.00014C15.4286 9.18552 15.3485 9.36187 15.209 9.48394L12.6376 11.7339C12.3704 11.9677 11.9643 11.9406 11.7305 11.6734Z" fill="url(#paint0_linear_1151_11711)"/>
<defs>
<linearGradient id="paint0_linear_1151_11711" x1="16.6763" y1="30.3258" x2="-4.95872" y2="2.83896" gradientUnits="userSpaceOnUse">
<stop stop-color="#0078D4"/>
<stop offset="0.897238" stop-color="#C73ECC"/>
</linearGradient>
</defs>
</svg>
