<svg width="18" height="18" viewBox="0 0 18 18" fill="none" xmlns="http://www.w3.org/2000/svg">
<path d="M16.08 1.03003H0.6C0.268629 1.03003 0 1.29866 0 1.63003V12.3C0 12.6314 0.268629 12.9 0.6 12.9H16.08C16.4114 12.9 16.68 12.6314 16.68 12.3V1.63003C16.68 1.29866 16.4114 1.03003 16.08 1.03003Z" fill="#0078D4"/>
<path opacity="0.9" d="M15.4102 1.86011H1.27021C1.10453 1.86011 0.970215 1.99442 0.970215 2.16011V11.6601C0.970215 11.8258 1.10453 11.9601 1.27021 11.9601H15.4102C15.5759 11.9601 15.7102 11.8258 15.7102 11.6601V2.16011C15.7102 1.99442 15.5759 1.86011 15.4102 1.86011Z" fill="url(#paint0_linear_933_2354)"/>
<path d="M17.6998 4.12012H10.5998C10.4341 4.12012 10.2998 4.25443 10.2998 4.42012V16.6701C10.2998 16.8358 10.4341 16.9701 10.5998 16.9701H17.6998C17.8655 16.9701 17.9998 16.8358 17.9998 16.6701V4.42012C17.9998 4.25443 17.8655 4.12012 17.6998 4.12012Z" fill="url(#paint1_linear_933_2354)"/>
<path d="M14.93 4.55005H13.38C13.3193 4.55005 13.27 4.5993 13.27 4.66005V4.68005C13.27 4.7408 13.3193 4.79005 13.38 4.79005H14.93C14.9908 4.79005 15.04 4.7408 15.04 4.68005V4.66005C15.04 4.5993 14.9908 4.55005 14.93 4.55005Z" fill="#F2F2F2"/>
<path d="M9.13998 1.40015H7.58998C7.52923 1.40015 7.47998 1.4494 7.47998 1.51015V1.53015C7.47998 1.5909 7.52923 1.64015 7.58998 1.64015H9.13998C9.20073 1.64015 9.24998 1.5909 9.24998 1.53015V1.51015C9.24998 1.4494 9.20073 1.40015 9.13998 1.40015Z" fill="#F2F2F2"/>
<path d="M14.3802 15.96H13.9202C13.8098 15.96 13.7202 16.0495 13.7202 16.16V16.49C13.7202 16.6004 13.8098 16.69 13.9202 16.69H14.3802C14.4907 16.69 14.5802 16.6004 14.5802 16.49V16.16C14.5802 16.0495 14.4907 15.96 14.3802 15.96Z" fill="#F2F2F2"/>
<defs>
<linearGradient id="paint0_linear_933_2354" x1="8.34021" y1="11.9601" x2="8.34021" y2="1.86011" gradientUnits="userSpaceOnUse">
<stop stop-color="#D2EBFF"/>
<stop offset="1" stop-color="#F0FFFD"/>
</linearGradient>
<linearGradient id="paint1_linear_933_2354" x1="14.1498" y1="20.4101" x2="14.1498" y2="2.34012" gradientUnits="userSpaceOnUse">
<stop stop-color="#0078D4"/>
<stop offset="0.17" stop-color="#1C84DC"/>
<stop offset="0.38" stop-color="#3990E4"/>
<stop offset="0.59" stop-color="#4D99EA"/>
<stop offset="0.8" stop-color="#5A9EEE"/>
<stop offset="1" stop-color="#5EA0EF"/>
</linearGradient>
</defs>
</svg>
