<svg width="18" height="15" viewBox="0 0 18 15" fill="none" xmlns="http://www.w3.org/2000/svg">
<path d="M2.67097 0C2.24594 0 1.83832 0.17415 1.53777 0.484139C1.23723 0.794127 1.06839 1.21456 1.06839 1.65295V8.26477C1.06839 8.70316 1.23723 9.12359 1.53777 9.43358C1.83832 9.74357 2.24594 9.91772 2.67097 9.91772H7.50222C7.58931 8.93098 7.90962 7.98132 8.43509 7.15188C8.96056 6.32244 9.67517 5.63853 10.5163 5.16002C11.3575 4.68152 12.2996 4.42302 13.2601 4.40716C14.2206 4.3913 15.1702 4.61857 16.0258 5.06906V1.65295C16.0258 1.21456 15.857 0.794127 15.5564 0.484139C15.2559 0.17415 14.8483 0 14.4232 0H2.67097ZM0.534194 11.0197H7.50222C7.53569 11.3988 7.60158 11.7661 7.69987 12.1217H0.534194C0.392517 12.1217 0.256643 12.0636 0.156462 11.9603C0.0562811 11.8569 0 11.7168 0 11.5707C0 11.4245 0.0562811 11.2844 0.156462 11.1811C0.256643 11.0777 0.392517 11.0197 0.534194 11.0197ZM10.7533 7.09888C10.8303 7.38168 10.8516 7.67749 10.8161 7.96893C10.7807 8.26036 10.6891 8.54154 10.5467 8.79595C10.4044 9.05035 10.2142 9.27284 9.98731 9.45034C9.76042 9.62784 9.50142 9.75678 9.22553 9.82956L8.73193 9.95959C8.69626 10.3321 8.69984 10.7075 8.74262 11.0792L9.11655 11.1707C9.39981 11.2397 9.6664 11.3678 9.89996 11.547C10.1335 11.7261 10.3291 11.9526 10.4748 12.2125C10.6205 12.4725 10.7131 12.7603 10.747 13.0585C10.781 13.3567 10.7555 13.6589 10.6721 13.9465L10.5364 14.4127C10.8128 14.6375 11.1102 14.8274 11.4285 14.9824L11.7758 14.6033C11.9757 14.385 12.2167 14.2111 12.4841 14.0923C12.7515 13.9735 13.0396 13.9124 13.3307 13.9126C13.6219 13.9128 13.9099 13.9744 14.1771 14.0935C14.4444 14.2127 14.6852 14.3869 14.8848 14.6055L15.2448 15C15.5582 14.8509 15.851 14.6679 16.123 14.4512L15.9564 13.8385C15.8794 13.5557 15.8581 13.2599 15.8935 12.9685C15.929 12.677 16.0206 12.3959 16.163 12.1415C16.3053 11.8871 16.4955 11.6646 16.7224 11.4871C16.9493 11.3096 17.2083 11.1806 17.4842 11.1078L17.9756 10.9778C18.0114 10.6049 18.0078 10.2292 17.9649 9.85711L17.5931 9.76675C17.3098 9.69768 17.0431 9.56959 16.8094 9.39036C16.5758 9.21112 16.3801 8.98453 16.2344 8.72447C16.0887 8.46442 15.9961 8.1764 15.9623 7.8781C15.9284 7.5798 15.9541 7.27751 16.0376 6.98979L16.1722 6.52586C15.897 6.30067 15.5977 6.10877 15.2801 5.95394L14.9329 6.33301C14.733 6.5514 14.492 6.72537 14.2247 6.84424C13.9573 6.9631 13.6693 7.02437 13.3781 7.02426C13.087 7.02416 12.7989 6.96269 12.5317 6.84364C12.2644 6.72458 12.0235 6.55044 11.8238 6.33191L11.4638 5.93741C11.1525 6.08564 10.8583 6.26934 10.5867 6.48509L10.7533 7.09888ZM13.3538 11.5707C13.0704 11.5707 12.7987 11.4546 12.5983 11.2479C12.398 11.0413 12.2854 10.761 12.2854 10.4687C12.2854 10.1764 12.398 9.89615 12.5983 9.68949C12.7987 9.48284 13.0704 9.36674 13.3538 9.36674C13.6371 9.36674 13.9089 9.48284 14.1092 9.68949C14.3096 9.89615 14.4222 10.1764 14.4222 10.4687C14.4222 10.761 14.3096 11.0413 14.1092 11.2479C13.9089 11.4546 13.6371 11.5707 13.3538 11.5707Z" fill="url(#paint0_linear_937_735)"/>
<defs>
<linearGradient id="paint0_linear_937_735" x1="9" y1="1.29221e-07" x2="9.08271" y2="14.9995" gradientUnits="userSpaceOnUse">
<stop stop-color="#4DA9FF"/>
<stop offset="1" stop-color="#0052B3"/>
</linearGradient>
</defs>
</svg>
