<svg width="18" height="18" viewBox="0 0 18 18" fill="none" xmlns="http://www.w3.org/2000/svg">
<g opacity="0.8">
<path d="M0 9C0 4.02943 4.02943 0 9 0C13.9705 0 18 4.02943 18 9C18 13.9705 13.9705 18 9 18C4.02943 18 0 13.9705 0 9ZM13.95 5.625C13.95 5.25221 13.6478 4.95 13.275 4.95C12.9022 4.95 12.6 5.25221 12.6 5.625V6.29958C11.779 5.20681 10.472 4.5 9 4.5C7.62597 4.5 6.39533 5.11662 5.57095 6.08583C5.32942 6.36979 5.36382 6.79579 5.64779 7.03732C5.93176 7.27884 6.35775 7.24446 6.59929 6.96049C7.17812 6.27996 8.03853 5.85 9 5.85C10.2566 5.85 11.3413 6.58578 11.8469 7.65H10.575C10.2022 7.65 9.9 7.95222 9.9 8.325C9.9 8.69778 10.2022 9 10.575 9H13.275C13.6478 9 13.95 8.69778 13.95 8.325V5.625ZM4.725 13.05C5.09779 13.05 5.4 12.7478 5.4 12.375V11.7004C6.22101 12.7932 7.52796 13.5 9 13.5C10.3734 13.5 11.6036 12.8839 12.428 11.9154C12.6696 11.6315 12.6354 11.2055 12.3515 10.9639C12.0676 10.7222 11.6416 10.7565 11.3999 11.0404C10.8211 11.7204 9.96111 12.15 9 12.15C7.74342 12.15 6.65869 11.4142 6.15312 10.35H7.425C7.79778 10.35 8.1 10.0478 8.1 9.675C8.1 9.30222 7.79778 9 7.425 9H4.725C4.35221 9 4.05 9.30222 4.05 9.675V12.375C4.05 12.7478 4.35221 13.05 4.725 13.05Z" fill="#212121"/>
<path d="M0 9C0 4.02943 4.02943 0 9 0C13.9705 0 18 4.02943 18 9C18 13.9705 13.9705 18 9 18C4.02943 18 0 13.9705 0 9ZM13.95 5.625C13.95 5.25221 13.6478 4.95 13.275 4.95C12.9022 4.95 12.6 5.25221 12.6 5.625V6.29958C11.779 5.20681 10.472 4.5 9 4.5C7.62597 4.5 6.39533 5.11662 5.57095 6.08583C5.32942 6.36979 5.36382 6.79579 5.64779 7.03732C5.93176 7.27884 6.35775 7.24446 6.59929 6.96049C7.17812 6.27996 8.03853 5.85 9 5.85C10.2566 5.85 11.3413 6.58578 11.8469 7.65H10.575C10.2022 7.65 9.9 7.95222 9.9 8.325C9.9 8.69778 10.2022 9 10.575 9H13.275C13.6478 9 13.95 8.69778 13.95 8.325V5.625ZM4.725 13.05C5.09779 13.05 5.4 12.7478 5.4 12.375V11.7004C6.22101 12.7932 7.52796 13.5 9 13.5C10.3734 13.5 11.6036 12.8839 12.428 11.9154C12.6696 11.6315 12.6354 11.2055 12.3515 10.9639C12.0676 10.7222 11.6416 10.7565 11.3999 11.0404C10.8211 11.7204 9.96111 12.15 9 12.15C7.74342 12.15 6.65869 11.4142 6.15312 10.35H7.425C7.79778 10.35 8.1 10.0478 8.1 9.675C8.1 9.30222 7.79778 9 7.425 9H4.725C4.35221 9 4.05 9.30222 4.05 9.675V12.375C4.05 12.7478 4.35221 13.05 4.725 13.05Z" fill="url(#paint0_linear_952_699)"/>
</g>
<defs>
<linearGradient id="paint0_linear_952_699" x1="7.71236" y1="2.48264" x2="43.1125" y2="18.5252" gradientUnits="userSpaceOnUse">
<stop offset="0.0001" stop-color="#FBBE52"/>
<stop offset="0.283642" stop-color="#FD7853"/>
<stop offset="0.668279" stop-color="#F4364C"/>
<stop offset="0.923101" stop-color="#C73ECC"/>
</linearGradient>
</defs>
</svg>
