<svg width="18" height="15" viewBox="0 0 18 15" fill="none" xmlns="http://www.w3.org/2000/svg">
<path d="M1.72956 1.91509C1.72956 0.857415 2.60071 0 3.67532 0H13.6203C14.6949 0 15.5661 0.857415 15.5661 1.91509V5.53095C14.9005 5.25773 14.1702 5.1069 13.4041 5.1069C10.4452 5.1069 8.02025 7.35718 7.79938 10.2138H3.67532C2.60071 10.2138 1.72956 9.35636 1.72956 8.29872V1.91509ZM8.21387 12.7673C8.04282 12.3636 7.91898 11.9359 7.8491 11.4905H0.648586C0.290385 11.4905 0 11.7764 0 12.1289C0 12.4814 0.290385 12.7673 0.648586 12.7673H8.21387ZM10.6171 7.63959C10.8893 8.5676 10.3234 9.53229 9.37078 9.76423L8.86557 9.88731C8.82674 10.1322 8.80659 10.3834 8.80659 10.6395C8.80659 10.9072 8.82864 11.1698 8.8711 11.4254L9.33757 11.536C10.2997 11.764 10.8716 12.7386 10.5915 13.6728L10.4304 14.21C10.8102 14.5383 11.2429 14.8048 11.7139 14.9945L12.1405 14.553C12.8224 13.8471 13.9659 13.8473 14.6476 14.5534L15.0789 15C15.5489 14.8126 15.9813 14.5486 16.3612 14.223L16.1899 13.6392C15.9177 12.7113 16.4836 11.7465 17.4362 11.5145L17.941 11.3916C17.9798 11.1468 18 10.8955 18 10.6395C18 10.3715 17.9779 10.1089 17.9355 9.85326L17.4694 9.74278C16.5073 9.51476 15.9354 8.54019 16.2155 7.60605L16.3765 7.06906C15.9967 6.74077 15.5639 6.47419 15.0929 6.28447L14.6665 6.72588C13.9846 7.43165 12.8411 7.43148 12.1594 6.72545L11.7281 6.27868C11.2581 6.46611 10.8257 6.73013 10.4458 7.05553L10.6171 7.63959ZM13.4033 11.9162C12.7109 11.9162 12.1497 11.3446 12.1497 10.6395C12.1497 9.93429 12.7109 9.36274 13.4033 9.36274C14.0957 9.36274 14.6569 9.93429 14.6569 10.6395C14.6569 11.3446 14.0957 11.9162 13.4033 11.9162Z" fill="url(#paint0_linear_956_757)"/>
<defs>
<linearGradient id="paint0_linear_956_757" x1="7.71236" y1="2.06887" x2="40.6438" y2="19.9774" gradientUnits="userSpaceOnUse">
<stop offset="0.0001" stop-color="#FBBE52"/>
<stop offset="0.283642" stop-color="#FD7853"/>
<stop offset="0.668279" stop-color="#F4364C"/>
<stop offset="0.923101" stop-color="#C73ECC"/>
</linearGradient>
</defs>
</svg>
