<svg width="17" height="18" viewBox="0 0 17 18" fill="none" xmlns="http://www.w3.org/2000/svg">
<path d="M3.1875 4.23529C3.1875 1.89621 5.09029 0 7.4375 0C9.78471 0 11.6875 1.89621 11.6875 4.23529C11.6875 5.50796 11.1242 6.64951 10.2326 7.42589C10.1929 7.45809 10.1537 7.49101 10.1149 7.52466C9.38409 8.11613 8.45233 8.47059 7.4375 8.47059C5.09029 8.47059 3.1875 6.57438 3.1875 4.23529ZM8.74029 9.52942L2.13427 9.52941C0.959598 9.52941 0 10.4685 0 11.6471C0 13.4377 0.884861 14.7879 2.26843 15.667C3.1305 16.2147 4.18252 16.5795 5.33833 16.7736C5.22647 15.9768 5.47798 15.139 6.09286 14.5263L8.55499 12.0727C8.38673 11.2287 8.44827 10.3475 8.74029 9.52942ZM13.6973 7.4369C14.0869 7.48212 14.1983 7.94628 13.921 8.22267L12.8849 9.25515C12.2594 9.87853 12.2594 10.8892 12.8849 11.5126C13.5105 12.136 14.5247 12.136 15.1502 11.5126L16.1863 10.4801C16.4636 10.2037 16.9294 10.3148 16.9748 10.7031C17.1024 11.795 16.7459 12.9324 15.9053 13.77C14.851 14.8207 13.3237 15.1124 12.0066 14.6453L9.10944 17.5325C8.4839 18.1558 7.4697 18.1558 6.84416 17.5325C6.21862 16.9091 6.21862 15.8984 6.84416 15.275L9.74133 12.3879C9.27261 11.0754 9.56538 9.55329 10.6196 8.50267C11.4602 7.665 12.6016 7.30975 13.6973 7.4369Z" fill="url(#paint0_linear_1148_16133)"/>
<defs>
<linearGradient id="paint0_linear_1148_16133" x1="15.7498" y1="30.3258" x2="-6.14355" y2="4.05599" gradientUnits="userSpaceOnUse">
<stop stop-color="#0078D4"/>
<stop offset="0.897238" stop-color="#C73ECC"/>
</linearGradient>
</defs>
</svg>
