<svg width="18" height="18" viewBox="0 0 18 18" fill="none" xmlns="http://www.w3.org/2000/svg">
<path d="M9 18C13.9706 18 18 13.9706 18 9C18 4.02944 13.9706 0 9 0C4.02944 0 0 4.02944 0 9C0 13.9706 4.02944 18 9 18ZM14.1429 5.78571V8.35714C14.1429 8.71218 13.855 9 13.5 9H10.9286C10.5735 9 10.2857 8.71218 10.2857 8.35714C10.2857 8.0021 10.5735 7.71429 10.9286 7.71429H11.9468C11.4508 6.57906 10.3181 5.78571 9 5.78571C8.0481 5.78571 7.1935 6.19869 6.60402 6.8573C6.36724 7.12185 5.96083 7.14437 5.69628 6.90759C5.43173 6.6708 5.40921 6.26439 5.64599 5.99984C6.46905 5.08024 7.66719 4.5 9 4.5C10.6369 4.5 12.0697 5.37402 12.8571 6.68083V5.78571C12.8571 5.43067 13.145 5.14286 13.5 5.14286C13.855 5.14286 14.1429 5.43067 14.1429 5.78571ZM4.5 12.8571C4.14496 12.8571 3.85714 12.5693 3.85714 12.2143V9.64286C3.85714 9.28782 4.14496 9 4.5 9H7.07143C7.42647 9 7.71429 9.28782 7.71429 9.64286C7.71429 9.9979 7.42647 10.2857 7.07143 10.2857H6.05317C6.54917 11.4209 7.68194 12.2143 9 12.2143C9.95191 12.2143 10.8065 11.8013 11.396 11.1427C11.6328 10.8781 12.0392 10.8556 12.3037 11.0924C12.5683 11.3292 12.5908 11.7356 12.354 12.0002C11.531 12.9198 10.3328 13.5 9 13.5C7.36308 13.5 5.93029 12.626 5.14286 11.3192V12.2143C5.14286 12.5693 4.85504 12.8571 4.5 12.8571Z" fill="url(#paint0_linear_1158_11973)"/>
<defs>
<linearGradient id="paint0_linear_1158_11973" x1="2.65255e-07" y1="0.725806" x2="18" y2="18" gradientUnits="userSpaceOnUse">
<stop stop-color="#FF5C39"/>
<stop offset="0.5" stop-color="#F4364C"/>
<stop offset="1" stop-color="#C73ECC"/>
</linearGradient>
</defs>
</svg>
