<svg width="18" height="17" viewBox="0 0 18 17" fill="none" xmlns="http://www.w3.org/2000/svg">
<path d="M1.38472 2.12499C1.38472 1.56141 1.60356 1.02091 1.99309 0.622396C2.38261 0.223883 2.91093 0 3.4618 0H13.1549C13.7057 0 14.2341 0.223883 14.6236 0.622396C15.0131 1.02091 15.2319 1.56141 15.2319 2.12499V4.11824C14.9735 3.91184 14.7318 3.68443 14.5091 3.43824C14.3369 3.24893 14.1286 3.09762 13.8972 2.99359C13.6657 2.88957 13.416 2.83503 13.1632 2.83332H13.1493C12.8965 2.83503 12.6467 2.88957 12.4153 2.99359C12.1838 3.09762 11.9756 3.24893 11.8034 3.43824C10.8091 4.52907 9.82322 4.95832 8.79575 4.95832C7.67413 4.95832 6.92638 5.92448 6.92638 6.90623V9.91663H3.4618C2.91093 9.91663 2.38261 9.69275 1.99309 9.29424C1.60356 8.89573 1.38472 8.35522 1.38472 7.79164V2.12499ZM7.25179 12.75C7.12951 12.2853 7.04247 11.8117 6.99146 11.3333H0.692361C0.508735 11.3333 0.332631 11.4079 0.202788 11.5408C0.0729451 11.6736 0 11.8538 0 12.0416C0 12.2295 0.0729451 12.4097 0.202788 12.5425C0.332631 12.6753 0.508735 12.75 0.692361 12.75H7.25179ZM13.1562 16.9999C13.1042 17.0003 13.0525 16.9907 13.0039 16.9716C12.0457 16.6222 11.2329 16.1599 10.5654 15.5847L10.564 15.5833C10.09 15.1788 9.68029 14.7013 9.34964 14.168L9.34687 14.1666C8.70621 13.1343 8.36234 11.89 8.31526 10.4337L8.30972 10.0937V6.90623C8.30972 6.61298 8.52712 6.37498 8.79437 6.37498C10.276 6.37498 11.6095 5.72615 12.8142 4.40582C12.8576 4.35747 12.9102 4.3187 12.9688 4.2919C13.0274 4.26511 13.0907 4.25084 13.1549 4.24999C13.2781 4.24999 13.4013 4.3024 13.4955 4.40582C14.7002 5.72615 16.0323 6.37498 17.5153 6.37498C17.7826 6.37498 18 6.61298 18 6.90623V10.0937L17.9945 10.4337C17.9483 11.89 17.6044 13.1343 16.9628 14.1666V14.168C16.6342 14.6969 16.2289 15.1687 15.7471 15.5833V15.5847C15.0787 16.1608 14.2654 16.6236 13.3072 16.973C13.2585 16.9917 13.2068 17.0008 13.1549 16.9999" fill="url(#paint0_linear_937_727)"/>
<path d="M1.38472 2.12499C1.38472 1.56141 1.60356 1.02091 1.99309 0.622396C2.38261 0.223883 2.91093 0 3.4618 0H13.1549C13.7057 0 14.2341 0.223883 14.6236 0.622396C15.0131 1.02091 15.2319 1.56141 15.2319 2.12499V4.11824C14.9735 3.91184 14.7318 3.68443 14.5091 3.43824C14.3369 3.24893 14.1286 3.09762 13.8972 2.99359C13.6657 2.88957 13.416 2.83503 13.1632 2.83332H13.1493C12.8965 2.83503 12.6467 2.88957 12.4153 2.99359C12.1838 3.09762 11.9756 3.24893 11.8034 3.43824C10.8091 4.52907 9.82322 4.95832 8.79575 4.95832C7.67413 4.95832 6.92638 5.92448 6.92638 6.90623V9.91663H3.4618C2.91093 9.91663 2.38261 9.69275 1.99309 9.29424C1.60356 8.89573 1.38472 8.35522 1.38472 7.79164V2.12499ZM7.25179 12.75C7.12951 12.2853 7.04247 11.8117 6.99146 11.3333H0.692361C0.508735 11.3333 0.332631 11.4079 0.202788 11.5408C0.0729451 11.6736 0 11.8538 0 12.0416C0 12.2295 0.0729451 12.4097 0.202788 12.5425C0.332631 12.6753 0.508735 12.75 0.692361 12.75H7.25179ZM13.1562 16.9999C13.1042 17.0003 13.0525 16.9907 13.0039 16.9716C12.0457 16.6222 11.2329 16.1599 10.5654 15.5847L10.564 15.5833C10.09 15.1788 9.68029 14.7013 9.34964 14.168L9.34687 14.1666C8.70621 13.1343 8.36234 11.89 8.31526 10.4337L8.30972 10.0937V6.90623C8.30972 6.61298 8.52712 6.37498 8.79437 6.37498C10.276 6.37498 11.6095 5.72615 12.8142 4.40582C12.8576 4.35747 12.9102 4.3187 12.9688 4.2919C13.0274 4.26511 13.0907 4.25084 13.1549 4.24999C13.2781 4.24999 13.4013 4.3024 13.4955 4.40582C14.7002 5.72615 16.0323 6.37498 17.5153 6.37498C17.7826 6.37498 18 6.61298 18 6.90623V10.0937L17.9945 10.4337C17.9483 11.89 17.6044 13.1343 16.9628 14.1666V14.168C16.6342 14.6969 16.2289 15.1687 15.7471 15.5833V15.5847C15.0787 16.1608 14.2654 16.6236 13.3072 16.973C13.2585 16.9917 13.2068 17.0008 13.1549 16.9999" fill="url(#paint1_linear_937_727)"/>
<defs>
<linearGradient id="paint0_linear_937_727" x1="0.84041" y1="0.440856" x2="21.4834" y2="13.8117" gradientUnits="userSpaceOnUse">
<stop stop-color="#FF5C39"/>
<stop offset="0.174757" stop-color="#F4364C"/>
<stop offset="0.525405" stop-color="#C73ECC"/>
<stop offset="0.957171" stop-color="#0078D4"/>
</linearGradient>
<linearGradient id="paint1_linear_937_727" x1="7.73029" y1="-2.95485" x2="22.924" y2="18.9985" gradientUnits="userSpaceOnUse">
<stop offset="0.0001" stop-color="#FBBE52"/>
<stop offset="0.283642" stop-color="#FD7853"/>
<stop offset="0.668279" stop-color="#F4364C"/>
<stop offset="0.923101" stop-color="#C73ECC"/>
</linearGradient>
</defs>
</svg>
