<svg width="18" height="14" viewBox="0 0 18 14" fill="none" xmlns="http://www.w3.org/2000/svg">
<path d="M2.64706 0C1.7699 0 1.05882 0.723229 1.05882 1.61538V8.07692C1.05882 8.96905 1.7699 9.69231 2.64706 9.69231H9.58151C9.55821 9.47972 9.54307 9.26315 9.53608 9.04303L9.53576 9.0342L9.53153 8.75958V6.32692C9.53153 5.58029 10.1038 4.84614 10.9609 4.84614C11.7475 4.84614 12.5002 4.51964 13.2608 3.69095C13.532 3.39567 13.9044 3.2326 14.2902 3.23077H14.3C14.686 3.2326 15.0584 3.39567 15.3294 3.69095C15.514 3.89202 15.6981 4.06352 15.8824 4.20797V1.61538C15.8824 0.723229 15.1712 0 14.2941 0H2.64706ZM0.529412 10.7692H9.78035C9.8802 11.1443 10.0109 11.5039 10.1737 11.8462H0.529412C0.237028 11.8462 0 11.605 0 11.3077C0 11.0104 0.237028 10.7692 0.529412 10.7692ZM14.2952 14C14.2559 13.9999 14.2167 13.993 14.179 13.9793C13.4465 13.7132 12.8243 13.3608 12.314 12.9243L12.3125 12.9231C11.9446 12.6081 11.6349 12.2491 11.384 11.8473L11.3833 11.8462C10.8942 11.0618 10.6295 10.1139 10.5944 9.00814L10.5904 8.75097V6.32692C10.5904 6.10389 10.7563 5.92308 10.9609 5.92308C12.0943 5.92308 13.1134 5.42963 14.0348 4.42592C14.1067 4.34755 14.2008 4.30814 14.2952 4.30769C14.3894 4.30814 14.4835 4.34755 14.5555 4.42592C15.4769 5.42963 16.4959 5.92308 17.6294 5.92308C17.8341 5.92308 18 6.10389 18 6.32692V8.75097L17.996 9.00814C17.9607 10.1139 17.6961 11.0618 17.2069 11.8462L17.2062 11.8473C16.9555 12.2491 16.6458 12.6081 16.2777 12.9231L16.2763 12.9243C15.766 13.3608 15.1437 13.7132 14.4113 13.9793C14.3736 13.993 14.3344 13.9999 14.2952 14Z" fill="url(#paint0_linear_956_745)"/>
<defs>
<linearGradient id="paint0_linear_956_745" x1="7.73029" y1="-2.43341" x2="19.2335" y2="17.7493" gradientUnits="userSpaceOnUse">
<stop offset="0.0001" stop-color="#FBBE52"/>
<stop offset="0.283642" stop-color="#FD7853"/>
<stop offset="0.668279" stop-color="#F4364C"/>
<stop offset="0.923101" stop-color="#C73ECC"/>
</linearGradient>
</defs>
</svg>
