<svg width="18" height="18" viewBox="0 0 18 18" fill="none" xmlns="http://www.w3.org/2000/svg">
<path d="M6.49524 10.0333L0.774066 15.6255C0.346561 16.0433 0.346561 16.7208 0.774065 17.1387L0.88132 17.2435C1.30882 17.6614 2.00195 17.6614 2.42945 17.2435L8.15062 11.6514C8.57813 11.2335 8.57813 10.556 8.15062 10.1381L8.04337 10.0333C7.61586 9.61544 6.92274 9.61544 6.49524 10.0333Z" fill="#198AB3"/>
<path d="M10.9477 13.7863C14.8424 13.7863 17.9998 10.7001 17.9998 6.89313C17.9998 3.08616 14.8424 0 10.9477 0C7.05286 0 3.89551 3.08616 3.89551 6.89313C3.89551 10.7001 7.05286 13.7863 10.9477 13.7863Z" fill="url(#paint0_radial_949_719)"/>
<path d="M10.9329 12.1846C13.9922 12.1846 16.4722 9.76044 16.4722 6.77014C16.4722 3.77983 13.9922 1.35571 10.9329 1.35571C7.8736 1.35571 5.39355 3.77983 5.39355 6.77014C5.39355 9.76044 7.8736 12.1846 10.9329 12.1846Z" fill="white"/>
<path d="M5.56526 8.10966C5.56526 8.10966 7.08207 0.692748 14.1671 2.37531C13.2202 1.6886 12.0702 1.32192 10.8912 1.33072C9.71211 1.33952 8.56802 1.72332 7.63191 2.42408C6.73541 3.0527 6.05704 3.93429 5.68782 4.95056C5.31859 5.96682 5.27518 7.06916 5.56526 8.10966Z" fill="#C3F1FF"/>
<path d="M10.9528 8.44379C12.9749 8.44379 14.6141 8.06648 14.6141 7.60104C14.6141 7.13561 12.9749 6.7583 10.9528 6.7583C8.93072 6.7583 7.2915 7.13561 7.2915 7.60104C7.2915 8.06648 8.93072 8.44379 10.9528 8.44379Z" fill="#32BEDD"/>
<path d="M14.6151 9.25925V7.60107C14.6151 8.06634 12.9755 8.44382 10.9538 8.44382C8.93205 8.44382 7.2915 8.06634 7.2915 7.60107V9.29826C7.2915 9.76353 8.93105 10.141 10.9528 10.141C12.9326 10.141 14.5442 9.77913 14.6121 9.32753V9.26022H14.6151V9.25925Z" fill="#0078D4"/>
<path d="M10.9421 5.44675C8.94226 5.44675 7.31768 5.07707 7.28376 4.61961H7.28076V6.30119C7.28076 6.76743 8.92031 7.14394 10.9421 7.14394C12.9219 7.14394 14.5335 6.78206 14.6003 6.33046V4.60498C14.6033 5.07024 12.9638 5.44675 10.9421 5.44675Z" fill="#5EA0EF"/>
<path d="M10.942 5.44672C12.9641 5.44672 14.6033 5.06941 14.6033 4.60397C14.6033 4.13854 12.9641 3.76123 10.942 3.76123C8.91998 3.76123 7.28076 4.13854 7.28076 4.60397C7.28076 5.06941 8.91998 5.44672 10.942 5.44672Z" fill="#9CEBFF"/>
<defs>
<radialGradient id="paint0_radial_949_719" cx="0" cy="0" r="1" gradientUnits="userSpaceOnUse" gradientTransform="translate(10.9477 6.89313) scale(7.05215 6.89313)">
<stop offset="0.225" stop-color="#32D4F5"/>
<stop offset="0.59" stop-color="#32D2F2"/>
<stop offset="0.825" stop-color="#32CAEA"/>
<stop offset="1" stop-color="#32BEDD"/>
</radialGradient>
</defs>
</svg>
