<svg width="17" height="16" viewBox="0 0 17 16" fill="none" xmlns="http://www.w3.org/2000/svg">
<path d="M12 0.5C12 0.324682 12.0301 0.156389 12.0854 0H1.5C0.671573 0 0 0.671573 0 1.5V11.5C0 12.3284 0.671573 13 1.5 13H5V15H3.5C3.22386 15 3 15.2239 3 15.5C3 15.7761 3.22386 16 3.5 16H12.5C12.7761 16 13 15.7761 13 15.5C13 15.2239 12.7761 15 12.5 15H11V13H14.5C15.3284 13 16 12.3284 16 11.5V5H13.5C13.0684 5 12.6795 4.81775 12.4058 4.52603L12.1509 5.29057C11.8341 6.24102 10.9842 6.90344 10 6.99029V7.5C10 8.32843 9.32843 9 8.5 9H5.5C4.67157 9 4 8.32843 4 7.5V4.5C4 3.67157 4.67157 3 5.5 3H8.5C8.93155 3 9.32054 3.18225 9.5942 3.47397L9.84905 2.70943C10.1659 1.75898 11.0158 1.09656 12 1.00971V0.5ZM10 13V15H6V13H10ZM13.5 0C13.2239 0 13 0.223858 13 0.5V2H12.2208C11.5751 2 11.0019 2.41315 10.7977 3.02566L10.2536 4.65811C10.1855 4.86228 9.99446 5 9.77924 5H9V4.5C9 4.22386 8.77614 4 8.5 4H5.5C5.22386 4 5 4.22386 5 4.5V7.5C5 7.77614 5.22386 8 5.5 8H8.5C8.77614 8 9 7.77614 9 7.5V6H9.77924C10.4249 6 10.9981 5.58685 11.2023 4.97434L11.7464 3.34189C11.8145 3.13772 12.0055 3 12.2208 3H13V3.5C13 3.77614 13.2239 4 13.5 4H16.5C16.7761 4 17 3.77614 17 3.5V0.5C17 0.223858 16.7761 0 16.5 0H13.5Z" fill="url(#paint0_linear_1152_11755)"/>
<defs>
<linearGradient id="paint0_linear_1152_11755" x1="5.67545" y1="-5.2415" x2="20.4627" y2="18.9072" gradientUnits="userSpaceOnUse">
<stop offset="0.0001" stop-color="#FBBE52"/>
<stop offset="0.283642" stop-color="#FD7853"/>
<stop offset="0.564282" stop-color="#F4364C"/>
<stop offset="0.923101" stop-color="#C73ECC"/>
</linearGradient>
</defs>
</svg>
