<svg width="18" height="15" viewBox="0 0 18 15" fill="none" xmlns="http://www.w3.org/2000/svg">
<path d="M1.72956 1.91508C1.72956 0.857412 2.60071 0 3.67532 0H13.6203C14.6949 0 15.5661 0.857413 15.5661 1.91508V5.5309C14.9005 5.25774 14.1702 5.10689 13.4041 5.10689C10.4452 5.10689 8.0202 7.35714 7.79941 10.2138H3.67532C2.60071 10.2138 1.72956 9.35637 1.72956 8.2987V1.91508ZM8.21383 12.7672C8.04283 12.3636 7.919 11.9358 7.84914 11.4905H0.648586C0.290382 11.4905 0 11.7763 0 12.1289C0 12.4814 0.290382 12.7672 0.648586 12.7672H8.21383ZM10.6171 7.63958C10.8893 8.56755 10.3234 9.53227 9.3708 9.76424L8.8656 9.88725C8.82676 10.1321 8.80658 10.3834 8.80658 10.6394C8.80658 10.9072 8.82866 11.1698 8.87108 11.4254L9.33759 11.536C10.2997 11.764 10.8716 12.7386 10.5915 13.6727L10.4304 14.21C10.8102 14.5383 11.243 14.8048 11.7139 14.9944L12.1405 14.5529C12.8224 13.8471 13.9659 13.8473 14.6475 14.5533L15.0788 15C15.5489 14.8125 15.9812 14.5485 16.3611 14.223L16.1899 13.6392C15.9177 12.7112 16.4836 11.7465 17.4362 11.5145L17.941 11.3916C17.9798 11.1467 18 10.8955 18 10.6394C18 10.3715 17.9779 10.1089 17.9355 9.85327L17.4694 9.7428C16.5073 9.51476 15.9354 8.54019 16.2155 7.60603L16.3765 7.06905C15.9967 6.74074 15.5639 6.47414 15.093 6.28448L14.6665 6.72584C13.9846 7.43165 12.8411 7.43146 12.1594 6.72542L11.7281 6.27867C11.258 6.4661 10.8257 6.73008 10.4458 7.05555L10.6171 7.63958ZM13.4033 11.9161C12.7109 11.9161 12.1496 11.3445 12.1496 10.6394C12.1496 9.93429 12.7109 9.36268 13.4033 9.36268C14.0957 9.36268 14.6569 9.93429 14.6569 10.6394C14.6569 11.3445 14.0957 11.9161 13.4033 11.9161Z" fill="url(#paint0_linear_1148_16145)"/>
<defs>
<linearGradient id="paint0_linear_1148_16145" x1="7.71236" y1="2.06887" x2="40.6437" y2="19.9774" gradientUnits="userSpaceOnUse">
<stop offset="0.0001" stop-color="#FBBE52"/>
<stop offset="0.283642" stop-color="#FD7853"/>
<stop offset="0.668279" stop-color="#F4364C"/>
<stop offset="0.923101" stop-color="#C73ECC"/>
</linearGradient>
</defs>
</svg>
