<svg width="18" height="14" viewBox="0 0 18 14" fill="none" xmlns="http://www.w3.org/2000/svg">
<path d="M13.8909 5.34458C14.1051 5.13695 14.4832 5.13694 14.6974 5.34458C15.2349 5.86594 16.2677 6.69516 17.5378 6.8653C17.791 6.89919 17.9997 7.09334 18 7.33644V9.61015C18 12.6666 15.0527 13.7767 14.4151 13.9809C14.3354 14.0064 14.2539 14.0063 14.1742 13.9809C13.5368 13.7767 10.5882 12.6668 10.5882 9.61015V7.33644C10.5885 7.09335 10.7973 6.89921 11.0504 6.8653C12.3203 6.69511 13.3532 5.86591 13.8909 5.34458ZM9.65349 10.7691C9.73845 11.1593 9.86331 11.5177 10.0185 11.846H0.529412C0.237026 11.846 0 11.6049 0 11.3075C0 11.0102 0.237026 10.7691 0.529412 10.7691H9.65349ZM13.7647 0C14.9343 0 15.8824 0.964297 15.8824 2.15382V4.96072C15.7916 4.88949 15.7052 4.81937 15.6259 4.74934L15.4284 4.5653L15.3064 4.45908C14.7203 3.99648 13.8679 3.99659 13.2818 4.45908L13.1598 4.5653C12.703 5.00823 11.946 5.59404 11.0856 5.76841L10.8002 5.81678C10.2375 5.93653 9.61792 6.39779 9.53768 7.16713L9.52941 7.33539V9.61015C9.52941 9.63763 9.53213 9.66495 9.53251 9.69218H3.17647C2.00693 9.69218 1.05882 8.72789 1.05882 7.53837V2.15382C1.05882 0.964298 2.00693 0 3.17647 0H13.7647Z" fill="url(#paint0_linear_1158_11979)"/>
<defs>
<linearGradient id="paint0_linear_1158_11979" x1="6.0093" y1="-4.58631" x2="17.7139" y2="18.5439" gradientUnits="userSpaceOnUse">
<stop offset="0.0001" stop-color="#FBBE52"/>
<stop offset="0.283642" stop-color="#FD7853"/>
<stop offset="0.564282" stop-color="#F4364C"/>
<stop offset="0.923101" stop-color="#C73ECC"/>
</linearGradient>
</defs>
</svg>
