<svg width="18" height="18" viewBox="0 0 18 18" fill="none" xmlns="http://www.w3.org/2000/svg">
<path d="M17.4 1.12988H0.6C0.268629 1.12988 0 1.39851 0 1.72988V13.3399C0 13.6713 0.268629 13.9399 0.6 13.9399H17.4C17.7314 13.9399 18 13.6713 18 13.3399V1.72988C18 1.39851 17.7314 1.12988 17.4 1.12988Z" fill="#0078D4"/>
<path opacity="0.9" d="M16.6298 2.03003H1.3798C1.19755 2.03003 1.0498 2.17778 1.0498 2.36003V12.6C1.0498 12.7823 1.19755 12.93 1.3798 12.93H16.6298C16.8121 12.93 16.9598 12.7823 16.9598 12.6V2.36003C16.9598 2.17778 16.8121 2.03003 16.6298 2.03003Z" fill="url(#paint0_linear_933_2283)"/>
<path d="M9.85982 1.53003H8.18982C8.12355 1.53003 8.06982 1.58376 8.06982 1.65003V1.67003C8.06982 1.7363 8.12355 1.79003 8.18982 1.79003H9.85982C9.9261 1.79003 9.97982 1.7363 9.97982 1.67003V1.65003C9.97982 1.58376 9.9261 1.53003 9.85982 1.53003Z" fill="#F2F2F2"/>
<path d="M12.8699 16.8699C15.2005 16.8699 17.0899 14.9806 17.0899 12.6499C17.0899 10.3193 15.2005 8.42993 12.8699 8.42993C10.5393 8.42993 8.6499 10.3193 8.6499 12.6499C8.6499 14.9806 10.5393 16.8699 12.8699 16.8699Z" fill="#76BC2D"/>
<path d="M10.3498 11.9999C10.2622 12.3256 10.2351 12.6645 10.2698 12.9999C10.321 13.3542 10.4435 13.6943 10.6298 13.9999C10.7583 14.2232 10.9202 14.4255 11.1098 14.5999C11.2939 14.7688 11.4989 14.9133 11.7198 15.0299C11.9503 15.1384 12.1916 15.2222 12.4398 15.2799C12.6919 15.3151 12.9477 15.3151 13.1998 15.2799L13.1298 14.5499C13.1298 14.5315 13.1262 14.5133 13.1191 14.4964C13.1121 14.4794 13.1018 14.4639 13.0888 14.4509C13.0758 14.4379 13.0603 14.4276 13.0433 14.4206C13.0264 14.4135 13.0082 14.4099 12.9898 14.4099H12.5998C12.4332 14.3739 12.2719 14.3168 12.1198 14.2399C11.9721 14.1742 11.8314 14.0938 11.6998 13.9999C11.5712 13.8857 11.463 13.7504 11.3798 13.5999C11.2531 13.3962 11.1713 13.1678 11.1398 12.9299C11.0947 12.6954 11.0947 12.4544 11.1398 12.2199L11.3898 12.6399C11.4104 12.6722 11.4426 12.6954 11.4798 12.7047C11.517 12.714 11.5564 12.7087 11.5898 12.6899L11.8998 12.5099C11.9321 12.4893 11.9553 12.4571 11.9646 12.4199C11.9739 12.3827 11.9686 12.3433 11.9498 12.3099L11.1098 10.8899C11.0873 10.8569 11.0533 10.8334 11.0145 10.8242C10.9756 10.8149 10.9347 10.8205 10.8998 10.8399L9.48977 11.6799C9.47647 11.693 9.4659 11.7085 9.45869 11.7257C9.45147 11.7429 9.44775 11.7613 9.44775 11.7799C9.44775 11.7986 9.45147 11.817 9.45869 11.8342C9.4659 11.8513 9.47647 11.8669 9.48977 11.8799L9.65977 12.1799C9.66917 12.1981 9.68218 12.2142 9.69801 12.2271C9.71384 12.2401 9.73215 12.2497 9.75182 12.2553C9.77149 12.2609 9.7921 12.2624 9.81238 12.2598C9.83267 12.2572 9.8522 12.2504 9.86977 12.2399L10.3498 11.9999Z" fill="white"/>
<path d="M13.3002 10.8801C13.4656 10.9202 13.6265 10.9771 13.7802 11.0501C13.9326 11.1315 14.0738 11.2324 14.2002 11.3501C14.3312 11.4646 14.4427 11.5997 14.5302 11.7501C14.651 11.9558 14.7292 12.1836 14.7602 12.4201C14.8051 12.6546 14.8051 12.8956 14.7602 13.1301L14.5102 12.7101C14.4912 12.6761 14.4597 12.6508 14.4224 12.6396C14.385 12.6284 14.3448 12.6322 14.3102 12.6501L14.0102 12.8301C13.9929 12.8404 13.9778 12.854 13.9658 12.8702C13.9539 12.8864 13.9453 12.9049 13.9406 12.9245C13.936 12.9441 13.9353 12.9644 13.9387 12.9843C13.942 13.0042 13.9494 13.0231 13.9602 13.0401L14.7902 14.4501C14.8111 14.4848 14.8444 14.5104 14.8834 14.5215C14.9224 14.5326 14.9641 14.5286 15.0002 14.5101L16.4102 13.6701C16.4284 13.6607 16.4445 13.6477 16.4574 13.6319C16.4704 13.616 16.48 13.5977 16.4856 13.5781C16.4912 13.5584 16.4927 13.5378 16.4901 13.5175C16.4875 13.4972 16.4807 13.4777 16.4702 13.4601L16.2902 13.1601C16.2678 13.1271 16.2338 13.1036 16.1949 13.0944C16.1561 13.0851 16.1152 13.0907 16.0802 13.1101L15.5902 13.4001C15.6918 13.0496 15.7191 12.6817 15.6702 12.3201C15.6164 11.968 15.4977 11.6289 15.3202 11.3201C15.1851 11.1044 15.0239 10.9063 14.8402 10.7301C14.4591 10.3604 13.9803 10.1072 13.4602 10.0001C13.2577 9.9749 13.0528 9.9749 12.8502 10.0001C12.8309 10.0013 12.812 10.0065 12.7948 10.0153C12.7775 10.0242 12.7623 10.0365 12.7501 10.0516C12.7379 10.0666 12.7289 10.084 12.7238 10.1027C12.7186 10.1214 12.7174 10.1409 12.7202 10.1601V10.7401C12.7248 10.7747 12.7413 10.8066 12.7668 10.8303C12.7924 10.854 12.8254 10.8681 12.8602 10.8701C13.0069 10.8608 13.1541 10.8641 13.3002 10.8801Z" fill="white"/>
<defs>
<linearGradient id="paint0_linear_933_2283" x1="8.9998" y1="15.84" x2="8.9998" y2="0.520029" gradientUnits="userSpaceOnUse">
<stop stop-color="#D2EBFF"/>
<stop offset="1" stop-color="#F0FFFD"/>
</linearGradient>
</defs>
</svg>
