<svg width="17" height="13" viewBox="0 0 17 13" fill="none" xmlns="http://www.w3.org/2000/svg">
<path d="M13.1191 4.96289C13.3214 4.77009 13.6786 4.77007 13.8809 4.96289C14.3885 5.44701 15.3639 6.21701 16.5635 6.375C16.8026 6.40648 16.9997 6.58676 17 6.8125V8.92383C17 11.762 14.2164 12.7928 13.6143 12.9824C13.539 13.0061 13.462 13.006 13.3867 12.9824C12.7847 12.7929 10 11.7622 10 8.92383V6.8125C10.0003 6.58676 10.1974 6.40649 10.4365 6.375C11.6359 6.21696 12.6114 5.44699 13.1191 4.96289ZM9.11719 10C9.19742 10.3624 9.31534 10.6951 9.46191 11H0.5C0.223858 11 0 10.7761 0 10.5C0 10.2239 0.223858 10 0.5 10H9.11719ZM13 0C14.1046 0 15 0.89543 15 2V4.60645C14.9143 4.5403 14.8327 4.47518 14.7578 4.41016L14.5713 4.23926L14.4561 4.14062C13.9025 3.71106 13.0974 3.71117 12.5439 4.14062L12.4287 4.23926C11.9973 4.65056 11.2823 5.19453 10.4697 5.35645L10.2002 5.40137C9.66875 5.51256 9.08359 5.94088 9.00781 6.65527L9 6.81152V8.92383C9 8.94934 9.00257 8.97471 9.00293 9H3C1.89543 9 1 8.10457 1 7V2C1 0.895431 1.89543 0 3 0H13Z" fill="url(#paint0_linear_1148_16141)"/>
<defs>
<linearGradient id="paint0_linear_1148_16141" x1="5.67545" y1="-4.25877" x2="16.4346" y2="17.3663" gradientUnits="userSpaceOnUse">
<stop offset="0.0001" stop-color="#FBBE52"/>
<stop offset="0.283642" stop-color="#FD7853"/>
<stop offset="0.564282" stop-color="#F4364C"/>
<stop offset="0.923101" stop-color="#C73ECC"/>
</linearGradient>
</defs>
</svg>
