<svg width="18" height="18" viewBox="0 0 18 18" fill="none" xmlns="http://www.w3.org/2000/svg">
<path d="M9 0C7.8181 -1.76116e-08 6.64778 0.232792 5.55585 0.685084C4.46392 1.13738 3.47177 1.80031 2.63604 2.63604C1.80031 3.47177 1.13738 4.46392 0.685084 5.55585C0.232792 6.64778 0 7.8181 0 9C0 10.1819 0.232792 11.3522 0.685084 12.4442C1.13738 13.5361 1.80031 14.5282 2.63604 15.364C3.47177 16.1997 4.46392 16.8626 5.55585 17.3149C6.64778 17.7672 7.8181 18 9 18C11.3869 18 13.6761 17.0518 15.364 15.364C17.0518 13.6761 18 11.3869 18 9C18 6.61305 17.0518 4.32387 15.364 2.63604C13.6761 0.948211 11.3869 3.55683e-08 9 0ZM5.25 9H7.5L7.635 9.012C7.81942 9.04539 7.98466 9.14662 8.09817 9.29575C8.21168 9.44489 8.26525 9.63112 8.24831 9.81777C8.23138 10.0044 8.14517 10.178 8.00668 10.3042C7.86818 10.4305 7.68742 10.5003 7.5 10.5H7.0005C7.21786 10.7894 7.49547 11.0282 7.81414 11.1999C8.13281 11.3715 8.48495 11.4719 8.84623 11.4942C9.2075 11.5164 9.5693 11.46 9.90663 11.3287C10.244 11.1975 10.5488 10.9946 10.8 10.734C10.938 10.5908 11.1273 10.5083 11.3262 10.5046C11.5251 10.501 11.7173 10.5765 11.8605 10.7145C12.0037 10.8525 12.0862 11.0418 12.0899 11.2407C12.0935 11.4396 12.018 11.6318 11.88 11.775C11.4968 12.1733 11.0352 12.4878 10.5243 12.6986C10.0133 12.9094 9.46427 13.012 8.91171 12.9999C8.35915 12.9878 7.81511 12.8612 7.31394 12.6282C6.81277 12.3951 6.36537 12.0607 6 11.646V12.0015L5.988 12.1365C5.95461 12.3209 5.85338 12.4862 5.70425 12.5997C5.55511 12.7132 5.36888 12.7667 5.18223 12.7498C4.99558 12.7329 4.82203 12.6467 4.69576 12.5082C4.56949 12.3697 4.49965 12.1889 4.5 12.0015V9.75L4.512 9.615C4.5436 9.44233 4.63476 9.28621 4.76961 9.17383C4.90446 9.06146 5.07446 8.99994 5.25 9ZM9 5.001C9.56762 5.00039 10.1288 5.1209 10.6462 5.35448C11.1635 5.58805 11.6251 5.92933 12 6.3555V6.0045L12.012 5.8695C12.0454 5.68508 12.1466 5.51984 12.2958 5.40633C12.4449 5.29282 12.6311 5.23925 12.8178 5.25619C13.0044 5.27312 13.178 5.35933 13.3042 5.49783C13.4305 5.63632 13.5003 5.81708 13.5 6.0045V8.25L13.488 8.385C13.4564 8.55767 13.3652 8.71379 13.2304 8.82617C13.0955 8.93854 12.9255 9.00006 12.75 9H10.506L10.371 8.988C10.1866 8.95461 10.0213 8.85338 9.90783 8.70425C9.79432 8.55511 9.74075 8.36888 9.75769 8.18223C9.77462 7.99558 9.86083 7.82203 9.99933 7.69576C10.1378 7.56949 10.3186 7.49965 10.506 7.5H10.9995C10.7817 7.20997 10.5034 6.97079 10.184 6.79905C9.86454 6.62731 9.51155 6.52712 9.14951 6.50543C8.78747 6.48373 8.42504 6.54106 8.08736 6.67343C7.74969 6.8058 7.44485 7.01005 7.194 7.272C7.12594 7.34321 7.04453 7.40032 6.9544 7.44006C6.86427 7.47981 6.7672 7.50141 6.66872 7.50364C6.57024 7.50587 6.47229 7.48868 6.38046 7.45305C6.28863 7.41742 6.20471 7.36406 6.1335 7.296C6.06229 7.22794 6.00518 7.14653 5.96544 7.0564C5.9257 6.96627 5.90409 6.8692 5.90186 6.77072C5.89963 6.67224 5.91682 6.57429 5.95245 6.48246C5.98808 6.39063 6.04144 6.30671 6.1095 6.2355C6.48262 5.84475 6.93121 5.53385 7.42807 5.32164C7.92493 5.10944 8.45972 5.00035 9 5.001Z" fill="url(#paint0_linear_937_741)"/>
<defs>
<linearGradient id="paint0_linear_937_741" x1="9" y1="0" x2="9" y2="18" gradientUnits="userSpaceOnUse">
<stop stop-color="#4DA9FF"/>
<stop offset="1" stop-color="#0052B3"/>
</linearGradient>
</defs>
</svg>
