<svg width="18" height="18" viewBox="0 0 18 18" fill="none" xmlns="http://www.w3.org/2000/svg">
<g clip-path="url(#clip0_933_2302)">
<path d="M13.9998 8C13.9998 12.58 8.46982 16.26 7.26982 17C7.19958 17.0394 7.12038 17.0601 7.03982 17.0601C6.95927 17.0601 6.88007 17.0394 6.80982 17C5.59982 16.25 0.0698242 12.57 0.0698242 8V2.48C0.07237 2.36676 0.118491 2.25886 0.198586 2.17876C0.278682 2.09867 0.386581 2.05255 0.499824 2.05C4.79982 1.93 3.79982 0 6.99982 0C10.1998 0 9.22982 1.9 13.5398 2C13.6513 2.00505 13.7567 2.05227 13.8347 2.1321C13.9127 2.21194 13.9574 2.31843 13.9598 2.43L13.9998 8Z" fill="#5EA0EF"/>
<path d="M13.42 8C13.42 12.2 8.34004 15.57 7.24004 16.26C7.17691 16.2989 7.1042 16.3196 7.03004 16.3196C6.95587 16.3196 6.88316 16.2989 6.82004 16.26C5.72004 15.6 0.650035 12.23 0.650035 8V3C0.644372 2.89974 0.677598 2.80117 0.742794 2.72479C0.807991 2.64842 0.900133 2.60014 1.00004 2.59C5.00004 2.48 4.07004 0.75 7.00004 0.75C9.93004 0.75 9.05004 2.48 13 2.59C13.1061 2.59 13.2079 2.63214 13.2829 2.70716C13.3579 2.78217 13.4 2.88391 13.4 2.99L13.42 8Z" fill="#60B0EF"/>
<path d="M0.999759 2.6C4.99976 2.48 4.06976 0.75 6.99976 0.75V8.55H0.669759V3C0.66586 2.9033 0.69715 2.80847 0.757829 2.73308C0.818509 2.65769 0.904462 2.60686 0.999759 2.59V2.6ZM13.3998 8.55H6.99976V16.35C7.05985 16.3487 7.11851 16.3314 7.16976 16.3C8.29976 15.64 12.9998 12.5 13.3898 8.55H13.3998Z" fill="#0078D4"/>
<path d="M14.1298 17.8001L14.4598 16.7201L15.0898 16.3501L16.1898 16.8301L16.8898 16.1101V16.0001L16.3898 15.0001L16.6898 14.3201L17.7898 13.9201L17.9098 13.8701V12.8701H17.7698L16.6898 12.5401L16.3298 11.9101L16.7998 10.8101L16.0798 10.1101H15.9998L14.9998 10.6101L14.2998 10.3101L13.8598 9.09009H12.8598L12.8098 9.23009L12.4798 10.3101L11.7798 10.6101L10.5998 10.0701L9.89977 10.7901L9.96977 10.9201L10.4898 11.9201L10.2098 12.6201L9.00977 13.0701V14.0701L9.14977 14.1201L10.2298 14.4501L10.5298 15.1501L9.99977 16.3001L10.7298 17.0001L10.8598 16.9301L11.8598 16.4001L12.5598 16.6801L13.0798 17.9801H14.0798L14.1298 17.8001ZM12.4998 14.5701C12.2899 14.3702 12.1448 14.1121 12.083 13.8289C12.0213 13.5458 12.0458 13.2506 12.1535 12.9816C12.2611 12.7125 12.4469 12.4819 12.6869 12.3194C12.9268 12.1569 13.21 12.0701 13.4998 12.0701C13.7896 12.0701 14.0727 12.1569 14.3127 12.3194C14.5526 12.4819 14.7384 12.7125 14.8461 12.9816C14.9537 13.2506 14.9782 13.5458 14.9165 13.8289C14.8548 14.1121 14.7096 14.3702 14.4998 14.5701C14.2313 14.8292 13.8728 14.9739 13.4998 14.9739C13.1267 14.9739 12.7682 14.8292 12.4998 14.5701Z" fill="#949494"/>
</g>
<defs>
<clipPath id="clip0_933_2302">
<rect width="18" height="18" fill="white"/>
</clipPath>
</defs>
</svg>
