<svg width="18" height="18" viewBox="0 0 18 18" fill="none" xmlns="http://www.w3.org/2000/svg">
<path d="M9.77564 4.98064C10.6716 4.08477 12.1241 4.08477 13.0201 4.98064C13.916 5.87651 13.916 7.32901 13.0201 8.22489C12.1241 9.12076 10.6716 9.12076 9.77564 8.22489C8.87972 7.32901 8.87972 5.87651 9.77564 4.98064ZM12.0467 5.95392C11.6884 5.59557 11.1073 5.59557 10.749 5.95392C10.3906 6.31226 10.3906 6.89326 10.749 7.25161C11.1073 7.60996 11.6884 7.60996 12.0467 7.25161C12.4051 6.89326 12.4051 6.31226 12.0467 5.95392ZM15.8694 0.467032C16.6631 0.713341 17.2847 1.3346 17.5313 2.12815L17.7208 2.73773C18.4036 4.93463 17.8124 7.32897 16.1856 8.95571L15.2698 9.87143C16.2126 11.1283 16.1124 12.9195 14.9691 14.0627L13.8289 15.2028C13.5601 15.4716 13.1243 15.4716 12.8556 15.2028L11.3968 13.7442L11.2346 13.9064C10.6075 14.5335 9.59066 14.5335 8.96351 13.9064L8.51653 13.4595L7.7721 14.7353C7.66454 14.9196 7.47756 15.0436 7.26591 15.071C7.05426 15.0984 6.84188 15.026 6.69097 14.8751L3.12208 11.3064C2.97212 11.1565 2.89967 10.9458 2.9257 10.7353C2.95173 10.5248 3.07334 10.3381 3.25531 10.2292L4.52579 9.46895L4.09386 9.03705C3.46672 8.40994 3.46672 7.39319 4.09386 6.76608L4.25887 6.60108L2.79889 5.14118C2.53011 4.87242 2.53011 4.43667 2.79889 4.16791L3.93911 3.02775C5.08281 1.88412 6.87506 1.78424 8.13203 2.72814L9.04591 1.81431C10.6721 0.188196 13.0654 -0.403133 15.2619 0.278494L15.8694 0.467032ZM16.2168 2.53665C16.1047 2.17595 15.8222 1.89356 15.4614 1.7816L14.8539 1.59306C13.1455 1.0629 11.2841 1.52283 10.0192 2.78758L5.06719 7.73935C4.9776 7.82894 4.9776 7.97419 5.06719 8.06377L9.93684 12.9331C10.0264 13.0227 10.1717 13.0227 10.2613 12.9331L15.2123 7.98244C16.4776 6.7172 16.9374 4.85493 16.4063 3.14623L16.2168 2.53665ZM3.93271 15.0408C4.20149 14.7721 4.20149 14.3363 3.93271 14.0675C3.66393 13.7988 3.22816 13.7988 2.95938 14.0675L0.688281 16.3385C0.419503 16.6073 0.419504 17.043 0.688281 17.3118C0.957058 17.5806 1.39283 17.5806 1.66161 17.3118L3.93271 15.0408ZM2.14824 12.2832C2.41702 12.552 2.41702 12.9877 2.14824 13.2565L1.17491 14.2298C0.906134 14.4985 0.47036 14.4985 0.201583 14.2298C-0.0671944 13.961 -0.0671943 13.5252 0.201583 13.2565L1.17491 12.2832C1.44369 12.0144 1.87946 12.0144 2.14824 12.2832ZM5.71528 16.8271C5.98406 16.5583 5.98407 16.1226 5.7153 15.8538C5.44652 15.585 5.01075 15.585 4.74197 15.8538L3.77053 16.8251C3.50175 17.0939 3.50174 17.5297 3.77051 17.7984C4.03929 18.0672 4.47506 18.0672 4.74384 17.7984L5.71528 16.8271Z" fill="url(#paint0_linear_1146_11708)"/>
<defs>
<linearGradient id="paint0_linear_1146_11708" x1="7.71236" y1="2.48264" x2="43.1125" y2="18.5252" gradientUnits="userSpaceOnUse">
<stop offset="0.0001" stop-color="#FBBE52"/>
<stop offset="0.283642" stop-color="#FD7853"/>
<stop offset="0.668279" stop-color="#F4364C"/>
<stop offset="0.923101" stop-color="#C73ECC"/>
</linearGradient>
</defs>
</svg>
