<svg width="18" height="16" viewBox="0 0 18 16" fill="none" xmlns="http://www.w3.org/2000/svg">
<path d="M18 8C17.2676 9.29275 16.5439 10.5765 15.8291 11.8512C15.1143 13.1259 14.3877 14.4126 13.6494 15.7114L13.4912 16H4.5L4.3418 15.7114C3.60937 14.4186 2.88574 13.1319 2.1709 11.8512C1.45605 10.5705 0.732422 9.28673 0 8C0.720703 6.65314 1.4707 5.32131 2.25 4.00451C3.0293 2.68771 3.7793 1.35287 4.5 0H13.4912C13.8486 0.679444 14.2178 1.34987 14.5986 2.01127C14.9795 2.67268 15.3604 3.33408 15.7412 3.99549C16.1221 4.6569 16.5059 5.32131 16.8926 5.98873C17.2793 6.65614 17.6484 7.32657 18 8ZM13.5879 7.30552L12.9287 0.965051L6.9082 3.2469C6.91992 3.28899 6.92578 3.32807 6.92578 3.36415C6.92578 3.40023 6.92578 3.44231 6.92578 3.49042L13.3594 7.41375C13.4238 7.37166 13.5 7.33559 13.5879 7.30552ZM6.84668 11.9143L13.0254 8.21646C13.0137 8.15633 13.0078 8.10823 13.0078 8.07215C13.0078 8.00601 13.0166 7.93987 13.0342 7.87373L6.67969 4.00451C6.60352 4.07065 6.5127 4.12476 6.40723 4.16685L6.57422 11.743C6.68555 11.785 6.77637 11.8422 6.84668 11.9143ZM5.87109 11.8512C5.91211 11.8151 5.96191 11.788 6.02051 11.77L5.85352 4.14882C5.8125 4.13679 5.77734 4.11875 5.74805 4.0947C5.71875 4.07065 5.68652 4.04359 5.65137 4.01353L1.07227 7.99098L5.87109 11.8512ZM12.375 0.568207H5.12402L6.07324 2.6336H6.1084C6.12012 2.6336 6.13477 2.63059 6.15234 2.62458C6.22852 2.62458 6.30176 2.6366 6.37207 2.66065C6.44238 2.6847 6.5127 2.71778 6.58301 2.75986L12.375 0.568207ZM4.64941 0.86584L1.0459 7.26945L5.3877 3.49944C5.3877 3.37918 5.39941 3.27095 5.42285 3.17475C5.44629 3.07854 5.49902 2.98534 5.58105 2.89515L4.64941 0.86584ZM1.01074 8.6584L4.6582 15.1342L5.75684 13.0237C5.69238 12.9575 5.64258 12.8764 5.60742 12.7802C5.57227 12.684 5.55469 12.5847 5.55469 12.4825V12.4014C5.55469 12.3773 5.56055 12.3502 5.57227 12.3202L1.01074 8.6584ZM5.13281 15.4318H12.4365L6.83789 13.0868C6.74414 13.171 6.65332 13.2251 6.56543 13.2492C6.47754 13.2732 6.37207 13.2852 6.24902 13.2852L5.13281 15.4318ZM12.9375 15.0259L13.5439 8.82976C13.4619 8.80571 13.3828 8.76362 13.3066 8.70349L7.09277 12.4194V12.5817L12.9375 15.0259ZM13.5088 14.8365L17.2002 8.28861H14.5283C14.499 8.40286 14.4463 8.50207 14.3701 8.58625C14.2939 8.67042 14.2061 8.73957 14.1064 8.79369L13.5088 14.8365ZM14.4668 7.71139H17.2002L13.5088 1.17249L14.1504 7.37768C14.291 7.46186 14.3965 7.57309 14.4668 7.71139Z" fill="#0883D9"/>
</svg>
