<svg width="18" height="18" viewBox="0 0 18 18" fill="none" xmlns="http://www.w3.org/2000/svg">
<path d="M6.36747 4.46998L4.64248 1.98111C4.74814 1.89906 5.11771 1.69058 5.29091 1.61949C5.55195 1.51235 5.80023 1.44934 6.0269 1.41994C6.33043 1.34127 11.0121 1.38687 11.3353 1.37469C12.2349 1.34079 12.5722 1.4713 12.711 1.50866L6.36747 4.46998Z" fill="url(#paint0_linear_953_729)"/>
<path d="M6.36759 4.47009L4.64284 1.98131C4.56369 2.03877 4.57184 2.02621 4.42476 2.15005C4.22236 2.32045 3.98685 2.63432 3.89831 2.75747C3.19495 3.98462 1.08524 7.25632 0.875027 7.85461C0.757034 8.19043 0.693895 8.50461 0.693895 8.7932L6.36759 4.47009Z" fill="url(#paint1_linear_953_729)"/>
<path d="M6.52926 13.4904L6.36754 4.46961C4.58188 5.83533 0.720007 8.74563 0.695007 8.79157C0.65535 9.0881 0.686605 9.35499 0.769717 9.6423L6.52926 13.4904Z" fill="url(#paint2_linear_953_729)"/>
<path d="M0.770996 9.63159L6.54735 13.4904L4.66081 16.3324C4.23177 16.1004 3.88314 15.6345 3.67816 15.3942C3.36274 14.9289 1.18657 10.6665 1.02274 10.3708C0.921942 10.1889 0.821457 9.89504 0.770996 9.63159Z" fill="url(#paint3_linear_953_729)"/>
<path d="M13.2052 16.3448L6.52923 13.4724C6.52923 13.4724 4.70531 16.2442 4.66045 16.3325C5.4292 16.8345 6.25662 16.767 6.40009 16.767C6.51621 16.767 11.5787 16.8132 11.9933 16.7587C12.4681 16.6963 12.8414 16.5417 13.2052 16.3448Z" fill="url(#paint4_linear_953_729)"/>
<path d="M17.383 9.13447L14.2954 8.86227L13.6699 1.98755C13.9779 2.20351 14.0665 2.30452 14.2002 2.49727C15.1329 3.84178 16.32 6.46737 16.652 7.02448C17.0081 7.6219 17.4154 8.51897 17.383 9.13447Z" fill="url(#paint5_linear_953_729)"/>
<path d="M17.3827 9.1343L14.2958 8.84924L13.9535 15.7495C14.1981 15.4524 14.6574 14.6517 14.7649 14.4886C15.1833 13.854 16.945 10.9268 17.0749 10.6338C17.3343 10.0488 17.398 9.44048 17.3827 9.1343Z" fill="url(#paint6_linear_953_729)"/>
<path d="M14.2988 8.85877C14.2988 8.85877 6.57825 13.4617 6.52334 13.4966C8.73711 14.4802 13.182 16.3607 13.182 16.3607C13.182 16.3607 13.646 16.0667 13.9534 15.7497L14.2988 8.85877Z" fill="url(#paint7_linear_953_729)"/>
<path d="M6.52652 13.5036L6.36758 4.46881L14.3024 8.85874L6.52652 13.5036Z" fill="url(#paint8_linear_953_729)"/>
<path d="M14.2958 8.85945L6.36818 4.46967L12.7103 1.50881C12.92 1.56258 13.3008 1.69998 13.6743 1.99206L14.2958 8.85945Z" fill="url(#paint9_linear_953_729)"/>
<path fill-rule="evenodd" clip-rule="evenodd" d="M6.00411 3.22046L6.28544 3.64625L6.28556 3.64618L6.40155 3.84404C6.46716 3.95597 6.6089 3.99696 6.72412 3.93733L7.89546 3.42313L8.07721 3.87023L7.36166 4.15676L7.26652 4.20599C7.13414 4.29057 7.15533 4.37474 7.24736 4.44476L13.7104 8.1329L13.709 8.13178C13.7095 8.13217 13.71 8.13257 13.7105 8.13296L13.8487 8.21182C13.9377 8.24058 14.0145 8.24769 14.0188 8.06442L13.9484 7.00112L14.4345 6.96976L14.5318 8.43047C14.5387 8.55587 14.6384 8.65494 14.7632 8.66716L15.309 8.72227L15.2784 9.21236L14.7628 9.15584C14.6323 9.15048 14.5193 9.2487 14.5056 9.37937L14.3893 10.8097L13.9007 10.7636L13.9677 9.80866L13.979 9.70065C13.9811 9.54471 13.9017 9.51488 13.7948 9.55171L7.44094 13.263L7.4503 13.2587C7.44656 13.2604 7.44286 13.2622 7.43921 13.264L7.35764 13.3117C7.25456 13.3848 7.22598 13.4738 7.3684 13.5617L8.28069 14.0162L8.08585 14.4635L6.80519 13.8486C6.69129 13.799 6.5583 13.8429 6.49633 13.9506L6.25461 14.3658L5.83173 14.1224L5.94562 13.9294L5.9455 13.9293L6.05914 13.7301C6.12342 13.6174 6.08825 13.4741 5.97909 13.404L4.98169 12.7223L5.27064 12.3353L5.85128 12.7419L5.9414 12.7998C6.07659 12.8702 6.13934 12.8155 6.15645 12.7075L6.11887 5.25516L6.11623 5.28493C6.13129 5.09778 6.07957 4.96277 5.89439 5.06277L5.04871 5.68951L4.75821 5.29752L5.9267 4.43155C6.02652 4.35757 6.0548 4.2204 5.99237 4.11298L5.58068 3.46703L6.00411 3.22046ZM6.97065 4.8486L13.6391 8.6539C13.8022 8.74698 13.8033 8.98172 13.6412 9.07643L7.0115 12.9488C6.84935 13.0435 6.64547 12.9272 6.64452 12.7394L6.60579 5.06171C6.60485 4.87392 6.80754 4.75552 6.97065 4.8486Z" fill="url(#paint10_linear_953_729)"/>
<path d="M17.3795 9.41118C17.3881 9.26557 17.3893 9.0435 17.3787 8.92874C17.1713 8.92125 15.2961 8.72087 15.2961 8.72087L15.2747 9.21204L17.3795 9.41118Z" fill="url(#paint11_linear_953_729)"/>
<path fill-rule="evenodd" clip-rule="evenodd" d="M5.05175 1.7407L6.00397 3.22031L5.58354 3.47275L4.63166 1.99571C4.72265 1.92884 4.95909 1.78626 5.05175 1.7407Z" fill="url(#paint12_linear_953_729)"/>
<path d="M0.873634 10.0149C0.811986 9.805 0.748643 9.61557 0.704102 9.36279L5.2705 12.3352L4.98649 12.7251L0.873634 10.0149Z" fill="url(#paint13_linear_953_729)"/>
<path d="M0.749494 8.33985C0.714223 8.51757 0.680469 8.72965 0.678922 9.01669L5.14332 5.62415L4.84719 5.23441L0.749494 8.33985Z" fill="url(#paint14_linear_953_729)"/>
<path d="M12.4976 1.45896L7.87301 3.43262L8.06446 3.8759L13.1683 1.67963C12.9828 1.59444 12.7103 1.48734 12.4976 1.45896Z" fill="url(#paint15_linear_953_729)"/>
<path d="M13.4907 1.85913L13.9481 7.01894L14.4337 6.97607L14.0646 2.32088C13.9502 2.18356 13.6347 1.93971 13.4907 1.85913Z" fill="url(#paint16_linear_953_729)"/>
<path d="M13.1818 16.3608C12.9745 16.479 12.8231 16.5384 12.6187 16.6098L8.08502 14.463L8.27971 14.0156L13.1818 16.3608Z" fill="url(#paint17_linear_953_729)"/>
<path d="M4.51235 16.2434C4.60739 16.3053 4.7812 16.4057 4.94036 16.4702L6.25505 14.3632L5.83077 14.1214L4.51235 16.2434Z" fill="url(#paint18_linear_953_729)"/>
<path d="M13.5408 16.111C13.7242 15.9663 13.9246 15.8081 14.0313 15.651L14.3902 10.7927L13.9011 10.7522L13.5408 16.111Z" fill="url(#paint19_linear_953_729)"/>
<defs>
<linearGradient id="paint0_linear_953_729" x1="8.8635" y1="0.569727" x2="9.16975" y2="4.69665" gradientUnits="userSpaceOnUse">
<stop stop-color="#50E5FF"/>
<stop offset="0.71875" stop-color="#2CA4F0"/>
</linearGradient>
<linearGradient id="paint1_linear_953_729" x1="5.31459" y1="2.65936" x2="2.79317" y2="6.31598" gradientUnits="userSpaceOnUse">
<stop stop-color="#49DCF8"/>
<stop offset="1" stop-color="#0799F2"/>
</linearGradient>
<linearGradient id="paint2_linear_953_729" x1="4.4377" y1="5.18173" x2="5.55629" y2="12.0144" gradientUnits="userSpaceOnUse">
<stop stop-color="#1FB8FF"/>
<stop offset="1" stop-color="#0D51B4"/>
</linearGradient>
<linearGradient id="paint3_linear_953_729" x1="0.363802" y1="8.72644" x2="6.02188" y2="16.4231" gradientUnits="userSpaceOnUse">
<stop stop-color="#3979D6"/>
<stop offset="0.807255" stop-color="#003480"/>
</linearGradient>
<linearGradient id="paint4_linear_953_729" x1="12.0591" y1="13.6989" x2="5.15019" y2="16.983" gradientUnits="userSpaceOnUse">
<stop offset="0.0627089" stop-color="#3979D6"/>
<stop offset="0.723958" stop-color="#003480"/>
</linearGradient>
<linearGradient id="paint5_linear_953_729" x1="17.6864" y1="4.09778" x2="14.6483" y2="8.03688" gradientUnits="userSpaceOnUse">
<stop offset="0.0801082" stop-color="#50E4FE"/>
<stop offset="1" stop-color="#0986E3"/>
</linearGradient>
<linearGradient id="paint6_linear_953_729" x1="16.6887" y1="7.84955" x2="15.627" y2="11.9349" gradientUnits="userSpaceOnUse">
<stop stop-color="#50E6FA"/>
<stop offset="1" stop-color="#1C9EE1"/>
</linearGradient>
<linearGradient id="paint7_linear_953_729" x1="15.604" y1="10.0906" x2="7.01526" y2="14.5996" gradientUnits="userSpaceOnUse">
<stop stop-color="#24BCFF"/>
<stop offset="0.798256" stop-color="#0F4FAD"/>
</linearGradient>
<linearGradient id="paint8_linear_953_729" x1="11.0473" y1="6.29986" x2="6.30796" y2="14.0105" gradientUnits="userSpaceOnUse">
<stop stop-color="#51E6FF"/>
<stop offset="1" stop-color="#0052C2"/>
</linearGradient>
<linearGradient id="paint9_linear_953_729" x1="13.16" y1="1.53819" x2="10.6789" y2="9.22518" gradientUnits="userSpaceOnUse">
<stop stop-color="#50E4FE"/>
<stop offset="1" stop-color="#3093FA"/>
</linearGradient>
<linearGradient id="paint10_linear_953_729" x1="10.2709" y1="6.29776" x2="6.35154" y2="13.7253" gradientUnits="userSpaceOnUse">
<stop stop-color="white"/>
<stop offset="0.40625" stop-color="#BDEBFF"/>
<stop offset="1" stop-color="#5CCEFF"/>
</linearGradient>
<linearGradient id="paint11_linear_953_729" x1="15.315" y1="8.93336" x2="17.3482" y2="9.10724" gradientUnits="userSpaceOnUse">
<stop stop-color="white"/>
<stop offset="1" stop-color="#47D3FC"/>
</linearGradient>
<linearGradient id="paint12_linear_953_729" x1="5.82007" y1="3.282" x2="4.91884" y2="1.91156" gradientUnits="userSpaceOnUse">
<stop stop-color="white"/>
<stop offset="1" stop-color="#46D2FB"/>
</linearGradient>
<linearGradient id="paint13_linear_953_729" x1="5.20571" y1="12.5652" x2="0.564313" y2="10.9452" gradientUnits="userSpaceOnUse">
<stop stop-color="#69D2FF"/>
<stop offset="1" stop-color="#1680D6"/>
</linearGradient>
<linearGradient id="paint14_linear_953_729" x1="4.94996" y1="5.44318" x2="1.50317" y2="8.56088" gradientUnits="userSpaceOnUse">
<stop stop-color="#E1F6FF"/>
<stop offset="1" stop-color="#0899F2"/>
</linearGradient>
<linearGradient id="paint15_linear_953_729" x1="8.00328" y1="3.69426" x2="12.6221" y2="1.36511" gradientUnits="userSpaceOnUse">
<stop stop-color="white"/>
<stop offset="1" stop-color="#4FD1F7"/>
</linearGradient>
<linearGradient id="paint16_linear_953_729" x1="14.2499" y1="6.96953" x2="13.996" y2="2.1595" gradientUnits="userSpaceOnUse">
<stop stop-color="white"/>
<stop offset="1" stop-color="#4FD4F8"/>
</linearGradient>
<linearGradient id="paint17_linear_953_729" x1="8.19512" y1="14.2059" x2="12.9804" y2="16.1981" gradientUnits="userSpaceOnUse">
<stop offset="0.00427501" stop-color="#66D1FF"/>
<stop offset="1" stop-color="#1672C7"/>
</linearGradient>
<linearGradient id="paint18_linear_953_729" x1="6.0913" y1="14.3566" x2="4.65776" y2="16.3293" gradientUnits="userSpaceOnUse">
<stop stop-color="#67CEFF"/>
<stop offset="1" stop-color="#013480"/>
</linearGradient>
<linearGradient id="paint19_linear_953_729" x1="14.1715" y1="10.9045" x2="14.241" y2="15.6362" gradientUnits="userSpaceOnUse">
<stop stop-color="#D8F4FF"/>
<stop offset="1" stop-color="#1D9EE1"/>
</linearGradient>
</defs>
</svg>
