<svg width="17" height="18" viewBox="0 0 17 18" fill="none" xmlns="http://www.w3.org/2000/svg">
<path d="M12.4231 8.6422C12.5522 8.54792 12.7298 8.54792 12.859 8.6422C13.188 8.88241 13.5188 9.09028 13.8517 9.26581C14.2523 9.47711 14.6561 9.64155 15.0627 9.75967C15.5821 9.91056 16.1068 9.98568 16.6369 9.98568C16.8374 9.98575 17 10.1441 17 10.3393V12.8145C16.9999 15.1721 15.5675 16.9043 12.7743 17.9754C12.6887 18.0082 12.5933 18.0082 12.5078 17.9754C11.2415 17.4898 10.2547 16.8682 9.55441 16.1142C9.21793 15.7519 8.94742 15.3588 8.74392 14.9356C8.43685 14.297 8.28207 13.5896 8.28205 12.8145V10.3393C8.28205 10.1441 8.44461 9.98575 8.64516 9.98568C9.93512 9.98568 11.1919 9.54099 12.4231 8.6422ZM7.41026 10.3393V12.8145C7.4103 14.2524 7.92354 15.6292 8.91078 16.6922C8.9939 16.7817 9.08076 16.8686 9.17002 16.9542C8.47379 17.0803 7.73452 17.1429 6.97436 17.1429C5.13752 17.1429 3.42129 16.7842 2.14458 16.02C0.846343 15.2429 2.0059e-06 14.0381 0 12.4286V12.1068C7.74249e-06 11.1007 0.829679 10.2858 1.85256 10.2858H7.41281C7.41203 10.3035 7.41026 10.3214 7.41026 10.3393ZM6.97436 0C9.38175 0 11.3333 1.91879 11.3333 4.28574C11.3333 6.65268 9.38175 8.57147 6.97436 8.57147C4.56696 8.57147 2.61538 6.65268 2.61538 4.28574C2.61538 1.91879 4.56696 0 6.97436 0Z" fill="url(#paint0_linear_1148_16139)"/>
<defs>
<linearGradient id="paint0_linear_1148_16139" x1="5.67545" y1="-5.89668" x2="23.1264" y2="19.4356" gradientUnits="userSpaceOnUse">
<stop offset="0.0001" stop-color="#FBBE52"/>
<stop offset="0.283642" stop-color="#FD7853"/>
<stop offset="0.564282" stop-color="#F4364C"/>
<stop offset="0.923101" stop-color="#C73ECC"/>
</linearGradient>
</defs>
</svg>
