<svg width="18" height="17" viewBox="0 0 18 17" fill="none" xmlns="http://www.w3.org/2000/svg">
<path d="M2.08929 0C0.935405 0 0 0.951339 0 2.12487V7.30264C0.824036 6.23972 2.10152 5.55736 3.53571 5.55736C6.021 5.55736 8.03571 7.6064 8.03571 10.134C8.03571 10.9954 7.8009 11.8032 7.39286 12.4924V13.73H15.9107C17.0646 13.73 18 12.7786 18 11.6051V2.12487C18 0.951339 17.0646 0 15.9107 0H2.08929ZM4.5 3.92284H13.5C13.855 3.92284 14.1429 4.21556 14.1429 4.57665C14.1429 4.93774 13.855 5.23046 13.5 5.23046H4.5C4.14496 5.23046 3.85714 4.93774 3.85714 4.57665C3.85714 4.21556 4.14496 3.92284 4.5 3.92284ZM9 9.1533C9 8.79221 9.28782 8.4995 9.64286 8.4995H13.5C13.855 8.4995 14.1429 8.79221 14.1429 9.1533C14.1429 9.51439 13.855 9.80711 13.5 9.80711H9.64286C9.28782 9.80711 9 9.51439 9 9.1533ZM7.07143 10.134C7.07143 12.12 5.48844 13.73 3.53571 13.73C1.58299 13.73 0 12.12 0 10.134C0 8.14803 1.58299 6.53807 3.53571 6.53807C5.48844 6.53807 7.07143 8.14803 7.07143 10.134ZM6.42857 13.6398C5.64636 14.3081 4.63726 14.7106 3.53571 14.7106C2.43417 14.7106 1.42506 14.3081 0.642857 13.6398V16.3451C0.642857 16.8581 1.19712 17.1713 1.62534 16.9003L3.53571 15.6913L5.44609 16.9003C5.87431 17.1713 6.42857 16.8581 6.42857 16.3451V13.6398Z" fill="url(#paint0_linear_1148_16135)"/>
<defs>
<linearGradient id="paint0_linear_1148_16135" x1="6.0093" y1="-5.56909" x2="21.7454" y2="20.0403" gradientUnits="userSpaceOnUse">
<stop offset="0.0001" stop-color="#FBBE52"/>
<stop offset="0.283642" stop-color="#FD7853"/>
<stop offset="0.564282" stop-color="#F4364C"/>
<stop offset="0.923101" stop-color="#C73ECC"/>
</linearGradient>
</defs>
</svg>
