<svg width="18" height="18" viewBox="0 0 18 18" fill="none" xmlns="http://www.w3.org/2000/svg">
<path d="M0.5 5.78809H17.5V15.2661C17.5 15.4167 17.4402 15.5612 17.3336 15.6677C17.2271 15.7742 17.0826 15.8341 16.932 15.8341H1.068C0.917357 15.8341 0.772884 15.7742 0.666363 15.6677C0.559843 15.5612 0.5 15.4167 0.5 15.2661V5.78809Z" fill="url(#paint0_linear_952_701)"/>
<path d="M1.071 2.16602H16.929C17.0036 2.16602 17.0775 2.18072 17.1464 2.20926C17.2153 2.2378 17.2779 2.27964 17.3306 2.33239C17.3834 2.38513 17.4252 2.44775 17.4538 2.51666C17.4823 2.58557 17.497 2.65943 17.497 2.73402V5.78802H0.5V2.73402C0.499999 2.65918 0.51479 2.58507 0.543522 2.51596C0.572254 2.44686 0.614361 2.38411 0.667423 2.33132C0.720484 2.27854 0.783455 2.23676 0.852714 2.2084C0.921974 2.18003 0.996157 2.16563 1.071 2.16602Z" fill="#0078D4"/>
<path d="M2.82446 7.97867L3.19376 7.60833C3.22503 7.57697 3.26748 7.55931 3.31177 7.55925C3.35607 7.55919 3.39857 7.57672 3.42993 7.608L6.1618 10.3322C6.19295 10.3632 6.21768 10.4001 6.23457 10.4407C6.25147 10.4814 6.26019 10.5249 6.26026 10.5689C6.26032 10.6129 6.25171 10.6565 6.23494 10.6971C6.21816 10.7378 6.19353 10.7748 6.16247 10.8059L5.79388 11.1755L2.8255 8.21555C2.79414 8.18428 2.77649 8.14182 2.77642 8.09753C2.77636 8.05324 2.79319 8.01003 2.82446 7.97867Z" fill="#F2F2F2"/>
<path d="M3.24883 13.5035L2.87849 13.1342C2.84713 13.1029 2.82947 13.0605 2.82941 13.0162C2.82935 12.9719 2.84688 12.9294 2.87816 12.898L5.79508 9.97286L6.16471 10.3415C6.22763 10.4042 6.26304 10.4893 6.26317 10.5782C6.26329 10.667 6.22812 10.7523 6.16538 10.8152L3.48218 13.506C3.4509 13.5374 3.40845 13.555 3.36416 13.5551C3.31987 13.5552 3.27737 13.5376 3.246 13.5063L3.24883 13.5035Z" fill="#E6E6E6"/>
<path d="M11.7012 12.6401H7.51219C7.35148 12.6401 7.22119 12.7704 7.22119 12.9311V13.3601C7.22119 13.5209 7.35148 13.6511 7.51219 13.6511H11.7012C11.8619 13.6511 11.9922 13.5209 11.9922 13.3601V12.9311C11.9922 12.7704 11.8619 12.6401 11.7012 12.6401Z" fill="#F2F2F2"/>
<defs>
<linearGradient id="paint0_linear_952_701" x1="9" y1="15.8341" x2="9" y2="5.78809" gradientUnits="userSpaceOnUse">
<stop stop-color="#32BEDD"/>
<stop offset="0.175" stop-color="#32CAEA"/>
<stop offset="0.41" stop-color="#32D2F2"/>
<stop offset="0.775" stop-color="#32D4F5"/>
</linearGradient>
</defs>
</svg>
