<svg width="18" height="18" viewBox="0 0 18 18" fill="none" xmlns="http://www.w3.org/2000/svg">
<path d="M7.71262 10.2819V12.7976C7.71262 13.4704 7.97722 14.1159 8.44872 14.5958L10.3832 16.5648C9.37173 16.949 8.19361 17.1402 6.85553 17.1402C3.92266 17.1402 1.75968 16.2212 0.437549 14.366C0.152951 13.9667 0 13.4885 0 12.9982V12.2096C0 11.145 0.863199 10.2819 1.92801 10.2819H7.71262ZM11.1421 4.28582C11.1421 1.91883 9.22296 0 6.85553 0C4.48811 0 2.56893 1.91883 2.56893 4.28582C2.56893 6.65282 4.48811 8.57165 6.85553 8.57165C9.22296 8.57165 11.1421 6.65282 11.1421 4.28582ZM12.4897 17.4857L9.06032 13.9951C8.74599 13.6752 8.56994 13.2453 8.56994 12.7976V10.2806C8.56994 9.33601 9.33789 8.57024 10.2858 8.56958L12.7867 8.56782C13.2392 8.5675 13.6736 8.74512 13.9955 9.0621L17.4896 12.5029C18.1661 13.169 18.1707 14.256 17.5 14.9275L14.9343 17.496C14.2591 18.172 13.1595 18.1674 12.4897 17.4857ZM11.1387 11.9963C11.6116 11.9963 11.9949 11.6126 11.9949 11.1392C11.9949 10.6658 11.6116 10.282 11.1387 10.282C10.6659 10.282 10.2825 10.6658 10.2825 11.1392C10.2825 11.6126 10.6659 11.9963 11.1387 11.9963Z" fill="url(#paint0_linear_1158_11976)"/>
<defs>
<linearGradient id="paint0_linear_1158_11976" x1="2.65255e-07" y1="0.725806" x2="18" y2="18" gradientUnits="userSpaceOnUse">
<stop stop-color="#FF5C39"/>
<stop offset="0.5" stop-color="#F4364C"/>
<stop offset="1" stop-color="#C73ECC"/>
</linearGradient>
</defs>
</svg>
