<svg width="17" height="18" viewBox="0 0 17 18" fill="none" xmlns="http://www.w3.org/2000/svg">
<path d="M10.1987 10.3268V10.2841H1.91191C0.85599 10.2841 0 11.1473 0 12.2122V13.0008C0 13.4913 0.15167 13.9695 0.433891 14.369C1.74498 16.2246 3.88993 17.1438 6.79835 17.1438C7.40579 17.1438 7.97999 17.1037 8.52036 17.0233C8.50582 16.9223 8.49834 16.819 8.49834 16.714V12.4273C8.49834 11.3903 9.22855 10.5253 10.1987 10.3268ZM6.79835 0C9.14599 0 11.0492 1.91923 11.0492 4.28671C11.0492 6.6542 9.14599 8.57344 6.79835 8.57344C4.45065 8.57344 2.54748 6.6542 2.54748 4.28671C2.54748 1.91923 4.45065 0 6.79835 0ZM11.0488 11.1413V10.2839C11.0488 9.10019 12.0004 8.14057 13.1743 8.14057C14.3481 8.14057 15.2997 9.10019 15.2997 10.2839V11.1413H15.7248C16.429 11.1413 17 11.7171 17 12.4273V16.714C17 17.4242 16.429 18 15.7248 18H10.6238C9.91948 18 9.3485 17.4242 9.3485 16.714V12.4273C9.3485 11.7171 9.91948 11.1413 10.6238 11.1413H11.0488ZM12.3241 10.2839V11.1413H14.0244V10.2839C14.0244 9.81041 13.6438 9.42658 13.1743 9.42658C12.7047 9.42658 12.3241 9.81041 12.3241 10.2839ZM14.0244 14.5706C14.0244 14.0971 13.6438 13.7133 13.1743 13.7133C12.7047 13.7133 12.3241 14.0971 12.3241 14.5706C12.3241 15.0441 12.7047 15.428 13.1743 15.428C13.6438 15.428 14.0244 15.0441 14.0244 14.5706Z" fill="url(#paint0_linear_937_699)"/>
<path d="M10.1987 10.3268V10.2841H1.91191C0.85599 10.2841 0 11.1473 0 12.2122V13.0008C0 13.4913 0.15167 13.9695 0.433891 14.369C1.74498 16.2246 3.88993 17.1438 6.79835 17.1438C7.40579 17.1438 7.97999 17.1037 8.52036 17.0233C8.50582 16.9223 8.49834 16.819 8.49834 16.714V12.4273C8.49834 11.3903 9.22855 10.5253 10.1987 10.3268ZM6.79835 0C9.14599 0 11.0492 1.91923 11.0492 4.28671C11.0492 6.6542 9.14599 8.57344 6.79835 8.57344C4.45065 8.57344 2.54748 6.6542 2.54748 4.28671C2.54748 1.91923 4.45065 0 6.79835 0ZM11.0488 11.1413V10.2839C11.0488 9.10019 12.0004 8.14057 13.1743 8.14057C14.3481 8.14057 15.2997 9.10019 15.2997 10.2839V11.1413H15.7248C16.429 11.1413 17 11.7171 17 12.4273V16.714C17 17.4242 16.429 18 15.7248 18H10.6238C9.91948 18 9.3485 17.4242 9.3485 16.714V12.4273C9.3485 11.7171 9.91948 11.1413 10.6238 11.1413H11.0488ZM12.3241 10.2839V11.1413H14.0244V10.2839C14.0244 9.81041 13.6438 9.42658 13.1743 9.42658C12.7047 9.42658 12.3241 9.81041 12.3241 10.2839ZM14.0244 14.5706C14.0244 14.0971 13.6438 13.7133 13.1743 13.7133C12.7047 13.7133 12.3241 14.0971 12.3241 14.5706C12.3241 15.0441 12.7047 15.428 13.1743 15.428C13.6438 15.428 14.0244 15.0441 14.0244 14.5706Z" fill="url(#paint1_linear_937_699)"/>
<path d="M10.1987 10.3268V10.2841H1.91191C0.85599 10.2841 0 11.1473 0 12.2122V13.0008C0 13.4913 0.15167 13.9695 0.433891 14.369C1.74498 16.2246 3.88993 17.1438 6.79835 17.1438C7.40579 17.1438 7.97999 17.1037 8.52036 17.0233C8.50582 16.9223 8.49834 16.819 8.49834 16.714V12.4273C8.49834 11.3903 9.22855 10.5253 10.1987 10.3268ZM6.79835 0C9.14599 0 11.0492 1.91923 11.0492 4.28671C11.0492 6.6542 9.14599 8.57344 6.79835 8.57344C4.45065 8.57344 2.54748 6.6542 2.54748 4.28671C2.54748 1.91923 4.45065 0 6.79835 0ZM11.0488 11.1413V10.2839C11.0488 9.10019 12.0004 8.14057 13.1743 8.14057C14.3481 8.14057 15.2997 9.10019 15.2997 10.2839V11.1413H15.7248C16.429 11.1413 17 11.7171 17 12.4273V16.714C17 17.4242 16.429 18 15.7248 18H10.6238C9.91948 18 9.3485 17.4242 9.3485 16.714V12.4273C9.3485 11.7171 9.91948 11.1413 10.6238 11.1413H11.0488ZM12.3241 10.2839V11.1413H14.0244V10.2839C14.0244 9.81041 13.6438 9.42658 13.1743 9.42658C12.7047 9.42658 12.3241 9.81041 12.3241 10.2839ZM14.0244 14.5706C14.0244 14.0971 13.6438 13.7133 13.1743 13.7133C12.7047 13.7133 12.3241 14.0971 12.3241 14.5706C12.3241 15.0441 12.7047 15.428 13.1743 15.428C13.6438 15.428 14.0244 15.0441 14.0244 14.5706Z" fill="url(#paint2_linear_937_699)"/>
<defs>
<linearGradient id="paint0_linear_937_699" x1="2.26159" y1="54.1414" x2="-19.1055" y2="5.44365" gradientUnits="userSpaceOnUse">
<stop stop-color="#0078D4"/>
<stop offset="0.897238" stop-color="#C73ECC"/>
</linearGradient>
<linearGradient id="paint1_linear_937_699" x1="2.26159" y1="54.1414" x2="-19.1055" y2="5.44365" gradientUnits="userSpaceOnUse">
<stop stop-color="#0078D4"/>
<stop offset="0.897238" stop-color="#C73ECC"/>
</linearGradient>
<linearGradient id="paint2_linear_937_699" x1="2.26159" y1="54.1414" x2="-19.1055" y2="5.44365" gradientUnits="userSpaceOnUse">
<stop stop-color="#0078D4"/>
<stop offset="0.897238" stop-color="#C73ECC"/>
</linearGradient>
</defs>
</svg>
