<svg width="17" height="18" viewBox="0 0 17 18" fill="none" xmlns="http://www.w3.org/2000/svg">
<path d="M3.18749 4.23529C3.18749 1.8962 5.09028 0 7.43748 0C9.78465 0 11.6875 1.8962 11.6875 4.23529C11.6875 5.50796 11.1242 6.64952 10.2325 7.42589C10.1929 7.45809 10.1537 7.49101 10.1149 7.52467C9.38408 8.11613 8.45227 8.47059 7.43748 8.47059C5.09028 8.47059 3.18749 6.57438 3.18749 4.23529ZM8.74032 9.52941H2.13427C0.959595 9.52941 0 10.4685 0 11.6471C0 13.4377 0.884859 14.7878 2.26842 15.667C3.13049 16.2147 4.18251 16.5796 5.33832 16.7736C5.22646 15.9768 5.47797 15.1391 6.09284 14.5263L8.55502 12.0727C8.38672 11.2287 8.44824 10.3476 8.74032 9.52941ZM13.6973 7.4369C14.0868 7.48211 14.1983 7.94628 13.9209 8.22267L12.8849 9.25518C12.2593 9.87851 12.2593 10.8893 12.8849 11.5126C13.5104 12.136 14.5247 12.136 15.1502 11.5126L16.1862 10.4801C16.4636 10.2038 16.9294 10.3148 16.9748 10.703C17.1024 11.795 16.7458 12.9324 15.9053 13.77C14.8511 14.8207 13.3236 15.1124 12.0065 14.6453L9.10943 17.5324C8.48383 18.1559 7.46968 18.1559 6.84414 17.5324C6.2186 16.9091 6.2186 15.8984 6.84414 15.275L9.7413 12.3879C9.27263 11.0754 9.56535 9.55324 10.6197 8.50267C11.4602 7.665 12.6015 7.30975 13.6973 7.4369Z" fill="#212121"/>
<path d="M3.18749 4.23529C3.18749 1.8962 5.09028 0 7.43748 0C9.78465 0 11.6875 1.8962 11.6875 4.23529C11.6875 5.50796 11.1242 6.64952 10.2325 7.42589C10.1929 7.45809 10.1537 7.49101 10.1149 7.52467C9.38408 8.11613 8.45227 8.47059 7.43748 8.47059C5.09028 8.47059 3.18749 6.57438 3.18749 4.23529ZM8.74032 9.52941H2.13427C0.959595 9.52941 0 10.4685 0 11.6471C0 13.4377 0.884859 14.7878 2.26842 15.667C3.13049 16.2147 4.18251 16.5796 5.33832 16.7736C5.22646 15.9768 5.47797 15.1391 6.09284 14.5263L8.55502 12.0727C8.38672 11.2287 8.44824 10.3476 8.74032 9.52941ZM13.6973 7.4369C14.0868 7.48211 14.1983 7.94628 13.9209 8.22267L12.8849 9.25518C12.2593 9.87851 12.2593 10.8893 12.8849 11.5126C13.5104 12.136 14.5247 12.136 15.1502 11.5126L16.1862 10.4801C16.4636 10.2038 16.9294 10.3148 16.9748 10.703C17.1024 11.795 16.7458 12.9324 15.9053 13.77C14.8511 14.8207 13.3236 15.1124 12.0065 14.6453L9.10943 17.5324C8.48383 18.1559 7.46968 18.1559 6.84414 17.5324C6.2186 16.9091 6.2186 15.8984 6.84414 15.275L9.7413 12.3879C9.27263 11.0754 9.56535 9.55324 10.6197 8.50267C11.4602 7.665 12.6015 7.30975 13.6973 7.4369Z" fill="url(#paint0_linear_956_760)"/>
<defs>
<linearGradient id="paint0_linear_956_760" x1="2.26159" y1="54.1414" x2="-19.1055" y2="5.44365" gradientUnits="userSpaceOnUse">
<stop stop-color="#0078D4"/>
<stop offset="0.897238" stop-color="#C73ECC"/>
</linearGradient>
</defs>
</svg>
