<svg width="17" height="18" viewBox="0 0 17 18" fill="none" xmlns="http://www.w3.org/2000/svg">
<path d="M8.46856 0.00885954C8.57956 0.00297559 8.69125 0 8.80357 0C12.3244 0 15.1786 2.91787 15.1786 6.51724C15.1786 6.63207 15.1757 6.74625 15.1699 6.85973C15.1532 7.18959 14.8867 7.44828 14.5636 7.44828H9.10714C8.43651 7.44828 7.89286 6.89249 7.89286 6.2069V0.628716C7.89286 0.29841 8.1459 0.025964 8.46856 0.00885954ZM6.67857 3.43836C6.67857 2.91479 6.24168 2.45951 5.68781 2.52027C2.48989 2.87105 0 5.63787 0 9.00003C0 12.5994 2.85418 15.5173 6.375 15.5173C6.79027 15.5173 7.19625 15.4767 7.58936 15.3992V14.2759C7.58936 13.0761 8.54075 12.1034 9.71436 12.1034C10.0411 12.1034 10.3507 12.1789 10.6273 12.3136C10.6767 11.1997 11.5467 10.3044 12.6338 10.2445C12.6675 10.0663 12.6941 9.88553 12.7134 9.70247C12.7728 9.13626 12.3274 8.68962 11.8153 8.68962H8.5C7.49405 8.68962 6.67857 7.85594 6.67857 6.82755V3.43836ZM14.5714 9.93103C14.5714 9.24544 15.1151 8.68965 15.7857 8.68965C16.4563 8.68965 17 9.24544 17 9.93103V16.7586C17 17.4442 16.4563 18 15.7857 18C15.1151 18 14.5714 17.4442 14.5714 16.7586V9.93103ZM11.5357 12.4138C11.5357 11.7282 12.0794 11.1724 12.75 11.1724C13.4206 11.1724 13.9643 11.7282 13.9643 12.4138V16.7586C13.9643 17.4442 13.4206 18 12.75 18C12.0794 18 11.5357 17.4442 11.5357 16.7586V12.4138ZM9.71429 13.0345C9.04365 13.0345 8.5 13.5903 8.5 14.2759V16.7586C8.5 17.4442 9.04365 18 9.71429 18C10.3849 18 10.9286 17.4442 10.9286 16.7586V14.2759C10.9286 13.5903 10.3849 13.0345 9.71429 13.0345Z" fill="url(#paint0_linear_1148_16129)"/>
<defs>
<linearGradient id="paint0_linear_1148_16129" x1="15.7498" y1="30.3258" x2="-6.14355" y2="4.05599" gradientUnits="userSpaceOnUse">
<stop stop-color="#0078D4"/>
<stop offset="0.897238" stop-color="#C73ECC"/>
</linearGradient>
</defs>
</svg>
