<svg width="18" height="18" viewBox="0 0 18 18" fill="none" xmlns="http://www.w3.org/2000/svg">
<path d="M14.5714 9.85575C14.5714 9.27161 14.8051 8.74208 15.1839 8.35554H9.42857C8.60014 8.35554 7.92857 7.68387 7.92857 6.85533V0C3.53044 0.11363 0 3.71508 0 8.14122C0 12.4953 3.41633 16.0513 7.71429 16.2742V14.9993C7.71429 13.8157 8.67369 12.8562 9.85714 12.8562C10.3395 12.8562 10.7847 13.0156 11.1429 13.2846V12.4275C11.1429 11.2439 12.1023 10.2844 13.2857 10.2844C13.7681 10.2844 14.2133 10.4438 14.5714 10.7128V9.85575ZM9.21429 0.0671065V6.85533C9.21429 6.97372 9.3102 7.06965 9.42857 7.06965H16.2159C15.7374 3.42894 12.8545 0.545622 9.21429 0.0671065ZM16.7143 8.57011C16.0042 8.57011 15.4286 9.14585 15.4286 9.85601V16.7141C15.4286 17.4243 16.0042 18 16.7143 18C17.4243 18 18 17.4243 18 16.7141V9.85601C18 9.14585 17.4243 8.57011 16.7143 8.57011ZM9.85714 13.7137C9.14709 13.7137 8.57143 14.2894 8.57143 14.9996V16.7141C8.57143 17.4243 9.14709 18 9.85714 18C10.5672 18 11.1429 17.4243 11.1429 16.7141V14.9996C11.1429 14.2894 10.5672 13.7137 9.85714 13.7137ZM12 12.4278C12 11.7176 12.5757 11.1419 13.2857 11.1419C13.9958 11.1419 14.5714 11.7176 14.5714 12.4278V16.7141C14.5714 17.4243 13.9958 18 13.2857 18C12.5757 18 12 17.4243 12 16.7141V12.4278Z" fill="url(#paint0_linear_956_766)"/>
<defs>
<linearGradient id="paint0_linear_956_766" x1="2.39463" y1="54.1414" x2="-18.1436" y2="4.57931" gradientUnits="userSpaceOnUse">
<stop stop-color="#0078D4"/>
<stop offset="0.897238" stop-color="#C73ECC"/>
</linearGradient>
</defs>
</svg>
