<svg width="18" height="18" viewBox="0 0 18 18" fill="none" xmlns="http://www.w3.org/2000/svg">
<path d="M14.1429 7.71429C14.1429 6.83486 14.5839 6.05957 15.2563 5.59543C14.8996 4.00787 14.0132 2.58895 12.743 1.57203C11.4728 0.555098 9.89429 0.000700567 8.26714 0C8.19319 0.00100182 8.12018 0.0166259 8.05229 0.045972C7.98441 0.0753181 7.92301 0.117806 7.87162 0.170989C7.82023 0.224171 7.77987 0.286996 7.75287 0.355845C7.72586 0.424693 7.71275 0.498204 7.71429 0.572143V7.07143C7.71429 7.24192 7.78202 7.40544 7.90257 7.526C8.02313 7.64656 8.18665 7.71429 8.35714 7.71429H14.1429ZM7.01781e-08 8.35714C-0.000248356 10.1215 0.659069 11.8222 1.8485 13.1253C3.03792 14.4285 4.67153 15.2399 6.42857 15.4003V12.8571C6.42858 12.4058 6.54741 11.9623 6.7731 11.5715C6.9988 11.1806 7.32341 10.856 7.71431 10.6303C8.10522 10.4046 8.54864 10.2858 9.00002 10.2858C9.45139 10.2858 9.89481 10.4046 10.2857 10.6303V10.2857C10.2857 9.81771 10.4104 9.378 10.6303 9H7.71429C7.37329 9 7.04627 8.86454 6.80515 8.62342C6.56403 8.3823 6.42857 8.05528 6.42857 7.71429V2.01986C6.42857 1.64186 6.10329 1.34357 5.73171 1.41557C4.11879 1.72678 2.66452 2.58982 1.61861 3.8565C0.572708 5.12318 0.000415889 6.71446 7.01781e-08 8.35714ZM16.7143 6.42857C16.3733 6.42857 16.0463 6.56403 15.8051 6.80515C15.564 7.04627 15.4286 7.37329 15.4286 7.71429V16.7143C15.4286 17.0553 15.564 17.3823 15.8051 17.6234C16.0463 17.8645 16.3733 18 16.7143 18C17.0553 18 17.3823 17.8645 17.6234 17.6234C17.8645 17.3823 18 17.0553 18 16.7143V7.71429C18 7.37329 17.8645 7.04627 17.6234 6.80515C17.3823 6.56403 17.0553 6.42857 16.7143 6.42857ZM12.8571 9C12.5162 9 12.1891 9.13546 11.948 9.37658C11.7069 9.6177 11.5714 9.94472 11.5714 10.2857V16.7143C11.5714 17.0553 11.7069 17.3823 11.948 17.6234C12.1891 17.8645 12.5162 18 12.8571 18C13.1981 18 13.5252 17.8645 13.7663 17.6234C14.0074 17.3823 14.1429 17.0553 14.1429 16.7143V10.2857C14.1429 9.94472 14.0074 9.6177 13.7663 9.37658C13.5252 9.13546 13.1981 9 12.8571 9ZM7.71429 12.8571C7.71429 12.5162 7.84974 12.1891 8.09086 11.948C8.33198 11.7069 8.65901 11.5714 9 11.5714C9.34099 11.5714 9.66802 11.7069 9.90914 11.948C10.1503 12.1891 10.2857 12.5162 10.2857 12.8571V16.7143C10.2857 17.0553 10.1503 17.3823 9.90914 17.6234C9.66802 17.8645 9.34099 18 9 18C8.65901 18 8.33198 17.8645 8.09086 17.6234C7.84974 17.3823 7.71429 17.0553 7.71429 16.7143V12.8571Z" fill="url(#paint0_linear_937_738)"/>
<defs>
<linearGradient id="paint0_linear_937_738" x1="9" y1="0" x2="9" y2="18" gradientUnits="userSpaceOnUse">
<stop stop-color="#4DA9FF"/>
<stop offset="1" stop-color="#0052B3"/>
</linearGradient>
</defs>
</svg>
