<svg width="18" height="18" viewBox="0 0 18 18" fill="none" xmlns="http://www.w3.org/2000/svg">
<g clip-path="url(#clip0_933_2338)">
<path d="M0.5 1H17.5V12H0.5V1Z" fill="white"/>
<path d="M17.4 0.699951H0.6C0.3 0.699951 0 0.899951 0 1.29995V12.1C0 12.4 0.3 12.7 0.6 12.7H17.4C17.7 12.7 18 12.4 18 12.1V1.29995C18 0.899951 17.7 0.699951 17.4 0.699951ZM17 11.4C17 11.6 16.9 11.7 16.7 11.7H1.3C1.1 11.7 1 11.6 1 11.4V1.99995C1 1.79995 1.1 1.69995 1.3 1.69995H16.6C16.9 1.69995 17 1.79995 17 1.99995V11.4Z" fill="#0078D4"/>
<path d="M5.4 16.3C4.9 16.4 4.5 16.8 4.5 17.3H13.5C13.5 16.8 13.1 16.4 12.6 16.3C10.8 16 10.7 14.7 10.8 12.7H7.2C7.2 14.8 7.2 16 5.4 16.3Z" fill="#005BA1"/>
<path d="M5.5 9.80005C7.15685 9.80005 8.5 8.4569 8.5 6.80005C8.5 5.14319 7.15685 3.80005 5.5 3.80005C3.84315 3.80005 2.5 5.14319 2.5 6.80005C2.5 8.4569 3.84315 9.80005 5.5 9.80005Z" fill="#50E6FF"/>
<path d="M8.5 6.80005C8.5 6.0044 8.18393 5.24134 7.62132 4.67873C7.05871 4.11612 6.29565 3.80005 5.5 3.80005V6.80005" fill="#0078D4"/>
<path d="M7.5 9.04005C7.8151 8.75821 8.06708 8.41296 8.23942 8.02693C8.41175 7.6409 8.50055 7.2228 8.5 6.80005H5.5" fill="#005BA1"/>
<path d="M5.4998 8.5001C6.43869 8.5001 7.1998 7.73898 7.1998 6.8001C7.1998 5.86121 6.43869 5.1001 5.4998 5.1001C4.56092 5.1001 3.7998 5.86121 3.7998 6.8001C3.7998 7.73898 4.56092 8.5001 5.4998 8.5001Z" fill="white"/>
<path d="M11.354 5.42508L11.748 5.73208L10.517 7.30908L10.123 7.00008L11.354 5.42508ZM11.854 5.49308L12.22 5.15308L13.584 6.61508L13.218 6.95608L11.854 5.49308Z" fill="#005BA1"/>
<path d="M14.75 3.9519L15.183 4.2019L13.683 6.7999L13.25 6.5499L14.75 3.9519Z" fill="#005BA1"/>
<path d="M10.4999 7.5999C10.8313 7.5999 11.0999 7.33127 11.0999 6.9999C11.0999 6.66853 10.8313 6.3999 10.4999 6.3999C10.1685 6.3999 9.8999 6.66853 9.8999 6.9999C9.8999 7.33127 10.1685 7.5999 10.4999 7.5999Z" fill="#50E6FF"/>
<path d="M11.8998 5.8001C12.2312 5.8001 12.4998 5.53147 12.4998 5.2001C12.4998 4.86873 12.2312 4.6001 11.8998 4.6001C11.5684 4.6001 11.2998 4.86873 11.2998 5.2001C11.2998 5.53147 11.5684 5.8001 11.8998 5.8001Z" fill="#50E6FF"/>
<path d="M13.3998 7.39995C13.7312 7.39995 13.9998 7.13132 13.9998 6.79995C13.9998 6.46858 13.7312 6.19995 13.3998 6.19995C13.0684 6.19995 12.7998 6.46858 12.7998 6.79995C12.7998 7.13132 13.0684 7.39995 13.3998 7.39995Z" fill="#50E6FF"/>
<path d="M14.8998 4.5999C15.2312 4.5999 15.4998 4.33127 15.4998 3.9999C15.4998 3.66853 15.2312 3.3999 14.8998 3.3999C14.5684 3.3999 14.2998 3.66853 14.2998 3.9999C14.2998 4.33127 14.5684 4.5999 14.8998 4.5999Z" fill="#50E6FF"/>
<path d="M10.1001 7.8H11.0001V9.5H10.1001V7.8ZM11.6001 6.9H12.5001V9.5H11.6001V6.9ZM13.0001 7.8H13.9001V9.5H13.0001V7.8ZM14.4001 6H15.3001V9.5H14.4001V6Z" fill="#005BA1"/>
</g>
<defs>
<clipPath id="clip0_933_2338">
<rect width="18" height="18" fill="white"/>
</clipPath>
</defs>
</svg>
