<svg width="16" height="18" viewBox="0 0 16 18" fill="none" xmlns="http://www.w3.org/2000/svg">
<path d="M14.9332 6.9216C14.9317 7.19841 14.6977 7.41177 14.4188 7.41177H8C7.70545 7.41177 7.46667 7.17474 7.46667 6.88235V0.510728C7.46667 0.233919 7.6816 0.00165539 7.96046 0.000109576L8 0C11.8292 0 14.9333 3.08133 14.9333 6.88235L14.9332 6.9216ZM6.4 2.64716C6.4 2.35477 6.16038 2.11544 5.86683 2.13948C2.58167 2.40842 0 5.14028 0 8.47069C0 11.9793 2.86538 14.8236 6.4 14.8236V13.7647C6.4 12.5952 7.35513 11.6471 8.53333 11.6471C8.92191 11.6471 9.28622 11.7502 9.6 11.9304V11.6471C9.6 10.4775 10.5551 9.52941 11.7333 9.52941H12.7115C12.741 9.35522 12.7633 9.17863 12.7781 8.99994C12.8023 8.70854 12.5612 8.47069 12.2667 8.47069L7.46667 8.47068C6.87756 8.47068 6.4 7.99663 6.4 7.41186V2.64716ZM14.9333 8.47059C14.3442 8.47059 13.8667 8.94464 13.8667 9.52941V16.9412C13.8667 17.5259 14.3442 18 14.9333 18C15.5224 18 16 17.5259 16 16.9412V9.52941C16 8.94464 15.5224 8.47059 14.9333 8.47059ZM11.7333 10.5882C11.1442 10.5882 10.6667 11.0623 10.6667 11.6471V16.9412C10.6667 17.5259 11.1442 18 11.7333 18C12.3224 18 12.8 17.5259 12.8 16.9412V11.6471C12.8 11.0623 12.3224 10.5882 11.7333 10.5882ZM7.46667 13.7647C7.46667 13.1799 7.94423 12.7059 8.53333 12.7059C9.12244 12.7059 9.6 13.1799 9.6 13.7647V16.9412C9.6 17.5259 9.12244 18 8.53333 18C7.94423 18 7.46667 17.5259 7.46667 16.9412V13.7647Z" fill="url(#paint0_linear_1158_11988)"/>
<defs>
<linearGradient id="paint0_linear_1158_11988" x1="32.6087" y1="-16.4867" x2="37.4452" y2="23.3677" gradientUnits="userSpaceOnUse">
<stop stop-color="#F4364C"/>
<stop offset="0.412298" stop-color="#C73ECC"/>
<stop offset="1" stop-color="#0078D4"/>
</linearGradient>
</defs>
</svg>
