<svg width="18" height="18" viewBox="0 0 18 18" fill="none" xmlns="http://www.w3.org/2000/svg">
<g clip-path="url(#clip0_576_2073)">
<path d="M5.625 0C5.29729 0.0347718 4.97482 0.108027 4.66425 0.21825C4.35101 0.332381 4.05701 0.493609 3.79238 0.696375C3.50325 0.916875 3.20738 1.09462 2.90363 1.23075C2.60363 1.36585 2.29131 1.47172 1.971 1.54688C1.6519 1.62183 1.32781 1.67372 1.00125 1.70213C0.67275 1.72913 0.338625 1.74375 0 1.74375V5.34375C0 5.49337 0.005625 5.64412 0.01575 5.79375C0.025875 5.94338 0.039375 6.09413 0.05625 6.24375H5.625V0ZM12.3649 5.625C12.3694 5.53162 12.375 5.43713 12.375 5.34375V1.74375C12.0364 1.74375 11.7022 1.72913 11.3737 1.70213C11.0472 1.67372 10.7231 1.62183 10.404 1.54688C10.0838 1.47121 9.77156 1.36536 9.47137 1.23075C9.15553 1.08745 8.8573 0.908138 8.58263 0.696375C8.31799 0.493609 8.02399 0.332381 7.71075 0.21825C7.40018 0.108027 7.07771 0.0347718 6.75 0V6.24375H9.56812C10.445 5.83859 11.399 5.62753 12.3649 5.625ZM0.207 7.36875C0.3825 8.13825 0.6525 8.85938 1.017 9.53438C1.37643 10.2023 1.80355 10.8314 2.29163 11.412C2.77762 11.9891 3.30637 12.5156 3.88012 12.9938C4.45275 13.4719 5.03438 13.9039 5.625 14.2875V7.36875H0.207Z" fill="#0078D4"/>
<path fill-rule="evenodd" clip-rule="evenodd" d="M17.9291 11.5717H16.308C16.362 11.8316 16.3935 12.0993 16.3935 12.375C16.3935 13.1695 16.1579 13.9461 15.7165 14.6068C15.2751 15.2674 14.6478 15.7823 13.9138 16.0864C13.1798 16.3905 12.3721 16.4701 11.5928 16.3152C10.8135 16.1603 10.0977 15.7778 9.53581 15.2161C8.97393 14.6543 8.59122 13.9386 8.43608 13.1594C8.28094 12.3802 8.36034 11.5725 8.66423 10.8384C8.96813 10.1043 9.48287 9.47675 10.1434 9.03518C10.8039 8.59361 11.5805 8.35781 12.375 8.35758H13.9826V9.96521L18 7.55321L13.9826 5.14233V6.74996H12.375C11.2625 6.74996 10.1749 7.07986 9.24992 7.69794C8.32489 8.31603 7.60392 9.19453 7.17818 10.2224C6.75244 11.2502 6.64104 12.3812 6.85809 13.4723C7.07513 14.5635 7.61086 15.5658 8.39753 16.3524C9.1842 17.1391 10.1865 17.6748 11.2776 17.8919C12.3688 18.1089 13.4998 17.9975 14.5276 17.5718C15.5554 17.146 16.4339 16.4251 17.052 15.5C17.6701 14.575 18 13.4875 18 12.375C18 12.1005 17.973 11.8327 17.9291 11.5717Z" fill="#0078D4"/>
</g>
<defs>
<clipPath id="clip0_576_2073">
<rect width="18" height="18" fill="white"/>
</clipPath>
</defs>
</svg>
