<svg width="18" height="18" viewBox="0 0 18 18" fill="none" xmlns="http://www.w3.org/2000/svg">
<path d="M18 9C17.2676 10.2598 16.5439 11.5107 15.8291 12.7529C15.1143 13.9951 14.3877 15.249 13.6494 16.5146L13.4912 16.7959H4.5L4.3418 16.5146C3.60937 15.2549 2.88574 14.001 2.1709 12.7529C1.45605 11.5049 0.732422 10.2539 0 9C0.720703 7.6875 1.4707 6.38965 2.25 5.10645C3.0293 3.82324 3.7793 2.52246 4.5 1.2041H13.4912C13.8486 1.86621 14.2178 2.51953 14.5986 3.16406C14.9795 3.80859 15.3604 4.45312 15.7412 5.09766C16.1221 5.74219 16.5059 6.38965 16.8926 7.04004C17.2793 7.69043 17.6484 8.34375 18 9ZM13.5879 8.32324L12.9287 2.14453L6.9082 4.36816C6.91992 4.40918 6.92578 4.44727 6.92578 4.48242C6.92578 4.51758 6.92578 4.55859 6.92578 4.60547L13.3594 8.42871C13.4238 8.3877 13.5 8.35254 13.5879 8.32324ZM6.84668 12.8145L13.0254 9.21094C13.0137 9.15234 13.0078 9.10547 13.0078 9.07031C13.0078 9.00586 13.0166 8.94141 13.0342 8.87695L6.67969 5.10645C6.60352 5.1709 6.5127 5.22363 6.40723 5.26465L6.57422 12.6475C6.68555 12.6885 6.77637 12.7441 6.84668 12.8145ZM5.87109 12.7529C5.91211 12.7178 5.96191 12.6914 6.02051 12.6738L5.85352 5.24707C5.8125 5.23535 5.77734 5.21777 5.74805 5.19434C5.71875 5.1709 5.68652 5.14453 5.65137 5.11523L1.07227 8.99121L5.87109 12.7529ZM12.375 1.75781H5.12402L6.07324 3.77051H6.1084C6.12012 3.77051 6.13477 3.76758 6.15234 3.76172C6.22852 3.76172 6.30176 3.77344 6.37207 3.79688C6.44238 3.82031 6.5127 3.85254 6.58301 3.89355L12.375 1.75781ZM4.64941 2.04785L1.0459 8.28809L5.3877 4.61426C5.3877 4.49707 5.39941 4.3916 5.42285 4.29785C5.44629 4.2041 5.49902 4.11328 5.58105 4.02539L4.64941 2.04785ZM1.01074 9.6416L4.6582 15.9521L5.75684 13.8955C5.69238 13.8311 5.64258 13.752 5.60742 13.6582C5.57227 13.5645 5.55469 13.4678 5.55469 13.3682V13.2891C5.55469 13.2656 5.56055 13.2393 5.57227 13.21L1.01074 9.6416ZM5.13281 16.2422H12.4365L6.83789 13.957C6.74414 14.0391 6.65332 14.0918 6.56543 14.1152C6.47754 14.1387 6.37207 14.1504 6.24902 14.1504L5.13281 16.2422ZM12.9375 15.8467L13.5439 9.80859C13.4619 9.78516 13.3828 9.74414 13.3066 9.68555L7.09277 13.3066V13.4648L12.9375 15.8467ZM13.5088 15.6621L17.2002 9.28125H14.5283C14.499 9.39258 14.4463 9.48926 14.3701 9.57129C14.2939 9.65332 14.2061 9.7207 14.1064 9.77344L13.5088 15.6621ZM14.4668 8.71875H17.2002L13.5088 2.34668L14.1504 8.39355C14.291 8.47559 14.3965 8.58398 14.4668 8.71875Z" fill="#0883D9"/>
</svg>
