<svg width="54" height="32" viewBox="0 0 54 32" fill="none" xmlns="http://www.w3.org/2000/svg">
<path d="M11 28.7763C11 29.4521 11.5747 29.9999 12.2845 29.9999H41.7155C42.4253 29.9999 43 29.4515 43 28.7763V7.26587H11V28.7763Z" fill="#3898C6"/>
<path d="M41.7155 2H12.2845C12.1151 2.00059 11.9474 2.03457 11.7911 2.10001C11.6348 2.16545 11.493 2.26106 11.3737 2.38137C11.2544 2.50168 11.16 2.64433 11.0959 2.80116C11.0317 2.958 10.9992 3.12593 11 3.29536V8H43V3.29536C43.0007 3.12595 42.9681 2.95806 42.904 2.80126C42.8398 2.64447 42.7454 2.50185 42.6261 2.38156C42.5068 2.26126 42.365 2.16565 42.2088 2.10018C42.0525 2.03471 41.8849 2.00067 41.7155 2V2Z" fill="#7B7B7B"/>
<path d="M13 8H41V28H13V8Z" fill="white"/>
<path d="M27 12H37V14H27V12ZM27 16H35V18H27V16ZM27 20H37V22H27V20ZM17 12V24H25V12H17ZM23 22H19V14H23V22Z" fill="#3898C6"/>
<path d="M39 4H41V6H39V4ZM35 4H37V6H35V4ZM31 4H33V6H31V4Z" fill="white"/>
</svg>
