<svg width="54" height="32" viewBox="0 0 54 32" fill="none" xmlns="http://www.w3.org/2000/svg">
<path d="M39.3922 5.12018L37.73 3.45618L41.0455 0.137065C41.086 0.0964822 41.1341 0.0642828 41.187 0.0423126C41.2399 0.0203424 41.2967 0.0090332 41.354 0.0090332C41.4113 0.0090332 41.468 0.0203424 41.521 0.0423126C41.5739 0.0642828 41.622 0.0964822 41.6624 0.137065L42.7113 1.18595C42.7519 1.22642 42.7841 1.27449 42.8061 1.32742C42.828 1.38035 42.8393 1.43709 42.8393 1.4944C42.8393 1.55171 42.828 1.60845 42.8061 1.66138C42.7841 1.71431 42.7519 1.76238 42.7113 1.80284L39.3958 5.12373L39.3922 5.12018Z" fill="#32BEDD"/>
<path d="M14.564 26.9194L16.2333 28.5905L12.9569 31.8652C12.8759 31.9459 12.7663 31.9912 12.652 31.9912C12.5377 31.9912 12.4281 31.9459 12.3471 31.8652L11.2929 30.8128C11.2515 30.7729 11.2185 30.7252 11.1958 30.6724C11.1731 30.6197 11.1612 30.5629 11.1607 30.5054C11.1602 30.448 11.1711 30.391 11.1929 30.3379C11.2147 30.2847 11.2469 30.2364 11.2875 30.1959L14.564 26.9194Z" fill="#0078D4"/>
<path d="M15.0758 20.0268C14.0256 21.0771 13.4355 22.5015 13.4355 23.9868C13.4355 25.4721 14.0256 26.8966 15.0758 27.9468C16.1261 28.9971 17.5505 29.5871 19.0358 29.5871C20.5211 29.5871 21.9456 28.9971 22.9958 27.9468L25.5629 25.3779L17.6447 17.4597L15.0758 20.0268Z" fill="url(#paint0_linear_678_7146)"/>
<path d="M24.9392 14.53L25.0939 14.6865C25.2517 14.8445 25.3404 15.0587 25.3404 15.282C25.3404 15.5054 25.2517 15.7196 25.0939 15.8776L21.8814 19.09L20.5356 17.7443L23.7481 14.5283C23.9061 14.3704 24.1203 14.2817 24.3436 14.2817C24.567 14.2817 24.7812 14.3722 24.9392 14.53ZM28.2672 17.8598L28.4236 18.0163C28.5815 18.1743 28.6702 18.3885 28.6702 18.6118C28.6702 18.8351 28.5815 19.0494 28.4236 19.2074L25.2076 22.4234L23.8619 21.0758L27.0796 17.8598C27.2376 17.702 27.4519 17.6133 27.6752 17.6133C27.8985 17.6133 28.1127 17.702 28.2708 17.8598H28.2672Z" fill="#C3F1FF"/>
<path d="M27.7501 24.0538L18.899 15.2027C18.7345 15.0382 18.4677 15.0382 18.3031 15.2027L17.1416 16.3643C16.9771 16.5288 16.9771 16.7956 17.1416 16.9601L25.9927 25.8112C26.1572 25.9757 26.424 25.9757 26.5886 25.8112L27.7501 24.6497C27.9146 24.4851 27.9146 24.2183 27.7501 24.0538Z" fill="#5EA0EF"/>
<path d="M38.9266 11.9807C39.9768 10.9304 40.5669 9.50598 40.5669 8.0207C40.5669 6.53541 39.9768 5.11095 38.9266 4.0607C37.8763 3.01044 36.4519 2.42041 34.9666 2.42041C33.4813 2.42041 32.0568 3.01044 31.0066 4.0607L28.4395 6.62958L36.3577 14.5478L38.9266 11.9807Z" fill="url(#paint1_linear_678_7146)"/>
<path d="M29.067 17.4739L28.9124 17.3175C28.7545 17.1595 28.6659 16.9453 28.6659 16.7219C28.6659 16.4986 28.7545 16.2844 28.9124 16.1264L32.1266 12.9104L33.4741 14.2579L30.2564 17.4775C30.098 17.6343 29.8839 17.722 29.661 17.7213C29.4381 17.7207 29.2245 17.6317 29.067 17.4739ZM25.7355 14.1477L25.579 13.9913C25.4212 13.8333 25.3325 13.6191 25.3325 13.3957C25.3325 13.1724 25.4212 12.9582 25.579 12.8002L28.7933 9.58594L30.1408 10.9335L26.9301 14.1459C26.7721 14.3038 26.5579 14.3925 26.3346 14.3925C26.1112 14.3925 25.897 14.3038 25.739 14.1459L25.7355 14.1477Z" fill="#C3F1FF"/>
<path d="M26.2538 7.95328L35.1049 16.8044C35.2694 16.9689 35.5362 16.9689 35.7008 16.8044L36.8623 15.6428C37.0268 15.4783 37.0268 15.2115 36.8623 15.047L28.0112 6.19588C27.8467 6.03134 27.5799 6.03134 27.4154 6.19588L26.2538 7.35742C26.0893 7.52196 26.0893 7.78874 26.2538 7.95328Z" fill="#50E6FF"/>
<defs>
<linearGradient id="paint0_linear_678_7146" x1="19.4987" y1="17.4576" x2="19.4987" y2="29.5859" gradientUnits="userSpaceOnUse">
<stop stop-color="#5EA0EF"/>
<stop offset="0.997" stop-color="#0078D4"/>
</linearGradient>
<linearGradient id="paint1_linear_678_7146" x1="34.5038" y1="2.4205" x2="34.5038" y2="14.5463" gradientUnits="userSpaceOnUse">
<stop stop-color="#50E6FF"/>
<stop offset="0.997" stop-color="#32BEDD"/>
</linearGradient>
</defs>
</svg>
