<svg width="54" height="32" viewBox="0 0 54 32" fill="none" xmlns="http://www.w3.org/2000/svg">
<path d="M39.5867 1.83105H12.0667C11.4776 1.83105 11 2.30862 11 2.89772V21.8666C11 22.4557 11.4776 22.9333 12.0667 22.9333H39.5867C40.1758 22.9333 40.6533 22.4557 40.6533 21.8666V2.89772C40.6533 2.30862 40.1758 1.83105 39.5867 1.83105Z" fill="#0078D4"/>
<path opacity="0.9" d="M38.3957 3.30664H13.2579C12.9634 3.30664 12.7246 3.54542 12.7246 3.83997V20.7289C12.7246 21.0234 12.9634 21.2622 13.2579 21.2622H38.3957C38.6903 21.2622 38.9291 21.0234 38.9291 20.7289V3.83997C38.9291 3.54542 38.6903 3.30664 38.3957 3.30664Z" fill="url(#paint0_linear_608_5113)"/>
<path d="M42.4666 7.32446H29.8444C29.5498 7.32446 29.311 7.56324 29.311 7.8578V29.6356C29.311 29.9301 29.5498 30.1689 29.8444 30.1689H42.4666C42.7611 30.1689 42.9999 29.9301 42.9999 29.6356V7.8578C42.9999 7.56324 42.7611 7.32446 42.4666 7.32446Z" fill="url(#paint1_linear_608_5113)"/>
<path d="M37.5424 8.08887H34.7869C34.6789 8.08887 34.5913 8.17642 34.5913 8.28442V8.31998C34.5913 8.42798 34.6789 8.51553 34.7869 8.51553H37.5424C37.6504 8.51553 37.738 8.42798 37.738 8.31998V8.28442C37.738 8.17642 37.6504 8.08887 37.5424 8.08887Z" fill="#F2F2F2"/>
<path d="M27.249 2.48877H24.4934C24.3854 2.48877 24.2979 2.57632 24.2979 2.68433V2.71988C24.2979 2.82788 24.3854 2.91544 24.4934 2.91544H27.249C27.357 2.91544 27.4445 2.82788 27.4445 2.71988V2.68433C27.4445 2.57632 27.357 2.48877 27.249 2.48877Z" fill="#F2F2F2"/>
<path d="M36.5644 28.3733H35.7467C35.5503 28.3733 35.3911 28.5325 35.3911 28.7288V29.3155C35.3911 29.5119 35.5503 29.6711 35.7467 29.6711H36.5644C36.7608 29.6711 36.92 29.5119 36.92 29.3155V28.7288C36.92 28.5325 36.7608 28.3733 36.5644 28.3733Z" fill="#F2F2F2"/>
<defs>
<linearGradient id="paint0_linear_608_5113" x1="25.8268" y1="21.2622" x2="25.8268" y2="3.30664" gradientUnits="userSpaceOnUse">
<stop stop-color="#D2EBFF"/>
<stop offset="1" stop-color="#F0FFFD"/>
</linearGradient>
<linearGradient id="paint1_linear_608_5113" x1="36.1555" y1="36.2845" x2="36.1555" y2="4.16002" gradientUnits="userSpaceOnUse">
<stop stop-color="#0078D4"/>
<stop offset="0.17" stop-color="#1C84DC"/>
<stop offset="0.38" stop-color="#3990E4"/>
<stop offset="0.59" stop-color="#4D99EA"/>
<stop offset="0.8" stop-color="#5A9EEE"/>
<stop offset="1" stop-color="#5EA0EF"/>
</linearGradient>
</defs>
</svg>
