<svg width="54" height="32" viewBox="0 0 54 32" fill="none" xmlns="http://www.w3.org/2000/svg">
<g clip-path="url(#clip0_676_7099)">
<path d="M32.5 6.23121C32.5 9.67921 29.7168 12.4624 26.2688 12.4624C22.8208 12.4624 20.0376 9.67921 20.0376 6.23121C20.0984 2.78321 22.8808 6.23207e-06 26.2688 6.23207e-06C27.0874 -0.00115232 27.8982 0.159232 28.6547 0.471968C29.4113 0.784705 30.0987 1.24365 30.6775 1.8225C31.2564 2.40135 31.7153 3.08873 32.028 3.84526C32.3408 4.60179 32.5012 5.41259 32.5 6.23121ZM30.8056 14.4L26.2688 20.752L21.7312 14.4H15V30.4H37.4V14.4H30.8056Z" fill="#59B4D9"/>
<path opacity="0.2" d="M20.0984 6.2312C20.0984 9.6192 22.8208 12.3416 26.148 12.4624L27.7208 0.2424C27.2368 0.0608 26.7528 0 26.2688 0C22.8808 0 20.0984 2.7832 20.0984 6.2312ZM21.7312 14.4H15V30.4H23.9096L25.3008 19.4656L21.7312 14.4Z" fill="white"/>
<path d="M32.0192 25.2449C34.151 25.2449 35.8792 23.5167 35.8792 21.3849C35.8792 19.2531 34.151 17.5249 32.0192 17.5249C29.8874 17.5249 28.1592 19.2531 28.1592 21.3849C28.1592 23.5167 29.8874 25.2449 32.0192 25.2449Z" fill="#DD5900"/>
<path opacity="0.7" d="M32.0192 24.2799C33.6182 24.2799 34.9144 22.9837 34.9144 21.3847C34.9144 19.7857 33.6182 18.4895 32.0192 18.4895C30.4202 18.4895 29.124 19.7857 29.124 21.3847C29.124 22.9837 30.4202 24.2799 32.0192 24.2799Z" fill="#FCD116"/>
<path d="M32.0194 24.2792C30.9398 24.2787 29.8995 23.874 29.1034 23.1448L28.645 31.948L31.9706 28.6224L35.3482 32L35.397 31.5176L34.9354 23.1448C34.1393 23.874 33.099 24.2787 32.0194 24.2792Z" fill="#DD5900"/>
</g>
<defs>
<clipPath id="clip0_676_7099">
<rect width="32" height="32" fill="white" transform="translate(11)"/>
</clipPath>
</defs>
</svg>
