<svg width="54" height="32" viewBox="0 0 54 32" fill="none" xmlns="http://www.w3.org/2000/svg">
<path d="M43 16C41.6979 18.2396 40.4115 20.4635 39.1406 22.6719C37.8698 24.8802 36.5781 27.1094 35.2656 29.3594L34.9844 29.8594H19L18.7188 29.3594C17.4167 27.1198 16.1302 24.8906 14.8594 22.6719C13.5885 20.4531 12.3021 18.2292 11 16C12.2812 13.6667 13.6146 11.3594 15 9.07812C16.3854 6.79688 17.7188 4.48438 19 2.14062H34.9844C35.6198 3.31771 36.276 4.47917 36.9531 5.625C37.6302 6.77083 38.3073 7.91667 38.9844 9.0625C39.6615 10.2083 40.3438 11.3594 41.0312 12.5156C41.7188 13.6719 42.375 14.8333 43 16ZM35.1562 14.7969L33.9844 3.8125L23.2812 7.76562C23.3021 7.83854 23.3125 7.90625 23.3125 7.96875C23.3125 8.03125 23.3125 8.10417 23.3125 8.1875L34.75 14.9844C34.8646 14.9115 35 14.849 35.1562 14.7969ZM23.1719 22.7812L34.1562 16.375C34.1354 16.2708 34.125 16.1875 34.125 16.125C34.125 16.0104 34.1406 15.8958 34.1719 15.7812L22.875 9.07812C22.7396 9.19271 22.5781 9.28646 22.3906 9.35938L22.6875 22.4844C22.8854 22.5573 23.0469 22.6562 23.1719 22.7812ZM21.4375 22.6719C21.5104 22.6094 21.599 22.5625 21.7031 22.5312L21.4062 9.32812C21.3333 9.30729 21.2708 9.27604 21.2188 9.23438C21.1667 9.19271 21.1094 9.14583 21.0469 9.09375L12.9062 15.9844L21.4375 22.6719ZM33 3.125H20.1094L21.7969 6.70312H21.8594C21.8802 6.70312 21.9062 6.69792 21.9375 6.6875C22.0729 6.6875 22.2031 6.70833 22.3281 6.75C22.4531 6.79167 22.5781 6.84896 22.7031 6.92188L33 3.125ZM19.2656 3.64062L12.8594 14.7344L20.5781 8.20312C20.5781 7.99479 20.599 7.80729 20.6406 7.64062C20.6823 7.47396 20.776 7.3125 20.9219 7.15625L19.2656 3.64062ZM12.7969 17.1406L19.2812 28.3594L21.2344 24.7031C21.1198 24.5885 21.0312 24.4479 20.9688 24.2812C20.9062 24.1146 20.875 23.9427 20.875 23.7656V23.625C20.875 23.5833 20.8854 23.5365 20.9062 23.4844L12.7969 17.1406ZM20.125 28.875H33.1094L23.1562 24.8125C22.9896 24.9583 22.8281 25.0521 22.6719 25.0938C22.5156 25.1354 22.3281 25.1562 22.1094 25.1562L20.125 28.875ZM34 28.1719L35.0781 17.4375C34.9323 17.3958 34.7917 17.3229 34.6562 17.2188L23.6094 23.6562V23.9375L34 28.1719ZM35.0156 27.8438L41.5781 16.5H36.8281C36.776 16.6979 36.6823 16.8698 36.5469 17.0156C36.4115 17.1615 36.2552 17.2812 36.0781 17.375L35.0156 27.8438ZM36.7188 15.5H41.5781L35.0156 4.17188L36.1562 14.9219C36.4062 15.0677 36.5938 15.2604 36.7188 15.5Z" fill="#0883D9"/>
</svg>
