<svg width="54" height="32" viewBox="0 0 54 32" fill="none" xmlns="http://www.w3.org/2000/svg">
<g clip-path="url(#clip0_607_5092)">
<mask id="mask0_607_5092" style="mask-type:luminance" maskUnits="userSpaceOnUse" x="11" y="0" width="32" height="32">
<path d="M43 0H11V32H43V0Z" fill="white"/>
</mask>
<g mask="url(#mask0_607_5092)">
<path d="M35.8891 29.9558C36.1971 29.9606 36.5029 29.9037 36.7886 29.7885C37.0743 29.6735 37.334 29.5023 37.5527 29.2854C37.7714 29.0683 37.9443 28.8099 38.0617 28.5251C38.179 28.2403 38.2382 27.935 38.2357 27.6269C38.2451 27.5323 38.2451 27.4371 38.2357 27.3425C37.3113 19.9647 33.1157 13.9558 25.0802 13.9558C17.0446 13.9558 12.778 19.0403 11.9069 27.3603C11.8471 27.9843 12.0357 28.6065 12.4317 29.0923C12.8277 29.5782 13.3992 29.8884 14.0224 29.9558H35.8891Z" fill="url(#paint0_linear_607_5092)"/>
<path d="M25.2224 15.6977C23.7981 15.7017 22.4029 15.2943 21.2046 14.5244L25.0801 24.8888L29.0268 14.5955C27.881 15.2987 26.5666 15.6795 25.2224 15.6977Z" fill="white"/>
<path d="M25.1331 15.7156C29.2273 15.7156 32.5464 12.3965 32.5464 8.30225C32.5464 4.20797 29.2273 0.888916 25.1331 0.888916C21.0388 0.888916 17.7197 4.20797 17.7197 8.30225C17.7197 12.3965 21.0388 15.7156 25.1331 15.7156Z" fill="url(#paint1_linear_607_5092)"/>
<path d="M42.0937 19.7866V27.3244L35.6226 31.1111V23.5733L42.0937 19.7866Z" fill="#32BEDD"/>
<path d="M42.0936 19.7867L35.6225 23.5733L29.1514 19.7867L35.6225 16L42.0936 19.7867Z" fill="#9CEBFF"/>
<path d="M35.6225 23.5733V31.1111L29.1514 27.3244V19.7866L35.6225 23.5733Z" fill="#50E6FF"/>
<path d="M29.1514 27.3244L35.6225 23.5732V31.111L29.1514 27.3244Z" fill="#9CEBFF"/>
<path d="M42.0937 27.3244L35.6226 23.5732V31.111L42.0937 27.3244Z" fill="#50E6FF"/>
</g>
</g>
<defs>
<linearGradient id="paint0_linear_607_5092" x1="25.098" y1="31.9114" x2="25.098" y2="9.99137" gradientUnits="userSpaceOnUse">
<stop stop-color="#5E9624"/>
<stop offset="0.26" stop-color="#70A828"/>
<stop offset="0.79" stop-color="#9FD732"/>
<stop offset="1" stop-color="#B4EC36"/>
</linearGradient>
<linearGradient id="paint1_linear_607_5092" x1="135.592" y1="137.443" x2="135.592" y2="-29.0609" gradientUnits="userSpaceOnUse">
<stop stop-color="#5E9624"/>
<stop offset="0.26" stop-color="#70A828"/>
<stop offset="0.79" stop-color="#9FD732"/>
<stop offset="1" stop-color="#B4EC36"/>
</linearGradient>
<clipPath id="clip0_607_5092">
<rect width="32" height="32" fill="white" transform="translate(11)"/>
</clipPath>
</defs>
</svg>
