<?xml version="1.0" encoding="UTF-8" standalone="no"?>
<!DOCTYPE svg PUBLIC "-//W3C//DTD SVG 1.1//EN" "http://www.w3.org/Graphics/SVG/1.1/DTD/svg11.dtd">
<!-- Generated by Microsoft Visio, SVG Export ts-step-install-software-updates.svg Page-2 -->
<svg xmlns="http://www.w3.org/2000/svg" xmlns:xlink="http://www.w3.org/1999/xlink" xmlns:ev="http://www.w3.org/2001/xml-events"
		width="16.5in" height="21.5in" viewBox="0 0 1188 1548" xml:space="preserve" color-interpolation-filters="sRGB" class="st21">
	<style type="text/css">
	<![CDATA[
		.st1 {marker-end:url(#mrkr4-6);stroke:#000000;stroke-linecap:round;stroke-linejoin:round;stroke-width:1.5}
		.st2 {fill:#000000;fill-opacity:1;stroke:#000000;stroke-opacity:1;stroke-width:0.37313432835821}
		.st3 {fill:#fae6d9;stroke:#ffffff;stroke-linecap:round;stroke-linejoin:round;stroke-width:0.5}
		.st4 {fill:#dae7f6;stroke:#ffffff;stroke-linecap:round;stroke-linejoin:round;stroke-width:0.5}
		.st5 {fill:#ffc000;stroke:#000000;stroke-linecap:round;stroke-linejoin:round;stroke-width:1.5}
		.st6 {fill:#000000;font-family:Segoe UI;font-size:0.666664em;font-weight:bold}
		.st7 {fill:#f09609;stroke:#000000;stroke-linecap:round;stroke-linejoin:round;stroke-width:1.5}
		.st8 {fill:none;stroke:none;stroke-linecap:round;stroke-linejoin:round;stroke-width:0.5}
		.st9 {font-size:1em;font-weight:normal}
		.st10 {fill:#000000;font-family:Segoe UI;font-size:1.16666em}
		.st11 {fill:#ffffff;stroke:none;stroke-linecap:round;stroke-linejoin:round;stroke-width:1.5}
		.st12 {fill:#000000;font-family:Segoe UI;font-size:0.666664em}
		.st13 {font-size:1em}
		.st14 {fill:#ffffff;stroke:none;stroke-linecap:round;stroke-linejoin:round;stroke-width:0.5}
		.st15 {font-size:1em;font-weight:bold}
		.st16 {font-size:1em;font-style:italic;font-weight:normal}
		.st17 {fill:#d38306;stroke:#ffffff;stroke-linecap:round;stroke-linejoin:round;stroke-width:0.5}
		.st18 {fill:#feffff;font-family:Segoe UI;font-size:1.00001em}
		.st19 {fill:none;stroke:#c3c3c3;stroke-linecap:round;stroke-linejoin:round;stroke-width:1}
		.st20 {stroke:#7f7f7f;stroke-linecap:round;stroke-linejoin:round;stroke-width:1.5}
		.st21 {fill:none;fill-rule:evenodd;font-size:12px;overflow:visible;stroke-linecap:square;stroke-miterlimit:3}
	]]>
	</style>

	<defs id="Markers">
		<g id="lend4">
			<path d="M 2 1 L 0 0 L 2 -1 L 2 1 " style="stroke:none"/>
		</g>
		<marker id="mrkr4-6" class="st2" refX="-5.36" orient="auto" markerUnits="strokeWidth" overflow="visible">
			<use xlink:href="#lend4" transform="scale(-2.68,-2.68) "/>
		</marker>
	</defs>
	<g>
		<title>Page-2</title>
		<g id="shape1227-1" transform="translate(527.7,-548.213)">
			<title>Dynamic connector.1227</title>
			<path d="M0 1557 L-114.66 1557" class="st1"/>
		</g>
		<g id="shape1221-7" transform="translate(153.36,-567)">
			<title>Sheet.1221</title>
			<rect x="0" y="1388.25" width="183.015" height="159.75" class="st3"/>
		</g>
		<g id="shape1161-9" transform="translate(337.5,-981)">
			<title>Sheet.1161</title>
			<rect x="0" y="1377" width="171" height="171" class="st4"/>
		</g>
		<g id="shape1160-11" transform="translate(156.375,-981)">
			<title>Sheet.1160</title>
			<rect x="0" y="1377" width="171" height="171" class="st3"/>
		</g>
		<g id="shape59-13" transform="translate(153,-1435.95)">
			<title>Start/End.10</title>
			<desc>Start</desc>
			<path d="M10.35 1548 L31.05 1548 A10.35 11.025 -180 0 0 31.05 1525.95 L10.35 1525.95 A10.35 11.025 -180 1 0 10.35 1548
						 Z" class="st5"/>
			<text x="11.6" y="1539.38" class="st6">Start</text>		</g>
		<g id="shape62-16" transform="translate(162,-1349.21)">
			<title>Process.13</title>
			<rect x="0" y="1530.45" width="23.4" height="17.55" class="st7"/>
		</g>
		<g id="shape66-18" transform="translate(198.562,-1396.69)">
			<title>Sheet.66</title>
			<desc>Process starts on the client: A task sequence running on a cl...</desc>
			<rect x="0" y="1489.5" width="130.472" height="58.5" class="st8"/>
			<text x="2" y="1498.7" class="st6">Process starts on the client: <tspan x="2" dy="1.2em" class="st9">A task sequence running on a client </tspan><tspan
						x="2" dy="1.2em" class="st9">includes the Install Software </tspan><tspan x="2" dy="1.2em" class="st9">Updates step.</tspan></text>		</g>
		<g id="shape67-24" transform="translate(18,-1471.5)">
			<title>Sheet.67</title>
			<desc>Task Sequence Step – Install Software Updates</desc>
			<rect x="0" y="1519.5" width="828" height="28.5" class="st8"/>
			<text x="270.64" y="1537.95" class="st10">Task Sequence Step – Install Software Updates</text>		</g>
		<g id="shape1021-27" transform="translate(197.437,-1314.45)">
			<title>Sheet.1021</title>
			<desc>Compile and evaluate policies The client compiles all softwar...</desc>
			<rect x="0" y="1494.45" width="130.472" height="53.55" class="st8"/>
			<text x="2" y="1503.65" class="st6">Compile and evaluate policies <tspan x="2" dy="1.2em" class="st9">The client compiles all software </tspan><tspan
						x="2" dy="1.2em" class="st9">update policies into WMI </tspan><tspan x="2" dy="1.2em" class="st9">RequestedConfigs namespace.</tspan></text>		</g>
		<g id="shape1113-33" transform="translate(164.7,-1349.21)">
			<title>Dynamic connector.1113</title>
			<path d="M9 1548 L9 1603.3" class="st1"/>
		</g>
		<g id="shape1114-38" transform="translate(164.7,-1435.95)">
			<title>Dynamic connector.1114</title>
			<path d="M9 1548 L9 1609.15" class="st1"/>
		</g>
		<g id="shape1115-43" transform="translate(164.801,-1268.32)">
			<title>Dynamic connector.1074</title>
			<path d="M8.9 1548 L9.09 1669.79" class="st1"/>
		</g>
		<g id="shape1116-48" transform="translate(162.202,-1233)">
			<title>Sheet.1116</title>
			<desc>Yes</desc>
			<rect x="0" y="1530.45" width="23.4" height="17.55" class="st11"/>
			<text x="5.35" y="1541.63" class="st6">Yes</text>		</g>
		<g id="shape1117-51" transform="translate(188.156,-1257.04)">
			<title>Sheet.1117</title>
			<desc>Is this instance the first time it’s called?</desc>
			<rect x="0" y="1536" width="78.39" height="12" class="st8"/>
			<text x="2" y="1545.2" class="st12">Is this instance the <tspan x="2" dy="1.2em" class="st13">first time it</tspan>’s called?</text>		</g>
		<g id="shape1118-55" transform="translate(185.4,-1277.1)">
			<title>Dynamic connector.1094</title>
			<path d="M0 1548 L89.1 1548 L89.1 1589.77 L94.09 1589.77" class="st1"/>
		</g>
		<g id="shape1119-60" transform="translate(162,-1268.32)">
			<title>Decision.1066</title>
			<path d="M0 1539.22 L11.7 1530.45 L23.4 1539.22 L11.7 1548 L0 1539.22 Z" class="st5"/>
		</g>
		<g id="shape1120-62" transform="translate(206.865,-1268.32)">
			<title>Sheet.1120</title>
			<desc>No</desc>
			<rect x="0" y="1530.45" width="23.4" height="17.55" class="st14"/>
			<text x="7.2" y="1541.63" class="st6">No</text>		</g>
		<g id="shape1121-65" transform="translate(313.684,-1215.26)">
			<title>Sheet.1121</title>
			<desc>Is the step configured to Evaluate software updates from cach...</desc>
			<rect x="0" y="1536" width="107.297" height="12" class="st8"/>
			<text x="2" y="1545.2" class="st12">Is the step configured to <tspan x="2" dy="1.2em" class="st15">Evaluate software updates </tspan><tspan
						x="2" dy="1.2em" class="st15">from cached scan results</tspan>?</text>		</g>
		<g id="shape1122-70" transform="translate(287.528,-1226.55)">
			<title>Decision.1122</title>
			<path d="M0 1539.22 L11.7 1530.45 L23.4 1539.22 L11.7 1548 L0 1539.22 Z" class="st5"/>
		</g>
		<g id="shape1123-72" transform="translate(162.202,-1120.95)">
			<title>Process.1123</title>
			<rect x="0" y="1530.45" width="23.4" height="17.55" class="st7"/>
		</g>
		<g id="shape1124-74" transform="translate(197.64,-1086.19)">
			<title>Sheet.1124</title>
			<desc>Full scan The task sequence engine calls the software update ...</desc>
			<rect x="0" y="1494.45" width="130.472" height="53.55" class="st8"/>
			<text x="2" y="1503.65" class="st6">Full scan <tspan x="2" dy="1.2em" class="st9">The task sequence engine calls the </tspan><tspan
						x="2" dy="1.2em" class="st9">software update agent via Update </tspan><tspan x="2" dy="1.2em" class="st9">Scan API to do a </tspan><tspan
						class="st16">full </tspan><tspan class="st9">scan.</tspan></text>		</g>
		<g id="shape1125-82" transform="translate(164.902,-1120.95)">
			<title>Dynamic connector.1125</title>
			<path d="M9 1548 L9 1605.88" class="st1"/>
		</g>
		<g id="shape1126-87" transform="translate(299.228,-1226.55)">
			<title>Dynamic connector.1126</title>
			<path d="M0 1548 L0 1613.55 L-125.33 1613.55 L-125.33 1628.01" class="st1"/>
		</g>
		<g id="shape1127-92" transform="translate(284.546,-1197)">
			<title>Sheet.1127</title>
			<desc>No</desc>
			<rect x="0" y="1530.45" width="29.3625" height="17.55" class="st11"/>
			<text x="9.08" y="1541.63" class="st6">No</text>		</g>
		<g id="shape1128-95" transform="translate(310.928,-1235.33)">
			<title>Dynamic connector.1128</title>
			<path d="M0 1548 L126.62 1548 L126.62 1606.16 L44.41 1606.16 L44.41 1636.79" class="st1"/>
		</g>
		<g id="shape1129-100" transform="translate(331.909,-1226.55)">
			<title>Sheet.1129</title>
			<desc>Yes</desc>
			<rect x="0" y="1530.45" width="23.4" height="17.55" class="st14"/>
			<text x="5.35" y="1541.63" class="st6">Yes</text>		</g>
		<g id="shape1130-103" transform="translate(343.637,-1120.95)">
			<title>Process.1130</title>
			<rect x="0" y="1530.45" width="23.4" height="17.55" class="st7"/>
		</g>
		<g id="shape1131-105" transform="translate(379.074,-1086.19)">
			<title>Sheet.1131</title>
			<desc>Scan from cached results The task sequence engine calls the s...</desc>
			<rect x="0" y="1494.45" width="130.472" height="53.55" class="st8"/>
			<text x="2" y="1503.65" class="st6">Scan from cached results <tspan x="2" dy="1.2em" class="st9">The task sequence engine calls the </tspan><tspan
						x="2" dy="1.2em" class="st9">software update agent via Update </tspan><tspan x="2" dy="1.2em" class="st9">Scan API to scan against cached </tspan><tspan
						x="2" dy="1.2em" class="st9">metadata.</tspan></text>		</g>
		<g id="shape1132-112" transform="translate(346.418,-1120.95)">
			<title>Dynamic connector.1132</title>
			<path d="M8.92 1548 L8.92 1566 L9.08 1566 L9.08 1605.93" class="st1"/>
		</g>
		<g id="shape1133-117" transform="translate(529.045,-1119.71)">
			<title>Process.1133</title>
			<rect x="0" y="1530.45" width="23.4" height="17.55" class="st7"/>
		</g>
		<g id="shape1134-119" transform="translate(564.483,-1084.95)">
			<title>Sheet.1134</title>
			<desc>Start timer The task sequence engine starts a timer and waits.</desc>
			<rect x="0" y="1494.45" width="130.472" height="53.55" class="st8"/>
			<text x="2" y="1503.65" class="st6">Start timer <tspan x="2" dy="1.2em" class="st9">The task sequence engine starts a </tspan><tspan
						x="2" dy="1.2em" class="st9">timer and waits.</tspan></text>		</g>
		<g id="shape1135-124" transform="translate(545.998,-1119.71)">
			<title>Dynamic connector.1135</title>
			<path d="M-5.25 1548 L-5.25 1566 L-12.75 1566 L-12.75 1604.65" class="st1"/>
		</g>
		<g id="shape1138-129" transform="translate(173.7,-1349.21)">
			<title>Dynamic connector.1138</title>
			<path d="M0 1548 L0 1591.76 L367.05 1591.76 L367.05 1751.91" class="st1"/>
		</g>
		<g id="shape1139-134" transform="translate(162.202,-1037.47)">
			<title>Process.1139</title>
			<rect x="0" y="1530.45" width="23.4" height="17.55" class="st7"/>
		</g>
		<g id="shape1140-136" transform="translate(197.64,-1002.71)">
			<title>Sheet.1140</title>
			<desc>SUM agent scan - full Normal scan process via Windows Update ...</desc>
			<rect x="0" y="1494.45" width="130.472" height="53.55" class="st8"/>
			<text x="2" y="1503.65" class="st6">SUM agent scan - full <tspan x="2" dy="1.2em" class="st9">Normal scan process via Windows </tspan><tspan
						x="2" dy="1.2em" class="st9">Update Agent (WUA), which </tspan><tspan x="2" dy="1.2em" class="st9">communicates with software </tspan><tspan
						x="2" dy="1.2em" class="st9">update point running WSUS. It </tspan><tspan x="2" dy="1.2em" class="st9">adds any applicable updates to the </tspan><tspan
						x="2" dy="1.2em" class="st9">local update store.</tspan></text>		</g>
		<g id="shape1143-145" transform="translate(343.8,-1037.43)">
			<title>Process.1143</title>
			<rect x="0" y="1530.45" width="23.4" height="17.55" class="st7"/>
		</g>
		<g id="shape1144-147" transform="translate(379.237,-1002.67)">
			<title>Sheet.1144</title>
			<desc>SUM agent scan - cached The Windows Update Agent (WUA) checks...</desc>
			<rect x="0" y="1494.45" width="130.472" height="53.55" class="st8"/>
			<text x="2" y="1503.65" class="st6">SUM agent scan - cached <tspan x="2" dy="1.2em" class="st9">The Windows Update Agent (WUA) </tspan><tspan
						x="2" dy="1.2em" class="st9">checks against updates already </tspan><tspan x="2" dy="1.2em" class="st9">cached in the local update store.</tspan></text>		</g>
		<g id="shape1151-153" transform="translate(529.045,-1037.47)">
			<title>Process.1151</title>
			<rect x="0" y="1530.45" width="23.4" height="17.55" class="st7"/>
		</g>
		<g id="shape1152-155" transform="translate(564.483,-1002.71)">
			<title>Sheet.1152</title>
			<desc>Monitoring The task sequence engine monitors the SUM agent fo...</desc>
			<rect x="0" y="1494.45" width="130.472" height="53.55" class="st8"/>
			<text x="2" y="1503.65" class="st6">Monitoring <tspan x="2" dy="1.2em" class="st9">The task sequence engine monitors </tspan><tspan
						x="2" dy="1.2em" class="st9">the SUM agent for status.</tspan></text>		</g>
		<g id="shape1153-160" transform="translate(549.523,-1037.47)">
			<title>Dynamic connector.1153</title>
			<path d="M-8.78 1548 L-9.17 1606" class="st1"/>
		</g>
		<g id="shape1154-165" transform="translate(549.15,-953.887)">
			<title>Dynamic connector.1154</title>
			<path d="M-8.85 1548 L-9.12 1616.8" class="st1"/>
		</g>
		<g id="shape1155-170" transform="translate(547.378,-945)">
			<title>Sheet.1155</title>
			<desc>What is the response from the SUM agent?</desc>
			<rect x="0" y="1536" width="79.7438" height="12" class="st8"/>
			<text x="2" y="1545.2" class="st12">What is the response <tspan x="2" dy="1.2em" class="st13">from the SUM agent?</tspan></text>		</g>
		<g id="shape1156-174" transform="translate(552,-971.603)">
			<title>Dynamic connector.1156</title>
			<path d="M0 1556.94 L100.92 1557.05" class="st1"/>
		</g>
		<g id="shape1158-179" transform="translate(567,-953.887)">
			<title>Sheet.1158</title>
			<desc>In progress</desc>
			<rect x="0" y="1530.45" width="52.5375" height="17.55" class="st14"/>
			<text x="5.21" y="1541.63" class="st6">In progress</text>		</g>
		<g id="shape1159-182" transform="translate(528.6,-962.663)">
			<title>Dynamic connector.1159</title>
			<path d="M0 1548 L-354.7 1548 L-354.7 1625.57" class="st1"/>
		</g>
		<g id="shape1162-187" transform="translate(687.116,-942.48)">
			<title>Sheet.1162</title>
			<desc>Has the timer reached the value in task sequence variable SMS...</desc>
			<rect x="0" y="1536" width="147.634" height="12" class="st8"/>
			<text x="2" y="1545.2" class="st12">Has the timer reached the value  <tspan x="2" dy="1.2em" class="st13">in task sequence variable </tspan><tspan
						x="2" dy="1.2em" class="st15">SMSTSSoftwareUpdateScanTimeout</tspan>? <tspan x="2" dy="1.2em" class="st13">(Default 1 hour)</tspan></text>		</g>
		<g id="shape1163-193" transform="translate(660.96,-953.768)">
			<title>Decision.1163</title>
			<path d="M0 1539.22 L11.7 1530.45 L23.4 1539.22 L11.7 1548 L0 1539.22 Z" class="st5"/>
		</g>
		<g id="shape1165-195" transform="translate(460.463,-953.887)">
			<title>Sheet.1165</title>
			<desc>Complete</desc>
			<rect x="0" y="1530.45" width="52.5375" height="17.55" class="st14"/>
			<text x="8.16" y="1541.63" class="st6">Complete</text>		</g>
		<g id="shape1157-198" transform="translate(528.6,-953.887)">
			<title>Decision.1157</title>
			<path d="M0 1539.22 L11.7 1530.45 L23.4 1539.22 L11.7 1548 L0 1539.22 Z" class="st5"/>
		</g>
		<g id="shape1166-200" transform="translate(522.9,-918)">
			<title>Sheet.1166</title>
			<desc>Failed</desc>
			<rect x="0" y="1530.45" width="34.2" height="17.55" class="st14"/>
			<text x="5.95" y="1541.63" class="st6">Failed</text>		</g>
		<g id="shape1167-203" transform="translate(672.66,-953.768)">
			<title>Dynamic connector.1167</title>
			<path d="M0 1548 L0 1597.27 L-132.66 1597.27 L-132.66 1616.68" class="st1"/>
		</g>
		<g id="shape1168-208" transform="translate(528.3,-859.5)">
			<title>Process.1168</title>
			<rect x="0" y="1530.45" width="23.4" height="17.55" class="st7"/>
		</g>
		<g id="shape1169-210" transform="translate(564.483,-823.5)">
			<title>Sheet.1169</title>
			<desc>Step fails</desc>
			<rect x="0" y="1494.45" width="130.472" height="53.55" class="st8"/>
			<text x="2" y="1503.65" class="st6">Step fails</text>		</g>
		<g id="shape1170-213" transform="translate(660.96,-918.45)">
			<title>Sheet.1170</title>
			<desc>Yes</desc>
			<rect x="0" y="1530.45" width="23.4" height="17.55" class="st14"/>
			<text x="5.35" y="1541.63" class="st6">Yes</text>		</g>
		<g id="shape1171-216" transform="translate(684.36,-962.543)">
			<title>Dynamic connector.1171</title>
			<path d="M0 1548 L44.64 1548 L44.64 1425.59 L-137.61 1425.59 L-137.61 1447.48" class="st1"/>
		</g>
		<g id="shape1172-221" transform="translate(696.6,-953.887)">
			<title>Sheet.1172</title>
			<desc>No</desc>
			<rect x="0" y="1530.45" width="23.4" height="17.55" class="st14"/>
			<text x="6.09" y="1541.63" class="st6">No</text>		</g>
		<g id="shape1173-224" transform="translate(162.202,-859.5)">
			<title>Process.1173</title>
			<rect x="0" y="1530.45" width="23.4" height="17.55" class="st7"/>
		</g>
		<g id="shape1174-226" transform="translate(197.64,-823.5)">
			<title>Sheet.1174</title>
			<desc>Enumerate update list The SUM agent enumerates the list of up...</desc>
			<rect x="0" y="1494.45" width="130.472" height="53.55" class="st8"/>
			<text x="2" y="1503.65" class="st6">Enumerate update list <tspan x="2" dy="1.2em" class="st9">The SUM agent enumerates the list </tspan><tspan
						x="2" dy="1.2em" class="st9">of updates returned by the scan, </tspan><tspan x="2" dy="1.2em" class="st9">determining which are available or </tspan><tspan
						x="2" dy="1.2em" class="st9">mandatory. This list is modified by </tspan><tspan x="2" dy="1.2em"
						class="st9">task sequence variable </tspan><tspan x="2" dy="1.2em" class="st13">SMSInstallUpdateTarget</tspan><tspan
						class="st9">.</tspan></text>		</g>
		<g id="shape1179-236" transform="translate(188.156,-767.662)">
			<title>Sheet.1179</title>
			<desc>Are there any updates in the list of scan results?</desc>
			<rect x="0" y="1536" width="78.39" height="12" class="st8"/>
			<text x="2" y="1545.2" class="st12">Are there any <tspan x="2" dy="1.2em" class="st13">updates in the list of </tspan><tspan
						x="2" dy="1.2em" class="st13">scan results?</tspan></text>		</g>
		<g id="shape1180-241" transform="translate(185.4,-796.725)">
			<title>Dynamic connector.1180</title>
			<path d="M0 1557 L141.2 1557" class="st1"/>
		</g>
		<g id="shape1181-246" transform="translate(162,-778.95)">
			<title>Decision.1181</title>
			<path d="M0 1539.22 L11.7 1530.45 L23.4 1539.22 L11.7 1548 L0 1539.22 Z" class="st5"/>
		</g>
		<g id="shape1182-248" transform="translate(206.865,-778.95)">
			<title>Sheet.1182</title>
			<desc>No</desc>
			<rect x="0" y="1530.45" width="23.4" height="17.55" class="st14"/>
			<text x="7.2" y="1541.63" class="st6">No</text>		</g>
		<g id="shape1183-251" transform="translate(182.801,-859.5)">
			<title>Dynamic connector.1183</title>
			<path d="M-8.9 1548 L-9.08 1602.96" class="st1"/>
		</g>
		<g id="shape1184-256" transform="translate(334.637,-776.7)">
			<title>Start/End.1184</title>
			<desc>End</desc>
			<path d="M10.35 1548 L31.05 1548 A10.35 11.025 -180 0 0 31.05 1525.95 L10.35 1525.95 A10.35 11.025 -180 1 0 10.35 1548
						 Z" class="st5"/>
			<text x="13.67" y="1539.38" class="st6">End</text>		</g>
		<g id="shape1186-259" transform="translate(164.801,-778.95)">
			<title>Dynamic connector.1186</title>
			<path d="M8.9 1548 L9.08 1603.86" class="st1"/>
		</g>
		<g id="shape1187-264" transform="translate(540,-859.5)">
			<title>Dynamic connector.1187</title>
			<path d="M0 1548 L0 1619.78 L-155.92 1619.78" class="st1"/>
		</g>
		<g id="shape1188-269" transform="translate(162.202,-697.5)">
			<title>Process.1188</title>
			<rect x="0" y="1530.45" width="23.4" height="17.55" class="st7"/>
		</g>
		<g id="shape1189-271" transform="translate(197.64,-661.5)">
			<title>Sheet.1189</title>
			<desc>Install updates The task sequence engine calls the SUM agent ...</desc>
			<rect x="0" y="1494.45" width="130.472" height="53.55" class="st8"/>
			<text x="2" y="1503.65" class="st6">Install updates <tspan x="2" dy="1.2em" class="st9">The task sequence engine calls the </tspan><tspan
						x="2" dy="1.2em" class="st9">SUM agent via Update Deployment </tspan><tspan x="2" dy="1.2em" class="st9">API to install all available or only </tspan><tspan
						x="2" dy="1.2em" class="st9">mandatory updates.</tspan></text>		</g>
		<g id="shape1190-278" transform="translate(528.145,-696.262)">
			<title>Process.1190</title>
			<rect x="0" y="1530.45" width="23.4" height="17.55" class="st7"/>
		</g>
		<g id="shape1191-280" transform="translate(563.583,-661.5)">
			<title>Sheet.1191</title>
			<desc>Start timer and show progress The task sequence engine starts...</desc>
			<rect x="0" y="1494.45" width="130.472" height="53.55" class="st8"/>
			<text x="2" y="1503.65" class="st6">Start timer and show progress <tspan x="2" dy="1.2em" class="st9">The task sequence engine starts an </tspan><tspan
						x="2" dy="1.2em" class="st9">installation timer, shows sub</tspan><tspan class="st9">-</tspan><tspan x="2"
						dy="1.2em" class="st9">progress at 10% intervals in TS </tspan><tspan x="2" dy="1.2em" class="st9">Progress UI, and waits.</tspan></text>		</g>
		<g id="shape1192-288" transform="translate(545.548,-696.262)">
			<title>Dynamic connector.1192</title>
			<path d="M-5.7 1548 L-5.7 1566 L-12.3 1566 L-12.3 1604.65" class="st1"/>
		</g>
		<g id="shape1193-293" transform="translate(528.145,-614.025)">
			<title>Process.1193</title>
			<rect x="0" y="1530.45" width="23.4" height="17.55" class="st7"/>
		</g>
		<g id="shape1194-295" transform="translate(563.583,-579.262)">
			<title>Sheet.1194</title>
			<desc>Monitoring The task sequence engine polls the SUM agent for s...</desc>
			<rect x="0" y="1494.45" width="130.472" height="53.55" class="st8"/>
			<text x="2" y="1503.65" class="st6">Monitoring <tspan x="2" dy="1.2em" class="st9">The task sequence engine polls the </tspan><tspan
						x="2" dy="1.2em" class="st9">SUM agent for status.</tspan></text>		</g>
		<g id="shape1195-300" transform="translate(548.623,-614.025)">
			<title>Dynamic connector.1195</title>
			<path d="M-8.78 1548 L-9.17 1606" class="st1"/>
		</g>
		<g id="shape1196-305" transform="translate(548.25,-530.438)">
			<title>Dynamic connector.1196</title>
			<path d="M-8.85 1548 L-9.12 1616.8" class="st1"/>
		</g>
		<g id="shape1197-310" transform="translate(551.1,-548.153)">
			<title>Dynamic connector.1197</title>
			<path d="M0 1556.94 L100.92 1557.05" class="st1"/>
		</g>
		<g id="shape1198-315" transform="translate(566.1,-530.438)">
			<title>Sheet.1198</title>
			<desc>In progress</desc>
			<rect x="0" y="1530.45" width="52.5375" height="17.55" class="st14"/>
			<text x="5.21" y="1541.63" class="st6">In progress</text>		</g>
		<g id="shape1199-318" transform="translate(686.216,-519.03)">
			<title>Sheet.1199</title>
			<desc>Has the installation process been inactive for 8 hours?</desc>
			<rect x="0" y="1536" width="85.5338" height="12" class="st8"/>
			<text x="2" y="1545.2" class="st12">Has the installation <tspan x="2" dy="1.2em" class="st13">process been inactive </tspan><tspan
						x="2" dy="1.2em" class="st13">for 8 hours?</tspan></text>		</g>
		<g id="shape1200-323" transform="translate(660.06,-530.318)">
			<title>Decision.1200</title>
			<path d="M0 1539.22 L11.7 1530.45 L23.4 1539.22 L11.7 1548 L0 1539.22 Z" class="st5"/>
		</g>
		<g id="shape1201-325" transform="translate(527.7,-530.438)">
			<title>Decision.1201</title>
			<path d="M0 1539.22 L11.7 1530.45 L23.4 1539.22 L11.7 1548 L0 1539.22 Z" class="st5"/>
		</g>
		<g id="shape1202-327" transform="translate(522,-494.55)">
			<title>Sheet.1202</title>
			<desc>Failed</desc>
			<rect x="0" y="1530.45" width="34.2" height="17.55" class="st14"/>
			<text x="5.95" y="1541.63" class="st6">Failed</text>		</g>
		<g id="shape1203-330" transform="translate(671.76,-530.318)">
			<title>Dynamic connector.1203</title>
			<path d="M0 1548 L0 1597.27 L-132.66 1597.27 L-132.66 1616.68" class="st1"/>
		</g>
		<g id="shape1204-335" transform="translate(527.4,-436.05)">
			<title>Process.1204</title>
			<rect x="0" y="1530.45" width="23.4" height="17.55" class="st7"/>
		</g>
		<g id="shape1205-337" transform="translate(660.06,-495)">
			<title>Sheet.1205</title>
			<desc>Yes</desc>
			<rect x="0" y="1530.45" width="23.4" height="17.55" class="st14"/>
			<text x="5.35" y="1541.63" class="st6">Yes</text>		</g>
		<g id="shape1206-340" transform="translate(683.46,-539.093)">
			<title>Dynamic connector.1206</title>
			<path d="M0 1548 L44.64 1548 L44.64 1425.59 L-136.71 1425.59 L-136.71 1447.48" class="st1"/>
		</g>
		<g id="shape1207-345" transform="translate(695.7,-530.438)">
			<title>Sheet.1207</title>
			<desc>No</desc>
			<rect x="0" y="1530.45" width="23.4" height="17.55" class="st14"/>
			<text x="6.09" y="1541.63" class="st6">No</text>		</g>
		<g id="shape1209-348" transform="translate(173.7,-778.95)">
			<title>Dynamic connector.1209</title>
			<path d="M0 1548 L0 1593.57 L366.15 1593.57 L366.15 1605.1" class="st1"/>
		</g>
		<g id="shape1178-353" transform="translate(162.202,-743.625)">
			<title>Sheet.1178</title>
			<desc>Yes</desc>
			<rect x="0" y="1530.45" width="23.4" height="17.55" class="st11"/>
			<text x="5.35" y="1541.63" class="st6">Yes</text>		</g>
		<g id="shape1210-356" transform="translate(545.128,-519)">
			<title>Sheet.1210</title>
			<desc>What is the response from the SUM agent?</desc>
			<rect x="0" y="1536" width="79.7438" height="12" class="st8"/>
			<text x="2" y="1545.2" class="st12">What is the response <tspan x="2" dy="1.2em" class="st13">from the SUM agent?</tspan></text>		</g>
		<g id="shape1211-360" transform="translate(563.583,-400.95)">
			<title>Sheet.1211</title>
			<desc>Step fails</desc>
			<rect x="0" y="1494.45" width="130.472" height="53.55" class="st8"/>
			<text x="2" y="1503.65" class="st6">Step fails</text>		</g>
		<g id="shape1215-363" transform="translate(460.163,-530.438)">
			<title>Sheet.1215</title>
			<desc>Complete</desc>
			<rect x="0" y="1530.45" width="52.5375" height="17.55" class="st14"/>
			<text x="8.16" y="1541.63" class="st6">Complete</text>		</g>
		<g id="shape1217-366" transform="translate(162.202,-614.7)">
			<title>Process.1217</title>
			<rect x="0" y="1530.45" width="23.4" height="17.55" class="st7"/>
		</g>
		<g id="shape1218-368" transform="translate(164.902,-697.5)">
			<title>Dynamic connector.1218</title>
			<path d="M9 1548 L9 1605.21" class="st1"/>
		</g>
		<g id="shape1219-373" transform="translate(197.64,-578.7)">
			<title>Sheet.1219</title>
			<desc>SUM agent install Normal install process using existing cache...</desc>
			<rect x="0" y="1494.45" width="130.472" height="53.55" class="st8"/>
			<text x="2" y="1503.65" class="st6">SUM agent install <tspan x="2" dy="1.2em" class="st9">Normal install process using </tspan><tspan
						x="2" dy="1.2em" class="st9">existing cached list of updates, with </tspan><tspan x="2" dy="1.2em"
						class="st9">standard content download. Install </tspan><tspan x="2" dy="1.2em" class="st9">update via Windows Update Agent </tspan><tspan
						x="2" dy="1.2em" class="st9">(WUA).</tspan></text>		</g>
		<g id="shape1229-381" transform="translate(378,-525.713)">
			<title>On-page reference.1229</title>
			<desc>A</desc>
			<path d="M0 1534.5 A13.5 13.5 0 0 1 27 1534.5 A13.5 13.5 0 1 1 0 1534.5 Z" class="st17"/>
			<text x="9.63" y="1538.1" class="st18">A</text>		</g>
		<g id="shape1230-384" transform="translate(477,-1263.6)">
			<title>On-page reference.1230</title>
			<desc>A</desc>
			<path d="M0 1534.5 A13.5 13.5 0 0 1 27 1534.5 A13.5 13.5 0 1 1 0 1534.5 Z" class="st17"/>
			<text x="9.63" y="1538.1" class="st18">A</text>		</g>
		<g id="shape1232-387" transform="translate(477,-1277.1)">
			<title>Dynamic connector.1232</title>
			<path d="M0 1548 L-177.77 1548 L-177.77 1572.96" class="st1"/>
		</g>
		<g id="shape1233-392" transform="translate(370.8,-433.8)">
			<title>Start/End.1233</title>
			<desc>End</desc>
			<path d="M10.35 1548 L31.05 1548 A10.35 11.025 -180 0 0 31.05 1525.95 L10.35 1525.95 A10.35 11.025 -180 1 0 10.35 1548
						 Z" class="st5"/>
			<text x="13.67" y="1539.38" class="st6">End</text>		</g>
		<g id="shape1234-395" transform="translate(527.4,-453.825)">
			<title>Dynamic connector.1234</title>
			<path d="M0 1557 L-107.16 1557" class="st1"/>
		</g>
		<g id="shape1235-400" transform="translate(18,-414)">
			<title>Sheet.1235</title>
			<rect x="0" y="450" width="828" height="1098" class="st19"/>
		</g>
		<g id="shape1107-402" transform="translate(27.5625,-1346.51)">
			<title>Orthogonal.1107</title>
			<desc>CIAgent.log</desc>
			<path d="M98.49 1536.64 L134.44 1536.55" class="st20"/>
			<path d="M4.5 1525.5 L0 1525.5 L0 1548 L4.5 1548" class="st20"/>
			<path d="M93.99 1525.5 L98.49 1525.5 L98.49 1548 L93.99 1548" class="st20"/>
			<text x="4" y="1539.15" class="st12">CIAgent.log</text>		</g>
		<g id="shape1137-408" transform="translate(27,-1113.97)">
			<title>Orthogonal.1137</title>
			<desc>WUAHandler.log ScanAgent.log</desc>
			<path d="M98.49 1532.25 L135.2 1532.25" class="st20"/>
			<path d="M4.5 1516.5 L0 1516.5 L0 1548 L4.5 1548" class="st20"/>
			<path d="M93.99 1516.5 L98.49 1516.5 L98.49 1548 L93.99 1548" class="st20"/>
			<text x="4" y="1529.85" class="st12">WUAHandler.log <tspan x="4" dy="1.2em" class="st13">ScanAgent.log</tspan></text>		</g>
		<g id="shape1142-415" transform="translate(27,-1030.5)">
			<title>Orthogonal.1142</title>
			<desc>WindowsUpdate.log UpdateStore.log</desc>
			<path d="M98.49 1532.25 L135.2 1532.25" class="st20"/>
			<path d="M4.5 1516.5 L0 1516.5 L0 1548 L4.5 1548" class="st20"/>
			<path d="M93.99 1516.5 L98.49 1516.5 L98.49 1548 L93.99 1548" class="st20"/>
			<text x="4" y="1529.85" class="st12">WindowsUpdate.log <tspan x="4" dy="1.2em" class="st13">UpdateStore.log</tspan></text>		</g>
		<g id="shape1220-422" transform="translate(27,-598.725)">
			<title>Orthogonal.1220</title>
			<desc>UpdatesDeployment.log UpdatesHandler.log WuaHandler.log Windo...</desc>
			<path d="M98.49 1523.25 L135.2 1523.25" class="st20"/>
			<path d="M4.5 1498.5 L0 1498.5 L0 1548 L4.5 1548" class="st20"/>
			<path d="M93.99 1498.5 L98.49 1498.5 L98.49 1548 L93.99 1548" class="st20"/>
			<text x="4" y="1511.25" class="st12">UpdatesDeployment.log <tspan x="4" dy="1.2em" class="st13">UpdatesHandler.log </tspan><tspan
						x="4" dy="1.2em" class="st13">WuaHandler.log </tspan><tspan x="4" dy="1.2em" class="st13">WindowsUpdate.log</tspan></text>		</g>
	</g>
</svg>
