<svg xmlns="http://www.w3.org/2000/svg" viewBox="0 0 580.4 169.65">
  <title>sccm-grace-period-original</title>
  <g id="Shapes">
    <rect width="580.4" height="169.65" fill="#fff"/>
    <line x1="180" y1="81.32" x2="180" y2="1.32" fill="none" stroke="#000"/>
    <g>
      <rect x="179.42" y="169.15" width="1.15" height="0.5" fill="#75757a"/>
      <path d="M180.58,167.09h-1.16v-1h1.16Zm0-3.1h-1.16v-1h1.16Zm0-3.1h-1.16v-1h1.16Zm0-3.1h-1.16v-1h1.16Zm0-3.09h-1.16v-1h1.16Zm0-3.1h-1.16v-1h1.16Zm0-3.1h-1.16v-1h1.16Zm0-3.1h-1.16v-1h1.16Zm0-3.09h-1.16v-1h1.16Zm0-3.1h-1.16v-1h1.16Zm0-3.1h-1.16v-1h1.16Zm0-3.1h-1.16v-1h1.16Zm0-3.09h-1.16v-1h1.16Z" fill="#75757a"/>
      <rect x="179.42" y="126.32" width="1.15" height="0.5" fill="#75757a"/>
    </g>
    <g>
      <rect x="435.01" y="169.15" width="1.15" height="0.5" fill="#75757a"/>
      <path d="M436.17,167.09H435v-1h1.16Zm0-3.1H435v-1h1.16Zm0-3.1H435v-1h1.16Zm0-3.1H435v-1h1.16Zm0-3.09H435v-1h1.16Zm0-3.1H435v-1h1.16Zm0-3.1H435v-1h1.16Zm0-3.1H435v-1h1.16Zm0-3.09H435v-1h1.16Zm0-3.1H435v-1h1.16Zm0-3.1H435v-1h1.16Zm0-3.1H435v-1h1.16Zm0-3.09H435v-1h1.16Z" fill="#75757a"/>
      <rect x="435.01" y="126.32" width="1.15" height="0.5" fill="#75757a"/>
    </g>
    <g>
      <line y1="80.2" x2="569.62" y2="80.2" fill="none" stroke="#000" stroke-miterlimit="10"/>
      <polygon points="568.52 83.94 575 80.2 568.52 76.46 568.52 83.94"/>
    </g>
    <g>
      <polygon points="45 85.83 37.87 91.02 40.59 82.63 33.46 77.45 42.28 77.45 45 69.07 47.72 77.45 56.54 77.45 49.41 82.63 52.13 91.02 45 85.83" fill="#0072c6"/>
      <path d="M45,70.69,47.36,78H55l-6.18,4.49,2.36,7.27L45,85.22l-6.18,4.49,2.36-7.27L35,78h7.64L45,70.69m0-3.24-1,2.93L41.91,77h-10l2.49,1.81L40,82.82,37.87,89.4l-.95,2.92,2.49-1.8L45,86.45l5.59,4.07,2.49,1.8-.95-2.92L50,82.82l5.59-4.06L58.08,77h-10L46,70.38l-1-2.93Z" fill="#50e6ff"/>
    </g>
    <g>
      <polygon points="180 85.83 172.87 91.02 175.59 82.63 168.46 77.45 177.28 77.45 180 69.07 182.72 77.45 191.54 77.45 184.41 82.63 187.13 91.02 180 85.83" fill="#ffb900"/>
      <path d="M180,70.69,182.36,78H190l-6.18,4.49,2.36,7.27L180,85.22l-6.18,4.49,2.36-7.27L170,78h7.64L180,70.69m0-3.24-.95,2.93L176.91,77h-10l2.49,1.81L175,82.82l-2.13,6.58-1,2.92,2.49-1.8L180,86.45l5.59,4.07,2.49,1.8-1-2.92L185,82.82l5.59-4.06L193.08,77h-10L181,70.38,180,67.45Z" fill="#d83b01"/>
    </g>
    <g>
      <line x1="185.38" y1="147.99" x2="429.62" y2="147.99" fill="none" stroke="#75757a" stroke-miterlimit="10"/>
      <polygon points="186.48 151.72 180 147.99 186.48 144.25 186.48 151.72" fill="#75757a"/>
      <polygon points="428.52 151.72 435 147.99 428.52 144.25 428.52 151.72" fill="#75757a"/>
    </g>
    <path d="M178,6.89h-1V5.74h1Zm-3,0h-1V5.74h1Zm-3,0h-1V5.74h1Zm-3,0h-1V5.74h1Zm-3,0h-1V5.74h1Z" fill="#75757a"/>
    <path d="M448,6.89h-1V5.74h1Zm-3,0h-1V5.74h1Zm-3,0h-1V5.74h1Zm-3,0h-1V5.74h1Zm-3,0h-1V5.74h1Z" fill="#75757a"/>
    <line x1="435.59" y1="81.32" x2="435.59" y2="1.32" fill="none" stroke="#000"/>
    <g>
      <polygon points="431.18 82.63 424.05 77.45 432.87 77.45 435.59 69.07 438.31 77.45 447.13 77.45 440 82.63 442.72 91.02 435.59 85.83 428.46 91.02 431.18 82.63" fill="#0072c6"/>
      <path d="M435.59,70.69,438,78h7.64l-6.18,4.49,2.36,7.27-6.18-4.49-6.18,4.49,2.36-7.27L425.59,78h7.64l2.36-7.26m0-3.24-.95,2.93L432.5,77h-10L425,78.76l5.59,4.06-2.13,6.58-.95,2.92,2.49-1.8,5.59-4.07,5.59,4.07,2.49,1.8-.95-2.92-2.13-6.58,5.59-4.06L448.67,77h-10l-2.14-6.57-1-2.93Z" fill="#50e6ff"/>
    </g>
  </g>
  <g id="Text">
    <g>
      <path d="M49.36,6.8q0,3.54-3.19,3.54t-3.06-3.4V1.8h1V6.87c0,1.73.72,2.59,2.18,2.59s2.1-.83,2.1-2.5V1.8h1Z" fill="#1e1e1e"/>
      <path d="M51,10V9a2.82,2.82,0,0,0,1.73.58Q54,9.53,54,8.69a.68.68,0,0,0-.11-.41A1,1,0,0,0,53.56,8a2.19,2.19,0,0,0-.43-.24l-.54-.21a5.79,5.79,0,0,1-.7-.32,2.22,2.22,0,0,1-.5-.36,1.38,1.38,0,0,1-.31-.46,1.59,1.59,0,0,1-.1-.61,1.38,1.38,0,0,1,.19-.74,1.7,1.7,0,0,1,.52-.55,2.71,2.71,0,0,1,.73-.33,3.49,3.49,0,0,1,.86-.11,3.41,3.41,0,0,1,1.39.27v1a2.7,2.7,0,0,0-1.52-.43,1.88,1.88,0,0,0-.49.06,1.26,1.26,0,0,0-.37.17,1,1,0,0,0-.24.27.67.67,0,0,0-.09.34.82.82,0,0,0,.09.4,1.07,1.07,0,0,0,.25.28,2.11,2.11,0,0,0,.4.22l.53.22a7.07,7.07,0,0,1,.72.31,2.45,2.45,0,0,1,.53.36,1.45,1.45,0,0,1,.35.47A1.48,1.48,0,0,1,55,8.6a1.5,1.5,0,0,1-.2.77,1.58,1.58,0,0,1-.52.54,2.28,2.28,0,0,1-.76.33,3.71,3.71,0,0,1-.9.1A3.37,3.37,0,0,1,51,10Z" fill="#1e1e1e"/>
      <path d="M61.25,7.44H57A2.28,2.28,0,0,0,57.55,9,1.87,1.87,0,0,0,59,9.53a3,3,0,0,0,1.86-.66v.9a3.5,3.5,0,0,1-2.09.57,2.52,2.52,0,0,1-2-.82A3.36,3.36,0,0,1,56,7.22a3.29,3.29,0,0,1,.8-2.28,2.53,2.53,0,0,1,2-.88,2.25,2.25,0,0,1,1.82.76,3.2,3.2,0,0,1,.65,2.12Zm-1-.81a2,2,0,0,0-.4-1.3,1.36,1.36,0,0,0-1.1-.46,1.52,1.52,0,0,0-1.15.49A2.19,2.19,0,0,0,57,6.63Z" fill="#1e1e1e"/>
      <path d="M65.83,5.17A1.18,1.18,0,0,0,65.1,5a1.23,1.23,0,0,0-1,.58,2.72,2.72,0,0,0-.41,1.58V10.2h-1v-6h1V5.44h0a2.17,2.17,0,0,1,.63-1,1.41,1.41,0,0,1,.94-.35,1.49,1.49,0,0,1,.58.08Z" fill="#1e1e1e"/>
      <path d="M74.25,9.93a3.19,3.19,0,0,1-1.64.41,2.72,2.72,0,0,1-2.07-.83,3,3,0,0,1-.79-2.17A3.3,3.3,0,0,1,70.6,5a3,3,0,0,1,2.27-.9,3.23,3.23,0,0,1,1.39.29v1a2.47,2.47,0,0,0-1.43-.47,1.93,1.93,0,0,0-1.51.66,2.5,2.5,0,0,0-.59,1.73,2.36,2.36,0,0,0,.56,1.66,1.89,1.89,0,0,0,1.48.61A2.41,2.41,0,0,0,74.25,9Z" fill="#1e1e1e"/>
      <path d="M78.21,10.34a2.79,2.79,0,0,1-2.13-.84,3.15,3.15,0,0,1-.79-2.23,3.25,3.25,0,0,1,.83-2.36,3,3,0,0,1,2.23-.85,2.69,2.69,0,0,1,2.09.83,3.23,3.23,0,0,1,.76,2.29,3.25,3.25,0,0,1-.81,2.3A2.88,2.88,0,0,1,78.21,10.34Zm.07-5.47a1.84,1.84,0,0,0-1.47.63,2.64,2.64,0,0,0-.53,1.74,2.46,2.46,0,0,0,.54,1.68,1.85,1.85,0,0,0,1.46.61,1.75,1.75,0,0,0,1.43-.6,2.58,2.58,0,0,0,.5-1.72,2.61,2.61,0,0,0-.5-1.73A1.73,1.73,0,0,0,78.28,4.87Z" fill="#1e1e1e"/>
      <path d="M91.25,10.2h-1V6.76A2.58,2.58,0,0,0,90,5.31a1.17,1.17,0,0,0-1-.44,1.3,1.3,0,0,0-1,.56,2.22,2.22,0,0,0-.43,1.35V10.2h-1V6.64c0-1.18-.45-1.77-1.36-1.77a1.28,1.28,0,0,0-1.05.53,2.2,2.2,0,0,0-.41,1.38V10.2h-1v-6h1v1h0a2,2,0,0,1,1.86-1.09,1.73,1.73,0,0,1,1.7,1.24,2.13,2.13,0,0,1,2-1.24c1.32,0,2,.82,2,2.44Z" fill="#1e1e1e"/>
      <path d="M97.89,7.44H93.65A2.28,2.28,0,0,0,94.19,9a1.88,1.88,0,0,0,1.42.54,2.94,2.94,0,0,0,1.86-.66v.9a3.47,3.47,0,0,1-2.09.57,2.54,2.54,0,0,1-2-.82,3.35,3.35,0,0,1-.72-2.3,3.28,3.28,0,0,1,.79-2.28,2.54,2.54,0,0,1,2-.88,2.26,2.26,0,0,1,1.83.76,3.19,3.19,0,0,1,.64,2.12Zm-1-.81a2,2,0,0,0-.41-1.3,1.34,1.34,0,0,0-1.09-.46,1.54,1.54,0,0,0-1.16.49,2.18,2.18,0,0,0-.58,1.27Z" fill="#1e1e1e"/>
      <path d="M99,10V9a2.82,2.82,0,0,0,1.73.58q1.26,0,1.26-.84a.76.76,0,0,0-.1-.41,1,1,0,0,0-.3-.29,1.94,1.94,0,0,0-.43-.24l-.54-.21a5.79,5.79,0,0,1-.7-.32,2.22,2.22,0,0,1-.5-.36,1.38,1.38,0,0,1-.31-.46,1.81,1.81,0,0,1-.1-.61,1.39,1.39,0,0,1,.2-.74,1.67,1.67,0,0,1,.51-.55,2.77,2.77,0,0,1,.74-.33,3.56,3.56,0,0,1,2.24.16v1a2.7,2.7,0,0,0-1.52-.43,1.88,1.88,0,0,0-.49.06,1.4,1.4,0,0,0-.37.17,1,1,0,0,0-.24.27.66.66,0,0,0-.08.34.82.82,0,0,0,.08.4,1.07,1.07,0,0,0,.25.28,2.11,2.11,0,0,0,.4.22l.53.22a6.21,6.21,0,0,1,.72.31,2.82,2.82,0,0,1,.54.36,1.57,1.57,0,0,1,.34.47,1.48,1.48,0,0,1,.12.63,1.5,1.5,0,0,1-.2.77,1.58,1.58,0,0,1-.52.54,2.28,2.28,0,0,1-.76.33,3.68,3.68,0,0,1-.89.1A3.39,3.39,0,0,1,99,10Z" fill="#1e1e1e"/>
      <path d="M108.71,9.33h0v.87h-1V1.32h1V5.26h0a2.26,2.26,0,0,1,2.07-1.2,2.2,2.2,0,0,1,1.81.81A3.33,3.33,0,0,1,113.24,7a3.72,3.72,0,0,1-.73,2.41,2.45,2.45,0,0,1-2,.9A2,2,0,0,1,108.71,9.33Zm0-2.42v.84A1.73,1.73,0,0,0,109.17,9a1.58,1.58,0,0,0,1.22.52,1.61,1.61,0,0,0,1.37-.66,3.09,3.09,0,0,0,.5-1.86,2.41,2.41,0,0,0-.47-1.57,1.51,1.51,0,0,0-1.25-.57,1.7,1.7,0,0,0-1.35.58A2.15,2.15,0,0,0,108.68,6.91Z" fill="#1e1e1e"/>
      <path d="M119.07,10.2h-1V9.26h0a2,2,0,0,1-1.85,1.08,2,2,0,0,1-1.4-.47,1.65,1.65,0,0,1-.51-1.26c0-1.12.66-1.78,2-2l1.8-.25q0-1.53-1.23-1.53a3,3,0,0,0-2,.74v-1a3.76,3.76,0,0,1,2-.56c1.41,0,2.11.75,2.11,2.24Zm-1-3-1.45.2a2.25,2.25,0,0,0-1,.33.93.93,0,0,0-.34.84.89.89,0,0,0,.31.71,1.19,1.19,0,0,0,.83.28,1.55,1.55,0,0,0,1.19-.5,1.77,1.77,0,0,0,.46-1.27Z" fill="#1e1e1e"/>
      <path d="M125,9.93a3.19,3.19,0,0,1-1.64.41,2.75,2.75,0,0,1-2.07-.83,3.06,3.06,0,0,1-.79-2.17A3.35,3.35,0,0,1,121.32,5a3,3,0,0,1,2.27-.9,3.2,3.2,0,0,1,1.39.29v1a2.45,2.45,0,0,0-1.43-.47,1.91,1.91,0,0,0-1.5.66,2.46,2.46,0,0,0-.59,1.73A2.36,2.36,0,0,0,122,8.92a1.91,1.91,0,0,0,1.49.61A2.38,2.38,0,0,0,125,9Z" fill="#1e1e1e"/>
      <path d="M131.41,10.2h-1.35l-2.65-2.88h0V10.2h-1V1.32h1V7h0l2.52-2.75h1.26l-2.78,2.9Z" fill="#1e1e1e"/>
      <path d="M138.64,2.16A1.32,1.32,0,0,0,138,2c-.67,0-1,.43-1,1.28V4.2h1.4V5H137V10.2h-1V5h-1V4.2h1v-1a2,2,0,0,1,.55-1.49A1.81,1.81,0,0,1,138,1.19a1.86,1.86,0,0,1,.69.1Z" fill="#1e1e1e"/>
      <path d="M142.56,5.17a1.16,1.16,0,0,0-.72-.19,1.21,1.21,0,0,0-1,.58,2.64,2.64,0,0,0-.42,1.58V10.2h-1v-6h1V5.44h0a2.08,2.08,0,0,1,.62-1,1.63,1.63,0,0,1,1.52-.27Z" fill="#1e1e1e"/>
      <path d="M146.11,10.34A2.79,2.79,0,0,1,144,9.5a3.1,3.1,0,0,1-.79-2.23A3.24,3.24,0,0,1,144,4.91a3,3,0,0,1,2.23-.85,2.7,2.7,0,0,1,2.1.83,3.27,3.27,0,0,1,.75,2.29,3.25,3.25,0,0,1-.81,2.3A2.87,2.87,0,0,1,146.11,10.34Zm.07-5.47a1.83,1.83,0,0,0-1.46.63,2.59,2.59,0,0,0-.54,1.74,2.46,2.46,0,0,0,.54,1.68,1.86,1.86,0,0,0,1.46.61,1.79,1.79,0,0,0,1.44-.6,2.63,2.63,0,0,0,.5-1.72,2.66,2.66,0,0,0-.5-1.73A1.76,1.76,0,0,0,146.18,4.87Z" fill="#1e1e1e"/>
      <path d="M159.16,10.2h-1V6.76a2.67,2.67,0,0,0-.31-1.45,1.19,1.19,0,0,0-1-.44,1.27,1.27,0,0,0-1,.56,2.16,2.16,0,0,0-.43,1.35V10.2h-1V6.64c0-1.18-.46-1.77-1.37-1.77a1.27,1.27,0,0,0-1,.53,2.14,2.14,0,0,0-.41,1.38V10.2h-1v-6h1v1h0a2,2,0,0,1,1.86-1.09,1.76,1.76,0,0,1,1.08.34,1.73,1.73,0,0,1,.62.9,2.14,2.14,0,0,1,2-1.24c1.32,0,2,.82,2,2.44Z" fill="#1e1e1e"/>
      <path d="M71.51,17.4l-2.39,6h-1l-2.27-6h1l1.53,4.36a4.27,4.27,0,0,1,.21.84h0a3.94,3.94,0,0,1,.19-.82l1.59-4.38Z" fill="#1e1e1e"/>
      <path d="M76.83,23.4h-1v-.94h0A2,2,0,0,1,74,23.54a2,2,0,0,1-1.4-.47,1.65,1.65,0,0,1-.51-1.26c0-1.12.66-1.78,2-2l1.8-.25c0-1-.41-1.53-1.24-1.53a3,3,0,0,0-1.95.74v-1a3.76,3.76,0,0,1,2-.56c1.41,0,2.11.75,2.11,2.24Zm-1-3-1.45.2a2.25,2.25,0,0,0-1,.33,1.1,1.1,0,0,0,0,1.56,1.24,1.24,0,0,0,.83.27,1.55,1.55,0,0,0,1.19-.5A1.77,1.77,0,0,0,75.87,21Z" fill="#1e1e1e"/>
      <path d="M82.73,23.13a3.19,3.19,0,0,1-1.64.41A2.75,2.75,0,0,1,79,22.71a3.06,3.06,0,0,1-.79-2.17,3.35,3.35,0,0,1,.85-2.38,3,3,0,0,1,2.27-.9,3.2,3.2,0,0,1,1.39.29v1a2.45,2.45,0,0,0-1.43-.47,1.91,1.91,0,0,0-1.5.66,2.47,2.47,0,0,0-.59,1.73,2.36,2.36,0,0,0,.55,1.66,1.89,1.89,0,0,0,1.49.61,2.38,2.38,0,0,0,1.47-.52Z" fill="#1e1e1e"/>
      <path d="M88.48,23.4h-1v-.94h0a2,2,0,0,1-1.85,1.08,2,2,0,0,1-1.4-.47,1.65,1.65,0,0,1-.51-1.26c0-1.12.66-1.78,2-2l1.8-.25c0-1-.41-1.53-1.24-1.53a3,3,0,0,0-2,.74v-1a3.76,3.76,0,0,1,2-.56c1.41,0,2.11.75,2.11,2.24Zm-1-3-1.45.2a2.35,2.35,0,0,0-1,.33,1,1,0,0,0-.34.84.93.93,0,0,0,.32.72,1.24,1.24,0,0,0,.83.27,1.51,1.51,0,0,0,1.18-.5A1.78,1.78,0,0,0,87.52,21Z" fill="#1e1e1e"/>
      <path d="M93.07,23.34a1.76,1.76,0,0,1-.89.19c-1.05,0-1.58-.59-1.58-1.76V18.22h-1V17.4h1V15.94l1-.31V17.4h1.51v.82H91.56V21.6a1.37,1.37,0,0,0,.21.86.78.78,0,0,0,.68.26.94.94,0,0,0,.62-.2Z" fill="#1e1e1e"/>
      <path d="M94.85,15.88a.6.6,0,0,1-.44-.18.59.59,0,0,1-.18-.44.61.61,0,0,1,.18-.45.6.6,0,0,1,.44-.18.63.63,0,0,1,.45.18.61.61,0,0,1,.18.45.6.6,0,0,1-.18.44A.63.63,0,0,1,94.85,15.88Zm.47,7.52h-1v-6h1Z" fill="#1e1e1e"/>
      <path d="M99.77,23.54a2.77,2.77,0,0,1-2.12-.84,3.11,3.11,0,0,1-.8-2.23,3.25,3.25,0,0,1,.83-2.36,3,3,0,0,1,2.23-.85,2.71,2.71,0,0,1,2.1.83,3.27,3.27,0,0,1,.75,2.29,3.25,3.25,0,0,1-.81,2.3A2.87,2.87,0,0,1,99.77,23.54Zm.07-5.47a1.81,1.81,0,0,0-1.46.63,2.59,2.59,0,0,0-.54,1.74,2.46,2.46,0,0,0,.54,1.68,1.86,1.86,0,0,0,1.46.61,1.75,1.75,0,0,0,1.43-.6,2.58,2.58,0,0,0,.51-1.72,2.61,2.61,0,0,0-.51-1.73A1.73,1.73,0,0,0,99.84,18.07Z" fill="#1e1e1e"/>
      <path d="M109.28,23.4h-1V20c0-1.27-.46-1.91-1.39-1.91a1.5,1.5,0,0,0-1.19.54,2,2,0,0,0-.47,1.37V23.4h-1v-6h1v1h0a2.16,2.16,0,0,1,2-1.14,1.81,1.81,0,0,1,1.5.64,2.79,2.79,0,0,1,.53,1.83Z" fill="#1e1e1e"/>
      <path d="M116.89,25.31H116a7.49,7.49,0,0,1-1.82-5.11A7.78,7.78,0,0,1,116,15h.86a7.91,7.91,0,0,0-1.84,5.18A7.75,7.75,0,0,0,116.89,25.31Z" fill="#1e1e1e"/>
      <path d="M120.5,23.54a2.79,2.79,0,0,1-2.12-.84,3.11,3.11,0,0,1-.8-2.23,3.25,3.25,0,0,1,.83-2.36,3,3,0,0,1,2.23-.85,2.7,2.7,0,0,1,2.1.83,3.27,3.27,0,0,1,.75,2.29,3.25,3.25,0,0,1-.81,2.3A2.87,2.87,0,0,1,120.5,23.54Zm.07-5.47a1.83,1.83,0,0,0-1.46.63,2.59,2.59,0,0,0-.54,1.74,2.46,2.46,0,0,0,.54,1.68,1.86,1.86,0,0,0,1.46.61,1.75,1.75,0,0,0,1.43-.6,2.58,2.58,0,0,0,.51-1.72,2.61,2.61,0,0,0-.51-1.73A1.73,1.73,0,0,0,120.57,18.07Z" fill="#1e1e1e"/>
      <path d="M128.15,18.37a1.29,1.29,0,0,0-1.75.39,2.64,2.64,0,0,0-.41,1.58V23.4h-1v-6h1v1.24h0a2.17,2.17,0,0,1,.63-1,1.39,1.39,0,0,1,.94-.35,1.44,1.44,0,0,1,.57.08Z" fill="#1e1e1e"/>
      <path d="M136.57,23.13a3.17,3.17,0,0,1-1.64.41,2.75,2.75,0,0,1-2.07-.83,3.06,3.06,0,0,1-.79-2.17,3.35,3.35,0,0,1,.85-2.38,3,3,0,0,1,2.27-.9,3.27,3.27,0,0,1,1.4.29v1a2.49,2.49,0,0,0-1.43-.47,1.92,1.92,0,0,0-1.51.66,2.47,2.47,0,0,0-.59,1.73,2.36,2.36,0,0,0,.55,1.66,1.91,1.91,0,0,0,1.49.61,2.38,2.38,0,0,0,1.47-.52Z" fill="#1e1e1e"/>
      <path d="M139,23.4h-1V14.52h1Z" fill="#1e1e1e"/>
      <path d="M141.43,15.88a.59.59,0,0,1-.44-.18.6.6,0,0,1-.19-.44.62.62,0,0,1,.19-.45.59.59,0,0,1,.44-.18.6.6,0,0,1,.44.18.58.58,0,0,1,.19.45.58.58,0,0,1-.19.44A.6.6,0,0,1,141.43,15.88Zm.46,7.52h-1v-6h1Z" fill="#1e1e1e"/>
      <path d="M148.66,20.64h-4.23a2.23,2.23,0,0,0,.53,1.55,1.88,1.88,0,0,0,1.42.54,3,3,0,0,0,1.87-.66V23a3.53,3.53,0,0,1-2.1.57,2.51,2.51,0,0,1-2-.82,3.31,3.31,0,0,1-.73-2.3,3.28,3.28,0,0,1,.79-2.28,2.55,2.55,0,0,1,2-.88A2.25,2.25,0,0,1,148,18a3.19,3.19,0,0,1,.64,2.12Zm-1-.81a2,2,0,0,0-.4-1.3,1.37,1.37,0,0,0-1.1-.46,1.54,1.54,0,0,0-1.16.49,2.18,2.18,0,0,0-.58,1.27Z" fill="#1e1e1e"/>
      <path d="M155.1,23.4h-1V20c0-1.27-.46-1.91-1.39-1.91a1.5,1.5,0,0,0-1.19.54,2,2,0,0,0-.47,1.37V23.4h-1v-6h1v1h0a2.16,2.16,0,0,1,2-1.14,1.81,1.81,0,0,1,1.5.64,2.79,2.79,0,0,1,.53,1.83Z" fill="#1e1e1e"/>
      <path d="M159.69,23.34a1.82,1.82,0,0,1-.9.19c-1,0-1.57-.59-1.57-1.76V18.22h-1V17.4h1V15.94l1-.31V17.4h1.51v.82h-1.51V21.6a1.45,1.45,0,0,0,.2.86.81.81,0,0,0,.68.26,1,1,0,0,0,.63-.2Z" fill="#1e1e1e"/>
      <path d="M66.84,36.33a3.19,3.19,0,0,1-1.64.41,2.75,2.75,0,0,1-2.07-.83,3,3,0,0,1-.79-2.17,3.35,3.35,0,0,1,.85-2.38,3,3,0,0,1,2.27-.9,3.2,3.2,0,0,1,1.39.29v1a2.45,2.45,0,0,0-1.43-.47,1.91,1.91,0,0,0-1.5.66,2.46,2.46,0,0,0-.59,1.73,2.36,2.36,0,0,0,.55,1.66,1.89,1.89,0,0,0,1.49.61,2.38,2.38,0,0,0,1.47-.52Z" fill="#1e1e1e"/>
      <path d="M70.8,36.74a2.79,2.79,0,0,1-2.12-.84,3.11,3.11,0,0,1-.8-2.23,3.25,3.25,0,0,1,.83-2.36,3,3,0,0,1,2.23-.85,2.7,2.7,0,0,1,2.1.83,3.27,3.27,0,0,1,.75,2.29,3.25,3.25,0,0,1-.81,2.3A2.87,2.87,0,0,1,70.8,36.74Zm.07-5.47a1.83,1.83,0,0,0-1.46.63,2.59,2.59,0,0,0-.54,1.74,2.46,2.46,0,0,0,.54,1.68,1.86,1.86,0,0,0,1.46.61,1.79,1.79,0,0,0,1.44-.6,3.23,3.23,0,0,0,0-3.45A1.76,1.76,0,0,0,70.87,31.27Z" fill="#1e1e1e"/>
      <path d="M83.85,36.6h-1V33.16a2.68,2.68,0,0,0-.3-1.45,1.19,1.19,0,0,0-1-.44,1.27,1.27,0,0,0-1,.56,2.16,2.16,0,0,0-.43,1.35V36.6h-1V33c0-1.18-.46-1.77-1.37-1.77a1.27,1.27,0,0,0-1,.53,2.14,2.14,0,0,0-.41,1.38V36.6h-1v-6h1v.95h0a2,2,0,0,1,1.86-1.09,1.76,1.76,0,0,1,1.08.34,1.73,1.73,0,0,1,.62.9,2.14,2.14,0,0,1,2-1.24c1.32,0,2,.81,2,2.44Z" fill="#1e1e1e"/>
      <path d="M90.48,33.84H86.25a2.21,2.21,0,0,0,.54,1.55,1.85,1.85,0,0,0,1.42.54,3,3,0,0,0,1.86-.66v.9a3.52,3.52,0,0,1-2.09.57,2.52,2.52,0,0,1-2-.82,3.31,3.31,0,0,1-.73-2.3,3.29,3.29,0,0,1,.8-2.28,2.53,2.53,0,0,1,2-.88,2.25,2.25,0,0,1,1.82.76,3.19,3.19,0,0,1,.64,2.12Zm-1-.81a2,2,0,0,0-.4-1.3,1.37,1.37,0,0,0-1.1-.46,1.52,1.52,0,0,0-1.15.49A2.13,2.13,0,0,0,86.26,33Z" fill="#1e1e1e"/>
      <path d="M91.57,36.38v-1a2.84,2.84,0,0,0,1.73.58c.85,0,1.27-.28,1.27-.84a.76.76,0,0,0-.11-.41,1,1,0,0,0-.29-.29,2.28,2.28,0,0,0-.44-.24l-.53-.21a5.16,5.16,0,0,1-.7-.32,2.55,2.55,0,0,1-.51-.36,1.52,1.52,0,0,1-.3-.46,1.59,1.59,0,0,1-.1-.61,1.38,1.38,0,0,1,.19-.74,1.78,1.78,0,0,1,.51-.55,2.77,2.77,0,0,1,.74-.33,3.59,3.59,0,0,1,2.25.16v1a2.71,2.71,0,0,0-1.53-.43,1.75,1.75,0,0,0-.48.06,1.15,1.15,0,0,0-.37.17.76.76,0,0,0-.24.27.67.67,0,0,0-.09.34.82.82,0,0,0,.09.4.88.88,0,0,0,.24.28,2.48,2.48,0,0,0,.4.22l.54.22a6.85,6.85,0,0,1,.71.31,2.82,2.82,0,0,1,.54.36,1.41,1.41,0,0,1,.34.47,1.48,1.48,0,0,1,.12.63,1.49,1.49,0,0,1-.19.77,1.61,1.61,0,0,1-.53.54,2.32,2.32,0,0,1-.75.33,3.82,3.82,0,0,1-.9.1A3.41,3.41,0,0,1,91.57,36.38Z" fill="#1e1e1e"/>
      <path d="M101.3,35.73h0v.87h-1V27.72h1v3.94h0a2.27,2.27,0,0,1,2.08-1.2,2.18,2.18,0,0,1,1.8.81,3.28,3.28,0,0,1,.66,2.16,3.73,3.73,0,0,1-.74,2.41,2.42,2.42,0,0,1-2,.9A2,2,0,0,1,101.3,35.73Zm0-2.42v.84a1.77,1.77,0,0,0,.48,1.26,1.59,1.59,0,0,0,1.23.52,1.62,1.62,0,0,0,1.37-.66,3.09,3.09,0,0,0,.49-1.86,2.41,2.41,0,0,0-.46-1.57,1.54,1.54,0,0,0-1.26-.57,1.69,1.69,0,0,0-1.34.58A2.15,2.15,0,0,0,101.28,33.31Z" fill="#1e1e1e"/>
      <path d="M111.67,36.6h-1v-.94h0a2.2,2.2,0,0,1-3.25.61,1.64,1.64,0,0,1-.5-1.26c0-1.12.66-1.78,2-2l1.8-.25c0-1-.42-1.53-1.24-1.53a3,3,0,0,0-2,.74V31a3.76,3.76,0,0,1,2-.56c1.41,0,2.12.75,2.12,2.24Zm-1-3-1.45.2a2.3,2.3,0,0,0-1,.33.93.93,0,0,0-.34.84.89.89,0,0,0,.31.71,1.2,1.2,0,0,0,.84.28,1.51,1.51,0,0,0,1.18-.5,1.78,1.78,0,0,0,.47-1.27Z" fill="#1e1e1e"/>
      <path d="M117.57,36.33a3.19,3.19,0,0,1-1.64.41,2.76,2.76,0,0,1-2.08-.83,3.06,3.06,0,0,1-.78-2.17,3.3,3.3,0,0,1,.85-2.38,3,3,0,0,1,2.26-.9,3.24,3.24,0,0,1,1.4.29v1a2.47,2.47,0,0,0-1.43-.47,1.93,1.93,0,0,0-1.51.66,2.5,2.5,0,0,0-.59,1.73,2.41,2.41,0,0,0,.55,1.66,1.91,1.91,0,0,0,1.49.61,2.41,2.41,0,0,0,1.48-.52Z" fill="#1e1e1e"/>
      <path d="M124,36.6h-1.35L120,33.72h0V36.6h-1V27.72h1v5.63h0l2.52-2.75h1.26L121,33.5Z" fill="#1e1e1e"/>
      <path d="M130.78,36.74a2.76,2.76,0,0,1-2.12-.84,3.11,3.11,0,0,1-.8-2.23,3.25,3.25,0,0,1,.83-2.36,3,3,0,0,1,2.23-.85,2.69,2.69,0,0,1,2.09.83,3.23,3.23,0,0,1,.76,2.29,3.25,3.25,0,0,1-.81,2.3A2.87,2.87,0,0,1,130.78,36.74Zm.07-5.47a1.84,1.84,0,0,0-1.47.63,2.64,2.64,0,0,0-.53,1.74,2.46,2.46,0,0,0,.54,1.68,1.85,1.85,0,0,0,1.46.61,1.75,1.75,0,0,0,1.43-.6,2.59,2.59,0,0,0,.5-1.72,2.61,2.61,0,0,0-.5-1.73A1.73,1.73,0,0,0,130.85,31.27Z" fill="#1e1e1e"/>
      <path d="M140.28,36.6h-1V33.18c0-1.27-.46-1.91-1.39-1.91a1.5,1.5,0,0,0-1.19.54,2,2,0,0,0-.48,1.37V36.6h-1v-6h1v1h0a2.16,2.16,0,0,1,2-1.14,1.82,1.82,0,0,1,1.5.64,2.79,2.79,0,0,1,.52,1.83Z" fill="#1e1e1e"/>
      <path d="M143.05,36.6h-1V27.72h1Z" fill="#1e1e1e"/>
      <path d="M145.49,29.08a.6.6,0,0,1-.44-.18.59.59,0,0,1-.18-.44.61.61,0,0,1,.18-.45.6.6,0,0,1,.44-.18.61.61,0,0,1,.45.18.62.62,0,0,1,.19.45.63.63,0,0,1-.19.44A.61.61,0,0,1,145.49,29.08ZM146,36.6h-1v-6h1Z" fill="#1e1e1e"/>
      <path d="M152.89,36.6h-1V33.18c0-1.27-.47-1.91-1.4-1.91a1.5,1.5,0,0,0-1.19.54,2,2,0,0,0-.47,1.37V36.6h-1v-6h1v1h0a2.16,2.16,0,0,1,2-1.14,1.83,1.83,0,0,1,1.51.64,2.85,2.85,0,0,1,.52,1.83Z" fill="#1e1e1e"/>
      <path d="M159.52,33.84h-4.24a2.3,2.3,0,0,0,.54,1.55,1.88,1.88,0,0,0,1.42.54,2.94,2.94,0,0,0,1.86-.66v.9a3.47,3.47,0,0,1-2.09.57,2.53,2.53,0,0,1-2-.82,3.35,3.35,0,0,1-.72-2.3,3.28,3.28,0,0,1,.79-2.28,2.54,2.54,0,0,1,2-.88,2.26,2.26,0,0,1,1.83.76,3.25,3.25,0,0,1,.64,2.12Zm-1-.81a2,2,0,0,0-.41-1.3,1.35,1.35,0,0,0-1.09-.46,1.54,1.54,0,0,0-1.16.49,2.19,2.19,0,0,0-.59,1.27Z" fill="#1e1e1e"/>
    </g>
    <g>
      <path d="M12.72,110.2H11.63l-.89-2.35H7.17l-.83,2.35H5.24l3.22-8.4h1ZM10.42,107,9.1,103.38a2.59,2.59,0,0,1-.13-.56h0a2.59,2.59,0,0,1-.13.56L7.5,107Z" fill="#1e1e1e"/>
      <path d="M19,110.2H18v-1h0a2.2,2.2,0,0,1-2.06,1.16,2.27,2.27,0,0,1-1.81-.8,3.32,3.32,0,0,1-.67-2.2,3.57,3.57,0,0,1,.75-2.38,2.46,2.46,0,0,1,2-.9,1.91,1.91,0,0,1,1.8,1h0v-3.71h1Zm-1-2.71v-.89a1.7,1.7,0,0,0-.49-1.23,1.61,1.61,0,0,0-1.21-.5,1.67,1.67,0,0,0-1.39.64,2.87,2.87,0,0,0-.5,1.78,2.54,2.54,0,0,0,.48,1.64,1.73,1.73,0,0,0,2.6,0A2.11,2.11,0,0,0,18,107.49Z" fill="#1e1e1e"/>
      <path d="M29.41,110.2h-1v-3.44a2.58,2.58,0,0,0-.31-1.45,1.17,1.17,0,0,0-1-.44,1.3,1.3,0,0,0-1.05.56,2.22,2.22,0,0,0-.43,1.35v3.42h-1v-3.56c0-1.18-.45-1.77-1.36-1.77a1.28,1.28,0,0,0-1,.53,2.2,2.2,0,0,0-.41,1.38v3.42h-1v-6h1v1h0a2,2,0,0,1,1.86-1.09,1.73,1.73,0,0,1,1.7,1.24,2.13,2.13,0,0,1,2-1.24c1.32,0,2,.82,2,2.44Z" fill="#1e1e1e"/>
      <path d="M31.72,102.68a.6.6,0,0,1-.44-.18.59.59,0,0,1-.18-.44.61.61,0,0,1,.18-.45.6.6,0,0,1,.44-.18.63.63,0,0,1,.45.18.61.61,0,0,1,.18.45.6.6,0,0,1-.18.44A.63.63,0,0,1,31.72,102.68Zm.47,7.52h-1v-6h1Z" fill="#1e1e1e"/>
      <path d="M39.11,110.2h-1v-3.42c0-1.27-.46-1.91-1.39-1.91a1.5,1.5,0,0,0-1.19.54,2,2,0,0,0-.48,1.37v3.42h-1v-6h1v1h0a2.16,2.16,0,0,1,2-1.14,1.81,1.81,0,0,1,1.5.64,2.79,2.79,0,0,1,.52,1.83Z" fill="#1e1e1e"/>
      <path d="M44,107.24H40.8v-.76H44Z" fill="#1e1e1e"/>
      <path d="M50.84,110.2h-1v-1h0a2.2,2.2,0,0,1-2.06,1.16,2.25,2.25,0,0,1-1.81-.8,3.33,3.33,0,0,1-.68-2.2,3.57,3.57,0,0,1,.75-2.38,2.48,2.48,0,0,1,2-.9,1.91,1.91,0,0,1,1.8,1h0v-3.71h1Zm-1-2.71v-.89a1.73,1.73,0,0,0-.48-1.23,1.62,1.62,0,0,0-1.22-.5,1.66,1.66,0,0,0-1.38.64,2.87,2.87,0,0,0-.5,1.78,2.54,2.54,0,0,0,.48,1.64,1.59,1.59,0,0,0,1.3.6,1.63,1.63,0,0,0,1.3-.58A2.11,2.11,0,0,0,49.88,107.49Z" fill="#1e1e1e"/>
      <path d="M57.61,107.44H53.38a2.19,2.19,0,0,0,.54,1.55,1.85,1.85,0,0,0,1.41.54,3,3,0,0,0,1.87-.66v.9a3.53,3.53,0,0,1-2.1.57,2.51,2.51,0,0,1-2-.82,3.83,3.83,0,0,1,.06-4.58,2.55,2.55,0,0,1,2-.88,2.25,2.25,0,0,1,1.82.76,3.19,3.19,0,0,1,.64,2.12Zm-1-.81a2,2,0,0,0-.4-1.3,1.37,1.37,0,0,0-1.1-.46,1.54,1.54,0,0,0-1.16.49,2.18,2.18,0,0,0-.58,1.27Z" fill="#1e1e1e"/>
      <path d="M62,102.16a1.35,1.35,0,0,0-.64-.16c-.67,0-1,.43-1,1.28v.92h1.41V105H60.38v5.18h-1V105h-1v-.82h1v-1a2,2,0,0,1,.54-1.49,1.84,1.84,0,0,1,1.36-.55,1.89,1.89,0,0,1,.7.1Z" fill="#1e1e1e"/>
      <path d="M63.31,102.68a.62.62,0,0,1-.44-.18.59.59,0,0,1-.18-.44.61.61,0,0,1,.18-.45.62.62,0,0,1,.44-.18.61.61,0,0,1,.45.18.62.62,0,0,1,0,.89A.61.61,0,0,1,63.31,102.68Zm.47,7.52h-1v-6h1Z" fill="#1e1e1e"/>
      <path d="M70.71,110.2h-1v-3.42c0-1.27-.47-1.91-1.4-1.91a1.5,1.5,0,0,0-1.19.54,2,2,0,0,0-.47,1.37v3.42h-1v-6h1v1h0a2.17,2.17,0,0,1,2-1.14,1.83,1.83,0,0,1,1.51.64,2.85,2.85,0,0,1,.52,1.83Z" fill="#1e1e1e"/>
      <path d="M77.34,107.44H73.1a2.28,2.28,0,0,0,.54,1.55,1.88,1.88,0,0,0,1.42.54,2.94,2.94,0,0,0,1.86-.66v.9a3.47,3.47,0,0,1-2.09.57,2.54,2.54,0,0,1-2-.82,3.35,3.35,0,0,1-.72-2.3,3.28,3.28,0,0,1,.79-2.28,2.54,2.54,0,0,1,2-.88,2.26,2.26,0,0,1,1.83.76,3.19,3.19,0,0,1,.64,2.12Zm-1-.81a2,2,0,0,0-.4-1.3,1.37,1.37,0,0,0-1.1-.46,1.54,1.54,0,0,0-1.16.49,2.18,2.18,0,0,0-.58,1.27Z" fill="#1e1e1e"/>
      <path d="M83.92,110.2H83v-1h0a2.2,2.2,0,0,1-2.06,1.16,2.25,2.25,0,0,1-1.81-.8,3.33,3.33,0,0,1-.68-2.2,3.57,3.57,0,0,1,.75-2.38,2.48,2.48,0,0,1,2-.9,1.91,1.91,0,0,1,1.8,1h0v-3.71h1Zm-1-2.71v-.89a1.73,1.73,0,0,0-.48-1.23,1.62,1.62,0,0,0-1.22-.5,1.66,1.66,0,0,0-1.38.64,2.87,2.87,0,0,0-.5,1.78,2.54,2.54,0,0,0,.48,1.64,1.59,1.59,0,0,0,1.3.6,1.63,1.63,0,0,0,1.3-.58A2.11,2.11,0,0,0,83,107.49Z" fill="#1e1e1e"/>
      <path d="M19.29,123.4h-1v-1h0a2.2,2.2,0,0,1-2.06,1.16,2.28,2.28,0,0,1-1.81-.8,3.32,3.32,0,0,1-.67-2.2,3.57,3.57,0,0,1,.75-2.38,2.46,2.46,0,0,1,2-.9,1.9,1.9,0,0,1,1.79,1h0v-3.71h1Zm-1-2.71v-.89a1.73,1.73,0,0,0-.48-1.23,1.78,1.78,0,0,0-2.6.14,2.82,2.82,0,0,0-.51,1.79,2.48,2.48,0,0,0,.49,1.63,1.57,1.57,0,0,0,1.29.6,1.65,1.65,0,0,0,1.31-.58A2.16,2.16,0,0,0,18.33,120.69Z" fill="#1e1e1e"/>
      <path d="M26.06,120.64H21.82a2.28,2.28,0,0,0,.54,1.55,1.87,1.87,0,0,0,1.42.54,3,3,0,0,0,1.86-.66v.9a3.5,3.5,0,0,1-2.09.57,2.53,2.53,0,0,1-2-.82,3.36,3.36,0,0,1-.73-2.3,3.29,3.29,0,0,1,.8-2.28,2.53,2.53,0,0,1,2-.88,2.24,2.24,0,0,1,1.82.76,3.2,3.2,0,0,1,.65,2.12Zm-1-.81a2,2,0,0,0-.4-1.3,1.36,1.36,0,0,0-1.1-.46,1.52,1.52,0,0,0-1.15.49,2.19,2.19,0,0,0-.59,1.27Z" fill="#1e1e1e"/>
      <path d="M28.49,122.53h0v3.63h-1V117.4h1v1.06h0a2.29,2.29,0,0,1,2.08-1.2,2.19,2.19,0,0,1,1.81.81,3.33,3.33,0,0,1,.65,2.16,3.72,3.72,0,0,1-.73,2.41,2.46,2.46,0,0,1-2,.9A2,2,0,0,1,28.49,122.53Zm0-2.42V121a1.77,1.77,0,0,0,.48,1.26,1.73,1.73,0,0,0,2.6-.14,3.09,3.09,0,0,0,.49-1.86,2.41,2.41,0,0,0-.46-1.57,1.52,1.52,0,0,0-1.25-.57,1.7,1.7,0,0,0-1.35.58A2.15,2.15,0,0,0,28.47,120.11Z" fill="#1e1e1e"/>
      <path d="M35.53,123.4h-1v-8.88h1Z" fill="#1e1e1e"/>
      <path d="M40,123.54a2.79,2.79,0,0,1-2.13-.84,3.15,3.15,0,0,1-.79-2.23,3.25,3.25,0,0,1,.83-2.36,3,3,0,0,1,2.23-.85,2.69,2.69,0,0,1,2.09.83,3.75,3.75,0,0,1-.05,4.59A2.88,2.88,0,0,1,40,123.54Zm.07-5.47a1.84,1.84,0,0,0-1.47.63,2.59,2.59,0,0,0-.54,1.74,2.46,2.46,0,0,0,.55,1.68,1.85,1.85,0,0,0,1.46.61,1.75,1.75,0,0,0,1.43-.6,2.58,2.58,0,0,0,.5-1.72,2.61,2.61,0,0,0-.5-1.73A1.73,1.73,0,0,0,40.05,118.07Z" fill="#1e1e1e"/>
      <path d="M49.28,117.4l-2.76,7c-.49,1.24-1.19,1.87-2.08,1.87a2.12,2.12,0,0,1-.62-.08v-.86a1.7,1.7,0,0,0,.56.1,1.17,1.17,0,0,0,1.09-.86l.49-1.14-2.35-6h1.07L46.3,122c0,.06.06.21.12.46h0q0-.15.12-.45l1.7-4.63Z" fill="#1e1e1e"/>
      <path d="M58.83,123.4h-1V120a2.67,2.67,0,0,0-.31-1.45,1.18,1.18,0,0,0-1-.44,1.3,1.3,0,0,0-1.05.56,2.16,2.16,0,0,0-.43,1.35v3.42h-1v-3.56c0-1.18-.46-1.77-1.37-1.77a1.27,1.27,0,0,0-1,.53,2.2,2.2,0,0,0-.41,1.38v3.42h-1v-6h1v.95h0a2,2,0,0,1,1.87-1.09,1.73,1.73,0,0,1,1.7,1.24,2.12,2.12,0,0,1,2-1.24c1.32,0,2,.82,2,2.44Z" fill="#1e1e1e"/>
      <path d="M65.47,120.64H61.23a2.28,2.28,0,0,0,.54,1.55,1.87,1.87,0,0,0,1.42.54,3,3,0,0,0,1.86-.66v.9a3.5,3.5,0,0,1-2.09.57,2.53,2.53,0,0,1-2-.82,3.36,3.36,0,0,1-.73-2.3,3.29,3.29,0,0,1,.8-2.28,2.53,2.53,0,0,1,2-.88,2.24,2.24,0,0,1,1.82.76,3.2,3.2,0,0,1,.65,2.12Zm-1-.81a2,2,0,0,0-.4-1.3,1.36,1.36,0,0,0-1.1-.46,1.52,1.52,0,0,0-1.15.49,2.19,2.19,0,0,0-.59,1.27Z" fill="#1e1e1e"/>
      <path d="M71.9,123.4h-1V120c0-1.27-.47-1.91-1.4-1.91a1.52,1.52,0,0,0-1.19.54,2,2,0,0,0-.47,1.37v3.42h-1v-6h1v1h0a2.17,2.17,0,0,1,2-1.14,1.83,1.83,0,0,1,1.51.64,2.79,2.79,0,0,1,.52,1.83Z" fill="#1e1e1e"/>
      <path d="M76.49,123.34a1.76,1.76,0,0,1-.89.19c-1,0-1.58-.59-1.58-1.76v-3.55H73v-.82h1v-1.46l1-.31v1.77h1.51v.82H75v3.38a1.37,1.37,0,0,0,.21.86.78.78,0,0,0,.68.26.94.94,0,0,0,.62-.2Z" fill="#1e1e1e"/>
      <path d="M28.4,136.6h-1v-1h0a2.21,2.21,0,0,1-2.06,1.16,2.27,2.27,0,0,1-1.81-.8,3.32,3.32,0,0,1-.67-2.2,3.57,3.57,0,0,1,.75-2.38,2.46,2.46,0,0,1,2-.9,1.91,1.91,0,0,1,1.8,1h0v-3.71h1Zm-1-2.71V133a1.73,1.73,0,0,0-.48-1.23,1.64,1.64,0,0,0-1.22-.5,1.67,1.67,0,0,0-1.39.64,2.87,2.87,0,0,0-.5,1.78,2.54,2.54,0,0,0,.48,1.64,1.6,1.6,0,0,0,1.3.6,1.65,1.65,0,0,0,1.31-.58A2.16,2.16,0,0,0,27.44,133.89Z" fill="#1e1e1e"/>
      <path d="M35.17,133.84H30.93a2.21,2.21,0,0,0,.54,1.55,1.85,1.85,0,0,0,1.42.54,3,3,0,0,0,1.86-.66v.9a3.52,3.52,0,0,1-2.09.57,2.52,2.52,0,0,1-2-.82,3.81,3.81,0,0,1,.07-4.58,2.53,2.53,0,0,1,2-.88,2.25,2.25,0,0,1,1.82.76,3.2,3.2,0,0,1,.65,2.12Zm-1-.81a2,2,0,0,0-.4-1.3,1.36,1.36,0,0,0-1.1-.46,1.52,1.52,0,0,0-1.15.49,2.13,2.13,0,0,0-.59,1.27Z" fill="#1e1e1e"/>
      <path d="M40.91,136.6H40v-.94h0a2.2,2.2,0,0,1-3.25.61,1.65,1.65,0,0,1-.51-1.26c0-1.12.66-1.78,2-2l1.8-.25q0-1.53-1.23-1.53a3,3,0,0,0-2,.74v-1a3.76,3.76,0,0,1,2-.56c1.41,0,2.11.75,2.11,2.24Zm-1-3-1.45.2a2.25,2.25,0,0,0-1,.33.93.93,0,0,0-.34.84.89.89,0,0,0,.31.71,1.2,1.2,0,0,0,.84.28,1.53,1.53,0,0,0,1.18-.5,1.77,1.77,0,0,0,.46-1.27Z" fill="#1e1e1e"/>
      <path d="M47.84,136.6h-1v-1h0a2.21,2.21,0,0,1-2.06,1.16,2.25,2.25,0,0,1-1.81-.8,3.33,3.33,0,0,1-.68-2.2,3.57,3.57,0,0,1,.75-2.38,2.48,2.48,0,0,1,2-.9,1.91,1.91,0,0,1,1.8,1h0v-3.71h1Zm-1-2.71V133a1.73,1.73,0,0,0-.48-1.23,1.62,1.62,0,0,0-1.22-.5,1.66,1.66,0,0,0-1.38.64,2.87,2.87,0,0,0-.5,1.78,2.54,2.54,0,0,0,.48,1.64,1.59,1.59,0,0,0,1.3.6,1.63,1.63,0,0,0,1.3-.58A2.11,2.11,0,0,0,46.88,133.89Z" fill="#1e1e1e"/>
      <path d="M50.75,136.6h-1v-8.88h1Z" fill="#1e1e1e"/>
      <path d="M53.19,129.08a.6.6,0,0,1-.44-.18.59.59,0,0,1-.18-.44.61.61,0,0,1,.18-.45.6.6,0,0,1,.44-.18.64.64,0,0,1,.45.18.61.61,0,0,1,.18.45.62.62,0,0,1-.18.44A.64.64,0,0,1,53.19,129.08Zm.47,7.52h-1v-6h1Z" fill="#1e1e1e"/>
      <path d="M60.58,136.6h-1v-3.42c0-1.27-.46-1.91-1.39-1.91a1.5,1.5,0,0,0-1.19.54,2,2,0,0,0-.48,1.37v3.42h-1v-6h1v1h0a2.16,2.16,0,0,1,2-1.14,1.82,1.82,0,0,1,1.5.64,2.79,2.79,0,0,1,.52,1.83Z" fill="#1e1e1e"/>
      <path d="M67.22,133.84H63a2.25,2.25,0,0,0,.54,1.55,1.85,1.85,0,0,0,1.42.54,3,3,0,0,0,1.86-.66v.9a3.5,3.5,0,0,1-2.09.57,2.52,2.52,0,0,1-2-.82,3.36,3.36,0,0,1-.73-2.3,3.29,3.29,0,0,1,.8-2.28,2.53,2.53,0,0,1,2-.88,2.25,2.25,0,0,1,1.82.76,3.2,3.2,0,0,1,.65,2.12Zm-1-.81a2,2,0,0,0-.4-1.3,1.36,1.36,0,0,0-1.1-.46,1.52,1.52,0,0,0-1.15.49A2.19,2.19,0,0,0,63,133Z" fill="#1e1e1e"/>
    </g>
    <g>
      <path d="M133.1,112.11H131V101.8h2.15v.7h-1.3v8.91h1.3Z" fill="#1e1e1e"/>
      <path d="M134.1,109.86V108.7a2.86,2.86,0,0,0,.48.32,3.8,3.8,0,0,0,.59.23,3.3,3.3,0,0,0,.62.15,2.91,2.91,0,0,0,.57.06,2.29,2.29,0,0,0,1.36-.34,1.26,1.26,0,0,0,.3-1.56,1.64,1.64,0,0,0-.42-.46,3.91,3.91,0,0,0-.62-.4l-.78-.4-.82-.45a3.4,3.4,0,0,1-.66-.51,1.89,1.89,0,0,1-.6-1.44,1.93,1.93,0,0,1,.25-1,2.32,2.32,0,0,1,.66-.7,3.13,3.13,0,0,1,.93-.41,4.29,4.29,0,0,1,1.07-.13,4,4,0,0,1,1.81.3v1.1a3.29,3.29,0,0,0-1.91-.51,2.79,2.79,0,0,0-.64.07,1.51,1.51,0,0,0-.57.22,1.18,1.18,0,0,0-.41.39,1,1,0,0,0-.16.58,1.22,1.22,0,0,0,.12.56,1.41,1.41,0,0,0,.35.43,3.75,3.75,0,0,0,.57.37l.78.4c.3.15.59.31.86.47a4.36,4.36,0,0,1,.7.55,2.36,2.36,0,0,1,.49.66,1.84,1.84,0,0,1,.18.83,2,2,0,0,1-.25,1,2,2,0,0,1-.65.7,2.94,2.94,0,0,1-1,.39,5.09,5.09,0,0,1-1.13.12l-.49,0q-.3,0-.6-.09c-.2,0-.4-.1-.58-.16A1.65,1.65,0,0,1,134.1,109.86Z" fill="#1e1e1e"/>
      <path d="M143.25,110.34a2.77,2.77,0,0,1-2.12-.84,3.11,3.11,0,0,1-.8-2.23,3.25,3.25,0,0,1,.83-2.36,3,3,0,0,1,2.23-.85,2.71,2.71,0,0,1,2.1.83,3.77,3.77,0,0,1-.06,4.59A2.87,2.87,0,0,1,143.25,110.34Zm.07-5.47a1.81,1.81,0,0,0-1.46.63,2.59,2.59,0,0,0-.54,1.74,2.46,2.46,0,0,0,.54,1.68,1.86,1.86,0,0,0,1.46.61,1.75,1.75,0,0,0,1.43-.6,2.58,2.58,0,0,0,.5-1.72,2.61,2.61,0,0,0-.5-1.73A1.73,1.73,0,0,0,143.32,104.87Z" fill="#1e1e1e"/>
      <path d="M150.74,102.16a1.35,1.35,0,0,0-.64-.16c-.67,0-1,.43-1,1.28v.92h1.41V105h-1.41v5.18h-1V105h-1v-.82h1v-1a2,2,0,0,1,.54-1.49,1.84,1.84,0,0,1,1.36-.55,1.92,1.92,0,0,1,.7.1Z" fill="#1e1e1e"/>
      <path d="M154.31,110.14a1.76,1.76,0,0,1-.89.19c-1,0-1.58-.59-1.58-1.76V105h-1v-.82h1v-1.46l1-.31v1.77h1.51V105H152.8v3.38a1.37,1.37,0,0,0,.21.86.78.78,0,0,0,.68.26.94.94,0,0,0,.62-.2Z" fill="#1e1e1e"/>
      <path d="M158.67,107.24h-3.2v-.76h3.2Z" fill="#1e1e1e"/>
      <path d="M165.52,110.2h-1v-1h0a2.2,2.2,0,0,1-2.06,1.16,2.27,2.27,0,0,1-1.81-.8,3.32,3.32,0,0,1-.67-2.2,3.57,3.57,0,0,1,.75-2.38,2.46,2.46,0,0,1,2-.9,1.91,1.91,0,0,1,1.8,1h0v-3.71h1Zm-1-2.71v-.89a1.73,1.73,0,0,0-.48-1.23,1.65,1.65,0,0,0-1.22-.5,1.67,1.67,0,0,0-1.39.64,2.87,2.87,0,0,0-.5,1.78,2.54,2.54,0,0,0,.48,1.64,1.73,1.73,0,0,0,2.6,0A2.11,2.11,0,0,0,164.56,107.49Z" fill="#1e1e1e"/>
      <path d="M172.28,107.44h-4.23a2.19,2.19,0,0,0,.54,1.55,1.85,1.85,0,0,0,1.41.54,3,3,0,0,0,1.87-.66v.9a3.52,3.52,0,0,1-2.09.57,2.52,2.52,0,0,1-2-.82,3.81,3.81,0,0,1,.07-4.58,2.53,2.53,0,0,1,2-.88,2.25,2.25,0,0,1,1.82.76,3.19,3.19,0,0,1,.64,2.12Zm-1-.81a2,2,0,0,0-.4-1.3,1.37,1.37,0,0,0-1.1-.46,1.52,1.52,0,0,0-1.15.49,2.13,2.13,0,0,0-.59,1.27Z" fill="#1e1e1e"/>
      <path d="M178,110.2h-1v-.94h0a2,2,0,0,1-1.85,1.08,2,2,0,0,1-1.4-.47,1.65,1.65,0,0,1-.51-1.26c0-1.12.66-1.78,2-2l1.8-.25c0-1-.41-1.53-1.24-1.53a3,3,0,0,0-2,.74v-1a3.76,3.76,0,0,1,2-.56c1.41,0,2.11.75,2.11,2.24Zm-1-3-1.45.2a2.25,2.25,0,0,0-1,.33.93.93,0,0,0-.34.84.89.89,0,0,0,.31.71,1.19,1.19,0,0,0,.83.28,1.55,1.55,0,0,0,1.19-.5,1.77,1.77,0,0,0,.46-1.27Z" fill="#1e1e1e"/>
      <path d="M185,110.2h-1v-1h0a2.21,2.21,0,0,1-2.06,1.16,2.25,2.25,0,0,1-1.81-.8,3.33,3.33,0,0,1-.68-2.2,3.57,3.57,0,0,1,.75-2.38,2.48,2.48,0,0,1,2-.9,1.93,1.93,0,0,1,1.8,1h0v-3.71h1Zm-1-2.71v-.89a1.73,1.73,0,0,0-.48-1.23,1.62,1.62,0,0,0-1.22-.5,1.66,1.66,0,0,0-1.38.64,2.81,2.81,0,0,0-.5,1.78,2.54,2.54,0,0,0,.48,1.64,1.59,1.59,0,0,0,1.3.6,1.63,1.63,0,0,0,1.3-.58A2.11,2.11,0,0,0,184,107.49Z" fill="#1e1e1e"/>
      <path d="M187.87,110.2h-1v-8.88h1Z" fill="#1e1e1e"/>
      <path d="M190.31,102.68a.6.6,0,0,1-.44-.18.59.59,0,0,1-.18-.44.61.61,0,0,1,.18-.45.6.6,0,0,1,.44-.18.64.64,0,0,1,.45.18.61.61,0,0,1,.18.45.6.6,0,0,1-.18.44A.64.64,0,0,1,190.31,102.68Zm.47,7.52h-1v-6h1Z" fill="#1e1e1e"/>
      <path d="M197.7,110.2h-1v-3.42c0-1.27-.46-1.91-1.39-1.91a1.54,1.54,0,0,0-1.2.54,2,2,0,0,0-.47,1.37v3.42h-1v-6h1v1h0a2.16,2.16,0,0,1,2-1.14,1.83,1.83,0,0,1,1.51.64,2.79,2.79,0,0,1,.52,1.83Z" fill="#1e1e1e"/>
      <path d="M204.33,107.44H200.1a2.19,2.19,0,0,0,.54,1.55,1.85,1.85,0,0,0,1.42.54,3,3,0,0,0,1.86-.66v.9a3.52,3.52,0,0,1-2.09.57,2.52,2.52,0,0,1-2-.82,3.81,3.81,0,0,1,.07-4.58,2.53,2.53,0,0,1,2-.88,2.25,2.25,0,0,1,1.82.76,3.19,3.19,0,0,1,.64,2.12Zm-1-.81a2,2,0,0,0-.4-1.3,1.36,1.36,0,0,0-1.1-.46,1.52,1.52,0,0,0-1.15.49,2.13,2.13,0,0,0-.59,1.27Z" fill="#1e1e1e"/>
      <path d="M208.71,110v-1a2.84,2.84,0,0,0,1.73.58c.84,0,1.27-.28,1.27-.84a.76.76,0,0,0-.11-.41.93.93,0,0,0-.3-.29,1.94,1.94,0,0,0-.43-.24l-.54-.21a6.6,6.6,0,0,1-.7-.32,2.47,2.47,0,0,1-.5-.36,1.35,1.35,0,0,1-.3-.46,1.58,1.58,0,0,1-.11-.61,1.39,1.39,0,0,1,.2-.74,1.78,1.78,0,0,1,.51-.55,2.77,2.77,0,0,1,.74-.33,3.41,3.41,0,0,1,.85-.11,3.5,3.5,0,0,1,1.4.27v1a2.74,2.74,0,0,0-1.53-.43,1.75,1.75,0,0,0-.48.06,1.33,1.33,0,0,0-.38.17,1,1,0,0,0-.24.27.77.77,0,0,0-.08.34,1,1,0,0,0,.08.4,1.07,1.07,0,0,0,.25.28,2.11,2.11,0,0,0,.4.22l.53.22a6.21,6.21,0,0,1,.72.31,2.82,2.82,0,0,1,.54.36,1.41,1.41,0,0,1,.34.47,1.48,1.48,0,0,1,.12.63,1.41,1.41,0,0,1-.2.77,1.58,1.58,0,0,1-.52.54,2.28,2.28,0,0,1-.76.33,3.68,3.68,0,0,1-.89.1A3.41,3.41,0,0,1,208.71,110Z" fill="#1e1e1e"/>
      <path d="M217,110.14a1.82,1.82,0,0,1-.9.19c-1.05,0-1.57-.59-1.57-1.76V105h-1v-.82h1v-1.46l1-.31v1.77H217V105h-1.51v3.38a1.45,1.45,0,0,0,.2.86.81.81,0,0,0,.68.26,1,1,0,0,0,.63-.2Z" fill="#1e1e1e"/>
      <path d="M222.53,110.2h-1v-.94h0a2.2,2.2,0,0,1-3.25.61,1.68,1.68,0,0,1-.5-1.26c0-1.12.66-1.78,2-2l1.8-.25c0-1-.41-1.53-1.24-1.53a3,3,0,0,0-2,.74v-1a3.76,3.76,0,0,1,2-.56c1.41,0,2.12.75,2.12,2.24Zm-1-3-1.45.2a2.3,2.3,0,0,0-1,.33,1,1,0,0,0-.34.84.9.9,0,0,0,.32.71,1.16,1.16,0,0,0,.83.28,1.51,1.51,0,0,0,1.18-.5,1.78,1.78,0,0,0,.47-1.27Z" fill="#1e1e1e"/>
      <path d="M227.47,105.17a1.18,1.18,0,0,0-.73-.19,1.23,1.23,0,0,0-1,.58,2.72,2.72,0,0,0-.41,1.58v3.06h-1v-6h1v1.24h0a2.17,2.17,0,0,1,.63-1,1.41,1.41,0,0,1,.94-.35,1.52,1.52,0,0,1,.58.08Z" fill="#1e1e1e"/>
      <path d="M231.29,110.14a1.76,1.76,0,0,1-.89.19c-1.05,0-1.58-.59-1.58-1.76V105h-1v-.82h1v-1.46l1-.31v1.77h1.51V105h-1.51v3.38a1.37,1.37,0,0,0,.21.86.78.78,0,0,0,.68.26.94.94,0,0,0,.62-.2Z" fill="#1e1e1e"/>
      <path d="M234.07,112.11h-2.15v-.7h1.29V102.5h-1.29v-.7h2.15Z" fill="#1e1e1e"/>
    </g>
    <g>
      <path d="M389.79,112.11h-2.16V101.8h2.16v.7h-1.3v8.91h1.3Z" fill="#1e1e1e"/>
      <path d="M390.79,109.86V108.7a2.23,2.23,0,0,0,.48.32,3.69,3.69,0,0,0,.58.23,3.5,3.5,0,0,0,.62.15,3.07,3.07,0,0,0,.57.06,2.29,2.29,0,0,0,1.36-.34,1.26,1.26,0,0,0,.3-1.56,1.76,1.76,0,0,0-.41-.46,4.57,4.57,0,0,0-.63-.4l-.77-.4c-.3-.15-.57-.3-.82-.45a3.2,3.2,0,0,1-.67-.51,2.26,2.26,0,0,1-.44-.62,1.91,1.91,0,0,1-.16-.82,1.93,1.93,0,0,1,.25-1,2.32,2.32,0,0,1,.66-.7,3.19,3.19,0,0,1,.94-.41,4.29,4.29,0,0,1,1.07-.13,4.08,4.08,0,0,1,1.81.3v1.1a3.31,3.31,0,0,0-1.91-.51,2.88,2.88,0,0,0-.65.07,1.58,1.58,0,0,0-.57.22,1.27,1.27,0,0,0-.41.39,1,1,0,0,0-.16.58,1.22,1.22,0,0,0,.12.56,1.31,1.31,0,0,0,.36.43,3,3,0,0,0,.57.37c.22.12.48.26.77.4s.59.31.86.47a4,4,0,0,1,.71.55,2.53,2.53,0,0,1,.48.66,1.84,1.84,0,0,1,.18.83,2.14,2.14,0,0,1-.24,1,1.93,1.93,0,0,1-.66.7,2.8,2.8,0,0,1-1,.39,5.24,5.24,0,0,1-1.14.12l-.49,0-.6-.09-.57-.16A1.51,1.51,0,0,1,390.79,109.86Z" fill="#1e1e1e"/>
      <path d="M399.94,110.34a2.79,2.79,0,0,1-2.13-.84,3.1,3.1,0,0,1-.79-2.23,3.24,3.24,0,0,1,.82-2.36,3,3,0,0,1,2.24-.85,2.69,2.69,0,0,1,2.09.83,3.77,3.77,0,0,1-.06,4.59A2.85,2.85,0,0,1,399.94,110.34Zm.07-5.47a1.84,1.84,0,0,0-1.47.63,2.59,2.59,0,0,0-.54,1.74,2.41,2.41,0,0,0,.55,1.68,1.85,1.85,0,0,0,1.46.61,1.77,1.77,0,0,0,1.43-.6,2.63,2.63,0,0,0,.5-1.72,2.66,2.66,0,0,0-.5-1.73A1.74,1.74,0,0,0,400,104.87Z" fill="#1e1e1e"/>
      <path d="M407.42,102.16a1.31,1.31,0,0,0-.63-.16c-.68,0-1,.43-1,1.28v.92h1.4V105h-1.4v5.18h-1V105h-1v-.82h1v-1a2,2,0,0,1,.55-1.49,1.81,1.81,0,0,1,1.36-.55,1.86,1.86,0,0,1,.69.1Z" fill="#1e1e1e"/>
      <path d="M411,110.14a1.82,1.82,0,0,1-.9.19c-1.05,0-1.57-.59-1.57-1.76V105h-1v-.82h1v-1.46l1-.31v1.77H411V105h-1.51v3.38a1.38,1.38,0,0,0,.2.86.8.8,0,0,0,.68.26,1,1,0,0,0,.63-.2Z" fill="#1e1e1e"/>
      <path d="M415.35,107.24h-3.2v-.76h3.2Z" fill="#1e1e1e"/>
      <path d="M422.2,110.2h-1v-1h0a2.22,2.22,0,0,1-2.07,1.16,2.25,2.25,0,0,1-1.8-.8,3.33,3.33,0,0,1-.68-2.2,3.57,3.57,0,0,1,.75-2.38,2.48,2.48,0,0,1,2-.9,1.93,1.93,0,0,1,1.8,1h0v-3.71h1Zm-1-2.71v-.89a1.73,1.73,0,0,0-.48-1.23,1.78,1.78,0,0,0-2.6.14,2.81,2.81,0,0,0-.51,1.78,2.54,2.54,0,0,0,.49,1.64,1.57,1.57,0,0,0,1.3.6,1.63,1.63,0,0,0,1.3-.58A2.16,2.16,0,0,0,421.24,107.49Z" fill="#1e1e1e"/>
      <path d="M429,107.44h-4.24a2.28,2.28,0,0,0,.54,1.55,1.88,1.88,0,0,0,1.42.54,2.94,2.94,0,0,0,1.86-.66v.9a3.47,3.47,0,0,1-2.09.57,2.53,2.53,0,0,1-2-.82,3.35,3.35,0,0,1-.72-2.3,3.28,3.28,0,0,1,.79-2.28,2.54,2.54,0,0,1,2-.88,2.24,2.24,0,0,1,1.82.76,3.2,3.2,0,0,1,.65,2.12Zm-1-.81a1.91,1.91,0,0,0-.4-1.3,1.36,1.36,0,0,0-1.1-.46,1.54,1.54,0,0,0-1.15.49,2.19,2.19,0,0,0-.59,1.27Z" fill="#1e1e1e"/>
      <path d="M434.72,110.2h-1v-.94h0a2.2,2.2,0,0,1-3.25.61,1.68,1.68,0,0,1-.5-1.26c0-1.12.66-1.78,2-2l1.8-.25c0-1-.42-1.53-1.24-1.53a3,3,0,0,0-2,.74v-1a3.76,3.76,0,0,1,2-.56c1.41,0,2.12.75,2.12,2.24Zm-1-3-1.45.2a2.3,2.3,0,0,0-1,.33,1.08,1.08,0,0,0,0,1.55,1.2,1.2,0,0,0,.84.28,1.51,1.51,0,0,0,1.18-.5,1.78,1.78,0,0,0,.47-1.27Z" fill="#1e1e1e"/>
      <path d="M441.65,110.2h-1v-1h0a2.2,2.2,0,0,1-2.06,1.16,2.28,2.28,0,0,1-1.81-.8,3.32,3.32,0,0,1-.67-2.2,3.57,3.57,0,0,1,.75-2.38,2.46,2.46,0,0,1,2-.9,1.9,1.9,0,0,1,1.79,1h0v-3.71h1Zm-1-2.71v-.89a1.73,1.73,0,0,0-.48-1.23,1.78,1.78,0,0,0-2.6.14,2.81,2.81,0,0,0-.51,1.78,2.54,2.54,0,0,0,.48,1.64,1.6,1.6,0,0,0,1.3.6,1.65,1.65,0,0,0,1.31-.58A2.16,2.16,0,0,0,440.69,107.49Z" fill="#1e1e1e"/>
      <path d="M444.55,110.2h-1v-8.88h1Z" fill="#1e1e1e"/>
      <path d="M447,102.68a.6.6,0,0,1-.44-.18.59.59,0,0,1-.18-.44.61.61,0,0,1,.18-.45.6.6,0,0,1,.44-.18.61.61,0,0,1,.45.18.62.62,0,0,1,0,.89A.61.61,0,0,1,447,102.68Zm.47,7.52h-1v-6h1Z" fill="#1e1e1e"/>
      <path d="M454.39,110.2h-1v-3.42c0-1.27-.47-1.91-1.4-1.91a1.5,1.5,0,0,0-1.19.54,2,2,0,0,0-.47,1.37v3.42h-1v-6h1v1h0a2.16,2.16,0,0,1,2-1.14,1.83,1.83,0,0,1,1.51.64,2.85,2.85,0,0,1,.52,1.83Z" fill="#1e1e1e"/>
      <path d="M461,107.44h-4.24a2.28,2.28,0,0,0,.54,1.55,1.88,1.88,0,0,0,1.42.54,2.94,2.94,0,0,0,1.86-.66v.9a3.47,3.47,0,0,1-2.09.57,2.53,2.53,0,0,1-2-.82,3.35,3.35,0,0,1-.72-2.3,3.28,3.28,0,0,1,.79-2.28,2.54,2.54,0,0,1,2-.88,2.26,2.26,0,0,1,1.83.76,3.25,3.25,0,0,1,.64,2.12Zm-1-.81a2,2,0,0,0-.41-1.3,1.35,1.35,0,0,0-1.09-.46,1.54,1.54,0,0,0-1.16.49,2.19,2.19,0,0,0-.59,1.27Z" fill="#1e1e1e"/>
      <path d="M470.58,107.44h-4.23a2.23,2.23,0,0,0,.53,1.55,1.88,1.88,0,0,0,1.42.54,3,3,0,0,0,1.87-.66v.9a3.53,3.53,0,0,1-2.1.57,2.51,2.51,0,0,1-2-.82,3.83,3.83,0,0,1,.06-4.58,2.55,2.55,0,0,1,2-.88,2.25,2.25,0,0,1,1.82.76,3.19,3.19,0,0,1,.64,2.12Zm-1-.81a2,2,0,0,0-.4-1.3,1.37,1.37,0,0,0-1.1-.46,1.54,1.54,0,0,0-1.16.49,2.18,2.18,0,0,0-.58,1.27Z" fill="#1e1e1e"/>
      <path d="M477,110.2h-1v-3.42c0-1.27-.46-1.91-1.39-1.91a1.5,1.5,0,0,0-1.19.54,2,2,0,0,0-.47,1.37v3.42h-1v-6h1v1h0a2.16,2.16,0,0,1,2-1.14,1.81,1.81,0,0,1,1.5.64,2.79,2.79,0,0,1,.53,1.83Z" fill="#1e1e1e"/>
      <path d="M484,110.2h-1v-1h0a2.2,2.2,0,0,1-2.06,1.16,2.27,2.27,0,0,1-1.81-.8,3.32,3.32,0,0,1-.67-2.2,3.57,3.57,0,0,1,.75-2.38,2.46,2.46,0,0,1,2-.9,1.91,1.91,0,0,1,1.8,1h0v-3.71h1Zm-1-2.71v-.89a1.73,1.73,0,0,0-.48-1.23,1.64,1.64,0,0,0-1.22-.5,1.67,1.67,0,0,0-1.39.64,2.87,2.87,0,0,0-.5,1.78,2.54,2.54,0,0,0,.48,1.64,1.6,1.6,0,0,0,1.3.6,1.65,1.65,0,0,0,1.31-.58A2.16,2.16,0,0,0,483,107.49Z" fill="#1e1e1e"/>
      <path d="M487.38,112.11h-2.15v-.7h1.3V102.5h-1.3v-.7h2.15Z" fill="#1e1e1e"/>
    </g>
    <g>
      <path d="M237.08,35.2h-4.45V26.8h4.27v.89h-3.28v2.79h3v.89h-3v2.94h3.46Z" fill="#1e1e1e"/>
      <path d="M243.55,35.2h-1V31.78c0-1.27-.46-1.91-1.39-1.91a1.5,1.5,0,0,0-1.19.54,2,2,0,0,0-.48,1.37V35.2h-1v-6h1v1h0a2.16,2.16,0,0,1,2-1.14,1.82,1.82,0,0,1,1.5.64,2.79,2.79,0,0,1,.52,1.83Z" fill="#1e1e1e"/>
      <path d="M248.33,27.16a1.35,1.35,0,0,0-.64-.16c-.67,0-1,.43-1,1.28v.92h1.41V30h-1.41V35.2h-1V30h-1V29.2h1v-1a2,2,0,0,1,.54-1.49,1.84,1.84,0,0,1,1.36-.55,1.92,1.92,0,0,1,.7.1Z" fill="#1e1e1e"/>
      <path d="M251.63,35.34a2.79,2.79,0,0,1-2.13-.84,3.1,3.1,0,0,1-.79-2.23,3.25,3.25,0,0,1,.83-2.36,3,3,0,0,1,2.23-.85,2.69,2.69,0,0,1,2.09.83,3.23,3.23,0,0,1,.76,2.29,3.21,3.21,0,0,1-.82,2.3A2.85,2.85,0,0,1,251.63,35.34Zm.07-5.47a1.84,1.84,0,0,0-1.47.63,2.59,2.59,0,0,0-.54,1.74,2.46,2.46,0,0,0,.55,1.68,1.85,1.85,0,0,0,1.46.61,1.75,1.75,0,0,0,1.43-.6,2.63,2.63,0,0,0,.5-1.72,2.66,2.66,0,0,0-.5-1.73A1.73,1.73,0,0,0,251.7,29.87Z" fill="#1e1e1e"/>
      <path d="M259.28,30.17a1.18,1.18,0,0,0-.73-.19,1.2,1.2,0,0,0-1,.58,2.64,2.64,0,0,0-.42,1.58V35.2h-1v-6h1v1.24h0a2.08,2.08,0,0,1,.62-1,1.42,1.42,0,0,1,.95-.35,1.44,1.44,0,0,1,.57.08Z" fill="#1e1e1e"/>
      <path d="M264.41,34.93a3.17,3.17,0,0,1-1.64.41,2.75,2.75,0,0,1-2.07-.83,3.06,3.06,0,0,1-.79-2.17,3.35,3.35,0,0,1,.85-2.38,3,3,0,0,1,2.27-.9,3.2,3.2,0,0,1,1.39.29v1a2.44,2.44,0,0,0-1.42-.47,1.92,1.92,0,0,0-1.51.66,2.46,2.46,0,0,0-.59,1.73,2.36,2.36,0,0,0,.55,1.66,1.91,1.91,0,0,0,1.49.61,2.38,2.38,0,0,0,1.47-.52Z" fill="#1e1e1e"/>
      <path d="M270.69,32.44h-4.24A2.28,2.28,0,0,0,267,34a1.87,1.87,0,0,0,1.42.54,3,3,0,0,0,1.86-.66v.9a3.47,3.47,0,0,1-2.09.57,2.53,2.53,0,0,1-2-.82,3.35,3.35,0,0,1-.72-2.3,3.28,3.28,0,0,1,.79-2.28,2.54,2.54,0,0,1,2-.88,2.24,2.24,0,0,1,1.82.76,3.2,3.2,0,0,1,.65,2.12Zm-1-.81a1.91,1.91,0,0,0-.4-1.3,1.36,1.36,0,0,0-1.1-.46,1.54,1.54,0,0,0-1.15.49,2.19,2.19,0,0,0-.59,1.27Z" fill="#1e1e1e"/>
      <path d="M280.66,35.2h-1V31.76a2.58,2.58,0,0,0-.31-1.45,1.17,1.17,0,0,0-1-.44,1.3,1.3,0,0,0-1.05.56,2.22,2.22,0,0,0-.43,1.35V35.2h-1V31.64c0-1.18-.45-1.77-1.36-1.77a1.28,1.28,0,0,0-1.05.53,2.2,2.2,0,0,0-.41,1.38V35.2h-1v-6h1v.95h0A2,2,0,0,1,275,29.06a1.73,1.73,0,0,1,1.7,1.24,2.13,2.13,0,0,1,2-1.24c1.32,0,2,.82,2,2.44Z" fill="#1e1e1e"/>
      <path d="M287.3,32.44h-4.24A2.28,2.28,0,0,0,283.6,34a1.88,1.88,0,0,0,1.42.54,2.94,2.94,0,0,0,1.86-.66v.9a3.47,3.47,0,0,1-2.09.57,2.53,2.53,0,0,1-2-.82,3.35,3.35,0,0,1-.72-2.3,3.28,3.28,0,0,1,.79-2.28,2.54,2.54,0,0,1,2-.88,2.26,2.26,0,0,1,1.83.76,3.25,3.25,0,0,1,.64,2.12Zm-1-.81a2,2,0,0,0-.41-1.3,1.35,1.35,0,0,0-1.09-.46,1.54,1.54,0,0,0-1.16.49,2.12,2.12,0,0,0-.58,1.27Z" fill="#1e1e1e"/>
      <path d="M293.73,35.2h-1V31.78c0-1.27-.46-1.91-1.39-1.91a1.5,1.5,0,0,0-1.19.54,2,2,0,0,0-.48,1.37V35.2h-1v-6h1v1h0a2.16,2.16,0,0,1,2-1.14,1.82,1.82,0,0,1,1.5.64,2.79,2.79,0,0,1,.52,1.83Z" fill="#1e1e1e"/>
      <path d="M298.33,35.14a1.82,1.82,0,0,1-.9.19c-1.05,0-1.58-.59-1.58-1.76V30h-1V29.2h1V27.74l1-.31V29.2h1.51V30h-1.51V33.4a1.38,1.38,0,0,0,.2.86.8.8,0,0,0,.68.26,1,1,0,0,0,.63-.2Z" fill="#1e1e1e"/>
      <path d="M305.68,35.14a1.8,1.8,0,0,1-.9.19c-1,0-1.57-.59-1.57-1.76V30h-1V29.2h1V27.74l1-.31V29.2h1.51V30h-1.51V33.4a1.45,1.45,0,0,0,.2.86.81.81,0,0,0,.68.26,1,1,0,0,0,.63-.2Z" fill="#1e1e1e"/>
      <path d="M309.47,35.34a2.77,2.77,0,0,1-2.12-.84,3.11,3.11,0,0,1-.8-2.23,3.25,3.25,0,0,1,.83-2.36,3,3,0,0,1,2.23-.85,2.7,2.7,0,0,1,2.1.83,3.27,3.27,0,0,1,.75,2.29,3.25,3.25,0,0,1-.81,2.3A2.87,2.87,0,0,1,309.47,35.34Zm.07-5.47a1.81,1.81,0,0,0-1.46.63,2.59,2.59,0,0,0-.54,1.74,2.46,2.46,0,0,0,.54,1.68,1.86,1.86,0,0,0,1.46.61,1.75,1.75,0,0,0,1.43-.6,2.58,2.58,0,0,0,.51-1.72,2.61,2.61,0,0,0-.51-1.73A1.73,1.73,0,0,0,309.54,29.87Z" fill="#1e1e1e"/>
      <path d="M319.79,35.34a2.77,2.77,0,0,1-2.12-.84,3.11,3.11,0,0,1-.8-2.23,3.25,3.25,0,0,1,.83-2.36,3,3,0,0,1,2.23-.85,2.71,2.71,0,0,1,2.1.83,3.27,3.27,0,0,1,.75,2.29,3.25,3.25,0,0,1-.81,2.3A2.87,2.87,0,0,1,319.79,35.34Zm.07-5.47a1.8,1.8,0,0,0-1.46.63,2.59,2.59,0,0,0-.54,1.74,2.46,2.46,0,0,0,.54,1.68,1.85,1.85,0,0,0,1.46.61,1.75,1.75,0,0,0,1.43-.6,2.58,2.58,0,0,0,.5-1.72,2.61,2.61,0,0,0-.5-1.73A1.73,1.73,0,0,0,319.86,29.87Z" fill="#1e1e1e"/>
      <path d="M328.4,34.93a3.17,3.17,0,0,1-1.64.41,2.75,2.75,0,0,1-2.07-.83,3.06,3.06,0,0,1-.79-2.17,3.35,3.35,0,0,1,.85-2.38,3,3,0,0,1,2.27-.9,3.27,3.27,0,0,1,1.4.29v1a2.49,2.49,0,0,0-1.43-.47,1.92,1.92,0,0,0-1.51.66,2.46,2.46,0,0,0-.59,1.73,2.36,2.36,0,0,0,.55,1.66,1.91,1.91,0,0,0,1.49.61A2.38,2.38,0,0,0,328.4,34Z" fill="#1e1e1e"/>
      <path d="M334,34.93a3.19,3.19,0,0,1-1.64.41,2.76,2.76,0,0,1-2.08-.83,3.06,3.06,0,0,1-.78-2.17A3.3,3.3,0,0,1,330.3,30a3,3,0,0,1,2.26-.9,3.24,3.24,0,0,1,1.4.29v1a2.47,2.47,0,0,0-1.43-.47,1.93,1.93,0,0,0-1.51.66,2.5,2.5,0,0,0-.59,1.73,2.41,2.41,0,0,0,.55,1.66,1.91,1.91,0,0,0,1.49.61A2.41,2.41,0,0,0,334,34Z" fill="#1e1e1e"/>
      <path d="M340.25,35.2h-1v-1h0a2,2,0,0,1-1.85,1.09c-1.43,0-2.15-.85-2.15-2.55V29.2h1v3.43c0,1.27.48,1.9,1.45,1.9a1.47,1.47,0,0,0,1.16-.52,2,2,0,0,0,.45-1.35V29.2h1Z" fill="#1e1e1e"/>
      <path d="M345.32,30.17a1.18,1.18,0,0,0-.73-.19,1.23,1.23,0,0,0-1,.58,2.72,2.72,0,0,0-.41,1.58V35.2h-1v-6h1v1.24h0a2.17,2.17,0,0,1,.63-1,1.42,1.42,0,0,1,.95-.35,1.44,1.44,0,0,1,.57.08Z" fill="#1e1e1e"/>
      <path d="M354.77,35.2h-1v-1h0a2.22,2.22,0,0,1-2.07,1.16,2.25,2.25,0,0,1-1.8-.8,3.27,3.27,0,0,1-.68-2.2A3.57,3.57,0,0,1,350,30a2.48,2.48,0,0,1,2-.9,1.93,1.93,0,0,1,1.8,1h0V26.32h1Zm-1-2.71V31.6a1.73,1.73,0,0,0-.48-1.23,1.78,1.78,0,0,0-2.6.14,2.81,2.81,0,0,0-.51,1.78,2.49,2.49,0,0,0,.49,1.64,1.57,1.57,0,0,0,1.29.6,1.65,1.65,0,0,0,1.31-.58A2.16,2.16,0,0,0,353.81,32.49Z" fill="#1e1e1e"/>
      <path d="M361.57,35.2h-1v-1h0a2,2,0,0,1-1.85,1.09c-1.43,0-2.14-.85-2.14-2.55V29.2h1v3.43c0,1.27.49,1.9,1.46,1.9a1.45,1.45,0,0,0,1.15-.52,1.92,1.92,0,0,0,.46-1.35V29.2h1Z" fill="#1e1e1e"/>
      <path d="M366.64,30.17a1.18,1.18,0,0,0-.73-.19,1.23,1.23,0,0,0-1,.58,2.72,2.72,0,0,0-.41,1.58V35.2h-1v-6h1v1.24h0a2.17,2.17,0,0,1,.63-1,1.39,1.39,0,0,1,.94-.35,1.52,1.52,0,0,1,.58.08Z" fill="#1e1e1e"/>
      <path d="M368.17,27.68a.6.6,0,0,1-.44-.18.59.59,0,0,1-.18-.44.61.61,0,0,1,.18-.45.6.6,0,0,1,.44-.18.62.62,0,0,1,.63.63.6.6,0,0,1-.18.44A.61.61,0,0,1,368.17,27.68Zm.47,7.52h-1v-6h1Z" fill="#1e1e1e"/>
      <path d="M375.57,35.2h-1V31.78c0-1.27-.46-1.91-1.39-1.91a1.5,1.5,0,0,0-1.19.54,2,2,0,0,0-.47,1.37V35.2h-1v-6h1v1h0a2.16,2.16,0,0,1,2-1.14,1.81,1.81,0,0,1,1.5.64,2.79,2.79,0,0,1,.53,1.83Z" fill="#1e1e1e"/>
      <path d="M382.5,34.72c0,2.2-1.06,3.31-3.17,3.31a4.24,4.24,0,0,1-1.94-.43v-1a3.94,3.94,0,0,0,1.93.57c1.48,0,2.22-.79,2.22-2.36v-.66h0a2.42,2.42,0,0,1-3.86.35,3.17,3.17,0,0,1-.68-2.15A3.75,3.75,0,0,1,377.7,30a2.46,2.46,0,0,1,2-.9,2,2,0,0,1,1.8,1h0V29.2h1Zm-1-2.23V31.6a1.69,1.69,0,0,0-.49-1.22,1.58,1.58,0,0,0-1.2-.51,1.66,1.66,0,0,0-1.4.65,2.91,2.91,0,0,0-.5,1.81,2.48,2.48,0,0,0,.48,1.6,1.57,1.57,0,0,0,1.28.6A1.69,1.69,0,0,0,381,34,2.12,2.12,0,0,0,381.54,32.49Z" fill="#1e1e1e"/>
      <path d="M261.62,48.4h-1V45c0-1.27-.47-1.91-1.4-1.91a1.5,1.5,0,0,0-1.19.54A2,2,0,0,0,257.6,45V48.4h-1v-6h1v1h0a2.17,2.17,0,0,1,2-1.14,1.83,1.83,0,0,1,1.51.64,2.85,2.85,0,0,1,.52,1.83Z" fill="#1e1e1e"/>
      <path d="M265.94,48.54a2.79,2.79,0,0,1-2.13-.84,3.1,3.1,0,0,1-.79-2.23,3.24,3.24,0,0,1,.82-2.36,3,3,0,0,1,2.24-.85,2.69,2.69,0,0,1,2.09.83,3.77,3.77,0,0,1-.06,4.59A2.85,2.85,0,0,1,265.94,48.54Zm.07-5.47a1.84,1.84,0,0,0-1.47.63,2.59,2.59,0,0,0-.54,1.74,2.41,2.41,0,0,0,.55,1.68,1.85,1.85,0,0,0,1.46.61,1.75,1.75,0,0,0,1.43-.6,2.63,2.63,0,0,0,.5-1.72,2.66,2.66,0,0,0-.5-1.73A1.73,1.73,0,0,0,266,43.07Z" fill="#1e1e1e"/>
      <path d="M275.44,48.4h-1V45c0-1.27-.47-1.91-1.4-1.91a1.52,1.52,0,0,0-1.19.54,2,2,0,0,0-.47,1.37V48.4h-1v-6h1v1h0a2.17,2.17,0,0,1,2-1.14,1.83,1.83,0,0,1,1.51.64,2.79,2.79,0,0,1,.52,1.83Z" fill="#1e1e1e"/>
      <path d="M280.32,45.44h-3.2v-.76h3.2Z" fill="#1e1e1e"/>
      <path d="M283,47.53h0v.87h-1V39.52h1v3.94h0a2.29,2.29,0,0,1,2.08-1.2,2.2,2.2,0,0,1,1.81.81,3.33,3.33,0,0,1,.65,2.16,3.72,3.72,0,0,1-.73,2.41,2.46,2.46,0,0,1-2,.9A2,2,0,0,1,283,47.53Zm0-2.42V46a1.77,1.77,0,0,0,.48,1.26,1.73,1.73,0,0,0,2.6-.14,3.09,3.09,0,0,0,.49-1.86,2.41,2.41,0,0,0-.46-1.57,1.52,1.52,0,0,0-1.25-.57,1.7,1.7,0,0,0-1.35.58A2.15,2.15,0,0,0,283,45.11Z" fill="#1e1e1e"/>
      <path d="M294,48.4h-1v-.95h0a2,2,0,0,1-1.85,1.09c-1.43,0-2.14-.85-2.14-2.55V42.4h.95v3.43c0,1.27.49,1.9,1.45,1.9a1.46,1.46,0,0,0,1.16-.52,2,2,0,0,0,.46-1.35V42.4h1Z" fill="#1e1e1e"/>
      <path d="M295.53,48.18v-1a2.84,2.84,0,0,0,1.73.58c.84,0,1.27-.28,1.27-.84a.76.76,0,0,0-.11-.41,1,1,0,0,0-.29-.29,1.83,1.83,0,0,0-.44-.23l-.53-.22a5.16,5.16,0,0,1-.7-.32,2.29,2.29,0,0,1-.51-.36,1.35,1.35,0,0,1-.3-.46,1.57,1.57,0,0,1-.11-.6,1.4,1.4,0,0,1,.2-.75,1.78,1.78,0,0,1,.51-.55,2.77,2.77,0,0,1,.74-.33,3.41,3.41,0,0,1,.85-.11,3.46,3.46,0,0,1,1.4.27v1a2.74,2.74,0,0,0-1.53-.43,1.75,1.75,0,0,0-.48.06,1.33,1.33,0,0,0-.38.17,1,1,0,0,0-.24.27.77.77,0,0,0-.08.34,1,1,0,0,0,.08.4,1.07,1.07,0,0,0,.25.28,2.11,2.11,0,0,0,.4.22l.53.22a6.21,6.21,0,0,1,.72.31,2.82,2.82,0,0,1,.54.36,1.41,1.41,0,0,1,.34.47,1.48,1.48,0,0,1,.12.63,1.41,1.41,0,0,1-.2.77,1.58,1.58,0,0,1-.52.54,2.28,2.28,0,0,1-.76.33,3.68,3.68,0,0,1-.89.1A3.41,3.41,0,0,1,295.53,48.18Z" fill="#1e1e1e"/>
      <path d="M301.48,40.88a.6.6,0,0,1-.44-.18.59.59,0,0,1-.18-.44.61.61,0,0,1,.18-.45.6.6,0,0,1,.44-.18.63.63,0,0,1,.45.18.61.61,0,0,1,.18.45.6.6,0,0,1-.18.44A.63.63,0,0,1,301.48,40.88ZM302,48.4h-1v-6h1Z" fill="#1e1e1e"/>
      <path d="M308.87,48.4h-1V45c0-1.27-.46-1.91-1.39-1.91a1.5,1.5,0,0,0-1.19.54,2,2,0,0,0-.48,1.37V48.4h-1v-6h1v1h0a2.16,2.16,0,0,1,2-1.14,1.82,1.82,0,0,1,1.5.64,2.79,2.79,0,0,1,.52,1.83Z" fill="#1e1e1e"/>
      <path d="M315.51,45.64h-4.24a2.28,2.28,0,0,0,.54,1.55,1.87,1.87,0,0,0,1.42.54,3,3,0,0,0,1.86-.66V48a3.5,3.5,0,0,1-2.09.57,2.53,2.53,0,0,1-2-.82,3.36,3.36,0,0,1-.73-2.3,3.29,3.29,0,0,1,.8-2.28,2.53,2.53,0,0,1,2-.88,2.24,2.24,0,0,1,1.82.76,3.2,3.2,0,0,1,.65,2.12Zm-1-.81a2,2,0,0,0-.4-1.3,1.36,1.36,0,0,0-1.1-.46,1.52,1.52,0,0,0-1.15.49,2.19,2.19,0,0,0-.59,1.27Z" fill="#1e1e1e"/>
      <path d="M316.6,48.18v-1a2.82,2.82,0,0,0,1.73.58q1.26,0,1.26-.84a.76.76,0,0,0-.11-.41,1,1,0,0,0-.29-.29,1.76,1.76,0,0,0-.43-.23l-.54-.22a5.16,5.16,0,0,1-.7-.32,2.22,2.22,0,0,1-.5-.36,1.38,1.38,0,0,1-.31-.46,1.57,1.57,0,0,1-.1-.6,1.39,1.39,0,0,1,.19-.75,1.7,1.7,0,0,1,.52-.55,2.71,2.71,0,0,1,.73-.33,3.49,3.49,0,0,1,.86-.11,3.45,3.45,0,0,1,1.39.27v1a2.7,2.7,0,0,0-1.52-.43,1.83,1.83,0,0,0-.49.06,1.26,1.26,0,0,0-.37.17.76.76,0,0,0-.24.27.67.67,0,0,0-.09.34.82.82,0,0,0,.09.4.92.92,0,0,0,.25.28,2.11,2.11,0,0,0,.4.22l.53.22a6.85,6.85,0,0,1,.71.31,2.82,2.82,0,0,1,.54.36,1.45,1.45,0,0,1,.35.47,1.48,1.48,0,0,1,.12.63,1.5,1.5,0,0,1-.2.77,1.61,1.61,0,0,1-.53.54,2.22,2.22,0,0,1-.75.33,3.82,3.82,0,0,1-.9.1A3.34,3.34,0,0,1,316.6,48.18Z" fill="#1e1e1e"/>
      <path d="M321.69,48.18v-1a2.82,2.82,0,0,0,1.73.58q1.26,0,1.26-.84a.68.68,0,0,0-.11-.41,1,1,0,0,0-.29-.29,1.76,1.76,0,0,0-.43-.23l-.54-.22a5.79,5.79,0,0,1-.7-.32,2.22,2.22,0,0,1-.5-.36,1.38,1.38,0,0,1-.31-.46,1.57,1.57,0,0,1-.1-.6,1.39,1.39,0,0,1,.19-.75,1.7,1.7,0,0,1,.52-.55,2.71,2.71,0,0,1,.73-.33,3.49,3.49,0,0,1,.86-.11,3.41,3.41,0,0,1,1.39.27v1a2.7,2.7,0,0,0-1.52-.43,1.88,1.88,0,0,0-.49.06,1.26,1.26,0,0,0-.37.17,1,1,0,0,0-.24.27.67.67,0,0,0-.09.34.82.82,0,0,0,.09.4,1.07,1.07,0,0,0,.25.28,2.11,2.11,0,0,0,.4.22L324,45a7.07,7.07,0,0,1,.72.31,2.45,2.45,0,0,1,.53.36,1.45,1.45,0,0,1,.35.47,1.48,1.48,0,0,1,.12.63,1.5,1.5,0,0,1-.2.77,1.58,1.58,0,0,1-.52.54,2.28,2.28,0,0,1-.76.33,3.71,3.71,0,0,1-.9.1A3.37,3.37,0,0,1,321.69,48.18Z" fill="#1e1e1e"/>
      <path d="M335.41,48.4h-1V44.94c0-1.25-.46-1.87-1.39-1.87a1.53,1.53,0,0,0-1.19.54,2,2,0,0,0-.48,1.39v3.4h-1V39.52h1V43.4h0a2.17,2.17,0,0,1,2-1.14c1.36,0,2,.82,2,2.44Z" fill="#1e1e1e"/>
      <path d="M339.73,48.54a2.76,2.76,0,0,1-2.12-.84,3.11,3.11,0,0,1-.8-2.23,3.25,3.25,0,0,1,.83-2.36,3,3,0,0,1,2.23-.85,2.69,2.69,0,0,1,2.09.83,3.75,3.75,0,0,1,0,4.59A2.87,2.87,0,0,1,339.73,48.54Zm.07-5.47a1.84,1.84,0,0,0-1.47.63,2.64,2.64,0,0,0-.53,1.74,2.46,2.46,0,0,0,.54,1.68,1.85,1.85,0,0,0,1.46.61,1.75,1.75,0,0,0,1.43-.6,2.58,2.58,0,0,0,.5-1.72,2.61,2.61,0,0,0-.5-1.73A1.73,1.73,0,0,0,339.8,43.07Z" fill="#1e1e1e"/>
      <path d="M349.1,48.4h-1v-.95h0a2,2,0,0,1-1.85,1.09c-1.43,0-2.15-.85-2.15-2.55V42.4h1v3.43c0,1.27.48,1.9,1.45,1.9a1.46,1.46,0,0,0,1.16-.52,2,2,0,0,0,.45-1.35V42.4h1Z" fill="#1e1e1e"/>
      <path d="M354.17,43.37a1.23,1.23,0,0,0-.72-.19,1.21,1.21,0,0,0-1,.58,2.64,2.64,0,0,0-.42,1.58V48.4h-1v-6h1v1.24h0a2.09,2.09,0,0,1,.63-1,1.39,1.39,0,0,1,.94-.35,1.44,1.44,0,0,1,.57.08Z" fill="#1e1e1e"/>
      <path d="M354.85,48.18v-1a2.84,2.84,0,0,0,1.73.58c.84,0,1.27-.28,1.27-.84a.76.76,0,0,0-.11-.41,1,1,0,0,0-.29-.29A1.83,1.83,0,0,0,357,46l-.53-.22a5.16,5.16,0,0,1-.7-.32,2.29,2.29,0,0,1-.51-.36,1.52,1.52,0,0,1-.3-.46,1.57,1.57,0,0,1-.11-.6,1.4,1.4,0,0,1,.2-.75,1.78,1.78,0,0,1,.51-.55,2.77,2.77,0,0,1,.74-.33,3.41,3.41,0,0,1,.85-.11,3.46,3.46,0,0,1,1.4.27v1a2.74,2.74,0,0,0-1.53-.43,1.75,1.75,0,0,0-.48.06,1.33,1.33,0,0,0-.38.17,1,1,0,0,0-.24.27.77.77,0,0,0-.08.34,1,1,0,0,0,.08.4,1.07,1.07,0,0,0,.25.28,2.11,2.11,0,0,0,.4.22l.53.22a6.21,6.21,0,0,1,.72.31,2.82,2.82,0,0,1,.54.36,1.41,1.41,0,0,1,.34.47,1.48,1.48,0,0,1,.12.63,1.41,1.41,0,0,1-.2.77,1.58,1.58,0,0,1-.52.54,2.28,2.28,0,0,1-.76.33,3.68,3.68,0,0,1-.89.1A3.41,3.41,0,0,1,354.85,48.18Z" fill="#1e1e1e"/>
    </g>
    <g>
      <path d="M462.88,10.2h-1.21l-4.33-6.7a2.57,2.57,0,0,1-.27-.52h0a8.6,8.6,0,0,1,0,1.15V10.2h-1V1.8h1.28l4.21,6.59c.17.27.29.46.34.56h0a8.58,8.58,0,0,1-.06-1.23V1.8h1Z" fill="#1e1e1e"/>
      <path d="M467.46,10.34a2.79,2.79,0,0,1-2.13-.84,3.1,3.1,0,0,1-.79-2.23,3.21,3.21,0,0,1,.83-2.36,3,3,0,0,1,2.23-.85,2.69,2.69,0,0,1,2.09.83,3.28,3.28,0,0,1,.76,2.29,3.25,3.25,0,0,1-.82,2.3A2.85,2.85,0,0,1,467.46,10.34Zm.07-5.47a1.84,1.84,0,0,0-1.47.63,2.59,2.59,0,0,0-.54,1.74,2.46,2.46,0,0,0,.55,1.68,1.85,1.85,0,0,0,1.46.61,1.75,1.75,0,0,0,1.43-.6,2.63,2.63,0,0,0,.5-1.72,2.66,2.66,0,0,0-.5-1.73A1.73,1.73,0,0,0,467.53,4.87Z" fill="#1e1e1e"/>
      <path d="M475.11,5.17a1.18,1.18,0,0,0-.73-.19,1.23,1.23,0,0,0-1,.58,2.72,2.72,0,0,0-.41,1.58V10.2h-1v-6h1V5.44h0a2.17,2.17,0,0,1,.63-1,1.42,1.42,0,0,1,1-.35,1.44,1.44,0,0,1,.57.08Z" fill="#1e1e1e"/>
      <path d="M484.67,10.2h-1V6.76a2.58,2.58,0,0,0-.31-1.45,1.17,1.17,0,0,0-1-.44,1.3,1.3,0,0,0-1.05.56,2.22,2.22,0,0,0-.43,1.35V10.2h-1V6.64c0-1.18-.45-1.77-1.36-1.77a1.28,1.28,0,0,0-1.05.53,2.2,2.2,0,0,0-.41,1.38V10.2h-1v-6h1v1h0A2,2,0,0,1,479,4.06a1.73,1.73,0,0,1,1.7,1.24,2.13,2.13,0,0,1,2-1.24c1.32,0,2,.82,2,2.44Z" fill="#1e1e1e"/>
      <path d="M490.78,10.2h-1V9.26h0a2.2,2.2,0,0,1-3.25.61A1.65,1.65,0,0,1,486,8.61c0-1.12.66-1.78,2-2l1.8-.25q0-1.53-1.23-1.53a3,3,0,0,0-2,.74v-1a3.76,3.76,0,0,1,2-.56c1.41,0,2.11.75,2.11,2.24Zm-1-3-1.44.2a2.25,2.25,0,0,0-1,.33.93.93,0,0,0-.34.84.89.89,0,0,0,.31.71,1.2,1.2,0,0,0,.84.28,1.53,1.53,0,0,0,1.18-.5,1.77,1.77,0,0,0,.46-1.27Z" fill="#1e1e1e"/>
      <path d="M493.55,10.2h-1V1.32h1Z" fill="#1e1e1e"/>
      <path d="M499.77,9.33h0v.87h-1V1.32h1V5.26h0a2.28,2.28,0,0,1,2.08-1.2,2.17,2.17,0,0,1,1.8.81A3.28,3.28,0,0,1,504.31,7a3.73,3.73,0,0,1-.74,2.41,2.42,2.42,0,0,1-2,.9A2,2,0,0,1,499.77,9.33Zm0-2.42v.84A1.77,1.77,0,0,0,500.23,9a1.59,1.59,0,0,0,1.23.52,1.62,1.62,0,0,0,1.37-.66A3.09,3.09,0,0,0,503.32,7a2.41,2.41,0,0,0-.46-1.57,1.53,1.53,0,0,0-1.25-.57,1.7,1.7,0,0,0-1.35.58A2.15,2.15,0,0,0,499.75,6.91Z" fill="#1e1e1e"/>
      <path d="M510.66,7.44h-4.23A2.19,2.19,0,0,0,507,9a1.85,1.85,0,0,0,1.41.54,3,3,0,0,0,1.87-.66v.9a3.52,3.52,0,0,1-2.09.57,2.52,2.52,0,0,1-2-.82,3.31,3.31,0,0,1-.73-2.3,3.29,3.29,0,0,1,.8-2.28,2.51,2.51,0,0,1,2-.88,2.25,2.25,0,0,1,1.82.76,3.19,3.19,0,0,1,.64,2.12Zm-1-.81a2,2,0,0,0-.4-1.3,1.37,1.37,0,0,0-1.1-.46,1.52,1.52,0,0,0-1.15.49,2.13,2.13,0,0,0-.59,1.27Z" fill="#1e1e1e"/>
      <path d="M517.1,10.2h-1V6.74c0-1.25-.47-1.87-1.4-1.87a1.51,1.51,0,0,0-1.18.54,2,2,0,0,0-.48,1.39v3.4h-1V1.32h1V5.2h0a2.18,2.18,0,0,1,2-1.14c1.35,0,2,.82,2,2.44Z" fill="#1e1e1e"/>
      <path d="M523.2,10.2h-1V9.26h0a2.2,2.2,0,0,1-3.25.61,1.65,1.65,0,0,1-.51-1.26c0-1.12.66-1.78,2-2l1.8-.25q0-1.53-1.23-1.53a3,3,0,0,0-2,.74v-1a3.76,3.76,0,0,1,2-.56c1.41,0,2.11.75,2.11,2.24Zm-1-3-1.45.2a2.25,2.25,0,0,0-1,.33.93.93,0,0,0-.34.84.89.89,0,0,0,.31.71,1.2,1.2,0,0,0,.84.28,1.53,1.53,0,0,0,1.18-.5,1.77,1.77,0,0,0,.46-1.27Z" fill="#1e1e1e"/>
      <path d="M529.73,4.2l-2.39,6h-.94l-2.28-6h1.06l1.52,4.36a4.27,4.27,0,0,1,.21.84h0a4,4,0,0,1,.18-.82l1.6-4.38Z" fill="#1e1e1e"/>
      <path d="M531.25,2.68a.62.62,0,0,1-.44-.18.59.59,0,0,1-.18-.44.61.61,0,0,1,.18-.45.62.62,0,0,1,.44-.18.61.61,0,0,1,.45.18.58.58,0,0,1,.19.45.58.58,0,0,1-.19.44A.61.61,0,0,1,531.25,2.68Zm.47,7.52h-1v-6h1Z" fill="#1e1e1e"/>
      <path d="M536.18,10.34a2.79,2.79,0,0,1-2.13-.84,3.1,3.1,0,0,1-.79-2.23,3.24,3.24,0,0,1,.82-2.36,3,3,0,0,1,2.24-.85,2.69,2.69,0,0,1,2.09.83,3.27,3.27,0,0,1,.75,2.29,3.25,3.25,0,0,1-.81,2.3A2.85,2.85,0,0,1,536.18,10.34Zm.07-5.47a1.84,1.84,0,0,0-1.47.63,2.59,2.59,0,0,0-.54,1.74,2.41,2.41,0,0,0,.55,1.68,1.85,1.85,0,0,0,1.46.61,1.77,1.77,0,0,0,1.43-.6,2.63,2.63,0,0,0,.5-1.72,2.66,2.66,0,0,0-.5-1.73A1.74,1.74,0,0,0,536.25,4.87Z" fill="#1e1e1e"/>
      <path d="M543.83,5.17A1.18,1.18,0,0,0,543.1,5a1.23,1.23,0,0,0-1,.58,2.72,2.72,0,0,0-.41,1.58V10.2h-1v-6h1V5.44h0a2.17,2.17,0,0,1,.63-1,1.41,1.41,0,0,1,.94-.35,1.49,1.49,0,0,1,.58.08Z" fill="#1e1e1e"/>
      <path d="M458.49,25.31h-.85a7.49,7.49,0,0,1-1.82-5.11,7.78,7.78,0,0,1,1.82-5.2h.86a7.91,7.91,0,0,0-1.84,5.18A7.75,7.75,0,0,0,458.49,25.31Z" fill="#1e1e1e"/>
      <path d="M464.42,20.64h-4.24a2.28,2.28,0,0,0,.54,1.55,1.87,1.87,0,0,0,1.42.54,3,3,0,0,0,1.86-.66V23a3.5,3.5,0,0,1-2.09.57,2.52,2.52,0,0,1-2-.82,3.36,3.36,0,0,1-.73-2.3,3.29,3.29,0,0,1,.8-2.28,2.53,2.53,0,0,1,2-.88,2.25,2.25,0,0,1,1.82.76,3.2,3.2,0,0,1,.65,2.12Zm-1-.81a2,2,0,0,0-.4-1.3,1.36,1.36,0,0,0-1.1-.46,1.52,1.52,0,0,0-1.15.49,2.19,2.19,0,0,0-.59,1.27Z" fill="#1e1e1e"/>
      <path d="M470.85,23.4h-1V20c0-1.27-.47-1.91-1.4-1.91a1.52,1.52,0,0,0-1.19.54,2,2,0,0,0-.47,1.37V23.4h-1v-6h1v1h0a2.17,2.17,0,0,1,2-1.14,1.83,1.83,0,0,1,1.51.64,2.79,2.79,0,0,1,.52,1.83Z" fill="#1e1e1e"/>
      <path d="M475.63,15.36a1.38,1.38,0,0,0-.64-.16c-.68,0-1,.43-1,1.28v.92h1.4v.82H474V23.4h-1V18.22h-1V17.4h1v-1a2,2,0,0,1,.55-1.49,1.81,1.81,0,0,1,1.36-.55,1.74,1.74,0,0,1,.7.11Z" fill="#1e1e1e"/>
      <path d="M478.92,23.54a2.79,2.79,0,0,1-2.12-.84,3.1,3.1,0,0,1-.79-2.23,3.24,3.24,0,0,1,.82-2.36,3,3,0,0,1,2.23-.85,2.7,2.7,0,0,1,2.1.83,3.27,3.27,0,0,1,.75,2.29,3.25,3.25,0,0,1-.81,2.3A2.87,2.87,0,0,1,478.92,23.54Zm.07-5.47a1.83,1.83,0,0,0-1.46.63,2.59,2.59,0,0,0-.54,1.74,2.41,2.41,0,0,0,.55,1.68,1.82,1.82,0,0,0,1.45.61,1.77,1.77,0,0,0,1.44-.6,2.63,2.63,0,0,0,.5-1.72,2.66,2.66,0,0,0-.5-1.73A1.75,1.75,0,0,0,479,18.07Z" fill="#1e1e1e"/>
      <path d="M486.58,18.37a1.25,1.25,0,0,0-.73-.19,1.23,1.23,0,0,0-1,.58,2.72,2.72,0,0,0-.41,1.58V23.4h-1v-6h1v1.24h0a2.17,2.17,0,0,1,.63-1,1.39,1.39,0,0,1,.94-.35,1.52,1.52,0,0,1,.58.08Z" fill="#1e1e1e"/>
      <path d="M491.71,23.13a3.19,3.19,0,0,1-1.64.41,2.72,2.72,0,0,1-2.07-.83,3,3,0,0,1-.79-2.17,3.3,3.3,0,0,1,.85-2.38,3,3,0,0,1,2.27-.9,3.23,3.23,0,0,1,1.39.29v1a2.45,2.45,0,0,0-1.43-.47,1.93,1.93,0,0,0-1.51.66,2.52,2.52,0,0,0-.59,1.73,2.36,2.36,0,0,0,.56,1.66,1.89,1.89,0,0,0,1.48.61,2.39,2.39,0,0,0,1.48-.52Z" fill="#1e1e1e"/>
      <path d="M498,20.64h-4.23a2.19,2.19,0,0,0,.54,1.55,1.85,1.85,0,0,0,1.42.54,3,3,0,0,0,1.86-.66V23a3.52,3.52,0,0,1-2.09.57,2.52,2.52,0,0,1-2-.82,3.31,3.31,0,0,1-.73-2.3,3.29,3.29,0,0,1,.8-2.28,2.53,2.53,0,0,1,2-.88,2.25,2.25,0,0,1,1.82.76,3.19,3.19,0,0,1,.64,2.12Zm-1-.81a2,2,0,0,0-.4-1.3,1.37,1.37,0,0,0-1.1-.46,1.52,1.52,0,0,0-1.15.49,2.13,2.13,0,0,0-.59,1.27Z" fill="#1e1e1e"/>
      <path d="M508,23.4h-1V20a2.67,2.67,0,0,0-.31-1.45,1.19,1.19,0,0,0-1-.44,1.28,1.28,0,0,0-1,.56,2.16,2.16,0,0,0-.43,1.35V23.4h-1V19.84c0-1.18-.46-1.77-1.37-1.77a1.27,1.27,0,0,0-1,.53A2.2,2.2,0,0,0,500.4,20V23.4h-1v-6h1v1h0a2,2,0,0,1,1.87-1.09,1.8,1.8,0,0,1,1.07.34,1.73,1.73,0,0,1,.62.9,2.14,2.14,0,0,1,2-1.24c1.32,0,2,.82,2,2.44Z" fill="#1e1e1e"/>
      <path d="M514.6,20.64h-4.24a2.23,2.23,0,0,0,.54,1.55,1.85,1.85,0,0,0,1.42.54,3,3,0,0,0,1.86-.66V23a3.5,3.5,0,0,1-2.09.57,2.52,2.52,0,0,1-2-.82,3.36,3.36,0,0,1-.73-2.3,3.29,3.29,0,0,1,.8-2.28,2.53,2.53,0,0,1,2-.88A2.25,2.25,0,0,1,514,18a3.2,3.2,0,0,1,.65,2.12Zm-1-.81a2,2,0,0,0-.4-1.3,1.36,1.36,0,0,0-1.1-.46,1.52,1.52,0,0,0-1.15.49,2.19,2.19,0,0,0-.59,1.27Z" fill="#1e1e1e"/>
      <path d="M521,23.4h-1V20c0-1.27-.47-1.91-1.4-1.91a1.52,1.52,0,0,0-1.19.54A2,2,0,0,0,517,20V23.4h-1v-6h1v1h0a2.17,2.17,0,0,1,2-1.14,1.83,1.83,0,0,1,1.51.64,2.79,2.79,0,0,1,.52,1.83Z" fill="#1e1e1e"/>
      <path d="M525.62,23.34a1.76,1.76,0,0,1-.89.19c-1.05,0-1.58-.59-1.58-1.76V18.22h-1V17.4h1V15.94l1-.31V17.4h1.51v.82h-1.51V21.6a1.37,1.37,0,0,0,.21.86.78.78,0,0,0,.68.26.94.94,0,0,0,.62-.2Z" fill="#1e1e1e"/>
      <path d="M532.7,23.54a2.77,2.77,0,0,1-2.12-.84,3.11,3.11,0,0,1-.8-2.23,3.25,3.25,0,0,1,.83-2.36,3,3,0,0,1,2.23-.85,2.71,2.71,0,0,1,2.1.83,3.27,3.27,0,0,1,.75,2.29,3.25,3.25,0,0,1-.81,2.3A2.87,2.87,0,0,1,532.7,23.54Zm.07-5.47a1.81,1.81,0,0,0-1.46.63,2.59,2.59,0,0,0-.54,1.74,2.46,2.46,0,0,0,.54,1.68,1.86,1.86,0,0,0,1.46.61,1.75,1.75,0,0,0,1.43-.6,2.58,2.58,0,0,0,.51-1.72,2.61,2.61,0,0,0-.51-1.73A1.73,1.73,0,0,0,532.77,18.07Z" fill="#1e1e1e"/>
      <path d="M541.31,23.13a3.17,3.17,0,0,1-1.64.41,2.75,2.75,0,0,1-2.07-.83,3.06,3.06,0,0,1-.79-2.17,3.35,3.35,0,0,1,.85-2.38,3,3,0,0,1,2.27-.9,3.27,3.27,0,0,1,1.4.29v1a2.49,2.49,0,0,0-1.43-.47,1.92,1.92,0,0,0-1.51.66,2.52,2.52,0,0,0-.59,1.73,2.36,2.36,0,0,0,.55,1.66,1.91,1.91,0,0,0,1.49.61,2.38,2.38,0,0,0,1.47-.52Z" fill="#1e1e1e"/>
      <path d="M546.86,23.13a3.19,3.19,0,0,1-1.64.41,2.72,2.72,0,0,1-2.07-.83,3,3,0,0,1-.79-2.17,3.3,3.3,0,0,1,.85-2.38,3,3,0,0,1,2.26-.9,3.24,3.24,0,0,1,1.4.29v1a2.47,2.47,0,0,0-1.43-.47,1.93,1.93,0,0,0-1.51.66,2.52,2.52,0,0,0-.59,1.73,2.36,2.36,0,0,0,.56,1.66,1.87,1.87,0,0,0,1.48.61,2.41,2.41,0,0,0,1.48-.52Z" fill="#1e1e1e"/>
      <path d="M553.16,23.4h-1v-.95h0a2,2,0,0,1-1.85,1.09c-1.43,0-2.15-.85-2.15-2.55V17.4h1v3.43c0,1.27.48,1.9,1.45,1.9a1.47,1.47,0,0,0,1.16-.52,2,2,0,0,0,.45-1.35V17.4h1Z" fill="#1e1e1e"/>
      <path d="M558.23,18.37a1.25,1.25,0,0,0-.73-.19,1.2,1.2,0,0,0-1,.58,2.64,2.64,0,0,0-.42,1.58V23.4h-1v-6h1v1.24h0a2.08,2.08,0,0,1,.62-1,1.42,1.42,0,0,1,.95-.35,1.44,1.44,0,0,1,.57.08Z" fill="#1e1e1e"/>
      <path d="M558.91,23.18v-1a2.82,2.82,0,0,0,1.73.58q1.26,0,1.26-.84a.76.76,0,0,0-.1-.41,1,1,0,0,0-.3-.29,1.59,1.59,0,0,0-.43-.23l-.54-.22a5.79,5.79,0,0,1-.7-.32,2.22,2.22,0,0,1-.5-.36,1.38,1.38,0,0,1-.31-.46,1.79,1.79,0,0,1-.1-.6,1.4,1.4,0,0,1,.2-.75,1.67,1.67,0,0,1,.51-.55,2.77,2.77,0,0,1,.74-.33,3.56,3.56,0,0,1,2.24.16v1a2.7,2.7,0,0,0-1.52-.43,1.88,1.88,0,0,0-.49.06,1.26,1.26,0,0,0-.37.17,1,1,0,0,0-.24.27.66.66,0,0,0-.08.34.82.82,0,0,0,.08.4,1.07,1.07,0,0,0,.25.28,2.11,2.11,0,0,0,.4.22l.53.22a6.21,6.21,0,0,1,.72.31,2.82,2.82,0,0,1,.54.36,1.57,1.57,0,0,1,.34.47,1.48,1.48,0,0,1,.12.63,1.5,1.5,0,0,1-.2.77,1.58,1.58,0,0,1-.52.54,2.28,2.28,0,0,1-.76.33,3.68,3.68,0,0,1-.89.1A3.39,3.39,0,0,1,558.91,23.18Z" fill="#1e1e1e"/>
      <path d="M568.14,15.88a.58.58,0,0,1-.43-.18.56.56,0,0,1-.19-.44.63.63,0,0,1,.62-.63.61.61,0,0,1,.45.18.58.58,0,0,1,.19.45.58.58,0,0,1-.19.44A.61.61,0,0,1,568.14,15.88Zm.47,7.52h-1v-6h1Z" fill="#1e1e1e"/>
      <path d="M575.54,23.4h-1V20c0-1.27-.47-1.91-1.4-1.91a1.52,1.52,0,0,0-1.19.54,2,2,0,0,0-.47,1.37V23.4h-1v-6h1v1h0a2.17,2.17,0,0,1,2-1.14,1.83,1.83,0,0,1,1.51.64,2.79,2.79,0,0,1,.52,1.83Z" fill="#1e1e1e"/>
      <path d="M460.27,36.6h-1v-.94h0a2.2,2.2,0,0,1-3.25.61,1.68,1.68,0,0,1-.5-1.26c0-1.12.66-1.78,2-2l1.8-.25c0-1-.42-1.53-1.24-1.53a3,3,0,0,0-2,.74V31a3.76,3.76,0,0,1,2-.56c1.41,0,2.12.75,2.12,2.24Zm-1-3-1.45.2a2.3,2.3,0,0,0-1,.33,1,1,0,0,0-.34.84.9.9,0,0,0,.32.71,1.16,1.16,0,0,0,.83.28,1.51,1.51,0,0,0,1.18-.5,1.78,1.78,0,0,0,.47-1.27Z" fill="#1e1e1e"/>
      <path d="M467.2,36.6h-1v-1h0a2.21,2.21,0,0,1-2.06,1.16,2.28,2.28,0,0,1-1.81-.8,3.32,3.32,0,0,1-.67-2.2,3.57,3.57,0,0,1,.75-2.38,2.46,2.46,0,0,1,2-.9,1.9,1.9,0,0,1,1.79,1h0V27.72h1Zm-1-2.71V33a1.73,1.73,0,0,0-.48-1.23,1.78,1.78,0,0,0-2.6.14,2.81,2.81,0,0,0-.51,1.78,2.49,2.49,0,0,0,.49,1.64,1.57,1.57,0,0,0,1.29.6,1.65,1.65,0,0,0,1.31-.58A2.16,2.16,0,0,0,466.24,33.89Z" fill="#1e1e1e"/>
      <path d="M477.66,36.6h-1V33.16a2.68,2.68,0,0,0-.3-1.45,1.19,1.19,0,0,0-1-.44,1.27,1.27,0,0,0-1,.56,2.16,2.16,0,0,0-.44,1.35V36.6h-1V33c0-1.18-.45-1.77-1.36-1.77a1.27,1.27,0,0,0-1,.53,2.14,2.14,0,0,0-.41,1.38V36.6h-1v-6h1v.95h0A2,2,0,0,1,472,30.46a1.73,1.73,0,0,1,1.7,1.24,2.14,2.14,0,0,1,2-1.24c1.32,0,2,.81,2,2.44Z" fill="#1e1e1e"/>
      <path d="M480,29.08a.6.6,0,0,1-.44-.18.59.59,0,0,1-.18-.44.61.61,0,0,1,.18-.45.6.6,0,0,1,.44-.18.61.61,0,0,1,.45.18.62.62,0,0,1,.19.45.63.63,0,0,1-.19.44A.61.61,0,0,1,480,29.08Zm.47,7.52h-1v-6h1Z" fill="#1e1e1e"/>
      <path d="M487.37,36.6h-1V33.18c0-1.27-.47-1.91-1.4-1.91a1.5,1.5,0,0,0-1.19.54,2,2,0,0,0-.47,1.37V36.6h-1v-6h1v1h0a2.16,2.16,0,0,1,2-1.14,1.83,1.83,0,0,1,1.51.64,2.85,2.85,0,0,1,.52,1.83Z" fill="#1e1e1e"/>
      <path d="M492.25,33.64h-3.2v-.76h3.2Z" fill="#1e1e1e"/>
      <path d="M499.1,36.6h-1v-1h0a2.21,2.21,0,0,1-2.06,1.16,2.27,2.27,0,0,1-1.81-.8,3.32,3.32,0,0,1-.67-2.2,3.57,3.57,0,0,1,.75-2.38,2.46,2.46,0,0,1,2-.9,1.91,1.91,0,0,1,1.8,1h0V27.72h1Zm-1-2.71V33a1.73,1.73,0,0,0-.48-1.23,1.64,1.64,0,0,0-1.22-.5,1.67,1.67,0,0,0-1.39.64,2.87,2.87,0,0,0-.5,1.78,2.54,2.54,0,0,0,.48,1.64,1.6,1.6,0,0,0,1.3.6,1.65,1.65,0,0,0,1.31-.58A2.16,2.16,0,0,0,498.14,33.89Z" fill="#1e1e1e"/>
      <path d="M505.87,33.84h-4.24a2.21,2.21,0,0,0,.54,1.55,1.85,1.85,0,0,0,1.42.54,3,3,0,0,0,1.86-.66v.9a3.52,3.52,0,0,1-2.09.57,2.52,2.52,0,0,1-2-.82,3.36,3.36,0,0,1-.73-2.3,3.29,3.29,0,0,1,.8-2.28,2.53,2.53,0,0,1,2-.88,2.25,2.25,0,0,1,1.82.76,3.2,3.2,0,0,1,.65,2.12Zm-1-.81a2,2,0,0,0-.4-1.3,1.36,1.36,0,0,0-1.1-.46,1.52,1.52,0,0,0-1.15.49,2.13,2.13,0,0,0-.59,1.27Z" fill="#1e1e1e"/>
      <path d="M510.28,28.56a1.32,1.32,0,0,0-.64-.16c-.67,0-1,.43-1,1.28v.92H510v.82h-1.4V36.6h-1V31.42h-1V30.6h1v-1a2,2,0,0,1,.55-1.49,1.81,1.81,0,0,1,1.36-.55,1.86,1.86,0,0,1,.69.1Z" fill="#1e1e1e"/>
      <path d="M511.57,29.08a.61.61,0,0,1-.62-.62.61.61,0,0,1,.18-.45.59.59,0,0,1,.44-.18A.6.6,0,0,1,512,28a.58.58,0,0,1,.19.45.59.59,0,0,1-.19.44A.6.6,0,0,1,511.57,29.08ZM512,36.6h-1v-6h1Z" fill="#1e1e1e"/>
      <path d="M519,36.6h-1V33.18c0-1.27-.46-1.91-1.39-1.91a1.54,1.54,0,0,0-1.2.54,2,2,0,0,0-.47,1.37V36.6h-1v-6h1v1h0a2.17,2.17,0,0,1,2-1.14,1.83,1.83,0,0,1,1.51.64,2.79,2.79,0,0,1,.52,1.83Z" fill="#1e1e1e"/>
      <path d="M525.59,33.84h-4.23a2.21,2.21,0,0,0,.54,1.55,1.85,1.85,0,0,0,1.41.54,3,3,0,0,0,1.87-.66v.9a3.52,3.52,0,0,1-2.09.57,2.52,2.52,0,0,1-2-.82,3.31,3.31,0,0,1-.73-2.3,3.29,3.29,0,0,1,.8-2.28,2.51,2.51,0,0,1,2-.88,2.25,2.25,0,0,1,1.82.76,3.19,3.19,0,0,1,.64,2.12Zm-1-.81a2,2,0,0,0-.4-1.3,1.37,1.37,0,0,0-1.1-.46,1.52,1.52,0,0,0-1.15.49,2.13,2.13,0,0,0-.59,1.27Z" fill="#1e1e1e"/>
      <path d="M532.17,36.6h-1v-1h0a2.21,2.21,0,0,1-2.06,1.16,2.27,2.27,0,0,1-1.81-.8,3.32,3.32,0,0,1-.67-2.2,3.57,3.57,0,0,1,.75-2.38,2.46,2.46,0,0,1,2-.9,1.91,1.91,0,0,1,1.8,1h0V27.72h1Zm-1-2.71V33a1.73,1.73,0,0,0-.48-1.23,1.78,1.78,0,0,0-2.6.14,2.81,2.81,0,0,0-.51,1.78,2.54,2.54,0,0,0,.48,1.64,1.6,1.6,0,0,0,1.3.6,1.65,1.65,0,0,0,1.31-.58A2.16,2.16,0,0,0,531.21,33.89Z" fill="#1e1e1e"/>
      <path d="M464.49,49.8h-1V46.36a2.58,2.58,0,0,0-.31-1.45,1.17,1.17,0,0,0-1-.44,1.3,1.3,0,0,0-1.05.56,2.22,2.22,0,0,0-.43,1.35V49.8h-1V46.24c0-1.18-.45-1.77-1.36-1.77a1.28,1.28,0,0,0-1.05.53,2.2,2.2,0,0,0-.41,1.38V49.8h-1v-6h1v1h0a2,2,0,0,1,1.86-1.09,1.73,1.73,0,0,1,1.7,1.24,2.13,2.13,0,0,1,2-1.24c1.32,0,2,.82,2,2.44Z" fill="#1e1e1e"/>
      <path d="M470.6,49.8h-1v-.94h0a2.2,2.2,0,0,1-3.25.61,1.65,1.65,0,0,1-.51-1.26c0-1.12.66-1.78,2-2l1.8-.25q0-1.53-1.23-1.53a3,3,0,0,0-2,.74v-1a3.76,3.76,0,0,1,2-.56c1.41,0,2.11.75,2.11,2.24Zm-1-3-1.44.2a2.25,2.25,0,0,0-1,.33.93.93,0,0,0-.34.84.89.89,0,0,0,.31.71,1.2,1.2,0,0,0,.84.28,1.53,1.53,0,0,0,1.18-.5,1.77,1.77,0,0,0,.46-1.27Z" fill="#1e1e1e"/>
      <path d="M472.91,42.28a.61.61,0,0,1-.62-.62.61.61,0,0,1,.18-.45.59.59,0,0,1,.44-.18.6.6,0,0,1,.44.18.58.58,0,0,1,.19.45.58.58,0,0,1-.19.44A.6.6,0,0,1,472.91,42.28Zm.47,7.52h-1v-6h1Z" fill="#1e1e1e"/>
      <path d="M480.3,49.8h-1V46.38c0-1.27-.46-1.91-1.39-1.91a1.52,1.52,0,0,0-1.2.54,2,2,0,0,0-.47,1.37V49.8h-1v-6h1v1h0a2.17,2.17,0,0,1,2-1.14,1.83,1.83,0,0,1,1.51.64,2.79,2.79,0,0,1,.52,1.83Z" fill="#1e1e1e"/>
      <path d="M484.89,49.74a1.76,1.76,0,0,1-.89.19c-1.05,0-1.58-.59-1.58-1.76V44.62h-1V43.8h1V42.34l1-.31V43.8h1.51v.82h-1.51V48a1.37,1.37,0,0,0,.21.86.78.78,0,0,0,.68.26.94.94,0,0,0,.62-.2Z" fill="#1e1e1e"/>
      <path d="M491,47h-4.24a2.28,2.28,0,0,0,.54,1.55,1.88,1.88,0,0,0,1.42.54,2.94,2.94,0,0,0,1.86-.66v.9a3.47,3.47,0,0,1-2.09.57,2.53,2.53,0,0,1-2-.82,3.35,3.35,0,0,1-.72-2.3,3.28,3.28,0,0,1,.79-2.28,2.54,2.54,0,0,1,2-.88,2.26,2.26,0,0,1,1.83.76,3.19,3.19,0,0,1,.64,2.12Zm-1-.81a2,2,0,0,0-.41-1.3,1.35,1.35,0,0,0-1.09-.46,1.54,1.54,0,0,0-1.16.49,2.12,2.12,0,0,0-.58,1.27Z" fill="#1e1e1e"/>
      <path d="M497.43,49.8h-1V46.38c0-1.27-.46-1.91-1.39-1.91a1.5,1.5,0,0,0-1.19.54,2,2,0,0,0-.48,1.37V49.8h-1v-6h1v1h0a2.16,2.16,0,0,1,2-1.14,1.82,1.82,0,0,1,1.5.64,2.79,2.79,0,0,1,.52,1.83Z" fill="#1e1e1e"/>
      <path d="M503.54,49.8h-1v-.94h0a2,2,0,0,1-1.84,1.08,2,2,0,0,1-1.4-.47,1.65,1.65,0,0,1-.51-1.26c0-1.12.66-1.78,2-2l1.8-.25c0-1-.41-1.53-1.24-1.53a3,3,0,0,0-2,.74v-1a3.76,3.76,0,0,1,2-.56c1.41,0,2.12.75,2.12,2.24Zm-1-3-1.45.2a2.35,2.35,0,0,0-1,.33,1,1,0,0,0-.34.84.9.9,0,0,0,.32.71,1.18,1.18,0,0,0,.83.28,1.51,1.51,0,0,0,1.18-.5,1.78,1.78,0,0,0,.47-1.27Z" fill="#1e1e1e"/>
      <path d="M510.33,49.8h-1V46.38c0-1.27-.47-1.91-1.4-1.91a1.52,1.52,0,0,0-1.19.54,2,2,0,0,0-.47,1.37V49.8h-1v-6h1v1h0a2.17,2.17,0,0,1,2-1.14,1.83,1.83,0,0,1,1.51.64,2.79,2.79,0,0,1,.52,1.83Z" fill="#1e1e1e"/>
      <path d="M516.23,49.53a3.19,3.19,0,0,1-1.64.41,2.72,2.72,0,0,1-2.07-.83,3,3,0,0,1-.79-2.17,3.3,3.3,0,0,1,.85-2.38,3,3,0,0,1,2.27-.9,3.2,3.2,0,0,1,1.39.29v1a2.45,2.45,0,0,0-1.43-.47,2,2,0,0,0-1.51.66,2.52,2.52,0,0,0-.59,1.73,2.36,2.36,0,0,0,.56,1.66,1.89,1.89,0,0,0,1.48.61,2.39,2.39,0,0,0,1.48-.52Z" fill="#1e1e1e"/>
      <path d="M522.51,47h-4.24a2.23,2.23,0,0,0,.54,1.55,1.87,1.87,0,0,0,1.42.54,3,3,0,0,0,1.86-.66v.9a3.5,3.5,0,0,1-2.09.57,2.52,2.52,0,0,1-2-.82,3.36,3.36,0,0,1-.73-2.3,3.29,3.29,0,0,1,.8-2.28,2.53,2.53,0,0,1,2-.88,2.25,2.25,0,0,1,1.82.76,3.2,3.2,0,0,1,.65,2.12Zm-1-.81a2,2,0,0,0-.4-1.3,1.36,1.36,0,0,0-1.1-.46,1.52,1.52,0,0,0-1.15.49,2.19,2.19,0,0,0-.59,1.27Z" fill="#1e1e1e"/>
      <path d="M534.8,43.8l-1.79,6h-1l-1.24-4.29a4.1,4.1,0,0,1-.09-.56h0a3.4,3.4,0,0,1-.13.54l-1.34,4.31h-1l-1.82-6h1l1.24,4.51a3,3,0,0,1,.09.54h0a2.43,2.43,0,0,1,.11-.55l1.38-4.5h.88l1.24,4.52a3.36,3.36,0,0,1,.09.54h0a2.08,2.08,0,0,1,.1-.54l1.22-4.52Z" fill="#1e1e1e"/>
      <path d="M536.41,42.28a.6.6,0,0,1-.44-.18.59.59,0,0,1-.18-.44.61.61,0,0,1,.18-.45.6.6,0,0,1,.44-.18.62.62,0,0,1,.63.63.6.6,0,0,1-.18.44A.61.61,0,0,1,536.41,42.28Zm.47,7.52h-1v-6h1Z" fill="#1e1e1e"/>
      <path d="M543.8,49.8h-1V46.38c0-1.27-.46-1.91-1.39-1.91a1.5,1.5,0,0,0-1.19.54,2,2,0,0,0-.47,1.37V49.8h-1v-6h1v1h0a2.16,2.16,0,0,1,2-1.14,1.81,1.81,0,0,1,1.5.64,2.79,2.79,0,0,1,.52,1.83Z" fill="#1e1e1e"/>
      <path d="M550.74,49.8h-1v-1h0a2.2,2.2,0,0,1-2.06,1.16,2.27,2.27,0,0,1-1.81-.8,3.32,3.32,0,0,1-.67-2.2,3.57,3.57,0,0,1,.75-2.38,2.46,2.46,0,0,1,2-.9,1.91,1.91,0,0,1,1.8,1h0V40.92h1Zm-1-2.71V46.2a1.7,1.7,0,0,0-.49-1.23,1.61,1.61,0,0,0-1.21-.5,1.67,1.67,0,0,0-1.39.64,2.88,2.88,0,0,0-.5,1.79,2.53,2.53,0,0,0,.48,1.63,1.73,1.73,0,0,0,2.6,0A2.11,2.11,0,0,0,549.78,47.09Z" fill="#1e1e1e"/>
      <path d="M555.19,49.94a2.76,2.76,0,0,1-2.12-.84,3.11,3.11,0,0,1-.8-2.23,3.25,3.25,0,0,1,.83-2.36,3,3,0,0,1,2.23-.85,2.69,2.69,0,0,1,2.09.83,3.75,3.75,0,0,1,0,4.59A2.87,2.87,0,0,1,555.19,49.94Zm.07-5.47a1.84,1.84,0,0,0-1.47.63,2.64,2.64,0,0,0-.53,1.74,2.46,2.46,0,0,0,.54,1.68,1.85,1.85,0,0,0,1.46.61,1.75,1.75,0,0,0,1.43-.6,2.58,2.58,0,0,0,.5-1.72,2.61,2.61,0,0,0-.5-1.73A1.73,1.73,0,0,0,555.26,44.47Z" fill="#1e1e1e"/>
      <path d="M567.27,43.8l-1.8,6h-1l-1.24-4.29a2.34,2.34,0,0,1-.09-.56h0a2.44,2.44,0,0,1-.12.54l-1.34,4.31h-1l-1.82-6h1l1.24,4.51a2.38,2.38,0,0,1,.08.54h0a2.43,2.43,0,0,1,.11-.55l1.38-4.5h.88l1.24,4.52a3.36,3.36,0,0,1,.09.54h0a2.61,2.61,0,0,1,.1-.54l1.22-4.52Z" fill="#1e1e1e"/>
    </g>
    <g>
      <path d="M282.36,134.35a4.27,4.27,0,0,0-.44-.26,5.72,5.72,0,0,0-.55-.22,5.47,5.47,0,0,0-.64-.15,4.47,4.47,0,0,0-.75-.06,3.64,3.64,0,0,0-1.55.31,3.33,3.33,0,0,0-1.16.85,3.66,3.66,0,0,0-.73,1.26,4.62,4.62,0,0,0-.25,1.55,3.61,3.61,0,0,0,.19,1.23,2.4,2.4,0,0,0,.55.93,2.26,2.26,0,0,0,.86.58,3,3,0,0,0,1.15.2,3.87,3.87,0,0,0,.79-.07,3.94,3.94,0,0,0,.66-.19l.5-2.45h-1.94l.19-.87h2.95l-.82,3.87a5.74,5.74,0,0,1-1.1.44,4.79,4.79,0,0,1-1.35.18,3.92,3.92,0,0,1-1.54-.29,3.15,3.15,0,0,1-1.15-.79,3.4,3.4,0,0,1-.73-1.18,4.46,4.46,0,0,1-.24-1.48,5.66,5.66,0,0,1,.14-1.31,5,5,0,0,1,.41-1.18,4.4,4.4,0,0,1,.69-1,3.77,3.77,0,0,1,.95-.78,4.62,4.62,0,0,1,1.2-.51,5.57,5.57,0,0,1,1.46-.17,5,5,0,0,1,.8.05,5.5,5.5,0,0,1,.68.13l.55.18.41.19Z" fill="#3c3c41"/>
      <path d="M287.2,136.34h0a1.71,1.71,0,0,0-.3-.14,1.33,1.33,0,0,0-.38-.07,1.13,1.13,0,0,0-.65.22,2.42,2.42,0,0,0-.57.58,3.83,3.83,0,0,0-.44.83,5,5,0,0,0-.3,1l-.56,2.61h-1l.84-4c0-.16.07-.33.11-.51l.09-.54c0-.18.06-.35.08-.52s0-.31.06-.44h.94c0,.12,0,.24,0,.37s0,.26,0,.38,0,.24-.05.34,0,.17,0,.23h0a4.93,4.93,0,0,1,.38-.61,2.63,2.63,0,0,1,.41-.46,1.82,1.82,0,0,1,.45-.29,1.27,1.27,0,0,1,.52-.11l.33,0,.29.07Z" fill="#3c3c41"/>
      <path d="M292.19,139.4c0,.14-.06.31-.09.5s-.06.37-.08.55,0,.35,0,.51,0,.27,0,.36h-1c0-.08,0-.17,0-.28l0-.34c0-.12,0-.24,0-.35s0-.21,0-.29h0q-.18.28-.36.54a3,3,0,0,1-.42.45,1.63,1.63,0,0,1-.51.3,1.69,1.69,0,0,1-.66.11,1.71,1.71,0,0,1-.72-.14,1.51,1.51,0,0,1-.56-.41,1.86,1.86,0,0,1-.36-.7,3.58,3.58,0,0,1-.13-1,5.92,5.92,0,0,1,.07-.77,5.38,5.38,0,0,1,.24-.89,4.31,4.31,0,0,1,.45-.88,3.32,3.32,0,0,1,.69-.77,3.25,3.25,0,0,1,1-.54,3.73,3.73,0,0,1,1.3-.21,8.05,8.05,0,0,1,1,.07l1,.17Zm-.28-3.29a4,4,0,0,0-.48-.08,3.08,3.08,0,0,0-.51,0,2.49,2.49,0,0,0-.9.16,2.25,2.25,0,0,0-.68.43,2.35,2.35,0,0,0-.48.6,3.6,3.6,0,0,0-.32.69,4.68,4.68,0,0,0-.16.7,3.62,3.62,0,0,0-.05.63,2.77,2.77,0,0,0,.06.6,1.32,1.32,0,0,0,.18.45.88.88,0,0,0,.32.29,1,1,0,0,0,.47.1,1.3,1.3,0,0,0,.55-.12,1.63,1.63,0,0,0,.47-.32,2.73,2.73,0,0,0,.41-.48,5.3,5.3,0,0,0,.33-.57,6.5,6.5,0,0,0,.25-.61c.06-.21.12-.41.16-.61Z" fill="#3c3c41"/>
      <path d="M298.45,136.51a2,2,0,0,0-.59-.37,1.92,1.92,0,0,0-.77-.15,1.9,1.9,0,0,0-.73.14,2.18,2.18,0,0,0-1,.92,3.64,3.64,0,0,0-.3.63,3.29,3.29,0,0,0-.17.65,3.4,3.4,0,0,0-.06.61,1.89,1.89,0,0,0,.37,1.27,1.25,1.25,0,0,0,1,.43,2.15,2.15,0,0,0,.8-.16,3.49,3.49,0,0,0,.79-.41l-.21,1a4.11,4.11,0,0,1-.76.32,2.62,2.62,0,0,1-.8.11,2.35,2.35,0,0,1-1-.18,1.92,1.92,0,0,1-.67-.52A2.28,2.28,0,0,1,294,140a3.39,3.39,0,0,1-.13-1,4.43,4.43,0,0,1,.1-1,4,4,0,0,1,.29-.91,3.94,3.94,0,0,1,.49-.78,3,3,0,0,1,.66-.63,3.15,3.15,0,0,1,.82-.41,3.22,3.22,0,0,1,1-.15,2.59,2.59,0,0,1,.48,0,2.26,2.26,0,0,1,.41.09,2.2,2.2,0,0,1,.34.13,1.57,1.57,0,0,1,.23.13Z" fill="#3c3c41"/>
      <path d="M304.12,136.72a1.81,1.81,0,0,1-.21.87,1.75,1.75,0,0,1-.7.67,4.25,4.25,0,0,1-1.28.43,11.77,11.77,0,0,1-2,.16.53.53,0,0,0,0,.13v.12a2,2,0,0,0,.09.6,1.18,1.18,0,0,0,.27.49,1.25,1.25,0,0,0,.47.33,1.85,1.85,0,0,0,.69.12,3,3,0,0,0,.89-.15,3.7,3.7,0,0,0,.92-.44l-.18.95a4,4,0,0,1-.77.32,3.08,3.08,0,0,1-1,.14,2.64,2.64,0,0,1-1.12-.2,2,2,0,0,1-.73-.55,2,2,0,0,1-.4-.79A3.24,3.24,0,0,1,299,139a4.31,4.31,0,0,1,.12-1,4.47,4.47,0,0,1,.33-.91,3.68,3.68,0,0,1,.51-.77,3.12,3.12,0,0,1,.67-.59,2.82,2.82,0,0,1,.78-.38,2.72,2.72,0,0,1,.86-.14,2.47,2.47,0,0,1,.81.12,1.92,1.92,0,0,1,.6.34,1.64,1.64,0,0,1,.36.5A1.45,1.45,0,0,1,304.12,136.72Zm-1,.05a.67.67,0,0,0-.27-.57,1.15,1.15,0,0,0-.73-.21,1.58,1.58,0,0,0-.69.16,2.06,2.06,0,0,0-.61.43,2.52,2.52,0,0,0-.49.65,3.14,3.14,0,0,0-.3.81,11.43,11.43,0,0,0,1.43-.08,3.7,3.7,0,0,0,.95-.25,1.23,1.23,0,0,0,.54-.4A.94.94,0,0,0,303.14,136.77Z" fill="#3c3c41"/>
      <path d="M313.69,137.42a4.81,4.81,0,0,1-.09.9,4.37,4.37,0,0,1-.29.91,4.84,4.84,0,0,1-.48.86,3.3,3.3,0,0,1-1.57,1.2,3.27,3.27,0,0,1-1.11.17,4,4,0,0,1-1.27-.21l-.59,2.85h-1l1.47-6.94c0-.12.05-.27.07-.45s0-.35.07-.53,0-.34,0-.5,0-.28,0-.36h1c0,.06,0,.15,0,.27s0,.23,0,.35,0,.24-.05.36,0,.21,0,.28h0a3.19,3.19,0,0,1,.94-1.06,2,2,0,0,1,1.14-.35,2,2,0,0,1,.74.14,1.65,1.65,0,0,1,.56.42,2.05,2.05,0,0,1,.35.71A3.55,3.55,0,0,1,313.69,137.42Zm-1,0a2.74,2.74,0,0,0-.06-.59,1.27,1.27,0,0,0-.18-.46.91.91,0,0,0-.83-.42,1.25,1.25,0,0,0-.57.13,1.6,1.6,0,0,0-.49.34,2.78,2.78,0,0,0-.42.48,4.79,4.79,0,0,0-.33.58,5.09,5.09,0,0,0-.25.6,5,5,0,0,0-.16.57l-.37,1.74.25.08.31.07.32,0h.31a2,2,0,0,0,.74-.13,2,2,0,0,0,.62-.37,2.51,2.51,0,0,0,.48-.54,3.87,3.87,0,0,0,.35-.67,4.68,4.68,0,0,0,.21-.73A3.78,3.78,0,0,0,312.71,137.46Z" fill="#3c3c41"/>
      <path d="M319.76,136.72a1.81,1.81,0,0,1-.21.87,1.78,1.78,0,0,1-.69.67,4.42,4.42,0,0,1-1.29.43,11.77,11.77,0,0,1-2,.16s0,.08,0,.13v.12a2,2,0,0,0,.09.6,1.47,1.47,0,0,0,.27.49,1.28,1.28,0,0,0,.48.33,1.78,1.78,0,0,0,.69.12,3,3,0,0,0,.88-.15,3.76,3.76,0,0,0,.93-.44l-.19.95a3.86,3.86,0,0,1-.76.32,3.14,3.14,0,0,1-1,.14,2.7,2.7,0,0,1-1.12-.2,2,2,0,0,1-.73-.55,2.19,2.19,0,0,1-.4-.79,3.61,3.61,0,0,1-.12-.94,4.9,4.9,0,0,1,.11-1,4,4,0,0,1,.34-.91,3.68,3.68,0,0,1,.51-.77,3.33,3.33,0,0,1,.66-.59,2.82,2.82,0,0,1,.78-.38,2.77,2.77,0,0,1,.86-.14,2.57,2.57,0,0,1,.82.12,2,2,0,0,1,.59.34,1.36,1.36,0,0,1,.36.5A1.45,1.45,0,0,1,319.76,136.72Zm-1,.05a.68.68,0,0,0-.28-.57,1.14,1.14,0,0,0-.72-.21,1.52,1.52,0,0,0-.69.16,2.1,2.1,0,0,0-.62.43,2.29,2.29,0,0,0-.48.65,2.81,2.81,0,0,0-.3.81,11.26,11.26,0,0,0,1.42-.08,3.9,3.9,0,0,0,1-.25,1.36,1.36,0,0,0,.54-.4A.94.94,0,0,0,318.79,136.77Z" fill="#3c3c41"/>
      <path d="M324.48,136.34h0a1.86,1.86,0,0,0-.31-.14,1.27,1.27,0,0,0-.38-.07,1.15,1.15,0,0,0-.65.22,2.39,2.39,0,0,0-.56.58,4.34,4.34,0,0,0-.45.83,5,5,0,0,0-.3,1l-.56,2.61h-1l.84-4c0-.16.08-.33.11-.51s.07-.36.1-.54.05-.35.08-.52,0-.31.05-.44h.95c0,.12,0,.24,0,.37s0,.26-.05.38,0,.24-.05.34,0,.17,0,.23h0a6.5,6.5,0,0,1,.38-.61,3.11,3.11,0,0,1,.41-.46,1.82,1.82,0,0,1,.45-.29,1.32,1.32,0,0,1,.53-.11l.32,0,.29.07Z" fill="#3c3c41"/>
      <path d="M326.7,141.29a1.59,1.59,0,0,1-.33.08,2.22,2.22,0,0,1-.37,0,1.17,1.17,0,0,1-.88-.3,1,1,0,0,1-.29-.79,2.47,2.47,0,0,1,0-.35c0-.13.05-.29.09-.49l.87-4.15h1l-.87,4.18c0,.16-.06.29-.08.38a2.15,2.15,0,0,0,0,.23.49.49,0,0,0,.13.36.57.57,0,0,0,.42.13l.27,0,.21-.05Zm.69-8.11a.61.61,0,0,1-.18.45.58.58,0,0,1-.44.19.65.65,0,0,1-.64-.64.55.55,0,0,1,.19-.44.64.64,0,0,1,.45-.17.66.66,0,0,1,.44.17A.59.59,0,0,1,327.39,133.18Z" fill="#3c3c41"/>
      <path d="M333.33,137.54a5,5,0,0,1-.22,1.51,3.91,3.91,0,0,1-.65,1.25,3.24,3.24,0,0,1-1,.85,2.94,2.94,0,0,1-1.37.31,2.49,2.49,0,0,1-.93-.16,1.92,1.92,0,0,1-.7-.47,2,2,0,0,1-.45-.75,3,3,0,0,1-.15-1,5.19,5.19,0,0,1,.23-1.55,3.89,3.89,0,0,1,.67-1.24,3.08,3.08,0,0,1,1-.84,3,3,0,0,1,1.33-.3,2.43,2.43,0,0,1,.92.17,1.92,1.92,0,0,1,.71.47,2,2,0,0,1,.45.74A2.78,2.78,0,0,1,333.33,137.54Zm-1,.05a2.33,2.33,0,0,0-.09-.68,1.5,1.5,0,0,0-.27-.5,1.14,1.14,0,0,0-.41-.31A1.33,1.33,0,0,0,331,136a1.68,1.68,0,0,0-.93.27,2.19,2.19,0,0,0-.7.69,3.37,3.37,0,0,0-.44,1,3.84,3.84,0,0,0-.16,1.12,2.29,2.29,0,0,0,.09.66,1.39,1.39,0,0,0,.26.5,1.07,1.07,0,0,0,.41.32,1.2,1.2,0,0,0,.55.11,1.65,1.65,0,0,0,.93-.26,2.22,2.22,0,0,0,.71-.69,3.25,3.25,0,0,0,.44-1A4.26,4.26,0,0,0,332.35,137.59Z" fill="#3c3c41"/>
      <path d="M339.07,139.47c0,.13-.05.28-.08.45s-.05.36-.07.53,0,.35-.05.51,0,.27,0,.36h-1c0-.07,0-.16,0-.27s0-.23,0-.35,0-.23,0-.35,0-.2,0-.27h0a5.19,5.19,0,0,1-.42.6,2.33,2.33,0,0,1-.45.44,1.83,1.83,0,0,1-.5.26,1.77,1.77,0,0,1-.58.08,1.7,1.7,0,0,1-.73-.14,1.48,1.48,0,0,1-.56-.43,1.9,1.9,0,0,1-.36-.71,3.45,3.45,0,0,1-.12-1,4.73,4.73,0,0,1,.09-.9,4.42,4.42,0,0,1,.28-.92,4.84,4.84,0,0,1,.48-.86,3.62,3.62,0,0,1,.7-.71,3.41,3.41,0,0,1,.93-.48,3.49,3.49,0,0,1,1.16-.18,3.86,3.86,0,0,1,.61.05l.49.09.61-2.87h.95Zm-.25-3.34-.47-.1a2.82,2.82,0,0,0-.52,0,2.29,2.29,0,0,0-.9.16,2.59,2.59,0,0,0-.68.42,2.75,2.75,0,0,0-.48.6,4.26,4.26,0,0,0-.32.69,4.74,4.74,0,0,0-.17.7,5,5,0,0,0,0,.62,2.77,2.77,0,0,0,.06.6,1.47,1.47,0,0,0,.18.46.84.84,0,0,0,.32.3,1.07,1.07,0,0,0,.49.1,1.25,1.25,0,0,0,.54-.12,1.87,1.87,0,0,0,.48-.33,3.32,3.32,0,0,0,.41-.49,4.08,4.08,0,0,0,.32-.58,5.5,5.5,0,0,0,.25-.63,5.83,5.83,0,0,0,.17-.62Z" fill="#3c3c41"/>
    </g>
  </g>
</svg>
