<?xml version="1.0" encoding="UTF-8" standalone="no"?>
<!DOCTYPE svg PUBLIC "-//W3C//DTD SVG 1.1//EN" "http://www.w3.org/Graphics/SVG/1.1/DTD/svg11.dtd">
<!-- Generated by Microsoft Visio, SVG Export app-protection.svg Page-1 -->
<svg xmlns="http://www.w3.org/2000/svg" xmlns:xlink="http://www.w3.org/1999/xlink" xmlns:ev="http://www.w3.org/2001/xml-events"
		xmlns:v="http://schemas.microsoft.com/visio/2003/SVGExtensions/" width="2.1434in" height="2.22189in"
		viewBox="0 0 154.325 159.976" xml:space="preserve" color-interpolation-filters="sRGB" class="st4">
	<v:documentProperties v:langID="1033" v:viewMarkup="false"/>

	<style type="text/css">
	<![CDATA[
		.st1 {fill:url(#grad0-5);stroke:none;stroke-linecap:butt;stroke-width:0.75}
		.st2 {fill:#0078d4;stroke:#0066cc;stroke-linecap:butt;stroke-width:4.5}
		.st3 {fill:url(#grad0-14);stroke:none;stroke-linecap:butt;stroke-width:0.75}
		.st4 {fill:none;fill-rule:evenodd;font-size:12px;overflow:visible;stroke-linecap:square;stroke-miterlimit:3}
	]]>
	</style>

	<defs id="Patterns_And_Gradients">
		<linearGradient id="grad0-5" x1="0" y1="0" x2="1" y2="0" gradientTransform="rotate(-90 0.5 0.5)">
			<stop offset="0" stop-color="#0078d4" stop-opacity="1"/>
			<stop offset="0.16" stop-color="#1380da" stop-opacity="1"/>
			<stop offset="0.53" stop-color="#3c91e5" stop-opacity="1"/>
			<stop offset="0.82" stop-color="#559cec" stop-opacity="1"/>
			<stop offset="1" stop-color="#5ea0ef" stop-opacity="1"/>
		</linearGradient>
		<linearGradient id="grad0-14" x1="0" y1="0" x2="1" y2="0" gradientTransform="rotate(-90 0.5 0.5)">
			<stop offset="0" stop-color="#0078d4" stop-opacity="1"/>
			<stop offset="0.06" stop-color="#0a7cd7" stop-opacity="1"/>
			<stop offset="0.34" stop-color="#2e8ce1" stop-opacity="1"/>
			<stop offset="0.59" stop-color="#4897e9" stop-opacity="1"/>
			<stop offset="0.82" stop-color="#589eed" stop-opacity="1"/>
			<stop offset="1" stop-color="#5ea0ef" stop-opacity="1"/>
		</linearGradient>
	</defs>
	<g v:mID="0" v:index="1" v:groupContext="foregroundPage">
		<title>Page-1</title>
		<v:pageProperties v:drawingScale="1" v:pageScale="1" v:drawingUnits="19" v:shadowOffsetX="9" v:shadowOffsetY="-9"/>
		<g id="group1-1" transform="translate(0.75,-24.311)" v:mID="1" v:groupContext="group">
			<title>Icon-intune-331</title>
			<g id="shape2-2" v:mID="2" v:groupContext="shape">
				<title>Sheet.2</title>
				<path d="M47.22 119.5 L87.69 119.5 L87.69 159.98 L47.22 159.98 L47.22 119.5 ZM0 65.54 L40.47 65.54 L40.47 25.06 L5.65
							 25.06 A5.64957 5.64957 -180 0 0 0 30.71 L0 65.54 ZM5.65 159.98 L40.47 159.98 L40.47 119.5 L0 119.5 L0
							 154.33 A5.64957 5.64957 -180 0 0 5.65 159.98 ZM0 112.76 L40.47 112.76 L40.47 72.28 L0 72.28 L0 112.76
							 ZM94.44 159.98 L129.27 159.98 A5.64957 5.64957 -180 0 0 134.92 154.33 L134.92 119.5 L94.44 119.5 L94.44
							 159.98 ZM47.22 112.76 L87.69 112.76 L87.69 72.28 L47.22 72.28 L47.22 112.76 ZM94.44 112.76 L134.92 112.76
							 L134.92 72.28 L94.44 72.28 L94.44 112.76 ZM94.44 25.06 L94.44 65.54 L134.92 65.54 L134.92 30.71 A5.64957
							 5.64957 -180 0 0 129.27 25.06 L94.44 25.06 ZM47.22 65.54 L87.69 65.54 L87.69 25.06 L47.22 25.06 L47.22
							 65.54 Z" class="st1"/>
			</g>
		</g>
		<g id="group20-6" transform="translate(83.1851,-4.5)" v:mID="20" v:groupContext="group">
			<title>Sheet.20</title>
			<g id="group10-7" v:mID="10" v:groupContext="group">
				<title>Sheet.10</title>
				<g id="shape4-8" v:mID="4" v:groupContext="shape">
					<title>Sheet.4</title>
					<path d="M66.64 117.31 C66.64 138.81 40.19 156.13 34.4 159.66 A2.02367 2.02367 0 0 1 32.24 159.66 C26.45 156.18
								 0 138.86 0 117.31 L0 91.42 A2.07073 2.07073 0 0 1 2.02 89.35 C22.64 88.83 17.88 79.94 33.32 79.94
								 C48.76 79.94 44 88.83 64.62 89.35 A2.07073 2.07073 0 0 1 66.64 91.42 L66.64 117.31 Z" class="st2"/>
				</g>
			</g>
			<g id="group9-10" v:mID="9" v:groupContext="group">
				<title>Sheet.9</title>
				<g id="shape5-11" v:mID="5" v:groupContext="shape" transform="translate(2.7296,-3.37493)">
					<title>Sheet.5</title>
					<path d="M61.18 120.87 C61.18 140.64 36.9 156.5 31.58 159.7 A1.88249 1.88249 0 0 1 29.6 159.7 C24.28 156.5 0
								 140.64 0 120.87 L0 97.34 A1.92955 1.92955 0 0 1 1.88 95.08 C20.8 94.75 16.47 86.66 30.59 86.66 C44.71
								 86.66 40.38 94.75 59.3 95.08 A1.92955 1.92955 0 0 1 61.18 96.96 L61.18 120.87 Z" class="st3"/>
				</g>
			</g>
		</g>
	</g>
</svg>
