<?xml version="1.0" encoding="UTF-8" standalone="no"?>
<!DOCTYPE svg PUBLIC "-//W3C//DTD SVG 1.1//EN" "http://www.w3.org/Graphics/SVG/1.1/DTD/svg11.dtd">
<!-- Generated by Microsoft Visio, SVG Export co-manage.svg Page-1 -->
<svg xmlns="http://www.w3.org/2000/svg" xmlns:xlink="http://www.w3.org/1999/xlink" xmlns:ev="http://www.w3.org/2001/xml-events"
		xmlns:v="http://schemas.microsoft.com/visio/2003/SVGExtensions/" width="1.9086in" height="1.92673in"
		viewBox="0 0 137.42 138.724" xml:space="preserve" color-interpolation-filters="sRGB" class="st4">
	<v:documentProperties v:langID="1033" v:viewMarkup="false"/>

	<style type="text/css">
	<![CDATA[
		.st1 {fill:url(#grad0-5);stroke:none;stroke-linecap:butt;stroke-width:0.75}
		.st2 {fill:#0081df;stroke:none;stroke-linecap:butt;stroke-width:2.25}
		.st3 {fill:#ffffff;stroke:none;stroke-linecap:butt;stroke-width:2.25}
		.st4 {fill:none;fill-rule:evenodd;font-size:12px;overflow:visible;stroke-linecap:square;stroke-miterlimit:3}
	]]>
	</style>

	<defs id="Patterns_And_Gradients">
		<linearGradient id="grad0-5" x1="0" y1="0" x2="1" y2="0" gradientTransform="rotate(-90 0.5 0.5)">
			<stop offset="0" stop-color="#0078d4" stop-opacity="1"/>
			<stop offset="0.155" stop-color="#1380da" stop-opacity="1"/>
			<stop offset="0.53" stop-color="#3c91e5" stop-opacity="1"/>
			<stop offset="0.82" stop-color="#559cec" stop-opacity="1"/>
			<stop offset="1" stop-color="#5ea0ef" stop-opacity="1"/>
		</linearGradient>
	</defs>
	<g v:mID="0" v:index="1" v:groupContext="foregroundPage">
		<title>Page-1</title>
		<v:pageProperties v:drawingScale="1" v:pageScale="1" v:drawingUnits="19" v:shadowOffsetX="9" v:shadowOffsetY="-9"/>
		<g id="group197-1" transform="translate(0.75,-2.25)" v:mID="197" v:groupContext="group">
			<title>Sheet.197</title>
			<g id="shape196-2" v:mID="196" v:groupContext="shape" transform="translate(7.99361E-15,-39.375)">
				<title>Sheet.196</title>
				<path d="M135.92 108.55 A30.5231 30.5231 -180 0 0 109.42 79.2 A38.4897 38.4897 -180 0 0 69.78 42.39 A39.4817 39.4817
							 -180 0 0 32.05 68.12 A36.437 36.437 -180 0 0 -0 103.23 A36.9788 36.9788 -180 0 0 38.28 138.72 C39.42
							 138.72 40.57 138.67 41.65 138.58 L103.63 138.58 A6.44801 6.44801 -180 0 0 105.26 138.34 A30.897 30.897
							 -180 0 0 135.92 108.55 Z" class="st1"/>
			</g>
			<g id="shape191-6" v:mID="191" v:groupContext="shape" transform="translate(182.315,84.7244) rotate(90)">
				<title>Sheet.191</title>
				<path d="M31.39 90.24 L53.24 112.47 A2.60376 2.65178 0 0 1 53.24 116.21 L31.39 138.47 A1.16495 1.18643 0 0 1 29.4
							 137.63 L29.4 124 A1.16427 1.18574 -180 0 0 28.24 122.81 L0.92 122.81 a0.91697 0.933882 0 0 1 -0.917651
							 -0.933882 L0 106.87 a0.917651 0.934575 0 0 1 0.91697 -0.934575 L28.24 105.94 A1.16427 1.18574 -180 0
							 0 29.4 104.75 L29.4 91.09 A1.16495 1.18643 0 0 1 31.39 90.24 L31.39 90.24 Z" class="st2"/>
			</g>
			<g id="shape190-8" v:mID="190" v:groupContext="shape" transform="translate(182.224,54.3494) rotate(90)">
				<title>Sheet.190</title>
				<path d="M18.94 138.43 L0.63 116.17 A2.18541 2.65317 0 0 1 0.63 112.44 L18.94 90.15 a0.977261 1.18643 0 0 1 1.66934
							 0.84091 L20.61 104.69 a0.977833 1.18713 -180 0 0 0.977261 1.18643 L44.53 105.87 a0.769236 0.933882 0
							 0 1 0.769236 0.933882 L45.3 121.75 a0.769236 0.933882 0 0 1 -0.769236 0.933882 L21.61 122.68 a0.977261
							 1.18643 -180 0 0 -0.97669 1.18643 L20.64 137.6 a0.977261 1.18643 0 0 1 -1.69278 0.832584 L18.94 138.43
							 Z" class="st3"/>
			</g>
		</g>
	</g>
</svg>
