<?xml version="1.0" encoding="UTF-8" standalone="no"?>
<!DOCTYPE svg PUBLIC "-//W3C//DTD SVG 1.1//EN" "http://www.w3.org/Graphics/SVG/1.1/DTD/svg11.dtd">
<!-- Generated by Microsoft Visio, SVG Export device-protect.svg Page-1 -->
<svg xmlns="http://www.w3.org/2000/svg" xmlns:xlink="http://www.w3.org/1999/xlink" xmlns:ev="http://www.w3.org/2001/xml-events"
		xmlns:v="http://schemas.microsoft.com/visio/2003/SVGExtensions/" width="2.60934in" height="2.31349in"
		viewBox="0 0 187.872 166.572" xml:space="preserve" color-interpolation-filters="sRGB" class="st8">
	<v:documentProperties v:langID="1033" v:viewMarkup="false"/>

	<style type="text/css">
	<![CDATA[
		.st1 {fill:#0078d4;stroke:none;stroke-linecap:butt;stroke-width:0.75}
		.st2 {fill:url(#grad0-7);stroke:none;stroke-linecap:butt;stroke-width:0.75}
		.st3 {fill:url(#grad0-11);stroke:#0066cc;stroke-linecap:butt;stroke-width:1}
		.st4 {fill:#f2f2f2;stroke:none;stroke-linecap:butt;stroke-width:0.75}
		.st5 {fill:none;stroke:none;stroke-linecap:butt;stroke-width:0.75}
		.st6 {fill:#0078d4;stroke:#0066cc;stroke-linecap:butt;stroke-width:4.5}
		.st7 {fill:url(#grad0-28);stroke:none;stroke-linecap:butt;stroke-width:0.75}
		.st8 {fill:none;fill-rule:evenodd;font-size:12px;overflow:visible;stroke-linecap:square;stroke-miterlimit:3}
	]]>
	</style>

	<defs id="Patterns_And_Gradients">
		<linearGradient id="grad0-7" x1="0" y1="0" x2="1" y2="0" gradientTransform="rotate(-90 0.5 0.5)">
			<stop offset="0" stop-color="#d2ebff" stop-opacity="1"/>
			<stop offset="1" stop-color="#f0fffd" stop-opacity="1"/>
		</linearGradient>
		<linearGradient id="grad0-11" x1="0" y1="0" x2="1" y2="0" gradientTransform="rotate(-124.74681367405 0.5 0.5)">
			<stop offset="0" stop-color="#0081df" stop-opacity="1"/>
			<stop offset="1" stop-color="#98c4fa" stop-opacity="1"/>
		</linearGradient>
		<linearGradient id="grad0-28" x1="0" y1="0" x2="1" y2="0" gradientTransform="rotate(-90 0.5 0.5)">
			<stop offset="0" stop-color="#0078d4" stop-opacity="1"/>
			<stop offset="0.06" stop-color="#0a7cd7" stop-opacity="1"/>
			<stop offset="0.34" stop-color="#2e8ce1" stop-opacity="1"/>
			<stop offset="0.59" stop-color="#4897e9" stop-opacity="1"/>
			<stop offset="0.82" stop-color="#589eed" stop-opacity="1"/>
			<stop offset="1" stop-color="#5ea0ef" stop-opacity="1"/>
		</linearGradient>
	</defs>
	<g v:mID="0" v:index="1" v:groupContext="foregroundPage">
		<title>Page-1</title>
		<v:pageProperties v:drawingScale="1" v:pageScale="1" v:drawingUnits="19" v:shadowOffsetX="9" v:shadowOffsetY="-9"/>
		<g id="group170-1" transform="translate(0.75,-1)" v:mID="170" v:groupContext="group">
			<title>Sheet.170</title>
			<g id="shape139-2" v:mID="139" v:groupContext="shape" transform="translate(0,-42.0843)">
				<title>Sheet.139</title>
				<path d="M0 160.37 A6.20422 6.20422 -180 0 0 6.2 166.57 L166.27 166.57 A6.20422 6.20422 -180 0 0 172.47 160.37 L172.47
							 50.04 A6.20422 6.20422 -180 0 0 166.27 43.83 L6.2 43.83 A6.20422 6.20422 -180 0 0 -0 50.04 L0 160.37
							 Z" class="st1"/>
			</g>
			<g id="shape140-4" v:mID="140" v:groupContext="shape" transform="translate(10.0299,-51.804)">
				<title>Sheet.140</title>
				<path d="M0 163.47 A3.10211 3.10211 -180 0 0 3.1 166.57 L149.31 166.57 A3.10211 3.10211 -180 0 0 152.41 163.47 L152.41
							 65.24 A3.10211 3.10211 -180 0 0 149.31 62.14 L3.1 62.14 A3.10211 3.10211 -180 0 0 0 65.24 L0 163.47
							 Z" class="st2"/>
			</g>
			<g id="shape141-8" v:mID="141" v:groupContext="shape" transform="translate(106.503,2.84217E-14)">
				<title>Sheet.141</title>
				<path d="M0 163.47 A3.10211 3.10211 -180 0 0 3.1 166.57 L76.52 166.57 A3.10211 3.10211 -180 0 0 79.62 163.47 L79.62
							 36.8 A3.10211 3.10211 -180 0 0 76.52 33.7 L3.1 33.7 A3.10211 3.10211 -180 0 0 0 36.8 L0 163.47 Z"
						class="st3"/>
			</g>
			<g id="shape142-12" v:mID="142" v:groupContext="shape" transform="translate(137.213,-125.943)">
				<title>Sheet.142</title>
				<path d="M0 165.43 A1.13744 1.13744 -180 0 0 1.14 166.57 L17.16 166.57 A1.13744 1.13744 -180 0 0 18.3 165.43 L18.3
							 165.23 A1.13744 1.13744 -180 0 0 17.16 164.09 L1.14 164.09 A1.13744 1.13744 -180 0 0 -0 165.23 L0 165.43
							 Z" class="st4"/>
			</g>
			<g id="shape143-14" v:mID="143" v:groupContext="shape" transform="translate(114.052,-14.8898)">
				<title>Sheet.143</title>
				<path d="M0 165.12 A1.44765 1.44765 -180 0 0 1.45 166.57 L63.18 166.57 A1.44765 1.44765 -180 0 0 64.63 165.12 L64.63
							 61.21 A1.44765 1.44765 -180 0 0 63.18 59.76 L1.45 59.76 A1.44765 1.44765 -180 0 0 0 61.21 L0 165.12
							 Z" class="st5"/>
			</g>
			<g id="shape144-16" v:mID="144" v:groupContext="shape" transform="translate(77.3441,-158.514)">
				<title>Sheet.144</title>
				<path d="M0 165.43 A1.13744 1.13744 -180 0 0 1.14 166.57 L17.16 166.57 A1.13744 1.13744 -180 0 0 18.3 165.43 L18.3
							 165.23 A1.13744 1.13744 -180 0 0 17.16 164.09 L1.14 164.09 A1.13744 1.13744 -180 0 0 -0 165.23 L0 165.43
							 Z" class="st4"/>
			</g>
			<g id="shape145-18" v:mID="145" v:groupContext="shape" transform="translate(141.867,-2.89523)">
				<title>Sheet.145</title>
				<path d="M0 164.5 A2.06807 2.06807 -180 0 0 2.07 166.57 L6.82 166.57 A2.06807 2.06807 -180 0 0 8.89 164.5 L8.89 161.09
							 A2.06807 2.06807 -180 0 0 6.82 159.02 L2.07 159.02 A2.06807 2.06807 -180 0 0 0 161.09 L0 164.5 Z"
						class="st4"/>
			</g>
			<g id="group151-20" transform="translate(56.4823,-16.803)" v:mID="151" v:groupContext="group">
				<title>Sheet.151</title>
				<g id="group152-21" v:mID="152" v:groupContext="group">
					<title>Sheet.152</title>
					<g id="shape153-22" v:mID="153" v:groupContext="shape">
						<title>Sheet.153</title>
						<path d="M66.64 123.9 C66.64 145.41 40.19 162.73 34.4 166.26 A2.02367 2.02367 0 0 1 32.24 166.26 C26.45 162.78
									 0 145.46 0 123.9 L0 98.02 A2.07073 2.07073 0 0 1 2.02 95.95 C22.64 95.43 17.88 86.53 33.32 86.53
									 C48.76 86.53 44 95.43 64.62 95.95 A2.07073 2.07073 0 0 1 66.64 98.02 L66.64 123.9 Z"
								class="st6"/>
					</g>
				</g>
				<g id="group154-24" v:mID="154" v:groupContext="group">
					<title>Sheet.154</title>
					<g id="shape155-25" v:mID="155" v:groupContext="shape" transform="translate(2.7296,-3.37493)">
						<title>Sheet.155</title>
						<path d="M61.18 127.47 C61.18 147.23 36.9 163.09 31.58 166.29 A1.88249 1.88249 0 0 1 29.6 166.29 C24.28 163.09
									 0 147.23 0 127.47 L0 103.93 A1.92955 1.92955 0 0 1 1.88 101.67 C20.8 101.35 16.47 93.25 30.59
									 93.25 C44.71 93.25 40.38 101.35 59.3 101.67 A1.92955 1.92955 0 0 1 61.18 103.56 L61.18 127.47
									 Z" class="st7"/>
					</g>
				</g>
			</g>
		</g>
	</g>
</svg>
