<?xml version="1.0" encoding="UTF-8" standalone="no"?>
<!DOCTYPE svg PUBLIC "-//W3C//DTD SVG 1.1//EN" "http://www.w3.org/Graphics/SVG/1.1/DTD/svg11.dtd">
<!-- Generated by Microsoft Visio, SVG Export device-protect.svg Page-1 -->
<svg xmlns="http://www.w3.org/2000/svg" xmlns:xlink="http://www.w3.org/1999/xlink" xmlns:ev="http://www.w3.org/2001/xml-events"
		xmlns:v="http://schemas.microsoft.com/visio/2003/SVGExtensions/" width="2.63711in" height="2.34127in"
		viewBox="0 0 189.872 168.572" xml:space="preserve" color-interpolation-filters="sRGB" class="st8">
	<v:documentProperties v:langID="1033" v:viewMarkup="false"/>

	<style type="text/css">
	<![CDATA[
		.st1 {fill:#0078d4;stroke:none;stroke-linecap:butt;stroke-width:0.75}
		.st2 {fill:url(#grad0-7);stroke:none;stroke-linecap:butt;stroke-width:0.75}
		.st3 {fill:url(#grad0-11);stroke:#0066cc;stroke-linecap:butt;stroke-width:3}
		.st4 {fill:#f2f2f2;stroke:none;stroke-linecap:butt;stroke-width:0.75}
		.st5 {fill:none;stroke:none;stroke-linecap:butt;stroke-width:0.75}
		.st6 {fill:#0078d4;stroke:#0066cc;stroke-linecap:butt;stroke-width:4.5}
		.st7 {fill:url(#grad0-28);stroke:none;stroke-linecap:butt;stroke-width:0.75}
		.st8 {fill:none;fill-rule:evenodd;font-size:12px;overflow:visible;stroke-linecap:square;stroke-miterlimit:3}
	]]>
	</style>

	<defs id="Patterns_And_Gradients">
		<linearGradient id="grad0-7" x1="0" y1="0" x2="1" y2="0" gradientTransform="rotate(-90 0.5 0.5)">
			<stop offset="0" stop-color="#d2ebff" stop-opacity="1"/>
			<stop offset="1" stop-color="#f0fffd" stop-opacity="1"/>
		</linearGradient>
		<linearGradient id="grad0-11" x1="0" y1="0" x2="1" y2="0" gradientTransform="rotate(-124.74681367405 0.5 0.5)">
			<stop offset="0" stop-color="#75baff" stop-opacity="1"/>
			<stop offset="1" stop-color="#c8e0fd" stop-opacity="1"/>
		</linearGradient>
		<linearGradient id="grad0-28" x1="0" y1="0" x2="1" y2="0" gradientTransform="rotate(-90 0.5 0.5)">
			<stop offset="0" stop-color="#0078d4" stop-opacity="1"/>
			<stop offset="0.06" stop-color="#0a7cd7" stop-opacity="1"/>
			<stop offset="0.34" stop-color="#2e8ce1" stop-opacity="1"/>
			<stop offset="0.59" stop-color="#4897e9" stop-opacity="1"/>
			<stop offset="0.82" stop-color="#589eed" stop-opacity="1"/>
			<stop offset="1" stop-color="#5ea0ef" stop-opacity="1"/>
		</linearGradient>
	</defs>
	<g v:mID="0" v:index="1" v:groupContext="foregroundPage">
		<title>Page-1</title>
		<v:pageProperties v:drawingScale="1" v:pageScale="1" v:drawingUnits="19" v:shadowOffsetX="9" v:shadowOffsetY="-9"/>
		<g id="group170-1" transform="translate(0.75,-3)" v:mID="170" v:groupContext="group">
			<title>Sheet.170</title>
			<g id="shape139-2" v:mID="139" v:groupContext="shape" transform="translate(0,-42.0843)">
				<title>Sheet.139</title>
				<path d="M0 162.37 A6.20422 6.20422 -180 0 0 6.2 168.57 L166.27 168.57 A6.20422 6.20422 -180 0 0 172.47 162.37 L172.47
							 52.04 A6.20422 6.20422 -180 0 0 166.27 45.83 L6.2 45.83 A6.20422 6.20422 -180 0 0 -0 52.04 L0 162.37
							 Z" class="st1"/>
			</g>
			<g id="shape140-4" v:mID="140" v:groupContext="shape" transform="translate(10.0299,-51.804)">
				<title>Sheet.140</title>
				<path d="M0 165.47 A3.10211 3.10211 -180 0 0 3.1 168.57 L149.31 168.57 A3.10211 3.10211 -180 0 0 152.41 165.47 L152.41
							 67.24 A3.10211 3.10211 -180 0 0 149.31 64.14 L3.1 64.14 A3.10211 3.10211 -180 0 0 0 67.24 L0 165.47
							 Z" class="st2"/>
			</g>
			<g id="shape141-8" v:mID="141" v:groupContext="shape" transform="translate(106.503,2.84217E-14)">
				<title>Sheet.141</title>
				<path d="M0 165.47 A3.10211 3.10211 -180 0 0 3.1 168.57 L76.52 168.57 A3.10211 3.10211 -180 0 0 79.62 165.47 L79.62
							 38.8 A3.10211 3.10211 -180 0 0 76.52 35.7 L3.1 35.7 A3.10211 3.10211 -180 0 0 0 38.8 L0 165.47 Z"
						class="st3"/>
			</g>
			<g id="shape142-12" v:mID="142" v:groupContext="shape" transform="translate(137.213,-125.943)">
				<title>Sheet.142</title>
				<path d="M0 167.43 A1.13744 1.13744 -180 0 0 1.14 168.57 L17.16 168.57 A1.13744 1.13744 -180 0 0 18.3 167.43 L18.3
							 167.23 A1.13744 1.13744 -180 0 0 17.16 166.09 L1.14 166.09 A1.13744 1.13744 -180 0 0 -0 167.23 L0 167.43
							 Z" class="st4"/>
			</g>
			<g id="shape143-14" v:mID="143" v:groupContext="shape" transform="translate(114.052,-14.8898)">
				<title>Sheet.143</title>
				<path d="M0 167.12 A1.44765 1.44765 -180 0 0 1.45 168.57 L63.18 168.57 A1.44765 1.44765 -180 0 0 64.63 167.12 L64.63
							 63.21 A1.44765 1.44765 -180 0 0 63.18 61.76 L1.45 61.76 A1.44765 1.44765 -180 0 0 0 63.21 L0 167.12
							 Z" class="st5"/>
			</g>
			<g id="shape144-16" v:mID="144" v:groupContext="shape" transform="translate(77.3441,-158.514)">
				<title>Sheet.144</title>
				<path d="M0 167.43 A1.13744 1.13744 -180 0 0 1.14 168.57 L17.16 168.57 A1.13744 1.13744 -180 0 0 18.3 167.43 L18.3
							 167.23 A1.13744 1.13744 -180 0 0 17.16 166.09 L1.14 166.09 A1.13744 1.13744 -180 0 0 -0 167.23 L0 167.43
							 Z" class="st4"/>
			</g>
			<g id="shape145-18" v:mID="145" v:groupContext="shape" transform="translate(141.867,-2.89523)">
				<title>Sheet.145</title>
				<path d="M0 166.5 A2.06807 2.06807 -180 0 0 2.07 168.57 L6.82 168.57 A2.06807 2.06807 -180 0 0 8.89 166.5 L8.89 163.09
							 A2.06807 2.06807 -180 0 0 6.82 161.02 L2.07 161.02 A2.06807 2.06807 -180 0 0 0 163.09 L0 166.5 Z"
						class="st4"/>
			</g>
			<g id="group151-20" transform="translate(56.4823,-16.803)" v:mID="151" v:groupContext="group">
				<title>Sheet.151</title>
				<g id="group152-21" v:mID="152" v:groupContext="group">
					<title>Sheet.152</title>
					<g id="shape153-22" v:mID="153" v:groupContext="shape">
						<title>Sheet.153</title>
						<path d="M66.64 125.9 C66.64 147.41 40.19 164.73 34.4 168.26 A2.02367 2.02367 0 0 1 32.24 168.26 C26.45 164.78
									 0 147.46 0 125.9 L0 100.02 A2.07073 2.07073 0 0 1 2.02 97.95 C22.64 97.43 17.88 88.53 33.32
									 88.53 C48.76 88.53 44 97.43 64.62 97.95 A2.07073 2.07073 0 0 1 66.64 100.02 L66.64 125.9 Z"
								class="st6"/>
					</g>
				</g>
				<g id="group154-24" v:mID="154" v:groupContext="group">
					<title>Sheet.154</title>
					<g id="shape155-25" v:mID="155" v:groupContext="shape" transform="translate(2.7296,-3.37493)">
						<title>Sheet.155</title>
						<path d="M61.18 129.47 C61.18 149.23 36.9 165.09 31.58 168.29 A1.88249 1.88249 0 0 1 29.6 168.29 C24.28 165.09
									 0 149.23 0 129.47 L0 105.93 A1.92955 1.92955 0 0 1 1.88 103.67 C20.8 103.35 16.47 95.25 30.59
									 95.25 C44.71 95.25 40.38 103.35 59.3 103.67 A1.92955 1.92955 0 0 1 61.18 105.56 L61.18 129.47
									 Z" class="st7"/>
					</g>
				</g>
			</g>
		</g>
	</g>
</svg>
