<?xml version="1.0" encoding="UTF-8" standalone="no"?>
<!DOCTYPE svg PUBLIC "-//W3C//DTD SVG 1.1//EN" "http://www.w3.org/Graphics/SVG/1.1/DTD/svg11.dtd">
<!-- Generated by Microsoft Visio, SVG Export device-protect.svg Page-1 -->
<svg xmlns="http://www.w3.org/2000/svg" xmlns:xlink="http://www.w3.org/1999/xlink" xmlns:ev="http://www.w3.org/2001/xml-events"
		xmlns:v="http://schemas.microsoft.com/visio/2003/SVGExtensions/" width="2.60586in" height="2.31002in"
		viewBox="0 0 187.622 166.322" xml:space="preserve" color-interpolation-filters="sRGB" class="st8">
	<v:documentProperties v:langID="1033" v:viewMarkup="false"/>

	<style type="text/css">
	<![CDATA[
		.st1 {fill:#0078d4;stroke:none;stroke-linecap:butt;stroke-width:0.75}
		.st2 {fill:url(#grad0-7);stroke:none;stroke-linecap:butt;stroke-width:0.75}
		.st3 {fill:url(#grad0-11);stroke:none;stroke-linecap:butt;stroke-width:0.75}
		.st4 {fill:#f2f2f2;stroke:none;stroke-linecap:butt;stroke-width:0.75}
		.st5 {fill:none;stroke:none;stroke-linecap:butt;stroke-width:0.75}
		.st6 {fill:#0078d4;stroke:#0066cc;stroke-linecap:butt;stroke-width:4.5}
		.st7 {fill:url(#grad0-28);stroke:none;stroke-linecap:butt;stroke-width:0.75}
		.st8 {fill:none;fill-rule:evenodd;font-size:12px;overflow:visible;stroke-linecap:square;stroke-miterlimit:3}
	]]>
	</style>

	<defs id="Patterns_And_Gradients">
		<linearGradient id="grad0-7" x1="0" y1="0" x2="1" y2="0" gradientTransform="rotate(-90 0.5 0.5)">
			<stop offset="0" stop-color="#d2ebff" stop-opacity="1"/>
			<stop offset="1" stop-color="#f0fffd" stop-opacity="1"/>
		</linearGradient>
		<linearGradient id="grad0-11" x1="0" y1="0" x2="1" y2="0" gradientTransform="rotate(-90 0.5 0.5)">
			<stop offset="0" stop-color="#0078d4" stop-opacity="1"/>
			<stop offset="0.17" stop-color="#1c84dc" stop-opacity="1"/>
			<stop offset="0.38" stop-color="#3990e4" stop-opacity="1"/>
			<stop offset="0.59" stop-color="#4d99ea" stop-opacity="1"/>
			<stop offset="0.8" stop-color="#5a9eee" stop-opacity="1"/>
			<stop offset="1" stop-color="#5ea0ef" stop-opacity="1"/>
		</linearGradient>
		<linearGradient id="grad0-28" x1="0" y1="0" x2="1" y2="0" gradientTransform="rotate(-90 0.5 0.5)">
			<stop offset="0" stop-color="#0078d4" stop-opacity="1"/>
			<stop offset="0.06" stop-color="#0a7cd7" stop-opacity="1"/>
			<stop offset="0.34" stop-color="#2e8ce1" stop-opacity="1"/>
			<stop offset="0.59" stop-color="#4897e9" stop-opacity="1"/>
			<stop offset="0.82" stop-color="#589eed" stop-opacity="1"/>
			<stop offset="1" stop-color="#5ea0ef" stop-opacity="1"/>
		</linearGradient>
	</defs>
	<g v:mID="0" v:index="1" v:groupContext="foregroundPage">
		<title>Page-1</title>
		<v:pageProperties v:drawingScale="1" v:pageScale="1" v:drawingUnits="19" v:shadowOffsetX="9" v:shadowOffsetY="-9"/>
		<g id="group27-1" transform="translate(0.75,-0.75)" v:mID="27" v:groupContext="group">
			<title>Icon-intune-332</title>
			<g id="shape28-2" v:mID="28" v:groupContext="shape" transform="translate(-9.27258E-13,-42.0843)">
				<title>Sheet.28</title>
				<path d="M0 160.12 A6.20422 6.20422 -180 0 0 6.2 166.32 L166.27 166.32 A6.20422 6.20422 -180 0 0 172.47 160.12 L172.47
							 49.79 A6.20422 6.20422 -180 0 0 166.27 43.58 L6.2 43.58 A6.20422 6.20422 -180 0 0 -0 49.79 L0 160.12
							 Z" class="st1"/>
			</g>
			<g id="shape29-4" v:mID="29" v:groupContext="shape" transform="translate(10.0299,-51.804)">
				<title>Sheet.29</title>
				<path d="M0 163.22 A3.10211 3.10211 -180 0 0 3.1 166.32 L149.31 166.32 A3.10211 3.10211 -180 0 0 152.41 163.22 L152.41
							 64.99 A3.10211 3.10211 -180 0 0 149.31 61.89 L3.1 61.89 A3.10211 3.10211 -180 0 0 0 64.99 L0 163.22
							 Z" class="st2"/>
			</g>
			<g id="shape30-8" v:mID="30" v:groupContext="shape" transform="translate(106.503,8.2423E-13)">
				<title>Sheet.30</title>
				<path d="M0 163.22 A3.10211 3.10211 -180 0 0 3.1 166.32 L76.52 166.32 A3.10211 3.10211 -180 0 0 79.62 163.22 L79.62
							 36.55 A3.10211 3.10211 -180 0 0 76.52 33.45 L3.1 33.45 A3.10211 3.10211 -180 0 0 0 36.55 L0 163.22 Z"
						class="st3"/>
			</g>
			<g id="shape31-12" v:mID="31" v:groupContext="shape" transform="translate(137.213,-125.943)">
				<title>Sheet.31</title>
				<path d="M0 165.18 A1.13744 1.13744 -180 0 0 1.14 166.32 L17.16 166.32 A1.13744 1.13744 -180 0 0 18.3 165.18 L18.3
							 164.98 A1.13744 1.13744 -180 0 0 17.16 163.84 L1.14 163.84 A1.13744 1.13744 -180 0 0 -0 164.98 L0 165.18
							 Z" class="st4"/>
			</g>
			<g id="shape32-14" v:mID="32" v:groupContext="shape" transform="translate(114.052,-14.8898)">
				<title>Sheet.32</title>
				<path d="M0 164.87 A1.44765 1.44765 -180 0 0 1.45 166.32 L63.18 166.32 A1.44765 1.44765 -180 0 0 64.63 164.87 L64.63
							 60.96 A1.44765 1.44765 -180 0 0 63.18 59.51 L1.45 59.51 A1.44765 1.44765 -180 0 0 0 60.96 L0 164.87
							 Z" class="st5"/>
			</g>
			<g id="shape33-16" v:mID="33" v:groupContext="shape" transform="translate(77.3441,-158.514)">
				<title>Sheet.33</title>
				<path d="M0 165.18 A1.13744 1.13744 -180 0 0 1.14 166.32 L17.16 166.32 A1.13744 1.13744 -180 0 0 18.3 165.18 L18.3
							 164.98 A1.13744 1.13744 -180 0 0 17.16 163.84 L1.14 163.84 A1.13744 1.13744 -180 0 0 -0 164.98 L0 165.18
							 Z" class="st4"/>
			</g>
			<g id="shape34-18" v:mID="34" v:groupContext="shape" transform="translate(141.867,-2.89523)">
				<title>Sheet.34</title>
				<path d="M0 164.25 A2.06807 2.06807 -180 0 0 2.07 166.32 L6.82 166.32 A2.06807 2.06807 -180 0 0 8.89 164.25 L8.89
							 160.84 A2.06807 2.06807 -180 0 0 6.82 158.77 L2.07 158.77 A2.06807 2.06807 -180 0 0 0 160.84 L0 164.25
							 Z" class="st4"/>
			</g>
		</g>
		<g id="group35-20" transform="translate(61.6657,-16.9279)" v:mID="35" v:groupContext="group">
			<title>Sheet.35</title>
			<g id="group36-21" v:mID="36" v:groupContext="group">
				<title>Sheet.36</title>
				<g id="shape37-22" v:mID="37" v:groupContext="shape">
					<title>Sheet.37</title>
					<path d="M54 131.75 C54 149.17 32.57 163.21 27.88 166.07 A1.63983 1.63983 0 0 1 26.12 166.07 C21.43 163.25 0
								 149.21 0 131.75 L0 110.77 A1.67797 1.67797 0 0 1 1.64 109.09 C18.34 108.67 14.49 101.47 27 101.47
								 C39.51 101.47 35.66 108.67 52.36 109.09 A1.67797 1.67797 0 0 1 54 110.77 L54 131.75 Z" class="st6"/>
				</g>
			</g>
			<g id="group38-24" v:mID="38" v:groupContext="group">
				<title>Sheet.38</title>
				<g id="shape39-25" v:mID="39" v:groupContext="shape" transform="translate(2.21186,-2.73479)">
					<title>Sheet.39</title>
					<path d="M49.58 134.63 C49.58 150.65 29.9 163.5 25.59 166.09 A1.52542 1.52542 0 0 1 23.99 166.09 C19.68 163.5
								 0 150.65 0 134.63 L0 115.56 A1.56356 1.56356 0 0 1 1.53 113.73 C16.86 113.47 13.35 106.91 24.79
								 106.91 C36.23 106.91 32.72 113.47 48.05 113.73 A1.56356 1.56356 0 0 1 49.58 115.26 L49.58 134.63
								 Z" class="st7"/>
				</g>
			</g>
		</g>
	</g>
</svg>
