<?xml version="1.0" encoding="UTF-8" standalone="no"?>
<!DOCTYPE svg PUBLIC "-//W3C//DTD SVG 1.1//EN" "http://www.w3.org/Graphics/SVG/1.1/DTD/svg11.dtd">
<!-- Generated by Microsoft Visio, SVG Export get-started.svg Page-1 -->
<svg xmlns="http://www.w3.org/2000/svg" xmlns:xlink="http://www.w3.org/1999/xlink" xmlns:ev="http://www.w3.org/2001/xml-events"
		xmlns:v="http://schemas.microsoft.com/visio/2003/SVGExtensions/" width="0.589782in" height="0.624294in"
		viewBox="0 0 42.4643 44.9492" xml:space="preserve" color-interpolation-filters="sRGB" class="st3">
	<v:documentProperties v:langID="1033" v:viewMarkup="false"/>

	<style type="text/css">
	<![CDATA[
		.st1 {fill:url(#grad0-5);stroke:none;stroke-linecap:butt;stroke-width:0.75}
		.st2 {fill:#0078d4;stroke:none;stroke-linecap:butt;stroke-width:0.75}
		.st3 {fill:none;fill-rule:evenodd;font-size:12px;overflow:visible;stroke-linecap:square;stroke-miterlimit:3}
	]]>
	</style>

	<defs id="Patterns_And_Gradients">
		<linearGradient id="grad0-5" x1="0" y1="0" x2="1" y2="0" gradientTransform="rotate(-90 0.5 0.5)">
			<stop offset="0" stop-color="#0078d4" stop-opacity="1"/>
			<stop offset="0.06" stop-color="#0a7cd7" stop-opacity="1"/>
			<stop offset="0.34" stop-color="#2e8ce1" stop-opacity="1"/>
			<stop offset="0.59" stop-color="#4897e9" stop-opacity="1"/>
			<stop offset="0.82" stop-color="#589eed" stop-opacity="1"/>
			<stop offset="1" stop-color="#5ea0ef" stop-opacity="1"/>
		</linearGradient>
	</defs>
	<g v:mID="0" v:index="1" v:groupContext="foregroundPage">
		<title>Page-1</title>
		<v:pageProperties v:drawingScale="1" v:pageScale="1" v:drawingUnits="19" v:shadowOffsetX="9" v:shadowOffsetY="-9"/>
		<g id="group214-1" transform="translate(0.75,-0.0991736)" v:mID="214" v:groupContext="group">
			<title>Sheet.214</title>
			<g id="shape212-2" v:mID="212" v:groupContext="shape" transform="translate(7.125,-2.13163E-14)">
				<title>Sheet.212</title>
				<path d="M31.58 16.37 C30.3 16.37 29.17 17.42 29.17 18.77 L29.17 23.12 L27.68 23.12 L27.68 15.32 C27.68 13.97 26.62
							 12.92 25.27 12.92 C23.92 12.92 22.87 13.97 22.87 15.32 L22.87 23.05 L21.37 23.05 L21.37 15.32 C21.45
							 13.97 20.47 12.85 19.2 12.77 C17.85 12.7 16.73 13.67 16.65 14.95 C16.65 15.1 16.65 15.17 16.65 15.32
							 L16.65 23.05 L15.07 23.05 L15.07 6.32 C15.07 4.97 14.03 3.92 12.68 3.92 C11.4 3.92 10.35 4.97 10.35
							 6.32 L10.35 23.05 L10.35 29.2 L4.87 26.95 C4.87 26.95 1.43 25.82 0.52 27.17 C0 27.85 0.07 28.82 0.67
							 29.42 L13.57 42.32 C16.72 44.95 23.77 44.2 23.77 44.2 C34.05 43.15 33.82 36.55 33.82 36.55 L33.82 18.77
							 C33.97 17.42 32.92 16.37 31.58 16.37 Z" class="st1"/>
			</g>
			<g id="shape213-6" v:mID="213" v:groupContext="shape" transform="translate(9.99201E-15,-29.85)">
				<title>Sheet.213</title>
				<path d="M8.92 34 L7.57 34 L5.77 34.07 L6.67 34.97 L8.7 37 L14.32 42.62 L11.92 44.95 L6.37 39.4 L4.27 37.3 L3.37
							 36.4 L3.37 38.27 L3.37 41.8 L0 41.8 L0 41.57 L0 30.7 L5.62 30.7 L10.95 30.7 L11.17 30.7 L11.17 34 L8.92
							 34 Z" class="st2"/>
			</g>
		</g>
	</g>
</svg>
