<?xml version="1.0" encoding="UTF-8" standalone="no"?>
<!DOCTYPE svg PUBLIC "-//W3C//DTD SVG 1.1//EN" "http://www.w3.org/Graphics/SVG/1.1/DTD/svg11.dtd">
<!-- Generated by Microsoft Visio, SVG Export plan-migrate.svg Page-1 -->
<svg xmlns="http://www.w3.org/2000/svg" xmlns:xlink="http://www.w3.org/1999/xlink" xmlns:ev="http://www.w3.org/2001/xml-events"
		xmlns:v="http://schemas.microsoft.com/visio/2003/SVGExtensions/" width="0.666667in" height="0.589583in"
		viewBox="0 0 48 42.45" xml:space="preserve" color-interpolation-filters="sRGB" class="st3">
	<v:documentProperties v:langID="1033" v:viewMarkup="false"/>

	<style type="text/css">
	<![CDATA[
		.st1 {fill:url(#grad0-5);stroke:none;stroke-linecap:butt;stroke-width:0.75}
		.st2 {fill:#0078d4;stroke:none;stroke-linecap:butt;stroke-width:0.75}
		.st3 {fill:none;fill-rule:evenodd;font-size:12px;overflow:visible;stroke-linecap:square;stroke-miterlimit:3}
	]]>
	</style>

	<defs id="Patterns_And_Gradients">
		<linearGradient id="grad0-5" x1="0" y1="0" x2="1" y2="0" gradientTransform="rotate(-90 0.5 0.5)">
			<stop offset="0" stop-color="#0078d4" stop-opacity="1"/>
			<stop offset="0.06" stop-color="#0a7cd7" stop-opacity="1"/>
			<stop offset="0.34" stop-color="#2e8ce1" stop-opacity="1"/>
			<stop offset="0.59" stop-color="#4897e9" stop-opacity="1"/>
			<stop offset="0.82" stop-color="#589eed" stop-opacity="1"/>
			<stop offset="1" stop-color="#5ea0ef" stop-opacity="1"/>
		</linearGradient>
	</defs>
	<g v:mID="0" v:index="1" v:groupContext="foregroundPage">
		<title>Page-1</title>
		<v:pageProperties v:drawingScale="1" v:pageScale="1" v:drawingUnits="19" v:shadowOffsetX="9" v:shadowOffsetY="-9"/>
		<g id="group215-1" transform="translate(0.75,-0.75)" v:mID="215" v:groupContext="group">
			<title>Sheet.215</title>
			<g id="shape204-2" v:mID="204" v:groupContext="shape" transform="translate(1.39888E-14,-29.925)">
				<title>Sheet.204</title>
				<path d="M0 42.45 L28.5 42.45 L28.5 33.98 L0 33.98 L0 42.45 Z" class="st1"/>
			</g>
			<g id="shape205-6" v:mID="205" v:groupContext="shape" transform="translate(1.39888E-14,-14.925)">
				<title>Sheet.205</title>
				<path d="M0 42.45 L28.5 42.45 L28.5 33.98 L0 33.98 L0 42.45 Z" class="st1"/>
			</g>
			<g id="shape206-9" v:mID="206" v:groupContext="shape">
				<title>Sheet.206</title>
				<path d="M0 42.45 L28.5 42.45 L28.5 33.98 L0 33.98 L0 42.45 Z" class="st1"/>
			</g>
			<g id="shape207-12" v:mID="207" v:groupContext="shape" transform="translate(32.55,-14.925)">
				<title>Sheet.207</title>
				<path d="M4.65 38.85 L1.8 36 L0 37.73 L4.65 42.45 L13.95 33.15 L12.15 31.35 L4.65 38.85 Z" class="st2"/>
			</g>
			<g id="shape208-14" v:mID="208" v:groupContext="shape" transform="translate(32.55,-4.26326E-14)">
				<title>Sheet.208</title>
				<path d="M4.65 38.93 L1.8 36 L0 37.8 L4.65 42.45 L13.95 33.23 L12.15 31.43 L4.65 38.93 Z" class="st2"/>
			</g>
			<g id="shape209-16" v:mID="209" v:groupContext="shape" transform="translate(32.55,-29.925)">
				<title>Sheet.209</title>
				<path d="M12.15 31.43 L4.65 38.93 L1.8 36 L0 37.8 L4.65 42.45 L13.95 33.23 L12.15 31.43 Z" class="st2"/>
			</g>
		</g>
	</g>
</svg>
