<?xml version="1.0" encoding="UTF-8" standalone="no"?>
<!DOCTYPE svg PUBLIC "-//W3C//DTD SVG 1.1//EN" "http://www.w3.org/Graphics/SVG/1.1/DTD/svg11.dtd">
<!-- Generated by Microsoft Visio, SVG Export update-windows.svg Page-1 -->
<svg xmlns="http://www.w3.org/2000/svg" xmlns:xlink="http://www.w3.org/1999/xlink" xmlns:ev="http://www.w3.org/2001/xml-events"
		xmlns:v="http://schemas.microsoft.com/visio/2003/SVGExtensions/" width="1.94027in" height="1.69538in"
		viewBox="0 0 139.699 122.067" xml:space="preserve" color-interpolation-filters="sRGB" class="st6">
	<v:documentProperties v:langID="1033" v:viewMarkup="false"/>

	<style type="text/css">
	<![CDATA[
		.st1 {fill:url(#grad0-5);stroke:none;stroke-linecap:butt;stroke-width:0.75}
		.st2 {fill:url(#grad0-9);stroke:none;stroke-linecap:butt;stroke-width:0.75}
		.st3 {fill:url(#grad0-13);stroke:none;stroke-linecap:butt;stroke-width:0.75}
		.st4 {fill:url(#grad0-18);stroke:#0066cc;stroke-linecap:butt;stroke-width:3}
		.st5 {fill:#ffffff;stroke:none;stroke-linecap:butt;stroke-width:0.75}
		.st6 {fill:none;fill-rule:evenodd;font-size:12px;overflow:visible;stroke-linecap:square;stroke-miterlimit:3}
	]]>
	</style>

	<defs id="Patterns_And_Gradients">
		<linearGradient id="grad0-5" x1="0" y1="0" x2="1" y2="0" gradientTransform="rotate(-90 0.5 0.5)">
			<stop offset="0" stop-color="#0078d4" stop-opacity="1"/>
			<stop offset="0.82" stop-color="#5ea0ef" stop-opacity="1"/>
		</linearGradient>
		<linearGradient id="grad0-9" x1="0" y1="0" x2="1" y2="0" gradientTransform="rotate(-90 0.5 0.5)">
			<stop offset="0.145" stop-color="#d2ebff" stop-opacity="1"/>
			<stop offset="0.505" stop-color="#dbf1fe" stop-opacity="1"/>
			<stop offset="0.995" stop-color="#f0fffd" stop-opacity="1"/>
		</linearGradient>
		<linearGradient id="grad0-13" x1="0" y1="0" x2="1" y2="0" gradientTransform="rotate(-90 0.5 0.5)">
			<stop offset="0" stop-color="#1490df" stop-opacity="1"/>
			<stop offset="0.98" stop-color="#1f56a3" stop-opacity="1"/>
		</linearGradient>
		<linearGradient id="grad0-18" x1="0" y1="0" x2="1" y2="0" gradientTransform="rotate(90 0.5 0.5)">
			<stop offset="0" stop-color="#5ea0ef" stop-opacity="1"/>
			<stop offset="1" stop-color="#0078d4" stop-opacity="1"/>
		</linearGradient>
	</defs>
	<g v:mID="0" v:index="1" v:groupContext="foregroundPage">
		<title>Page-1</title>
		<v:pageProperties v:drawingScale="1" v:pageScale="1" v:drawingUnits="19" v:shadowOffsetX="9" v:shadowOffsetY="-9"/>
		<g id="group137-1" transform="translate(0.75,-0.75)" v:mID="137" v:groupContext="group">
			<title>Sheet.137</title>
			<g id="shape104-2" v:mID="104" v:groupContext="shape" transform="translate(0,-33.5675)">
				<title>Sheet.104</title>
				<path d="M0 117.72 A4.3501 4.3501 -180 0 0 4.35 122.07 L126.15 122.07 A4.3501 4.3501 -180 0 0 130.5 117.72 L130.5
							 39.42 A4.3501 4.3501 -180 0 0 126.15 35.07 L4.35 35.07 A4.3501 4.3501 -180 0 0 -0 39.42 L0 117.72 Z"
						class="st1"/>
			</g>
			<g id="shape105-6" v:mID="105" v:groupContext="shape" transform="translate(7.25,-40.8175)">
				<title>Sheet.105</title>
				<path d="M0 119.67 A2.39256 2.39256 -180 0 0 2.39 122.07 L113.61 122.07 A2.39256 2.39256 -180 0 0 116 119.67 L116
							 51.96 A2.39256 2.39256 -180 0 0 113.61 49.57 L2.39 49.57 A2.39256 2.39256 -180 0 0 0 51.96 L0 119.67
							 Z" class="st2"/>
			</g>
			<g id="shape111-10" v:mID="111" v:groupContext="shape" transform="translate(32.625,1.42109E-14)">
				<title>Sheet.111</title>
				<path d="M58.72 114.82 C45.89 112.79 45.38 103.43 45.38 88.5 L19.79 88.5 C19.79 103.43 19.28 112.79 6.45 114.82 A7.25
							 7.25 -180 0 0 0 122.07 L65.25 122.07 A7.25 7.25 -180 0 0 58.72 114.82 Z" class="st3"/>
			</g>
			<g id="group136-14" transform="translate(92.7565,-18.5005)" v:mID="136" v:groupContext="group">
				<title>Sheet.136</title>
				<g id="shape131-15" v:mID="131" v:groupContext="shape">
					<title>Sheet.131</title>
					<ellipse cx="21.5965" cy="100.471" rx="21.5965" ry="21.5965" class="st4"/>
				</g>
				<g id="shape132-19" v:mID="132" v:groupContext="shape" transform="translate(4.12812,-7.59769)">
					<title>Sheet.132</title>
					<path d="M2.04 106.04 a0.761692 0.761692 0 0 1 -1.04733 -0.269076 L0.08 104.23 a0.765832 0.765832 0 0 1 0.269076
								 -1.04733 L7.6 98.88 a0.761692 0.761692 0 0 1 1.04733 0.269076 L12.95 106.4 a0.761692 0.761692 0
								 0 1 -0.269076 1.04733 L11.14 108.36 a0.765832 0.765832 0 0 1 -1.04733 -0.269076 L8.82 105.94 A9.75297
								 9.75297 -180 0 0 8.62 109.57 A8.9623 8.9623 -180 0 0 9.81 113.01 A8.80499 8.80499 -180 0 0 11.47
								 115.08 A9.91027 9.91027 -180 0 0 13.63 116.58 A9.52115 9.52115 -180 0 0 16.11 117.44 A9.77781 9.77781
								 -180 0 0 18.08 117.61 a0.753413 0.753413 0 0 1 0.745133 0.691318 L19.17 122.03 A13.6235 13.6235
								 0 0 1 15.26 121.82 A14.3562 14.3562 0 0 1 11.6 120.55 A13.8719 13.8719 0 0 1 8.44 118.34 A13.7891
								 13.7891 0 0 1 4.17 110.06 A13.8719 13.8719 0 0 1 4.56 104.56 L2.04 106.04 ZM19.66 99 A9.61636 9.61636
								 0 0 1 22.15 99.87 A9.84404 9.84404 0 0 1 24.3 101.37 A9.04095 9.04095 0 0 1 27.16 106.86 A9.75297
								 9.75297 0 0 1 26.96 110.49 L25.69 108.34 a0.765832 0.765832 -180 0 0 -1.04733 -0.269076 L23.1 108.98
								 a0.761692 0.761692 -180 0 0 -0.269076 1.04733 L27.13 117.28 a0.765832 0.765832 -180 0 0 1.04733
								 0.264936 L35.43 113.25 a0.761692 0.761692 -180 0 0 0.269076 -1.04733 L34.78 110.66 a0.765832 0.765832
								 -180 0 0 -1.04733 -0.264936 L31.23 111.88 A13.8512 13.8512 -180 0 0 31.61 106.38 A13.785 13.785
								 -180 0 0 27.35 98.1 A13.9837 13.9837 -180 0 0 24.18 95.89 A14.2983 14.2983 -180 0 0 20.52 94.63
								 A13.6608 13.6608 -180 0 0 17.4 94.37 a0.753413 0.753413 -180 0 0 -0.712016 0.827926 L16.96 98.13
								 a0.753413 0.753413 -180 0 0 0.749273 0.695458 A8.69322 8.69322 0 0 1 19.66 99.03 L19.66 99 Z"
							class="st5"/>
				</g>
			</g>
		</g>
	</g>
</svg>
